<?xml version="1.0" standalone="no"?>
<!DOCTYPE svg PUBLIC "-//W3C//DTD SVG 1.1//EN" "http://www.w3.org/Graphics/SVG/1.1/DTD/svg11.dtd" >
<svg xmlns="http://www.w3.org/2000/svg" xmlns:xlink="http://www.w3.org/1999/xlink" version="1.1">
<metadata>
Created by FontForge 20170731 at Fri Dec 31 01:44:55 2021
 By Aleksey,,,
Copyright (c) 2020 by Bureau Brut. All rights reserved.
</metadata>
<defs>
<font id="BoogyBrutWEBL-Light" horiz-adv-x="1187" >
  <font-face 
    font-family="Boogy Brut WEBL Light"
    font-weight="300"
    font-stretch="normal"
    units-per-em="2048"
    panose-1="2 0 0 0 0 0 0 0 0 0"
    ascent="1536"
    descent="-512"
    x-height="1024"
    cap-height="1331"
    bbox="-18 -1358 3164 1987"
    underline-thickness="61"
    underline-position="-367"
    unicode-range="U+000D-1F867"
  />
<missing-glyph horiz-adv-x="2048" 
d="M205 -410v1844h1638v-1844h-1638zM1075 1069q87 0 137 -46q52 -47 52 -122q0 -87 -61 -160q-57 -68 -132 -134q-80 -70 -132 -122q-60 -60 -60 -120q0 -44 25 -79q27 -38 69 -67l24 25q-13 9 -21 22q-7 11 -7 27q0 56 62 108q17 14 63.5 54t74.5 63q76 63 139 142
q62 78 62 188q0 139 -105 220t-259 81q-137 0 -224 -56q-88 -57 -88 -153q0 -22 7 -43q6 -19 20 -43h22q57 106 147 161q88 54 185 54zM999 -223q58 0 93 38q34 37 34 89t-34 89q-35 38 -93 38q-57 0 -92 -38t-35 -89t35 -89t92 -38z" />
    <glyph glyph-name="f_b" unicode="fb" horiz-adv-x="1796" 
d="M358 1028v-4h306v-96h-306v-754q0 -84 36 -109q35 -25 138 -40v-25h-450v25q69 16 101 41q32 24 32 108v754h-184v24l188 56q12 102 55 180q44 80 107 134q64 55 143 83q81 29 162 29q66 0 112 -12q48 -12 72 -27l103 28v-565q66 85 148 135q83 51 188 51q97 0 168 -37
q68 -36 119 -102q50 -65 73 -150q25 -91 25 -184q0 -142 -47 -254q-46 -109 -123 -185q-77 -75 -172 -114q-94 -38 -197 -38q-85 0 -143 16q-63 17 -105 37l-53 -53h-25v1306q-79 31 -131 45q-55 15 -106 15q-114 0 -174 -77t-60 -241zM1266 930q-97 0 -166 -45
q-70 -46 -127 -119v-637q43 -33 96 -54q55 -22 119 -22q169 0 268 130q98 129 98 337q0 178 -72 294t-216 116z" />
    <glyph glyph-name="f_f_b" unicode="ffb" horiz-adv-x="2410" 
d="M973 1028v-4h305v-96h-305v-754q0 -84 36 -109q35 -25 138 -40v-25h-451v25q70 17 102 41q31 24 31 108v754h-471v-754q0 -84 36 -109q35 -25 138 -40v-25h-450v25q69 16 101 41q32 24 32 108v705v24q0 9 2 25h-186v24l200 58q21 84 68 153q45 65 111 114q64 47 140 71
t157 24q115 0 175 -27q58 -26 74 -61q68 75 157 112q93 38 187 38q66 0 112 -12q50 -13 73 -27l102 28v-565q66 83 149 135q83 51 187 51q97 0 168 -37q70 -37 120 -102t73 -150q24 -87 24 -184q0 -142 -47 -254q-46 -109 -123 -185q-77 -75 -172 -114q-94 -38 -197 -38
q-85 0 -143 16q-60 17 -104 37l-54 -53h-24v1306q-79 31 -131 45q-55 15 -107 15q-114 0 -174 -77q-59 -75 -59 -241zM612 1284q-112 0 -177 -63q-64 -63 -75 -197h476q8 53 24 101q16 46 41 87q-87 40 -152 56q-64 16 -137 16zM1880 930q-97 0 -166 -45q-70 -46 -127 -119
v-637q43 -33 96 -54q55 -22 119 -22q170 0 269 130q98 129 98 337q0 177 -73 294q-72 116 -216 116z" />
    <glyph glyph-name="f_f_h" unicode="ffh" horiz-adv-x="2406" 
d="M973 1028v-4h305v-96h-305v-754q0 -84 36 -109q35 -25 138 -40v-25h-451v25q70 17 102 41q31 24 31 108v754h-471v-754q0 -84 36 -109q35 -25 138 -40v-25h-450v25q69 16 101 41q32 24 32 108v705v24q0 9 2 25h-186v24l200 58q21 84 68 153q45 65 111 114q64 47 140 71
t157 24q115 0 175 -27q58 -26 74 -61q68 75 157 112q93 38 187 38q66 0 112 -12q50 -13 73 -27l102 28v-567q67 82 152 135t188 53q130 0 202 -88q73 -90 73 -241v-541q0 -84 31 -108q32 -24 102 -41v-25h-410v25q69 16 101 41q32 24 32 108v520q0 117 -49 175
q-50 59 -149 59q-85 0 -152 -41q-64 -39 -121 -115v-598q0 -84 32 -108q32 -25 101 -41v-25h-409v25q69 16 101 41q32 24 32 108v1112q-79 31 -131 45q-55 15 -107 15q-114 0 -174 -77q-59 -75 -59 -241zM612 1284q-112 0 -177 -63q-64 -63 -75 -197h476q8 53 24 101
q16 46 41 87q-87 40 -152 56q-64 16 -137 16z" />
    <glyph glyph-name="f_f_j" unicode="ffj" horiz-adv-x="1781" 
d="M973 1028v-4h540l74 20v-1044q0 -74 -12 -122q-12 -49 -46 -83q-36 -36 -94 -62q-68 -31 -155 -61v29q101 45 132 106q32 62 32 181v940h-471v-754q0 -84 36 -109q35 -25 138 -40v-25h-451v25q70 17 102 41q31 24 31 108v754h-471v-754q0 -84 36 -109q35 -25 138 -40v-25
h-450v25q69 16 101 41q32 24 32 108v705v24q0 9 2 25h-186v24l200 58q21 84 68 153q45 65 111 114q64 47 140 71t157 24q115 0 175 -27q58 -26 74 -61q68 75 157 112q93 38 187 38q124 0 179 -36t55 -75q0 -20 -4 -36q-4 -17 -17 -25h-10q-98 43 -170 64q-69 20 -127 20
q-114 0 -174 -77q-59 -75 -59 -241zM612 1284q-112 0 -177 -63q-64 -63 -75 -197h476q8 53 24 101q16 46 41 87q-87 40 -152 56q-64 16 -137 16z" />
    <glyph glyph-name="f_f_k" unicode="ffk" horiz-adv-x="2328" 
d="M973 1028v-4h305v-96h-305v-754q0 -84 36 -109q35 -25 138 -40v-25h-451v25q70 17 102 41q31 24 31 108v754h-471v-754q0 -84 36 -109q35 -25 138 -40v-25h-450v25q69 16 101 41q32 24 32 108v705v24q0 9 2 25h-186v24l200 58q21 84 68 153q45 65 111 114q64 47 140 71
t157 24q115 0 175 -27q58 -26 74 -61q68 75 157 112q93 38 187 38q66 0 112 -12q50 -13 73 -27l102 28v-972l305 350q62 69 54 126q-7 55 -86 72v25h378v-25q-75 -30 -131 -72q-57 -42 -139 -136l-141 -158l280 -449q50 -79 102 -117q48 -35 99 -42v-25h-258l-317 526
l-146 -166v-186q0 -84 32 -108q32 -25 101 -41v-25h-409v25q69 16 101 41q32 24 32 108v1112q-79 31 -131 45q-55 15 -107 15q-114 0 -174 -77q-59 -75 -59 -241zM612 1284q-112 0 -177 -63q-64 -63 -75 -197h476q8 53 24 101q16 46 41 87q-87 40 -152 56q-64 16 -137 16z
" />
    <glyph glyph-name="f_f_t" unicode="fft" horiz-adv-x="1943" 
d="M1434 293v635h-461v-754q0 -84 36 -109q35 -25 138 -40v-25h-451v25q70 17 102 41q31 24 31 108v754h-471v-754q0 -84 36 -109q35 -25 138 -40v-25h-450v25q69 16 101 41q32 24 32 108v705v24q0 9 2 25h-186v24l198 58q21 87 67 153q47 68 106 114q60 47 135 71
q73 24 149 24q106 0 162 -29q55 -28 67 -61q57 73 144 113q85 39 180 39q90 0 132 -31q40 -30 40 -64q0 -16 -4 -29q-5 -17 -16 -24h-11q-72 31 -128 47q-52 15 -97 15q-88 0 -136 -54q-46 -52 -46 -164v-106h389l190 188h25v-188h305v-96h-305v-625q0 -103 39 -160t119 -57
q70 0 113 37q46 40 69 113l27 -9q-27 -121 -93 -184t-174 -63q-121 0 -182 76t-61 237zM592 1284q-104 0 -163 -63q-58 -63 -69 -197h469q0 50 11 99q11 50 30 85q-91 41 -149 58q-63 18 -129 18z" />
    <glyph glyph-name="f_h" unicode="fh" horiz-adv-x="1792" 
d="M358 1028v-4h306v-96h-306v-754q0 -84 36 -109q35 -25 138 -40v-25h-450v25q69 16 101 41q32 24 32 108v754h-184v24l188 56q12 102 55 180q44 80 107 134q64 55 143 83q81 29 162 29q66 0 112 -12q48 -12 72 -27l103 28v-567q68 83 151 135q85 53 189 53q129 0 201 -88
q73 -90 73 -241v-541q0 -84 32 -108q32 -25 101 -41v-25h-409v25q69 16 101 41q32 24 32 108v520q0 117 -49 175q-50 59 -150 59q-84 0 -151 -41q-64 -39 -121 -115v-598q0 -84 32 -108q32 -25 101 -41v-25h-410v25q70 17 102 41q31 24 31 108v1112q-79 31 -131 45
q-55 15 -106 15q-114 0 -174 -77t-60 -241z" />
    <glyph glyph-name="f_j" unicode="fj" horiz-adv-x="1167" 
d="M829 -12v940h-471v-754q0 -84 36 -109q35 -25 138 -40v-25h-450v25q69 16 101 41q32 24 32 108v754h-184v24l188 56q12 102 55 180q44 80 107 134q64 55 143 83q81 29 162 29q123 0 178 -36q56 -36 56 -75q0 -16 -5 -36q-4 -18 -16 -25h-10q-98 43 -170 64
q-69 20 -127 20q-114 0 -174 -77t-60 -241v-4h541l74 20v-1044q0 -74 -12 -122t-47 -83q-36 -36 -94 -62q-72 -32 -154 -61v29q101 45 132 106t31 181z" />
    <glyph glyph-name="f_k" unicode="fk" horiz-adv-x="1714" 
d="M358 1028v-4h306v-96h-306v-754q0 -84 36 -109q35 -25 138 -40v-25h-450v25q69 16 101 41q32 24 32 108v754h-184v24l188 56q12 102 55 180q44 80 107 134q64 55 143 83q81 29 162 29q66 0 112 -12q48 -12 72 -27l103 28v-972l305 350q61 68 53 126q-7 55 -86 72v25h379
v-25q-75 -30 -131 -72q-57 -42 -139 -136l-142 -158l281 -449q50 -81 101 -117q48 -34 100 -42v-25h-258l-318 526l-145 -166v-186q0 -84 32 -108q32 -25 101 -41v-25h-410v25q70 17 102 41q31 24 31 108v1112q-79 31 -131 45q-55 15 -106 15q-114 0 -174 -77t-60 -241z" />
    <glyph glyph-name="f_t" unicode="ft" horiz-adv-x="1329" 
d="M819 293v635h-461v-754q0 -84 36 -109q35 -25 138 -40v-25h-450v25q69 16 101 41q32 24 32 108v754h-184v24l184 54v16q0 95 35 173q35 77 92 130q59 55 131 81q76 28 152 28q90 0 132 -31q40 -30 40 -64q0 -16 -4 -29q-5 -16 -17 -24h-10q-72 31 -128 47q-53 15 -97 15
q-89 0 -137 -54q-46 -52 -46 -164v-106h390l190 188h25v-188h305v-96h-305v-625q0 -104 38 -160q39 -57 119 -57q71 0 114 37q46 40 69 113l26 -9q-27 -122 -92 -184q-66 -63 -174 -63q-121 0 -182 76q-62 77 -62 237z" />
    <glyph glyph-name="f_f" unicode="ff" horiz-adv-x="1339" 
d="M973 1130v-106h305v-96h-305v-754q0 -84 36 -109q35 -25 138 -40v-25h-451v25q70 17 102 41q31 24 31 108v754h-471v-754q0 -84 36 -109q35 -25 138 -40v-25h-450v25q69 16 101 41q32 24 32 108v705v24q0 9 2 25h-186v24l198 58q21 87 67 153q47 68 106 114q60 47 135 71
q73 24 149 24q106 0 162 -29q55 -28 67 -61q57 73 144 113q85 39 180 39q90 0 132 -31q40 -30 40 -64q0 -16 -4 -29q-5 -17 -16 -24h-11q-72 31 -128 47q-52 15 -97 15q-88 0 -136 -54q-46 -52 -46 -164zM592 1284q-104 0 -163 -63q-58 -63 -69 -197h469q0 50 11 99
q11 50 30 85q-91 41 -149 58q-63 18 -129 18z" />
    <glyph glyph-name="fi" unicode="fi" horiz-adv-x="1177" 
d="M358 1028v-4h541l74 20v-870q0 -84 26 -109q27 -25 86 -40v-25h-368v25q59 15 86 40q26 25 26 109v754h-471v-754q0 -84 36 -109q35 -25 138 -40v-25h-450v25q69 16 101 41q32 24 32 108v754h-184v24l188 56q12 102 55 180q44 80 107 134q64 55 143 83q81 29 162 29
q123 0 178 -36q56 -36 56 -75q0 -16 -5 -36q-4 -18 -16 -25h-10q-98 43 -170 64q-69 20 -127 20q-114 0 -174 -77t-60 -241z" />
    <glyph glyph-name="fl" unicode="fl" horiz-adv-x="1177" 
d="M358 1028v-4h306v-96h-306v-754q0 -84 36 -109q35 -25 138 -40v-25h-450v25q69 16 101 41q32 24 32 108v754h-184v24l188 56q12 102 55 180q44 80 107 134q64 55 143 83q81 29 162 29q66 0 112 -12q48 -12 72 -27l103 28v-1249q0 -84 32 -108q32 -25 101 -41v-25h-410v25
q70 17 102 41q31 24 31 108v1112q-79 31 -131 45q-55 15 -106 15q-114 0 -174 -77t-60 -241z" />
    <glyph glyph-name="f_f_i" unicode="ffi" horiz-adv-x="1792" 
d="M973 1028v-4h540l74 20v-870q0 -84 27 -109t86 -40v-25h-369v25q59 15 86 40t27 109v754h-471v-754q0 -84 36 -109q35 -25 138 -40v-25h-451v25q70 17 102 41q31 24 31 108v754h-471v-754q0 -84 36 -109q35 -25 138 -40v-25h-450v25q69 16 101 41q32 24 32 108v705v24
q0 9 2 25h-186v24l200 58q21 84 68 153q45 65 111 114q64 47 140 71t157 24q115 0 175 -27q58 -26 74 -61q68 75 157 112q93 38 187 38q124 0 179 -36t55 -75q0 -20 -4 -36q-4 -17 -17 -25h-10q-98 43 -170 64q-69 20 -127 20q-114 0 -174 -77q-59 -75 -59 -241zM612 1284
q-112 0 -177 -63q-64 -63 -75 -197h476q8 53 24 101q16 46 41 87q-87 40 -152 56q-64 16 -137 16z" />
    <glyph glyph-name="f_f_l" unicode="ffl" horiz-adv-x="1792" 
d="M973 1028v-4h305v-96h-305v-754q0 -84 36 -109q35 -25 138 -40v-25h-451v25q70 17 102 41q31 24 31 108v754h-471v-754q0 -84 36 -109q35 -25 138 -40v-25h-450v25q69 16 101 41q32 24 32 108v705v24q0 9 2 25h-186v24l200 58q21 84 68 153q45 65 111 114q64 47 140 71
t157 24q115 0 175 -27q58 -26 74 -61q68 75 157 112q93 38 187 38q66 0 112 -12q50 -13 73 -27l102 28v-1249q0 -84 32 -108q32 -25 101 -41v-25h-409v25q69 16 101 41q32 24 32 108v1112q-79 31 -131 45q-55 15 -107 15q-114 0 -174 -77q-59 -75 -59 -241zM612 1284
q-112 0 -177 -63q-64 -63 -75 -197h476q8 53 24 101q16 46 41 87q-87 40 -152 56q-64 16 -137 16z" />
    <glyph glyph-name=".notdef" horiz-adv-x="2048" 
d="M205 -410v1844h1638v-1844h-1638zM1075 1069q87 0 137 -46q52 -47 52 -122q0 -87 -61 -160q-57 -68 -132 -134q-80 -70 -132 -122q-60 -60 -60 -120q0 -44 25 -79q27 -38 69 -67l24 25q-13 9 -21 22q-7 11 -7 27q0 56 62 108q17 14 63.5 54t74.5 63q76 63 139 142
q62 78 62 188q0 139 -105 220t-259 81q-137 0 -224 -56q-88 -57 -88 -153q0 -22 7 -43q6 -19 20 -43h22q57 106 147 161q88 54 185 54zM999 -223q58 0 93 38q34 37 34 89t-34 89q-35 38 -93 38q-57 0 -92 -38t-35 -89t35 -89t92 -38z" />
    <glyph glyph-name="glyph1" horiz-adv-x="0" 
 />
    <glyph glyph-name="nonmarkingreturn" horiz-adv-x="682" 
 />
    <glyph glyph-name="CR" unicode="&#xd;" horiz-adv-x="1024" 
 />
    <glyph glyph-name="space" unicode=" " horiz-adv-x="450" 
 />
    <glyph glyph-name="exclam" unicode="!" horiz-adv-x="540" 
d="M287 418h-33l-68 913h168zM270 -20q-58 0 -92 37q-35 38 -35 89q0 52 35 90q34 37 92 37t92 -37q35 -38 35 -90q0 -51 -35 -89q-34 -37 -92 -37z" />
    <glyph glyph-name="quotedbl" unicode="&#x22;" horiz-adv-x="806" 
d="M201 791l-78 540h192l-77 -540h-37zM569 791l-77 540h192l-78 -540h-37z" />
    <glyph glyph-name="numbersign" unicode="#" horiz-adv-x="1146" 
d="M195 881h196l137 450h70l-137 -450h356l137 450h70l-137 -450h178v-62h-197l-94 -307h178v-61h-196l-138 -451h-69l137 451h-356l-137 -451h-70l137 451h-178v61h197l94 307h-178v62zM348 512h357l94 307h-357z" />
    <glyph glyph-name="dollar" unicode="$" horiz-adv-x="1034" 
d="M549 1536v-184q100 -1 181 -30q75 -26 138 -65v-284h-24q-24 137 -106 217q-81 80 -189 96v-530q54 -27 131 -69q66 -36 117 -81q53 -47 83 -104q31 -59 31 -137q0 -161 -96 -263q-95 -101 -266 -118v-189h-70v185q-109 1 -201 27q-90 25 -155 67v336h24q12 -87 44 -153
q30 -62 77 -107q45 -43 101 -69q59 -27 110 -34v582q-97 49 -129 66q-64 35 -113 78q-53 46 -81 100q-31 59 -31 133q0 147 100 238t254 106v186h70zM238 1067q0 -101 71 -163t170 -113v499q-105 -5 -173 -65q-68 -61 -68 -158zM797 295q0 110 -74 178q-75 69 -174 119v-549
q116 1 182 74q66 72 66 178z" />
    <glyph glyph-name="ampersand" unicode="&#x26;" horiz-adv-x="1329" 
d="M743 557l228 -244q8 16 17 45q5 16 13 52q27 127 -1 192q-27 63 -150 90v25h438v-25q-63 -16 -102 -39q-40 -23 -63 -55q-24 -33 -39 -80q-12 -37 -29 -112q-7 -33 -20 -70q-4 -11 -11.5 -33t-11.5 -33l90 -96q64 -68 123 -107q52 -34 104 -42v-25h-258l-135 147
q-67 -81 -167 -127q-99 -45 -228 -45q-196 0 -308 100q-110 98 -110 244q0 136 83 216q82 79 222 174q-80 92 -128 174q-50 85 -50 166q0 127 93 215q92 88 267 88q142 0 218 -75q77 -75 77 -165q0 -121 -95 -202q-94 -80 -232 -173q52 -58 79 -88q40 -45 86 -92zM360 1104
q0 -70 51 -153q48 -79 130 -173q29 18 81 55q45 32 76 66q38 41 58 80q22 43 22 94q0 105 -55 160t-156 55q-93 0 -150 -51t-57 -133zM256 373q0 -126 98 -199q100 -74 254 -74q85 0 160 25q71 24 123 74l-238 262q-32 34 -99 106q-34 36 -91 101q-71 -43 -141 -118
q-66 -70 -66 -177z" />
    <glyph glyph-name="quotesingle" unicode="'" horiz-adv-x="438" 
d="M201 791l-78 540h192l-77 -540h-37z" />
    <glyph glyph-name="parenleft" unicode="(" horiz-adv-x="628" 
d="M287 635q0 -257 93 -481t228 -371l-20 -19q-80 72 -158 161q-74 84 -139 195q-63 108 -100 234q-37 127 -37 281q0 153 37 280q37 128 100 235q65 111 139 195t158 160l20 -18q-135 -147 -228 -371t-93 -481z" />
    <glyph glyph-name="parenright" unicode=")" horiz-adv-x="628" 
d="M342 635q0 257 -93 481q-93 222 -229 371l21 18q84 -76 158 -160t139 -195q61 -104 99 -235t38 -280q0 -150 -38 -281q-37 -129 -99 -234q-65 -111 -139 -195q-78 -89 -158 -161l-21 19q136 149 229 371q93 224 93 481z" />
    <glyph glyph-name="asterisk" unicode="*" horiz-adv-x="847" 
d="M82 1030l43 135l283 -149l-54 315h142l-56 -315l285 149l41 -135l-315 -45l227 -223l-113 -84l-141 291l-141 -291l-113 84l227 223z" />
    <glyph glyph-name="plus" unicode="+" horiz-adv-x="1003" 
d="M123 666h346v358h66v-358h346v-62h-346v-358h-66v358h-346v62z" />
    <glyph glyph-name="comma" unicode="," horiz-adv-x="540" 
d="M184 233h193v-30l-238 -510h-37z" />
    <glyph glyph-name="hyphen" unicode="-" horiz-adv-x="696" 
d="M123 707h450v-144h-450v144z" />
    <glyph glyph-name="period" unicode="." horiz-adv-x="540" 
d="M270 -20q-58 0 -92 37q-35 38 -35 89q0 52 35 90q34 37 92 37t92 -37q35 -38 35 -90q0 -51 -35 -89q-34 -37 -92 -37z" />
    <glyph glyph-name="slash" unicode="/" horiz-adv-x="686" 
d="M117 0h-76l528 1331h76z" />
    <glyph glyph-name="zero" unicode="0" horiz-adv-x="1228" 
d="M614 1352q108 0 200 -50q90 -49 156 -141q64 -89 100 -217t36 -278q0 -152 -36 -279q-36 -128 -100 -217q-65 -91 -156 -140q-92 -50 -200 -50q-107 0 -199 50q-91 49 -156 140q-64 89 -100 217q-36 127 -36 279q0 151 36 278q36 128 100 217q66 92 156 141q92 50 199 50
zM614 1290q-68 0 -127 -28q-58 -27 -104 -100q-46 -72 -71 -192q-25 -119 -25 -304q0 -186 25 -305q25 -120 71 -192q45 -71 104 -99q61 -29 127 -29t127 29q60 28 105 99q44 69 70 192q26 124 26 305q0 180 -26 304q-26 123 -70 192q-46 72 -105 100t-127 28z" />
    <glyph glyph-name="one" unicode="1" horiz-adv-x="665" 
d="M625 25v-25h-537v25q102 18 148 42q47 24 47 107v961l-263 -129v32l410 314v-1178q0 -83 47 -107q46 -24 148 -42z" />
    <glyph glyph-name="two" unicode="2" horiz-adv-x="997" 
d="M61 0v20q203 230 297 337q126 144 200 246q78 107 112 191q35 87 35 173q0 122 -74 194q-73 72 -205 72q-127 0 -208 -83q-82 -83 -89 -226h-31q0 190 111 309t285 119q164 0 264 -94q98 -92 98 -257q0 -98 -44 -191q-41 -87 -124 -190q-82 -102 -195 -218
q-147 -151 -257 -269h679v-133h-854z" />
    <glyph glyph-name="three" unicode="3" horiz-adv-x="964" 
d="M862 414q0 -108 -42 -191q-42 -82 -112 -136t-162 -81q-88 -26 -190 -26q-130 0 -212 52q-83 53 -83 144q0 17 9 48q7 23 20 46h23q63 -114 149 -167q85 -52 182 -52q113 0 196 80t83 215q0 143 -101 232t-268 110v41q146 27 227 93t81 184q0 111 -66 168t-176 57
q-102 0 -181 -55t-100 -187h-30q6 173 109 267q105 96 257 96q149 0 238 -82q90 -82 90 -213q0 -101 -57 -174q-59 -76 -164 -127q109 -32 195 -126q85 -92 85 -216z" />
    <glyph glyph-name="four" unicode="4" horiz-adv-x="1032" 
d="M776 174q0 -83 47 -107q46 -24 148 -42v-25h-537v25q102 18 148 42q47 24 47 107v133h-609v21l629 1003h127v-928h215v-96h-215v-133zM147 403h482v771z" />
    <glyph glyph-name="five" unicode="5" horiz-adv-x="948" 
d="M846 422q0 -108 -41 -192q-40 -81 -109 -138q-68 -56 -156 -84q-87 -28 -186 -28q-128 0 -210 52q-83 53 -83 144q0 24 8 53t21 47h23q61 -116 149 -167q90 -52 187 -52q110 0 193 71t83 206q0 180 -143 284q-146 107 -430 175l131 538h548v-133h-518l-63 -276
q302 -82 449 -196t147 -304z" />
    <glyph glyph-name="six" unicode="6" horiz-adv-x="1110" 
d="M623 1274q-153 0 -252 -142t-99 -464v-28v-28q55 88 150 154q93 65 219 65q88 0 155 -29t114 -81q46 -51 72 -122q26 -72 26 -153q0 -110 -36 -198q-36 -89 -94 -148q-58 -60 -135 -90t-155 -30q-120 0 -209 47q-88 46 -145 129q-56 81 -83 196q-28 118 -28 250
q0 169 47 312q46 141 123 237t177 148q103 53 208 53q119 0 196 -46q78 -46 78 -128q0 -22 -7 -43q-8 -23 -19 -43h-23q-51 97 -124 140q-71 42 -156 42zM582 721q-77 0 -161 -41t-145 -139q16 -227 100 -362q83 -134 234 -134q120 0 192 85q72 86 72 226q0 164 -78 264
q-79 101 -214 101z" />
    <glyph glyph-name="seven" unicode="7" horiz-adv-x="894" 
d="M874 1307q-157 -303 -285 -645q-112 -299 -241 -662h-184v25l602 1173h-725v133h833v-24z" />
    <glyph glyph-name="eight" unicode="8" horiz-adv-x="1044" 
d="M942 340q0 -159 -113 -260q-112 -100 -301 -100q-200 0 -313 96t-113 231q0 74 27 131t71 104q43 46 101 84q27 17 117 74q-105 62 -190 141q-83 77 -83 195q0 142 104 229t275 87q172 0 270 -81q97 -81 97 -196q0 -66 -26 -116q-26 -51 -64 -90q-36 -38 -87 -71
q-50 -33 -96 -61q66 -37 120 -73q59 -39 104 -86q44 -46 72 -106q28 -61 28 -132zM272 1087q0 -53 25 -101q24 -46 65 -84q38 -35 95 -71q27 -17 110 -65q89 62 138 135t49 174q0 100 -67 158q-66 57 -171 57q-106 0 -174 -56q-70 -58 -70 -147zM244 307q0 -122 81 -194
t210 -72q121 0 201 69q79 69 79 179q0 69 -30 125q-31 57 -78 100q-49 44 -112 82q-21 13 -63 37.5t-63 36.5q-104 -73 -165 -160q-60 -86 -60 -203z" />
    <glyph glyph-name="nine" unicode="9" horiz-adv-x="1110" 
d="M487 57q153 0 252 143q99 142 99 464v27v28q-55 -88 -150 -154q-93 -65 -219 -65q-88 0 -155 29t-114 81q-46 51 -72 122q-26 72 -26 153q0 109 36 198t94 148q58 60 135 90q79 31 155 31q120 0 209 -47q88 -46 145 -129q55 -80 83 -197q28 -118 28 -250q0 -169 -47 -312
q-46 -141 -123 -237t-177 -148q-101 -52 -208 -52q-119 0 -196 46q-78 46 -78 128q0 22 7 43q8 23 19 43h23q52 -98 124 -141q71 -42 156 -42zM236 975q0 -163 78 -263q80 -102 214 -102q77 0 161 41q83 41 145 140q-16 226 -100 361q-83 134 -234 134q-120 0 -192 -85
t-72 -226z" />
    <glyph glyph-name="colon" unicode=":" horiz-adv-x="540" 
d="M270 -20q-58 0 -92 37q-35 38 -35 89q0 52 35 90q34 37 92 37t92 -37q35 -38 35 -90q0 -51 -35 -89q-34 -37 -92 -37zM270 791q-58 0 -92 37q-35 38 -35 90q0 51 35 89q34 37 92 37t92 -37q35 -38 35 -89q0 -52 -35 -90q-34 -37 -92 -37z" />
    <glyph glyph-name="semicolon" unicode=";" horiz-adv-x="540" 
d="M270 791q-58 0 -92 37q-35 38 -35 90q0 51 35 89q34 37 92 37t92 -37q35 -38 35 -89q0 -52 -35 -90q-34 -37 -92 -37zM184 233h193v-30l-238 -510h-37z" />
    <glyph glyph-name="less" unicode="&#x3c;" horiz-adv-x="1003" 
d="M123 604v62l758 378v-73l-680 -336l680 -336v-74z" />
    <glyph glyph-name="equal" unicode="=" horiz-adv-x="1003" 
d="M123 829h758v-61h-758v61zM123 502h758v-62h-758v62z" />
    <glyph glyph-name="greater" unicode="&#x3e;" horiz-adv-x="1003" 
d="M881 604l-758 -379v74l680 336l-680 336v73l758 -378v-62z" />
    <glyph glyph-name="question" unicode="?" horiz-adv-x="839" 
d="M463 1272q-97 0 -185 -54q-90 -55 -147 -161h-22q-14 24 -20 43q-7 21 -7 43q0 95 88 152t223 57q154 0 259 -81q106 -82 106 -220q0 -109 -63 -188q-65 -82 -138 -142q-28 -23 -74.5 -63t-63.5 -54q-63 -52 -63 -108q0 -14 8 -27q9 -15 21 -23l-25 -24q-42 29 -68 66
t-26 79q0 60 61 121q52 52 132 122q75 66 132 134q60 72 60 160q0 76 -51 122q-50 46 -137 46zM387 -20q-58 0 -92 37q-35 38 -35 90q0 51 35 89q34 37 92 37t92 -37q35 -38 35 -89q0 -52 -35 -90q-34 -37 -92 -37z" />
    <glyph glyph-name="at" unicode="@" horiz-adv-x="1566" 
d="M1133 125q-80 0 -141 44t-68 142q-33 -92 -107 -143q-73 -51 -162 -51q-93 0 -152 52q-61 53 -61 122q0 26 14 51t46 41l411 209v153q0 58 -37 92q-36 33 -112 33q-82 0 -128 -62t-40 -126q-32 -14 -69 -16q-35 -1 -62 0q-7 49 33 97q39 47 120 103q75 52 130 79
q50 24 92 24q97 0 153 -58t56 -149v-410q0 -70 35 -101q37 -32 83 -32q97 0 152 98t55 275q0 114 -41 214t-113 172q-74 74 -177 114q-105 41 -226 41q-132 0 -251 -48q-114 -46 -198 -130q-82 -82 -129 -197q-46 -113 -46 -250q0 -136 41 -247q41 -112 121 -195
q78 -81 193 -128t255 -47q85 0 165 18t144 50l27 -55q-71 -37 -157 -58q-81 -20 -179 -20q-155 0 -283 51q-127 51 -214 141t-135 216t-48 274q0 150 52 276q53 128 143 218q91 91 220 144q126 52 279 52q132 0 249 -44t199 -123q84 -81 131 -191q48 -112 48 -248
q2 -207 -80 -336q-83 -131 -231 -131zM578 322q0 -36 30 -64q31 -29 90 -29q88 0 152 64q63 63 63 166v73l-286 -151q-26 -14 -38 -28q-11 -12 -11 -31z" />
    <glyph glyph-name="A" unicode="A" horiz-adv-x="1355" 
d="M403 25v-25h-403v25q74 17 129 65q57 50 90 135l447 1127h24l459 -1155q34 -87 75 -121q42 -34 111 -51v-25h-440v25q89 15 112 48t-10 122l-84 215h-544l-72 -187q-32 -87 -8 -136q23 -47 114 -62zM405 506h472l-236 606z" />
    <glyph glyph-name="B" unicode="B" horiz-adv-x="1296" 
d="M82 1307v24h586q206 0 325 -80t119 -227q0 -120 -75 -199q-76 -80 -210 -110q163 -30 255 -125t92 -242q0 -167 -130 -258q-129 -90 -356 -90h-606v25q83 21 118 43q36 22 36 106v983q0 85 -36 107q-35 22 -118 43zM662 1270h-279v-533h270q154 0 232 80q78 79 78 199
q0 116 -76 185q-77 69 -225 69zM674 676h-291v-615h299q170 0 256 80t86 215q0 137 -88 228q-89 92 -262 92z" />
    <glyph glyph-name="C" unicode="C" horiz-adv-x="1374" 
d="M743 1270q-104 0 -191 -37q-92 -39 -156 -109q-67 -73 -104 -175q-38 -105 -38 -234q0 -143 39 -256t108 -188q66 -72 169 -114q98 -40 216 -40q99 0 182 29q84 29 149 90q66 62 104 153q38 93 43 223h28q-5 -307 -149 -469q-145 -163 -402 -163q-142 0 -256 48
q-115 48 -194 135q-81 88 -124 209q-44 123 -44 267q0 166 56 297q56 132 150 224q94 93 215 142q123 50 251 50q135 0 225 -30t192 -87v-354h-24q-45 212 -162 301q-116 88 -283 88z" />
    <glyph glyph-name="D" unicode="D" horiz-adv-x="1445" 
d="M82 1307v24h479q193 0 337 -45q146 -46 238 -127q95 -84 140 -198q47 -118 47 -259q0 -150 -46 -278q-47 -130 -142 -222q-98 -95 -246 -148q-150 -54 -354 -54h-453v25q83 21 118 43q36 22 36 106v983q0 85 -36 107q-35 22 -118 43zM551 1270h-168v-1209h156
q164 0 284 47q121 47 194 128q75 82 109 197q35 117 35 251q0 124 -34 230q-35 110 -107 186q-72 77 -191 124q-116 46 -278 46z" />
    <glyph glyph-name="E" unicode="E" horiz-adv-x="1212" 
d="M82 1307v24h975l53 -307h-29q-51 148 -129 197q-77 49 -200 49h-369v-553h254q88 0 127 52q38 51 59 142h29v-450h-29q-21 91 -59 142q-39 52 -127 52h-254v-594h389q122 0 201 50q78 50 129 196h28l-53 -307h-995v25q83 21 118 43q36 22 36 106v983q0 85 -36 107
q-35 22 -118 43z" />
    <glyph glyph-name="F" unicode="F" horiz-adv-x="1150" 
d="M82 1307v24h954l54 -307h-29q-51 148 -129 197q-77 49 -201 49h-348v-604h274q88 0 127 52q39 53 60 142h28v-450h-28q-21 89 -60 142q-39 52 -127 52h-274v-430q0 -83 47 -107q46 -24 148 -42v-25h-496v25q83 21 118 43q36 22 36 106v983q0 85 -36 107q-35 22 -118 43z
" />
    <glyph glyph-name="G" unicode="G" horiz-adv-x="1531" 
d="M659 670v61h668v-731h-24l-113 195q-76 -104 -188 -160q-110 -55 -261 -55q-142 0 -256 48q-115 48 -194 135q-81 88 -124 209q-44 123 -44 267q0 165 58 297q57 131 155 224q98 94 223 142q129 50 262 50q153 0 257 -27t216 -90v-354h-24q-45 216 -174 304
q-130 89 -308 89q-108 0 -208 -38q-96 -36 -170 -109q-72 -71 -114 -175q-42 -105 -42 -237q0 -143 39 -256t108 -188q66 -72 169 -114q98 -40 216 -40q123 0 228 36q104 36 170 115v402h-525z" />
    <glyph glyph-name="H" unicode="H" horiz-adv-x="1564" 
d="M82 1307v24h455v-24q-83 -21 -118 -43q-36 -22 -36 -107v-440h799v440q0 85 -36 107q-35 22 -118 43v24h455v-24q-83 -21 -118 -43q-36 -22 -36 -107v-983q0 -84 36 -106q35 -22 118 -43v-25h-455v25q83 21 118 43q36 22 36 106v481h-799v-481q0 -84 36 -106
q35 -22 118 -43v-25h-455v25q83 21 118 43q36 22 36 106v983q0 85 -36 107q-35 22 -118 43z" />
    <glyph glyph-name="I" unicode="I" horiz-adv-x="618" 
d="M82 1307v24h455v-24q-83 -21 -118 -43q-36 -22 -36 -107v-983q0 -84 36 -106q35 -22 118 -43v-25h-455v25q83 21 118 43q36 22 36 106v983q0 85 -36 107q-35 22 -118 43z" />
    <glyph glyph-name="J" unicode="J" horiz-adv-x="608" 
d="M236 1157q0 85 -36 107q-35 22 -118 43v24h455v-24q-83 -21 -118 -43q-36 -22 -36 -107v-1157q0 -76 -13 -122q-14 -49 -47 -82t-96 -62q-69 -32 -155 -62v29q101 45 132 106q32 62 32 181v1169z" />
    <glyph glyph-name="K" unicode="K" horiz-adv-x="1290" 
d="M82 25q83 21 118 43q36 22 36 106v983q0 85 -36 107q-35 22 -118 43v24h496v-24q-102 -18 -148 -42q-47 -24 -47 -108v-610l428 522q86 105 74 163t-123 75v24h436v-24q-75 -15 -138 -61q-64 -47 -145 -146l-239 -293l393 -602q51 -78 101 -122q48 -42 120 -58v-25h-264
l-446 690l-197 -239v-277q0 -83 47 -107q46 -24 148 -42v-25h-496v25z" />
    <glyph glyph-name="L" unicode="L" horiz-adv-x="1089" 
d="M82 25q83 21 118 43q36 22 36 106v983q0 85 -36 107q-35 22 -118 43v24h496v-24q-102 -18 -148 -42q-47 -24 -47 -108v-1096h287q121 0 200 50q78 50 129 196h29l-53 -307h-893v25z" />
    <glyph glyph-name="M" unicode="M" horiz-adv-x="1667" 
d="M1284 174v1012l-477 -1206h-25l-477 1200v-965q0 -56 11 -85q12 -32 34 -51q21 -18 61 -31q24 -8 89 -23v-25h-459v25q65 15 89 23q38 12 60 31t34 51t12 85v1026q-29 23 -68 38q-46 18 -86 28v24h317l432 -1112l431 1112h323v-24q-83 -21 -118 -43t-35 -107v-983
q0 -84 35 -106t118 -43v-25h-455v25q83 21 118 43q36 22 36 106z" />
    <glyph glyph-name="N" unicode="N" horiz-adv-x="1472" 
d="M1247 -20h-35l-907 1118v-883q0 -56 11 -85q12 -32 34 -51q21 -18 61 -31q24 -8 89 -23v-25h-459v25q65 15 89 23q38 12 60 31t34 51t12 85v967q-59 62 -110 90q-50 27 -106 35v24h285l873 -1069v854q0 54 -12 85q-13 33 -33 51q-21 18 -61 31q-36 12 -89 24v24h459v-24
q-53 -12 -89 -24q-40 -13 -61 -31q-22 -19 -34 -51q-11 -29 -11 -85v-1136z" />
    <glyph glyph-name="O" unicode="O" horiz-adv-x="1556" 
d="M778 1352q142 0 262 -49q119 -48 208 -139q85 -87 136 -214q50 -126 50 -274q0 -153 -50 -282q-51 -130 -136 -220q-88 -93 -208 -143q-122 -51 -262 -51q-142 0 -262 49q-121 49 -208 138q-85 87 -136 214q-49 123 -49 274q0 156 49 282q51 130 136 220q88 93 208 143
q124 52 262 52zM758 1286q-104 0 -189 -43t-148 -120q-61 -74 -98 -183q-36 -106 -36 -233q0 -152 39 -275q40 -125 106 -209q68 -85 162 -132q93 -46 205 -46q103 0 188 43q86 44 149 120q61 74 98 183q36 107 36 234q0 151 -39 274t-107 209t-161 132t-205 46z" />
    <glyph glyph-name="P" unicode="P" horiz-adv-x="1214" 
d="M82 1307v24h504q245 0 386 -102q140 -101 140 -293q0 -209 -145 -327q-144 -117 -398 -117h-186v-318q0 -83 47 -107q46 -24 148 -42v-25h-496v25q83 21 118 43q36 22 36 106v983q0 85 -36 107q-35 22 -118 43zM580 1270h-197v-717h188q197 0 294 105q98 106 98 266
q0 157 -97 252q-95 94 -286 94z" />
    <glyph glyph-name="Q" unicode="Q" horiz-adv-x="1583" 
d="M1143 -190h119v-117h-144q-83 0 -137 16q-55 16 -97 51q-42 34 -78 90q-39 60 -77 132q-132 7 -245 61q-111 53 -191 140q-81 88 -125 208q-45 121 -45 264q0 156 49 282q51 130 136 220q88 93 208 143q124 52 262 52q142 0 262 -49q119 -48 208 -139q85 -87 136 -214
q50 -126 50 -274q0 -145 -48 -277q-46 -126 -132 -218q-87 -93 -201 -144q-117 -52 -254 -57q32 -49 63 -85q30 -34 69 -53q36 -17 88 -25q46 -7 124 -7zM758 1286q-104 0 -189 -43t-148 -120q-61 -74 -98 -183q-36 -106 -36 -233q0 -152 39 -275q40 -125 106 -209
q68 -85 162 -132q93 -46 205 -46q103 0 188 43q86 44 149 120q61 74 98 183q36 107 36 234q0 151 -39 274t-107 209t-161 132t-205 46z" />
    <glyph glyph-name="R" unicode="R" horiz-adv-x="1263" 
d="M82 1307v24h586q217 0 341 -85t124 -242q0 -159 -116 -254q-117 -96 -319 -103q17 -10 36 -29q14 -14 38 -45l291 -389q60 -82 104 -116q46 -36 97 -43v-25h-246l-393 559q-33 50 -70 63q-36 13 -88 13h-84v-461q0 -83 47 -107q46 -24 148 -42v-25h-496v25q83 21 118 43
q36 22 36 106v983q0 85 -36 107q-35 22 -118 43zM662 1270h-279v-574h270q166 0 248 85t82 214q0 125 -81 200t-240 75z" />
    <glyph glyph-name="S" unicode="S" horiz-adv-x="1034" 
d="M543 43q119 0 186 72q68 73 68 180q0 133 -106 206q-109 75 -230 136q-127 64 -231 143q-105 79 -105 226q0 78 32 144q31 64 86 108q57 46 129 69q78 25 163 25q108 0 190 -28q77 -26 143 -67v-284h-24q-27 153 -125 235t-225 82q-110 0 -183 -61t-73 -162
q0 -122 105 -191q111 -73 231 -133q127 -63 232 -146t105 -232q0 -173 -113 -279t-313 -106q-116 0 -204 26q-91 27 -158 68v336h24q12 -100 53 -170q43 -73 95 -114q58 -45 120 -64q63 -19 128 -19z" />
    <glyph glyph-name="T" unicode="T" horiz-adv-x="1335" 
d="M936 0h-537v25q102 18 148 42q47 24 47 107v1096h-174q-124 0 -201 -49q-78 -49 -129 -197h-29l54 307h1106l53 -307h-29q-51 148 -129 197q-77 49 -201 49h-174v-1096q0 -83 47 -107q46 -24 148 -42v-25z" />
    <glyph glyph-name="U" unicode="U" horiz-adv-x="1445" 
d="M967 1331h458v-24q-53 -12 -89 -24q-38 -12 -60 -31t-34 -51q-11 -29 -11 -85v-600q0 -259 -134 -398q-133 -138 -374 -138t-374 138q-134 139 -134 398v641q0 85 -36 107q-35 22 -118 43v24h455v-24q-83 -21 -118 -43q-36 -22 -36 -107v-641q0 -210 106 -319t294 -109
t294 109q105 108 105 319v600q0 56 -11 85q-12 32 -34 51t-60 31q-36 12 -89 24v24z" />
    <glyph glyph-name="V" unicode="V" horiz-adv-x="1355" 
d="M1137 1106l-447 -1126h-24l-459 1155q-33 85 -75 120q-43 36 -112 52v24h441v-24q-88 -15 -112 -49t9 -121l357 -918l344 889q32 87 8 136q-24 48 -115 63v24h404v-24q-72 -17 -129 -66t-90 -135z" />
    <glyph glyph-name="W" unicode="W" horiz-adv-x="1951" 
d="M1348 -20l-371 1040l-371 -1040h-24l-412 1155q-28 84 -69 121q-37 34 -101 51v24h414v-24q-83 -15 -104 -49t9 -121l310 -883l309 879l-2 2q-28 84 -69 121q-37 34 -101 51v24h414v-24q-83 -15 -104 -49t9 -121l310 -883l299 854q33 90 9 138q-25 49 -101 61v24h370v-24
q-62 -16 -115 -65t-83 -136l-402 -1126h-24z" />
    <glyph glyph-name="X" unicode="X" horiz-adv-x="1218" 
d="M231 233l295 439l-282 418q-66 100 -119 147q-48 42 -119 70v24h428v-24q-64 -15 -82 -62t29 -117l246 -362l241 362q44 64 21 114t-80 65v24h346v-24q-68 -27 -116 -69q-47 -41 -113 -140l-262 -387l317 -469q68 -103 119 -148q46 -40 119 -69v-25h-428v25q63 15 81 61
q19 48 -28 117l-279 411l-276 -411q-44 -64 -21 -114q22 -49 80 -64v-25h-348v25q73 29 118 68q47 41 113 140z" />
    <glyph glyph-name="Y" unicode="Y" horiz-adv-x="1130" 
d="M834 0h-537v25q101 18 147 42q48 25 48 107v338l-334 623q-42 79 -82 118q-39 38 -94 54v24h399v-24q-71 -12 -90 -51q-18 -38 24 -119l291 -553l289 553q43 82 25 119q-19 39 -91 51v24h320v-24q-55 -16 -94 -54q-40 -39 -82 -118l-334 -623v-338q0 -83 47 -107
q46 -24 148 -42v-25z" />
    <glyph glyph-name="Z" unicode="Z" horiz-adv-x="1099" 
d="M82 0v25l745 1245h-366q-124 0 -203 -49q-80 -50 -131 -197h-25l54 307h862v-24l-746 -1246h387q123 0 203 50t131 196h25l-53 -307h-883z" />
    <glyph glyph-name="bracketleft" unicode="[" horiz-adv-x="628" 
d="M184 -225v1720h363v-61h-230v-1598h230v-61h-363z" />
    <glyph glyph-name="backslash" unicode="\" horiz-adv-x="686" 
d="M569 0l-528 1331h76l528 -1331h-76z" />
    <glyph glyph-name="bracketright" unicode="]" horiz-adv-x="628" 
d="M444 1495v-1720h-362v61h229v1598h-229v61h362z" />
    <glyph glyph-name="asciicircum" unicode="^" horiz-adv-x="1003" 
d="M471 1331h61l379 -758h-73l-336 680l-336 -680h-74z" />
    <glyph glyph-name="underscore" unicode="_" horiz-adv-x="1064" 
d="M123 -246h819v-61h-819v61z" />
    <glyph glyph-name="grave" unicode="`" horiz-adv-x="1024" 
d="M532 1147l-276 369h174l143 -369h-41z" />
    <glyph glyph-name="a" unicode="a" horiz-adv-x="1001" 
d="M229 700q-31 -15 -71 -20q-39 -5 -68 0q-7 59 45 119q51 58 152 127q93 65 153 92q58 26 111 26q111 0 173 -71t62 -187v-589q0 -57 30 -83q31 -26 65 -26q28 0 51 16q24 16 45 56l27 -13q-23 -61 -72 -110q-47 -47 -115 -47q-67 0 -116 44q-48 44 -48 144v55
q-39 -118 -131 -186q-91 -67 -200 -67q-107 0 -179 66q-71 65 -71 155q0 34 18 64q17 29 57 50l496 254v199q0 76 -44 123t-132 47q-51 0 -95 -23q-46 -24 -77 -56q-32 -33 -50 -77q-18 -42 -16 -82zM215 236q0 -56 39 -101t109 -45q116 0 198 88t82 230v96l-367 -193
q-30 -16 -47 -37q-14 -17 -14 -38z" />
    <glyph glyph-name="b" unicode="b" horiz-adv-x="1161" 
d="M338 1434v-576q66 85 148 135q83 51 188 51q97 0 168 -37q70 -37 120 -102q48 -63 72 -150q25 -91 25 -184q0 -142 -47 -254q-46 -109 -123 -185q-77 -75 -172 -114q-94 -38 -197 -38q-85 0 -143 16q-63 17 -105 37l-53 -53h-24v1327h-185v24zM631 930q-97 0 -166 -45
q-70 -46 -127 -119v-639q43 -32 97 -55q55 -23 122 -23q169 0 268 130t99 337q0 179 -74 297q-74 117 -219 117z" />
    <glyph glyph-name="c" unicode="c" horiz-adv-x="1015" 
d="M227 559q0 -125 30 -211t80 -139t115 -77q62 -23 134 -23q117 0 208 67q92 68 126 225h34q-28 -202 -131 -312q-102 -109 -288 -109q-85 0 -162 28q-79 29 -139 89t-96 155q-36 94 -36 221q0 128 44 236q43 105 118 180t170 115t199 40q127 0 210 -53t83 -147
q0 -22 -7 -43q-6 -19 -20 -43h-22q-56 106 -141 157q-83 50 -175 50q-136 0 -235 -110q-99 -109 -99 -296z" />
    <glyph glyph-name="d" unicode="d" horiz-adv-x="1171" 
d="M1151 72l-317 -92v200q-68 -92 -152 -146t-195 -54q-97 0 -168 37q-68 36 -119 102q-50 65 -73 150q-25 91 -25 184q0 139 48 254q46 111 122 185q77 75 172 114q94 38 197 38q60 0 101 -7q47 -8 81 -19v289h-184v24l328 92v-1327h184v-24zM530 94q97 0 166 45
q70 46 127 119v639q-43 32 -97 55q-55 23 -122 23q-169 0 -268 -130q-98 -129 -98 -337q0 -181 73 -297q73 -117 219 -117z" />
    <glyph glyph-name="e" unicode="e" horiz-adv-x="1056" 
d="M946 696v-41h-710q-6 -30 -7 -47q-2 -32 -2 -49q0 -125 30 -211t80 -139t115 -77q62 -23 134 -23q117 0 208 67q92 68 126 225h34q-28 -202 -131 -312q-102 -109 -288 -109q-85 0 -162 28t-138 89t-97 155t-36 221q0 128 41 236q40 106 110 180q71 76 160 115
q90 40 187 40q86 0 149 -28q65 -28 108 -78q45 -52 67 -112q22 -62 22 -130zM561 975q-111 0 -196 -70q-84 -69 -117 -188h508q20 0 28 8q9 9 9 27q0 36 -14 78q-13 40 -42 72q-28 31 -72 52q-43 21 -104 21z" />
    <glyph glyph-name="f" unicode="f" horiz-adv-x="724" 
d="M358 1130v-106h306v-96h-306v-754q0 -84 36 -109q35 -25 138 -40v-25h-450v25q69 16 101 41q32 24 32 108v754h-184v24l184 54v16q0 95 35 173q35 77 92 130q59 55 131 81q76 28 152 28q90 0 132 -31q40 -30 40 -64q0 -16 -4 -29q-5 -16 -17 -24h-10q-72 31 -128 47
q-53 15 -97 15q-89 0 -137 -54q-46 -52 -46 -164z" />
    <glyph glyph-name="g" unicode="g" horiz-adv-x="960" 
d="M471 1044q36 0 78 -5q35 -4 69 -15h312v-61h-197q44 -38 69 -94q23 -52 23 -119q0 -142 -103 -232q-104 -90 -276 -90q-30 0 -59 3q-28 3 -55 9q-39 -31 -59 -60q-21 -30 -21 -56q0 -35 29 -50q27 -14 79 -14h263q139 0 211 -63q71 -62 71 -164q0 -69 -45 -135
q-44 -65 -120 -115t-177 -80q-105 -31 -215 -31q-136 0 -230 48q-95 48 -95 153q0 68 53 135q51 64 133 129q-41 15 -68 42q-26 26 -26 79q0 48 41 94q43 48 123 103q-95 34 -140 103q-47 71 -47 165q0 140 106 231q105 90 273 90zM451 985q-101 0 -159 -57
q-59 -57 -59 -166q0 -48 15 -98t42 -89t72 -63q47 -25 107 -25q101 0 158 57t57 167q0 50 -13 98q-13 49 -42 88q-29 40 -74 64t-104 24zM152 -68q0 -84 92 -122q90 -37 223 -37q149 0 240 60q92 60 92 144q0 64 -48 105q-49 41 -141 41h-262q-27 0 -41 1q-7 0 -20.5 1
t-20.5 2q-54 -49 -85 -99q-29 -48 -29 -96z" />
    <glyph glyph-name="h" unicode="h" horiz-adv-x="1167" 
d="M348 772v-598q0 -84 32 -108q32 -25 101 -41v-25h-409v25q69 16 101 41q32 24 32 108v1133h-185v24l328 92v-567q67 82 152 135t188 53q130 0 202 -88q73 -90 73 -241v-541q0 -84 31 -108q32 -24 102 -41v-25h-410v25q69 16 101 41q32 24 32 108v520q0 117 -49 175
q-50 59 -149 59q-85 0 -152 -41q-64 -39 -121 -115z" />
    <glyph glyph-name="i" unicode="i" horiz-adv-x="563" 
d="M295 1448q51 0 84 -35t33 -82t-33 -82t-84 -35t-84 35t-33 82t33 82t84 35zM358 1044v-870q0 -84 27 -109t86 -40v-25h-369v25q59 15 86 40t27 109v754h-184v24z" />
    <glyph glyph-name="j" unicode="j" horiz-adv-x="552" 
d="M295 1448q51 0 84 -35t33 -82t-33 -82t-84 -35t-84 35t-33 82t33 82t84 35zM215 -12v940h-184v24l327 92v-1044q0 -74 -12 -122q-12 -49 -46 -83q-36 -36 -94 -62q-68 -31 -155 -61v29q101 45 132 106q32 62 32 181z" />
    <glyph glyph-name="k" unicode="k" horiz-adv-x="1089" 
d="M348 1423v-972l305 350q61 69 54 126q-7 55 -86 72v25h378v-25q-75 -30 -131 -72q-57 -42 -139 -136l-141 -158l280 -449q50 -79 102 -117q48 -35 99 -42v-25h-258l-317 526l-146 -166v-186q0 -84 32 -108q32 -25 101 -41v-25h-409v25q69 16 101 41q32 24 32 108v1133
h-185v24z" />
    <glyph glyph-name="l" unicode="l" horiz-adv-x="552" 
d="M348 1423v-1249q0 -84 32 -108q32 -25 101 -41v-25h-409v25q69 16 101 41q32 24 32 108v1133h-185v24z" />
    <glyph glyph-name="m" unicode="m" horiz-adv-x="1710" 
d="M358 772v-598q0 -84 32 -108t102 -41v-25h-410v25q69 16 101 41q32 24 32 108v754h-184v24l317 92v-198q62 83 146 141q82 57 184 57q92 0 153 -51q62 -51 84 -145q64 81 149 140q81 56 187 56q122 0 188 -88q66 -89 66 -241v-541q0 -84 32 -108q32 -25 101 -41v-25h-409
v25q69 16 101 41q32 24 32 108v520q0 116 -45 175t-133 59q-82 0 -144 -41q-59 -39 -112 -109q0 -3 1 -9t1.5 -11t0.5 -10q1 -11 1 -33v-541q0 -84 32 -108q32 -25 101 -41v-25h-410v25q70 17 102 41q31 24 31 108v520q0 116 -45 175t-133 59q-79 0 -139 -42
q-61 -43 -113 -114z" />
    <glyph glyph-name="n" unicode="n" horiz-adv-x="1177" 
d="M358 772v-598q0 -84 32 -108t102 -41v-25h-410v25q69 16 101 41q32 24 32 108v754h-184v24l317 92v-200q68 86 155 143t195 57q130 0 202 -88q73 -90 73 -241v-541q0 -84 32 -108q32 -25 101 -41v-25h-410v25q70 17 102 41q31 24 31 108v520q0 117 -49 175
q-50 59 -149 59q-85 0 -152 -41q-64 -39 -121 -115z" />
    <glyph glyph-name="o" unicode="o" horiz-adv-x="1157" 
d="M575 1044q99 0 185 -29q88 -30 152 -94q66 -66 104 -166q39 -102 39 -245q0 -124 -38 -224q-37 -98 -103 -167q-65 -68 -150 -104q-83 -35 -182 -35t-185 29q-88 30 -152 94q-66 66 -104 166q-39 102 -39 245q0 124 38 224q37 98 103 167q65 68 150 104q83 35 182 35z
M600 41q134 0 223 109q88 107 88 309q0 244 -100 384t-254 140q-134 0 -223 -109q-88 -107 -88 -309q0 -243 99 -384q98 -140 255 -140z" />
    <glyph glyph-name="p" unicode="p" horiz-adv-x="1171" 
d="M338 1044v-200q69 93 151 146q84 54 195 54q97 0 168 -37q70 -37 120 -102q48 -63 72 -150q25 -91 25 -184q0 -142 -47 -254q-46 -109 -123 -185q-77 -75 -172 -114q-94 -38 -197 -38q-60 0 -101 7q-47 8 -81 19v-139q0 -85 36 -110q35 -25 138 -40v-24h-450v24
q69 16 101 41q32 24 32 109v1061h-185v24zM641 930q-97 0 -166 -45q-70 -46 -127 -119v-639q43 -32 97 -55q55 -23 122 -23q170 0 269 130q98 129 98 337q0 179 -74 297q-74 117 -219 117z" />
    <glyph glyph-name="q" unicode="q" horiz-adv-x="1161" 
d="M1100 -283v-24h-451v24q103 15 138 40q36 26 36 110v299q-66 -85 -148 -135q-83 -51 -188 -51q-97 0 -168 37q-68 36 -119 102q-50 65 -73 150q-25 91 -25 184q0 139 48 254q46 111 122 185q77 75 172 114q94 38 197 38q85 0 143 -16q63 -17 105 -37l53 53h25v-1177
q0 -85 31 -109q32 -24 102 -41zM530 94q97 0 166 45q70 46 127 119v639q-43 32 -97 55q-55 23 -122 23q-169 0 -268 -130q-98 -129 -98 -337q0 -181 73 -297q73 -117 219 -117z" />
    <glyph glyph-name="r" unicode="r" horiz-adv-x="782" 
d="M348 1044v-237q57 127 135 187q79 61 195 61h43v-127h-74q-99 0 -172 -46q-74 -47 -117 -151v-557q0 -84 36 -109q35 -25 138 -40v-25h-450v25q69 16 101 41q32 24 32 108v754h-184v24z" />
    <glyph glyph-name="s" unicode="s" horiz-adv-x="860" 
d="M457 41q94 0 145 51t51 133q0 101 -85 155q-87 55 -186 100q-98 45 -186 108q-85 61 -85 178q0 138 94 208t231 70q97 0 167 -22q75 -23 128 -55v-277h-24q-27 144 -112 220q-86 77 -196 77q-75 0 -128 -39q-52 -39 -52 -121q0 -89 84 -139q87 -52 185 -96
q97 -44 186 -114q84 -66 84 -191q0 -143 -94 -225t-261 -82q-89 0 -163 21q-75 22 -127 54v318h24q12 -91 45 -154q33 -62 77 -102q45 -41 96 -58q53 -18 102 -18z" />
    <glyph glyph-name="t" unicode="t" horiz-adv-x="704" 
d="M195 293v635h-144v24l262 260h25v-188h305v-96h-305v-625q0 -103 39 -160t119 -57q68 0 112 37q47 39 70 113l27 -9q-27 -121 -93 -184t-174 -63q-121 0 -182 76t-61 237z" />
    <glyph glyph-name="u" unicode="u" horiz-adv-x="1157" 
d="M1137 72l-318 -92v200q-69 -87 -154 -143q-87 -57 -196 -57q-130 0 -202 88q-72 89 -72 241v619h-185v24l328 92v-714q0 -117 49 -175q50 -59 150 -59q84 0 151 41q64 39 121 115v676h-184v24l327 92v-948h185v-24z" />
    <glyph glyph-name="v" unicode="v" horiz-adv-x="1073" 
d="M874 799l-325 -819h-25l-338 847q-33 85 -68 121q-34 35 -98 51v25h396v-25q-72 -12 -93 -49q-21 -38 11 -121l239 -620l228 592q33 85 10 137q-22 50 -96 61v25h358v-25q-68 -15 -116 -65q-50 -52 -83 -135z" />
    <glyph glyph-name="w" unicode="w" horiz-adv-x="1517" 
d="M1022 -20l-262 733l-262 -733h-25l-303 847q-29 82 -62 121q-30 35 -88 51v25h367v-25q-64 -12 -83 -49t9 -121l209 -598l203 578l-6 18q-29 80 -63 121q-30 36 -87 51v25h367v-25q-64 -12 -83 -49t9 -121l209 -598l199 570q29 86 8 137t-86 61v25h326v-25
q-59 -16 -103 -65q-47 -53 -76 -135l-292 -819h-25z" />
    <glyph glyph-name="x" unicode="x" horiz-adv-x="1067" 
d="M272 233l193 285l-184 273q-59 89 -109 137q-42 41 -109 71v25h400v-25q-58 -15 -77 -64q-20 -50 24 -114l143 -209l139 209q41 64 20 114q-21 49 -79 64v25h346v-25q-72 -29 -115 -69q-48 -44 -114 -139l-160 -234l221 -324q58 -87 108 -137q41 -41 107 -71v-25h-399v25
q57 15 76 64q20 51 -23 114l-176 260l-174 -260q-41 -64 -20 -114q21 -49 79 -64v-25h-348v25q74 29 118 69q46 42 113 139z" />
    <glyph glyph-name="y" unicode="y" horiz-adv-x="1073" 
d="M549 -20q-60 -152 -150 -230t-213 -78q-39 0 -69 6q-14 3 -58 15v121q36 -14 74 -22q35 -7 76 -7q85 0 158 45q73 44 118 158l19 45l-318 794q-33 85 -68 121q-34 35 -98 51v25h396v-25q-72 -12 -93 -49q-21 -38 11 -121l239 -620l228 592q33 85 10 137q-22 50 -96 61v25
h358v-25q-68 -15 -116 -65q-50 -52 -83 -135z" />
    <glyph glyph-name="z" unicode="z" horiz-adv-x="909" 
d="M82 0v25l561 938h-182q-123 0 -203 -50t-131 -196h-25l54 307h667v-25l-561 -938h227q123 0 203 50t131 196h25l-53 -307h-713z" />
    <glyph glyph-name="braceleft" unicode="{" horiz-adv-x="628" 
d="M547 -164v-61h-55q-141 0 -204 54t-63 171v461q0 74 -34 108q-35 35 -109 35h-25v62h25q75 0 109 34t34 109v461q0 117 63 171t204 54h55v-61h-45q-75 0 -110 -35q-34 -34 -34 -109v-430q0 -99 -43 -152q-45 -55 -137 -73q92 -18 137 -73q43 -53 43 -152v-430
q0 -75 34 -109q35 -35 110 -35h45z" />
    <glyph glyph-name="bar" unicode="|" horiz-adv-x="479" 
d="M274 1536v-1843h-69v1843h69z" />
    <glyph glyph-name="braceright" unicode="}" horiz-adv-x="628" 
d="M403 0q0 -118 -62 -171q-63 -54 -204 -54h-55v61h45q75 0 110 35q33 33 33 109v430q0 99 43 152q44 55 138 73q-94 18 -138 73q-43 53 -43 152v430q0 76 -33 109q-35 35 -110 35h-45v61h55q141 0 204 -54q62 -53 62 -171v-461q0 -75 34 -109t110 -34h24v-62h-24
q-75 0 -110 -35q-34 -34 -34 -108v-461z" />
    <glyph glyph-name="asciitilde" unicode="~" horiz-adv-x="1003" 
d="M688 573q57 0 92 38t35 126v11h66v-11q0 -114 -47 -170q-46 -55 -142 -55q-64 0 -113 29q-52 31 -91 63q-59 49 -81 64q-40 28 -92 28q-57 0 -92 -38t-35 -126v-10h-65v10q0 114 47 170t141 56q65 0 114 -29q48 -29 90 -63q53 -44 82 -64q41 -29 91 -29z" />
    <glyph glyph-name="nbspace" unicode="&#xa0;" horiz-adv-x="450" 
 />
    <glyph glyph-name="exclamdown" unicode="&#xa1;" horiz-adv-x="540" 
d="M270 1044q58 0 92 -37q35 -38 35 -89q0 -52 -35 -90q-34 -37 -92 -37t-92 37q-35 38 -35 90q0 51 35 89q34 37 92 37zM254 606h33l67 -913h-168z" />
    <glyph glyph-name="cent" unicode="&#xa2;" horiz-adv-x="1015" 
d="M580 1229v-187q20 2 26 2h27q127 0 210 -53t83 -147q0 -22 -7 -43q-6 -19 -20 -43h-22q-55 102 -133 152q-78 51 -164 55v-856h6q117 0 208 67q92 68 126 225h34q-27 -193 -117 -299q-92 -108 -257 -120v-187h-70v185q-83 5 -154 35q-70 30 -130 93q-55 58 -90 151
q-34 90 -34 214q0 110 32 204q32 93 87 165q56 73 130 120q72 46 159 68v199h70zM227 559q0 -212 84 -317q83 -104 199 -127v846q-119 -21 -201 -127t-82 -275z" />
    <glyph glyph-name="sterling" unicode="&#xa3;" horiz-adv-x="997" 
d="M61 676h205q-45 63 -83 133t-38 160q0 92 39 164q37 69 103 119q64 49 146 74q84 26 173 26q127 0 210 -53t83 -144q0 -28 -7 -53q-7 -27 -22 -47h-22q-63 119 -151 172t-185 53q-98 0 -169 -62q-73 -64 -73 -180q0 -52 18 -98q20 -52 43 -91q28 -48 55 -87
q33 -48 54 -86h338v-62h-307q10 -25 16 -55q7 -33 7 -57q0 -88 -59 -168q-61 -82 -169 -201h670v-133h-854v20q99 113 132 149q56 62 87 106q33 47 48 84q16 40 16 79q0 47 -17 92t-43 84h-244v62z" />
    <glyph glyph-name="currency" unicode="&#xa4;" horiz-adv-x="1003" 
d="M236 948l94 -94q33 27 77 42t95 15q52 0 95 -15q44 -15 77 -42l94 94l47 -47l-94 -94q27 -33 42 -77q15 -43 15 -95q0 -51 -15 -95t-42 -77l94 -94l-47 -47l-94 94q-33 -27 -77 -42q-46 -16 -95 -16t-95 16q-44 15 -77 42l-94 -94l-48 47l95 94q-27 33 -42 77
q-16 46 -16 95t16 95q15 44 42 77l-95 94zM502 850q-92 0 -152 -60q-59 -59 -59 -155t59 -155q60 -60 152 -60q91 0 151 60t60 155t-60 155t-151 60z" />
    <glyph glyph-name="yen" unicode="&#xa5;" horiz-adv-x="1228" 
d="M256 430h285v82l-121 225h-266v62h233l-180 336q-42 79 -82 118q-39 38 -94 54v24h399v-24q-71 -12 -90 -51q-18 -37 25 -119l290 -553l289 553q43 82 25 119q-19 39 -90 51v24h319v-24q-55 -16 -94 -54q-40 -39 -82 -118l-180 -336h233v-62h-266l-121 -225v-82h285v-61
h-285v-195q0 -83 47 -107q46 -24 148 -42v-25h-537v25q102 18 148 42q47 24 47 107v195h-285v61z" />
    <glyph glyph-name="brokenbar" unicode="&#xa6;" horiz-adv-x="479" 
d="M274 1536v-717h-69v717h69zM274 410v-717h-69v717h69z" />
    <glyph glyph-name="section" unicode="&#xa7;" horiz-adv-x="972" 
d="M823 -23q0 -139 -105 -222q-106 -83 -259 -83q-97 0 -170 26t-127 58v250h24q22 -128 109 -196q86 -68 197 -68q87 0 148 50q60 50 60 132q0 102 -94 165q-96 64 -205 120q-105 54 -204 131q-95 74 -95 203q0 95 46 166t135 110q-60 43 -96 96q-37 55 -37 132
q0 139 105 222q106 83 259 83q97 0 170 -26t127 -58v-250h-25q-22 128 -108 196t-197 68q-87 0 -148 -50t-61 -132q0 -102 95 -165q100 -66 204 -120q108 -55 205 -131q94 -73 94 -203q0 -94 -48 -166q-47 -71 -130 -110q57 -43 94 -97q37 -53 37 -131zM229 602
q0 -69 38 -119q37 -49 94 -88q56 -38 127 -73q79 -39 135 -72q59 22 89 66q31 46 31 106q0 71 -36 119t-95 88q-52 35 -127 73q-69 34 -135 72q-59 -22 -89 -66q-32 -47 -32 -106z" />
    <glyph glyph-name="dieresis" unicode="&#xa8;" horiz-adv-x="1024" 
d="M326 1442q50 0 80 -33t30 -78t-30 -78q-29 -32 -80 -32t-80 32q-31 34 -31 78t31 78q30 33 80 33zM698 1442q50 0 80 -33q31 -34 31 -78t-31 -78q-29 -32 -80 -32t-80 32q-30 33 -30 78t30 78t80 33z" />
    <glyph glyph-name="copyright" unicode="&#xa9;" horiz-adv-x="1712" 
d="M856 1352q144 0 274 -52q128 -51 219 -142t142 -218q51 -128 51 -274q0 -148 -51 -275t-142 -218t-219 -142t-274 -51t-274 51q-127 51 -218 142q-93 93 -143 218q-51 127 -51 275q0 146 51 274q50 125 143 218q91 91 218 142q130 52 274 52zM856 1286q-134 0 -247 -46
q-111 -45 -195 -129q-80 -80 -128 -197q-46 -113 -46 -248q0 -136 46 -249q48 -117 128 -197q84 -84 195 -129q113 -46 247 -46t247 46q111 45 195 129q80 80 128 197q47 115 47 249q0 133 -47 248q-48 117 -128 197q-84 84 -195 129q-113 46 -247 46zM842 973
q-100 0 -172 -74q-72 -73 -72 -207q0 -144 75 -220q75 -77 193 -77q104 0 180 59q73 57 78 181h31q-2 -164 -86 -253t-229 -89q-160 0 -255 99q-96 101 -96 257q0 89 32 162q31 71 85 122q55 52 122 78q69 27 142 27q78 0 130 -15q53 -15 110 -48v-193h-27q-21 105 -86 148
t-155 43z" />
    <glyph glyph-name="ordfeminine" unicode="&#xaa;" horiz-adv-x="761" 
d="M213 1085q-27 -12 -59 -15q-30 -3 -58 -1q-8 53 27 96q33 41 108 92q71 53 113 70q46 19 78 19q86 0 137 -51q49 -49 49 -130v-403q0 -39 21 -57q22 -19 45 -19q20 0 37 12q14 10 30 39l25 -14q-18 -47 -56 -82t-92 -35q-50 0 -88 32q-36 30 -36 105q-33 -67 -97 -105
t-135 -38q-83 0 -140 48q-56 47 -56 112q0 25 13 45t40 35l368 192v119q0 49 -30 79t-92 30q-72 0 -113 -55q-40 -54 -39 -120zM186 776q0 -32 32 -59t87 -27q76 0 129 58t53 151v68l-258 -138q-21 -11 -32 -25t-11 -28zM92 399h606v-61h-606v61z" />
    <glyph glyph-name="guillemotleft" unicode="&#xab;" horiz-adv-x="1064" 
d="M123 651l389 373h41l-262 -389l262 -389h-41l-389 372v33zM512 651l389 373h41l-262 -389l262 -389h-41l-389 372v33z" />
    <glyph glyph-name="logicalnot" unicode="&#xac;" horiz-adv-x="1003" 
d="M123 666h758v-420h-66v358h-692v62z" />
    <glyph glyph-name="registered" unicode="&#xae;" horiz-adv-x="1198" 
d="M600 1352q103 0 192 -36t152 -99q62 -62 99 -153q36 -88 36 -192t-36 -192t-99 -153q-62 -63 -152 -100q-89 -36 -192 -36q-104 0 -192 36q-89 36 -153 100t-100 153q-36 88 -36 192t36 192q37 92 100 153q65 63 153 99q89 36 192 36zM600 1290q-179 0 -298 -119
q-118 -118 -118 -299q0 -183 118 -301t298 -118q178 0 296 118t118 301q0 181 -118 299q-119 119 -296 119zM354 1102v22h254q98 0 153 -33q56 -34 56 -96q0 -61 -47 -100q-47 -40 -123 -41q15 -9 17 -11q11 -11 16 -18l108 -129q23 -29 41 -42q16 -11 37 -13v-23h-135
l-149 201q-17 20 -28 24q-15 5 -32 5h-12v-150q0 -34 17 -42q18 -9 57 -15v-23h-230v23q28 7 44 16q14 8 14 41v346q0 33 -14 42q-15 10 -44 16zM604 1075h-94v-184h92q56 0 87 28q30 27 30 72q0 39 -29 62q-28 22 -86 22z" />
    <glyph glyph-name="macron" unicode="&#xaf;" horiz-adv-x="1024" 
d="M737 1397v-131h-450v131h450z" />
    <glyph glyph-name="degree" unicode="&#xb0;" horiz-adv-x="798" 
d="M399 1352q119 0 198 -79t79 -198q0 -118 -79 -197t-198 -79q-118 0 -197 79t-79 197q0 119 79 198t197 79zM399 1290q-91 0 -151 -60t-60 -155q0 -94 60 -154q61 -61 151 -61q91 0 152 61q59 59 59 154q0 96 -59 155q-60 60 -152 60z" />
    <glyph glyph-name="plusminus" unicode="&#xb1;" horiz-adv-x="1003" 
d="M123 666h346v358h66v-358h346v-62h-346v-358h-66v358h-346v62zM123 61h758v-61h-758v61z" />
    <glyph glyph-name="acute" unicode="&#xb4;" horiz-adv-x="1024" 
d="M492 1147h-41l143 369h174z" />
    <glyph glyph-name="paragraph" unicode="&#xb6;" horiz-adv-x="1218" 
d="M719 1331v-1638h-264v24q102 15 148 46t46 128v641h-20q-103 0 -198 24q-96 24 -168 74q-74 51 -117 128q-44 79 -44 182q0 190 129 291q128 100 385 100h103zM872 1331h224v-24q-81 -16 -118 -47q-36 -30 -36 -127v-1160q0 -75 11 -116q12 -46 34 -72t61 -42
q40 -16 89 -26v-24h-265v1638z" />
    <glyph glyph-name="periodcentered" unicode="&#xb7;" horiz-adv-x="540" 
d="M270 508q-57 0 -92 38t-35 89t35 89t92 38t92 -38t35 -89t-35 -89t-92 -38z" />
    <glyph glyph-name="cedilla" unicode="&#xb8;" horiz-adv-x="1024" 
d="M573 0q-46 -38 -60 -53q-21 -21 -21 -39q0 -16 23 -33q9 -6 25.5 -20t24.5 -20q22 -17 50 -47q24 -25 24 -52q0 -59 -59 -112q-60 -54 -162 -54q-52 0 -93 21q-40 21 -40 61q0 13 5 33q4 16 17 32h23q29 -52 62 -75q36 -25 73 -25q34 0 52 17q20 18 20 44q0 24 -25 49
q-16 16 -52 46t-52 45q-25 23 -25 43q0 28 36 58t93 81h61z" />
    <glyph glyph-name="ordmasculine" unicode="&#xba;" horiz-adv-x="872" 
d="M434 1346q71 0 137 -21q68 -22 114 -65q49 -46 77 -117q29 -73 29 -172q0 -87 -29 -157q-29 -69 -77 -116q-48 -46 -113 -72q-66 -26 -134 -26q-71 0 -137 21q-68 22 -114 65q-47 44 -76 117t-29 172q0 87 29 157q28 69 76 115q49 48 112 73q64 26 135 26zM451 657
q93 0 156 72t63 207q0 163 -71 258q-70 94 -179 94q-95 0 -156 -71t-61 -207q0 -164 69 -258q69 -95 179 -95zM133 399h606v-61h-606v61z" />
    <glyph glyph-name="guillemotright" unicode="&#xbb;" horiz-adv-x="1064" 
d="M553 618l-389 -372h-41l262 389l-262 389h41l389 -373v-33zM942 618l-389 -372h-41l262 389l-262 389h41l389 -373v-33z" />
    <glyph glyph-name="questiondown" unicode="&#xbf;" horiz-adv-x="839" 
d="M453 1044q58 0 92 -37q35 -38 35 -89q0 -52 -35 -90q-34 -37 -92 -37q-59 0 -93 37t-34 90q0 52 34 89t93 37zM377 -248q97 0 185 54q90 55 147 161h22q14 -24 20 -43q7 -21 7 -43q0 -95 -88 -152t-224 -57q-154 0 -259 81t-105 220q0 110 62 188q63 79 139 142
q28 23 74.5 63t63.5 54q62 52 62 108q0 16 -7 27q-9 15 -21 23l24 24q43 -30 69 -66q25 -35 25 -79q0 -61 -60 -121q-52 -52 -132 -122q-75 -66 -132 -134q-61 -73 -61 -160q0 -75 52 -122q50 -46 137 -46z" />
    <glyph glyph-name="Agrave" unicode="&#xc0;" horiz-adv-x="1355" 
d="M403 25v-25h-403v25q74 17 129 65q57 50 90 135l447 1127h24l459 -1155q34 -87 75 -121q42 -34 111 -51v-25h-440v25q89 15 112 48t-10 122l-84 215h-544l-72 -187q-32 -87 -8 -136q23 -47 114 -62zM405 506h472l-236 606zM901 1458v-24l-450 82v163z" />
    <glyph glyph-name="Aacute" unicode="&#xc1;" horiz-adv-x="1355" 
d="M403 25v-25h-403v25q74 17 129 65q57 50 90 135l447 1127h24l459 -1155q34 -87 75 -121q42 -34 111 -51v-25h-440v25q89 15 112 48t-10 122l-84 215h-544l-72 -187q-32 -87 -8 -136q23 -47 114 -62zM405 506h472l-236 606zM453 1458l450 221v-163l-450 -82v24z" />
    <glyph glyph-name="Acircumflex" unicode="&#xc2;" horiz-adv-x="1355" 
d="M403 25v-25h-403v25q74 17 129 65q57 50 90 135l447 1127h24l459 -1155q34 -87 75 -121q42 -34 111 -51v-25h-440v25q89 15 112 48t-10 122l-84 215h-544l-72 -187q-32 -87 -8 -136q23 -47 114 -62zM405 506h472l-236 606zM391 1434v24l266 221h41l267 -221v-24l-287 112
z" />
    <glyph glyph-name="Atilde" unicode="&#xc3;" horiz-adv-x="1355" 
d="M403 25v-25h-403v25q74 17 129 65q57 50 90 135l447 1127h24l459 -1155q34 -87 75 -121q42 -34 111 -51v-25h-440v25q89 15 112 48t-10 122l-84 215h-544l-72 -187q-32 -87 -8 -136q23 -47 114 -62zM405 506h472l-236 606zM944 1669q-29 -110 -62 -161q-34 -54 -96 -54
q-36 0 -69 15q-30 14 -63 35q-36 24 -58 35q-28 15 -57 15q-32 0 -51 -22q-17 -20 -35 -68h-41q29 110 62 161q34 54 95 54q37 0 70 -15q27 -12 62 -35q32 -21 59 -35q28 -15 57 -15q30 0 50 23t36 67h41z" />
    <glyph glyph-name="Adieresis" unicode="&#xc4;" horiz-adv-x="1355" 
d="M403 25v-25h-403v25q74 17 129 65q57 50 90 135l447 1127h24l459 -1155q34 -87 75 -121q42 -34 111 -51v-25h-440v25q89 15 112 48t-10 122l-84 215h-544l-72 -187q-32 -87 -8 -136q23 -47 114 -62zM405 506h472l-236 606zM492 1667q49 0 79 -33q31 -34 31 -78
q0 -43 -31 -77q-30 -33 -79 -33q-50 0 -80 33q-31 34 -31 77q0 44 31 78q30 33 80 33zM864 1667q50 0 80 -33q31 -34 31 -78q0 -43 -31 -77q-30 -33 -80 -33t-80 33t-30 77q0 45 30 78t80 33z" />
    <glyph glyph-name="Aring" unicode="&#xc5;" horiz-adv-x="1355" 
d="M403 25v-25h-403v25q74 17 129 65q57 50 90 135l447 1127h24l459 -1155q34 -87 75 -121q42 -34 111 -51v-25h-440v25q89 15 112 48t-10 122l-84 215h-544l-72 -187q-32 -87 -8 -136q23 -47 114 -62zM405 506h472l-236 606zM678 1423q-103 0 -176 35q-72 34 -72 98t72 99
q73 35 176 35t176 -35q72 -35 72 -99t-72 -98q-73 -35 -176 -35zM678 1638q-53 0 -83 -20q-32 -21 -32 -62q0 -40 32 -61q30 -20 83 -20t83 20q32 21 32 61q0 41 -32 62q-30 20 -83 20z" />
    <glyph glyph-name="AE" unicode="&#xc6;" horiz-adv-x="2017" 
d="M887 1307v24h975l53 -307h-29q-51 148 -129 197q-77 49 -201 49h-368v-553h254q88 0 127 52q38 51 59 142h29v-450h-29q-21 91 -59 142q-39 52 -127 52h-254v-594h389q122 0 201 50q78 50 129 196h28l-53 -307h-995v25q83 21 118 43t35 106v236h-540l-135 -187
q-63 -89 -56 -136t97 -62v-25h-406v25q82 17 151 65q74 51 136 135l739 1012q-16 31 -49 43q-35 12 -90 27zM1040 1157v2l-471 -653h471v651z" />
    <glyph glyph-name="Ccedilla" unicode="&#xc7;" horiz-adv-x="1374" 
d="M743 1270q-104 0 -191 -37q-92 -39 -156 -109q-67 -73 -104 -175q-38 -105 -38 -234q0 -143 39 -256t108 -188q66 -72 169 -114q98 -40 216 -40q99 0 182 29q84 29 149 90q66 62 104 153q38 93 43 223h28q-5 -293 -139 -456q-135 -164 -375 -176q-28 -24 -42 -40
q-15 -18 -15 -32q0 -16 23 -33l27 -21t24 -19q22 -17 50 -47q23 -24 23 -52q0 -59 -59 -112q-60 -54 -162 -54q-53 0 -93 21t-40 61q0 13 5 33q3 14 18 32h22q29 -51 63 -75q36 -25 72 -25q34 0 52 17q20 18 20 44q0 24 -25 49q-16 16 -52 46t-52 45q-25 23 -25 43
q0 26 30 52q3 3 77 67q-136 5 -247 54q-110 49 -188 136q-77 86 -119 206t-42 263q0 166 56 297q56 132 150 224q94 93 215 142q123 50 251 50q135 0 225 -30t192 -87v-354h-24q-45 212 -162 301q-116 88 -283 88z" />
    <glyph glyph-name="Egrave" unicode="&#xc8;" horiz-adv-x="1212" 
d="M82 1307v24h975l53 -307h-29q-51 148 -129 197q-77 49 -200 49h-369v-553h254q88 0 127 52q38 51 59 142h29v-450h-29q-21 91 -59 142q-39 52 -127 52h-254v-594h389q122 0 201 50q78 50 129 196h28l-53 -307h-995v25q83 21 118 43q36 22 36 106v983q0 85 -36 107
q-35 22 -118 43zM870 1458v-24l-450 82v163z" />
    <glyph glyph-name="Eacute" unicode="&#xc9;" horiz-adv-x="1212" 
d="M82 1307v24h975l53 -307h-29q-51 148 -129 197q-77 49 -200 49h-369v-553h254q88 0 127 52q38 51 59 142h29v-450h-29q-21 91 -59 142q-39 52 -127 52h-254v-594h389q122 0 201 50q78 50 129 196h28l-53 -307h-995v25q83 21 118 43q36 22 36 106v983q0 85 -36 107
q-35 22 -118 43zM422 1458l450 221v-163l-450 -82v24z" />
    <glyph glyph-name="Ecircumflex" unicode="&#xca;" horiz-adv-x="1212" 
d="M82 1307v24h975l53 -307h-29q-51 148 -129 197q-77 49 -200 49h-369v-553h254q88 0 127 52q38 51 59 142h29v-450h-29q-21 91 -59 142q-39 52 -127 52h-254v-594h389q122 0 201 50q78 50 129 196h28l-53 -307h-995v25q83 21 118 43q36 22 36 106v983q0 85 -36 107
q-35 22 -118 43zM360 1434v24l267 221h41l266 -221v-24l-287 112z" />
    <glyph glyph-name="Edieresis" unicode="&#xcb;" horiz-adv-x="1212" 
d="M82 1307v24h975l53 -307h-29q-51 148 -129 197q-77 49 -200 49h-369v-553h254q88 0 127 52q38 51 59 142h29v-450h-29q-21 91 -59 142q-39 52 -127 52h-254v-594h389q122 0 201 50q78 50 129 196h28l-53 -307h-995v25q83 21 118 43q36 22 36 106v983q0 85 -36 107
q-35 22 -118 43zM461 1667q50 0 80 -33t30 -78q0 -44 -30 -77t-80 -33t-80 33q-31 34 -31 77q0 44 31 78q30 33 80 33zM834 1667q49 0 79 -33q31 -34 31 -78q0 -43 -31 -77q-30 -33 -79 -33q-50 0 -80 33q-31 34 -31 77q0 44 31 78q30 33 80 33z" />
    <glyph glyph-name="Igrave" unicode="&#xcc;" horiz-adv-x="618" 
d="M82 1307v24h455v-24q-83 -21 -118 -43q-36 -22 -36 -107v-983q0 -84 36 -106q35 -22 118 -43v-25h-455v25q83 21 118 43q36 22 36 106v983q0 85 -36 107q-35 22 -118 43zM532 1458v-24l-450 82v163z" />
    <glyph glyph-name="Iacute" unicode="&#xcd;" horiz-adv-x="618" 
d="M82 1307v24h455v-24q-83 -21 -118 -43q-36 -22 -36 -107v-983q0 -84 36 -106q35 -22 118 -43v-25h-455v25q83 21 118 43q36 22 36 106v983q0 85 -36 107q-35 22 -118 43zM84 1458l451 221v-163l-451 -82v24z" />
    <glyph glyph-name="Icircumflex" unicode="&#xce;" horiz-adv-x="618" 
d="M82 1307v24h455v-24q-83 -21 -118 -43q-36 -22 -36 -107v-983q0 -84 36 -106q35 -22 118 -43v-25h-455v25q83 21 118 43q36 22 36 106v983q0 85 -36 107q-35 22 -118 43zM23 1434v24l266 221h41l266 -221v-24l-287 112z" />
    <glyph glyph-name="Idieresis" unicode="&#xcf;" horiz-adv-x="618" 
d="M82 1307v24h455v-24q-83 -21 -118 -43q-36 -22 -36 -107v-983q0 -84 36 -106q35 -22 118 -43v-25h-455v25q83 21 118 43q36 22 36 106v983q0 85 -36 107q-35 22 -118 43zM123 1667q50 0 80 -33t30 -78q0 -44 -30 -77t-80 -33t-80 33q-31 34 -31 77q0 44 31 78
q30 33 80 33zM496 1667q49 0 79 -33q31 -34 31 -78q0 -43 -31 -77q-30 -33 -79 -33q-50 0 -80 33q-31 34 -31 77q0 44 31 78q30 33 80 33z" />
    <glyph glyph-name="Eth" unicode="&#xd0;" horiz-adv-x="1445" 
d="M82 696h154v461q0 85 -36 107q-35 22 -118 43v24h479q193 0 337 -45q146 -46 238 -127q95 -84 140 -198q47 -118 47 -259q0 -150 -46 -278q-47 -130 -142 -222q-98 -95 -246 -148q-150 -54 -354 -54h-453v25q83 21 118 43q36 22 36 106v461h-154v61zM737 635h-354v-574
h156q164 0 284 47q121 47 194 128q75 82 109 197q35 117 35 251q0 124 -34 230q-35 110 -107 186q-72 77 -191 124q-116 46 -278 46h-168v-574h354v-61z" />
    <glyph glyph-name="Ntilde" unicode="&#xd1;" horiz-adv-x="1472" 
d="M1247 -20h-35l-907 1118v-883q0 -56 11 -85q12 -32 34 -51q21 -18 61 -31q24 -8 89 -23v-25h-459v25q65 15 89 23q38 12 60 31t34 51t12 85v967q-59 62 -110 90q-50 27 -106 35v24h285l873 -1069v854q0 54 -12 85q-13 33 -33 51q-21 18 -61 31q-36 12 -89 24v24h459v-24
q-53 -12 -89 -24q-40 -13 -61 -31q-22 -19 -34 -51q-11 -29 -11 -85v-1136zM1004 1669q-29 -107 -63 -161q-35 -54 -95 -54q-37 0 -70 15q-27 12 -62 35q-32 21 -59 35q-29 15 -57 15q-31 0 -50 -22t-36 -68h-41q29 107 63 161t95 54q36 0 69 -15q30 -14 63 -35
q36 -24 58 -35q28 -15 58 -15t50 23t36 67h41z" />
    <glyph glyph-name="Ograve" unicode="&#xd2;" horiz-adv-x="1556" 
d="M778 1352q142 0 262 -49q119 -48 208 -139q85 -87 136 -214q50 -126 50 -274q0 -153 -50 -282q-51 -130 -136 -220q-88 -93 -208 -143q-122 -51 -262 -51q-142 0 -262 49q-121 49 -208 138q-85 87 -136 214q-49 123 -49 274q0 156 49 282q51 130 136 220q88 93 208 143
q124 52 262 52zM758 1286q-104 0 -189 -43t-148 -120q-61 -74 -98 -183q-36 -106 -36 -233q0 -152 39 -275q40 -125 106 -209q68 -85 162 -132q93 -46 205 -46q103 0 188 43q86 44 149 120q61 74 98 183q36 107 36 234q0 151 -39 274t-107 209t-161 132t-205 46zM1001 1458
v-24l-450 82v163z" />
    <glyph glyph-name="Oacute" unicode="&#xd3;" horiz-adv-x="1556" 
d="M778 1352q142 0 262 -49q119 -48 208 -139q85 -87 136 -214q50 -126 50 -274q0 -153 -50 -282q-51 -130 -136 -220q-88 -93 -208 -143q-122 -51 -262 -51q-142 0 -262 49q-121 49 -208 138q-85 87 -136 214q-49 123 -49 274q0 156 49 282q51 130 136 220q88 93 208 143
q124 52 262 52zM758 1286q-104 0 -189 -43t-148 -120q-61 -74 -98 -183q-36 -106 -36 -233q0 -152 39 -275q40 -125 106 -209q68 -85 162 -132q93 -46 205 -46q103 0 188 43q86 44 149 120q61 74 98 183q36 107 36 234q0 151 -39 274t-107 209t-161 132t-205 46zM553 1458
l451 221v-163l-451 -82v24z" />
    <glyph glyph-name="Ocircumflex" unicode="&#xd4;" horiz-adv-x="1556" 
d="M778 1352q142 0 262 -49q119 -48 208 -139q85 -87 136 -214q50 -126 50 -274q0 -153 -50 -282q-51 -130 -136 -220q-88 -93 -208 -143q-122 -51 -262 -51q-142 0 -262 49q-121 49 -208 138q-85 87 -136 214q-49 123 -49 274q0 156 49 282q51 130 136 220q88 93 208 143
q124 52 262 52zM758 1286q-104 0 -189 -43t-148 -120q-61 -74 -98 -183q-36 -106 -36 -233q0 -152 39 -275q40 -125 106 -209q68 -85 162 -132q93 -46 205 -46q103 0 188 43q86 44 149 120q61 74 98 183q36 107 36 234q0 151 -39 274t-107 209t-161 132t-205 46zM492 1434
v24l266 221h41l266 -221v-24l-287 112z" />
    <glyph glyph-name="Otilde" unicode="&#xd5;" horiz-adv-x="1556" 
d="M778 1352q142 0 262 -49q119 -48 208 -139q85 -87 136 -214q50 -126 50 -274q0 -153 -50 -282q-51 -130 -136 -220q-88 -93 -208 -143q-122 -51 -262 -51q-142 0 -262 49q-121 49 -208 138q-85 87 -136 214q-49 123 -49 274q0 156 49 282q51 130 136 220q88 93 208 143
q124 52 262 52zM758 1286q-104 0 -189 -43t-148 -120q-61 -74 -98 -183q-36 -106 -36 -233q0 -152 39 -275q40 -125 106 -209q68 -85 162 -132q93 -46 205 -46q103 0 188 43q86 44 149 120q61 74 98 183q36 107 36 234q0 151 -39 274t-107 209t-161 132t-205 46zM1044 1669
q-29 -110 -62 -161q-34 -54 -95 -54q-37 0 -70 15q-27 12 -62 35q-32 21 -59 35q-28 15 -57 15q-31 0 -50 -22t-36 -68h-41q29 110 62 161q34 54 96 54q36 0 69 -15q30 -14 63 -35q36 -24 58 -35q28 -15 58 -15t50 23t36 67h40z" />
    <glyph glyph-name="Odieresis" unicode="&#xd6;" horiz-adv-x="1556" 
d="M778 1352q142 0 262 -49q119 -48 208 -139q85 -87 136 -214q50 -126 50 -274q0 -153 -50 -282q-51 -130 -136 -220q-88 -93 -208 -143q-122 -51 -262 -51q-142 0 -262 49q-121 49 -208 138q-85 87 -136 214q-49 123 -49 274q0 156 49 282q51 130 136 220q88 93 208 143
q124 52 262 52zM758 1286q-104 0 -189 -43t-148 -120q-61 -74 -98 -183q-36 -106 -36 -233q0 -152 39 -275q40 -125 106 -209q68 -85 162 -132q93 -46 205 -46q103 0 188 43q86 44 149 120q61 74 98 183q36 107 36 234q0 151 -39 274t-107 209t-161 132t-205 46zM592 1667
q50 0 80 -33t30 -78q0 -44 -30 -77t-80 -33t-80 33q-31 34 -31 77q0 44 31 78q30 33 80 33zM965 1667q49 0 79 -33q31 -34 31 -78q0 -43 -31 -77q-30 -33 -79 -33q-50 0 -80 33q-31 34 -31 77q0 44 31 78q30 33 80 33z" />
    <glyph glyph-name="multiply" unicode="&#xd7;" horiz-adv-x="1003" 
d="M236 948l266 -266l266 266l47 -47l-266 -266l266 -266l-47 -47l-266 266l-266 -266l-48 47l267 266l-267 266z" />
    <glyph glyph-name="Oslash" unicode="&#xd8;" horiz-adv-x="1556" 
d="M778 1352q130 0 243 -43q117 -45 200 -119l129 141h84l-168 -184q82 -91 124 -209q44 -123 44 -262q0 -153 -50 -282q-51 -130 -136 -220q-88 -93 -208 -143q-122 -51 -262 -51q-132 0 -243 43q-118 46 -199 118l-129 -141h-84l168 186q-81 91 -124 208q-44 121 -44 261
q0 156 49 282q51 130 136 220q88 93 208 143q124 52 262 52zM758 1286q-104 0 -189 -43t-148 -120q-61 -74 -98 -183q-36 -106 -36 -233q0 -132 26 -233q27 -106 76 -187l741 813q-68 90 -163 138q-96 48 -209 48zM1270 625q0 126 -27 233q-27 108 -76 189l-743 -816
q67 -86 166 -137q95 -49 209 -49q103 0 188 43q86 44 149 120q61 74 98 183q36 107 36 234z" />
    <glyph glyph-name="Ugrave" unicode="&#xd9;" horiz-adv-x="1445" 
d="M967 1331h458v-24q-53 -12 -89 -24q-38 -12 -60 -31t-34 -51q-11 -29 -11 -85v-600q0 -259 -134 -398q-133 -138 -374 -138t-374 138q-134 139 -134 398v641q0 85 -36 107q-35 22 -118 43v24h455v-24q-83 -21 -118 -43q-36 -22 -36 -107v-641q0 -210 106 -319t294 -109
t294 109q105 108 105 319v600q0 56 -11 85q-12 32 -34 51t-60 31q-36 12 -89 24v24zM965 1458v-24l-451 82v163z" />
    <glyph glyph-name="Uacute" unicode="&#xda;" horiz-adv-x="1445" 
d="M967 1331h458v-24q-53 -12 -89 -24q-38 -12 -60 -31t-34 -51q-11 -29 -11 -85v-600q0 -259 -134 -398q-133 -138 -374 -138t-374 138q-134 139 -134 398v641q0 85 -36 107q-35 22 -118 43v24h455v-24q-83 -21 -118 -43q-36 -22 -36 -107v-641q0 -210 106 -319t294 -109
t294 109q105 108 105 319v600q0 56 -11 85q-12 32 -34 51t-60 31q-36 12 -89 24v24zM516 1458l451 221v-163l-451 -82v24z" />
    <glyph glyph-name="Ucircumflex" unicode="&#xdb;" horiz-adv-x="1445" 
d="M967 1331h458v-24q-53 -12 -89 -24q-38 -12 -60 -31t-34 -51q-11 -29 -11 -85v-600q0 -259 -134 -398q-133 -138 -374 -138t-374 138q-134 139 -134 398v641q0 85 -36 107q-35 22 -118 43v24h455v-24q-83 -21 -118 -43q-36 -22 -36 -107v-641q0 -210 106 -319t294 -109
t294 109q105 108 105 319v600q0 56 -11 85q-12 32 -34 51t-60 31q-36 12 -89 24v24zM455 1434v24l266 221h41l266 -221v-24l-287 112z" />
    <glyph glyph-name="Udieresis" unicode="&#xdc;" horiz-adv-x="1445" 
d="M967 1331h458v-24q-53 -12 -89 -24q-38 -12 -60 -31t-34 -51q-11 -29 -11 -85v-600q0 -259 -134 -398q-133 -138 -374 -138t-374 138q-134 139 -134 398v641q0 85 -36 107q-35 22 -118 43v24h455v-24q-83 -21 -118 -43q-36 -22 -36 -107v-641q0 -210 106 -319t294 -109
t294 109q105 108 105 319v600q0 56 -11 85q-12 32 -34 51t-60 31q-36 12 -89 24v24zM555 1667q50 0 80 -33q31 -34 31 -78q0 -43 -31 -77q-30 -33 -80 -33t-80 33q-31 34 -31 77q0 44 31 78q30 33 80 33zM928 1667q50 0 80 -33t30 -78q0 -44 -30 -77t-80 -33t-80 33
q-31 34 -31 77q0 44 31 78q30 33 80 33z" />
    <glyph glyph-name="Yacute" unicode="&#xdd;" horiz-adv-x="1130" 
d="M834 0h-537v25q101 18 147 42q48 25 48 107v338l-334 623q-42 79 -82 118q-39 38 -94 54v24h399v-24q-71 -12 -90 -51q-18 -38 24 -119l291 -553l289 553q43 82 25 119q-19 39 -91 51v24h320v-24q-55 -16 -94 -54q-40 -39 -82 -118l-334 -623v-338q0 -83 47 -107
q46 -24 148 -42v-25zM377 1458l450 221v-163l-450 -82v24z" />
    <glyph glyph-name="Thorn" unicode="&#xde;" horiz-adv-x="1234" 
d="M82 1307v24h455v-24q-83 -21 -118 -43q-36 -22 -36 -107v-31h203q245 0 386 -102q140 -101 140 -293q0 -209 -145 -327q-144 -117 -398 -117h-186v-113q0 -84 36 -106q35 -22 118 -43v-25h-455v25q83 21 118 43q36 22 36 106v983q0 85 -36 107q-35 22 -118 43zM580 1065
h-197v-717h188q196 0 294 106t98 265q0 157 -97 252q-95 94 -286 94z" />
    <glyph glyph-name="germandbls" unicode="&#xdf;" horiz-adv-x="1282" 
d="M492 0h-410v25q69 16 101 41q32 24 32 108v754h-184v24l186 54q7 100 49 182q41 80 104 134q65 56 140 83q79 29 160 29q136 0 222 -68q85 -67 85 -180q0 -57 -38 -103q-33 -40 -82 -87q-47 -45 -82 -86q-38 -44 -38 -99q0 -89 70 -138q67 -47 151 -94q85 -48 152 -112
q70 -67 70 -188q0 -140 -89 -220q-88 -79 -245 -79q-84 0 -152 21t-119 54v285h25q10 -78 41 -136q29 -55 73 -91t90 -52q47 -16 95 -16q82 0 129 47t47 125q0 101 -69 153q-62 47 -154 98q-88 49 -154 106q-69 60 -69 176q0 65 34 111t74 86q43 43 75 86q34 46 34 112
q0 96 -68 153q-69 58 -170 58q-123 0 -186 -71q-64 -72 -64 -216v-895q0 -84 32 -108t102 -41v-25z" />
    <glyph glyph-name="agrave" unicode="&#xe0;" horiz-adv-x="1001" 
d="M229 700q-31 -15 -71 -20q-39 -5 -68 0q-7 59 45 119q51 58 152 127q93 65 153 92q58 26 111 26q111 0 173 -71t62 -187v-589q0 -57 30 -83q31 -26 65 -26q28 0 51 16q24 16 45 56l27 -13q-23 -61 -72 -110q-47 -47 -115 -47q-67 0 -116 44q-48 44 -48 144v55
q-39 -118 -131 -186q-91 -67 -200 -67q-107 0 -179 66q-71 65 -71 155q0 34 18 64q17 29 57 50l496 254v199q0 76 -44 123t-132 47q-51 0 -95 -23q-46 -24 -77 -56q-32 -33 -50 -77q-18 -42 -16 -82zM215 236q0 -56 39 -101t109 -45q116 0 198 88t82 230v96l-367 -193
q-30 -16 -47 -37q-14 -17 -14 -38zM524 1147l-276 369h174l143 -369h-41z" />
    <glyph glyph-name="aacute" unicode="&#xe1;" horiz-adv-x="1001" 
d="M229 700q-31 -15 -71 -20q-39 -5 -68 0q-7 59 45 119q51 58 152 127q93 65 153 92q58 26 111 26q111 0 173 -71t62 -187v-589q0 -57 30 -83q31 -26 65 -26q28 0 51 16q24 16 45 56l27 -13q-23 -61 -72 -110q-47 -47 -115 -47q-67 0 -116 44q-48 44 -48 144v55
q-39 -118 -131 -186q-91 -67 -200 -67q-107 0 -179 66q-71 65 -71 155q0 34 18 64q17 29 57 50l496 254v199q0 76 -44 123t-132 47q-51 0 -95 -23q-46 -24 -77 -56q-32 -33 -50 -77q-18 -42 -16 -82zM215 236q0 -56 39 -101t109 -45q116 0 198 88t82 230v96l-367 -193
q-30 -16 -47 -37q-14 -17 -14 -38zM483 1147h-41l144 369h174z" />
    <glyph glyph-name="acircumflex" unicode="&#xe2;" horiz-adv-x="1001" 
d="M229 700q-31 -15 -71 -20q-39 -5 -68 0q-7 59 45 119q51 58 152 127q93 65 153 92q58 26 111 26q111 0 173 -71t62 -187v-589q0 -57 30 -83q31 -26 65 -26q28 0 51 16q24 16 45 56l27 -13q-23 -61 -72 -110q-47 -47 -115 -47q-67 0 -116 44q-48 44 -48 144v55
q-39 -118 -131 -186q-91 -67 -200 -67q-107 0 -179 66q-71 65 -71 155q0 34 18 64q17 29 57 50l496 254v199q0 76 -44 123t-132 47q-51 0 -95 -23q-46 -24 -77 -56q-32 -33 -50 -77q-18 -42 -16 -82zM215 236q0 -56 39 -101t109 -45q116 0 198 88t82 230v96l-367 -193
q-30 -16 -47 -37q-14 -17 -14 -38zM279 1147h-41l245 369h41l246 -369h-41l-225 205z" />
    <glyph glyph-name="atilde" unicode="&#xe3;" horiz-adv-x="1001" 
d="M229 700q-31 -15 -71 -20q-39 -5 -68 0q-7 59 45 119q51 58 152 127q93 65 153 92q58 26 111 26q111 0 173 -71t62 -187v-589q0 -57 30 -83q31 -26 65 -26q28 0 51 16q24 16 45 56l27 -13q-23 -61 -72 -110q-47 -47 -115 -47q-67 0 -116 44q-48 44 -48 144v55
q-39 -118 -131 -186q-91 -67 -200 -67q-107 0 -179 66q-71 65 -71 155q0 34 18 64q17 29 57 50l496 254v199q0 76 -44 123t-132 47q-51 0 -95 -23q-46 -24 -77 -56q-32 -33 -50 -77q-18 -42 -16 -82zM215 236q0 -56 39 -101t109 -45q116 0 198 88t82 230v96l-367 -193
q-30 -16 -47 -37q-14 -17 -14 -38zM770 1434q-29 -110 -62 -161q-34 -54 -96 -54q-36 0 -69 15q-30 14 -63 35q-36 24 -58 35q-28 15 -57 15q-31 0 -51 -23q-18 -21 -35 -67h-41q29 110 62 161q34 54 95 54q35 0 70 -16q32 -15 62 -34q32 -21 59 -35q30 -16 57 -16
q30 0 50 23q19 22 36 68h41z" />
    <glyph glyph-name="adieresis" unicode="&#xe4;" horiz-adv-x="1001" 
d="M229 700q-31 -15 -71 -20q-39 -5 -68 0q-7 59 45 119q51 58 152 127q93 65 153 92q58 26 111 26q111 0 173 -71t62 -187v-589q0 -57 30 -83q31 -26 65 -26q28 0 51 16q24 16 45 56l27 -13q-23 -61 -72 -110q-47 -47 -115 -47q-67 0 -116 44q-48 44 -48 144v55
q-39 -118 -131 -186q-91 -67 -200 -67q-107 0 -179 66q-71 65 -71 155q0 34 18 64q17 29 57 50l496 254v199q0 76 -44 123t-132 47q-51 0 -95 -23q-46 -24 -77 -56q-32 -33 -50 -77q-18 -42 -16 -82zM215 236q0 -56 39 -101t109 -45q116 0 198 88t82 230v96l-367 -193
q-30 -16 -47 -37q-14 -17 -14 -38zM317 1442q50 0 80 -33q31 -34 31 -78t-31 -78q-29 -32 -80 -32q-50 0 -79 32q-31 34 -31 78t31 78q30 33 79 33zM690 1442q50 0 80 -33q31 -34 31 -78t-31 -78q-29 -32 -80 -32t-80 32q-30 33 -30 78t30 78t80 33z" />
    <glyph glyph-name="aring" unicode="&#xe5;" horiz-adv-x="1001" 
d="M229 700q-31 -15 -71 -20q-39 -5 -68 0q-7 59 45 119q51 58 152 127q93 65 153 92q58 26 111 26q111 0 173 -71t62 -187v-589q0 -57 30 -83q31 -26 65 -26q28 0 51 16q24 16 45 56l27 -13q-23 -61 -72 -110q-47 -47 -115 -47q-67 0 -116 44q-48 44 -48 144v55
q-39 -118 -131 -186q-91 -67 -200 -67q-107 0 -179 66q-71 65 -71 155q0 34 18 64q17 29 57 50l496 254v199q0 76 -44 123t-132 47q-51 0 -95 -23q-46 -24 -77 -56q-32 -33 -50 -77q-18 -42 -16 -82zM215 236q0 -56 39 -101t109 -45q116 0 198 88t82 230v96l-367 -193
q-30 -16 -47 -37q-14 -17 -14 -38zM504 1178q-105 0 -176 40q-72 40 -72 113t72 114q71 40 176 40t176 -40q72 -41 72 -114t-72 -113q-71 -40 -176 -40zM504 1434q-51 0 -83 -26t-32 -77t32 -77q31 -25 83 -25t83 25q32 26 32 77t-32 77t-83 26z" />
    <glyph glyph-name="ae" unicode="&#xe6;" horiz-adv-x="1611" 
d="M1501 696v-41h-706q-6 -30 -7 -48q-2 -34 -2 -52q0 -123 30 -209t79 -138t114 -76q62 -23 132 -23q117 0 208 67q91 68 126 225h34q-28 -202 -131 -312q-102 -109 -288 -109q-136 0 -251 76t-159 241q-27 -146 -129 -232q-101 -85 -229 -85q-107 0 -179 66
q-71 65 -71 155q0 34 18 64q17 29 57 50l496 254v199q0 76 -44 123t-132 47q-51 0 -95 -23q-46 -24 -77 -56q-32 -33 -50 -77q-18 -42 -16 -82q-31 -15 -71 -20q-39 -5 -68 0q-7 59 45 119q51 58 152 127q93 65 153 92q58 26 111 26q94 0 154 -51q58 -49 75 -137
q68 88 169 139q98 49 206 49q86 0 149 -28q64 -28 108 -78q45 -52 67 -112q22 -62 22 -130zM1120 971q-110 0 -194 -69t-117 -185h502q20 0 28 8q9 9 9 27q0 37 -14 77q-13 39 -41 71q-27 32 -70 51q-45 20 -103 20zM215 236q0 -56 39 -101t109 -45q116 0 198 88t82 230v96
l-367 -193q-30 -16 -47 -37q-14 -17 -14 -38z" />
    <glyph glyph-name="ccedilla" unicode="&#xe7;" horiz-adv-x="1015" 
d="M227 559q0 -125 30 -211t80 -139t115 -77q62 -23 134 -23q117 0 208 67q92 68 126 225h34q-27 -195 -119 -301q-92 -107 -264 -118q-27 -24 -42 -42t-15 -32q0 -15 24 -33q9 -6 25.5 -20t24.5 -20q22 -17 50 -47q24 -25 24 -52q0 -58 -60 -112t-162 -54q-52 0 -93 21
q-40 21 -40 61q0 13 5 33q3 14 18 32h22q28 -51 63 -75q36 -25 72 -25q35 0 53 17q19 18 19 44q0 25 -24 49q-11 11 -53 46q-36 30 -52 45q-24 22 -24 43q0 27 29 52q3 3 77 67q-83 5 -155 35q-74 31 -131 91q-54 57 -90 152q-34 90 -34 215q0 128 44 236q43 105 118 180
t170 115t199 40q127 0 210 -53t83 -147q0 -22 -7 -43q-6 -19 -20 -43h-22q-56 106 -141 157q-83 50 -175 50q-136 0 -235 -110q-99 -109 -99 -296z" />
    <glyph glyph-name="egrave" unicode="&#xe8;" horiz-adv-x="1056" 
d="M946 696v-41h-710q-6 -30 -7 -47q-2 -32 -2 -49q0 -125 30 -211t80 -139t115 -77q62 -23 134 -23q117 0 208 67q92 68 126 225h34q-28 -202 -131 -312q-102 -109 -288 -109q-85 0 -162 28t-138 89t-97 155t-36 221q0 128 41 236q40 106 110 180q71 76 160 115
q90 40 187 40q86 0 149 -28q65 -28 108 -78q45 -52 67 -112q22 -62 22 -130zM561 975q-111 0 -196 -70q-84 -69 -117 -188h508q20 0 28 8q9 9 9 27q0 36 -14 78q-13 40 -42 72q-28 31 -72 52q-43 21 -104 21zM588 1147l-277 369h174l144 -369h-41z" />
    <glyph glyph-name="eacute" unicode="&#xe9;" horiz-adv-x="1056" 
d="M946 696v-41h-710q-6 -30 -7 -47q-2 -32 -2 -49q0 -125 30 -211t80 -139t115 -77q62 -23 134 -23q117 0 208 67q92 68 126 225h34q-28 -202 -131 -312q-102 -109 -288 -109q-85 0 -162 28t-138 89t-97 155t-36 221q0 128 41 236q40 106 110 180q71 76 160 115
q90 40 187 40q86 0 149 -28q65 -28 108 -78q45 -52 67 -112q22 -62 22 -130zM561 975q-111 0 -196 -70q-84 -69 -117 -188h508q20 0 28 8q9 9 9 27q0 36 -14 78q-13 40 -42 72q-28 31 -72 52q-43 21 -104 21zM547 1147h-41l143 369h174z" />
    <glyph glyph-name="ecircumflex" unicode="&#xea;" horiz-adv-x="1056" 
d="M946 696v-41h-710q-6 -30 -7 -47q-2 -32 -2 -49q0 -125 30 -211t80 -139t115 -77q62 -23 134 -23q117 0 208 67q92 68 126 225h34q-28 -202 -131 -312q-102 -109 -288 -109q-85 0 -162 28t-138 89t-97 155t-36 221q0 128 41 236q40 106 110 180q71 76 160 115
q90 40 187 40q86 0 149 -28q65 -28 108 -78q45 -52 67 -112q22 -62 22 -130zM561 975q-111 0 -196 -70q-84 -69 -117 -188h508q20 0 28 8q9 9 9 27q0 36 -14 78q-13 40 -42 72q-28 31 -72 52q-43 21 -104 21zM342 1147h-41l246 369h41l246 -369h-41l-226 205z" />
    <glyph glyph-name="edieresis" unicode="&#xeb;" horiz-adv-x="1056" 
d="M946 696v-41h-710q-6 -30 -7 -47q-2 -32 -2 -49q0 -125 30 -211t80 -139t115 -77q62 -23 134 -23q117 0 208 67q92 68 126 225h34q-28 -202 -131 -312q-102 -109 -288 -109q-85 0 -162 28t-138 89t-97 155t-36 221q0 128 41 236q40 106 110 180q71 76 160 115
q90 40 187 40q86 0 149 -28q65 -28 108 -78q45 -52 67 -112q22 -62 22 -130zM561 975q-111 0 -196 -70q-84 -69 -117 -188h508q20 0 28 8q9 9 9 27q0 36 -14 78q-13 40 -42 72q-28 31 -72 52q-43 21 -104 21zM381 1442q50 0 80 -33q31 -34 31 -78t-31 -78q-29 -32 -80 -32
t-80 32q-31 34 -31 78t31 78q30 33 80 33zM754 1442q50 0 80 -33t30 -78t-30 -78q-29 -32 -80 -32t-80 32q-31 34 -31 78t31 78q30 33 80 33z" />
    <glyph glyph-name="igrave" unicode="&#xec;" horiz-adv-x="563" 
d="M358 1044v-870q0 -84 27 -109t86 -40v-25h-369v25q59 15 86 40t27 109v754h-184v24zM307 1147l-276 369h174l143 -369h-41z" />
    <glyph glyph-name="iacute" unicode="&#xed;" horiz-adv-x="563" 
d="M358 1044v-870q0 -84 27 -109t86 -40v-25h-369v25q59 15 86 40t27 109v754h-184v24zM266 1147h-41l144 369h174z" />
    <glyph glyph-name="icircumflex" unicode="&#xee;" horiz-adv-x="563" 
d="M358 1044v-870q0 -84 27 -109t86 -40v-25h-369v25q59 15 86 40t27 109v754h-184v24zM61 1147h-41l246 369h41l246 -369h-41l-225 205z" />
    <glyph glyph-name="idieresis" unicode="&#xef;" horiz-adv-x="563" 
d="M358 1044v-870q0 -84 27 -109t86 -40v-25h-369v25q59 15 86 40t27 109v754h-184v24zM100 1442q50 0 80 -33q31 -34 31 -78t-31 -78q-29 -32 -80 -32t-80 32q-30 33 -30 78t30 78t80 33zM473 1442q50 0 80 -33q31 -34 31 -78t-31 -78q-29 -32 -80 -32t-80 32
q-31 34 -31 78t31 78q30 33 80 33z" />
    <glyph glyph-name="eth" unicode="&#xf0;" horiz-adv-x="1110" 
d="M451 1026l254 143q-43 49 -99 72q-57 23 -119 23q-85 0 -157 -39t-123 -133h-23q-11 20 -19 43q-7 21 -7 43q0 82 78 128q77 46 196 46q91 0 178 -38q86 -38 158 -110l219 123v-74l-174 -98q79 -97 126 -236q48 -141 48 -317q0 -132 -28 -250q-27 -115 -83 -196
q-57 -83 -145 -129q-89 -47 -209 -47q-79 0 -155 30q-77 30 -135 90q-58 59 -94 148q-36 88 -36 198q0 81 26 153q26 71 72 122q47 52 114 81t155 29q126 0 219 -65q95 -66 150 -154v22v23q0 153 -25 272q-23 111 -70 187l-292 -164v74zM236 356q0 -136 72 -219
q72 -82 192 -82q152 0 235 131q82 130 99 355q-61 98 -145 139t-161 41q-135 0 -214 -101q-78 -100 -78 -264z" />
    <glyph glyph-name="ntilde" unicode="&#xf1;" horiz-adv-x="1177" 
d="M358 772v-598q0 -84 32 -108t102 -41v-25h-410v25q69 16 101 41q32 24 32 108v754h-184v24l317 92v-200q68 86 155 143t195 57q130 0 202 -88q73 -90 73 -241v-541q0 -84 32 -108q32 -25 101 -41v-25h-410v25q70 17 102 41q31 24 31 108v520q0 117 -49 175
q-50 59 -149 59q-85 0 -152 -41q-64 -39 -121 -115zM856 1434q-29 -110 -62 -161q-34 -54 -96 -54q-36 0 -69 15q-30 14 -63 35q-36 24 -58 35q-28 15 -57 15q-31 0 -51 -23q-18 -21 -35 -67h-41q29 110 62 161q34 54 95 54q35 0 70 -16q32 -15 62 -34q32 -21 59 -35
q30 -16 57 -16q30 0 50 23q19 22 36 68h41z" />
    <glyph glyph-name="ograve" unicode="&#xf2;" horiz-adv-x="1157" 
d="M575 1044q99 0 185 -29q88 -30 152 -94q66 -66 104 -166q39 -102 39 -245q0 -124 -38 -224q-37 -98 -103 -167q-65 -68 -150 -104q-83 -35 -182 -35t-185 29q-88 30 -152 94q-66 66 -104 166q-39 102 -39 245q0 124 38 224q37 98 103 167q65 68 150 104q83 35 182 35z
M600 41q134 0 223 109q88 107 88 309q0 244 -100 384t-254 140q-134 0 -223 -109q-88 -107 -88 -309q0 -243 99 -384q98 -140 255 -140zM598 1147l-276 369h174l143 -369h-41z" />
    <glyph glyph-name="oacute" unicode="&#xf3;" horiz-adv-x="1157" 
d="M575 1044q99 0 185 -29q88 -30 152 -94q66 -66 104 -166q39 -102 39 -245q0 -124 -38 -224q-37 -98 -103 -167q-65 -68 -150 -104q-83 -35 -182 -35t-185 29q-88 30 -152 94q-66 66 -104 166q-39 102 -39 245q0 124 38 224q37 98 103 167q65 68 150 104q83 35 182 35z
M600 41q134 0 223 109q88 107 88 309q0 244 -100 384t-254 140q-134 0 -223 -109q-88 -107 -88 -309q0 -243 99 -384q98 -140 255 -140zM557 1147h-41l143 369h175z" />
    <glyph glyph-name="ocircumflex" unicode="&#xf4;" horiz-adv-x="1157" 
d="M575 1044q99 0 185 -29q88 -30 152 -94q66 -66 104 -166q39 -102 39 -245q0 -124 -38 -224q-37 -98 -103 -167q-65 -68 -150 -104q-83 -35 -182 -35t-185 29q-88 30 -152 94q-66 66 -104 166q-39 102 -39 245q0 124 38 224q37 98 103 167q65 68 150 104q83 35 182 35z
M600 41q134 0 223 109q88 107 88 309q0 244 -100 384t-254 140q-134 0 -223 -109q-88 -107 -88 -309q0 -243 99 -384q98 -140 255 -140zM352 1147h-41l246 369h41l246 -369h-41l-225 205z" />
    <glyph glyph-name="otilde" unicode="&#xf5;" horiz-adv-x="1157" 
d="M575 1044q99 0 185 -29q88 -30 152 -94q66 -66 104 -166q39 -102 39 -245q0 -124 -38 -224q-37 -98 -103 -167q-65 -68 -150 -104q-83 -35 -182 -35t-185 29q-88 30 -152 94q-66 66 -104 166q-39 102 -39 245q0 124 38 224q37 98 103 167q65 68 150 104q83 35 182 35z
M600 41q134 0 223 109q88 107 88 309q0 244 -100 384t-254 140q-134 0 -223 -109q-88 -107 -88 -309q0 -243 99 -384q98 -140 255 -140zM844 1434q-29 -107 -63 -161q-35 -54 -95 -54q-37 0 -70 15q-27 12 -62 35q-36 24 -58 35q-29 15 -58 15q-30 0 -50 -23t-36 -67h-41
q29 107 63 161t95 54q35 0 70 -16q32 -15 62 -34q36 -24 58 -35q30 -16 58 -16q30 0 50 23q19 22 36 68h41z" />
    <glyph glyph-name="odieresis" unicode="&#xf6;" horiz-adv-x="1157" 
d="M575 1044q99 0 185 -29q88 -30 152 -94q66 -66 104 -166q39 -102 39 -245q0 -124 -38 -224q-37 -98 -103 -167q-65 -68 -150 -104q-83 -35 -182 -35t-185 29q-88 30 -152 94q-66 66 -104 166q-39 102 -39 245q0 124 38 224q37 98 103 167q65 68 150 104q83 35 182 35z
M600 41q134 0 223 109q88 107 88 309q0 244 -100 384t-254 140q-134 0 -223 -109q-88 -107 -88 -309q0 -243 99 -384q98 -140 255 -140zM391 1442q50 0 80 -33q31 -34 31 -78t-31 -78q-29 -32 -80 -32t-80 32q-30 33 -30 78t30 78t80 33zM764 1442q50 0 80 -33t30 -78
t-30 -78q-29 -32 -80 -32t-80 32q-31 34 -31 78t31 78q30 33 80 33z" />
    <glyph glyph-name="divide" unicode="&#xf7;" horiz-adv-x="1003" 
d="M502 791q-58 0 -92 37q-35 38 -35 90q0 51 35 89q34 37 92 37t92 -37q35 -38 35 -89q0 -52 -35 -90q-34 -37 -92 -37zM123 666h758v-62h-758v62zM502 223q-57 0 -92 38t-35 89t35 89t92 38t92 -38t35 -89t-35 -89t-92 -38z" />
    <glyph glyph-name="oslash" unicode="&#xf8;" horiz-adv-x="1157" 
d="M575 1044q93 0 174 -25q83 -26 146 -81l72 86h88l-113 -135q52 -65 82 -158q31 -98 31 -221q0 -124 -38 -224q-37 -98 -103 -167q-65 -68 -150 -104q-83 -35 -182 -35q-92 0 -173 25q-85 26 -147 81l-72 -86h-88l113 135q-52 65 -82 158q-31 98 -31 221q0 124 38 224
q37 98 103 167q65 68 150 104q83 35 182 35zM246 565q0 -98 16 -177t47 -144l504 598q-46 69 -113 105q-66 36 -143 36q-134 0 -223 -109q-88 -107 -88 -309zM600 41q134 0 223 109q88 107 88 309q0 98 -16 177t-47 144l-504 -598q44 -68 112 -105q66 -36 144 -36z" />
    <glyph glyph-name="ugrave" unicode="&#xf9;" horiz-adv-x="1157" 
d="M1137 72l-318 -92v200q-69 -87 -154 -143q-87 -57 -196 -57q-130 0 -202 88q-72 89 -72 241v619h-185v24l328 92v-714q0 -117 49 -175q50 -59 150 -59q84 0 151 41q64 39 121 115v676h-184v24l327 92v-948h185v-24zM598 1147l-276 369h174l143 -369h-41z" />
    <glyph glyph-name="uacute" unicode="&#xfa;" horiz-adv-x="1157" 
d="M1137 72l-318 -92v200q-69 -87 -154 -143q-87 -57 -196 -57q-130 0 -202 88q-72 89 -72 241v619h-185v24l328 92v-714q0 -117 49 -175q50 -59 150 -59q84 0 151 41q64 39 121 115v676h-184v24l327 92v-948h185v-24zM557 1147h-41l143 369h175z" />
    <glyph glyph-name="ucircumflex" unicode="&#xfb;" horiz-adv-x="1157" 
d="M1137 72l-318 -92v200q-69 -87 -154 -143q-87 -57 -196 -57q-130 0 -202 88q-72 89 -72 241v619h-185v24l328 92v-714q0 -117 49 -175q50 -59 150 -59q84 0 151 41q64 39 121 115v676h-184v24l327 92v-948h185v-24zM352 1147h-41l246 369h41l246 -369h-41l-225 205z" />
    <glyph glyph-name="udieresis" unicode="&#xfc;" horiz-adv-x="1157" 
d="M1137 72l-318 -92v200q-69 -87 -154 -143q-87 -57 -196 -57q-130 0 -202 88q-72 89 -72 241v619h-185v24l328 92v-714q0 -117 49 -175q50 -59 150 -59q84 0 151 41q64 39 121 115v676h-184v24l327 92v-948h185v-24zM391 1442q50 0 80 -33q31 -34 31 -78t-31 -78
q-29 -32 -80 -32t-80 32q-30 33 -30 78t30 78t80 33zM764 1442q50 0 80 -33t30 -78t-30 -78q-29 -32 -80 -32t-80 32q-31 34 -31 78t31 78q30 33 80 33z" />
    <glyph glyph-name="yacute" unicode="&#xfd;" horiz-adv-x="1073" 
d="M549 -20q-60 -152 -150 -230t-213 -78q-39 0 -69 6q-14 3 -58 15v121q36 -14 74 -22q35 -7 76 -7q85 0 158 45q73 44 118 158l19 45l-318 794q-33 85 -68 121q-34 35 -98 51v25h396v-25q-72 -12 -93 -49q-21 -38 11 -121l239 -620l228 592q33 85 10 137q-22 50 -96 61v25
h358v-25q-68 -15 -116 -65q-50 -52 -83 -135zM545 1147h-41l143 369h174z" />
    <glyph glyph-name="thorn" unicode="&#xfe;" horiz-adv-x="1161" 
d="M338 -133q0 -85 36 -110q35 -25 138 -40v-24h-451v24q70 17 102 41t32 109v1440h-185v24l328 103v-576q66 85 148 135q83 51 188 51q97 0 168 -37q70 -37 120 -102q48 -63 72 -150q25 -91 25 -184q0 -142 -47 -254q-46 -109 -123 -185q-77 -75 -172 -114
q-94 -38 -197 -38q-60 0 -101 7q-47 8 -81 19v-139zM631 930q-97 0 -166 -45q-70 -46 -127 -119v-639q43 -32 97 -55q55 -23 122 -23q169 0 268 130t99 337q0 179 -74 297q-74 117 -219 117z" />
    <glyph glyph-name="ydieresis" unicode="&#xff;" horiz-adv-x="1073" 
d="M549 -20q-60 -152 -150 -230t-213 -78q-39 0 -69 6q-14 3 -58 15v121q36 -14 74 -22q35 -7 76 -7q85 0 158 45q73 44 118 158l19 45l-318 794q-33 85 -68 121q-34 35 -98 51v25h396v-25q-72 -12 -93 -49q-21 -38 11 -121l239 -620l228 592q33 85 10 137q-22 50 -96 61v25
h358v-25q-68 -15 -116 -65q-50 -52 -83 -135zM379 1442q50 0 80 -33t30 -78t-30 -78q-29 -32 -80 -32t-80 32q-31 34 -31 78t31 78q30 33 80 33zM752 1442q49 0 79 -33q31 -34 31 -78t-31 -78q-29 -32 -79 -32q-51 0 -80 32q-31 34 -31 78t31 78q30 33 80 33z" />
    <glyph glyph-name="Amacron" unicode="&#x100;" horiz-adv-x="1355" 
d="M403 25v-25h-403v25q74 17 129 65q57 50 90 135l447 1127h24l459 -1155q34 -87 75 -121q42 -34 111 -51v-25h-440v25q89 15 112 48t-10 122l-84 215h-544l-72 -187q-32 -87 -8 -136q23 -47 114 -62zM405 506h472l-236 606zM903 1632v-131h-450v131h450z" />
    <glyph glyph-name="amacron" unicode="&#x101;" horiz-adv-x="1001" 
d="M229 700q-31 -15 -71 -20q-39 -5 -68 0q-7 59 45 119q51 58 152 127q93 65 153 92q58 26 111 26q111 0 173 -71t62 -187v-589q0 -57 30 -83q31 -26 65 -26q28 0 51 16q24 16 45 56l27 -13q-23 -61 -72 -110q-47 -47 -115 -47q-67 0 -116 44q-48 44 -48 144v55
q-39 -118 -131 -186q-91 -67 -200 -67q-107 0 -179 66q-71 65 -71 155q0 34 18 64q17 29 57 50l496 254v199q0 76 -44 123t-132 47q-51 0 -95 -23q-46 -24 -77 -56q-32 -33 -50 -77q-18 -42 -16 -82zM215 236q0 -56 39 -101t109 -45q116 0 198 88t82 230v96l-367 -193
q-30 -16 -47 -37q-14 -17 -14 -38zM729 1397v-131h-450v131h450z" />
    <glyph glyph-name="Abreve" unicode="&#x102;" horiz-adv-x="1355" 
d="M403 25v-25h-403v25q74 17 129 65q57 50 90 135l447 1127h24l459 -1155q34 -87 75 -121q42 -34 111 -51v-25h-440v25q89 15 112 48t-10 122l-84 215h-544l-72 -187q-32 -87 -8 -136q23 -47 114 -62zM405 506h472l-236 606zM678 1434q-109 0 -177 65q-69 66 -69 180h51
q0 -68 60 -95q62 -28 135 -28t135 28q59 27 59 95h52q0 -114 -69 -180q-68 -65 -177 -65z" />
    <glyph glyph-name="abreve" unicode="&#x103;" horiz-adv-x="1001" 
d="M229 700q-31 -15 -71 -20q-39 -5 -68 0q-7 59 45 119q51 58 152 127q93 65 153 92q58 26 111 26q111 0 173 -71t62 -187v-589q0 -57 30 -83q31 -26 65 -26q28 0 51 16q24 16 45 56l27 -13q-23 -61 -72 -110q-47 -47 -115 -47q-67 0 -116 44q-48 44 -48 144v55
q-39 -118 -131 -186q-91 -67 -200 -67q-107 0 -179 66q-71 65 -71 155q0 34 18 64q17 29 57 50l496 254v199q0 76 -44 123t-132 47q-51 0 -95 -23q-46 -24 -77 -56q-32 -33 -50 -77q-18 -42 -16 -82zM215 236q0 -56 39 -101t109 -45q116 0 198 88t82 230v96l-367 -193
q-30 -16 -47 -37q-14 -17 -14 -38zM504 1188q-108 0 -177 77t-69 210h51q0 -89 60 -126q61 -38 135 -38t135 38q59 37 59 126h52q0 -133 -69 -210t-177 -77z" />
    <glyph glyph-name="Aogonek" unicode="&#x104;" horiz-adv-x="1355" 
d="M403 25v-25h-403v25q74 17 129 65q57 50 90 135l447 1127h24l459 -1155q34 -87 75 -121q42 -34 111 -51v-25h-440v25q89 15 112 48t-10 122l-84 215h-544l-72 -187q-32 -87 -8 -136q23 -47 114 -62zM405 506h472l-236 606zM1034 -227q0 -59 35 -85t80 -26q40 0 76 16
q35 16 67 52l23 -19q-32 -53 -84 -98q-50 -43 -133 -43q-79 0 -129 41q-49 40 -49 113q0 44 18 83q17 38 47 72q27 31 62 63q33 30 61 58h61q-66 -66 -100 -121q-35 -56 -35 -106z" />
    <glyph glyph-name="aogonek" unicode="&#x105;" horiz-adv-x="1001" 
d="M229 700q-31 -15 -71 -20q-39 -5 -68 0q-7 59 45 119q51 58 152 127q93 65 153 92q58 26 111 26q111 0 173 -71t62 -187v-589q0 -57 30 -83q31 -26 65 -26q28 0 51 16q24 16 45 56l27 -13q-26 -59 -74 -104q-31 -29 -93 -83q-46 -40 -80 -83t-34 -104q0 -59 35 -85
t80 -26q39 0 75 16q37 16 68 52l23 -19q-32 -53 -84 -98q-50 -43 -134 -43q-78 0 -128 41t-50 113q0 75 55 142t130 126q-59 6 -100 51q-40 44 -40 135v55q-39 -118 -131 -186q-91 -67 -200 -67q-107 0 -179 66q-71 65 -71 155q0 34 18 64q17 29 57 50l496 254v199
q0 76 -44 123t-132 47q-51 0 -95 -23q-46 -24 -77 -56q-32 -33 -50 -77q-18 -42 -16 -82zM215 236q0 -56 39 -101t109 -45q116 0 198 88t82 230v96l-367 -193q-30 -16 -47 -37q-14 -17 -14 -38z" />
    <glyph glyph-name="Cacute" unicode="&#x106;" horiz-adv-x="1374" 
d="M743 1270q-104 0 -191 -37q-92 -39 -156 -109q-67 -73 -104 -175q-38 -105 -38 -234q0 -143 39 -256t108 -188q66 -72 169 -114q98 -40 216 -40q99 0 182 29q84 29 149 90q66 62 104 153q38 93 43 223h28q-5 -307 -149 -469q-145 -163 -402 -163q-142 0 -256 48
q-115 48 -194 135q-81 88 -124 209q-44 123 -44 267q0 166 56 297q56 132 150 224q94 93 215 142q123 50 251 50q135 0 225 -30t192 -87v-354h-24q-45 212 -162 301q-116 88 -283 88zM569 1458l451 221v-163l-451 -82v24z" />
    <glyph glyph-name="cacute" unicode="&#x107;" horiz-adv-x="1015" 
d="M227 559q0 -125 30 -211t80 -139t115 -77q62 -23 134 -23q117 0 208 67q92 68 126 225h34q-28 -202 -131 -312q-102 -109 -288 -109q-85 0 -162 28q-79 29 -139 89t-96 155q-36 94 -36 221q0 128 44 236q43 105 118 180t170 115t199 40q127 0 210 -53t83 -147
q0 -22 -7 -43q-6 -19 -20 -43h-22q-56 106 -141 157q-83 50 -175 50q-136 0 -235 -110q-99 -109 -99 -296zM565 1147h-41l144 369h174z" />
    <glyph glyph-name="Ccircumflex" unicode="&#x108;" horiz-adv-x="1374" 
d="M743 1270q-104 0 -191 -37q-92 -39 -156 -109q-67 -73 -104 -175q-38 -105 -38 -234q0 -143 39 -256t108 -188q66 -72 169 -114q98 -40 216 -40q99 0 182 29q84 29 149 90q66 62 104 153q38 93 43 223h28q-5 -307 -149 -469q-145 -163 -402 -163q-142 0 -256 48
q-115 48 -194 135q-81 88 -124 209q-44 123 -44 267q0 166 56 297q56 132 150 224q94 93 215 142q123 50 251 50q135 0 225 -30t192 -87v-354h-24q-45 212 -162 301q-116 88 -283 88zM508 1434v24l266 221h41l266 -221v-24l-286 112z" />
    <glyph glyph-name="ccircumflex" unicode="&#x109;" horiz-adv-x="1015" 
d="M227 559q0 -125 30 -211t80 -139t115 -77q62 -23 134 -23q117 0 208 67q92 68 126 225h34q-28 -202 -131 -312q-102 -109 -288 -109q-85 0 -162 28q-79 29 -139 89t-96 155q-36 94 -36 221q0 128 44 236q43 105 118 180t170 115t199 40q127 0 210 -53t83 -147
q0 -22 -7 -43q-6 -19 -20 -43h-22q-56 106 -141 157q-83 50 -175 50q-136 0 -235 -110q-99 -109 -99 -296zM360 1147h-41l246 369h41l246 -369h-41l-225 205z" />
    <glyph glyph-name="Cdotaccent" unicode="&#x10a;" horiz-adv-x="1374" 
d="M743 1270q-104 0 -191 -37q-92 -39 -156 -109q-67 -73 -104 -175q-38 -105 -38 -234q0 -143 39 -256t108 -188q66 -72 169 -114q98 -40 216 -40q99 0 182 29q84 29 149 90q66 62 104 153q38 93 43 223h28q-5 -307 -149 -469q-145 -163 -402 -163q-142 0 -256 48
q-115 48 -194 135q-81 88 -124 209q-44 123 -44 267q0 166 56 297q56 132 150 224q94 93 215 142q123 50 251 50q135 0 225 -30t192 -87v-354h-24q-45 212 -162 301q-116 88 -283 88zM795 1673q51 0 84 -35q32 -33 32 -82q0 -48 -32 -81q-33 -35 -84 -35t-84 35t-33 81
q0 48 33 82q33 35 84 35z" />
    <glyph glyph-name="cdotaccent" unicode="&#x10b;" horiz-adv-x="1015" 
d="M227 559q0 -125 30 -211t80 -139t115 -77q62 -23 134 -23q117 0 208 67q92 68 126 225h34q-28 -202 -131 -312q-102 -109 -288 -109q-85 0 -162 28q-79 29 -139 89t-96 155q-36 94 -36 221q0 128 44 236q43 105 118 180t170 115t199 40q127 0 210 -53t83 -147
q0 -22 -7 -43q-6 -19 -20 -43h-22q-56 106 -141 157q-83 50 -175 50q-136 0 -235 -110q-99 -109 -99 -296zM586 1448q51 0 84 -35q32 -33 32 -82t-32 -82q-33 -35 -84 -35t-84 35t-33 82t33 82t84 35z" />
    <glyph glyph-name="Ccaron" unicode="&#x10c;" horiz-adv-x="1374" 
d="M743 1270q-104 0 -191 -37q-92 -39 -156 -109q-67 -73 -104 -175q-38 -105 -38 -234q0 -143 39 -256t108 -188q66 -72 169 -114q98 -40 216 -40q99 0 182 29q84 29 149 90q66 62 104 153q38 93 43 223h28q-5 -307 -149 -469q-145 -163 -402 -163q-142 0 -256 48
q-115 48 -194 135q-81 88 -124 209q-44 123 -44 267q0 166 56 297q56 132 150 224q94 93 215 142q123 50 251 50q135 0 225 -30t192 -87v-354h-24q-45 212 -162 301q-116 88 -283 88zM508 1679l287 -112l286 112v-24l-266 -221h-41l-266 221v24z" />
    <glyph glyph-name="ccaron" unicode="&#x10d;" horiz-adv-x="1015" 
d="M227 559q0 -125 30 -211t80 -139t115 -77q62 -23 134 -23q117 0 208 67q92 68 126 225h34q-28 -202 -131 -312q-102 -109 -288 -109q-85 0 -162 28q-79 29 -139 89t-96 155q-36 94 -36 221q0 128 44 236q43 105 118 180t170 115t199 40q127 0 210 -53t83 -147
q0 -22 -7 -43q-6 -19 -20 -43h-22q-56 106 -141 157q-83 50 -175 50q-136 0 -235 -110q-99 -109 -99 -296zM811 1516h41l-246 -369h-41l-246 369h41l226 -205z" />
    <glyph glyph-name="Dcaron" unicode="&#x10e;" horiz-adv-x="1445" 
d="M82 1307v24h479q193 0 337 -45q146 -46 238 -127q95 -84 140 -198q47 -118 47 -259q0 -150 -46 -278q-47 -130 -142 -222q-98 -95 -246 -148q-150 -54 -354 -54h-453v25q83 21 118 43q36 22 36 106v983q0 85 -36 107q-35 22 -118 43zM551 1270h-168v-1209h156
q164 0 284 47q121 47 194 128q75 82 109 197q35 117 35 251q0 124 -34 230q-35 110 -107 186q-72 77 -191 124q-116 46 -278 46zM416 1679l286 -112l287 112v-24l-266 -221h-41l-266 221v24z" />
    <glyph glyph-name="dcaron" unicode="&#x10f;" horiz-adv-x="1171" 
d="M1151 72l-317 -92v200q-68 -92 -152 -146t-195 -54q-97 0 -168 37q-68 36 -119 102q-50 65 -73 150q-25 91 -25 184q0 139 48 254q46 111 122 185q77 75 172 114q94 38 197 38q60 0 101 -7q47 -8 81 -19v289h-184v24l328 92v-1327h184v-24zM530 94q97 0 166 45
q70 46 127 119v639q-43 32 -97 55q-55 23 -122 23q-169 0 -268 -130q-98 -129 -98 -337q0 -181 73 -297q73 -117 219 -117zM1151 963h-41l61 368h164z" />
    <glyph glyph-name="Dcroat" unicode="&#x110;" horiz-adv-x="1445" 
d="M82 696h154v461q0 85 -36 107q-35 22 -118 43v24h479q193 0 337 -45q146 -46 238 -127q95 -84 140 -198q47 -118 47 -259q0 -150 -46 -278q-47 -130 -142 -222q-98 -95 -246 -148q-150 -54 -354 -54h-453v25q83 21 118 43q36 22 36 106v461h-154v61zM737 635h-354v-574
h156q164 0 284 47q121 47 194 128q75 82 109 197q35 117 35 251q0 124 -34 230q-35 110 -107 186q-72 77 -191 124q-116 46 -278 46h-168v-574h354v-61z" />
    <glyph glyph-name="dcroat" unicode="&#x111;" horiz-adv-x="1171" 
d="M1151 72l-317 -92v200q-68 -92 -152 -146t-195 -54q-97 0 -168 37q-68 36 -119 102q-50 65 -73 150q-25 91 -25 184q0 139 48 254q46 111 122 185q77 75 172 114q94 38 197 38q60 0 101 -7q47 -8 81 -19v125h-327v61h327v103h-184v24l328 92v-219h184v-61h-184v-1047h184
v-24zM530 94q97 0 166 45q70 46 127 119v639q-43 32 -97 55q-55 23 -122 23q-169 0 -268 -130q-98 -129 -98 -337q0 -181 73 -297q73 -117 219 -117z" />
    <glyph glyph-name="Emacron" unicode="&#x112;" horiz-adv-x="1212" 
d="M82 1307v24h975l53 -307h-29q-51 148 -129 197q-77 49 -200 49h-369v-553h254q88 0 127 52q38 51 59 142h29v-450h-29q-21 91 -59 142q-39 52 -127 52h-254v-594h389q122 0 201 50q78 50 129 196h28l-53 -307h-995v25q83 21 118 43q36 22 36 106v983q0 85 -36 107
q-35 22 -118 43zM872 1632v-131h-450v131h450z" />
    <glyph glyph-name="emacron" unicode="&#x113;" horiz-adv-x="1056" 
d="M946 696v-41h-710q-6 -30 -7 -47q-2 -32 -2 -49q0 -125 30 -211t80 -139t115 -77q62 -23 134 -23q117 0 208 67q92 68 126 225h34q-28 -202 -131 -312q-102 -109 -288 -109q-85 0 -162 28t-138 89t-97 155t-36 221q0 128 41 236q40 106 110 180q71 76 160 115
q90 40 187 40q86 0 149 -28q65 -28 108 -78q45 -52 67 -112q22 -62 22 -130zM561 975q-111 0 -196 -70q-84 -69 -117 -188h508q20 0 28 8q9 9 9 27q0 36 -14 78q-13 40 -42 72q-28 31 -72 52q-43 21 -104 21zM793 1397v-131h-451v131h451z" />
    <glyph glyph-name="Ebreve" unicode="&#x114;" horiz-adv-x="1212" 
d="M82 1307v24h975l53 -307h-29q-51 148 -129 197q-77 49 -200 49h-369v-553h254q88 0 127 52q38 51 59 142h29v-450h-29q-21 91 -59 142q-39 52 -127 52h-254v-594h389q122 0 201 50q78 50 129 196h28l-53 -307h-995v25q83 21 118 43q36 22 36 106v983q0 85 -36 107
q-35 22 -118 43zM647 1434q-109 0 -177 65q-69 66 -69 180h52q0 -68 59 -95q62 -28 135 -28t135 28q60 27 60 95h51q0 -114 -69 -180q-68 -65 -177 -65z" />
    <glyph glyph-name="ebreve" unicode="&#x115;" horiz-adv-x="1056" 
d="M946 696v-41h-710q-6 -30 -7 -47q-2 -32 -2 -49q0 -125 30 -211t80 -139t115 -77q62 -23 134 -23q117 0 208 67q92 68 126 225h34q-28 -202 -131 -312q-102 -109 -288 -109q-85 0 -162 28t-138 89t-97 155t-36 221q0 128 41 236q40 106 110 180q71 76 160 115
q90 40 187 40q86 0 149 -28q65 -28 108 -78q45 -52 67 -112q22 -62 22 -130zM561 975q-111 0 -196 -70q-84 -69 -117 -188h508q20 0 28 8q9 9 9 27q0 36 -14 78q-13 40 -42 72q-28 31 -72 52q-43 21 -104 21zM567 1188q-108 0 -177 77q-68 75 -68 210h51q0 -89 59 -126
q61 -38 135 -38t135 38q60 37 60 126h51q0 -133 -69 -210t-177 -77z" />
    <glyph glyph-name="Edotaccent" unicode="&#x116;" horiz-adv-x="1212" 
d="M82 1307v24h975l53 -307h-29q-51 148 -129 197q-77 49 -200 49h-369v-553h254q88 0 127 52q38 51 59 142h29v-450h-29q-21 91 -59 142q-39 52 -127 52h-254v-594h389q122 0 201 50q78 50 129 196h28l-53 -307h-995v25q83 21 118 43q36 22 36 106v983q0 85 -36 107
q-35 22 -118 43zM647 1673q51 0 84 -35t33 -82q0 -46 -33 -81t-84 -35t-84 35t-33 81q0 48 33 82q33 35 84 35z" />
    <glyph glyph-name="edotaccent" unicode="&#x117;" horiz-adv-x="1056" 
d="M946 696v-41h-710q-6 -30 -7 -47q-2 -32 -2 -49q0 -125 30 -211t80 -139t115 -77q62 -23 134 -23q117 0 208 67q92 68 126 225h34q-28 -202 -131 -312q-102 -109 -288 -109q-85 0 -162 28t-138 89t-97 155t-36 221q0 128 41 236q40 106 110 180q71 76 160 115
q90 40 187 40q86 0 149 -28q65 -28 108 -78q45 -52 67 -112q22 -62 22 -130zM561 975q-111 0 -196 -70q-84 -69 -117 -188h508q20 0 28 8q9 9 9 27q0 36 -14 78q-13 40 -42 72q-28 31 -72 52q-43 21 -104 21zM567 1448q51 0 84 -35t33 -82t-33 -82t-84 -35t-84 35
q-32 33 -32 82t32 82q33 35 84 35z" />
    <glyph glyph-name="Eogonek" unicode="&#x118;" horiz-adv-x="1212" 
d="M82 1307v24h975l53 -307h-29q-51 148 -129 197q-77 49 -200 49h-369v-553h254q88 0 127 52q38 51 59 142h29v-450h-29q-21 91 -59 142q-39 52 -127 52h-254v-594h389q122 0 201 50q78 50 129 196h28l-53 -307h-995v25q83 21 118 43q36 22 36 106v983q0 85 -36 107
q-35 22 -118 43zM748 -227q0 -60 34 -85q35 -26 80 -26q40 0 76 16q37 16 68 52l22 -19q-32 -53 -84 -98q-50 -43 -133 -43q-79 0 -129 41q-49 40 -49 113q0 44 18 83q17 38 47 72q27 31 62 63q33 30 61 58h62q-68 -68 -101 -121q-34 -55 -34 -106z" />
    <glyph glyph-name="eogonek" unicode="&#x119;" horiz-adv-x="1056" 
d="M586 109q117 0 208 67q92 68 126 225h34q-27 -149 -81 -242q-55 -94 -107 -157q-21 -25 -55 -67t-38 -47q-40 -49 -40 -115q0 -59 35 -85t80 -26q39 0 75 16q37 16 68 52l22 -19q-32 -53 -84 -98q-50 -43 -133 -43q-79 0 -129 41q-49 40 -49 113q0 42 21 82q22 43 53 78
q33 38 74 74q50 45 79 69q-45 -23 -96 -35q-53 -12 -114 -12q-85 0 -162 28t-138 89t-97 155t-36 221q0 128 41 236q40 106 110 180q71 76 160 115q90 40 187 40q86 0 149 -28q65 -28 108 -78q45 -52 67 -112q22 -62 22 -130v-41h-710q-6 -30 -7 -47q-2 -32 -2 -49
q0 -125 30 -211t80 -139t115 -77q62 -23 134 -23zM561 975q-111 0 -196 -70q-84 -69 -117 -188h508q20 0 28 8q9 9 9 27q0 36 -14 78q-13 40 -42 72q-28 31 -72 52q-43 21 -104 21z" />
    <glyph glyph-name="Ecaron" unicode="&#x11a;" horiz-adv-x="1212" 
d="M82 1307v24h975l53 -307h-29q-51 148 -129 197q-77 49 -200 49h-369v-553h254q88 0 127 52q38 51 59 142h29v-450h-29q-21 91 -59 142q-39 52 -127 52h-254v-594h389q122 0 201 50q78 50 129 196h28l-53 -307h-995v25q83 21 118 43q36 22 36 106v983q0 85 -36 107
q-35 22 -118 43zM360 1679l287 -112l287 112v-24l-266 -221h-41l-267 221v24z" />
    <glyph glyph-name="ecaron" unicode="&#x11b;" horiz-adv-x="1056" 
d="M946 696v-41h-710q-6 -30 -7 -47q-2 -32 -2 -49q0 -125 30 -211t80 -139t115 -77q62 -23 134 -23q117 0 208 67q92 68 126 225h34q-28 -202 -131 -312q-102 -109 -288 -109q-85 0 -162 28t-138 89t-97 155t-36 221q0 128 41 236q40 106 110 180q71 76 160 115
q90 40 187 40q86 0 149 -28q65 -28 108 -78q45 -52 67 -112q22 -62 22 -130zM561 975q-111 0 -196 -70q-84 -69 -117 -188h508q20 0 28 8q9 9 9 27q0 36 -14 78q-13 40 -42 72q-28 31 -72 52q-43 21 -104 21zM793 1516h41l-246 -369h-41l-246 369h41l225 -205z" />
    <glyph glyph-name="Gcircumflex" unicode="&#x11c;" horiz-adv-x="1531" 
d="M659 670v61h668v-731h-24l-113 195q-76 -104 -188 -160q-110 -55 -261 -55q-142 0 -256 48q-115 48 -194 135q-81 88 -124 209q-44 123 -44 267q0 165 58 297q57 131 155 224q98 94 223 142q129 50 262 50q153 0 257 -27t216 -90v-354h-24q-45 216 -174 304
q-130 89 -308 89q-108 0 -208 -38q-96 -36 -170 -109q-72 -71 -114 -175q-42 -105 -42 -237q0 -143 39 -256t108 -188q66 -72 169 -114q98 -40 216 -40q123 0 228 36q104 36 170 115v402h-525zM535 1434v24l266 221h41l266 -221v-24l-287 112z" />
    <glyph glyph-name="gcircumflex" unicode="&#x11d;" horiz-adv-x="960" 
d="M471 1044q36 0 78 -5q35 -4 69 -15h312v-61h-197q44 -38 69 -94q23 -52 23 -119q0 -142 -103 -232q-104 -90 -276 -90q-30 0 -59 3q-28 3 -55 9q-39 -31 -59 -60q-21 -30 -21 -56q0 -35 29 -50q27 -14 79 -14h263q139 0 211 -63q71 -62 71 -164q0 -69 -45 -135
q-44 -65 -120 -115t-177 -80q-105 -31 -215 -31q-136 0 -230 48q-95 48 -95 153q0 68 53 135q51 64 133 129q-41 15 -68 42q-26 26 -26 79q0 48 41 94q43 48 123 103q-95 34 -140 103q-47 71 -47 165q0 140 106 231q105 90 273 90zM451 985q-101 0 -159 -57
q-59 -57 -59 -166q0 -48 15 -98t42 -89t72 -63q47 -25 107 -25q101 0 158 57t57 167q0 50 -13 98q-13 49 -42 88q-29 40 -74 64t-104 24zM152 -68q0 -84 92 -122q90 -37 223 -37q149 0 240 60q92 60 92 144q0 64 -48 105q-49 41 -141 41h-262q-27 0 -41 1q-7 0 -20.5 1
t-20.5 2q-54 -49 -85 -99q-29 -48 -29 -96zM246 1147h-41l246 369h41l245 -369h-41l-225 205z" />
    <glyph glyph-name="Gbreve" unicode="&#x11e;" horiz-adv-x="1531" 
d="M659 670v61h668v-731h-24l-113 195q-76 -104 -188 -160q-110 -55 -261 -55q-142 0 -256 48q-115 48 -194 135q-81 88 -124 209q-44 123 -44 267q0 165 58 297q57 131 155 224q98 94 223 142q129 50 262 50q153 0 257 -27t216 -90v-354h-24q-45 216 -174 304
q-130 89 -308 89q-108 0 -208 -38q-96 -36 -170 -109q-72 -71 -114 -175q-42 -105 -42 -237q0 -143 39 -256t108 -188q66 -72 169 -114q98 -40 216 -40q123 0 228 36q104 36 170 115v402h-525zM821 1434q-109 0 -177 65q-69 66 -69 180h52q0 -68 59 -95q62 -28 135 -28
t135 28q60 27 60 95h51q0 -114 -69 -180q-68 -65 -177 -65z" />
    <glyph glyph-name="gbreve" unicode="&#x11f;" horiz-adv-x="960" 
d="M471 1044q36 0 78 -5q35 -4 69 -15h312v-61h-197q44 -38 69 -94q23 -52 23 -119q0 -142 -103 -232q-104 -90 -276 -90q-30 0 -59 3q-28 3 -55 9q-39 -31 -59 -60q-21 -30 -21 -56q0 -35 29 -50q27 -14 79 -14h263q139 0 211 -63q71 -62 71 -164q0 -69 -45 -135
q-44 -65 -120 -115t-177 -80q-105 -31 -215 -31q-136 0 -230 48q-95 48 -95 153q0 68 53 135q51 64 133 129q-41 15 -68 42q-26 26 -26 79q0 48 41 94q43 48 123 103q-95 34 -140 103q-47 71 -47 165q0 140 106 231q105 90 273 90zM451 985q-101 0 -159 -57
q-59 -57 -59 -166q0 -48 15 -98t42 -89t72 -63q47 -25 107 -25q101 0 158 57t57 167q0 50 -13 98q-13 49 -42 88q-29 40 -74 64t-104 24zM152 -68q0 -84 92 -122q90 -37 223 -37q149 0 240 60q92 60 92 144q0 64 -48 105q-49 41 -141 41h-262q-27 0 -41 1q-7 0 -20.5 1
t-20.5 2q-54 -49 -85 -99q-29 -48 -29 -96zM471 1188q-108 0 -177 77t-69 210h51q0 -89 60 -126q61 -38 135 -38t135 38q60 37 60 126h51q0 -133 -69 -210t-177 -77z" />
    <glyph glyph-name="Gdotaccent" unicode="&#x120;" horiz-adv-x="1531" 
d="M659 670v61h668v-731h-24l-113 195q-76 -104 -188 -160q-110 -55 -261 -55q-142 0 -256 48q-115 48 -194 135q-81 88 -124 209q-44 123 -44 267q0 165 58 297q57 131 155 224q98 94 223 142q129 50 262 50q153 0 257 -27t216 -90v-354h-24q-45 216 -174 304
q-130 89 -308 89q-108 0 -208 -38q-96 -36 -170 -109q-72 -71 -114 -175q-42 -105 -42 -237q0 -143 39 -256t108 -188q66 -72 169 -114q98 -40 216 -40q123 0 228 36q104 36 170 115v402h-525zM821 1673q51 0 84 -35t33 -82q0 -46 -33 -81t-84 -35t-84 35q-32 33 -32 81
q0 49 32 82q33 35 84 35z" />
    <glyph glyph-name="gdotaccent" unicode="&#x121;" horiz-adv-x="960" 
d="M471 1044q36 0 78 -5q35 -4 69 -15h312v-61h-197q44 -38 69 -94q23 -52 23 -119q0 -142 -103 -232q-104 -90 -276 -90q-30 0 -59 3q-28 3 -55 9q-39 -31 -59 -60q-21 -30 -21 -56q0 -35 29 -50q27 -14 79 -14h263q139 0 211 -63q71 -62 71 -164q0 -69 -45 -135
q-44 -65 -120 -115t-177 -80q-105 -31 -215 -31q-136 0 -230 48q-95 48 -95 153q0 68 53 135q51 64 133 129q-41 15 -68 42q-26 26 -26 79q0 48 41 94q43 48 123 103q-95 34 -140 103q-47 71 -47 165q0 140 106 231q105 90 273 90zM451 985q-101 0 -159 -57
q-59 -57 -59 -166q0 -48 15 -98t42 -89t72 -63q47 -25 107 -25q101 0 158 57t57 167q0 50 -13 98q-13 49 -42 88q-29 40 -74 64t-104 24zM152 -68q0 -84 92 -122q90 -37 223 -37q149 0 240 60q92 60 92 144q0 64 -48 105q-49 41 -141 41h-262q-27 0 -41 1q-7 0 -20.5 1
t-20.5 2q-54 -49 -85 -99q-29 -48 -29 -96zM467 1448q51 0 84 -35t33 -82t-33 -82t-84 -35t-84 35t-33 82t33 82t84 35z" />
    <glyph glyph-name="Gcommaaccent" unicode="&#x122;" horiz-adv-x="1531" 
d="M659 670v61h668v-731h-24l-113 195q-76 -104 -188 -160q-110 -55 -261 -55q-142 0 -256 48q-115 48 -194 135q-81 88 -124 209q-44 123 -44 267q0 165 58 297q57 131 155 224q98 94 223 142q129 50 262 50q153 0 257 -27t216 -90v-354h-24q-45 216 -174 304
q-130 89 -308 89q-108 0 -208 -38q-96 -36 -170 -109q-72 -71 -114 -175q-42 -105 -42 -237q0 -143 39 -256t108 -188q66 -72 169 -114q98 -40 216 -40q123 0 228 36q104 36 170 115v402h-525zM586 -410h-41l102 287h184z" />
    <glyph glyph-name="gcommaaccent" unicode="&#x123;" horiz-adv-x="960" 
d="M471 1044q36 0 78 -5q35 -4 69 -15h312v-61h-197q44 -38 69 -94q23 -52 23 -119q0 -142 -103 -232q-104 -90 -276 -90q-30 0 -59 3q-28 3 -55 9q-39 -31 -59 -60q-21 -30 -21 -56q0 -35 29 -50q27 -14 79 -14h263q139 0 211 -63q71 -62 71 -164q0 -69 -45 -135
q-44 -65 -120 -115t-177 -80q-105 -31 -215 -31q-136 0 -230 48q-95 48 -95 153q0 68 53 135q51 64 133 129q-41 15 -68 42q-26 26 -26 79q0 48 41 94q43 48 123 103q-95 34 -140 103q-47 71 -47 165q0 140 106 231q105 90 273 90zM451 985q-101 0 -159 -57
q-59 -57 -59 -166q0 -48 15 -98t42 -89t72 -63q47 -25 107 -25q101 0 158 57t57 167q0 50 -13 98q-13 49 -42 88q-29 40 -74 64t-104 24zM152 -68q0 -84 92 -122q90 -37 223 -37q149 0 240 60q92 60 92 144q0 64 -48 105q-49 41 -141 41h-262q-27 0 -41 1q-7 0 -20.5 1
t-20.5 2q-54 -49 -85 -99q-29 -48 -29 -96zM635 1516h41l-103 -369h-184z" />
    <glyph glyph-name="Hcircumflex" unicode="&#x124;" horiz-adv-x="1564" 
d="M82 1307v24h455v-24q-83 -21 -118 -43q-36 -22 -36 -107v-440h799v440q0 85 -36 107q-35 22 -118 43v24h455v-24q-83 -21 -118 -43q-36 -22 -36 -107v-983q0 -84 36 -106q35 -22 118 -43v-25h-455v25q83 21 118 43q36 22 36 106v481h-799v-481q0 -84 36 -106
q35 -22 118 -43v-25h-455v25q83 21 118 43q36 22 36 106v983q0 85 -36 107q-35 22 -118 43zM496 1434v24l266 221h41l266 -221v-24l-287 112z" />
    <glyph glyph-name="hcircumflex" unicode="&#x125;" horiz-adv-x="1177" 
d="M348 772v-598q0 -84 32 -108q32 -25 101 -41v-25h-409v25q69 16 101 41q32 24 32 108v1133h-185v24l328 92v-567q67 82 152 135t188 53q130 0 202 -88q73 -90 73 -241v-541q0 -84 31 -108q32 -24 102 -41v-25h-410v25q69 16 101 41q32 24 32 108v520q0 117 -49 175
q-50 59 -149 59q-85 0 -152 -41q-64 -39 -121 -115zM303 1434v24l266 221h41l267 -221v-24l-287 112z" />
    <glyph glyph-name="Hbar" unicode="&#x126;" horiz-adv-x="1564" 
d="M82 1024h154v133q0 85 -36 107q-35 22 -118 43v24h455v-24q-83 -21 -118 -43q-36 -22 -36 -107v-133h799v133q0 85 -36 107q-35 22 -118 43v24h455v-24q-83 -21 -118 -43q-36 -22 -36 -107v-133h154v-61h-154v-789q0 -84 36 -106q35 -22 118 -43v-25h-455v25
q83 21 118 43q36 22 36 106v481h-799v-481q0 -84 36 -106q35 -22 118 -43v-25h-455v25q83 21 118 43q36 22 36 106v789h-154v61zM383 717h799v246h-799v-246z" />
    <glyph glyph-name="hbar" unicode="&#x127;" horiz-adv-x="1167" 
d="M348 772v-598q0 -84 32 -108q32 -25 101 -41v-25h-409v25q69 16 101 41q32 24 32 108v969h-185v61h185v103h-185v24l328 92v-219h328v-61h-328v-287q67 82 152 135t188 53q130 0 202 -88q73 -90 73 -241v-541q0 -84 31 -108q32 -24 102 -41v-25h-410v25q69 16 101 41
q32 24 32 108v520q0 117 -49 175q-50 59 -149 59q-85 0 -152 -41q-64 -39 -121 -115z" />
    <glyph glyph-name="Itilde" unicode="&#x128;" horiz-adv-x="618" 
d="M82 1307v24h455v-24q-83 -21 -118 -43q-36 -22 -36 -107v-983q0 -84 36 -106q35 -22 118 -43v-25h-455v25q83 21 118 43q36 22 36 106v983q0 85 -36 107q-35 22 -118 43zM575 1669q-29 -110 -62 -161q-35 -54 -95 -54q-37 0 -70 15q-27 12 -62 35q-32 21 -59 35
q-29 15 -57 15q-31 0 -50 -22t-36 -68h-41q29 110 62 161q35 54 96 54q36 0 69 -15q30 -14 63 -35q36 -24 58 -35q28 -15 58 -15t50 23t36 67h40z" />
    <glyph glyph-name="itilde" unicode="&#x129;" horiz-adv-x="563" 
d="M358 1044v-870q0 -84 27 -109t86 -40v-25h-369v25q59 15 86 40t27 109v754h-184v24zM553 1434q-29 -107 -63 -161t-95 -54q-36 0 -69 15q-30 14 -63 35q-36 24 -58 35q-29 15 -58 15q-30 0 -50 -23t-36 -67h-41q29 107 63 161q35 54 95 54q35 0 70 -16q32 -15 62 -34
q32 -21 59 -35q30 -16 57 -16q30 0 50 23q19 22 36 68h41z" />
    <glyph glyph-name="Imacron" unicode="&#x12a;" horiz-adv-x="618" 
d="M82 1307v24h455v-24q-83 -21 -118 -43q-36 -22 -36 -107v-983q0 -84 36 -106q35 -22 118 -43v-25h-455v25q83 21 118 43q36 22 36 106v983q0 85 -36 107q-35 22 -118 43zM535 1632v-131h-451v131h451z" />
    <glyph glyph-name="imacron" unicode="&#x12b;" horiz-adv-x="563" 
d="M358 1044v-870q0 -84 27 -109t86 -40v-25h-369v25q59 15 86 40t27 109v754h-184v24zM512 1397v-131h-451v131h451z" />
    <glyph glyph-name="Ibreve" unicode="&#x12c;" horiz-adv-x="618" 
d="M82 1307v24h455v-24q-83 -21 -118 -43q-36 -22 -36 -107v-983q0 -84 36 -106q35 -22 118 -43v-25h-455v25q83 21 118 43q36 22 36 106v983q0 85 -36 107q-35 22 -118 43zM309 1434q-109 0 -177 65q-69 66 -69 180h52q0 -68 59 -95q62 -28 135 -28t135 28q60 27 60 95h51
q0 -114 -69 -180q-68 -65 -177 -65z" />
    <glyph glyph-name="ibreve" unicode="&#x12d;" horiz-adv-x="563" 
d="M358 1044v-870q0 -84 27 -109t86 -40v-25h-369v25q59 15 86 40t27 109v754h-184v24zM287 1188q-108 0 -177 77t-69 210h51q0 -89 60 -126q61 -38 135 -38t135 38q59 37 59 126h51q0 -135 -68 -210q-69 -77 -177 -77z" />
    <glyph glyph-name="Iogonek" unicode="&#x12e;" horiz-adv-x="618" 
d="M82 1307v24h455v-24q-83 -21 -118 -43q-36 -22 -36 -107v-983q0 -84 36 -106q35 -22 118 -43v-25h-455v25q83 21 118 43q36 22 36 106v983q0 85 -36 107q-35 22 -118 43zM225 -227q0 -59 35 -85t80 -26q40 0 76 16q35 16 67 52l23 -19q-32 -53 -84 -98q-50 -43 -133 -43
q-79 0 -129 41q-49 40 -49 113q0 44 18 83q17 38 47 72q27 31 62 63q33 30 61 58h61q-66 -66 -100 -121q-35 -56 -35 -106z" />
    <glyph glyph-name="iogonek" unicode="&#x12f;" horiz-adv-x="563" 
d="M295 1448q51 0 84 -35t33 -82t-33 -82t-84 -35t-84 35t-33 82t33 82t84 35zM358 1044v-870q0 -84 27 -109t86 -40v-25h-369v25q59 15 86 40t27 109v754h-184v24zM193 -227q0 -60 34 -85q35 -26 80 -26q40 0 76 16q37 16 68 52l22 -19q-32 -53 -84 -98q-50 -43 -133 -43
q-79 0 -129 41q-49 40 -49 113q0 44 18 83q17 38 47 72q27 31 62 63q33 30 61 58h62q-68 -68 -101 -121q-34 -55 -34 -106z" />
    <glyph glyph-name="Idotaccent" unicode="&#x130;" horiz-adv-x="618" 
d="M82 1307v24h455v-24q-83 -21 -118 -43q-36 -22 -36 -107v-983q0 -84 36 -106q35 -22 118 -43v-25h-455v25q83 21 118 43q36 22 36 106v983q0 85 -36 107q-35 22 -118 43zM309 1673q51 0 84 -35q33 -34 33 -82q0 -46 -33 -81t-84 -35t-84 35q-32 33 -32 81q0 49 32 82
q33 35 84 35z" />
    <glyph glyph-name="dotlessi" unicode="&#x131;" horiz-adv-x="563" 
d="M358 1044v-870q0 -84 27 -109t86 -40v-25h-369v25q59 15 86 40t27 109v754h-184v24z" />
    <glyph glyph-name="IJ" unicode="&#x132;" horiz-adv-x="1226" 
d="M82 1307v24h455v-24q-83 -21 -118 -43q-36 -22 -36 -107v-983q0 -84 36 -106q35 -22 118 -43v-25h-455v25q83 21 118 43q36 22 36 106v983q0 85 -36 107q-35 22 -118 43zM854 1157q0 85 -36 107q-35 22 -118 43v24h455v-24q-83 -21 -118 -43q-36 -22 -36 -107v-1157
q0 -76 -13 -122q-14 -49 -47 -82q-34 -34 -95 -62q-66 -31 -156 -62v29q101 45 132 106q32 62 32 181v1169z" />
    <glyph glyph-name="ij" unicode="&#x133;" horiz-adv-x="1116" 
d="M295 1448q51 0 84 -35t33 -82t-33 -82t-84 -35t-84 35t-33 82t33 82t84 35zM358 1044v-870q0 -84 27 -109t86 -40v-25h-369v25q59 15 86 40t27 109v754h-184v24zM858 1448q51 0 84 -35t33 -82t-33 -82t-84 -35t-84 35t-33 82t33 82t84 35zM778 -12v940h-184v24l328 92
v-1044q0 -70 -13 -122q-12 -49 -46 -83q-36 -36 -94 -62q-68 -31 -155 -61v29q101 45 132 106q32 62 32 181z" />
    <glyph glyph-name="Jcircumflex" unicode="&#x134;" horiz-adv-x="608" 
d="M236 1157q0 85 -36 107q-35 22 -118 43v24h455v-24q-83 -21 -118 -43q-36 -22 -36 -107v-1157q0 -76 -13 -122q-14 -49 -47 -82t-96 -62q-69 -32 -155 -62v29q101 45 132 106q32 62 32 181v1169zM23 1434v24l266 221h41l266 -221v-24l-287 112z" />
    <glyph glyph-name="jcircumflex" unicode="&#x135;" horiz-adv-x="552" 
d="M215 -12v940h-184v24l327 92v-1044q0 -74 -12 -122q-12 -49 -46 -83q-36 -36 -94 -62q-68 -31 -155 -61v29q101 45 132 106q32 62 32 181zM61 1147h-41l246 369h41l246 -369h-41l-225 205z" />
    <glyph glyph-name="Kcommaaccent" unicode="&#x136;" horiz-adv-x="1290" 
d="M82 25q83 21 118 43q36 22 36 106v983q0 85 -36 107q-35 22 -118 43v24h496v-24q-102 -18 -148 -42q-47 -24 -47 -108v-610l428 522q86 105 74 163t-123 75v24h436v-24q-75 -15 -138 -61q-64 -47 -145 -146l-239 -293l393 -602q51 -78 101 -122q48 -42 120 -58v-25h-264
l-446 690l-197 -239v-277q0 -83 47 -107q46 -24 148 -42v-25h-496v25zM539 -410h-41l102 287h184z" />
    <glyph glyph-name="kcommaaccent" unicode="&#x137;" horiz-adv-x="1089" 
d="M348 1423v-972l305 350q61 69 54 126q-7 55 -86 72v25h378v-25q-75 -30 -131 -72q-57 -42 -139 -136l-141 -158l280 -449q50 -79 102 -117q48 -35 99 -42v-25h-258l-317 526l-146 -166v-186q0 -84 32 -108q32 -25 101 -41v-25h-409v25q69 16 101 41q32 24 32 108v1133
h-185v24zM397 -410h-41l103 287h184z" />
    <glyph glyph-name="kgreenlandic" unicode="&#x138;" horiz-adv-x="1089" 
d="M358 1044v-593l306 350q61 68 53 126q-7 55 -86 72v25h379v-25q-75 -30 -131 -72q-60 -44 -140 -136l-141 -158l281 -449q50 -81 101 -117q48 -35 99 -42v-25h-258l-317 526l-146 -166v-186q0 -84 27 -109t86 -40v-25h-369v25q59 15 86 40t27 109v754h-184v24z" />
    <glyph glyph-name="Lacute" unicode="&#x139;" horiz-adv-x="1089" 
d="M82 25q83 21 118 43q36 22 36 106v983q0 85 -36 107q-35 22 -118 43v24h496v-24q-102 -18 -148 -42q-47 -24 -47 -108v-1096h287q121 0 200 50q78 50 129 196h29l-53 -307h-893v25zM84 1458l451 221v-163l-451 -82v24z" />
    <glyph glyph-name="lacute" unicode="&#x13a;" horiz-adv-x="563" 
d="M348 1423v-1249q0 -84 32 -108q32 -25 101 -41v-25h-409v25q69 16 101 41q32 24 32 108v1133h-185v24zM61 1458l451 221v-163l-451 -82v24z" />
    <glyph glyph-name="Lcommaaccent" unicode="&#x13b;" horiz-adv-x="1089" 
d="M82 25q83 21 118 43q36 22 36 106v983q0 85 -36 107q-35 22 -118 43v24h496v-24q-102 -18 -148 -42q-47 -24 -47 -108v-1096h287q121 0 200 50q78 50 129 196h29l-53 -307h-893v25zM436 -410h-41l103 287h184z" />
    <glyph glyph-name="lcommaaccent" unicode="&#x13c;" horiz-adv-x="552" 
d="M348 1423v-1249q0 -84 32 -108q32 -25 101 -41v-25h-409v25q69 16 101 41q32 24 32 108v1133h-185v24zM131 -410h-41l103 287h184z" />
    <glyph glyph-name="Lcaron" unicode="&#x13d;" horiz-adv-x="1089" 
d="M82 25q83 21 118 43q36 22 36 106v983q0 85 -36 107q-35 22 -118 43v24h496v-24q-102 -18 -148 -42q-47 -24 -47 -108v-1096h287q121 0 200 50q78 50 129 196h29l-53 -307h-893v25zM762 963h-41l61 368h164z" />
    <glyph glyph-name="lcaron" unicode="&#x13e;" horiz-adv-x="552" 
d="M348 1423v-1249q0 -84 32 -108q32 -25 101 -41v-25h-409v25q69 16 101 41q32 24 32 108v1133h-185v24zM532 963h-40l61 368h164z" />
    <glyph glyph-name="Ldot" unicode="&#x13f;" horiz-adv-x="1089" 
d="M82 25q83 21 118 43q36 22 36 106v983q0 85 -36 107q-35 22 -118 43v24h496v-24q-102 -18 -148 -42q-47 -24 -47 -108v-1096h287q121 0 200 50q78 50 129 196h29l-53 -307h-893v25zM854 813q51 0 84 -35q33 -34 33 -82t-33 -82t-84 -34t-84 34t-33 82t33 82q33 35 84 35z
" />
    <glyph glyph-name="ldot" unicode="&#x140;" horiz-adv-x="724" 
d="M348 1423v-1249q0 -84 32 -108q32 -25 101 -41v-25h-409v25q69 16 101 41q32 24 32 108v1133h-185v24zM639 782q51 0 84 -34t33 -82t-33 -82q-33 -35 -84 -35t-84 35t-33 82q0 48 33 82t84 34z" />
    <glyph glyph-name="Lslash" unicode="&#x141;" horiz-adv-x="1089" 
d="M82 25q83 21 118 43q36 22 36 106v418l-154 -119v76l154 119v489q0 85 -36 107q-35 22 -118 43v24h496v-24q-102 -18 -148 -42q-47 -24 -47 -108v-389l354 276v-75l-354 -277v-631h287q121 0 200 50q78 50 129 196h29l-53 -307h-893v25z" />
    <glyph glyph-name="lslash" unicode="&#x142;" horiz-adv-x="552" 
d="M41 590l164 127v590h-185v24l328 92v-610l156 121v-76l-156 -121v-563q0 -84 32 -108q32 -25 101 -41v-25h-409v25q69 16 101 41q32 24 32 108v467l-164 -127v76z" />
    <glyph glyph-name="Nacute" unicode="&#x143;" horiz-adv-x="1472" 
d="M1247 -20h-35l-907 1118v-883q0 -56 11 -85q12 -32 34 -51q21 -18 61 -31q24 -8 89 -23v-25h-459v25q65 15 89 23q38 12 60 31t34 51t12 85v967q-59 62 -110 90q-50 27 -106 35v24h285l873 -1069v854q0 54 -12 85q-13 33 -33 51q-21 18 -61 31q-36 12 -89 24v24h459v-24
q-53 -12 -89 -24q-40 -13 -61 -31q-22 -19 -34 -51q-11 -29 -11 -85v-1136zM512 1458l451 221v-163l-451 -82v24z" />
    <glyph glyph-name="nacute" unicode="&#x144;" horiz-adv-x="1177" 
d="M358 772v-598q0 -84 32 -108t102 -41v-25h-410v25q69 16 101 41q32 24 32 108v754h-184v24l317 92v-200q68 86 155 143t195 57q130 0 202 -88q73 -90 73 -241v-541q0 -84 32 -108q32 -25 101 -41v-25h-410v25q70 17 102 41q31 24 31 108v520q0 117 -49 175
q-50 59 -149 59q-85 0 -152 -41q-64 -39 -121 -115zM569 1147h-41l144 369h174z" />
    <glyph glyph-name="Ncommaaccent" unicode="&#x145;" horiz-adv-x="1472" 
d="M1247 -20h-35l-907 1118v-883q0 -56 11 -85q12 -32 34 -51q21 -18 61 -31q24 -8 89 -23v-25h-459v25q65 15 89 23q38 12 60 31t34 51t12 85v967q-59 62 -110 90q-50 27 -106 35v24h285l873 -1069v854q0 54 -12 85q-13 33 -33 51q-21 18 -61 31q-36 12 -89 24v24h459v-24
q-53 -12 -89 -24q-40 -13 -61 -31q-22 -19 -34 -51q-11 -29 -11 -85v-1136zM580 -410h-41l102 287h184z" />
    <glyph glyph-name="ncommaaccent" unicode="&#x146;" horiz-adv-x="1177" 
d="M358 772v-598q0 -84 32 -108t102 -41v-25h-410v25q69 16 101 41q32 24 32 108v754h-184v24l317 92v-200q68 86 155 143t195 57q130 0 202 -88q73 -90 73 -241v-541q0 -84 32 -108q32 -25 101 -41v-25h-410v25q70 17 102 41q31 24 31 108v520q0 117 -49 175
q-50 59 -149 59q-85 0 -152 -41q-64 -39 -121 -115zM438 -410h-41l103 287h184z" />
    <glyph glyph-name="Ncaron" unicode="&#x147;" horiz-adv-x="1472" 
d="M1247 -20h-35l-907 1118v-883q0 -56 11 -85q12 -32 34 -51q21 -18 61 -31q24 -8 89 -23v-25h-459v25q65 15 89 23q38 12 60 31t34 51t12 85v967q-59 62 -110 90q-50 27 -106 35v24h285l873 -1069v854q0 54 -12 85q-13 33 -33 51q-21 18 -61 31q-36 12 -89 24v24h459v-24
q-53 -12 -89 -24q-40 -13 -61 -31q-22 -19 -34 -51q-11 -29 -11 -85v-1136zM451 1679l286 -112l287 112v-24l-266 -221h-41l-266 221v24z" />
    <glyph glyph-name="ncaron" unicode="&#x148;" horiz-adv-x="1177" 
d="M358 772v-598q0 -84 32 -108t102 -41v-25h-410v25q69 16 101 41q32 24 32 108v754h-184v24l317 92v-200q68 86 155 143t195 57q130 0 202 -88q73 -90 73 -241v-541q0 -84 32 -108q32 -25 101 -41v-25h-410v25q70 17 102 41q31 24 31 108v520q0 117 -49 175
q-50 59 -149 59q-85 0 -152 -41q-64 -39 -121 -115zM815 1516h41l-246 -369h-41l-245 369h41l225 -205z" />
    <glyph glyph-name="Eng" unicode="&#x14a;" horiz-adv-x="1472" 
d="M20 1307v24h285l873 -1069v854q0 54 -12 85q-13 33 -33 51q-21 18 -61 31q-36 12 -89 24v24h459v-24q-53 -12 -89 -24q-40 -13 -61 -31q-22 -19 -34 -51q-11 -29 -11 -85v-1116q0 -76 -13 -122q-14 -49 -47 -82q-33 -34 -95 -62q-66 -31 -156 -62v29q101 45 132 106
q32 62 32 181v131l-795 979v-883q0 -56 11 -85q12 -32 34 -51q21 -18 61 -31q24 -8 89 -23v-25h-459v25q65 15 89 23q38 12 60 31t34 51t12 85v967q-59 62 -110 90q-50 27 -106 35z" />
    <glyph glyph-name="eng" unicode="&#x14b;" horiz-adv-x="1167" 
d="M829 694q0 117 -49 175q-50 59 -149 59q-85 0 -152 -41q-64 -39 -121 -115v-598q0 -84 32 -108t102 -41v-25h-410v25q69 16 101 41q32 24 32 108v754h-184v24l317 92v-200q68 86 155 143t195 57q130 0 202 -88q73 -90 73 -241v-715q0 -74 -12 -122t-47 -83
q-36 -36 -94 -62q-72 -32 -154 -61v29q101 45 132 106t31 181v706z" />
    <glyph glyph-name="Omacron" unicode="&#x14c;" horiz-adv-x="1556" 
d="M778 1352q142 0 262 -49q119 -48 208 -139q85 -87 136 -214q50 -126 50 -274q0 -153 -50 -282q-51 -130 -136 -220q-88 -93 -208 -143q-122 -51 -262 -51q-142 0 -262 49q-121 49 -208 138q-85 87 -136 214q-49 123 -49 274q0 156 49 282q51 130 136 220q88 93 208 143
q124 52 262 52zM758 1286q-104 0 -189 -43t-148 -120q-61 -74 -98 -183q-36 -106 -36 -233q0 -152 39 -275q40 -125 106 -209q68 -85 162 -132q93 -46 205 -46q103 0 188 43q86 44 149 120q61 74 98 183q36 107 36 234q0 151 -39 274t-107 209t-161 132t-205 46zM1004 1632
v-131h-451v131h451z" />
    <glyph glyph-name="omacron" unicode="&#x14d;" horiz-adv-x="1157" 
d="M575 1044q99 0 185 -29q88 -30 152 -94q66 -66 104 -166q39 -102 39 -245q0 -124 -38 -224q-37 -98 -103 -167q-65 -68 -150 -104q-83 -35 -182 -35t-185 29q-88 30 -152 94q-66 66 -104 166q-39 102 -39 245q0 124 38 224q37 98 103 167q65 68 150 104q83 35 182 35z
M600 41q134 0 223 109q88 107 88 309q0 244 -100 384t-254 140q-134 0 -223 -109q-88 -107 -88 -309q0 -243 99 -384q98 -140 255 -140zM803 1397v-131h-451v131h451z" />
    <glyph glyph-name="Obreve" unicode="&#x14e;" horiz-adv-x="1556" 
d="M778 1352q142 0 262 -49q119 -48 208 -139q85 -87 136 -214q50 -126 50 -274q0 -153 -50 -282q-51 -130 -136 -220q-88 -93 -208 -143q-122 -51 -262 -51q-142 0 -262 49q-121 49 -208 138q-85 87 -136 214q-49 123 -49 274q0 156 49 282q51 130 136 220q88 93 208 143
q124 52 262 52zM758 1286q-104 0 -189 -43t-148 -120q-61 -74 -98 -183q-36 -106 -36 -233q0 -152 39 -275q40 -125 106 -209q68 -85 162 -132q93 -46 205 -46q103 0 188 43q86 44 149 120q61 74 98 183q36 107 36 234q0 151 -39 274t-107 209t-161 132t-205 46zM778 1434
q-109 0 -177 65q-69 66 -69 180h52q0 -68 59 -95q62 -28 135 -28t135 28q60 27 60 95h51q0 -114 -69 -180q-68 -65 -177 -65z" />
    <glyph glyph-name="obreve" unicode="&#x14f;" horiz-adv-x="1157" 
d="M575 1044q99 0 185 -29q88 -30 152 -94q66 -66 104 -166q39 -102 39 -245q0 -124 -38 -224q-37 -98 -103 -167q-65 -68 -150 -104q-83 -35 -182 -35t-185 29q-88 30 -152 94q-66 66 -104 166q-39 102 -39 245q0 124 38 224q37 98 103 167q65 68 150 104q83 35 182 35z
M600 41q134 0 223 109q88 107 88 309q0 244 -100 384t-254 140q-134 0 -223 -109q-88 -107 -88 -309q0 -243 99 -384q98 -140 255 -140zM578 1188q-109 0 -178 77q-68 75 -68 210h51q0 -89 59 -126q61 -38 136 -38q74 0 135 38q59 37 59 126h51q0 -135 -68 -210
q-69 -77 -177 -77z" />
    <glyph glyph-name="Ohungarumlaut" unicode="&#x150;" horiz-adv-x="1556" 
d="M778 1352q142 0 262 -49q119 -48 208 -139q85 -87 136 -214q50 -126 50 -274q0 -153 -50 -282q-51 -130 -136 -220q-88 -93 -208 -143q-122 -51 -262 -51q-142 0 -262 49q-121 49 -208 138q-85 87 -136 214q-49 123 -49 274q0 156 49 282q51 130 136 220q88 93 208 143
q124 52 262 52zM758 1286q-104 0 -189 -43t-148 -120q-61 -74 -98 -183q-36 -106 -36 -233q0 -152 39 -275q40 -125 106 -209q68 -85 162 -132q93 -46 205 -46q103 0 188 43q86 44 149 120q61 74 98 183q36 107 36 234q0 151 -39 274t-107 209t-161 132t-205 46zM635 1434
h-41l102 245h205zM958 1434h-40l102 245h205z" />
    <glyph glyph-name="ohungarumlaut" unicode="&#x151;" horiz-adv-x="1157" 
d="M575 1044q99 0 185 -29q88 -30 152 -94q66 -66 104 -166q39 -102 39 -245q0 -124 -38 -224q-37 -98 -103 -167q-65 -68 -150 -104q-83 -35 -182 -35t-185 29q-88 30 -152 94q-66 66 -104 166q-39 102 -39 245q0 124 38 224q37 98 103 167q65 68 150 104q83 35 182 35z
M600 41q134 0 223 109q88 107 88 309q0 244 -100 384t-254 140q-134 0 -223 -109q-88 -107 -88 -309q0 -243 99 -384q98 -140 255 -140zM414 1147h-41l61 369h164zM778 1147h-41l62 369h164z" />
    <glyph glyph-name="OE" unicode="&#x152;" horiz-adv-x="2039" 
d="M1464 655h-254v-594h389q122 0 201 50q78 50 129 196h29l-53 -307h-1010q-193 0 -338 45q-147 46 -242 127q-96 83 -144 199q-48 117 -48 258q0 149 48 278q48 130 145 222q99 95 249 148q151 54 357 54h962l53 -307h-28q-51 148 -129 197q-77 49 -201 49h-369v-553h254
q88 0 127 52q39 53 60 142h28v-450h-28q-21 89 -60 142q-39 52 -127 52zM905 61h158v1209h-146q-166 0 -285 -46q-122 -47 -197 -128t-113 -198q-37 -114 -37 -251q0 -122 36 -230q37 -110 110 -186q72 -75 194 -123q120 -47 280 -47z" />
    <glyph glyph-name="oe" unicode="&#x153;" horiz-adv-x="1884" 
d="M575 1044q141 0 255 -62q116 -63 176 -198q68 123 181 192q112 68 240 68q86 0 149 -28q64 -28 108 -78q45 -52 67 -112q23 -64 23 -130v-41h-711q-4 -22 -6 -47q-2 -32 -2 -49q0 -128 29 -211q30 -86 80 -139t115 -77q62 -23 134 -23q117 0 208 67q91 68 126 225h35
q-28 -202 -131 -312q-102 -109 -289 -109q-117 0 -219 57q-103 58 -160 176q-63 -110 -171 -172q-107 -61 -230 -61q-99 0 -185 29q-88 30 -152 94q-66 66 -104 166q-39 102 -39 245q0 124 38 224q37 98 103 167q65 68 150 104q83 35 182 35zM600 41q134 0 223 109
q88 107 88 309q0 244 -100 384t-254 140q-134 0 -223 -109q-88 -107 -88 -309q0 -243 99 -384q98 -140 255 -140zM1389 975q-112 0 -197 -70q-84 -69 -117 -188h508q21 0 29 8t8 27q0 39 -13 78q-13 40 -42 72q-27 30 -73 52q-44 21 -103 21z" />
    <glyph glyph-name="Racute" unicode="&#x154;" horiz-adv-x="1263" 
d="M82 1307v24h586q217 0 341 -85t124 -242q0 -159 -116 -254q-117 -96 -319 -103q17 -10 36 -29q14 -14 38 -45l291 -389q60 -82 104 -116q46 -36 97 -43v-25h-246l-393 559q-33 50 -70 63q-36 13 -88 13h-84v-461q0 -83 47 -107q46 -24 148 -42v-25h-496v25q83 21 118 43
q36 22 36 106v983q0 85 -36 107q-35 22 -118 43zM662 1270h-279v-574h270q166 0 248 85t82 214q0 125 -81 200t-240 75zM408 1458l450 221v-163l-450 -82v24z" />
    <glyph glyph-name="racute" unicode="&#x155;" horiz-adv-x="782" 
d="M348 1044v-237q57 127 135 187q79 61 195 61h43v-127h-74q-99 0 -172 -46q-74 -47 -117 -151v-557q0 -84 36 -109q35 -25 138 -40v-25h-450v25q69 16 101 41q32 24 32 108v754h-184v24zM406 1147h-41l143 369h174z" />
    <glyph glyph-name="Rcommaaccent" unicode="&#x156;" horiz-adv-x="1263" 
d="M82 1307v24h586q217 0 341 -85t124 -242q0 -159 -116 -254q-117 -96 -319 -103q17 -10 36 -29q14 -14 38 -45l291 -389q60 -82 104 -116q46 -36 97 -43v-25h-246l-393 559q-33 50 -70 63q-36 13 -88 13h-84v-461q0 -83 47 -107q46 -24 148 -42v-25h-496v25q83 21 118 43
q36 22 36 106v983q0 85 -36 107q-35 22 -118 43zM662 1270h-279v-574h270q166 0 248 85t82 214q0 125 -81 200t-240 75zM557 -410h-41l102 287h185z" />
    <glyph glyph-name="rcommaaccent" unicode="&#x157;" horiz-adv-x="782" 
d="M348 1044v-237q57 127 135 187q79 61 195 61h43v-127h-74q-99 0 -172 -46q-74 -47 -117 -151v-557q0 -84 36 -109q35 -25 138 -40v-25h-450v25q69 16 101 41q32 24 32 108v754h-184v24zM131 -410h-41l103 287h184z" />
    <glyph glyph-name="Rcaron" unicode="&#x158;" horiz-adv-x="1263" 
d="M82 1307v24h586q217 0 341 -85t124 -242q0 -159 -116 -254q-117 -96 -319 -103q17 -10 36 -29q14 -14 38 -45l291 -389q60 -82 104 -116q46 -36 97 -43v-25h-246l-393 559q-33 50 -70 63q-36 13 -88 13h-84v-461q0 -83 47 -107q46 -24 148 -42v-25h-496v25q83 21 118 43
q36 22 36 106v983q0 85 -36 107q-35 22 -118 43zM662 1270h-279v-574h270q166 0 248 85t82 214q0 125 -81 200t-240 75zM346 1679l287 -112l287 112v-24l-267 -221h-41l-266 221v24z" />
    <glyph glyph-name="rcaron" unicode="&#x159;" horiz-adv-x="782" 
d="M348 1044v-237q57 127 135 187q79 61 195 61h43v-127h-74q-99 0 -172 -46q-74 -47 -117 -151v-557q0 -84 36 -109q35 -25 138 -40v-25h-450v25q69 16 101 41q32 24 32 108v754h-184v24zM651 1516h41l-246 -369h-40l-246 369h41l225 -205z" />
    <glyph glyph-name="Sacute" unicode="&#x15a;" horiz-adv-x="1034" 
d="M543 43q119 0 186 72q68 73 68 180q0 133 -106 206q-109 75 -230 136q-127 64 -231 143q-105 79 -105 226q0 78 32 144q31 64 86 108q57 46 129 69q78 25 163 25q108 0 190 -28q77 -26 143 -67v-284h-24q-27 153 -125 235t-225 82q-110 0 -183 -61t-73 -162
q0 -122 105 -191q111 -73 231 -133q127 -63 232 -146t105 -232q0 -173 -113 -279t-313 -106q-116 0 -204 26q-91 27 -158 68v336h24q12 -100 53 -170q43 -73 95 -114q58 -45 120 -64q63 -19 128 -19zM309 1458l451 221v-163l-451 -82v24z" />
    <glyph glyph-name="sacute" unicode="&#x15b;" horiz-adv-x="860" 
d="M457 41q94 0 145 51t51 133q0 101 -85 155q-87 55 -186 100q-98 45 -186 108q-85 61 -85 178q0 138 94 208t231 70q97 0 167 -22q75 -23 128 -55v-277h-24q-27 144 -112 220q-86 77 -196 77q-75 0 -128 -39q-52 -39 -52 -121q0 -89 84 -139q87 -52 185 -96
q97 -44 186 -114q84 -66 84 -191q0 -143 -94 -225t-261 -82q-89 0 -163 21q-75 22 -127 54v318h24q12 -91 45 -154q33 -62 77 -102q45 -41 96 -58q53 -18 102 -18zM412 1147h-41l143 369h174z" />
    <glyph glyph-name="Scircumflex" unicode="&#x15c;" horiz-adv-x="1034" 
d="M543 43q119 0 186 72q68 73 68 180q0 133 -106 206q-109 75 -230 136q-127 64 -231 143q-105 79 -105 226q0 78 32 144q31 64 86 108q57 46 129 69q78 25 163 25q108 0 190 -28q77 -26 143 -67v-284h-24q-27 153 -125 235t-225 82q-110 0 -183 -61t-73 -162
q0 -122 105 -191q111 -73 231 -133q127 -63 232 -146t105 -232q0 -173 -113 -279t-313 -106q-116 0 -204 26q-91 27 -158 68v336h24q12 -100 53 -170q43 -73 95 -114q58 -45 120 -64q63 -19 128 -19zM248 1434v24l266 221h41l266 -221v-24l-286 112z" />
    <glyph glyph-name="scircumflex" unicode="&#x15d;" horiz-adv-x="860" 
d="M457 41q94 0 145 51t51 133q0 101 -85 155q-87 55 -186 100q-98 45 -186 108q-85 61 -85 178q0 138 94 208t231 70q97 0 167 -22q75 -23 128 -55v-277h-24q-27 144 -112 220q-86 77 -196 77q-75 0 -128 -39q-52 -39 -52 -121q0 -89 84 -139q87 -52 185 -96
q97 -44 186 -114q84 -66 84 -191q0 -143 -94 -225t-261 -82q-89 0 -163 21q-75 22 -127 54v318h24q12 -91 45 -154q33 -62 77 -102q45 -41 96 -58q53 -18 102 -18zM207 1147h-41l246 369h41l245 -369h-41l-225 205z" />
    <glyph glyph-name="Scedilla" unicode="&#x15e;" horiz-adv-x="1034" 
d="M543 43q119 0 186 72q68 73 68 180q0 133 -106 206q-109 75 -230 136q-127 64 -231 143q-105 79 -105 226q0 78 32 144q31 64 86 108q57 46 129 69q78 25 163 25q108 0 190 -28q77 -26 143 -67v-284h-24q-27 153 -125 235t-225 82q-110 0 -183 -61t-73 -162
q0 -122 105 -191q111 -73 231 -133q127 -63 232 -146t105 -232q0 -157 -93 -259q-92 -101 -259 -122q-24 -21 -45 -43q-16 -17 -16 -33t23 -33q9 -6 25.5 -20t24.5 -20q25 -20 51 -47q23 -24 23 -52q0 -59 -59 -112q-60 -54 -162 -54q-52 0 -93 21q-40 21 -40 61q0 13 5 33
q4 16 17 32h23q29 -52 62 -75q36 -25 73 -25q34 0 52 17q20 18 20 44q0 24 -25 49q-16 16 -52 46t-52 45q-25 23 -25 43q0 26 30 52q3 3 77 67h-11q-116 0 -204 26q-91 27 -158 68v336h24q12 -100 53 -170q43 -73 95 -114q58 -45 120 -64q63 -19 128 -19z" />
    <glyph glyph-name="scedilla" unicode="&#x15f;" horiz-adv-x="860" 
d="M457 41q94 0 145 51t51 133q0 101 -85 155q-87 55 -186 100q-98 45 -186 108q-85 61 -85 178q0 138 94 208t231 70q97 0 167 -22q75 -23 128 -55v-277h-24q-27 144 -112 220q-86 77 -196 77q-75 0 -128 -39q-52 -39 -52 -121q0 -89 84 -139q87 -52 185 -96
q97 -44 186 -114q84 -66 84 -191q0 -127 -75 -207t-210 -96q-24 -21 -45 -43q-16 -17 -16 -33t23 -33q9 -6 25.5 -20t24.5 -20q25 -20 51 -47q23 -24 23 -52q0 -59 -59 -112q-60 -54 -162 -54q-52 0 -93 21q-40 21 -40 61q0 13 5 33q4 16 17 32h23q29 -52 62 -75
q36 -25 73 -25q34 0 52 17q20 18 20 44q0 24 -25 49q-16 16 -52 46t-52 45q-25 23 -25 43q0 26 30 52q3 3 77 67h-7q-89 0 -163 21q-75 22 -127 54v318h24q12 -91 45 -154q33 -62 77 -102q45 -41 96 -58q53 -18 102 -18z" />
    <glyph glyph-name="Scaron" unicode="&#x160;" horiz-adv-x="1034" 
d="M543 43q119 0 186 72q68 73 68 180q0 133 -106 206q-109 75 -230 136q-127 64 -231 143q-105 79 -105 226q0 78 32 144q31 64 86 108q57 46 129 69q78 25 163 25q108 0 190 -28q77 -26 143 -67v-284h-24q-27 153 -125 235t-225 82q-110 0 -183 -61t-73 -162
q0 -122 105 -191q111 -73 231 -133q127 -63 232 -146t105 -232q0 -173 -113 -279t-313 -106q-116 0 -204 26q-91 27 -158 68v336h24q12 -100 53 -170q43 -73 95 -114q58 -45 120 -64q63 -19 128 -19zM248 1679l287 -112l286 112v-24l-266 -221h-41l-266 221v24z" />
    <glyph glyph-name="scaron" unicode="&#x161;" horiz-adv-x="860" 
d="M457 41q94 0 145 51t51 133q0 101 -85 155q-87 55 -186 100q-98 45 -186 108q-85 61 -85 178q0 138 94 208t231 70q97 0 167 -22q75 -23 128 -55v-277h-24q-27 144 -112 220q-86 77 -196 77q-75 0 -128 -39q-52 -39 -52 -121q0 -89 84 -139q87 -52 185 -96
q97 -44 186 -114q84 -66 84 -191q0 -143 -94 -225t-261 -82q-89 0 -163 21q-75 22 -127 54v318h24q12 -91 45 -154q33 -62 77 -102q45 -41 96 -58q53 -18 102 -18zM657 1516h41l-245 -369h-41l-246 369h41l225 -205z" />
    <glyph glyph-name="Tcommaaccent" unicode="&#x162;" horiz-adv-x="1335" 
d="M936 0h-537v25q102 18 148 42q47 24 47 107v1096h-174q-124 0 -201 -49q-78 -49 -129 -197h-29l54 307h1106l53 -307h-29q-51 148 -129 197q-77 49 -201 49h-174v-1096q0 -83 47 -107q46 -24 148 -42v-25zM504 -410h-41l102 287h185z" />
    <glyph glyph-name="tcommaaccent" unicode="&#x163;" horiz-adv-x="704" 
d="M195 293v635h-144v24l262 260h25v-188h305v-96h-305v-625q0 -103 39 -160t119 -57q68 0 112 37q47 39 70 113l27 -9q-27 -121 -93 -184t-174 -63q-121 0 -182 76t-61 237zM295 -410h-41l102 287h185z" />
    <glyph glyph-name="Tcaron" unicode="&#x164;" horiz-adv-x="1335" 
d="M936 0h-537v25q102 18 148 42q47 24 47 107v1096h-174q-124 0 -201 -49q-78 -49 -129 -197h-29l54 307h1106l53 -307h-29q-51 148 -129 197q-77 49 -201 49h-174v-1096q0 -83 47 -107q46 -24 148 -42v-25zM381 1679l287 -112l286 112v-24l-266 -221h-41l-266 221v24z" />
    <glyph glyph-name="tcaron" unicode="&#x165;" horiz-adv-x="704" 
d="M195 293v635h-144v24l262 260h25v-188h305v-96h-305v-625q0 -103 39 -160t119 -57q68 0 112 37q47 39 70 113l27 -9q-27 -121 -93 -184t-174 -63q-121 0 -182 76t-61 237zM532 1147h-40l61 369h164z" />
    <glyph glyph-name="Tbar" unicode="&#x166;" horiz-adv-x="1335" 
d="M340 696h254v574h-174q-124 0 -201 -49q-78 -49 -129 -197h-29l54 307h1106l53 -307h-29q-51 148 -129 197q-77 49 -201 49h-174v-574h254v-61h-254v-461q0 -83 47 -107q46 -24 148 -42v-25h-537v25q102 18 148 42q47 24 47 107v461h-254v61z" />
    <glyph glyph-name="tbar" unicode="&#x167;" horiz-adv-x="704" 
d="M195 293v311h-144v62h144v262h-144v24l262 260h25v-188h305v-96h-305v-262h225v-62h-225v-301q0 -103 39 -160t119 -57q70 0 113 37q46 40 69 113l27 -9q-27 -121 -93 -184t-174 -63q-121 0 -182 76t-61 237z" />
    <glyph glyph-name="Utilde" unicode="&#x168;" horiz-adv-x="1445" 
d="M967 1331h458v-24q-53 -12 -89 -24q-38 -12 -60 -31t-34 -51q-11 -29 -11 -85v-600q0 -259 -134 -398q-133 -138 -374 -138t-374 138q-134 139 -134 398v641q0 85 -36 107q-35 22 -118 43v24h455v-24q-83 -21 -118 -43q-36 -22 -36 -107v-641q0 -210 106 -319t294 -109
t294 109q105 108 105 319v600q0 56 -11 85q-12 32 -34 51t-60 31q-36 12 -89 24v24zM1008 1669q-29 -107 -63 -161q-35 -54 -95 -54q-37 0 -70 15q-27 12 -62 35q-32 21 -59 35q-29 15 -57 15q-31 0 -50 -22t-36 -68h-41q29 107 63 161t95 54q36 0 69 -15q30 -14 63 -35
q36 -24 58 -35q29 -15 58 -15q30 0 50 23t36 67h41z" />
    <glyph glyph-name="utilde" unicode="&#x169;" horiz-adv-x="1157" 
d="M1137 72l-318 -92v200q-69 -87 -154 -143q-87 -57 -196 -57q-130 0 -202 88q-72 89 -72 241v619h-185v24l328 92v-714q0 -117 49 -175q50 -59 150 -59q84 0 151 41q64 39 121 115v676h-184v24l327 92v-948h185v-24zM844 1434q-29 -107 -63 -161q-35 -54 -95 -54
q-37 0 -70 15q-27 12 -62 35q-36 24 -58 35q-29 15 -58 15q-30 0 -50 -23t-36 -67h-41q29 107 63 161t95 54q35 0 70 -16q32 -15 62 -34q36 -24 58 -35q30 -16 58 -16q30 0 50 23q19 22 36 68h41z" />
    <glyph glyph-name="Umacron" unicode="&#x16a;" horiz-adv-x="1445" 
d="M967 1331h458v-24q-53 -12 -89 -24q-38 -12 -60 -31t-34 -51q-11 -29 -11 -85v-600q0 -259 -134 -398q-133 -138 -374 -138t-374 138q-134 139 -134 398v641q0 85 -36 107q-35 22 -118 43v24h455v-24q-83 -21 -118 -43q-36 -22 -36 -107v-641q0 -210 106 -319t294 -109
t294 109q105 108 105 319v600q0 56 -11 85q-12 32 -34 51t-60 31q-36 12 -89 24v24zM967 1632v-131h-451v131h451z" />
    <glyph glyph-name="umacron" unicode="&#x16b;" horiz-adv-x="1157" 
d="M1137 72l-318 -92v200q-69 -87 -154 -143q-87 -57 -196 -57q-130 0 -202 88q-72 89 -72 241v619h-185v24l328 92v-714q0 -117 49 -175q50 -59 150 -59q84 0 151 41q64 39 121 115v676h-184v24l327 92v-948h185v-24zM803 1397v-131h-451v131h451z" />
    <glyph glyph-name="Ubreve" unicode="&#x16c;" horiz-adv-x="1445" 
d="M967 1331h458v-24q-53 -12 -89 -24q-38 -12 -60 -31t-34 -51q-11 -29 -11 -85v-600q0 -259 -134 -398q-133 -138 -374 -138t-374 138q-134 139 -134 398v641q0 85 -36 107q-35 22 -118 43v24h455v-24q-83 -21 -118 -43q-36 -22 -36 -107v-641q0 -210 106 -319t294 -109
t294 109q105 108 105 319v600q0 56 -11 85q-12 32 -34 51t-60 31q-36 12 -89 24v24zM741 1434q-109 0 -177 65t-68 180h51q0 -68 59 -95q62 -28 135 -28q74 0 136 28q59 27 59 95h51q0 -115 -68 -180t-178 -65z" />
    <glyph glyph-name="ubreve" unicode="&#x16d;" horiz-adv-x="1157" 
d="M1137 72l-318 -92v200q-69 -87 -154 -143q-87 -57 -196 -57q-130 0 -202 88q-72 89 -72 241v619h-185v24l328 92v-714q0 -117 49 -175q50 -59 150 -59q84 0 151 41q64 39 121 115v676h-184v24l327 92v-948h185v-24zM578 1188q-109 0 -178 77q-68 75 -68 210h51
q0 -89 59 -126q61 -38 136 -38q74 0 135 38q59 37 59 126h51q0 -135 -68 -210q-69 -77 -177 -77z" />
    <glyph glyph-name="Uring" unicode="&#x16e;" horiz-adv-x="1445" 
d="M967 1331h458v-24q-53 -12 -89 -24q-38 -12 -60 -31t-34 -51q-11 -29 -11 -85v-600q0 -259 -134 -398q-133 -138 -374 -138t-374 138q-134 139 -134 398v641q0 85 -36 107q-35 22 -118 43v24h455v-24q-83 -21 -118 -43q-36 -22 -36 -107v-641q0 -210 106 -319t294 -109
t294 109q105 108 105 319v600q0 56 -11 85q-12 32 -34 51t-60 31q-36 12 -89 24v24zM741 1423q-103 0 -176 35q-71 34 -71 98q0 65 71 99q73 35 176 35q104 0 177 -35q71 -34 71 -99q0 -64 -71 -98q-73 -35 -177 -35zM741 1638q-53 0 -83 -20q-31 -21 -31 -62q0 -40 31 -61
q30 -20 83 -20t83 20q32 21 32 61q0 41 -32 62q-30 20 -83 20z" />
    <glyph glyph-name="uring" unicode="&#x16f;" horiz-adv-x="1157" 
d="M1137 72l-318 -92v200q-69 -87 -154 -143q-87 -57 -196 -57q-130 0 -202 88q-72 89 -72 241v619h-185v24l328 92v-714q0 -117 49 -175q50 -59 150 -59q84 0 151 41q64 39 121 115v676h-184v24l327 92v-948h185v-24zM578 1178q-106 0 -177 40t-71 113q0 74 71 114t177 40
q105 0 176 -40t71 -114q0 -73 -71 -113t-176 -40zM578 1434q-51 0 -83 -26t-32 -77t32 -77q31 -25 83 -25q51 0 82 25q32 26 32 77t-32 77t-82 26z" />
    <glyph glyph-name="Uhungarumlaut" unicode="&#x170;" horiz-adv-x="1445" 
d="M967 1331h458v-24q-53 -12 -89 -24q-38 -12 -60 -31t-34 -51q-11 -29 -11 -85v-600q0 -259 -134 -398q-133 -138 -374 -138t-374 138q-134 139 -134 398v641q0 85 -36 107q-35 22 -118 43v24h455v-24q-83 -21 -118 -43q-36 -22 -36 -107v-641q0 -210 106 -319t294 -109
t294 109q105 108 105 319v600q0 56 -11 85q-12 32 -34 51t-60 31q-36 12 -89 24v24zM598 1434h-41l102 245h205zM922 1434h-41l102 245h205z" />
    <glyph glyph-name="uhungarumlaut" unicode="&#x171;" horiz-adv-x="1157" 
d="M1137 72l-318 -92v200q-69 -87 -154 -143q-87 -57 -196 -57q-130 0 -202 88q-72 89 -72 241v619h-185v24l328 92v-714q0 -117 49 -175q50 -59 150 -59q84 0 151 41q64 39 121 115v676h-184v24l327 92v-948h185v-24zM414 1147h-41l61 369h164zM778 1147h-41l62 369h164z
" />
    <glyph glyph-name="Uogonek" unicode="&#x172;" horiz-adv-x="1445" 
d="M725 -430q-79 0 -129 41q-49 40 -49 113q0 85 56 144q68 71 112 112q-239 2 -369 141q-131 140 -131 395v641q0 85 -36 107q-35 22 -118 43v24h455v-24q-83 -21 -118 -43t-35 -107v-641q0 -211 105 -319q106 -109 294 -109t294 109q105 108 105 319v600q0 56 -11 85
q-12 32 -34 51t-60 31q-36 12 -89 24v24h458v-24q-53 -12 -89 -24q-38 -12 -60 -31t-34 -51q-11 -29 -11 -85v-600q0 -244 -120 -382q-119 -137 -333 -152q-57 -60 -87 -111q-29 -49 -29 -98q0 -60 34 -85q35 -26 80 -26q40 0 76 16q37 16 68 52l22 -19q-32 -53 -84 -98
q-50 -43 -133 -43z" />
    <glyph glyph-name="uogonek" unicode="&#x173;" horiz-adv-x="1157" 
d="M1137 72q-126 -46 -214 -122q-87 -75 -87 -177q0 -60 34 -85q35 -26 80 -26q40 0 76 16q37 16 68 52l22 -19q-32 -53 -84 -98q-50 -43 -133 -43q-79 0 -129 41q-49 40 -49 113q0 51 30 93q33 46 68 77v286q-69 -87 -154 -143q-87 -57 -196 -57q-130 0 -202 88
q-72 89 -72 241v619h-185v24l328 92v-714q0 -117 49 -175q50 -59 150 -59q84 0 151 41q64 39 121 115v676h-184v24l327 92v-948h185v-24z" />
    <glyph glyph-name="Wcircumflex" unicode="&#x174;" horiz-adv-x="1951" 
d="M1348 -20l-371 1040l-371 -1040h-24l-412 1155q-28 84 -69 121q-37 34 -101 51v24h414v-24q-83 -15 -104 -49t9 -121l310 -883l309 879l-2 2q-28 84 -69 121q-37 34 -101 51v24h414v-24q-83 -15 -104 -49t9 -121l310 -883l299 854q33 90 9 138q-25 49 -101 61v24h370v-24
q-62 -16 -115 -65t-83 -136l-402 -1126h-24zM688 1434v24l266 221h41l267 -221v-24l-287 112z" />
    <glyph glyph-name="wcircumflex" unicode="&#x175;" horiz-adv-x="1517" 
d="M1022 -20l-262 733l-262 -733h-25l-303 847q-29 82 -62 121q-30 35 -88 51v25h367v-25q-64 -12 -83 -49t9 -121l209 -598l203 578l-6 18q-29 80 -63 121q-30 36 -87 51v25h367v-25q-64 -12 -83 -49t9 -121l209 -598l199 570q29 86 8 137t-86 61v25h326v-25
q-59 -16 -103 -65q-47 -53 -76 -135l-292 -819h-25zM555 1147h-41l246 369h41l246 -369h-41l-226 205z" />
    <glyph glyph-name="Ycircumflex" unicode="&#x176;" horiz-adv-x="1130" 
d="M834 0h-537v25q101 18 147 42q48 25 48 107v338l-334 623q-42 79 -82 118q-39 38 -94 54v24h399v-24q-71 -12 -90 -51q-18 -38 24 -119l291 -553l289 553q43 82 25 119q-19 39 -91 51v24h320v-24q-55 -16 -94 -54q-40 -39 -82 -118l-334 -623v-338q0 -83 47 -107
q46 -24 148 -42v-25zM315 1434v24l267 221h41l266 -221v-24l-287 112z" />
    <glyph glyph-name="ycircumflex" unicode="&#x177;" horiz-adv-x="1073" 
d="M549 -20q-60 -152 -150 -230t-213 -78q-39 0 -69 6q-14 3 -58 15v121q36 -14 74 -22q35 -7 76 -7q85 0 158 45q73 44 118 158l19 45l-318 794q-33 85 -68 121q-34 35 -98 51v25h396v-25q-72 -12 -93 -49q-21 -38 11 -121l239 -620l228 592q33 85 10 137q-22 50 -96 61v25
h358v-25q-68 -15 -116 -65q-50 -52 -83 -135zM340 1147h-41l246 369h41l245 -369h-40l-226 205z" />
    <glyph glyph-name="Ydieresis" unicode="&#x178;" horiz-adv-x="1130" 
d="M834 0h-537v25q101 18 147 42q48 25 48 107v338l-334 623q-42 79 -82 118q-39 38 -94 54v24h399v-24q-71 -12 -90 -51q-18 -38 24 -119l291 -553l289 553q43 82 25 119q-19 39 -91 51v24h320v-24q-55 -16 -94 -54q-40 -39 -82 -118l-334 -623v-338q0 -83 47 -107
q46 -24 148 -42v-25zM416 1667q50 0 80 -33t30 -78q0 -44 -30 -77t-80 -33t-80 33q-31 34 -31 77q0 44 31 78q30 33 80 33zM788 1667q50 0 80 -33q31 -34 31 -78q0 -43 -31 -77q-30 -33 -80 -33q-49 0 -79 33q-31 34 -31 77q0 44 31 78q30 33 79 33z" />
    <glyph glyph-name="Zacute" unicode="&#x179;" horiz-adv-x="1099" 
d="M82 0v25l745 1245h-366q-124 0 -203 -49q-80 -50 -131 -197h-25l54 307h862v-24l-746 -1246h387q123 0 203 50t131 196h25l-53 -307h-883zM324 1458l450 221v-163l-450 -82v24z" />
    <glyph glyph-name="zacute" unicode="&#x17a;" horiz-adv-x="909" 
d="M82 0v25l561 938h-182q-123 0 -203 -50t-131 -196h-25l54 307h667v-25l-561 -938h227q123 0 203 50t131 196h25l-53 -307h-713zM477 1147h-41l144 369h174z" />
    <glyph glyph-name="Zdotaccent" unicode="&#x17b;" horiz-adv-x="1099" 
d="M82 0v25l745 1245h-366q-124 0 -203 -49q-80 -50 -131 -197h-25l54 307h862v-24l-746 -1246h387q123 0 203 50t131 196h25l-53 -307h-883zM549 1673q51 0 84 -35t33 -82q0 -46 -33 -81t-84 -35t-84 35t-33 81q0 48 33 82q33 35 84 35z" />
    <glyph glyph-name="zdotaccent" unicode="&#x17c;" horiz-adv-x="909" 
d="M82 0v25l561 938h-182q-123 0 -203 -50t-131 -196h-25l54 307h667v-25l-561 -938h227q123 0 203 50t131 196h25l-53 -307h-713zM498 1448q51 0 84 -35q32 -33 32 -82t-32 -82q-33 -35 -84 -35t-84 35t-33 82t33 82t84 35z" />
    <glyph glyph-name="Zcaron" unicode="&#x17d;" horiz-adv-x="1099" 
d="M82 0v25l745 1245h-366q-124 0 -203 -49q-80 -50 -131 -197h-25l54 307h862v-24l-746 -1246h387q123 0 203 50t131 196h25l-53 -307h-883zM262 1679l287 -112l287 112v-24l-267 -221h-41l-266 221v24z" />
    <glyph glyph-name="zcaron" unicode="&#x17e;" horiz-adv-x="909" 
d="M82 0v25l561 938h-182q-123 0 -203 -50t-131 -196h-25l54 307h667v-25l-561 -938h227q123 0 203 50t131 196h25l-53 -307h-713zM723 1516h41l-246 -369h-41l-246 369h41l226 -205z" />
    <glyph glyph-name="Aringacute" unicode="&#x1fa;" horiz-adv-x="1355" 
d="M403 25v-25h-403v25q74 17 129 65q57 50 90 135l447 1127h24l459 -1155q34 -87 75 -121q42 -34 111 -51v-25h-440v25q89 15 112 48t-10 122l-84 215h-544l-72 -187q-32 -87 -8 -136q23 -47 114 -62zM405 506h472l-236 606zM678 1423q-103 0 -176 35q-72 34 -72 98t72 99
q73 35 176 35t176 -35q72 -35 72 -99t-72 -98q-73 -35 -176 -35zM678 1638q-53 0 -83 -20q-32 -21 -32 -62q0 -40 32 -61q30 -20 83 -20t83 20q32 21 32 61q0 41 -32 62q-30 20 -83 20zM453 1765l450 222v-164l-450 -82v24z" />
    <glyph glyph-name="aringacute" unicode="&#x1fb;" horiz-adv-x="1001" 
d="M229 700q-31 -15 -71 -20q-39 -5 -68 0q-7 59 45 119q51 58 152 127q93 65 153 92q58 26 111 26q111 0 173 -71t62 -187v-589q0 -57 30 -83q31 -26 65 -26q28 0 51 16q24 16 45 56l27 -13q-23 -61 -72 -110q-47 -47 -115 -47q-67 0 -116 44q-48 44 -48 144v55
q-39 -118 -131 -186q-91 -67 -200 -67q-107 0 -179 66q-71 65 -71 155q0 34 18 64q17 29 57 50l496 254v199q0 76 -44 123t-132 47q-51 0 -95 -23q-46 -24 -77 -56q-32 -33 -50 -77q-18 -42 -16 -82zM215 236q0 -56 39 -101t109 -45q116 0 198 88t82 230v96l-367 -193
q-30 -16 -47 -37q-14 -17 -14 -38zM504 1178q-105 0 -176 40q-72 40 -72 113t72 114q71 40 176 40t176 -40q72 -41 72 -114t-72 -113q-71 -40 -176 -40zM504 1434q-51 0 -83 -26t-32 -77t32 -77q31 -25 83 -25t83 25q32 26 32 77t-32 77t-83 26zM483 1556h-41l144 369h174z
" />
    <glyph glyph-name="AEacute" unicode="&#x1fc;" horiz-adv-x="2017" 
d="M887 1307v24h975l53 -307h-29q-51 148 -129 197q-77 49 -201 49h-368v-553h254q88 0 127 52q38 51 59 142h29v-450h-29q-21 91 -59 142q-39 52 -127 52h-254v-594h389q122 0 201 50q78 50 129 196h28l-53 -307h-995v25q83 21 118 43t35 106v236h-540l-135 -187
q-63 -89 -56 -136t97 -62v-25h-406v25q82 17 151 65q74 51 136 135l739 1012q-16 31 -49 43q-35 12 -90 27zM1040 1157v2l-471 -653h471v651zM1153 1458l451 221v-163l-451 -82v24z" />
    <glyph glyph-name="aeacute" unicode="&#x1fd;" horiz-adv-x="1611" 
d="M1501 696v-41h-706q-6 -30 -7 -48q-2 -34 -2 -52q0 -123 30 -209t79 -138t114 -76q62 -23 132 -23q117 0 208 67q91 68 126 225h34q-28 -202 -131 -312q-102 -109 -288 -109q-136 0 -251 76t-159 241q-27 -146 -129 -232q-101 -85 -229 -85q-107 0 -179 66
q-71 65 -71 155q0 34 18 64q17 29 57 50l496 254v199q0 76 -44 123t-132 47q-51 0 -95 -23q-46 -24 -77 -56q-32 -33 -50 -77q-18 -42 -16 -82q-31 -15 -71 -20q-39 -5 -68 0q-7 59 45 119q51 58 152 127q93 65 153 92q58 26 111 26q94 0 154 -51q58 -49 75 -137
q68 88 169 139q98 49 206 49q86 0 149 -28q64 -28 108 -78q45 -52 67 -112q22 -62 22 -130zM1120 971q-110 0 -194 -69t-117 -185h502q20 0 28 8q9 9 9 27q0 37 -14 77q-13 39 -41 71q-27 32 -70 51q-45 20 -103 20zM215 236q0 -56 39 -101t109 -45q116 0 198 88t82 230v96
l-367 -193q-30 -16 -47 -37q-14 -17 -14 -38zM811 1147h-41l143 369h174z" />
    <glyph glyph-name="Oslashacute" unicode="&#x1fe;" horiz-adv-x="1556" 
d="M778 1352q130 0 243 -43q117 -45 200 -119l129 141h84l-168 -184q82 -91 124 -209q44 -123 44 -262q0 -153 -50 -282q-51 -130 -136 -220q-88 -93 -208 -143q-122 -51 -262 -51q-132 0 -243 43q-118 46 -199 118l-129 -141h-84l168 186q-81 91 -124 208q-44 121 -44 261
q0 156 49 282q51 130 136 220q88 93 208 143q124 52 262 52zM758 1286q-104 0 -189 -43t-148 -120q-61 -74 -98 -183q-36 -106 -36 -233q0 -132 26 -233q27 -106 76 -187l741 813q-68 90 -163 138q-96 48 -209 48zM1270 625q0 126 -27 233q-27 108 -76 189l-743 -816
q67 -86 166 -137q95 -49 209 -49q103 0 188 43q86 44 149 120q61 74 98 183q36 107 36 234zM553 1458l451 221v-163l-451 -82v24z" />
    <glyph glyph-name="oslashacute" unicode="&#x1ff;" horiz-adv-x="1157" 
d="M575 1044q93 0 174 -25q83 -26 146 -81l72 86h88l-113 -135q52 -65 82 -158q31 -98 31 -221q0 -124 -38 -224q-37 -98 -103 -167q-65 -68 -150 -104q-83 -35 -182 -35q-92 0 -173 25q-85 26 -147 81l-72 -86h-88l113 135q-52 65 -82 158q-31 98 -31 221q0 124 38 224
q37 98 103 167q65 68 150 104q83 35 182 35zM246 565q0 -98 16 -177t47 -144l504 598q-46 69 -113 105q-66 36 -143 36q-134 0 -223 -109q-88 -107 -88 -309zM600 41q134 0 223 109q88 107 88 309q0 98 -16 177t-47 144l-504 -598q44 -68 112 -105q66 -36 144 -36zM557 1147
h-41l143 369h175z" />
    <glyph glyph-name="Scommaaccent" unicode="&#x218;" horiz-adv-x="1034" 
d="M543 43q119 0 186 72q68 73 68 180q0 133 -106 206q-109 75 -230 136q-127 64 -231 143q-105 79 -105 226q0 78 32 144q31 64 86 108q57 46 129 69q78 25 163 25q108 0 190 -28q77 -26 143 -67v-284h-24q-27 153 -125 235t-225 82q-110 0 -183 -61t-73 -162
q0 -122 105 -191q111 -73 231 -133q127 -63 232 -146t105 -232q0 -173 -113 -279t-313 -106q-116 0 -204 26q-91 27 -158 68v336h24q12 -100 53 -170q43 -73 95 -114q58 -45 120 -64q63 -19 128 -19zM354 -410h-41l103 287h184z" />
    <glyph glyph-name="scommaaccent" unicode="&#x219;" horiz-adv-x="860" 
d="M457 41q94 0 145 51t51 133q0 101 -85 155q-87 55 -186 100q-98 45 -186 108q-85 61 -85 178q0 138 94 208t231 70q97 0 167 -22q75 -23 128 -55v-277h-24q-27 144 -112 220q-86 77 -196 77q-75 0 -128 -39q-52 -39 -52 -121q0 -89 84 -139q87 -52 185 -96
q97 -44 186 -114q84 -66 84 -191q0 -143 -94 -225t-261 -82q-89 0 -163 21q-75 22 -127 54v318h24q12 -91 45 -154q33 -62 77 -102q45 -41 96 -58q53 -18 102 -18zM268 -410h-41l103 287h184z" />
    <glyph glyph-name="uni021A" unicode="&#x21a;" horiz-adv-x="1335" 
d="M936 0h-537v25q102 18 148 42q47 24 47 107v1096h-174q-124 0 -201 -49q-78 -49 -129 -197h-29l54 307h1106l53 -307h-29q-51 148 -129 197q-77 49 -201 49h-174v-1096q0 -83 47 -107q46 -24 148 -42v-25zM504 -410h-41l102 287h185z" />
    <glyph glyph-name="uni021B" unicode="&#x21b;" horiz-adv-x="704" 
d="M195 293v635h-144v24l262 260h25v-188h305v-96h-305v-625q0 -103 39 -160t119 -57q68 0 112 37q47 39 70 113l27 -9q-27 -121 -93 -184t-174 -63q-121 0 -182 76t-61 237zM295 -410h-41l102 287h185z" />
    <glyph glyph-name="dotlessj" unicode="&#x237;" horiz-adv-x="552" 
d="M215 -12v940h-184v24l327 92v-1044q0 -74 -12 -122q-12 -49 -46 -83q-36 -36 -94 -62q-68 -31 -155 -61v29q101 45 132 106q32 62 32 181z" />
    <glyph glyph-name="circumflex" unicode="&#x2c6;" horiz-adv-x="1024" 
d="M287 1147h-41l246 369h40l246 -369h-41l-225 205z" />
    <glyph glyph-name="caron" unicode="&#x2c7;" horiz-adv-x="1024" 
d="M737 1516h41l-246 -369h-40l-246 369h41l225 -205z" />
    <glyph glyph-name="breve" unicode="&#x2d8;" horiz-adv-x="1024" 
d="M512 1188q-108 0 -177 77t-69 210h51q0 -89 60 -126q61 -38 135 -38t135 38q60 37 60 126h51q0 -133 -69 -210t-177 -77z" />
    <glyph glyph-name="dotaccent" unicode="&#x2d9;" horiz-adv-x="1024" 
d="M512 1448q51 0 84 -35t33 -82t-33 -82t-84 -35t-84 35t-33 82t33 82t84 35z" />
    <glyph glyph-name="ring" unicode="&#x2da;" horiz-adv-x="1024" 
d="M512 1178q-105 0 -176 40q-72 40 -72 113t72 114q71 40 176 40t176 -40q72 -41 72 -114t-72 -113q-71 -40 -176 -40zM512 1434q-51 0 -83 -26t-32 -77t32 -77q31 -25 83 -25t83 25q32 26 32 77t-32 77t-83 26z" />
    <glyph glyph-name="ogonek" unicode="&#x2db;" horiz-adv-x="1024" 
d="M438 -227q0 -59 35 -85t80 -26q40 0 76 16q35 16 67 52l23 -19q-32 -53 -84 -98q-50 -43 -133 -43q-79 0 -129 41q-49 40 -49 113q0 44 18 83q17 38 47 72q27 31 62 63q33 30 61 58h61q-65 -66 -100 -121q-35 -56 -35 -106z" />
    <glyph glyph-name="tilde" unicode="&#x2dc;" horiz-adv-x="1024" 
d="M778 1434q-29 -110 -62 -161q-34 -54 -95 -54q-37 0 -70 15q-30 14 -63 35q-36 24 -58 35q-28 15 -57 15q-30 0 -50 -23t-36 -67h-41q29 110 62 161q34 54 95 54q35 0 70 -16q36 -16 63 -34q36 -24 58 -35q30 -16 57 -16q30 0 50 23q19 22 36 68h41z" />
    <glyph glyph-name="hungarumlaut" unicode="&#x2dd;" horiz-adv-x="1024" 
d="M348 1147h-41l62 369h163zM713 1147h-41l61 369h164z" />
    <glyph glyph-name="caronSlovak" unicode="&#x30c;" horiz-adv-x="1024" 
d="M553 963h-41l61 368h164z" />
    <glyph glyph-name="commaaccent" unicode="&#x326;" horiz-adv-x="1024" 
d="M348 -410h-41l103 287h184z" />
    <glyph glyph-name="Wgrave" unicode="&#x1e80;" horiz-adv-x="1951" 
d="M1348 -20l-371 1040l-371 -1040h-24l-412 1155q-28 84 -69 121q-37 34 -101 51v24h414v-24q-83 -15 -104 -49t9 -121l310 -883l309 879l-2 2q-28 84 -69 121q-37 34 -101 51v24h414v-24q-83 -15 -104 -49t9 -121l310 -883l299 854q33 90 9 138q-25 49 -101 61v24h370v-24
q-62 -16 -115 -65t-83 -136l-402 -1126h-24zM1200 1458v-24l-450 82v163z" />
    <glyph glyph-name="wgrave" unicode="&#x1e81;" horiz-adv-x="1517" 
d="M1022 -20l-262 733l-262 -733h-25l-303 847q-29 82 -62 121q-30 35 -88 51v25h367v-25q-64 -12 -83 -49t9 -121l209 -598l203 578l-6 18q-29 80 -63 121q-30 36 -87 51v25h367v-25q-64 -12 -83 -49t9 -121l209 -598l199 570q29 86 8 137t-86 61v25h326v-25
q-59 -16 -103 -65q-47 -53 -76 -135l-292 -819h-25zM801 1147l-277 369h174l144 -369h-41z" />
    <glyph glyph-name="Wacute" unicode="&#x1e82;" horiz-adv-x="1951" 
d="M1348 -20l-371 1040l-371 -1040h-24l-412 1155q-28 84 -69 121q-37 34 -101 51v24h414v-24q-83 -15 -104 -49t9 -121l310 -883l309 879l-2 2q-28 84 -69 121q-37 34 -101 51v24h414v-24q-83 -15 -104 -49t9 -121l310 -883l299 854q33 90 9 138q-25 49 -101 61v24h370v-24
q-62 -16 -115 -65t-83 -136l-402 -1126h-24zM750 1458l450 221v-163l-450 -82v24z" />
    <glyph glyph-name="wacute" unicode="&#x1e83;" horiz-adv-x="1517" 
d="M1022 -20l-262 733l-262 -733h-25l-303 847q-29 82 -62 121q-30 35 -88 51v25h367v-25q-64 -12 -83 -49t9 -121l209 -598l203 578l-6 18q-29 80 -63 121q-30 36 -87 51v25h367v-25q-64 -12 -83 -49t9 -121l209 -598l199 570q29 86 8 137t-86 61v25h326v-25
q-59 -16 -103 -65q-47 -53 -76 -135l-292 -819h-25zM760 1147h-41l143 369h174z" />
    <glyph glyph-name="Wdieresis" unicode="&#x1e84;" horiz-adv-x="1951" 
d="M1348 -20l-371 1040l-371 -1040h-24l-412 1155q-28 84 -69 121q-37 34 -101 51v24h414v-24q-83 -15 -104 -49t9 -121l310 -883l309 879l-2 2q-28 84 -69 121q-37 34 -101 51v24h414v-24q-83 -15 -104 -49t9 -121l310 -883l299 854q33 90 9 138q-25 49 -101 61v24h370v-24
q-62 -16 -115 -65t-83 -136l-402 -1126h-24zM788 1667q50 0 80 -33q31 -34 31 -78q0 -43 -31 -77q-30 -33 -80 -33q-49 0 -79 33q-31 34 -31 77q0 44 31 78q30 33 79 33zM1161 1667q50 0 80 -33q31 -34 31 -78q0 -43 -31 -77q-30 -33 -80 -33t-80 33t-30 77q0 45 30 78
t80 33z" />
    <glyph glyph-name="wdieresis" unicode="&#x1e85;" horiz-adv-x="1517" 
d="M1022 -20l-262 733l-262 -733h-25l-303 847q-29 82 -62 121q-30 35 -88 51v25h367v-25q-64 -12 -83 -49t9 -121l209 -598l203 578l-6 18q-29 80 -63 121q-30 36 -87 51v25h367v-25q-64 -12 -83 -49t9 -121l209 -598l199 570q29 86 8 137t-86 61v25h326v-25
q-59 -16 -103 -65q-47 -53 -76 -135l-292 -819h-25zM594 1442q50 0 80 -33q31 -34 31 -78t-31 -78q-29 -32 -80 -32t-80 32q-31 34 -31 78t31 78q30 33 80 33zM967 1442q50 0 80 -33t30 -78t-30 -78q-29 -32 -80 -32t-80 32q-31 34 -31 78t31 78q30 33 80 33z" />
    <glyph glyph-name="Ygrave" unicode="&#x1ef2;" horiz-adv-x="1130" 
d="M834 0h-537v25q101 18 147 42q48 25 48 107v338l-334 623q-42 79 -82 118q-39 38 -94 54v24h399v-24q-71 -12 -90 -51q-18 -38 24 -119l291 -553l289 553q43 82 25 119q-19 39 -91 51v24h320v-24q-55 -16 -94 -54q-40 -39 -82 -118l-334 -623v-338q0 -83 47 -107
q46 -24 148 -42v-25zM825 1458v-24l-450 82v163z" />
    <glyph glyph-name="ygrave" unicode="&#x1ef3;" horiz-adv-x="1073" 
d="M549 -20q-60 -152 -150 -230t-213 -78q-39 0 -69 6q-14 3 -58 15v121q36 -14 74 -22q35 -7 76 -7q85 0 158 45q73 44 118 158l19 45l-318 794q-33 85 -68 121q-34 35 -98 51v25h396v-25q-72 -12 -93 -49q-21 -38 11 -121l239 -620l228 592q33 85 10 137q-22 50 -96 61v25
h358v-25q-68 -15 -116 -65q-50 -52 -83 -135zM586 1147l-277 369h174l144 -369h-41z" />
    <glyph glyph-name="en_space" unicode="&#x2002;" horiz-adv-x="1024" 
 />
    <glyph glyph-name="em_space" unicode="&#x2003;" horiz-adv-x="2048" 
 />
    <glyph glyph-name="threeperem_space" unicode="&#x2004;" horiz-adv-x="681" 
 />
    <glyph glyph-name="fourperem_space" unicode="&#x2005;" horiz-adv-x="512" 
 />
    <glyph glyph-name="figure_space" unicode="&#x2007;" 
 />
    <glyph glyph-name="thin_space" unicode="&#x2009;" horiz-adv-x="256" 
 />
    <glyph glyph-name="hair_space" unicode="&#x200a;" horiz-adv-x="204" 
 />
    <glyph glyph-name="endash" unicode="&#x2013;" horiz-adv-x="1064" 
d="M123 666h819v-62h-819v62z" />
    <glyph glyph-name="emdash" unicode="&#x2014;" horiz-adv-x="1884" 
d="M123 666h1638v-62h-1638v62z" />
    <glyph glyph-name="quoteleft" unicode="&#x2018;" horiz-adv-x="460" 
d="M276 791h-174v30l220 510h36z" />
    <glyph glyph-name="quoteright" unicode="&#x2019;" horiz-adv-x="460" 
d="M184 1331h174v-31l-219 -509h-37z" />
    <glyph glyph-name="quotesinglbase" unicode="&#x201a;" horiz-adv-x="481" 
d="M184 233h174v-30l-219 -510h-37z" />
    <glyph glyph-name="quotedblleft" unicode="&#x201c;" horiz-adv-x="829" 
d="M276 791h-174v30l220 510h36zM645 791h-174v30l219 510h37z" />
    <glyph glyph-name="quotedblright" unicode="&#x201d;" horiz-adv-x="829" 
d="M184 1331h174v-31l-219 -509h-37zM553 1331h174v-31l-219 -509h-37z" />
    <glyph glyph-name="quotedblbase" unicode="&#x201e;" horiz-adv-x="849" 
d="M184 233h174v-30l-219 -510h-37zM553 233h174v-30l-219 -510h-37z" />
    <glyph glyph-name="dagger" unicode="&#x2020;" horiz-adv-x="806" 
d="M473 655l-57 -962h-29l-55 962l55 326l-321 -57v141l321 -55l-55 321h141l-57 -321l325 55v-141l-325 57z" />
    <glyph glyph-name="daggerdbl" unicode="&#x2021;" horiz-adv-x="806" 
d="M66 100l321 -57l-55 326v286l55 326l-321 -57v141l321 -55l-55 321h141l-57 -321l325 55v-141l-325 57l57 -326v-286l-57 -326l325 57v-141l-325 55l57 -321h-141l55 321l-321 -55v141z" />
    <glyph glyph-name="bullet" unicode="&#x2022;" horiz-adv-x="1024" 
d="M512 1044q181 0 295 -115q115 -117 115 -294t-115 -294q-114 -116 -295 -116t-295 116q-115 117 -115 294t115 294q114 115 295 115z" />
    <glyph glyph-name="triangularbullet" unicode="&#x2023;" horiz-adv-x="1024" 
d="M307 1106l615 -471l-615 -471v942z" />
    <glyph glyph-name="ellipsis" unicode="&#x2026;" horiz-adv-x="1241" 
d="M258 -20q-53 0 -83 33q-32 35 -32 81t32 81q31 34 83 34t83 -34q32 -35 32 -81t-32 -81q-30 -33 -83 -33zM621 -20q-53 0 -83 33q-32 35 -32 81t32 81q31 34 83 34q51 0 82 -34q32 -35 32 -81t-32 -81q-30 -33 -82 -33zM983 -20q-53 0 -83 33q-32 35 -32 81t32 81
q31 34 83 34t83 -34q32 -35 32 -81t-32 -81q-30 -33 -83 -33z" />
    <glyph glyph-name="guilsinglleft" unicode="&#x2039;" horiz-adv-x="675" 
d="M123 651l389 373h41l-262 -389l262 -389h-41l-389 372v33z" />
    <glyph glyph-name="guilsinglright" unicode="&#x203a;" horiz-adv-x="675" 
d="M553 618l-389 -372h-41l262 389l-262 389h41l389 -373v-33z" />
    <glyph glyph-name="word_joiner" unicode="&#x2060;" horiz-adv-x="450" 
 />
    <glyph glyph-name="parenleft.sup" unicode="&#x207d;" horiz-adv-x="552" 
d="M254 1059q0 -179 68 -333q67 -152 163 -257l-20 -20q-62 57 -114 113q-59 64 -105 136q-47 75 -77 164q-30 90 -30 197q0 106 30 196q30 89 77 164q46 72 105 136q59 63 114 114l20 -20q-96 -105 -163 -257q-68 -154 -68 -333z" />
    <glyph glyph-name="parenright.sup" unicode="&#x207e;" horiz-adv-x="552" 
d="M299 1059q0 179 -68 333q-67 152 -163 257l20 20q56 -51 114 -114q59 -64 105 -136q47 -75 77 -164q30 -90 30 -196q0 -107 -30 -197q-30 -89 -77 -164q-46 -72 -105 -136q-52 -56 -114 -113l-20 20q96 105 163 257q68 154 68 333z" />
    <glyph glyph-name="Euro" unicode="&#x20ac;" horiz-adv-x="1103" 
d="M82 512h174q-3 27 -7 76q-3 39 -3 78q0 38 3 77q4 49 7 76h-174v62h184q45 212 170 342q124 129 301 129q143 0 235 -56q91 -55 91 -149q0 -21 -8 -48q-6 -19 -21 -46h-22q-63 117 -129 177t-146 60q-111 0 -199 -87q-89 -88 -116 -322h377v-62h-383q0 -10 -1.5 -35
t-2.5 -39q-2 -52 -2 -79q0 -28 2 -80q1 -14 2.5 -39t1.5 -35h383v-61h-377q27 -236 116 -323q88 -87 199 -87q80 0 146 60q65 59 129 178h22q15 -26 21 -47q8 -27 8 -48q0 -94 -91 -149t-235 -55q-177 0 -301 129q-125 130 -170 342h-184v61z" />
    <glyph glyph-name="rublesign" unicode="&#x20bd;" horiz-adv-x="1157" 
d="M61 430h236v307h-236v62h236v358q0 85 -36 107q-35 22 -118 43v24h519q199 0 311 -70t112 -202q0 -153 -117 -237q-118 -85 -323 -85h-201v-307h334v-61h-334v-195q0 -82 48 -107q46 -24 147 -42v-25h-496v25q83 21 118 43q36 22 36 106v195h-236v61zM655 1270h-211v-471
h203q145 0 216 71q73 73 73 177q0 101 -70 162t-211 61z" />
    <glyph glyph-name="numero_sign" unicode="&#x2116;" horiz-adv-x="2355" 
d="M1247 -20h-35l-907 1118v-883q0 -56 11 -85q12 -32 34 -51q21 -18 61 -31q24 -8 89 -23v-25h-459v25q65 15 89 23q38 12 60 31t34 51t12 85v967q-59 62 -110 90q-50 27 -106 35v24h285l873 -1069v854q0 54 -12 85q-13 33 -33 51q-21 18 -61 31q-36 12 -89 24v24h459v-24
q-53 -12 -89 -24q-40 -13 -61 -31q-22 -19 -34 -51q-11 -29 -11 -85v-1136zM1917 1346q71 0 137 -21q68 -22 114 -65q49 -46 77 -117t28 -172q0 -89 -28 -157q-29 -69 -77 -116q-48 -46 -113 -72q-66 -26 -134 -26q-71 0 -137 21q-68 22 -114 65q-49 46 -77 117t-28 172
q0 89 28 157q28 67 77 115t112 73q64 26 135 26zM1933 657q94 0 157 72q62 71 62 207q0 164 -70 258t-179 94q-95 0 -156 -71t-61 -207q0 -164 69 -258q69 -95 178 -95zM1616 399h606v-61h-606v61z" />
    <glyph glyph-name="sound_recording_copyright" unicode="&#x2117;" horiz-adv-x="1712" 
d="M856 1352q144 0 274 -52q128 -51 219 -142t142 -218q51 -128 51 -274q0 -148 -51 -275t-142 -218t-219 -142t-274 -51t-274 51q-127 51 -218 142q-93 93 -143 218q-51 127 -51 275q0 146 51 274q50 125 143 218q91 91 218 142q130 52 274 52zM856 1286q-134 0 -247 -46
q-111 -45 -195 -129q-80 -80 -128 -197q-46 -113 -46 -248q0 -136 46 -249q48 -117 128 -197q84 -84 195 -129q113 -46 247 -46t247 46q111 45 195 129q80 80 128 197q47 115 47 249q0 133 -47 248q-48 117 -128 197q-84 84 -195 129q-113 46 -247 46zM582 1001v25h309
q142 0 222 -55q81 -56 81 -158q0 -115 -84 -178q-85 -64 -227 -64h-101v-159q0 -45 25 -59q21 -12 80 -23v-25h-305v25q44 12 64 24t20 58v508q0 44 -20 58q-18 12 -64 23zM889 965h-107v-338h101q96 0 144 51t48 127q0 74 -46 117t-140 43z" />
    <glyph glyph-name="servicemark" unicode="&#x2120;" horiz-adv-x="1574" 
d="M311 653q61 0 96 33q33 32 33 86q0 67 -59 104q-58 36 -130 70q-69 32 -130 78q-60 45 -60 127q0 95 68 145t168 50q67 0 123 -16q50 -14 92 -40v-192h-25q-22 99 -79 146q-61 50 -136 50q-48 0 -83 -24q-33 -23 -33 -76q0 -59 58 -93q49 -29 129 -68q72 -35 129 -82
q58 -48 58 -136q0 -101 -67 -158t-189 -57q-69 0 -118 14q-55 16 -93 39v221h25q16 -118 85 -169q70 -52 138 -52zM1292 723v479l-239 -598h-41l-242 596v-459q0 -56 25 -72q23 -15 82 -30v-25h-273v25q59 15 82 30q25 16 25 72v529q-15 14 -38 22q-32 11 -48 15v24h217
l217 -555l215 555h219v-24q-44 -10 -66 -23q-20 -11 -20 -57v-504q0 -48 20 -59q24 -14 66 -25v-25h-285v25q43 11 65 25q19 12 19 59z" />
    <glyph glyph-name="trademark" unicode="&#x2122;" horiz-adv-x="1796" 
d="M578 614h-326v25q54 11 79 24t25 58v555h-86q-66 0 -109 -24q-45 -25 -71 -95h-29l27 174h651l29 -174h-31q-27 72 -69 95q-43 24 -109 24h-88v-555q0 -45 27 -58t80 -24v-25zM1513 723v479l-239 -598h-41l-242 596v-459q0 -56 25 -72q23 -15 82 -30v-25h-273v25
q59 15 82 30q25 16 25 72v529q-15 14 -38 22q-32 11 -48 15v24h217l217 -555l215 555h219v-24q-42 -10 -65 -23q-21 -12 -21 -57v-504q0 -47 21 -59q25 -14 65 -25v-25h-284v25q41 11 64 25q19 12 19 59z" />
    <glyph glyph-name="leftwards_arrow" unicode="&#x2190;" horiz-adv-x="1003" 
d="M598 1024l-358 -358h641v-62h-641l358 -358h-86l-389 389l389 389h86z" />
    <glyph glyph-name="upwards_arrow" unicode="&#x2191;" horiz-adv-x="1003" 
d="M881 580l-346 346v-680h-66v680l-346 -346v86l379 378l379 -378v-86z" />
    <glyph glyph-name="rightwards_arrow" unicode="&#x2192;" horiz-adv-x="1003" 
d="M406 1024h86l389 -389l-389 -389h-86l358 358h-641v62h641z" />
    <glyph glyph-name="downwards_arrow" unicode="&#x2193;" horiz-adv-x="1003" 
d="M881 690v-86l-379 -379l-379 379v86l346 -346v680h66v-680z" />
    <glyph glyph-name="left_right_arrow" unicode="&#x2194;" horiz-adv-x="1617" 
d="M598 1024l-358 -358h1138l-358 358h86l389 -389l-389 -389h-86l358 358h-1138l358 -358h-86l-389 389l389 389h86z" />
    <glyph glyph-name="up_down_arrow" unicode="&#x2195;" horiz-adv-x="1003" 
d="M881 444v-86l-379 -378l-379 378v86l346 -346v1135l-346 -346v86l379 379l379 -379v-86l-346 346v-1135z" />
    <glyph glyph-name="north_west_arrow" unicode="&#x2196;" horiz-adv-x="1003" 
d="M879 963h-566l512 -512l-47 -48l-508 508v-565l-65 66v612h612z" />
    <glyph glyph-name="north_east_arrow" unicode="&#x2197;" horiz-adv-x="1003" 
d="M125 963l61 61h613v-612l-66 -66v565l-508 -508l-47 48l512 512h-565z" />
    <glyph glyph-name="south_east_arrow" unicode="&#x2198;" horiz-adv-x="1003" 
d="M879 61l-62 -61h-612v612l65 66v-565l508 508l47 -48l-512 -512h566z" />
    <glyph glyph-name="south_west_arrow" unicode="&#x2199;" horiz-adv-x="1003" 
d="M125 61h565l-512 512l47 48l508 -508v565l66 -66v-612h-613z" />
    <glyph glyph-name="rightwards_over_leftwards_arrow" unicode="&#x21c4;" horiz-adv-x="1617" 
d="M1020 1331h86l389 -389l-389 -389h-86l358 358h-1194v62h1194zM1434 358h-1194l358 -358h-86l-389 389l389 389h86l-358 -358h1194v-62z" />
    <glyph glyph-name="upwards_arrow_leftwards_of_down" unicode="&#x21c5;" horiz-adv-x="1556" 
d="M535 0h-66v1233l-346 -346v86l379 379l379 -379v-86l-346 346v-1233zM1087 1331v-1233l347 346v-86l-379 -378l-379 378v86l346 -346v1233h65z" />
    <glyph glyph-name="leftwards_over_rightwards_arrow" unicode="&#x21c6;" horiz-adv-x="1617" 
d="M598 1331l-358 -358h1194v-62h-1194l358 -358h-86l-389 389l389 389h86zM184 358v62h1194l-358 358h86l389 -389l-389 -389h-86l358 358h-1194z" />
    <glyph glyph-name="downwards_arrow_leftwards_of_up" unicode="&#x21f5;" horiz-adv-x="1556" 
d="M1087 0h-65v1233l-346 -346v86l379 379l379 -379v-86l-347 346v-1233zM535 1331v-1233l346 346v-86l-379 -378l-379 378v86l346 -346v1233h66z" />
    <glyph glyph-name="minus" unicode="&#x2212;" horiz-adv-x="1003" 
d="M123 666h758v-62h-758v62z" />
    <glyph glyph-name="infinity" unicode="&#x221e;" horiz-adv-x="1388" 
d="M993 901q118 0 195 -76q78 -77 78 -190q0 -114 -78 -191q-76 -75 -195 -75q-105 0 -173 65q-70 67 -126 148q-56 -81 -126 -148q-68 -65 -173 -65q-118 0 -194 75q-78 77 -78 191q0 113 78 190q77 76 194 76q105 0 173 -65q70 -67 126 -148q56 81 126 148q68 65 173 65z
M989 840q-85 0 -145 -63q-63 -66 -113 -142q50 -76 113 -142q60 -63 145 -63q93 0 152 58t59 147q0 88 -59 146q-61 59 -152 59zM188 635q0 -89 60 -147q59 -58 151 -58q86 0 146 63q59 62 112 142q-53 80 -112 142q-60 63 -146 63q-90 0 -151 -59q-60 -59 -60 -146z" />
    <glyph glyph-name="approxequal" unicode="&#x2248;" horiz-adv-x="1003" 
d="M688 737q57 0 92 38t35 126v10h66v-10q0 -114 -47 -170q-46 -55 -142 -55q-64 0 -113 29q-52 31 -91 63q-51 42 -81 63q-41 29 -92 29q-57 0 -92 -38t-35 -126v-10h-65v10q0 114 47 170t141 56q65 0 114 -29q44 -26 90 -64q45 -37 82 -63q41 -29 91 -29zM688 410
q58 0 92 37q35 38 35 126v11h66v-11q0 -114 -47 -170q-46 -55 -142 -55q-64 0 -113 29q-52 31 -91 63q-59 49 -81 64q-40 28 -92 28q-58 0 -92 -37q-35 -38 -35 -126v-11h-65v11q0 114 47 170q46 55 141 55q65 0 114 -29q48 -29 90 -63q53 -44 82 -64q40 -28 91 -28z" />
    <glyph glyph-name="notequal" unicode="&#x2260;" horiz-adv-x="1003" 
d="M123 502h221l229 266h-450v61h504l168 195h86l-168 -195h168v-61h-222l-229 -266h451v-62h-504l-168 -194h-86l168 194h-168v62z" />
    <glyph glyph-name="lessequal" unicode="&#x2264;" horiz-adv-x="1003" 
d="M123 604v62l758 378v-73l-680 -336l680 -336v-74zM123 61h758v-61h-758v61z" />
    <glyph glyph-name="greaterequal" unicode="&#x2265;" horiz-adv-x="1003" 
d="M881 604l-758 -379v74l680 336l-680 336v73l758 -378v-62zM881 61v-61h-758v61h758z" />
    <glyph glyph-name="diameter_sign" unicode="&#x2300;" horiz-adv-x="1048" 
d="M524 1014q71 0 135 -23q65 -23 113 -61l100 100l48 -47l-101 -100q40 -50 62 -113q22 -62 22 -135q0 -164 -107 -271q-108 -108 -272 -108q-71 0 -135 23q-65 23 -113 61l-100 -100l-47 47l100 100q-38 48 -61 113q-23 64 -23 135q0 163 108 271t271 108zM524 952
q-136 0 -224 -90q-89 -91 -89 -227q0 -60 17 -110q18 -52 48 -91l451 451q-37 32 -91 50q-50 17 -112 17zM838 635q0 57 -18 109q-18 53 -48 92l-450 -451q37 -32 91 -50q53 -18 111 -18q136 0 225 91t89 227z" />
    <glyph glyph-name="bullseye" unicode="&#x25c9;" horiz-adv-x="1712" 
d="M856 1290q142 0 262 -49q122 -49 208 -136q86 -86 136 -208q49 -120 49 -262t-49 -262q-50 -122 -136 -208q-86 -87 -208 -136q-120 -49 -262 -49t-262 49q-122 50 -208 136q-86 87 -136 208q-49 120 -49 262t49 262q50 122 136 208q86 87 208 136q120 49 262 49z
M856 1225q-125 0 -234 -44q-108 -43 -186 -123q-79 -80 -122 -188q-44 -109 -44 -235q0 -127 44 -236q43 -106 122 -187q78 -80 186 -123q109 -44 234 -44q126 0 235 44q106 43 185 123q79 81 122 187q44 109 44 236q0 126 -44 235q-43 108 -122 188t-185 123
q-109 44 -235 44zM856 1044q181 0 295 -115q115 -117 115 -294t-115 -294q-114 -116 -295 -116t-295 116q-115 117 -115 294t115 294q114 115 295 115zM856 983q-153 0 -248 -98q-96 -99 -96 -250t96 -250q95 -98 248 -98t248 98q96 99 96 250t-96 250q-95 98 -248 98z" />
    <glyph glyph-name="fisheye" unicode="&#x25ce;" horiz-adv-x="1712" 
d="M856 1290q142 0 262 -49q122 -49 208 -136q86 -86 136 -208q49 -120 49 -262t-49 -262q-50 -122 -136 -208q-86 -87 -208 -136q-120 -49 -262 -49t-262 49q-122 50 -208 136q-86 87 -136 208q-49 120 -49 262t49 262q50 122 136 208q86 87 208 136q120 49 262 49z
M856 1225q-125 0 -234 -44q-108 -43 -186 -123q-79 -80 -122 -188q-44 -109 -44 -235q0 -127 44 -236q43 -106 122 -187q78 -80 186 -123q109 -44 234 -44q126 0 235 44q106 43 185 123q79 81 122 187q44 109 44 236q0 126 -44 235q-43 108 -122 188t-185 123
q-109 44 -235 44zM856 1044q181 0 295 -115q115 -117 115 -294t-115 -294q-114 -116 -295 -116t-295 116q-115 117 -115 294t115 294q114 115 295 115z" />
    <glyph glyph-name="openbullet" unicode="&#x25e6;" horiz-adv-x="1024" 
d="M512 1044q181 0 295 -115q115 -117 115 -294t-115 -294q-114 -116 -295 -116t-295 116q-115 117 -115 294t115 294q114 115 295 115zM512 983q-153 0 -248 -98q-96 -99 -96 -250t96 -250q95 -98 248 -98t248 98q96 99 96 250t-96 250q-95 98 -248 98z" />
    <glyph glyph-name="black_sun_with_rays" unicode="&#x2600;" horiz-adv-x="1488" 
d="M813 1331v-254h-141v254h141zM1266 1092l-181 -183l-102 103l182 180zM322 1188l182 -180l-101 -99l-182 181zM1085 668q0 -145 -96 -244q-95 -98 -244 -98q-147 0 -245 98q-99 99 -99 244q0 146 99 245t245 99q148 0 244 -99t96 -245zM76 598v143h258v-143h-258z
M1411 598h-254v143h254v-143zM322 147l-103 99l184 182l101 -100zM1266 246l-101 -101l-182 181l102 100zM813 0h-141v258h141v-258z" />
    <glyph glyph-name="cloud" unicode="&#x2601;" horiz-adv-x="1513" 
d="M1204 524v-15q0 -5 -2 -15q109 -1 182 -74q72 -72 72 -182t-73 -185q-72 -73 -183 -73q-84 0 -147 42t-90 111q-50 -69 -128 -109q-79 -40 -176 -40q-59 0 -110 16q-54 17 -96 43q-34 -31 -79 -47t-98 -16q-111 0 -184 73q-74 74 -74 185t74 183q75 73 184 73h20
q9 0 19 -2q39 102 131 165q93 64 213 64q27 0 53 -3t50 -9q33 35 81 54q47 19 105 19q112 0 184 -73q72 -74 72 -185z" />
    <glyph glyph-name="starblack" unicode="&#x2605;" horiz-adv-x="1525" 
d="M1485 827l-445 -321l170 -526l-446 323l-449 -323l172 526l-446 321h551l172 525l172 -525h549z" />
    <glyph glyph-name="starwhite" unicode="&#x2606;" horiz-adv-x="1525" 
d="M1485 827l-445 -321l170 -526l-446 323l-449 -323l172 526l-446 321h551l172 525l172 -525h549zM1296 768h-407l-125 387l-127 -387h-406l330 -238l-125 -385l328 238l328 -238l-127 385z" />
    <glyph glyph-name="ballot_box" unicode="&#x2610;" horiz-adv-x="1507" 
d="M170 0v1167h1167v-1167h-1167zM240 66h1028v1036h-1028v-1036z" />
    <glyph glyph-name="ballot_box_with_check" unicode="&#x2611;" horiz-adv-x="1507" 
d="M170 0v1167h1167v-1167h-1167zM240 66h1028v1036h-1028v-1036zM758 180h-64l-213 510l62 23l182 -424l315 702l64 -30z" />
    <glyph glyph-name="ballot_box_with_x" unicode="&#x2612;" horiz-adv-x="1507" 
d="M170 0v1167h1167v-1167h-1167zM240 66h1028v1036h-1028v-1036zM487 897l267 -266l266 266l47 -47l-266 -266l266 -267l-47 -47l-266 267l-267 -267l-47 47l267 267l-267 266z" />
    <glyph glyph-name="trigramheaven" unicode="&#x2630;" horiz-adv-x="1638" 
d="M164 1331h1311v-61h-1311v61zM164 696h1311v-61h-1311v61zM164 61h1311v-61h-1311v61z" />
    <glyph glyph-name="white_frowning_face" unicode="&#x2639;" horiz-adv-x="1738" 
d="M897 -61q-159 0 -292 54q-134 54 -230 150q-97 97 -151 231t-54 292t54 291q54 134 151 231q96 96 230 150q136 55 292 55t292 -55q134 -54 230 -150q97 -97 151 -231q54 -133 54 -291t-54 -292t-151 -231q-96 -96 -230 -150q-133 -54 -292 -54zM897 1327
q-144 0 -264 -49q-122 -50 -208 -137q-86 -88 -136 -210q-49 -120 -49 -265q0 -146 49 -266q50 -122 136 -210q86 -87 208 -137q120 -49 264 -49t264 49q122 50 208 137q86 88 136 210q49 120 49 266q0 145 -49 265q-50 122 -136 210q-86 87 -208 137q-120 49 -264 49z
M1147 709q-61 0 -101 40t-40 101t40 101t101 40t101 -40t40 -101t-40 -101t-101 -40zM647 709q-61 0 -101 40t-40 101t40 101t101 40q62 0 102 -40q39 -39 39 -101t-39 -101q-40 -40 -102 -40zM897 551q123 0 215 -75t141 -197q-76 65 -169 91q-91 25 -187 25t-187 -25
q-93 -26 -169 -91q49 122 141 197t215 75z" />
    <glyph glyph-name="white_smiling_face" unicode="&#x263a;" horiz-adv-x="1738" 
d="M897 -61q-159 0 -292 54q-134 54 -230 150q-97 97 -151 231t-54 292t54 291q54 134 151 231q96 96 230 150q136 55 292 55t292 -55q134 -54 230 -150q97 -97 151 -231q54 -133 54 -291t-54 -292t-151 -231q-96 -96 -230 -150q-133 -54 -292 -54zM897 1327
q-144 0 -264 -49q-122 -50 -208 -137q-86 -88 -136 -210q-49 -120 -49 -265q0 -146 49 -266q50 -122 136 -210q86 -87 208 -137q120 -49 264 -49t264 49q122 50 208 137q86 88 136 210q49 120 49 266q0 145 -49 265q-50 122 -136 210q-86 87 -208 137q-120 49 -264 49z
M1147 709q-61 0 -101 40t-40 101t40 101t101 40t101 -40t40 -101t-40 -101t-101 -40zM647 709q-61 0 -101 40t-40 101t40 101t101 40q62 0 102 -40q39 -39 39 -101t-39 -101q-40 -40 -102 -40zM897 258q-123 0 -215 75t-141 197q76 -65 169 -91q91 -25 187 -25t187 25
q93 26 169 91q-49 -122 -141 -197t-215 -75z" />
    <glyph glyph-name="black_smiling_face" unicode="&#x263b;" horiz-adv-x="1738" 
d="M897 -61q-159 0 -292 54q-134 54 -230 150q-97 97 -151 231t-54 292t54 291q54 134 151 231q96 96 230 150q136 55 292 55t292 -55q134 -54 230 -150q97 -97 151 -231q54 -133 54 -291t-54 -292t-151 -231q-96 -96 -230 -150q-133 -54 -292 -54zM1147 709q61 0 101 40
t40 101t-40 101t-101 40t-101 -40t-40 -101t40 -101t101 -40zM647 709q62 0 102 40q39 39 39 101t-39 101q-40 40 -102 40q-61 0 -101 -40t-40 -101t40 -101t101 -40zM897 258q123 0 215 75t141 197q-76 -65 -169 -91q-91 -25 -187 -25t-187 25q-93 26 -169 91
q49 -122 141 -197t215 -75z" />
    <glyph glyph-name="flagwhite" unicode="&#x2690;" horiz-adv-x="1609" 
d="M1436 276q-143 0 -296 25q-145 24 -289 54q-138 29 -287 57q-141 26 -290 28v-440h-69v1331h51q157 0 304 -25q106 -18 297 -57q163 -33 294 -56q150 -26 295 -26h41v-891h-51zM1417 1100q-144 0 -282 25q-101 18 -283 57q-150 32 -286 56q-147 26 -292 26v-758
q141 0 285 -26q132 -24 283 -56q160 -34 284 -56q147 -26 291 -26v758z" />
    <glyph glyph-name="flagblack" unicode="&#x2691;" horiz-adv-x="1609" 
d="M1436 276q-143 0 -296 25q-145 24 -289 54q-138 29 -287 57q-141 26 -290 28v-440h-69v1331h51q157 0 304 -25q106 -18 297 -57q163 -33 294 -56q150 -26 295 -26h41v-891h-51z" />
    <glyph glyph-name="high_voltage_sign" unicode="&#x26a1;" horiz-adv-x="710" 
d="M111 -20l229 706l-250 -113l256 758h201l-191 -545l318 132z" />
    <glyph glyph-name="upper_blade_scissors" unicode="&#x2701;" horiz-adv-x="2942" 
d="M440 440q94 0 170 -43q77 -44 121 -114h516l64 20l-35 57l-399 336q-25 -8 -50 -11q-24 -3 -51 -3q-145 0 -241 96q-97 97 -97 242t97 242q96 96 241 96q146 0 242 -96t96 -242q0 -94 -43 -170t-115 -121l465 -389l314 102q233 74 404 73q178 -2 306 -47
q133 -47 228 -120q93 -72 168 -143h-1258l244 -205h-326l-127 205h-610q8 -26 11 -50q3 -25 3 -53q0 -145 -96 -241q-97 -97 -242 -97q-144 0 -241 97t-97 241q0 145 97 242q96 96 241 96zM776 1292q-114 0 -190 -78q-76 -77 -76 -194q0 -118 76 -195t190 -77q115 0 191 77
q75 76 75 195q0 118 -75 194q-76 78 -191 78zM440 375q-114 0 -190 -78q-76 -77 -76 -195q0 -117 76 -194q76 -78 190 -78t191 78q76 77 76 194q0 118 -76 195q-77 78 -191 78z" />
    <glyph glyph-name="black_scissors" unicode="&#x2702;" horiz-adv-x="2760" 
d="M440 152q-145 0 -241 96q-97 97 -97 241q0 145 97 242q96 96 241 96q146 0 242 -96t96 -242q0 -61 -18 -114t-51 -96l571 -207l258 202q191 147 355 207q166 61 303 62q141 2 254 -35q119 -39 208 -78l-1181 -430l1181 -430q-89 -39 -208 -78q-113 -37 -254 -35
q-137 1 -303 62q-164 60 -355 207l-258 202l-571 -207q33 -43 51 -96t18 -114q0 -146 -96 -242t-242 -96q-145 0 -241 96q-97 97 -97 242q0 144 97 241q96 96 241 96q65 0 115 -17q56 -19 94 -50l486 176l55 43l-55 43l-486 176q-38 -31 -94 -50q-50 -17 -115 -17zM440 217
q114 0 191 78q76 77 76 194q0 118 -76 195q-76 78 -191 78q-114 0 -190 -78q-76 -77 -76 -195q0 -117 76 -194q76 -78 190 -78zM440 -217q-114 0 -190 -78q-76 -77 -76 -194q0 -118 76 -195q76 -78 190 -78t191 78q76 77 76 195q0 117 -76 194q-77 78 -191 78z" />
    <glyph glyph-name="lower_blade_scissors" unicode="&#x2703;" horiz-adv-x="2942" 
d="M440 -440q-145 0 -241 96q-97 97 -97 242q0 144 97 241t241 97q145 0 242 -97q96 -96 96 -241q0 -28 -3 -53q-3 -24 -11 -50h610l127 205h326l-244 -205h1258q-75 -71 -168 -143q-95 -73 -228 -120q-128 -45 -306 -47q-171 -1 -404 73l-314 102l-465 -389
q72 -45 115 -121t43 -170q0 -146 -96 -242t-242 -96q-145 0 -241 96q-97 97 -97 242t97 242q96 96 241 96q27 0 51 -3q25 -3 50 -11l399 336l35 57l-64 20h-516q-44 -70 -121 -114q-76 -43 -170 -43zM440 -375q114 0 191 78q76 77 76 195q0 117 -76 194q-77 78 -191 78
t-190 -78q-76 -77 -76 -194q0 -118 76 -195q76 -78 190 -78zM776 -1292q114 0 191 78q75 76 75 194q0 119 -75 195q-76 77 -191 77q-114 0 -190 -77t-76 -195q0 -117 76 -194q76 -78 190 -78z" />
    <glyph glyph-name="lower_right_pencil" unicode="&#x270e;" horiz-adv-x="1882" 
d="M766 -305l-725 725l913 911h723v-723zM1350 1262h-326l584 -584v326zM983 6l598 598l-631 631l-598 -598zM768 -209l166 166l-631 631l-166 -166z" />
    <glyph glyph-name="pencil" unicode="&#x270f;" horiz-adv-x="2068" 
d="M205 0v1024h1290l512 -512l-512 -512h-1290zM274 66h236v892h-236v-892zM580 66h845v892h-845v-892zM1726 694l-231 232v-828l231 232v364z" />
    <glyph glyph-name="upper_right_pencil" unicode="&#x2710;" horiz-adv-x="1882" 
d="M766 1636l911 -913v-723h-723l-913 911zM768 1540l-631 -631l166 -166l631 631zM983 1325l-631 -631l598 -598l631 631zM1350 70l258 258v325l-584 -583h326z" />
    <glyph glyph-name="check_mark" unicode="&#x2713;" horiz-adv-x="1507" 
d="M758 180h-64l-213 510l62 23l182 -424l315 702l64 -30z" />
    <glyph glyph-name="ballot_x" unicode="&#x2717;" horiz-adv-x="1507" 
d="M487 897l267 -266l266 266l47 -47l-266 -266l266 -267l-47 -47l-266 267l-267 -267l-47 47l267 267l-267 266z" />
    <glyph glyph-name="sparkles" unicode="&#x2728;" horiz-adv-x="1531" 
d="M102 633v65q316 0 472 145q155 144 155 488h74q0 -345 155 -488q157 -145 472 -145v-65q-315 0 -472 -145q-155 -143 -155 -488h-74q0 344 -155 488q-156 145 -472 145zM360 666q140 -28 258 -125t148 -291q30 195 147 291q118 97 258 125q-143 27 -258 122
q-117 96 -147 293q-30 -196 -148 -293q-115 -95 -258 -122z" />
    <glyph glyph-name="anticlockwise_gapped_circle_arw" unicode="&#x27f2;" horiz-adv-x="1570" 
d="M369 455q0 146 42 257q42 112 114 185t170 111q94 36 208 36q113 0 211 -41q99 -41 174 -115q73 -72 117 -170q43 -96 43 -206t-43 -206q-44 -98 -117 -170q-74 -72 -174 -114t-211 -42q-104 0 -193 33q-94 35 -163 98l45 49q63 -61 143 -90q81 -29 168 -29q97 0 187 38
q86 36 152 101q65 64 103 150q37 84 37 182q0 97 -37 183q-38 87 -103 151q-64 63 -152 100q-87 37 -187 37q-96 0 -182 -33q-89 -34 -150 -98q-62 -65 -100 -165q-37 -98 -37 -232v-103l316 312v-86l-344 -342l-345 342v86l308 -306v97z" />
    <glyph glyph-name="clockwise_gapped_circle_arrow" unicode="&#x27f3;" horiz-adv-x="1570" 
d="M1202 455v-97l307 306v-86l-344 -342l-344 342v86l316 -312v103q0 134 -37 232t-101 165q-61 64 -149 98q-86 33 -182 33q-100 0 -187 -37q-88 -37 -152 -100q-65 -64 -103 -151q-38 -88 -38 -183t38 -182q38 -86 103 -150q66 -65 152 -101q90 -38 187 -38q87 0 168 29
q80 29 143 90l45 -49q-69 -63 -163 -98q-89 -33 -193 -33q-113 0 -211 41q-99 41 -174 115q-73 72 -117 170q-43 96 -43 206t43 206q44 98 117 170t174 114q100 42 211 42q114 0 208 -36q98 -38 170 -111t114 -185q42 -111 42 -257z" />
    <glyph glyph-name="north_west_and_south_east_arrow" unicode="&#x2921;" horiz-adv-x="1433" 
d="M555 61h565l-850 850v-565l-65 66v612h612l62 -61h-566l850 -850v565l66 -66v-612h-613z" />
    <glyph glyph-name="north_east_and_south_west_arrow" unicode="&#x2922;" horiz-adv-x="1433" 
d="M879 61l-62 -61h-612v612l65 66v-565l850 850h-565l61 61h613v-612l-66 -66v565l-850 -850h566z" />
    <glyph glyph-name="upwards_black_arrow" unicode="&#x2bc5;" horiz-adv-x="1579" 
d="M123 0l668 1352l665 -1352h-1333z" />
    <glyph glyph-name="downwards_black_arrow" unicode="&#x2bc6;" horiz-adv-x="1579" 
d="M123 1331h1333l-665 -1351z" />
    <glyph glyph-name="leftwards_black_arrow" unicode="&#x2bc7;" horiz-adv-x="1185" 
d="M981 1546v-1761l-879 881z" />
    <glyph glyph-name="black_rightwards_arrow" unicode="&#x2bc8;" horiz-adv-x="1185" 
d="M205 1546l878 -880l-878 -881v1761z" />
    <glyph glyph-name="A.sup" unicode="&#xe001;" horiz-adv-x="1007" 
d="M315 639v-25h-299v25q51 12 92 44q39 30 62 89l313 789h37l322 -809q23 -59 52 -79q32 -22 77 -34v-25h-328v25q64 11 79 33q15 23 -7 80l-49 125h-383l-41 -107q-23 -57 -6 -89t79 -42zM317 969h314l-158 403z" />
    <glyph glyph-name="B.sup" unicode="&#xe00e;" horiz-adv-x="980" 
d="M78 1522v24h430q155 0 243 -55q89 -56 89 -160q0 -81 -46 -134q-47 -54 -128 -81q102 -27 159 -93q58 -67 58 -165q0 -116 -96 -180t-265 -64h-444v25q59 16 83 31q25 16 25 75v672q0 58 -25 74q-24 15 -83 31zM504 1485h-195v-344h189q107 0 162 53t55 131q0 73 -53 117
q-52 43 -158 43zM512 1079h-203v-403h209q119 0 179 51q61 52 61 137q0 92 -62 154q-61 61 -184 61z" />
    <glyph glyph-name="C.sup" unicode="&#xe010;" horiz-adv-x="1024" 
d="M553 1491q-141 0 -242 -99q-100 -99 -100 -278q0 -198 103 -302q104 -105 270 -105q136 0 231 80q97 82 103 255h28q-2 -214 -106 -327q-106 -115 -289 -115q-205 0 -329 129q-124 128 -124 332q0 114 41 208q40 91 110 157t158 100q90 35 183 35q96 0 162 -21t137 -61
v-248h-25q-28 141 -111 201q-81 59 -200 59z" />
    <glyph glyph-name="D.sup" unicode="&#xe017;" horiz-adv-x="1085" 
d="M78 1522v24h356q281 0 417 -121t136 -319q0 -106 -34 -195t-103 -155t-178 -104t-256 -38h-338v25q59 16 83 31q25 16 25 75v672q0 58 -25 74q-24 15 -83 31zM426 1485h-117v-809h109q232 0 334 117t102 301q0 78 -25 153q-24 71 -75 124q-52 53 -132 83q-84 31 -196 31z
" />
    <glyph glyph-name="E.sup" unicode="&#xe01b;" horiz-adv-x="917" 
d="M78 1522v24h710l37 -215h-26q-33 95 -89 124q-57 30 -143 30h-258v-361h178q61 0 88 37q25 35 41 101h27v-334h-27q-15 65 -41 99q-27 36 -88 36h-178v-387h273q85 0 142 30q56 30 89 123h27l-37 -215h-725v25q59 16 83 31q25 16 25 75v672q0 58 -25 74q-24 15 -83 31z
" />
    <glyph glyph-name="Euro.LT" unicode="&#xe026;" 
d="M117 512h174q-3 27 -7 76q-3 39 -3 78q0 38 3 77q4 49 7 76h-174v62h184q45 212 170 342q125 129 301 129q143 0 235 -56q91 -55 91 -149q0 -21 -8 -48q-6 -19 -21 -46h-22q-63 117 -129 177t-146 60q-112 0 -200 -87t-115 -322h377v-62h-383q0 -11 -2 -35.5t-3 -38.5
q-2 -52 -2 -79q0 -28 2 -80q1 -14 3 -38.5t2 -35.5h383v-61h-377q27 -237 115 -323q88 -87 200 -87q80 0 146 60q65 59 129 178h22q15 -26 21 -47q8 -27 8 -48q0 -94 -91 -149t-235 -55q-176 0 -301 129q-125 130 -170 342h-184v61z" />
    <glyph glyph-name="Euro.OP" unicode="&#xe027;" horiz-adv-x="1103" 
d="M82 512h174q-3 27 -7 76q-3 39 -3 78q0 38 3 77q4 49 7 76h-174v62h184q45 212 170 342q124 129 301 129q143 0 235 -56q91 -55 91 -149q0 -21 -8 -48q-6 -19 -21 -46h-22q-63 117 -129 177t-146 60q-111 0 -199 -87q-89 -88 -116 -322h377v-62h-383q0 -10 -1.5 -35
t-2.5 -39q-2 -52 -2 -79q0 -28 2 -80q1 -14 2.5 -39t1.5 -35h383v-61h-377q27 -236 116 -323q88 -87 199 -87q80 0 146 60q65 59 129 178h22q15 -26 21 -47q8 -27 8 -48q0 -94 -91 -149t-235 -55q-177 0 -301 129q-125 130 -170 342h-184v61z" />
    <glyph glyph-name="Euro.OT" unicode="&#xe028;" 
d="M117 512h174q-3 27 -7 76q-3 39 -3 78q0 38 3 77q4 49 7 76h-174v62h184q45 212 170 342q125 129 301 129q143 0 235 -56q91 -55 91 -149q0 -21 -8 -48q-6 -19 -21 -46h-22q-63 117 -129 177t-146 60q-112 0 -200 -87t-115 -322h377v-62h-383q0 -11 -2 -35.5t-3 -38.5
q-2 -52 -2 -79q0 -28 2 -80q1 -14 3 -38.5t2 -35.5h383v-61h-377q27 -237 115 -323q88 -87 200 -87q80 0 146 60q65 59 129 178h22q15 -26 21 -47q8 -27 8 -48q0 -94 -91 -149t-235 -55q-176 0 -301 129q-125 130 -170 342h-184v61z" />
    <glyph glyph-name="Euro.numr" unicode="&#xe02b;" horiz-adv-x="892" 
d="M68 758h122q-4 27 -6 54q-2 36 -2 54q0 19 2 55q2 28 6 52h-122v61h135q35 142 126 227t218 85q103 0 170 -41q65 -40 65 -109q0 -15 -5 -35q-3 -14 -13 -33h-25q-45 80 -91 120t-101 40q-76 0 -136 -54t-81 -200h260v-61h-268q0 -7 -1.5 -24t-2.5 -27q-1 -18 -1 -56
t1 -56q1 -10 2.5 -27.5t1.5 -24.5h268v-62h-260q21 -146 81 -198q62 -54 136 -54q55 0 101 39q45 38 91 119h25q10 -19 13 -33q5 -20 5 -32q0 -71 -65 -111q-67 -41 -170 -41q-126 0 -217 85q-93 87 -127 226h-135v62z" />
    <glyph glyph-name="F.sup" unicode="&#xe02e;" horiz-adv-x="868" 
d="M78 1522v24h696l37 -215h-27q-33 95 -89 124q-57 30 -142 30h-244v-395h193q62 0 88 35q25 34 41 100h26v-334h-26q-15 64 -41 100q-27 37 -88 37h-193v-283q0 -59 33 -75q31 -16 102 -31v-25h-366v25q59 16 83 31q25 16 25 75v672q0 58 -25 74q-24 15 -83 31z" />
    <glyph glyph-name="G.sup" unicode="&#xe035;" horiz-adv-x="1144" 
d="M494 1065v61h491v-512h-27l-92 138q-51 -74 -131 -113q-79 -39 -184 -39q-205 0 -329 129q-124 128 -124 332q0 116 43 208t114 157q72 66 163 100q93 35 190 35q107 0 185 -19q73 -18 153 -63v-248h-24q-28 144 -121 205q-90 59 -215 59q-77 0 -147 -26
q-69 -26 -118 -73q-50 -49 -80 -120q-30 -72 -30 -162q0 -198 103 -302q104 -105 270 -105q87 0 159 25q74 26 119 83v250h-368z" />
    <glyph glyph-name="H.sup" unicode="&#xe03b;" horiz-adv-x="1177" 
d="M78 1522v24h338v-24q-60 -16 -82 -31q-25 -17 -25 -74v-293h559v293q0 58 -25 74q-24 15 -83 31v24h340v-24q-59 -16 -83 -31q-26 -17 -26 -74v-672q0 -58 26 -75q24 -15 83 -31v-25h-340v25q59 16 83 31q25 16 25 75v318h-559v-318q0 -58 25 -75q22 -15 82 -31v-25h-338
v25q59 16 83 31q25 16 25 75v672q0 58 -25 74q-24 15 -83 31z" />
    <glyph glyph-name="I.sup" unicode="&#xe03f;" horiz-adv-x="493" 
d="M78 1522v24h338v-24q-60 -16 -82 -31q-25 -17 -25 -74v-672q0 -58 25 -75q22 -15 82 -31v-25h-338v25q59 16 83 31q25 16 25 75v672q0 58 -25 74q-24 15 -83 31z" />
    <glyph glyph-name="J.sup" unicode="&#xe04b;" horiz-adv-x="489" 
d="M186 1417q0 58 -25 74q-24 15 -83 31v24h338v-24q-60 -16 -82 -31q-25 -17 -25 -74v-803q0 -53 -10 -84q-10 -32 -37 -56q-26 -23 -73 -43q-48 -20 -117 -46v31q70 34 92 71q22 38 22 119v811z" />
    <glyph glyph-name="K.sup" unicode="&#xe04e;" horiz-adv-x="946" 
d="M78 639q59 16 83 31q25 16 25 75v672q0 58 -25 74q-24 15 -83 31v24h366v-24q-71 -15 -102 -31q-33 -17 -33 -74v-389l275 334q57 69 41 109t-80 51v24h338v-24q-55 -11 -98 -39q-42 -27 -101 -99l-164 -200l275 -426q33 -51 63 -81t72 -38v-25h-185l-307 473l-129 -157
v-185q0 -59 33 -75q31 -16 102 -31v-25h-366v25z" />
    <glyph glyph-name="L.sup" unicode="&#xe051;" horiz-adv-x="825" 
d="M78 639q59 16 83 31q25 16 25 75v672q0 58 -25 74q-24 15 -83 31v24h366v-24q-71 -15 -102 -31q-33 -17 -33 -74v-741h201q85 0 142 30q56 30 89 123h27l-37 -215h-653v25z" />
    <glyph glyph-name="M.sup" unicode="&#xe057;" horiz-adv-x="1247" 
d="M938 745v672l-324 -817h-39l-323 815v-641q0 -75 32 -96t105 -39v-25h-340v25q75 18 106 39t31 96v701q-17 13 -48 27q-29 13 -60 20v24h252l293 -753l290 753h256v-24q-59 -16 -83 -31q-25 -16 -25 -74v-672q0 -59 25 -75q24 -15 83 -31v-25h-340v25q59 16 83 31
q26 17 26 75z" />
    <glyph glyph-name="N.sup" unicode="&#xe059;" horiz-adv-x="1091" 
d="M911 600h-41l-618 764v-590q0 -75 32 -96t105 -39v-25h-340v25q75 18 106 39t31 96v668q-41 41 -76 57q-38 17 -75 23v24h231l580 -717v560q0 75 -32 95q-33 20 -105 38v24h340v-24q-74 -18 -106 -38t-32 -95v-789z" />
    <glyph glyph-name="O.sup" unicode="&#xe05f;" horiz-adv-x="1155" 
d="M578 1561q102 0 192 -35q89 -35 152 -96q63 -62 99 -150q36 -89 36 -193q0 -106 -36 -196q-36 -91 -99 -155q-62 -63 -152 -100q-88 -36 -192 -36q-102 0 -192 35q-91 35 -153 96q-63 61 -99 150t-36 192q0 107 36 197q36 89 99 154q63 64 153 101q88 36 192 36z
M563 1497q-141 0 -235 -108q-95 -109 -95 -279q0 -203 103 -326q101 -120 256 -120q140 0 235 108q95 109 95 281q0 201 -102 323q-102 121 -257 121z" />
    <glyph glyph-name="P.sup" unicode="&#xe06b;" horiz-adv-x="927" 
d="M78 1522v24h373q183 0 285 -71q104 -72 104 -205q0 -148 -108 -230q-107 -82 -292 -82h-131v-213q0 -59 33 -75q31 -16 102 -31v-25h-366v25q59 16 83 31q25 16 25 75v672q0 58 -25 74q-24 15 -83 31zM446 1485h-137v-465h131q137 0 206 69t69 173q0 101 -67 162t-202 61
z" />
    <glyph glyph-name="Q.sup" unicode="&#xe06e;" horiz-adv-x="1155" 
d="M834 481h81v-102h-100q-63 0 -103 13q-44 14 -73 40q-31 28 -57 70q-35 57 -58 100q-183 16 -305 146q-121 128 -121 325q0 107 36 197q36 89 99 154q63 64 153 101q88 36 192 36q102 0 192 -35q89 -35 152 -96q63 -62 99 -150q36 -89 36 -193q0 -103 -35 -193
q-35 -91 -96 -153q-62 -63 -148 -101q-88 -39 -186 -40q45 -70 92 -95q45 -24 150 -24zM563 1497q-141 0 -235 -108q-95 -109 -95 -279q0 -203 103 -326q101 -120 256 -120q140 0 235 108q95 109 95 281q0 201 -102 323q-102 121 -257 121z" />
    <glyph glyph-name="R.sup" unicode="&#xe070;" horiz-adv-x="962" 
d="M78 1522v24h430q164 0 254 -59q92 -60 92 -170q0 -113 -82 -179q-85 -68 -229 -75q7 -4 29 -21q17 -13 30 -32l203 -267q39 -54 74 -76t67 -28v-25h-192l-275 385q-24 35 -50 44q-28 10 -60 10h-60v-308q0 -59 33 -75q31 -16 102 -31v-25h-366v25q59 16 83 31
q25 16 25 75v672q0 58 -25 74q-24 15 -83 31zM504 1485h-195v-371h189q118 0 174 55q57 55 57 142q0 81 -56 127q-58 47 -169 47z" />
    <glyph glyph-name="S.sup" unicode="&#xe075;" horiz-adv-x="786" 
d="M412 662q78 0 122 45q44 46 44 114q0 86 -73 136q-77 53 -161 97q-93 49 -161 104q-72 58 -72 161q0 110 85 176q86 66 210 66q78 0 138 -20q59 -20 103 -46v-199h-26q-15 101 -85 153t-159 52q-71 0 -121 -39q-49 -39 -49 -100q0 -78 74 -125q78 -50 161 -93
q88 -46 162 -108t74 -166q0 -120 -83 -195t-224 -75q-83 0 -149 18q-62 17 -113 48v235h24q7 -60 37 -109q28 -46 68 -75q39 -29 84 -42q43 -13 90 -13z" />
    <glyph glyph-name="T.sup" unicode="&#xe07c;" horiz-adv-x="978" 
d="M688 614h-395v25q71 15 102 31q33 16 33 75v740h-111q-85 0 -142 -30q-56 -29 -89 -124h-29l37 215h791l37 -215h-27q-33 95 -89 124q-57 30 -142 30h-113v-740q0 -59 34 -75q33 -16 103 -31v-25z" />
    <glyph glyph-name="T_h" unicode="&#xe07d;" horiz-adv-x="2297" 
d="M936 0h-537v25q102 18 148 42q47 24 47 107v1096h-174q-124 0 -201 -49q-78 -49 -129 -197h-29l54 307h1036l328 92v-567q68 83 151 135q85 53 189 53q129 0 201 -88q73 -90 73 -241v-541q0 -84 32 -108q32 -25 101 -41v-25h-409v25q69 16 101 41q32 24 32 108v520
q0 117 -49 175q-50 59 -150 59q-85 0 -152 -41q-62 -38 -120 -115v-598q0 -84 31 -108q32 -24 102 -41v-25h-410v25q70 17 102 41q31 24 31 108v1096h-594v-1096q0 -83 47 -107q46 -24 148 -42v-25z" />
    <glyph glyph-name="U.sup" unicode="&#xe083;" horiz-adv-x="1087" 
d="M715 1546h338v-24q-71 -18 -104 -38q-31 -19 -31 -95v-414q0 -183 -99 -279t-274 -96q-178 0 -277 96q-98 95 -98 279v442q0 57 -26 74q-24 15 -83 31v24h338v-24q-60 -16 -82 -31q-24 -16 -24 -74v-442q0 -137 74 -209q73 -72 204 -72q133 0 207 72t74 209v414
q0 75 -32 95q-33 20 -105 38v24z" />
    <glyph glyph-name="V.sup" unicode="&#xe08f;" horiz-adv-x="1007" 
d="M840 1389l-314 -789h-37l-321 809q-23 59 -52 79q-32 23 -79 34v24h330v-24q-63 -10 -78 -32q-15 -21 6 -79l240 -620l233 600q23 57 6 89q-16 31 -80 42v24h297v-24q-47 -11 -89 -44q-39 -30 -62 -89z" />
    <glyph glyph-name="W.sup" unicode="&#xe091;" horiz-adv-x="1411" 
d="M961 600l-250 703l-252 -703h-35l-289 809q-22 59 -47 79q-29 23 -72 34v24h310v-24q-57 -10 -72 -32q-15 -21 6 -79l207 -588l205 584q-23 51 -47 75q-28 28 -72 40v24h309v-24q-55 -10 -71 -32q-15 -21 6 -79l207 -588l198 568q20 59 5 91q-16 33 -70 40v24h278v-24
q-43 -12 -82 -44q-35 -29 -57 -89l-281 -789h-34z" />
    <glyph glyph-name="X.sup" unicode="&#xe099;" horiz-adv-x="907" 
d="M178 778l207 303l-199 295q-48 72 -82 98q-34 27 -84 48v24h320v-24q-43 -10 -55 -41t18 -76l162 -240l160 240q27 43 12 75t-53 42v24h262v-24q-51 -23 -82 -46q-34 -25 -80 -94l-182 -270l221 -328q48 -70 84 -98q32 -25 84 -47v-25h-322v25q45 10 57 41q12 29 -20 76
l-184 272l-182 -272q-29 -44 -14 -75t55 -42v-25h-265v25q50 21 83 47q35 27 79 92z" />
    <glyph glyph-name="Y.sup" unicode="&#xe09b;" horiz-adv-x="849" 
d="M623 614h-396v25q73 16 103 31q32 16 32 75v248l-223 416q-29 53 -56 77q-26 24 -67 36v24h299v-24q-50 -7 -61 -33q-11 -25 16 -78l183 -350l182 350q27 53 15 78q-13 26 -60 33v24h244v-24q-41 -12 -67 -36q-27 -24 -56 -77l-226 -420v-244q0 -59 34 -75
q32 -15 104 -31v-25z" />
    <glyph glyph-name="Z.sup" unicode="&#xe0a1;" horiz-adv-x="860" 
d="M98 614v29l496 842h-229q-89 0 -146 -30t-90 -124h-25l37 215h613v-28l-496 -842h244q88 0 145 30q58 30 90 123h25l-37 -215h-627z" />
    <glyph glyph-name="a.sup" unicode="&#xe0a6;" horiz-adv-x="794" 
d="M229 1085q-27 -12 -59 -15q-30 -3 -57 -1q-8 54 26 96q32 40 109 92q73 54 112 70q46 19 78 19q86 0 137 -51q50 -50 50 -130v-403q0 -40 20 -57q22 -19 45 -19q20 0 37 12q16 11 31 39l24 -14q-18 -47 -56 -82t-91 -35q-50 0 -88 32q-37 31 -37 105q-33 -67 -96 -105
q-64 -38 -135 -38q-84 0 -141 48q-56 47 -56 112q0 25 13 45t40 35l369 192v119q0 48 -31 79q-30 30 -92 30q-72 0 -113 -55q-40 -54 -39 -120zM203 776q0 -32 31 -59q32 -27 88 -27q76 0 129 58t53 151v68l-258 -138q-23 -12 -33 -25t-10 -28z" />
    <glyph glyph-name="acute.cap" unicode="&#xe0a7;" horiz-adv-x="1024" 
d="M287 1458l450 221v-163l-450 -82v24z" />
    <glyph glyph-name="b.sup" unicode="&#xe0af;" horiz-adv-x="892" 
d="M281 1618v-401q45 57 102 93t131 36q146 0 218 -99q73 -100 73 -233q0 -99 -35 -178q-34 -77 -90 -130q-55 -52 -127 -79t-145 -27q-62 0 -105 12q-42 12 -76 27l-43 -39h-24v922h-129v24zM485 1255q-67 0 -116 -31q-48 -30 -88 -83v-428q29 -21 66 -36t83 -15
q118 0 187 88t69 229q0 120 -50 199q-49 77 -151 77z" />
    <glyph glyph-name="battery_1" unicode="&#xe0b2;" horiz-adv-x="1167" 
d="M1044 1167v-1167h-921v1167h205v164h512v-164h204zM193 373h782v729h-782v-729z" />
    <glyph glyph-name="battery_2" unicode="&#xe0b3;" horiz-adv-x="1167" 
d="M1044 1167v-1167h-921v1167h205v164h512v-164h204zM193 680h782v422h-782v-422z" />
    <glyph glyph-name="battery_3" unicode="&#xe0b4;" horiz-adv-x="1167" 
d="M1044 1167v-1167h-921v1167h205v164h512v-164h204z" />
    <glyph glyph-name="black_frowning_face" unicode="&#xe1d4;" horiz-adv-x="1738" 
d="M897 -61q-159 0 -292 54q-134 54 -230 150q-97 97 -151 231t-54 292t54 291q54 134 151 231q96 96 230 150q136 55 292 55t292 -55q134 -54 230 -150q97 -97 151 -231q54 -133 54 -291t-54 -292t-151 -231q-96 -96 -230 -150q-133 -54 -292 -54zM1147 709q61 0 101 40
t40 101t-40 101t-101 40t-101 -40t-40 -101t40 -101t101 -40zM647 709q62 0 102 40q39 39 39 101t-39 101q-40 40 -102 40q-61 0 -101 -40t-40 -101t40 -101t101 -40zM897 551q-123 0 -215 -75t-141 -197q76 65 169 91q91 25 187 25t187 -25q93 -26 169 -91
q-49 122 -141 197t-215 75z" />
    <glyph glyph-name="breve.cap" unicode="&#xe1fd;" horiz-adv-x="1024" 
d="M512 1434q-109 0 -177 65q-69 66 -69 180h51q0 -68 60 -95q62 -28 135 -28t135 28q60 27 60 95h51q0 -114 -69 -180q-68 -65 -177 -65z" />
    <glyph glyph-name="c.sup" unicode="&#xe200;" horiz-adv-x="763" 
d="M199 1004q0 -169 76 -236q77 -68 171 -68q82 0 147 45t87 150h33q-21 -141 -95 -218t-206 -77q-64 0 -122 21q-61 22 -104 62t-71 108q-27 66 -27 155q0 90 33 165t87 126q55 52 125 80q72 29 146 29q92 0 153 -38q60 -38 60 -104q0 -12 -5 -29q-3 -10 -13 -30h-23
q-40 71 -97 100q-60 31 -122 31q-96 0 -165 -74q-68 -72 -68 -198z" />
    <glyph glyph-name="caron.cap" unicode="&#xe201;" horiz-adv-x="1024" 
d="M225 1679l287 -112l287 112v-24l-267 -221h-40l-267 221v24z" />
    <glyph glyph-name="cent.LT" unicode="&#xe202;" 
d="M666 1229v-187q20 2 26 2h27q127 0 210 -53t83 -147q0 -22 -7 -43q-6 -19 -20 -43h-22q-55 102 -133 152q-78 51 -164 55v-856h6q117 0 208 67q92 68 126 225h34q-27 -193 -117 -299q-92 -108 -257 -120v-187h-70v185q-83 5 -154 35q-70 30 -130 93q-55 58 -90 151
q-34 90 -34 214q0 110 32 204q32 93 87 165q56 73 130 120q72 46 159 68v199h70zM313 559q0 -212 84 -317q83 -104 199 -127v846q-119 -21 -201 -127t-82 -275z" />
    <glyph glyph-name="cent.OP" unicode="&#xe203;" horiz-adv-x="1015" 
d="M580 1229v-187q20 2 26 2h27q127 0 210 -53t83 -147q0 -22 -7 -43q-6 -19 -20 -43h-22q-55 102 -133 152q-78 51 -164 55v-856h6q117 0 208 67q92 68 126 225h34q-27 -193 -117 -299q-92 -108 -257 -120v-187h-70v185q-83 5 -154 35q-70 30 -130 93q-55 58 -90 151
q-34 90 -34 214q0 110 32 204q32 93 87 165q56 73 130 120q72 46 159 68v199h70zM227 559q0 -212 84 -317q83 -104 199 -127v846q-119 -21 -201 -127t-82 -275z" />
    <glyph glyph-name="cent.OT" unicode="&#xe204;" 
d="M666 1229v-187q20 2 26 2h27q127 0 210 -53t83 -147q0 -22 -7 -43q-6 -19 -20 -43h-22q-55 102 -133 152q-78 51 -164 55v-856h6q117 0 208 67q92 68 126 225h34q-27 -193 -117 -299q-92 -108 -257 -120v-187h-70v185q-83 5 -154 35q-70 30 -130 93q-55 58 -90 151
q-34 90 -34 214q0 110 32 204q32 93 87 165q56 73 130 120q72 46 159 68v199h70zM313 559q0 -212 84 -317q83 -104 199 -127v846q-119 -21 -201 -127t-82 -275z" />
    <glyph glyph-name="cent.numr" unicode="&#xe207;" horiz-adv-x="763" 
d="M451 1282v-154q10 2 14 2h14q94 0 153 -37q60 -37 60 -104q0 -13 -5 -30q-2 -7 -13 -29h-23q-34 65 -88 96t-112 35v-576q79 1 144 46q62 43 85 149h33q-18 -130 -83 -207q-64 -75 -179 -86v-149h-66v147q-116 7 -207 92q-90 84 -90 254q0 154 87 256q88 103 210 131v164
h66zM199 788q0 -142 55 -210q56 -70 131 -86v565q-81 -17 -133 -87q-53 -71 -53 -182z" />
    <glyph glyph-name="circumflex.cap" unicode="&#xe215;" horiz-adv-x="1024" 
d="M225 1434v24l267 221h40l267 -221v-24l-287 112z" />
    <glyph glyph-name="comma.sup" unicode="&#xe217;" horiz-adv-x="417" 
d="M135 782h156v-28l-178 -348h-35z" />
    <glyph glyph-name="commaaccent.alt" unicode="&#xe218;" horiz-adv-x="1024" 
d="M676 1516h41l-103 -369h-184z" />
    <glyph glyph-name="d.sup" unicode="&#xe21c;" horiz-adv-x="897" 
d="M862 664l-241 -64v139q-47 -63 -107 -101q-61 -38 -135 -38q-147 0 -218 98q-73 100 -73 234q0 99 35 178q34 77 90 130q55 52 127 79t145 27q30 0 70 -6q22 -3 57 -13v193h-129v26l250 64v-922h129v-24zM408 690q66 0 116 32q48 30 88 83v428q-28 21 -66 36
q-37 15 -83 15q-119 0 -188 -88q-68 -87 -68 -229q0 -120 50 -199q50 -78 151 -78z" />
    <glyph glyph-name="dieresis.cap" unicode="&#xe22b;" horiz-adv-x="1024" 
d="M326 1667q50 0 80 -33t30 -78q0 -44 -30 -77t-80 -33t-80 33q-31 34 -31 77q0 44 31 78q30 33 80 33zM698 1667q50 0 80 -33q31 -34 31 -78q0 -43 -31 -77q-30 -33 -80 -33t-80 33t-30 77q0 45 30 78t80 33z" />
    <glyph glyph-name="dollar.LT" unicode="&#xe22e;" 
d="M625 1536v-184q100 -1 181 -30q75 -26 138 -65v-284h-24q-24 137 -106 217q-81 80 -189 96v-530q54 -27 131 -69q63 -35 116 -81q53 -47 83 -104q32 -61 32 -137q0 -161 -96 -263q-95 -101 -266 -118v-189h-70v185q-110 1 -202 27q-88 24 -154 67v336h24q12 -87 44 -153
q30 -62 77 -107q45 -44 100 -69q59 -27 111 -34v582q-98 49 -129 66q-67 37 -114 78q-53 46 -81 100q-30 57 -30 133q0 147 100 238t254 106v186h70zM313 1067q0 -100 72 -163q71 -62 170 -113v499q-105 -5 -173 -65q-69 -61 -69 -158zM872 295q0 111 -73 178
q-75 69 -174 119v-549q116 1 182 74q65 71 65 178z" />
    <glyph glyph-name="dollar.OP" unicode="&#xe22f;" horiz-adv-x="1034" 
d="M549 1536v-184q100 -1 181 -30q75 -26 138 -65v-284h-24q-24 137 -106 217q-81 80 -189 96v-530q54 -27 131 -69q66 -36 117 -81q53 -47 83 -104q31 -59 31 -137q0 -161 -96 -263q-95 -101 -266 -118v-189h-70v185q-109 1 -201 27q-90 25 -155 67v336h24q12 -87 44 -153
q30 -62 77 -107q45 -43 101 -69q59 -27 110 -34v582q-97 49 -129 66q-64 35 -113 78q-53 46 -81 100q-31 59 -31 133q0 147 100 238t254 106v186h70zM238 1067q0 -101 71 -163t170 -113v499q-105 -5 -173 -65q-68 -61 -68 -158zM797 295q0 110 -74 178q-75 69 -174 119v-549
q116 1 182 74q66 72 66 178z" />
    <glyph glyph-name="dollar.OT" unicode="&#xe230;" 
d="M625 1536v-184q100 -1 181 -30q75 -26 138 -65v-284h-24q-24 137 -106 217q-81 80 -189 96v-530q54 -27 131 -69q63 -35 116 -81q53 -47 83 -104q32 -61 32 -137q0 -161 -96 -263q-95 -101 -266 -118v-189h-70v185q-110 1 -202 27q-88 24 -154 67v336h24q12 -87 44 -153
q30 -62 77 -107q45 -44 100 -69q59 -27 111 -34v582q-98 49 -129 66q-67 37 -114 78q-53 46 -81 100q-30 57 -30 133q0 147 100 238t254 106v186h70zM313 1067q0 -100 72 -163q71 -62 170 -113v499q-105 -5 -173 -65q-69 -61 -69 -158zM872 295q0 111 -73 178
q-75 69 -174 119v-549q116 1 182 74q65 71 65 178z" />
    <glyph glyph-name="dollar.numr" unicode="&#xe233;" horiz-adv-x="786" 
d="M424 1495v-149q69 -1 126 -22q50 -18 97 -44v-199h-26q-15 87 -69 138t-128 63v-344q18 -9 52 -28t39 -22q45 -25 82 -60t58 -75q23 -43 23 -98q0 -108 -68 -181q-68 -72 -186 -87v-151h-66v149q-72 1 -141 21q-63 18 -108 45v235h24q15 -111 82 -166q65 -54 143 -69v380
l-90 50q-45 24 -80 56q-34 31 -56 73q-21 40 -21 94q0 101 70 164q71 63 177 75v152h66zM207 1147q0 -59 44 -100t107 -74v313q-64 -6 -108 -44q-43 -37 -43 -95zM578 606q0 66 -46 110q-47 46 -108 79v-349q72 5 113 50q41 46 41 110z" />
    <glyph glyph-name="dotaccent.cap" unicode="&#xe295;" horiz-adv-x="1024" 
d="M512 1673q51 0 84 -35t33 -82q0 -46 -33 -81t-84 -35t-84 35t-33 81q0 48 33 82q33 35 84 35z" />
    <glyph glyph-name="downwards_white_arrow" unicode="&#xe298;" horiz-adv-x="1579" 
d="M123 1331h1333l-665 -1351zM1352 1266h-1123l562 -1145z" />
    <glyph glyph-name="e.sup" unicode="&#xe29c;" horiz-adv-x="884" 
d="M750 1102v-47h-517q-1 -4 -2 -12.5t-1 -12.5q-1 -8 -1 -26q0 -164 77 -229q76 -64 171 -64q90 0 162 42q71 41 92 142h35q-21 -142 -100 -218q-80 -77 -224 -77q-62 0 -121 21q-61 22 -104 62q-45 42 -72 108q-26 64 -26 155q0 89 32 165t82 126q51 51 118 80t136 29
q68 0 120 -22q50 -21 82 -56q30 -33 46 -79q15 -43 15 -87zM463 1294q-73 0 -132 -48q-58 -48 -85 -130h350q14 0 20 6q7 7 7 19q0 47 -38 100t-122 53z" />
    <glyph glyph-name="eight.LT" unicode="&#xe29d;" 
d="M1014 340q0 -159 -113 -260q-112 -100 -301 -100q-200 0 -313 96t-113 231q0 74 27 131q28 59 70 104q41 44 102 84q46 30 116 74q-102 60 -189 141q-83 77 -83 195q0 142 104 229t275 87q172 0 269 -81q98 -81 98 -196q0 -66 -26 -116q-25 -48 -65 -90q-36 -38 -87 -71
q-64 -42 -95 -61q66 -37 120 -73q56 -37 103 -86q46 -48 73 -106q28 -61 28 -132zM344 1087q0 -53 25 -101q24 -46 65 -84q40 -37 94 -71q15 -9 111 -65q87 60 137 135q49 73 49 174t-66 158t-171 57q-106 0 -174 -56q-70 -58 -70 -147zM315 307q0 -122 81 -194t210 -72
q122 0 202 69q79 69 79 179q0 69 -30 125q-30 55 -79 100q-51 46 -111 82q-21 13 -63 37.5t-63 36.5q-104 -73 -165 -160t-61 -203z" />
    <glyph glyph-name="eight.OP" unicode="&#xe29e;" horiz-adv-x="1044" 
d="M942 340q0 -159 -113 -260q-112 -100 -301 -100q-200 0 -313 96t-113 231q0 74 27 131t71 104q43 46 101 84q27 17 117 74q-105 62 -190 141q-83 77 -83 195q0 142 104 229t275 87q172 0 270 -81q97 -81 97 -196q0 -66 -26 -116q-26 -51 -64 -90q-36 -38 -87 -71
q-50 -33 -96 -61q66 -37 120 -73q59 -39 104 -86q44 -46 72 -106q28 -61 28 -132zM272 1087q0 -53 25 -101q24 -46 65 -84q38 -35 95 -71q27 -17 110 -65q89 62 138 135t49 174q0 100 -67 158q-66 57 -171 57q-106 0 -174 -56q-70 -58 -70 -147zM244 307q0 -122 81 -194
t210 -72q121 0 201 69q79 69 79 179q0 69 -30 125q-31 57 -78 100q-49 44 -112 82q-21 13 -63 37.5t-63 36.5q-104 -73 -165 -160q-60 -86 -60 -203z" />
    <glyph glyph-name="eight.OT" unicode="&#xe29f;" 
d="M1014 340q0 -159 -113 -260q-112 -100 -301 -100q-200 0 -313 96t-113 231q0 74 27 131q28 59 70 104q41 44 102 84q46 30 116 74q-102 60 -189 141q-83 77 -83 195q0 142 104 229t275 87q172 0 269 -81q98 -81 98 -196q0 -66 -26 -116q-25 -48 -65 -90q-36 -38 -87 -71
q-64 -42 -95 -61q66 -37 120 -73q56 -37 103 -86q46 -48 73 -106q28 -61 28 -132zM344 1087q0 -53 25 -101q24 -46 65 -84q40 -37 94 -71q15 -9 111 -65q87 60 137 135q49 73 49 174t-66 158t-171 57q-106 0 -174 -56q-70 -58 -70 -147zM315 307q0 -122 81 -194t210 -72
q122 0 202 69q79 69 79 179q0 69 -30 125q-30 55 -79 100q-51 46 -111 82q-21 13 -63 37.5t-63 36.5q-104 -73 -165 -160t-61 -203z" />
    </font>
</defs>
</svg>
