<?xml version="1.0" standalone="no"?>
<!DOCTYPE svg PUBLIC "-//W3C//DTD SVG 1.1//EN" "http://www.w3.org/Graphics/SVG/1.1/DTD/svg11.dtd" >
<svg xmlns="http://www.w3.org/2000/svg" xmlns:xlink="http://www.w3.org/1999/xlink" version="1.1">
<metadata>
Created by FontForge 20170731 at Fri Dec 31 01:44:54 2021
 By Aleksey,,,
Copyright (c) 2020 by Bureau Brut. All rights reserved.
</metadata>
<defs>
<font id="BoogyBrutWildWEBL-Black" horiz-adv-x="2048" >
  <font-face 
    font-family="Boogy Brut Wild WEBL Black"
    font-weight="900"
    font-stretch="normal"
    units-per-em="2048"
    panose-1="2 0 0 0 0 0 0 0 0 0"
    ascent="1536"
    descent="-512"
    x-height="1516"
    cap-height="1538"
    bbox="-20 -967 2048 2109"
    underline-thickness="36"
    underline-position="-712"
    unicode-range="U+0020-F8FF"
  />
<missing-glyph 
d="M0 -512v2048h2048v-2048h-2048zM1186 1077q48 0 78 -24t30 -66q0 -50 -73 -107q-67 -52 -163 -117q-90 -61 -163 -125q-74 -65 -74 -130q0 -73 45 -136q44 -61 115 -120l4 4q-5 5 -7 12q-1 4 -1 15q0 46 76 95q60 39 165 110q82 56 164 136q76 75 76 169q0 69 -31 136
q-29 63 -90 113q-60 50 -147 79q-89 30 -203 30q-201 0 -287 -66t-86 -153q0 -48 26 -94q25 -44 65 -84h18q105 141 232 232t231 91zM1026 -221q91 0 149 58t58 147q0 88 -58 146t-149 58q-90 0 -148 -58q-59 -59 -59 -146q0 -88 59 -147q58 -58 148 -58z" />
    <glyph glyph-name=".notdef" 
d="M0 -512v2048h2048v-2048h-2048zM1186 1077q48 0 78 -24t30 -66q0 -50 -73 -107q-67 -52 -163 -117q-90 -61 -163 -125q-74 -65 -74 -130q0 -73 45 -136q44 -61 115 -120l4 4q-5 5 -7 12q-1 4 -1 15q0 46 76 95q60 39 165 110q82 56 164 136q76 75 76 169q0 69 -31 136
q-29 63 -90 113q-60 50 -147 79q-89 30 -203 30q-201 0 -287 -66t-86 -153q0 -48 26 -94q25 -44 65 -84h18q105 141 232 232t231 91zM1026 -221q91 0 149 58t58 147q0 88 -58 146t-149 58q-90 0 -148 -58q-59 -59 -59 -146q0 -88 59 -147q58 -58 148 -58z" />
    <glyph glyph-name=".null" horiz-adv-x="0" 
 />
    <glyph glyph-name="nonmarkingreturn" horiz-adv-x="682" 
 />
    <glyph glyph-name="space" unicode=" " horiz-adv-x="512" 
 />
    <glyph glyph-name="exclam" unicode="!" horiz-adv-x="512" 
d="M258 61h-6l-207 1434h420zM256 -492q-89 0 -148 59t-59 146q0 88 59 147q58 58 148 58t148 -58q59 -59 59 -147q0 -87 -59 -146t-148 -59z" />
    <glyph glyph-name="quotedbl" unicode="&#x22;" horiz-adv-x="1024" 
d="M303 811l-147 684h301l-148 -684h-6zM713 811l-148 684h301l-147 -684h-6z" />
    <glyph glyph-name="numbersign" unicode="#" horiz-adv-x="1024" 
d="M123 762h223l148 672h34l-147 -672h373l147 672h35l-148 -672h226v-31h-232l-98 -438h217v-31h-223l-148 -672h-34l147 672h-373l-147 -672h-35l148 672h-226v31h232l98 438h-217v31zM276 293h373l99 438h-373z" />
    <glyph glyph-name="dollar" unicode="$" horiz-adv-x="1024" 
d="M59 -369v633h4q40 -252 139 -408q100 -156 201 -223v752q-72 60 -141 123q-74 67 -123 132q-54 71 -86 148q-33 80 -33 175q0 135 37 239t103 173t157 105q92 36 201 36q105 0 201 -15t207 -84v-573h-4q-40 196 -117 327q-79 134 -160 201v-721q81 -70 134 -121
q63 -60 114 -128q50 -66 80 -139q31 -74 31 -154q0 -140 -36 -251q-37 -113 -102 -189q-68 -78 -156 -119q-92 -42 -200 -42t-221 22q-108 21 -230 101zM440 831q31 -31 82 -75l86 -74v719q-47 31 -87 47q-42 16 -81 18v-635zM211 1245q0 -110 55 -201q58 -95 137 -176v596
q-92 -8 -142 -68q-50 -61 -50 -151zM606 -436h2v645q-41 41 -82 75q-52 43 -86 70v-743q45 -24 87 -36q39 -11 79 -11zM821 -190q0 106 -50 195q-51 91 -126 169v-608q83 12 130 78q46 65 46 166z" />
    <glyph glyph-name="ampersand" unicode="&#x26;" horiz-adv-x="1638" 
d="M1638 -467h-456l-164 207q-94 -117 -204 -174q-111 -58 -257 -58q-115 0 -215 39t-174 108t-116 164t-42 206q0 184 101 309t292 201q-94 144 -142 263q-48 120 -48 226q0 176 131 293q130 117 367 117q232 0 354 -95q121 -94 121 -249q0 -148 -116 -267
q-115 -118 -318 -184q36 -48 67 -87l78 -97l307 -381q18 57 30 117q11 55 11 116q0 101 -69 171q-69 71 -244 71v4h706v-4q-57 0 -118 -38q-60 -38 -113 -104q-52 -66 -101 -157q-48 -90 -87 -195zM461 1194q0 -41 8 -87q7 -39 37 -103q26 -55 83 -142q49 -75 144 -200
q94 76 136 191q42 116 42 245q0 143 -60 227t-181 84q-95 0 -152 -51t-57 -164zM287 190q0 -108 36 -197t99 -152q62 -63 151 -97q90 -35 191 -35q72 0 128 13q58 14 105 42l-405 517q-15 19 -92 120q-11 15 -80 111q-71 -59 -102 -141q-31 -83 -31 -181z" />
    <glyph glyph-name="quotesingle" unicode="'" horiz-adv-x="512" 
d="M252 811l-148 684h302l-148 -684h-6z" />
    <glyph glyph-name="parenleft" unicode="(" horiz-adv-x="512" 
d="M358 512q0 -153 3 -294q3 -130 19 -263q15 -124 48 -233t90 -199l-4 -4q-262 136 -378 381q-116 244 -116 612q0 366 117 612t377 381l4 -4q-112 -182 -136 -433t-24 -556z" />
    <glyph glyph-name="parenright" unicode=")" horiz-adv-x="512" 
d="M154 512q0 306 -24 556q-24 251 -136 433l4 4q260 -135 377 -381t117 -612q0 -368 -116 -612q-116 -245 -378 -381l-4 4q57 90 90 199t48 233q16 133 19 263q3 141 3 294z" />
    <glyph glyph-name="asterisk" unicode="*" horiz-adv-x="1024" 
d="M698 1495l-188 -477l-184 477h372zM1026 991l-516 27l405 313zM-2 991l113 338l399 -311zM510 1018l-137 -498l-283 219zM655 524l-145 494l428 -279z" />
    <glyph glyph-name="plus" unicode="+" horiz-adv-x="1024" 
d="M113 528h381v394h36v-394h381v-30h-381v-394h-36v394h-381v30z" />
    <glyph glyph-name="comma" unicode="," horiz-adv-x="512" 
d="M94 193h359l-390 -705h-4z" />
    <glyph glyph-name="hyphen" unicode="-" horiz-adv-x="512" 
d="M51 520h410v-37h-410v37z" />
    <glyph glyph-name="period" unicode="." horiz-adv-x="512" 
d="M256 -492q-89 0 -148 59t-59 146q0 88 59 147q58 58 148 58t148 -58q59 -59 59 -147q0 -87 -59 -146t-148 -59z" />
    <glyph glyph-name="slash" unicode="/" horiz-adv-x="512" 
d="M57 -471h-37l435 1966h37z" />
    <glyph glyph-name="zero" unicode="0" 
d="M2038 512q0 -201 -70 -390q-68 -184 -201 -323q-131 -137 -319 -219t-424 -82t-424 82t-319 219q-133 139 -201 323q-70 189 -70 390t70 390q68 184 201 323q131 137 319 219t424 82t424 -82t319 -219q133 -139 201 -323q70 -189 70 -390zM41 512q0 -123 68 -215
q69 -93 193 -151q126 -58 309 -87q180 -28 413 -28q235 0 415 28q183 29 309 87q125 58 192 151t67 215q0 123 -67 216q-66 92 -192 150t-309 87q-180 28 -415 28q-233 0 -413 -28q-183 -29 -309 -87q-125 -58 -193 -150t-68 -216z" />
    <glyph glyph-name="one" unicode="1" 
d="M1194 1049q-55 -64 -100 -108q-59 -57 -121 -101v-246q0 -116 -8 -236q-7 -106 -23 -211q186 -42 350 -75q167 -33 295 -49v1513h31v-1516q7 0 20.5 -1t20.5 -2q14 -1 37 -1q142 0 224 87q82 86 103 245h5v-547q0 -142 -58 -223q-57 -80 -170 -80q-65 0 -176 21
q-120 23 -247 52q-133 31 -286 72q-53 14 -152 40t-144 38q-68 -103 -170 -158t-236 -55q-160 0 -265 88q-104 87 -104 240v316q0 84 29 122q28 37 105 37q37 0 109 -13q70 -13 176 -36q94 -21 223 -51q162 -38 247 -57q18 99 25 200q8 118 8 240v225q-105 -71 -237 -118
q-129 -46 -279 -46q-120 0 -214 23q-90 22 -192 80v696h5q7 -65 50 -114q41 -47 108 -79q68 -33 156 -49q86 -16 191 -16q284 0 545 71q260 71 502 269h10zM51 -225q0 -70 77 -106t200 -36q120 0 214 27q95 27 167 84q-178 45 -332 81q-145 34 -215 34q-58 0 -85 -19
q-26 -18 -26 -65z" />
    <glyph glyph-name="two" unicode="2" 
d="M1794 -492q-66 0 -205 31q-131 29 -295 74q-62 17 -183 49.5t-143 38.5q-190 51 -296 76q-129 -123 -238 -195q-112 -74 -219 -74q-100 0 -147 53q-48 54 -48 175v532l768 123q358 57 518 180t160 334q0 110 -50 210t-144 173q-97 75 -234 118q-141 44 -313 44
q-112 0 -199 -20q-92 -21 -158 -60q-68 -40 -106 -96q-39 -57 -39 -131q0 -89 44 -138t122 -49q98 0 175 94q78 95 102 267h4v-348q0 -202 -86 -324q-85 -121 -250 -121q-141 0 -233 87q-91 87 -91 280q0 135 60 253q60 119 182 202q123 84 318 132t464 48q222 0 405 -34
q185 -34 318 -100t207 -164t74 -224q0 -145 -77 -248q-77 -102 -223 -174q-149 -73 -361 -122q-229 -53 -486 -91l-625 -95v-30q259 -45 470 -77q252 -39 431 -62q178 -23 342 -40q155 -16 207 -16q126 0 212 86q84 84 95 213h5v-526q6 -171 -58 -243q-63 -71 -176 -71z" />
    <glyph glyph-name="three" unicode="3" 
d="M1466 967q0 97 -50 186q-49 88 -144 154q-92 64 -234 104q-139 39 -313 39q-112 0 -199 -20q-92 -21 -158 -60q-68 -40 -106 -96q-39 -57 -39 -131q0 -89 44 -138t122 -49q98 0 175 94q78 95 102 267h4v-348q0 -202 -86 -324q-85 -121 -250 -121q-141 0 -233 87
q-91 87 -91 280q0 135 60 253q60 119 182 202q123 84 318 132t464 48q213 0 405 -31q180 -29 318 -91q133 -60 207 -149t74 -202q0 -123 -77 -215q-78 -93 -223 -160q-152 -70 -361 -118q-223 -51 -486 -89l-184 -27v-86h1208q64 0 88 -37q25 -39 25 -124v-324
q0 -158 -54 -252q-53 -92 -133 -92q-71 0 -193 70q-117 67 -255 170q-124 -37 -302 -92q-152 -47 -305 -87q-140 -36 -294 -65q-146 -27 -277 -27q-101 0 -147 69q-48 71 -48 193v588h5q11 -160 102 -247q92 -87 278 -87q183 0 395 29q202 28 406 74q212 48 376 101
q174 56 302 110h-1571v90l475 76q356 57 518 169q160 111 160 304z" />
    <glyph glyph-name="four" unicode="4" 
d="M20 164v463l615 889h1167l-1341 -685v-266l96 -14q186 -27 338 -44q142 -16 325 -34q142 -14 276 -22q149 -9 198 -9q31 0 58 3q21 2 50 10v1061h31v-1053q100 33 139 114t51 177h5v-523q0 -132 -41 -214q-40 -80 -154 -95v-414h-1403v588q-111 18 -216 36q-38 6 -103 17
t-91 15zM51 623l379 -54v246zM1780 -82q-66 0 -208 15q-105 11 -324 40q-110 15 -387 57q-73 11 -207 32t-193 30v-350h1341v176h-11h-11z" />
    <glyph glyph-name="five" unicode="5" 
d="M1794 1526q113 0 176 -71q64 -72 58 -243v-526h-5q-11 129 -95 213q-86 86 -212 86q-56 0 -210 -28q-151 -27 -347 -72q-205 -47 -431 -102q-41 -10 -207 -50.5t-255 -62.5v-31h625q549 0 849 -157q298 -156 298 -423q0 -132 -74 -236t-207 -173q-137 -71 -318 -106
q-186 -36 -405 -36q-265 0 -464 49q-195 48 -318 132t-182 201q-60 118 -60 253q0 193 91 280q92 87 233 87q165 0 250 -121q86 -122 86 -323v-349h-4q-24 173 -102 268q-76 93 -175 93q-79 0 -122 -48q-44 -49 -44 -139q0 -74 39 -131q38 -56 106 -96q63 -37 158 -59
q92 -21 199 -21q172 0 313 44q137 43 234 118q94 73 144 173t50 210q0 99 -38 189t-119 155q-83 66 -211 105q-126 38 -310 38h-768v682q0 122 48 176q46 52 147 52q108 0 212 -85q116 -95 235 -212q154 43 303 88q123 37 327 97q143 42 295 79q135 33 207 33z" />
    <glyph glyph-name="six" unicode="6" 
d="M1982 655q-96 233 -332 341q-237 108 -591 108q-210 0 -396 -45q-184 -45 -321 -145q-135 -99 -213 -257q-78 -157 -78 -381v-747h-31v747q0 285 73 519q71 228 207 393q132 160 328 250q192 88 431 88q225 0 395 -72q172 -73 284 -191q113 -119 175 -278t74 -330h-5z
M1055 850q234 0 415 -55t306 -148q122 -91 187 -215t65 -258t-65 -258t-187 -215q-123 -91 -306 -147q-185 -56 -415 -56q-231 0 -416 56q-181 55 -305 147q-123 92 -188 215q-64 122 -64 258t64 258q65 123 188 215q126 94 305 148q181 55 416 55zM737 768q-144 0 -225 -59
q-82 -60 -82 -187q0 -149 92 -316q90 -164 231 -305q138 -139 305 -230q166 -91 314 -91q142 0 225 60q82 60 82 186q0 148 -93 314q-94 169 -232 305q-144 143 -305 231q-167 92 -312 92z" />
    <glyph glyph-name="seven" unicode="7" 
d="M254 1526q66 0 205 -31q131 -29 295 -74q18 -5 139 -38l187 -51q165 -46 296 -75q129 123 238 195q112 74 219 74q101 0 147 -52q48 -54 48 -176v-532l-768 -123q-358 -57 -518 -180t-160 -334q0 -110 50 -210t144 -173q97 -75 234 -118q141 -44 313 -44q107 0 199 21
q95 22 158 59q68 40 106 96q39 57 39 131q0 90 -44 139q-43 48 -122 48q-99 0 -175 -93q-78 -95 -102 -268h-4v349q0 201 86 323q85 121 250 121q142 0 233 -87t91 -280q0 -135 -60 -253q-59 -117 -182 -201t-318 -132q-199 -49 -464 -49q-222 0 -405 34q-182 34 -318 101
q-134 66 -207 163q-74 98 -74 225q0 145 77 248q77 102 223 174q146 71 361 121q241 56 486 92l625 94v31q-204 35 -470 76q-252 39 -431 62q-215 28 -342 41q-145 15 -207 15q-126 0 -212 -86q-84 -84 -95 -213h-5v526q-6 171 58 243q63 71 176 71z" />
    <glyph glyph-name="eight" unicode="8" 
d="M1024 -502q-487 0 -750 136q-264 136 -264 386q0 201 137 311q135 109 357 142q-249 106 -341 219q-91 112 -91 271q0 113 63 215q64 103 183 179q120 77 298 123q177 46 408 46q232 0 408 -37q179 -38 298 -103q121 -67 183 -155q63 -90 63 -195q0 -85 -46 -150
q-48 -68 -120 -115q-74 -48 -169 -80q-97 -32 -191 -44q276 -108 432 -240t156 -305q0 -282 -264 -443q-265 -161 -750 -161zM1167 748l120 -40q70 -23 114 -40q98 27 146 86q50 61 50 131q0 102 -63 204q-62 100 -176 181t-271 130q-159 50 -344 50q-167 0 -269 -49
q-103 -49 -103 -170q0 -62 19 -110q20 -51 76 -95q57 -45 156 -90q97 -44 259 -96zM360 176q0 -130 84 -242t216 -195q134 -84 301 -130q170 -47 333 -47q193 0 299 68q109 70 109 175q0 143 -143 250q-147 110 -392 189l-286 92q-146 49 -184 62q-74 26 -154 59
q-82 -28 -133 -99q-50 -70 -50 -182z" />
    <glyph glyph-name="nine" unicode="9" 
d="M993 174q-234 0 -415 55t-306 148q-122 91 -187 215t-65 258t65 258t187 215q123 91 306 147q185 56 415 56q231 0 416 -56q181 -55 305 -147q123 -92 188 -215q64 -122 64 -258t-64 -258q-65 -123 -188 -215q-126 -94 -305 -148q-181 -55 -416 -55zM66 369
q96 -233 332 -341q237 -108 591 -108q210 0 396 45q184 45 321 145q135 99 213 257q78 157 78 381v747h31v-747q0 -285 -73 -519q-71 -228 -207 -393q-132 -160 -328 -250q-192 -88 -431 -88q-226 0 -395 72q-172 73 -284 191q-113 119 -175 278t-74 330h5zM1311 256
q144 0 225 59q82 60 82 187q0 149 -92 316q-90 164 -231 305q-139 138 -305 230q-166 91 -314 91q-142 0 -225 -60q-82 -60 -82 -186q0 -148 93 -314q94 -169 232 -305q144 -143 305 -231q167 -92 312 -92z" />
    <glyph glyph-name="colon" unicode=":" horiz-adv-x="512" 
d="M256 -492q-89 0 -148 59t-59 146q0 88 59 147q58 58 148 58t148 -58q59 -59 59 -147q0 -87 -59 -146t-148 -59zM256 635q-90 0 -148 58q-59 59 -59 147q0 87 59 146q58 58 148 58t148 -58q59 -59 59 -146q0 -88 -59 -147q-58 -58 -148 -58z" />
    <glyph glyph-name="semicolon" unicode=";" horiz-adv-x="512" 
d="M256 635q-90 0 -148 58q-59 59 -59 147q0 87 59 146q58 58 148 58t148 -58q59 -59 59 -146q0 -88 -59 -147q-58 -58 -148 -58zM94 193h359l-390 -705h-4z" />
    <glyph glyph-name="less" unicode="&#x3c;" horiz-adv-x="1024" 
d="M82 502v24l758 389v-34l-717 -367l717 -367v-34z" />
    <glyph glyph-name="equal" unicode="=" horiz-adv-x="1024" 
d="M113 690h798v-31h-798v31zM113 362h798v-30h-798v30z" />
    <glyph glyph-name="greater" unicode="&#x3e;" horiz-adv-x="1024" 
d="M942 502l-758 -389v34l717 367l-717 367v34l758 -389v-24z" />
    <glyph glyph-name="question" unicode="?" horiz-adv-x="1024" 
d="M604 1475q-89 0 -171 -47q-80 -46 -143 -137q-63 -92 -102 -230q-40 -142 -47 -326h-4q-66 106 -96 190q-31 88 -31 187q0 82 29 155t90 128t159 88t236 33q230 0 360 -121t130 -344q0 -129 -81 -257q-82 -130 -177 -242q-96 -114 -177 -210t-81 -162q0 -62 39 -96
q40 -36 149 -37v-4q-268 -15 -377 59q-108 74 -108 203q0 102 103 229q113 139 227 260q127 135 228 259q103 127 103 223q0 97 -68 147q-70 52 -190 52zM457 -492q-90 0 -149 59q-58 58 -58 146q0 89 58 147t149 58q90 0 148 -58q59 -59 59 -147q0 -87 -59 -146t-148 -59z
" />
    <glyph glyph-name="at" unicode="@" 
d="M1497 -68q-77 0 -154 16q-72 15 -124 55q-54 42 -85 111q-32 72 -32 181v27q-21 -179 -120 -284q-100 -106 -239 -106q-117 0 -188 54q-70 53 -70 145q0 49 35 82q33 32 115 72l467 215v270q0 114 -35 182t-137 68q-128 0 -178 -116t6 -292q-57 -35 -112 -47
q-57 -12 -116 -6q-21 57 -9 115q13 60 45 109q37 57 86 104q54 53 112 96q102 77 204 139q99 60 203 60q172 0 244 -91t72 -223v-585q0 -114 46 -161q47 -48 128 -48q120 0 208 148q89 149 89 407q0 184 -65 341q-66 158 -181 271q-119 116 -279 179q-165 65 -360 65
q-209 0 -395 -73q-181 -71 -311 -203t-203 -310q-74 -181 -74 -393q0 -208 67 -389q66 -179 189 -306q124 -128 303 -200q180 -72 404 -72q131 0 253 30q124 31 222 79l16 -25q-104 -55 -229 -85t-262 -30q-227 0 -412 75q-184 75 -313 207q-130 133 -200 315
q-71 184 -71 401q0 220 76 405q77 188 211 320q133 131 323 209q186 76 406 76q194 0 365 -64q167 -63 289 -180q124 -119 192 -281q70 -166 70 -362q0 -163 -39 -294q-38 -128 -106 -219q-67 -90 -156 -136q-93 -48 -191 -48zM825 246q0 -42 24 -61q23 -19 75 -19
q76 0 127 74t51 192v35l-127 -62q-80 -39 -114 -71q-36 -34 -36 -88z" />
    <glyph glyph-name="A" unicode="A" 
d="M20 -492v725q0 61 19 89q17 26 59 26q28 0 80 -33q86 -54 120 -78q66 -47 141 -99q70 -49 141 -91q55 101 84 202q28 97 28 208q0 179 -95 291q-94 110 -257 110q-114 0 -199 -50q-82 -48 -116 -153h-5v717q63 64 160 104q98 40 195 40q120 0 208 -50q85 -49 143 -138
q57 -88 84 -218q28 -134 28 -289q0 -98 -21 -208q-23 -119 -53 -215q-33 -105 -75 -201q-42 -97 -83 -166q34 -18 74 -34q33 -13 61 -13q63 0 100 58q38 59 38 136v1157q0 87 31 133q33 48 96 48q64 0 153 -47q87 -46 182 -115l349 -256l333 356h5v-481q0 -203 -86 -316
q-85 -111 -222 -116q-61 -2 -124 33q-60 33 -132 90q-1 -153 26 -269q27 -112 73 -188q45 -73 105 -111q59 -37 122 -37q105 0 162 71q56 69 71 218h5v-383q0 -198 -78 -327q-79 -130 -236 -130q-156 0 -248 109t-92 268q0 74 3 155t9 165h-477v-535q0 -75 -41 -119
q-40 -43 -116 -43q-74 0 -190 55q-101 48 -228 103q-67 -52 -157 -104q-91 -53 -157 -54zM909 862v-309h514q1 12 8 64q3 21 11 65q-68 57 -123 106q-77 69 -117 103q-65 54 -104 78q-50 30 -88 30q-58 0 -79 -34q-22 -36 -22 -103z" />
    <glyph glyph-name="B" unicode="B" 
d="M1004 664q0 -113 -31 -251q-30 -134 -74 -231q29 -18 72 -40q9 -4 23.5 -12t26.5 -14.5t23 -11.5v744q0 209 37 372q37 162 95 306q81 -34 209 -91q139 -62 257 -127q124 -68 217 -142q91 -72 91 -134q0 -43 -50 -104q-45 -54 -120 -118q-71 -60 -145 -112
q-88 -62 -126 -84h312q63 0 103 -20q44 -22 67 -51q22 -27 35 -72q12 -40 12 -80q0 -152 -53 -314q-51 -156 -141 -291q-86 -129 -198 -214q-111 -84 -227 -84q-58 0 -142 32q-79 30 -178 82q-90 47 -200 110q-159 91 -209 118q-52 -64 -106 -120q-55 -57 -120 -103
q-64 -46 -128 -72q-66 -27 -129 -27q-96 0 -141 63q-46 64 -46 165v698q0 78 27 118t96 40q43 0 117 -36q82 -40 168 -92q94 -57 207 -126q137 -84 235 -139q21 57 36 123q16 70 16 116q0 114 -35 208t-96 158q-60 63 -148 100q-85 36 -188 36q-88 0 -161 -26
q-76 -27 -127 -65q-54 -40 -91 -91q-35 -47 -51 -103h-5v717q70 62 180 103q111 41 224 41q273 0 427 -226q153 -225 153 -626zM1075 848v-234h389q35 22 64 63q31 43 31 77q0 46 -47 90q-46 43 -115 76q-64 31 -155 53q-80 20 -161 26q0 -10 -1.5 -34.5t-2.5 -38.5
q-2 -52 -2 -78zM1708 268h-633v-178q148 -74 309 -125q154 -49 301 -49q125 0 191 42q65 41 65 134q0 101 -61 138q-62 38 -172 38zM51 -121q0 -77 64 -118q62 -40 166 -40q131 0 230 35q97 34 150 90q-135 75 -253 122q-124 50 -220 50q-60 0 -98 -31q-39 -31 -39 -108z
" />
    <glyph glyph-name="C" unicode="C" 
d="M1059 -506q-248 0 -444 89q-194 88 -329 244t-205 366q-71 213 -71 450q0 429 171 660t489 231q146 0 302 -54q147 -51 302 -118q230 -99 274 -118q129 -54 221 -54q89 0 138 55t49 125q0 40 -8 82q-6 33 -27 78l4 4q37 -54 76 -154q37 -95 37 -202q0 -124 -30 -219
q-30 -94 -80 -158q-49 -62 -120 -96q-69 -33 -147 -33q-72 0 -145 23q-74 23 -153 62q-72 35 -157 85q-92 54 -162 92v-979h9h8q380 0 614 147t359 412h4q-33 -203 -105 -390q-72 -186 -190 -325t-289 -222t-395 -83zM45 643q0 -175 79 -303q80 -130 211 -212
q132 -82 308 -126q171 -42 371 -47v995q-131 73 -248 120q-126 50 -248 50q-98 0 -180 -26q-87 -27 -151 -84q-63 -56 -103 -149q-39 -91 -39 -218z" />
    <glyph glyph-name="D" unicode="D" 
d="M10 -287v684q0 97 30 131q30 35 93 35q42 0 130 -35q84 -33 200 -89q121 -58 248 -123q126 -64 274 -136q22 56 36 118q13 58 13 122q0 115 -38 218q-37 101 -108 175q-72 75 -172 116q-102 42 -229 42q-178 0 -299 -82q-119 -81 -163 -234h-5v717q98 64 213 103
q120 41 238 41q161 0 282 -63t203 -167q83 -106 123 -240q41 -138 41 -284q0 -80 -7 -154q-9 -92 -20 -156q-15 -84 -34 -151q-21 -73 -45 -135l36 -18t37 -18q36 -17 74 -34v598q0 217 20 411q19 188 89 421h2q157 -130 304 -275q141 -139 243 -297q101 -156 160 -342
t59 -407q0 -140 -40 -266q-41 -129 -108 -223q-68 -95 -158 -151q-91 -57 -194 -57q-56 0 -145 25q-83 23 -185 65q-99 40 -207 90q-95 44 -215 101q-59 -59 -129 -110q-71 -52 -150 -92q-78 -40 -160 -64q-84 -25 -157 -25q-85 0 -132 46q-48 46 -48 169zM1999 100
q0 83 -91 192q-92 110 -219 216q-122 102 -267 198q-128 85 -230 140v-762q167 -76 332 -130q157 -52 276 -52q84 0 141 51q58 52 58 147zM41 -96q0 -49 31 -91q30 -40 82 -68q51 -27 118 -42q63 -14 142 -14q75 0 171 28t171 86q-225 108 -340 161q-159 74 -230 75
q-63 5 -105 -30q-41 -34 -40 -105z" />
    <glyph glyph-name="E" unicode="E" 
d="M1044 766q0 -60 -9 -127q-10 -78 -23 -132q-17 -75 -35 -125q-23 -67 -43 -110q10 -4 36.5 -15t40.5 -17q13 -6 37.5 -17t36.5 -16v1116q0 103 23 154q22 49 88 49q51 0 137 -50q61 -35 180 -109q103 -64 188 -109q94 -50 157 -50q71 0 113 71q41 70 52 175h5v-627
q0 -84 -29 -128t-84 -44q-40 0 -138 56q-90 51 -209 122q-101 60 -218 121q-107 56 -164 56q-33 0 -52 -25q-18 -24 -18 -74v-243h531v-349h-531v-124q189 -78 350 -132q165 -55 267 -55q69 0 122 32q56 34 89 81q35 50 54 109q19 57 25 118h5v-526q0 -171 -61 -243
q-60 -71 -173 -71q-74 0 -195 36q-114 34 -264 90q-78 29 -302 118q-244 97 -308 121q-44 -57 -118 -131q-65 -65 -137 -117q-70 -51 -141 -84t-132 -33q-102 0 -140 59q-37 58 -37 163v741q0 63 24 92t79 29q38 0 118 -27q93 -32 182 -69q86 -36 227 -99q71 -31 251 -110
q24 61 39 132q14 66 14 128q0 94 -34 166q-35 74 -95 124q-59 49 -139 76t-170 27q-79 0 -150 -20q-78 -22 -140 -58t-116 -90q-50 -50 -85 -117h-5v717q77 70 176 107q98 37 228 37q136 0 252 -58q113 -57 196 -156q81 -97 127 -238q45 -138 45 -298zM51 -121
q0 -77 64 -118q62 -40 166 -40q121 0 237 51q112 49 172 115q-164 60 -282 94q-130 37 -218 39q-59 0 -99 -31t-40 -110z" />
    <glyph glyph-name="F" unicode="F" 
d="M1219 -502h-15q-160 100 -286 174q-161 95 -250 144q-44 -56 -102 -111t-123 -99q-66 -44 -131 -71q-66 -27 -126 -27q-86 0 -126 63q-40 62 -40 165v708q0 56 19 91q17 32 74 32q36 0 125 -43q95 -46 202 -103q123 -65 236 -129q128 -72 223 -120q52 86 74 178t22 170
q0 183 -94 301q-95 119 -319 119q-84 0 -164 -19q-83 -20 -155 -57q-72 -38 -135 -90q-61 -51 -103 -119h-5v717q75 63 196 103q123 41 249 41q145 0 272 -58q125 -57 216 -159q93 -104 143 -239q51 -138 51 -298q0 -71 -19 -160q-18 -85 -48 -164q-32 -86 -68 -153
q-39 -73 -80 -131q88 -42 109 -50q47 -18 69 -18q47 0 62 29q16 30 16 84v682q0 333 112 488q113 157 316 157q120 0 229 -44q110 -44 183 -110v-717h-5q-27 160 -145 264q-118 105 -297 105q-165 0 -264 -93q-98 -92 -98 -276v-88l690 88v-667h-4q-6 107 -64 164
q-56 55 -162 55h-460v-709zM51 -127q0 -73 64 -113q63 -39 166 -39q111 0 204 32q92 32 150 79q-145 76 -253 115q-112 41 -189 41q-60 0 -102 -31q-40 -30 -40 -84z" />
    <glyph glyph-name="G" unicode="G" 
d="M831 764q0 -116 -18 -244q-18 -127 -51 -235q36 -20 55 -31t55 -31v658q0 332 172 488q174 157 474 157q61 0 130 -12q82 -14 137 -31q69 -21 131 -49q59 -27 112 -62v-717h-5q-62 167 -206 259q-147 94 -342 94q-122 0 -227 -42t-181 -124q-77 -83 -120 -206
q-44 -126 -44 -288v-141q122 -66 212 -110q98 -48 213 -92q102 -39 207 -64q106 -25 191 -25q149 0 214 46q67 47 67 130q0 94 -74 142t-215 32l-448 -55v567h4q0 -83 31 -114t104 -31h260q167 0 268 -112t101 -404q0 -156 -43 -270q-44 -116 -119 -193q-77 -79 -182 -117
q-106 -39 -234 -39q-82 0 -186 40q-113 44 -219 98q-128 66 -236 127q-125 71 -235 126q-33 -64 -86 -136q-52 -71 -108 -122q-62 -57 -116 -88q-61 -35 -112 -35q-76 0 -109 60t-33 168v739q0 56 31 87q30 30 96 30q37 0 96 -24q68 -28 133 -63q98 -53 165 -92
q16 -9 83 -48.5t105 -61.5q8 28 17 81q8 45 8 77q0 219 -111 349t-270 130q-127 0 -222 -77q-96 -78 -126 -208h-5v717q53 57 145 101q90 43 179 43q114 0 206 -56q90 -54 153 -154q63 -98 96 -238q32 -134 32 -304zM51 -121q0 -78 51 -118q50 -40 111 -40q92 0 184 56
q94 57 154 129q-99 49 -194 81q-92 31 -169 31q-60 0 -98 -31q-39 -31 -39 -108z" />
    <glyph glyph-name="H" unicode="H" 
d="M903 725v-56q0 -21 -2 -59q32 -1 88.5 -2.5t80.5 -1.5q106 -2 130 -2q78 0 120 39t42 176v410q0 153 73 220t207 67q93 0 202 -38q105 -37 184 -106v-717h-5q-45 168 -150 258q-106 91 -241 91q-42 0 -82 -8t-65 -21v-535q0 -236 68 -332q69 -98 186 -98q118 0 192 98
q74 99 92 240h5v-512q0 -171 -73 -255q-72 -83 -208 -83q-133 0 -214 73q-79 72 -79 222v1163q-28 -22 -45 -57q-16 -33 -16 -80v-614h-551q-29 -147 -81 -274q-54 -130 -124 -221q-72 -92 -164 -147q-93 -55 -201 -55q-114 0 -183 76t-69 234v657q0 68 22 114q21 44 95 44
q8 0 114 -2q31 -1 179 -5q51 -2 215 -8q34 -1 108.5 -3.5t112.5 -4.5q-12 184 -114 289t-246 105q-79 0 -157 -26q-77 -26 -140 -72q-67 -49 -112 -110q-48 -64 -72 -141h-5v717q57 58 155 101q96 43 216 43q113 0 209 -61q93 -59 162 -166q66 -102 104 -251
q37 -144 37 -313zM313 -201q96 0 175 33q81 34 141 89q61 57 106 130q45 74 74 154h-530q-118 0 -173 -49t-55 -152q0 -98 73 -151q74 -54 189 -54z" />
    <glyph glyph-name="I" unicode="I" 
d="M891 963h-301q-246 0 -387 -65q-139 -64 -178 -243h-5v717q101 71 209 107q110 37 244 37q211 0 331 -138q118 -136 118 -415v-779q34 -7 102 -19q11 -2 32 -6t38 -7t32 -5v1272h385q239 0 373 21q133 21 139 98h5v-487q0 -89 -42 -152t-124 -63q-44 0 -107 11
q-7 1 -66.5 11t-95.5 17q-141 25 -203 38q-91 19 -233 43v-813q141 -21 299 -29q147 -8 266 15q120 23 200 82t101 168l5 -31v-612q-82 -118 -214 -178t-286 -60q-214 0 -364 65q-149 65 -218 212q-125 10 -288 8q-145 -1 -281 -28q-130 -25 -227 -80q-97 -54 -125 -144h-5
v459q0 173 71 242t226 69q65 0 221 -36q153 -35 353 -75v773z" />
    <glyph glyph-name="J" unicode="J" 
d="M2028 856q0 -120 -26 -247q-24 -119 -106 -273q68 -89 105 -184t37 -193q0 -111 -39 -195q-38 -81 -106 -140q-63 -54 -156 -90q-88 -34 -193 -46v4q138 30 201 97q61 65 61 182q0 73 -38 138q-37 64 -101 120q-83 -113 -199 -212q-115 -98 -247 -168q-134 -71 -283 -111
q-148 -40 -301 -40q-137 0 -250 40q-116 41 -196 118t-125 194q-46 120 -46 269q0 150 67 267q66 115 193 194q123 76 310 117q182 40 416 40q276 0 503 -106t363 -266q20 48 26 102q7 60 7 98q0 95 -40 171q-41 78 -113 130q-72 53 -175 83q-102 30 -225 30
q-119 0 -280 -41q-141 -36 -313 -91q-195 -63 -289 -91q-135 -41 -206 -41q-112 0 -178 72t-66 227q0 171 131 317t334 205l2 -2q-69 -39 -101 -74t-32 -74q0 -46 33 -73t98 -27q59 0 177 36q181 55 258 79q137 43 282 79q144 36 252 36q121 0 226 -39q107 -40 183 -119
t120 -205q45 -129 45 -297zM51 119q0 -76 49 -118q47 -40 139 -62q91 -22 217 -26q142 -5 283 -5q297 0 528 35q228 35 363 114q-166 121 -435 187q-265 65 -522 74q-251 9 -437 -41q-185 -50 -185 -158z" />
    <glyph glyph-name="K" unicode="K" 
d="M838 807q0 -95 -18 -195q-19 -104 -50 -198q-34 -101 -79 -193q-48 -97 -103 -174q44 -28 85 -46q38 -17 68 -17q64 0 100 35q38 36 38 118v631q29 24 89.5 72.5t90.5 72.5q99 79 201 162q31 133 65 237q39 119 76 214h4q46 -58 98 -115q45 -49 90 -90q112 79 212 133
q95 51 143 51q44 0 62 -30t18 -103v-717h-5l-399 185l-389 -295q8 -124 48 -230q41 -108 102 -182t143 -119q79 -43 164 -43q99 0 155 74t56 197q0 72 -11 146q-11 71 -39 161h5q25 -52 58 -133q31 -74 58 -158q27 -83 45 -166q19 -89 19 -155q0 -202 -83 -320
q-83 -117 -229 -117q-121 0 -217 75t-162 209q-67 136 -104 322q-36 183 -41 414l-293 -221v-629q0 -75 -41 -119q-40 -43 -116 -43q-71 0 -189 59q-110 55 -233 126q-52 -71 -107 -127q-56 -58 -106 -58q-46 0 -71 37q-26 38 -26 115v604q0 60 19 88q18 27 59 27
q27 0 78 -33t114 -81q33 -25 134 -103q78 -60 137 -99q67 102 105 201q41 106 41 193q0 86 -26 166q-25 76 -73 135q-46 56 -114 91q-67 34 -150 34q-121 0 -208 -60t-111 -168h-5v717q56 59 161 103q102 43 196 43q106 0 194 -51q86 -50 145 -142q58 -91 90 -224
q32 -134 32 -294z" />
    <glyph glyph-name="L" unicode="L" 
d="M2038 123q0 -129 -40 -240q-41 -113 -112 -195q-72 -83 -172 -132q-102 -50 -221 -50q-78 0 -185 26q-99 24 -223 67q-110 38 -239 90l-236 94q-120 -138 -226 -205q-111 -70 -198 -70q-82 0 -124 78t-42 275v377q0 77 20 112t75 35q25 0 95 -18q46 -12 169 -49
q22 -7 64 -19.5t80.5 -24t73.5 -22.5q18 -6 245 -74q24 41 51 97q34 70 49 102q-82 -21 -162 -33t-155 -12q-127 0 -238 33q-109 33 -191 99q-81 66 -128 166q-48 102 -48 232q0 138 58 262q57 121 152 207q93 84 224 135q129 50 269 50q53 0 115 -14q57 -13 114 -42l-4 -8
q-36 14 -78 22q-36 7 -82 7q-184 0 -295 -102q-112 -103 -112 -265q0 -201 162 -320q161 -118 440 -118q33 0 50 1q34 2 50 3q73 147 163 295q89 146 192 269q99 118 206 196q104 76 205 76q85 0 132 -47t47 -138q0 -133 -93 -279q-92 -144 -239 -272q-143 -124 -335 -230
q-189 -105 -378 -161q-36 -76 -55 -113q-4 -7 -56 -106q17 -5 192 -52q94 -26 180 -45q78 -18 159 -31q67 -11 127 -11q190 0 285 89q94 88 94 236q0 77 -29 144t-94 135l4 4q42 -38 87 -92q43 -52 80 -118q35 -63 58 -142q23 -80 23 -164zM1800 1247q-71 0 -155 -34
q-94 -38 -176 -102q-92 -72 -179 -176q-91 -109 -168 -253q152 15 294 58t255 107q111 63 179 137q69 75 69 153q0 50 -29 81q-28 29 -90 29zM158 -66q-47 0 -76 -33q-31 -36 -31 -106q0 -75 50 -107t139 -32q92 0 174 39t155 106q-149 60 -247 95q-108 38 -164 38z" />
    <glyph glyph-name="M" unicode="M" 
d="M670 811q0 -79 -11 -178q-11 -102 -28 -188q-16 -82 -43 -182q-23 -86 -53 -161q61 -39 115 -67q52 -27 85 -27q71 0 102 42q32 43 17 128l-231 1338h4q43 -100 135 -153q91 -52 209 -52q115 0 203 46q88 47 135 159h4l-152 -1168q-16 -118 23 -182q40 -64 131 -64
q87 0 128 63q40 62 25 183l-129 1168h4q41 -117 133 -161q93 -44 201 -44q122 0 213 50q90 49 135 155h5l-232 -1168q-21 -100 3 -163q24 -62 83 -62q65 0 98 66q33 67 41 159h5v-512q0 -138 -56 -233t-145 -95q-100 0 -147 92q-46 90 1 330l156 787h-377l84 -717
q30 -264 -41 -377q-73 -115 -188 -115q-142 0 -205 116q-64 116 -29 376l97 717h-385l133 -760q45 -257 -4 -352q-50 -97 -156 -97q-77 0 -200 59q-118 57 -238 126q-52 -73 -105 -127q-56 -58 -106 -58q-46 0 -71 37q-26 38 -26 115v604q0 60 19 88q18 27 59 27
q20 0 64 -26q36 -21 98 -63q33 -22 120 -83q77 -54 126 -86q12 47 21 120q8 67 8 140q0 83 -16 174q-16 89 -49 154q-35 68 -85 108q-52 41 -121 41q-111 -2 -171 -60q-60 -59 -68 -143h-5v717q45 55 122 98q81 46 155 46q96 0 169 -51q71 -50 116 -141q45 -92 66 -222
q22 -137 22 -291z" />
    <glyph glyph-name="N" unicode="N" 
d="M1024 807q0 -94 -19 -193q-18 -94 -52 -201q-33 -104 -72 -192q-43 -97 -84 -162q21 -8 71 -24q31 -10 60 -10q79 0 108 41t29 106v1122q0 116 29 174t86 58q50 0 126 -48q64 -40 160 -107q75 -52 164 -106q80 -48 133 -48q76 0 148 90q72 89 123 209h4l-291 -920
q-55 -176 -70 -254q-16 -86 -16 -137q0 -75 37 -119q38 -45 108 -45q109 0 161 88q51 87 56 219h5v-446q0 -171 -98 -283q-98 -111 -242 -111q-134 0 -228 75t-94 212q0 70 34 168q36 103 85 207q54 114 112 219q61 111 117 207l-477 418q-61 52 -101 21t-40 -117v-1248
q0 -76 -42 -119t-116 -43q-32 0 -82 21q-51 22 -106 52q-57 31 -123 72q-13 8 -59 36t-70 43q-77 -87 -184 -156q-106 -68 -181 -68q-65 0 -89 34q-24 35 -24 118v645q0 75 21 105t65 30q37 0 112 -42q80 -45 167 -99q18 -11 86 -53.5t107 -66.5q97 -61 186 -103
q48 86 73 174q25 90 25 184t-32 181q-32 85 -90 147q-59 62 -142 96q-85 35 -186 35q-175 -2 -267 -68t-120 -170h-5v717q71 65 181 105q108 39 215 39q151 0 268 -51q113 -49 190 -141q75 -90 113 -223q37 -130 37 -294zM51 -225q0 -60 34 -87q36 -28 107 -28q54 0 121 19
q66 19 158 67q-98 59 -180 98q-87 41 -144 41q-51 0 -73 -25q-23 -26 -23 -85z" />
    <glyph glyph-name="O" unicode="O" 
d="M2038 512q0 -201 -70 -390q-68 -184 -201 -323q-131 -137 -319 -219t-424 -82t-424 82t-319 219q-133 139 -201 323q-70 189 -70 390t70 390q68 184 201 323q131 137 319 219t424 82t424 -82t319 -219q133 -139 201 -323q70 -189 70 -390zM1309 -16q323 0 498 90t175 284
q0 130 -110 253q-111 124 -287 219q-179 96 -399 154q-222 58 -447 58q-322 0 -498 -90q-175 -90 -175 -284q0 -130 110 -253q111 -124 287 -219q179 -96 399 -154q222 -58 447 -58z" />
    <glyph glyph-name="P" unicode="P" 
d="M1147 721q0 -173 -42 -326q-41 -150 -112 -270q40 -19 70 -29q29 -10 47 -10q47 0 62 29q16 30 16 84v1327h4q119 -42 269 -111q147 -67 272 -161q125 -93 210 -216q85 -122 85 -274v-258q0 -302 -102 -433q-102 -130 -273 -130q-136 0 -257 97q-122 98 -177 275v-817h-5
q-105 69 -258 164q-120 75 -229 133q-45 -49 -118 -107q-62 -49 -138 -92q-71 -40 -145 -64q-73 -24 -140 -24q-86 0 -126 63q-40 62 -40 165v725q0 52 21 79t72 27q40 0 139 -49q90 -44 224 -117q72 -39 255 -140q146 -81 230 -120q40 75 61 160q20 80 20 154
q0 107 -29 194q-31 93 -86 155q-56 64 -141 100q-84 36 -192 36q-167 0 -320 -71q-150 -70 -249 -214h-5v717q74 63 195 103q125 41 250 41q145 0 272 -61q124 -60 216 -167q93 -108 143 -253q51 -147 51 -314zM1219 774q0 -110 42 -192t109 -133q69 -52 155 -76
q91 -25 175 -25q171 0 233 43q64 44 64 115q0 81 -77 146q-75 63 -192 114q-113 49 -251 84q-146 37 -258 59v-135zM51 -127q0 -73 64 -113q63 -39 166 -39q125 0 233 24q110 24 182 67q-168 88 -289 131q-126 45 -215 45q-59 0 -101 -31q-40 -30 -40 -84z" />
    <glyph glyph-name="Q" unicode="Q" 
d="M2028 -242q0 -126 -45 -194q-43 -66 -156 -66q-53 0 -133 27q-90 31 -175 67q-72 31 -204 95q-110 53 -217 104q-64 -53 -146 -104t-168 -90q-89 -41 -175 -64q-92 -25 -167 -25q-194 0 -313 122t-119 362q0 118 40 216q40 99 120 165q-71 82 -115 192q-45 113 -45 230
q0 155 67 291q67 135 192 232q124 96 308 152q183 56 406 56q232 0 427 -48t334 -137t216 -214q78 -126 78 -279q0 -94 -40 -184q-42 -95 -111 -180t-168 -172q-87 -77 -210 -160q116 -42 166 -59q69 -23 107 -23q92 0 153 63q61 62 88 215h5v-590zM510 481q82 0 197 -31
q102 -27 245 -79q100 -36 263 -102q73 -29 249 -99q76 68 123 163q47 94 47 218q0 121 -61 227q-62 108 -173 184q-109 75 -270 121q-157 45 -346 45q-333 0 -508 -127q-176 -128 -176 -342q0 -56 27 -125q27 -70 78 -137q58 40 134 62q75 22 171 22zM170 -221
q0 -105 81 -168q82 -64 198 -64q69 0 149 21q91 24 160 54q79 34 158 82q82 49 147 103q-193 89 -331 141q-159 60 -267 60q-136 0 -215 -55q-80 -56 -80 -174z" />
    <glyph glyph-name="R" unicode="R" 
d="M1024 807q0 -94 -16 -190q-16 -97 -45 -197q-27 -92 -70 -192q-40 -91 -92 -171q31 -13 68 -23q31 -9 59 -9q67 0 102 41t35 106v702q0 192 22 345q22 150 76 307h4q169 -115 260 -179q158 -111 279 -210q129 -105 222 -206q91 -98 91 -167t-47 -137q-47 -69 -122 -121
q-74 -52 -170 -90q-94 -37 -191 -45l192 -178q46 -43 98 -79q55 -38 109 -38q56 0 91 77q33 74 44 195h5v-569q0 -120 -45 -202q-43 -79 -130 -79q-77 0 -178 98q-102 99 -204 235q-94 125 -201 294q-125 197 -174 270v-725q0 -76 -42 -119t-116 -43q-32 0 -80 20
q-44 19 -104 50q-53 28 -121 70l-127 78q-86 -89 -183 -152q-102 -66 -190 -66q-53 0 -83 37t-30 115v645q0 75 21 105t65 30q38 0 114 -42q90 -50 170 -101q57 -37 195 -122q100 -62 187 -103q45 76 68 157q24 84 24 179q0 105 -29 191q-31 90 -84 154q-54 64 -134 102
q-81 38 -175 38q-135 0 -246 -66t-171 -172h-5v717q84 71 194 109q107 37 218 37q130 0 243 -51q108 -49 186 -142q76 -91 120 -224q43 -130 43 -294zM1606 518q0 58 -45 118q-47 62 -117 115q-71 53 -164 99q-90 44 -184 72v-523h364q56 0 101 30t45 89zM51 -213
q0 -51 33 -89t109 -38q55 0 121 14q70 15 159 72q-92 54 -181 97q-87 42 -145 42q-45 0 -70 -22q-26 -23 -26 -76z" />
    <glyph glyph-name="S" unicode="S" 
d="M2038 221q0 -360 -110 -542q-109 -181 -308 -181q-188 0 -283 105t-96 274l-6 387h8q28 -161 142 -266q113 -104 280 -104q162 0 252 69t90 199q0 59 -33 107q-32 47 -90 82q-55 34 -137 52q-84 19 -174 19q-132 0 -279 -39q-140 -37 -290 -84q-144 -45 -276 -84
t-234 -39q-268 0 -376 130t-108 341q0 217 69 433q69 217 210 446h10q-58 -110 -98 -261q-39 -147 -39 -292q0 -164 87 -263q88 -100 232 -100q107 0 242 35q130 34 265 75q126 39 254 75q120 34 208 34q138 0 242 -36q110 -38 185 -113q77 -77 119 -191t42 -268zM299 1118
v408h8q15 -101 85 -175q70 -75 181 -75q119 0 196 75q76 75 91 175h8l-20 -408q-6 -127 -82 -191q-77 -65 -193 -65q-115 0 -195 65q-79 64 -79 191zM889 1118l-21 408h9q15 -100 91 -175t195 -75t195 75q75 73 90 175h10l-20 -408q-6 -127 -82 -191q-77 -65 -193 -65
q-115 0 -192 65q-76 64 -82 191zM1479 1118l-21 408h10q15 -100 106 -175t214 -75q88 0 126 39q38 40 38 102q0 29 -7 51q-9 27 -24 54l4 4q52 -86 77 -163q26 -81 26 -183q0 -158 -72 -238t-178 -80q-127 0 -210 65t-89 191zM25 -502h-5v467q0 116 40 153q41 38 98 38
q54 0 175 -22q119 -22 245 -48q133 -28 251 -48q129 -22 195 -22q72 0 122 65q52 67 81 183h8l-35 -387q-21 -225 -65 -301q-45 -78 -111 -78q-32 0 -139 35q-155 51 -229 75q-131 43 -245 75q-120 34 -190 34q-84 0 -132 -51q-47 -50 -64 -168z" />
    <glyph glyph-name="T" unicode="T" 
d="M2028 -199q0 -142 -58 -223q-57 -80 -170 -80q-71 0 -191 37q-147 45 -271 93q-157 60 -310 124q-156 65 -311 127q-96 -184 -210 -277q-115 -94 -220 -94q-128 0 -198 90q-69 89 -69 275v426q0 124 29 179q29 54 105 54q36 0 100 -20q77 -24 158 -55q4 -2 199 -79
q73 -29 225 -91q1 7 5 16t5 16q24 89 39 202q14 104 14 237v778h31v-268h772q138 0 214 39q77 39 107 147h5v-696h-1098q0 -120 -16 -246q-15 -122 -37 -201l-3 -9l-3 -9q-4 -14 -5 -19q81 -33 243 -95q112 -43 231 -82q100 -33 202 -58q94 -23 154 -23q142 0 224 87
q82 86 103 245h5v-547zM858 1133q-12 -117 -58 -204q-48 -92 -118 -150q-73 -61 -164 -92q-93 -32 -194 -32q-92 0 -179 29q-86 29 -125 74v696h5q17 -129 110 -193q95 -65 232 -65q178 0 319 84q142 85 203 256h10zM51 -94q0 -87 70 -131q68 -43 182 -43q113 0 218 38
q103 37 163 121q-157 65 -290 111q-130 45 -189 45q-74 0 -114 -37t-40 -104z" />
    <glyph glyph-name="U" unicode="U" 
d="M891 817q0 -81 -20 -175q-19 -88 -50 -180q-32 -96 -70 -175q-44 -93 -81 -160q86 -43 154 -75q73 -34 143 -63q76 -31 117 -44q54 -17 83 -17q31 0 54 13q20 11 32 48q13 38 17 101q4 59 4 170v1256h4q46 -111 134 -156q87 -45 204 -45q116 0 231 50q116 50 185 151h6
l-389 -963q-107 -267 -83 -414t150 -153q117 -6 197 83t110 279h5v-328q0 -231 -103 -372q-102 -140 -264 -140q-211 0 -271 167t54 450l258 637h-397v-887q0 -188 -71 -277q-72 -90 -179 -90q-36 0 -109 19q-63 17 -158 47q-55 18 -191 67q-13 5 -90.5 33t-119.5 43
q-62 -75 -141 -142t-142 -67q-42 0 -63 34t-21 114v608q0 60 19 88q18 27 59 27q26 0 82 -21q68 -26 127 -54q134 -64 158 -76q28 -14 86 -42t88 -43q50 94 81 189q30 92 30 182q0 155 -91 255q-90 99 -256 99q-122 0 -220 -53q-95 -51 -158 -160h-5v717q22 25 65 52
q39 25 88 46q47 21 101 33q57 13 103 13q116 0 213 -50q98 -51 163 -139q66 -90 102 -220q36 -131 36 -290z" />
    <glyph glyph-name="V" unicode="V" 
d="M1106 664q0 -101 -33 -224q-32 -119 -74 -217q112 -61 223 -119q120 -63 205 -101q100 -45 177 -70q78 -25 131 -25q63 0 114 42q52 43 86 112q37 76 54 165q18 94 18 197q0 186 -88 290q-89 105 -229 105q-132 0 -234 -90q-103 -91 -121 -272h-4v415q0 304 69 479
t216 175q108 0 188 -98q81 -99 131 -253q52 -158 77 -355q26 -202 26 -396q0 -195 -32 -367q-31 -169 -92 -293q-58 -119 -150 -194q-88 -72 -201 -72q-70 0 -163 32q-83 28 -193 82q-87 42 -210 114q-48 28 -213 127q-129 -162 -278 -253q-151 -92 -299 -92q-96 0 -141 63
q-46 64 -46 165v700q0 98 27 147q27 50 105 50q41 0 128 -35q83 -34 193 -90q129 -66 237 -126q13 -7 109.5 -60.5t147.5 -81.5q18 42 33 103q14 56 14 106q0 109 -39 201q-39 91 -107 156q-68 64 -162 99q-96 35 -206 35q-94 0 -177 -26q-86 -27 -142 -65q-62 -42 -101 -91
t-55 -103h-5v717q57 60 167 102q109 42 237 42q324 0 503 -226t179 -626zM51 -53q0 -110 64 -168t166 -58q122 0 248 43q129 44 225 107q-166 101 -309 177q-143 77 -222 77q-74 0 -123 -43t-49 -135z" />
    <glyph glyph-name="W" unicode="W" 
d="M768 817q0 -87 -12 -185q-12 -100 -33 -193q-21 -95 -48 -186q-20 -67 -59 -167q69 -38 145 -73q64 -29 105 -29q72 0 107 47t18 147l-219 1338h4q52 -92 155 -135q105 -44 214 -44t209 42q99 41 149 137h4l-157 -754q-38 -172 -54 -288q-16 -112 -16 -214
q0 -139 84 -226t235 -87q83 0 156 36t129 105q53 66 89 175q34 103 34 243q0 146 -65 229q-66 84 -170 84q-117 0 -185 -95q-67 -94 -88 -267h-4v374q0 127 12 252q12 120 40 224q26 96 74 158q47 61 112 61q82 0 139 -90q56 -88 94 -235q35 -134 54 -328q18 -183 18 -367
q0 -199 -39 -382q-39 -181 -112 -322q-72 -138 -179 -221t-240 -83q-141 0 -213 99q-71 98 -71 290q0 82 18 217q18 137 42 272q24 136 45 246l28 140h-389l133 -805q22 -134 20 -226q-2 -88 -24 -137t-63 -67q-43 -19 -91 -19q-85 0 -232 54q-136 50 -282 116
q-60 -64 -136 -118q-73 -52 -136 -52q-46 0 -71 37q-26 38 -26 115v604q0 60 19 88q18 27 59 27q25 0 76 -27q62 -33 119 -67q58 -35 145 -90q71 -45 152 -93q19 66 26 131q9 81 9 154q0 101 -23 188q-23 88 -64 149t-105 98q-63 36 -142 36q-106 0 -178 -51
q-71 -51 -88 -152h-5v775q48 36 126 62q76 26 151 26q121 0 210 -50q90 -50 146 -140q58 -93 86 -221q29 -133 29 -290z" />
    <glyph glyph-name="X" unicode="X" 
d="M389 440v164l526 -69q0 5 2 16t3 17q2 24 2 32q0 95 -34 163q-36 71 -93 113q-61 44 -139 65q-83 22 -169 22q-159 0 -278 -84q-117 -83 -184 -224h-5v717q70 70 180 112t220 42q132 0 239 -55t176 -152t107 -240q37 -139 37 -313q0 -69 -10 -139q-11 -77 -27 -144
q-17 -72 -39 -133t-45 -112q76 -20 114 -31q48 -14 113 -31v758q0 303 133 448q132 144 357 144q108 0 234 -42t219 -112v-717h-5q-13 55 -55 109q-44 56 -106 99q-66 46 -145 72q-84 28 -169 28q-200 0 -316 -105t-116 -313v-15l543 74v-164l-543 74v-346q180 -50 340 -84
q164 -35 260 -35q126 0 212 86q84 84 95 213h5v-526q0 -171 -61 -243q-60 -71 -173 -71q-68 0 -208 41q-117 34 -299 99q-49 17 -159.5 57t-170.5 61q-169 60 -300 99q-49 -66 -101 -127q-56 -65 -113 -115q-61 -53 -121 -83q-64 -32 -127 -32q-91 0 -133 53q-42 52 -42 175
v364q0 147 52 217t174 70q37 0 91 -11q63 -13 134 -31q65 -17 167 -45q76 -21 189 -52q26 56 51 128q22 63 35 134z" />
    <glyph glyph-name="Y" unicode="Y" 
d="M823 1063q0 -119 -46 -245q-47 -129 -109 -238q80 -11 148 -18q66 -7 118 -7q84 0 134 42t50 126v553q0 119 51 179q52 61 152 61q94 0 168 -59q72 -57 145 -167l86 -135l303 299h5v-481q0 -170 -64 -271q-63 -98 -162 -100q-68 -2 -145 64q-84 71 -154 141
q-62 -145 -87 -264t-25 -252v-12v-13q152 104 297 196q134 85 206 85q77 0 105 -46q29 -47 29 -151v-477q0 -169 -84 -267t-215 -98q-99 0 -187 78q-89 78 -129 262q-110 -66 -194 -119q-98 -62 -200 -114q-97 -50 -199 -84q-99 -33 -189 -33q-109 0 -160 69t-51 193v301h4
q12 -90 64 -129q51 -38 128 -38q76 0 166 30q85 28 187 81q84 43 195 114q77 49 194 127v18v21q0 132 25 261q24 126 96 285q-61 63 -122 117q-59 51 -102 51q-57 0 -81 -45q-25 -47 -25 -133v-504q0 -52 -28 -83q-26 -29 -77 -29h-645q-47 -53 -95 -96q-62 -55 -103 -85
q-50 -37 -99 -62q-45 -23 -82 -23v499q0 115 33 163t107 48q28 0 77 -6q53 -6 113 -15q67 -10 137 -21q29 -5 83 -12.5t63 -8.5q15 31 26 71q11 39 11 76q0 100 -70 162q-68 61 -186 61q-131 0 -235 -77t-154 -224h-5v717q63 66 168 105t207 39q204 0 316 -124t112 -329z
M1843 47q-75 -1 -178 -53q-98 -49 -219 -125q17 -42 50 -68q35 -28 74 -42q41 -15 82 -21q42 -6 74 -6q118 0 195 44q76 43 76 136q0 66 -40 100q-41 35 -114 35z" />
    <glyph glyph-name="Z" unicode="Z" 
d="M131 -502h-121l27 103q89 338 343 573q257 237 656 383q362 135 583 342q220 206 316 494h-30q-49 -133 -129 -252q-79 -117 -182 -207q-100 -87 -217 -140t-234 -53q-86 0 -193 35q-87 29 -210 76q-133 51 -205 76q-102 35 -179 35q-127 0 -190 -76q-64 -78 -64 -254
q0 -49 11 -124q13 -90 30 -161h-123v1147h31v-864h21q22 469 135 682t325 213q104 0 242 -59q140 -60 278 -129q145 -73 271 -129q129 -58 227 -58q132 0 224 102t137 273h117l-48 -133q-112 -311 -332 -540q-221 -230 -589 -366q-398 -147 -652 -361q-256 -215 -329 -525
h31q45 144 116 261q74 121 171 206q99 87 214 134q117 48 244 48q109 0 229 -32q139 -37 231 -68q100 -34 209 -69q99 -32 167 -32q117 0 186 81q70 82 70 251q0 48 -11 125q-12 83 -30 149h123v-1126h-31v854h-21q-10 -261 -42 -434q-31 -171 -83 -273q-51 -101 -122 -139
q-72 -39 -160 -39q-101 0 -222 72q-129 76 -254 156q-116 74 -270 155q-137 72 -264 72q-104 0 -182 -38q-75 -37 -127 -101q-52 -65 -79 -146q-29 -88 -40 -170z" />
    <glyph glyph-name="bracketleft" unicode="[" horiz-adv-x="512" 
d="M20 -471v1966h492v-31h-154v-1904h154v-31h-492z" />
    <glyph glyph-name="backslash" unicode="\" horiz-adv-x="512" 
d="M455 -471l-435 1966h37l435 -1966h-37z" />
    <glyph glyph-name="bracketright" unicode="]" horiz-adv-x="512" 
d="M492 -471h-492v31h154v1904h-154v31h492v-1966z" />
    <glyph glyph-name="asciicircum" unicode="^" horiz-adv-x="1024" 
d="M500 936h24l389 -758h-34l-367 717l-367 -717h-34z" />
    <glyph glyph-name="underscore" unicode="_" horiz-adv-x="1024" 
d="M102 -434h820v-37h-820v37z" />
    <glyph glyph-name="grave" unicode="`" horiz-adv-x="1024" 
d="M758 1438v-4l-492 41v204z" />
    <glyph glyph-name="a" unicode="a" 
d="M838 821q0 -98 -21 -208q-23 -119 -53 -215q-33 -105 -75 -201q-42 -97 -83 -166q34 -18 74 -34q33 -13 61 -13q63 0 100 58q38 59 38 136v1157q0 87 31 133q33 48 96 48q64 0 153 -47q87 -46 182 -115l349 -256l333 356h5v-481q0 -203 -86 -316q-85 -111 -222 -116
q-86 -2 -183 69q-101 74 -196 158q-120 107 -183 159q-87 72 -148 72q-59 0 -80 -34q-21 -35 -21 -103v-309h510q3 22 9 64q2 11 5.5 32.5t4.5 30.5l24 -18q-10 -190 15 -333q24 -137 72 -219t115 -119q66 -36 138 -36q69 0 106 40q38 41 38 107q0 77 -34 167t-81 163l4 4
q88 -104 145 -252q58 -150 58 -301q0 -70 -23 -139t-64 -120q-41 -52 -103 -84q-61 -32 -136 -32q-157 0 -248 109q-90 108 -90 268q0 74 3 155q4 111 7 165h-475v-535q0 -75 -41 -119q-40 -43 -116 -43q-74 0 -190 55q-101 48 -228 103q-67 -52 -157 -104q-91 -53 -157 -54
v725q0 61 19 89q17 26 59 26q27 0 81 -33q70 -43 120 -78q16 -11 64 -45t76 -54q70 -49 141 -91q53 105 82 201q30 100 30 209q0 179 -95 291q-94 110 -257 110q-114 0 -199 -50q-82 -48 -116 -153h-5v717q63 64 160 104q98 40 195 40q120 0 208 -50q85 -49 143 -138
q57 -88 84 -218q28 -134 28 -289z" />
    <glyph glyph-name="b" unicode="b" 
d="M1004 664q0 -113 -31 -251q-30 -134 -74 -231q29 -18 72 -40q9 -4 23.5 -12t26.5 -14.5t23 -11.5v1422h5q9 -3 259 -98q165 -62 297 -125q133 -63 243 -139q102 -70 102 -130q0 -55 -49 -116q-52 -64 -118 -119q-74 -61 -144 -106q-94 -60 -126 -79h308q63 0 103 -20
q44 -22 67 -51q22 -27 35 -72q12 -40 12 -80q0 -149 -54 -314q-52 -159 -140 -291q-86 -129 -198 -214q-111 -84 -227 -84q-58 0 -142 32q-79 30 -178 82q-90 47 -200 110q-159 91 -209 118q-52 -64 -106 -120q-55 -57 -120 -103q-64 -46 -128 -72q-66 -27 -129 -27
q-96 0 -141 63q-46 64 -46 165v698q0 78 27 118t96 40q43 0 117 -36q82 -40 168 -92q116 -70 207 -127q124 -78 235 -140q22 55 37 122q15 66 15 119q0 228 -119 365t-336 137q-81 0 -159 -28q-76 -27 -132 -70q-57 -44 -96 -99q-38 -54 -55 -108h-5v737q70 62 180 103
q111 41 224 41q273 0 427 -226q153 -225 153 -626zM1569 756q0 47 -47 89q-45 41 -118 75q-66 31 -159 53q-83 20 -170 26v-385h391q35 21 71 60q34 36 32 82zM1718 266h-643v-176q148 -74 309 -125q154 -49 301 -49q125 0 191 39q65 38 65 143q0 90 -54 129t-169 39z
M51 -121q0 -77 64 -118q62 -40 166 -40q135 0 234 35q98 35 149 90q-139 73 -255 121q-125 51 -221 51q-60 0 -98 -31q-39 -31 -39 -108z" />
    <glyph glyph-name="c" unicode="c" 
d="M963 -506q-212 0 -391 73q-175 71 -301 217q-121 140 -192 366q-69 220 -69 516q0 418 171 644t489 226q147 0 304 -53q151 -51 303 -116q189 -81 276 -116q132 -53 225 -53q84 0 131 54q47 55 47 122q0 40 -8 82q-6 33 -27 78l4 2q37 -54 76 -154q37 -95 37 -202
q0 -124 -30 -218q-30 -96 -80 -159q-49 -62 -120 -96q-69 -33 -147 -33q-71 0 -148 24q-63 20 -153 63q-67 32 -159 85q-16 9 -73.5 42.5t-89.5 51.5v-983h24h23q198 0 367 32q165 31 287 99q118 66 196 174q76 106 99 254h4q0 -191 -65 -377q-64 -183 -196 -327t-336 -231
t-478 -87zM45 666q0 -148 78 -274t209 -218q129 -91 306 -148q174 -56 370 -67v997q-124 69 -245 117q-123 49 -245 49q-96 0 -180 -25q-87 -26 -151 -81q-63 -54 -103 -143q-39 -87 -39 -207z" />
    <glyph glyph-name="d" unicode="d" 
d="M10 -287v684q0 97 30 131q30 35 93 35q42 0 130 -35q81 -32 201 -89q87 -41 249 -124t274 -137q23 59 35 118q12 60 12 120q0 118 -38 221t-108 176q-72 75 -172 116q-102 42 -229 42q-178 0 -299 -82q-119 -81 -163 -234h-5v717q98 64 213 103q120 41 238 41
q161 0 282 -63t203 -167q83 -106 123 -240q41 -138 41 -284q0 -80 -7 -154q-9 -92 -20 -156q-15 -84 -34 -151q-21 -73 -45 -135l36 -18t37 -18q36 -17 74 -34v1430h2q178 -145 338 -287q162 -144 279 -296q119 -155 188 -335q70 -183 70 -403q0 -140 -40 -266
q-41 -129 -108 -223q-68 -95 -158 -151q-91 -57 -194 -57q-56 0 -145 25q-83 23 -185 65q-99 40 -207 90q-95 44 -215 101q-56 -56 -130 -110q-67 -49 -150 -92q-76 -40 -160 -64q-86 -25 -156 -25q-85 0 -132 46q-48 46 -48 169zM1999 100q0 83 -91 192q-92 110 -219 216
q-122 102 -267 198q-128 85 -230 140v-762q167 -76 332 -130q157 -52 276 -52q84 0 141 51q58 52 58 147zM41 -96q0 -52 31 -94q30 -40 82 -68q50 -26 118 -40q65 -13 142 -13q75 0 166 29q93 29 170 87q-191 93 -337 159q-154 70 -227 75q-67 4 -107 -30q-39 -34 -38 -105z
" />
    <glyph glyph-name="e" unicode="e" 
d="M20 -270v741q0 63 24 92t79 29q38 0 118 -27t182 -70q47 -20 227 -100q166 -74 251 -112q18 53 35 131q14 64 14 127q0 93 -35 168q-35 74 -93 125t-138 78q-82 28 -168 28q-79 0 -153 -20q-78 -21 -145 -59q-68 -39 -118 -90q-51 -52 -75 -116h-5v717q77 70 176 107
q98 37 228 37q136 0 252 -58q112 -56 196 -157q82 -98 127 -237q45 -138 45 -298q0 -127 -32 -261q-33 -138 -78 -237q6 -2 33.5 -14t42.5 -18l75 -33v678q0 331 140 488t391 157q120 0 229 -44q110 -44 183 -110v-717h-5q-27 157 -165 259q-140 104 -340 104
q-182 0 -292 -84t-110 -252v-27h426q74 0 121 22q44 21 59 103h4v-477l-610 47v-160q177 -75 340 -129q161 -53 260 -53q75 0 131 32q54 31 92 81q37 49 58 109q19 55 26 118h5v-526q0 -171 -61 -243q-60 -71 -173 -71q-74 0 -195 36q-114 34 -264 90q-78 29 -302 118
q-244 97 -308 121q-44 -57 -118 -131q-65 -65 -137 -117q-70 -51 -141 -84t-132 -33q-102 0 -140 59q-37 58 -37 163zM51 -121q0 -77 64 -118q62 -40 166 -40q121 0 237 51q112 49 172 115q-164 60 -282 94q-130 37 -218 39q-59 0 -99 -31t-40 -110z" />
    <glyph glyph-name="f" unicode="f" 
d="M1219 -502h-5q-153 94 -291 174q-178 102 -255 144q-46 -59 -105 -113q-56 -52 -123 -98q-61 -42 -129 -70q-66 -27 -125 -27q-86 0 -126 63q-40 62 -40 165v729q0 55 19 90q18 33 74 33q35 0 120 -46q90 -49 197 -114q89 -54 230 -144q118 -75 223 -137q55 86 82 169
q28 85 28 163q0 103 -25 185t-77 145q-51 61 -129 96q-79 35 -180 35q-86 0 -166 -19q-83 -20 -155 -57q-73 -38 -134 -90t-102 -119h-5v717q75 63 196 103q123 41 249 41q145 0 272 -58q125 -57 216 -159q93 -104 143 -239q51 -138 51 -298q0 -82 -21 -170
q-22 -94 -53 -172q-32 -82 -75 -160q-41 -75 -85 -131q72 -43 126 -69q53 -25 81 -25q42 0 55 22t13 68v1259q0 74 18 108t72 34q55 0 138 -50q79 -47 169 -109q92 -63 166 -109q80 -50 131 -50q72 0 105 67q31 63 36 179h5v-627q0 -85 -34 -129q-34 -45 -110 -45
q-51 0 -129 57q-117 86 -163 121q-76 59 -166 122q-81 57 -134 57q-36 0 -55 -28q-18 -27 -18 -91v-406l690 88v-698h-4q-10 122 -59 186t-183 64h-444v-627zM51 -127q0 -73 64 -113q63 -39 166 -39q109 0 202 32t156 77q-143 75 -254 116q-113 42 -192 42q-60 0 -102 -28
q-40 -27 -40 -87z" />
    <glyph glyph-name="g" unicode="g" 
d="M2028 594q0 -258 -68 -465q-66 -202 -193 -344q-124 -139 -305 -213t-403 -74q-249 0 -444 102q-197 103 -329 265q-135 166 -205 372q-71 210 -71 418q0 417 171 644t489 227q144 0 300 -56q168 -60 299 -119q127 -57 272 -120q126 -55 218 -55q93 0 144 57t51 129
q0 40 -8 82q-6 33 -27 78l6 4q37 -54 76 -154q37 -95 37 -203q0 -120 -31 -218q-29 -92 -84 -158q-54 -64 -125 -97q-70 -32 -153 -32q-69 0 -141 24q-65 22 -148 64q-76 39 -156 87q-92 56 -162 95v-340h990zM45 655q0 -147 78 -273q77 -124 209 -217q130 -91 307 -147
q174 -55 369 -61v993q-118 67 -241 114q-125 48 -249 48q-93 0 -180 -26q-89 -26 -151 -80q-63 -54 -103 -143q-39 -87 -39 -208zM1968 246h-930v-289h12h11q356 0 591 55q236 55 316 234z" />
    <glyph glyph-name="h" unicode="h" 
d="M20 -182v719q0 53 24 74q25 22 93 22q8 0 114 -2q31 -1 179 -5q51 -2 215 -8q34 -1 108.5 -3.5t112.5 -4.5q-15 184 -129 289t-270 105q-171 0 -282 -99t-160 -250h-5v717q57 58 155 101q96 43 216 43q113 0 209 -61q93 -59 162 -166q66 -102 104 -251q37 -144 37 -313
v-56q0 -21 -2 -59q32 -1 88.5 -2.5t80.5 -1.5q106 -2 130 -2q88 0 135 39t47 176v410q0 154 68 220q69 67 192 67q93 0 202 -38q105 -37 184 -106v-717h-5q-45 168 -147 258q-103 91 -244 91q-31 0 -68 -7q-32 -6 -59 -18v-539q0 -234 66 -332t168 -98q62 0 112 32
q49 31 85 81q38 53 59 108q22 58 28 117h5v-512q0 -172 -83 -255t-219 -83q-103 0 -178 73q-73 72 -73 222v1168q-28 -22 -45 -59t-17 -83v-493q0 -107 -34 -150t-97 -43q-65 0 -188 21q-157 27 -258 47q-34 -148 -85 -273q-52 -126 -123 -220q-70 -93 -160 -146
q-91 -54 -196 -54q-114 0 -183 76t-69 234zM51 49q0 -121 75 -185q76 -65 187 -65q89 0 166 33q75 32 137 87q63 55 110 129q49 76 81 157q-153 29 -300 54q-150 26 -228 26q-113 0 -170 -59q-58 -60 -58 -177z" />
    <glyph glyph-name="i" unicode="i" 
d="M891 963h-301q-246 0 -387 -65q-139 -64 -178 -243h-5v717q101 71 209 107q110 37 244 37q211 0 331 -138q118 -136 118 -415v-779q34 -7 102 -19q11 -2 32 -6t38 -7t32 -5v1184h529q174 0 252 37t116 168h5v-514q0 -128 -42 -172q-42 -43 -124 -43q-38 0 -108 9
q-43 6 -164 25q-100 16 -205 36q-111 21 -228 45v-779q141 -21 299 -29q147 -8 266 15q120 23 200 82t101 168l5 -31v-612q-82 -118 -214 -178t-286 -60q-214 0 -364 65q-149 65 -218 212q-125 10 -288 8q-145 -1 -281 -28q-130 -25 -227 -80q-97 -54 -125 -144h-5v459
q0 173 71 242t226 69q65 0 221 -36q153 -35 353 -75v773zM1024 1372q-34 0 -58 24t-24 58t24 58t58 24t58 -24t24 -58t-24 -58t-58 -24z" />
    <glyph glyph-name="j" unicode="j" 
d="M1024 1372q-34 0 -58 24t-24 58t24 58t58 24t58 -24t24 -58t-24 -58t-58 -24zM1800 -201q0 71 -43 133q-46 66 -119 115q-82 -114 -195 -218q-109 -101 -241 -174q-133 -74 -273 -115q-144 -42 -292 -42q-134 0 -250 38q-113 37 -196 111q-79 70 -125 181
q-46 110 -46 250q0 143 64 256q62 109 183 185q120 75 295 114q176 39 394 39q304 0 530 -80q221 -78 357 -211q44 101 72 211q27 108 27 209q0 105 -61 171q-60 64 -204 64q-96 0 -264 -57q-134 -45 -352 -127q-201 -75 -362 -127q-177 -57 -291 -57q-187 0 -287 97
q-101 98 -101 288q0 179 112 300q111 120 290 177l2 -2q-102 -56 -132 -96t-30 -93q0 -51 42 -89q43 -38 157 -38q108 0 289 48q161 43 358 104q217 68 345 104q169 48 247 48q160 0 244 -120t84 -376q0 -156 -36 -320q-36 -161 -122 -348q81 -90 125 -202q43 -110 43 -232
q0 -161 -80 -243q-80 -81 -195 -81q-73 0 -154 33q-80 33 -157 99l2 4q49 -32 101 -49q51 -17 96 -17q62 0 106 35q43 34 43 100zM51 78q0 -60 49 -94q51 -36 139 -52q82 -15 217 -20q113 -4 283 -4q289 0 507 42q219 42 353 124q-91 56 -209 99q-130 47 -251 75
q-137 32 -270 46q-138 15 -265 15q-118 0 -216 -13q-100 -13 -176 -42q-73 -28 -118 -73q-43 -43 -43 -103z" />
    <glyph glyph-name="k" unicode="k" 
d="M838 807q0 -95 -18 -195q-19 -104 -50 -198q-34 -101 -79 -193q-48 -97 -103 -174q44 -28 85 -46q38 -17 68 -17q64 0 100 35q38 36 38 118v631q126 103 184 150q15 12 207 163q31 127 70 234q76 209 77 211h4q62 -76 93 -112q47 -53 85 -89q122 83 209 130q92 50 140 50
q44 0 62 -30t18 -103v-717h-5l-399 185l-389 -295q8 -124 48 -230q41 -108 102 -182t143 -119q79 -43 164 -43q157 0 233 90q75 89 98 287h5v-411q0 -202 -80 -320q-80 -117 -222 -117q-121 0 -217 75t-162 209q-67 135 -104 323q-36 184 -41 413l-293 -221v-629
q0 -75 -41 -119q-40 -43 -116 -43q-71 0 -189 59q-110 55 -233 126q-52 -71 -107 -127q-56 -58 -106 -58q-46 0 -71 37q-26 38 -26 115v604q0 60 19 88q18 27 59 27q27 0 78 -33t114 -81q33 -25 134 -103q78 -60 137 -99q63 96 104 202q40 104 40 198q0 192 -99 306
t-262 114q-123 0 -210 -60t-111 -168h-3v717q56 59 161 103q102 43 196 43q106 0 194 -51q86 -50 145 -142q58 -91 90 -224q32 -134 32 -294z" />
    <glyph glyph-name="l" unicode="l" 
d="M2038 123q0 -129 -40 -240q-41 -113 -112 -195q-72 -83 -172 -132q-102 -50 -221 -50q-78 0 -185 26q-99 24 -223 67q-110 38 -239 90l-236 94q-120 -138 -226 -205q-111 -70 -198 -70q-82 0 -124 78t-42 275v377q0 77 20 112t75 35q25 0 95 -18q46 -12 169 -49
q22 -7 64 -19.5t80.5 -24t73.5 -22.5q18 -6 245 -74q8 15 54 104q18 34 46 95q-82 -21 -162 -33t-155 -12q-127 0 -238 33q-109 33 -191 99q-81 66 -128 166q-48 102 -48 232q0 138 58 262q57 121 152 207q93 84 224 135q129 50 269 50q53 0 115 -14q57 -13 114 -42l-4 -6
q-36 14 -78 22q-36 7 -82 7q-184 0 -295 -102q-112 -103 -112 -267q0 -201 162 -320q161 -118 440 -118q33 0 50 1q34 2 50 3q73 147 163 295q89 146 192 269q99 118 206 196q104 76 205 76q85 0 132 -47t47 -138q0 -133 -93 -279q-92 -144 -239 -272q-143 -124 -335 -230
q-189 -105 -378 -161q-36 -76 -55 -113q-4 -7 -56 -106q17 -5 192 -52q94 -26 180 -45q78 -18 159 -31q67 -11 127 -11q191 0 285 88t94 235q0 77 -29 144t-94 135l4 6q42 -38 87 -92q43 -52 80 -118q35 -63 58 -142q23 -80 23 -164zM1800 1247q-71 0 -155 -34
q-93 -37 -177 -102q-94 -72 -179 -176q-91 -111 -167 -253q155 15 294 59q144 45 255 108q112 63 179 138q69 77 69 154q0 52 -28 80q-26 26 -91 26zM158 -66q-50 0 -78 -28q-29 -29 -29 -90q0 -88 50 -124q49 -36 139 -36q93 0 174 40q85 42 151 105q-147 61 -244 95
q-107 38 -163 38z" />
    <glyph glyph-name="m" unicode="m" 
d="M670 811q0 -79 -11 -178q-11 -102 -28 -188q-16 -82 -43 -182q-23 -86 -53 -161q61 -39 115 -67q52 -27 85 -27q71 0 102 42q32 43 17 128l-231 1338h4q43 -100 135 -153q91 -52 209 -52q115 0 203 46q88 47 135 159h4l-152 -1168q-16 -118 23 -182q40 -64 131 -64
q87 0 128 63q40 62 25 183l-129 1168h4q41 -117 133 -161q93 -44 201 -44q122 0 213 50q90 49 135 155h5l-232 -1168q-21 -100 3 -163q24 -62 83 -62q65 0 98 66q33 67 41 159h5v-512q0 -138 -56 -233t-145 -95q-100 0 -147 92q-46 90 1 330l156 787h-377l84 -717
q30 -264 -41 -377q-73 -115 -188 -115q-142 0 -205 116q-64 116 -29 376l97 717h-385l133 -760q45 -257 -4 -352q-50 -97 -156 -97q-77 0 -200 59q-118 57 -238 126q-52 -73 -105 -127q-56 -58 -106 -58q-46 0 -71 37q-26 38 -26 115v604q0 60 19 88q18 27 59 27
q20 0 64 -26q36 -21 98 -63q33 -22 120 -83q77 -54 126 -86q12 47 21 120q8 67 8 140q0 83 -16 174q-16 89 -49 154q-35 68 -85 108q-52 41 -121 41q-111 -2 -171 -60q-60 -59 -68 -143h-5v717q45 55 122 98q81 46 155 46q96 0 169 -51q71 -50 116 -141q45 -92 66 -222
q22 -137 22 -291z" />
    <glyph glyph-name="n" unicode="n" 
d="M1024 807q0 -94 -19 -193q-18 -94 -52 -201q-33 -104 -72 -192q-43 -97 -84 -162q21 -8 71 -24q31 -10 60 -10q79 0 108 41t29 106v1163q0 97 29 144t88 47q36 0 100 -32q57 -28 149 -85q52 -32 191 -122q109 -71 227 -142l174 319h5v-594q0 -144 -37 -193
q-38 -50 -117 -50q-31 0 -67 12q-29 10 -78 35q-59 -202 -79 -326q-20 -122 -20 -184q0 -92 41 -151q40 -58 119 -58q80 0 119 52q39 53 39 161q0 56 -23 128q-23 71 -53 118l6 4q68 -101 113 -242q47 -146 47 -274q0 -192 -96 -293t-261 -101q-138 0 -236 83
q-97 82 -97 235q0 67 23 149q25 90 73 181l260 532q-77 43 -183 122q-48 35 -233 171q-38 29 -68 46t-59 17q-35 0 -50 -29q-15 -30 -15 -77v-1268q0 -76 -42 -119t-116 -43q-32 0 -82 21q-51 22 -106 52q-57 31 -123 72q-13 8 -59 36t-70 43q-77 -87 -184 -156
q-106 -68 -181 -68q-65 0 -89 34q-24 35 -24 118v645q0 75 21 105t65 30q37 0 112 -42q80 -45 167 -99q18 -11 86 -53.5t107 -66.5q97 -61 186 -103q48 86 73 174q25 90 25 184t-32 181q-32 85 -90 147q-59 62 -142 96q-85 35 -186 35q-175 -2 -267 -68t-120 -170h-5v717
q71 65 181 105q108 39 215 39q151 0 268 -51q113 -49 190 -141q75 -90 113 -223q37 -130 37 -294zM51 -225q0 -60 34 -87q36 -28 107 -28q54 0 121 19q66 19 158 67q-98 59 -180 98q-87 41 -144 41q-51 0 -73 -25q-23 -26 -23 -85z" />
    <glyph glyph-name="o" unicode="o" 
d="M2038 512q0 -201 -70 -390q-68 -184 -201 -323q-131 -137 -319 -219t-424 -82t-424 82t-319 219q-133 139 -201 323q-70 189 -70 390t70 390q68 184 201 323q131 137 319 219t424 82t424 -82t319 -219q133 -139 201 -323q70 -189 70 -390zM1309 -16q323 0 498 90t175 284
q0 130 -110 253q-111 124 -287 219q-179 96 -399 154q-222 58 -447 58q-322 0 -498 -90q-175 -90 -175 -284q0 -130 110 -253q111 -124 287 -219q179 -96 399 -154q222 -58 447 -58z" />
    <glyph glyph-name="p" unicode="p" 
d="M1219 -502h-31q-84 55 -257 164q-113 71 -227 133q-43 -52 -108 -107q-61 -51 -132 -91q-73 -41 -141 -64q-75 -25 -137 -25q-86 0 -126 63q-40 62 -40 165v725q0 52 21 79t72 27q39 0 140 -49q105 -51 226 -118q47 -26 136 -75t120 -66q146 -81 230 -120q38 71 58 152
q19 76 19 143q0 109 -27 202q-27 94 -84 161q-58 68 -140 105q-85 38 -197 38q-86 0 -168 -19q-83 -19 -160 -57q-73 -36 -138 -90q-61 -51 -103 -119h-5v709q68 65 192 108q127 44 253 44q145 0 272 -61q124 -60 216 -167q93 -108 143 -253q51 -147 51 -314
q0 -173 -42 -326q-41 -150 -112 -270q40 -19 70 -29q29 -10 47 -10q47 0 62 29q16 30 16 84v833q0 250 87 367t255 117q104 0 197 -70t158 -187q68 -123 105 -275q38 -158 38 -329v-135q0 -192 -25 -331q-23 -130 -72 -216q-45 -80 -113 -117q-66 -36 -151 -36
q-141 0 -265 127q-123 126 -183 358v-807zM1219 760q0 -102 41 -187q40 -84 109 -142q69 -59 160 -90q93 -32 191 -32q118 0 198 63q79 63 79 206q0 101 -41 186q-40 82 -110 142q-70 59 -159 90q-93 32 -192 32q-120 0 -198 -62t-78 -206zM51 -127q0 -73 64 -113
q63 -39 166 -39q120 0 230 22q104 21 167 67q-156 86 -279 132q-122 46 -207 46q-59 0 -101 -31q-40 -30 -40 -84z" />
    <glyph glyph-name="q" unicode="q" 
d="M2028 -242q0 -126 -45 -194q-43 -66 -156 -66q-53 0 -133 27q-90 31 -175 67q-72 31 -204 95q-110 53 -217 104q-64 -53 -146 -104t-168 -90q-89 -41 -175 -64q-92 -25 -167 -25q-194 0 -313 122t-119 362q0 118 40 216q40 99 120 165q-71 82 -115 192q-45 113 -45 230
q0 155 67 291q67 135 192 232q124 96 308 152q183 56 406 56q232 0 427 -48t334 -137t216 -214q78 -126 78 -279q0 -94 -40 -184q-42 -95 -111 -180t-168 -172q-87 -77 -210 -160q116 -42 166 -59q69 -23 107 -23q92 0 153 63q61 62 88 215h5v-590zM510 481q82 0 197 -31
q102 -27 245 -79q100 -36 263 -102q73 -29 249 -99q76 68 123 163q47 94 47 218q0 121 -61 227q-62 108 -173 184q-109 75 -270 121q-157 45 -346 45q-333 0 -508 -127q-176 -128 -176 -342q0 -56 27 -125q27 -70 78 -137q58 40 134 62q75 22 171 22zM170 -221
q0 -105 81 -168q82 -64 198 -64q69 0 149 21q91 24 160 54q79 34 158 82q82 49 147 103q-193 89 -331 141q-159 60 -267 60q-136 0 -215 -55q-80 -56 -80 -174z" />
    <glyph glyph-name="r" unicode="r" 
d="M1161 532v-249q0 -165 -15 -307q-15 -141 -48 -245t-85 -163q-53 -60 -124 -60q-57 0 -140 69q-88 74 -178 155q-96 -88 -202 -154q-113 -70 -207 -70q-69 0 -106 52q-36 51 -36 157v744q0 52 18 79t62 27q34 0 123 -53q85 -50 199 -129q49 -34 227 -157
q110 -76 207 -136q65 97 94 201q31 110 31 199q0 215 -97 331q-98 117 -317 117q-83 0 -159 -20q-82 -22 -152 -58q-72 -38 -131 -89q-60 -52 -100 -118h-5v717q70 63 194 103q126 41 251 41q134 0 250 -61q114 -60 197 -167q84 -109 130 -253q48 -152 48 -314
q0 -189 -59 -357q-59 -169 -142 -290q28 -16 73 -37q29 -14 48 -14q73 0 97 65q23 63 23 195v1243h5q73 -18 278 -73q160 -43 291 -97q135 -56 229 -127q95 -72 95 -162v-305q0 -285 -113 -419t-293 -134q-125 0 -232 91q-108 92 -141 232h-28q15 -126 60 -230
q47 -108 112 -184q68 -79 148 -121q83 -44 171 -44q136 0 216 110q81 111 93 285h7v-518q0 -140 -66 -234q-67 -96 -197 -96q-111 0 -210 84t-176 226q-79 145 -127 329q-50 192 -62 393h-29zM1161 838q0 -66 40 -115q41 -50 108 -80t156 -45q83 -14 186 -14q183 0 265 53
q81 53 81 129q0 75 -53 110q-50 33 -152 33h-631v-71zM53 -133q0 -88 68 -133q67 -45 160 -45q61 0 126 17q74 19 138 50q-91 84 -194 160q-98 72 -179 72q-57 0 -88 -28t-31 -93z" />
    <glyph glyph-name="s" unicode="s" 
d="M291 -254q-133 0 -195 -69q-61 -68 -73 -179h-3v549q0 116 40 153q41 38 98 38q75 0 215 -36q98 -25 298 -80q165 -45 317 -81q157 -37 274 -37h10q211 0 333 86q121 85 121 252q0 118 -89 186t-216 68q-65 0 -136 -24q-76 -26 -144 -66l-174 -100q-75 -43 -172 -70
q-96 -27 -193 -27q-274 0 -433 161q-159 160 -159 448q0 138 52 249q53 114 141 193q89 80 206 123t246 43q143 0 289 -35q138 -33 273 -88l194 -80q34 -14 92.5 -37.5t80.5 -32.5q79 -32 140 -32q70 0 106 41q36 40 36 102q0 41 -13 78q-13 38 -36 82l4 2q88 -122 150 -242
q57 -111 57 -211v-24q-10 -123 -90 -201t-191 -78q-59 0 -170 34q-232 71 -241 74q-104 33 -258 72q-130 33 -222 33q-201 -1 -319 -82q-117 -79 -117 -239q0 -136 90 -212q91 -77 209 -77q59 0 122 18q60 17 124 53l219 127q105 61 195 85q91 24 167 24q108 0 199 -35
q90 -35 155 -101q62 -64 101 -163q37 -95 37 -217q0 -151 -58 -278q-57 -125 -157 -210q-101 -86 -237 -132q-135 -46 -292 -46q-114 0 -255 39q-146 40 -277 85q-107 36 -262 85q-124 39 -209 39z" />
    <glyph glyph-name="t" unicode="t" 
d="M858 1133q-12 -117 -58 -204q-48 -92 -118 -150q-73 -61 -164 -92q-93 -32 -194 -32q-93 0 -177 30t-127 73v696h7q8 -68 44 -118t89 -83q51 -32 121 -49q65 -16 139 -16q82 0 160 18q77 18 141 59q65 42 107 107q45 69 61 164h10zM2028 758q-120 -58 -223 -80
q-106 -23 -208 -23q-125 0 -236 32q-110 32 -193 92q-82 60 -134 150q-51 88 -63 204l-41 403h10q18 -96 73 -163t132 -107q83 -43 172 -60q95 -18 190 -18q183 0 304 57q122 57 212 209h5v-696zM866 279v-5q81 -33 243 -95q108 -41 230 -82q100 -33 202 -58q95 -23 155 -23
q142 0 224 87q82 86 103 245h5v-547q0 -142 -58 -223q-57 -80 -170 -80q-71 0 -191 37q-147 45 -271 93q-157 60 -310 124q-156 65 -311 127q-96 -184 -210 -277q-115 -94 -220 -94q-128 0 -198 90q-69 89 -69 275v426q0 124 29 179q29 54 105 54q34 0 98 -20
q77 -24 158 -55q4 -2 199 -79q36 -14 112 -44.5t115 -46.5q48 192 56 403q7 193 7 447v399h31v-399q0 -242 -9 -460q-9 -213 -55 -398zM51 -94q0 -87 70 -131q68 -43 182 -43q113 0 218 38q103 37 163 121q-157 65 -290 111q-130 45 -189 45q-74 0 -114 -37t-40 -104z" />
    <glyph glyph-name="u" unicode="u" 
d="M877 817q0 -77 -19 -172q-18 -91 -48 -179q-31 -92 -70 -174t-81 -157q27 -13 80.5 -38.5t80.5 -38.5q83 -39 148 -66q63 -26 123 -46q54 -18 87 -18q30 0 53 13q21 12 33 48q11 34 16 101q4 59 4 170v1256h4q47 -113 131 -157q85 -44 197 -44q115 0 233 50
q117 49 185 151h4l-365 -930q-46 -118 -57 -221q-11 -102 9 -179q19 -73 67 -118q46 -43 110 -43q57 0 87 36q32 38 32 95q0 55 -25 135q-23 72 -98 192l6 4q117 -178 175 -323q59 -147 59 -305q0 -164 -94 -257q-96 -94 -244 -94q-213 0 -285 167q-72 166 43 458l248 629
h-391v-887q0 -188 -71 -277q-72 -90 -179 -90q-36 0 -110 19q-60 15 -160 47q-81 26 -195 68q-8 3 -213 77q-63 -78 -141 -144q-79 -67 -142 -67q-42 0 -63 34t-21 114v608q0 60 19 88q18 27 59 27q26 0 80 -20q58 -22 124 -51q77 -35 155 -72q94 -45 170 -84q48 98 74 184
q28 93 28 178q0 156 -87 255t-249 99q-123 0 -215 -53q-91 -52 -153 -160h-5v717q22 25 65 52q39 25 88 46q47 21 101 33q57 13 103 13q114 0 208 -50q93 -49 157 -139q66 -93 100 -220q35 -132 35 -290z" />
    <glyph glyph-name="v" unicode="v" 
d="M1106 664q0 -101 -33 -224q-32 -119 -74 -217q112 -61 223 -119q120 -63 205 -101q100 -45 177 -70q78 -25 131 -25q63 0 114 42q52 43 86 112q37 76 54 165q18 94 18 197q0 186 -88 290q-89 105 -229 105q-132 0 -234 -90q-103 -91 -121 -272h-4v415q0 304 69 479
t216 175q108 0 188 -98q81 -99 131 -253q52 -158 77 -355q26 -202 26 -396q0 -195 -32 -367q-31 -169 -92 -293q-58 -119 -150 -194q-88 -72 -201 -72q-70 0 -163 32q-83 28 -193 82q-87 42 -210 114q-48 28 -213 127q-129 -162 -278 -253q-151 -92 -299 -92q-96 0 -141 63
q-46 64 -46 165v700q0 98 27 147q27 50 105 50q41 0 128 -35q83 -34 193 -90q129 -66 237 -126q13 -7 109.5 -60.5t147.5 -81.5q18 42 33 103q14 56 14 106q0 109 -39 201q-39 91 -107 156q-68 64 -162 99q-96 35 -206 35q-94 0 -177 -26q-86 -27 -142 -65q-62 -42 -101 -91
t-55 -103h-5v717q57 60 167 102q109 42 237 42q324 0 503 -226t179 -626zM51 -53q0 -110 64 -168t166 -58q122 0 248 43q129 44 225 107q-166 101 -309 177q-143 77 -222 77q-74 0 -123 -43t-49 -135z" />
    <glyph glyph-name="w" unicode="w" 
d="M768 817q0 -87 -12 -185q-12 -100 -33 -193q-21 -95 -48 -186q-20 -67 -59 -167q69 -38 145 -73q64 -29 105 -29q72 0 107 47t18 147l-219 1338h4q52 -92 155 -135q105 -44 214 -44t209 42q99 41 149 137h4l-157 -754q-38 -172 -54 -288q-16 -112 -16 -214
q0 -139 84 -226t235 -87q83 0 156 36t129 105q53 66 89 175q34 103 34 243q0 146 -65 229q-66 84 -170 84q-117 0 -185 -95q-67 -94 -88 -267h-4v374q0 127 12 252q12 120 40 224q26 96 74 158q47 61 112 61q82 0 139 -90q56 -88 94 -235q35 -134 54 -328q18 -183 18 -367
q0 -199 -39 -382q-39 -181 -112 -322q-72 -138 -179 -221t-240 -83q-141 0 -213 99q-71 98 -71 290q0 82 18 217q18 137 42 272q24 136 45 246l28 140h-389l133 -805q22 -134 20 -226q-2 -88 -24 -137t-63 -67q-43 -19 -91 -19q-85 0 -232 54q-136 50 -282 116
q-60 -64 -136 -118q-73 -52 -136 -52q-46 0 -71 37q-26 38 -26 115v604q0 60 19 88q18 27 59 27q25 0 76 -27q62 -33 119 -67q58 -35 145 -90q71 -45 152 -93q19 66 26 131q9 81 9 154q0 101 -23 188q-23 88 -64 149t-105 98q-63 36 -142 36q-106 0 -178 -51
q-71 -51 -88 -152h-5v775q48 36 126 62q76 26 151 26q121 0 210 -50q90 -50 146 -140q58 -93 86 -221q29 -133 29 -290z" />
    <glyph glyph-name="x" unicode="x" 
d="M379 440v164l594 -76q-2 218 -128 326q-127 109 -333 109q-175 0 -299 -83q-121 -81 -188 -225h-5v717q70 70 178 112t216 42q308 0 449 -258t141 -748q0 -199 -78 -382q-78 -182 -210 -322t-313 -224q-180 -84 -383 -84v707q0 66 29 101q28 34 78 34q45 0 91 -24
q40 -21 101 -70l433 -350q110 134 166 287q55 150 55 323zM1292 1128q-106 -128 -160 -279q-56 -154 -57 -321l584 76v-164l-584 76v-2q0 -111 39 -195t105 -138q69 -56 152 -82q87 -27 183 -27q162 0 283 84q120 83 186 223h5v-717q-70 -70 -178 -112t-216 -42
q-307 0 -449 259q-141 258 -141 747q0 199 78 382q78 184 210 323q130 138 313 223q180 84 383 84v-707q0 -66 -29 -101q-28 -34 -78 -34q-44 0 -91 26t-101 68z" />
    <glyph glyph-name="y" unicode="y" 
d="M199 -489q-41 0 -75 34q-32 32 -56 97q-24 64 -35 146q-13 93 -13 185q0 331 85 480t198 149q67 0 165 -60t198 -126q6 27 9 54t3 54q0 180 -74 290t-196 110q-124 0 -224 -66q-98 -64 -159 -203h-5v717q63 66 168 105t207 39q203 0 317 -124q113 -123 113 -329
q0 -166 -33 -338q-34 -178 -92 -332q69 -45 128 -74q60 -30 106 -30q82 0 121 61q38 60 59 182l135 744q23 123 43 179q21 61 84 61q39 0 106 -48q62 -45 140 -118l227 -215l174 319h5v-594q0 -144 -37 -193q-39 -51 -117 -51q-20 0 -50 15q-35 18 -65 37q-26 -71 15 -129
q42 -59 112 -129q60 -60 106 -136t46 -194q0 -277 -115 -430q-114 -152 -293 -152q-204 0 -321 166q-116 166 -115 500q0 126 17 227q17 102 49 183q31 78 75 121q46 44 99 44q82 0 124 -73q41 -72 41 -230v-350h-4q-15 126 -67 196t-146 70q-69 0 -113 -50t-44 -138
q0 -63 32 -108q33 -46 90 -78q59 -32 133 -47q76 -15 165 -15q165 0 264 42q98 42 98 122q0 30 -21 60q-22 31 -56 58q-46 36 -73 54q-46 31 -77 53q-87 62 -97 170t50 209q-66 45 -124 90q-61 47 -127 95q-70 51 -110 75q-51 31 -74 31q-50 -1 -65 -42q-13 -36 -29 -122
l-176 -963q-11 -59 -34 -89q-24 -31 -85 -31q-19 0 -57 21q-33 18 -83 54q-48 34 -100 76q-21 17 -62 49t-48 37q-68 -212 -165 -335q-94 -119 -195 -119zM51 -29q1 -98 48 -145t124 -47q71 0 154 52q82 51 149 159q-95 73 -173 119q-85 51 -142 51q-72 0 -117 -47
q-45 -46 -43 -142z" />
    <glyph glyph-name="z" unicode="z" 
d="M1053 557q358 134 571 341q215 209 311 495h-30q-49 -133 -129 -252q-79 -117 -182 -207q-100 -87 -217 -140t-234 -53q-86 0 -193 35q-87 29 -210 76q-133 51 -205 76q-102 35 -179 35q-127 0 -190 -76q-64 -78 -64 -254q0 -49 11 -124q13 -90 30 -161h-123v1147h31
v-864h21q22 469 135 682t325 213q106 0 245 -59q145 -61 280 -129q145 -72 274 -129q132 -58 230 -58q144 0 224 92q79 91 120 283h123l-50 -133q-111 -301 -332 -515q-220 -212 -583 -341l-625 -62v164zM1569 -502q-89 0 -214 72t-261 156q-121 75 -282 155
q-144 72 -273 72q-201 0 -292 -127q-92 -128 -114 -328h-123l27 103q85 329 350 552q263 221 676 363l625 82v-164l-615 62q-403 -145 -663 -364q-255 -215 -332 -531h31q44 143 115 261t168 206q95 86 211 134q115 48 241 48q108 0 231 -32q135 -35 234 -68
q102 -34 212 -69q101 -32 169 -32q117 0 186 81q70 82 70 251q0 48 -11 125q-12 83 -30 149h123v-1126h-31v854h-21q-10 -261 -42 -434q-31 -171 -83 -273q-51 -101 -122 -139q-72 -39 -160 -39z" />
    <glyph glyph-name="braceleft" unicode="{" horiz-adv-x="512" 
d="M532 -451v-20h-20q-227 0 -329 78q-101 77 -101 250v481q0 86 -17 124q-18 40 -57 40h-8v20h8q39 0 57 40q17 38 17 124v481q0 173 101 250q102 78 329 78h20v-20h-18q-50 0 -72 -45q-22 -44 -22 -140v-471q0 -148 -86 -220q-85 -72 -279 -87q194 -15 279 -87
q86 -72 86 -220v-471q0 -96 22 -140q22 -45 72 -45h18z" />
    <glyph glyph-name="bar" unicode="|" horiz-adv-x="512" 
d="M274 1495v-1966h-36v1966h36z" />
    <glyph glyph-name="braceright" unicode="}" horiz-adv-x="512" 
d="M430 -143q0 -173 -101 -250q-102 -78 -329 -78h-20v20h18q50 0 72 45q22 44 22 140v471q0 148 86 220q85 72 279 87q-194 15 -279 87q-86 72 -86 220v471q0 96 -22 140q-22 45 -72 45h-18v20h20q227 0 329 -78q101 -77 101 -250v-481q0 -86 17 -124q18 -40 57 -40h8v-20
h-8q-39 0 -57 -40q-17 -38 -17 -124v-481z" />
    <glyph glyph-name="asciitilde" unicode="~" horiz-adv-x="1024" 
d="M705 420q69 0 110 45q41 46 41 149v11h35v-11q0 -114 -47 -170q-46 -55 -142 -55q-65 0 -111 34q-47 35 -86 74q-35 35 -83 73q-43 34 -103 34q-69 0 -110 -45q-41 -46 -41 -149v-11h-35v11q0 114 47 170q46 55 142 55q65 0 111 -34q47 -35 86 -74q35 -35 83 -73
q43 -34 103 -34z" />
    <glyph glyph-name="nbspace" unicode="&#xa0;" horiz-adv-x="512" 
 />
    <glyph glyph-name="exclamdown" unicode="&#xa1;" horiz-adv-x="512" 
d="M256 1516q89 0 148 -59t59 -146q0 -88 -59 -147q-58 -58 -148 -58t-148 58q-59 59 -59 147q0 87 59 146t148 59zM258 963l207 -1434h-420l207 1434h6z" />
    <glyph glyph-name="cent" unicode="&#xa2;" horiz-adv-x="1024" 
d="M952 926q0 -99 -33 -182q-35 -88 -85 -156h-5q-47 293 -121 436q-75 144 -169 162v-1043q31 -20 67 -29q38 -10 72 -10q101 0 187 80q85 79 108 287h10q-7 -357 -130 -523q-122 -165 -314 -173v-287h-37v287q-98 1 -181 56q-82 54 -143 148q-58 89 -93 223
q-34 129 -34 285q0 144 35 273q34 125 95 223q59 94 144 162q83 66 177 90v301h37v-293l36 4q24 2 39 2q91 0 152 -26q63 -27 104 -71t62 -102q20 -56 20 -124zM303 782q0 -226 55 -381q55 -154 144 -231v1020q-80 -2 -140 -101q-59 -97 -59 -307z" />
    <glyph glyph-name="sterling" unicode="&#xa3;" horiz-adv-x="1024" 
d="M586 436q0 -69 -20 -131q-20 -63 -56 -117q-38 -57 -90 -120q-55 -66 -119 -146h703v-393h-994v6q109 151 157 226q61 95 95 164q34 71 48 129q14 61 14 120q0 70 -27 149q-26 76 -64 160h-213v31h199q-60 131 -113 254q-55 129 -55 256q0 120 45 211q46 93 121 155
q76 62 175 94q101 32 208 32q104 0 180 -27t126 -71q51 -44 74 -103q24 -60 24 -125q0 -96 -27 -186t-80 -170h-4q-6 153 -46 270q-42 122 -98 200q-57 79 -128 122q-69 42 -138 42q-70 0 -117 -44t-47 -117q0 -70 35 -169q26 -73 79 -205l87 -216q43 -106 58 -203h313v-31
h-307q2 -16 2 -24v-23z" />
    <glyph glyph-name="currency" unicode="&#xa4;" horiz-adv-x="1024" 
d="M512 791q54 0 100 -18t84 -48l92 92l27 -26l-92 -93q30 -38 48 -84q17 -44 17 -100t-17 -100q-18 -46 -48 -84l92 -92l-27 -27l-92 92q-38 -30 -84 -48q-44 -17 -100 -17t-100 17q-46 18 -84 48l-92 -92l-27 27l92 92q-30 38 -48 84q-17 44 -17 100t17 100q18 46 48 84
l-92 93l27 26l92 -92q38 30 84 48q47 18 100 18zM512 756q-105 0 -171 -69q-67 -70 -67 -173t67 -173q66 -69 171 -69t171 69q67 70 67 173t-67 173q-66 69 -171 69z" />
    <glyph glyph-name="yen" unicode="&#xa5;" horiz-adv-x="1024" 
d="M20 729h299l-225 621q-24 76 -42 103q-19 28 -52 38v4h592v-4q-76 -7 -114 -64q-37 -55 -7 -143l211 -612l131 497q35 131 -13 215q-48 85 -165 107v4h389v-4q-71 -24 -103 -92q-32 -69 -77 -232l-119 -438h279v-31h-287l-17 -63v-311h304v-31h-304v-504q0 -79 15 -125
q15 -47 39 -74t58 -39q35 -12 73 -18v-4h-717v4q38 6 73 18q34 12 58 39t39 74q14 43 14 125v504h-332v31h332v315l-20 59h-312v31z" />
    <glyph glyph-name="brokenbar" unicode="&#xa6;" horiz-adv-x="512" 
d="M274 1495v-717h-36v717h36zM274 246v-717h-36v717h36z" />
    <glyph glyph-name="section" unicode="&#xa7;" horiz-adv-x="1024" 
d="M1012 -92q0 -195 -130 -297q-132 -103 -333 -103q-109 0 -222 25q-102 23 -237 76v350h4q135 -234 290 -323q154 -88 273 -87q85 0 128 43q44 44 44 113q0 84 -128 159q-143 84 -280 158q-155 83 -281 183q-128 101 -128 231q0 117 57 204q58 88 150 144q-84 64 -147 149
q-60 81 -60 183q0 195 130 297q132 103 333 103q109 0 222 -25q102 -23 237 -76v-350h-4q-135 234 -290 323q-154 88 -273 87q-84 0 -128 -44t-44 -112q0 -83 128 -160q132 -79 280 -159q153 -82 281 -182q128 -99 128 -230q0 -116 -56 -204t-149 -144q87 -65 146 -148
t59 -184zM197 688q0 -57 60 -108q58 -50 150 -104q53 -32 194 -108q114 -62 196 -122q14 17 22 41t8 51q0 57 -60 108t-150 103q-50 29 -194 107q-114 62 -196 122q-14 -17 -22 -41t-8 -49z" />
    <glyph glyph-name="dieresis" unicode="&#xa8;" horiz-adv-x="1024" 
d="M698 1698q64 0 105 -42q41 -43 41 -100q0 -56 -41 -99q-41 -42 -105 -42t-104 42q-41 43 -41 99q0 57 41 100q40 42 104 42zM326 1698q64 0 104 -42q41 -43 41 -100q0 -56 -41 -99q-41 -42 -104 -42q-64 0 -105 42q-41 43 -41 99q0 57 41 100q41 42 105 42z" />
    <glyph glyph-name="copyright" unicode="&#xa9;" 
d="M1024 1516q217 0 402 -76q187 -77 318 -208t208 -318q76 -185 76 -402t-76 -402q-77 -187 -208 -318t-318 -208q-185 -76 -402 -76t-402 76q-187 77 -318 208t-208 318q-76 185 -76 402t76 402q77 187 208 318t318 208q185 76 402 76zM1024 1479q-209 0 -388 -73
q-175 -71 -305 -201q-128 -128 -200 -306q-72 -179 -72 -387t72 -387q72 -178 200 -306q130 -130 305 -201q179 -73 388 -73t388 73q175 71 305 201q128 128 200 306q72 179 72 387t-72 387q-72 178 -200 306q-130 130 -305 201q-179 73 -388 73zM1044 1018q-126 0 -197 -98
q-73 -100 -73 -248q0 -114 34 -195q34 -82 88 -134q55 -53 125 -77q71 -24 144 -24q128 0 230 69t129 221h4q-6 -115 -40 -215q-35 -104 -95 -180q-61 -77 -153 -124q-91 -46 -208 -46q-110 0 -206 38q-92 37 -162 108q-68 70 -107 167q-39 98 -39 214q0 124 48 229
q48 104 129 178q82 75 190 115q109 41 229 41q82 0 165 -17t177 -55v-317h-4q-95 195 -202 273q-106 77 -206 77z" />
    <glyph glyph-name="guillemotleft" unicode="&#xab;" horiz-adv-x="1024" 
d="M549 924l-148 -430l148 -431h-6l-441 431l441 430h6zM918 924l-148 -430l148 -431h-7l-440 431l440 430h7z" />
    <glyph glyph-name="logicalnot" unicode="&#xac;" horiz-adv-x="1024" 
d="M133 651h758v-403h-37v373h-721v30z" />
    <glyph glyph-name="registered" unicode="&#xae;" horiz-adv-x="1024" 
d="M512 1516q102 0 191 -36t153 -100q63 -63 99 -152q36 -88 36 -192q0 -102 -36 -191q-37 -91 -99 -153q-61 -61 -153 -100q-87 -37 -191 -37t-191 37q-92 39 -153 100t-100 153q-37 87 -37 191q0 105 37 192q38 90 100 152q64 64 153 100q88 36 191 36zM512 1483
q-97 0 -178 -34q-83 -35 -140 -93q-59 -60 -93 -142q-33 -79 -33 -178q0 -100 33 -179q34 -82 93 -142q57 -58 140 -93q81 -34 178 -34t177 34q82 35 140 93q60 60 93 142q32 80 32 179q0 98 -32 178q-33 82 -93 142q-58 58 -140 93q-80 34 -177 34zM223 1284v4h283
q127 0 196 -32q68 -32 68 -89q0 -55 -53 -87t-131 -44q29 -1 57 -10q24 -8 43 -37l109 -172q11 -19 19 -24q9 -6 20 -7v-4h-222l-106 191q-10 18 -18 27q-8 10 -21 10h-8v-156q0 -38 12 -50t45 -18v-4h-293v4q31 6 44 18q14 12 14 50v367q0 36 -14 47q-12 10 -44 16z
M479 1257h-20v-217h33q39 0 66 32q28 33 28 83q0 37 -21 70q-20 32 -86 32z" />
    <glyph glyph-name="macron" unicode="&#xaf;" horiz-adv-x="1024" 
d="M737 1602v-193h-450v193h450z" />
    <glyph glyph-name="degree" unicode="&#xb0;" horiz-adv-x="512" 
d="M256 1516q100 0 168 -68t68 -168t-68 -168t-168 -68t-168 68t-68 168t68 168t168 68zM256 1481q-85 0 -142 -57t-57 -144t57 -144t142 -57t142 57t57 144t-57 144t-142 57z" />
    <glyph glyph-name="plusminus" unicode="&#xb1;" horiz-adv-x="1024" 
d="M113 631h381v393h36v-393h381v-31h-381v-373h-36v373h-381v31zM113 31h798v-31h-798v31z" />
    <glyph glyph-name="acute" unicode="&#xb4;" horiz-adv-x="1024" 
d="M266 1438l492 241v-204l-492 -41v4z" />
    <glyph glyph-name="paragraph" unicode="&#xb6;" horiz-adv-x="1024" 
d="M604 1495v-1966h-231v4q102 15 148 46t46 128v785h-20q-107 0 -198 29q-99 31 -168 92q-73 64 -116 159q-45 99 -45 229q0 239 130 367q128 127 385 127h69zM772 1495h191v-4q-81 -16 -118 -47q-36 -30 -36 -127v-1528q0 -141 45 -188q46 -47 150 -68v-4h-232v1966z" />
    <glyph glyph-name="periodcentered" unicode="&#xb7;" horiz-adv-x="512" 
d="M256 272q-89 0 -148 59t-59 146q0 88 59 147q58 58 148 58t148 -58q59 -59 59 -147q0 -87 -59 -146t-148 -59z" />
    <glyph glyph-name="cedilla" unicode="&#xb8;" horiz-adv-x="1024" 
d="M516 10q-18 -15 -22 -23q-5 -10 -5 -18q0 -18 31 -46q32 -29 67 -58q33 -28 66 -67q31 -37 31 -68q0 -65 -72 -128t-194 -63q-62 0 -109 30t-47 85q0 36 3 62q2 20 16 73h4q24 -110 83 -166q58 -55 121 -55q31 0 52 18q20 17 20 49q0 29 -30 59q-29 29 -65 56
q-56 42 -66 50q-29 23 -29 42q0 32 38 70q30 30 103 98h4z" />
    <glyph glyph-name="guillemotright" unicode="&#xbb;" horiz-adv-x="1024" 
d="M106 924h7l440 -430l-440 -431h-7l148 431zM475 924h6l441 -430l-441 -431h-6l148 431z" />
    <glyph glyph-name="questiondown" unicode="&#xbf;" horiz-adv-x="1024" 
d="M567 1516q90 0 149 -59q58 -58 58 -146q0 -89 -58 -147t-149 -58q-90 0 -148 58q-59 59 -59 147q0 87 59 146t148 59zM420 -451q89 0 171 47q80 46 143 137q63 92 102 230q40 142 47 326h4q66 -106 96 -190q31 -88 31 -187q0 -82 -29 -155t-90 -128t-159 -88t-236 -33
q-230 0 -360 121t-130 344q0 129 81 257q82 130 177 242q96 114 177 210t81 162q0 62 -39 96q-40 36 -149 37v4q268 15 377 -59q108 -73 108 -203q0 -102 -103 -229q-113 -139 -227 -260q-127 -135 -228 -259q-103 -127 -103 -223q0 -97 68 -147q70 -52 190 -52z" />
    <glyph glyph-name="Agrave" unicode="&#xc0;" 
d="M20 -492v725q0 61 19 89q17 26 59 26q28 0 80 -33q86 -54 120 -78q66 -47 141 -99q70 -49 141 -91q55 101 84 202q28 97 28 208q0 179 -95 291q-94 110 -257 110q-114 0 -199 -50q-82 -48 -116 -153h-5v717q63 64 160 104q98 40 195 40q120 0 208 -50q85 -49 143 -138
q57 -88 84 -218q28 -134 28 -289q0 -98 -21 -208q-23 -119 -53 -215q-33 -105 -75 -201q-42 -97 -83 -166q34 -18 74 -34q33 -13 61 -13q63 0 100 58q38 59 38 136v1157q0 87 31 133q33 48 96 48q64 0 153 -47q87 -46 182 -115l349 -256l333 356h5v-481q0 -203 -86 -316
q-85 -111 -222 -116q-61 -2 -124 33q-60 33 -132 90q-1 -153 26 -269q27 -112 73 -188q45 -73 105 -111q59 -37 122 -37q105 0 162 71q56 69 71 218h5v-383q0 -198 -78 -327q-79 -130 -236 -130q-156 0 -248 109t-92 268q0 74 3 155t9 165h-477v-535q0 -75 -41 -119
q-40 -43 -116 -43q-74 0 -190 55q-101 48 -228 103q-67 -52 -157 -104q-91 -53 -157 -54zM909 862v-309h514q1 12 8 64q3 21 11 65q-68 57 -123 106q-77 69 -117 103q-65 54 -104 78q-50 30 -88 30q-58 0 -79 -34q-22 -36 -22 -103zM1368 1581v-4l-491 41v205z" />
    <glyph glyph-name="Aacute" unicode="&#xc1;" 
d="M20 -492v725q0 61 19 89q17 26 59 26q28 0 80 -33q86 -54 120 -78q66 -47 141 -99q70 -49 141 -91q55 101 84 202q28 97 28 208q0 179 -95 291q-94 110 -257 110q-114 0 -199 -50q-82 -48 -116 -153h-5v717q63 64 160 104q98 40 195 40q120 0 208 -50q85 -49 143 -138
q57 -88 84 -218q28 -134 28 -289q0 -98 -21 -208q-23 -119 -53 -215q-33 -105 -75 -201q-42 -97 -83 -166q34 -18 74 -34q33 -13 61 -13q63 0 100 58q38 59 38 136v1157q0 87 31 133q33 48 96 48q64 0 153 -47q87 -46 182 -115l349 -256l333 356h5v-481q0 -203 -86 -316
q-85 -111 -222 -116q-61 -2 -124 33q-60 33 -132 90q-1 -153 26 -269q27 -112 73 -188q45 -73 105 -111q59 -37 122 -37q105 0 162 71q56 69 71 218h5v-383q0 -198 -78 -327q-79 -130 -236 -130q-156 0 -248 109t-92 268q0 74 3 155t9 165h-477v-535q0 -75 -41 -119
q-40 -43 -116 -43q-74 0 -190 55q-101 48 -228 103q-67 -52 -157 -104q-91 -53 -157 -54zM909 862v-309h514q1 12 8 64q3 21 11 65q-68 57 -123 106q-77 69 -117 103q-65 54 -104 78q-50 30 -88 30q-58 0 -79 -34q-22 -36 -22 -103zM883 1581l491 242v-205l-491 -41v4z" />
    <glyph glyph-name="Acircumflex" unicode="&#xc2;" 
d="M20 -492v725q0 61 19 89q17 26 59 26q28 0 80 -33q86 -54 120 -78q66 -47 141 -99q70 -49 141 -91q55 101 84 202q28 97 28 208q0 179 -95 291q-94 110 -257 110q-114 0 -199 -50q-82 -48 -116 -153h-5v717q63 64 160 104q98 40 195 40q120 0 208 -50q85 -49 143 -138
q57 -88 84 -218q28 -134 28 -289q0 -98 -21 -208q-23 -119 -53 -215q-33 -105 -75 -201q-42 -97 -83 -166q34 -18 74 -34q33 -13 61 -13q63 0 100 58q38 59 38 136v1157q0 87 31 133q33 48 96 48q64 0 153 -47q87 -46 182 -115l349 -256l333 356h5v-481q0 -203 -86 -316
q-85 -111 -222 -116q-61 -2 -124 33q-60 33 -132 90q-1 -153 26 -269q27 -112 73 -188q45 -73 105 -111q59 -37 122 -37q105 0 162 71q56 69 71 218h5v-383q0 -198 -78 -327q-79 -130 -236 -130q-156 0 -248 109t-92 268q0 74 3 155t9 165h-477v-535q0 -75 -41 -119
q-40 -43 -116 -43q-74 0 -190 55q-101 48 -228 103q-67 -52 -157 -104q-91 -53 -157 -54zM909 862v-309h514q1 12 8 64q3 21 11 65q-68 57 -123 106q-77 69 -117 103q-65 54 -104 78q-50 30 -88 30q-58 0 -79 -34q-22 -36 -22 -103zM797 1577h-4l288 246h4l289 -246h-4
l-287 76z" />
    <glyph glyph-name="Atilde" unicode="&#xc3;" 
d="M20 -492v725q0 61 19 89q17 26 59 26q28 0 80 -33q86 -54 120 -78q66 -47 141 -99q70 -49 141 -91q55 101 84 202q28 97 28 208q0 179 -95 291q-94 110 -257 110q-114 0 -199 -50q-82 -48 -116 -153h-5v717q63 64 160 104q98 40 195 40q120 0 208 -50q85 -49 143 -138
q57 -88 84 -218q28 -134 28 -289q0 -98 -21 -208q-23 -119 -53 -215q-33 -105 -75 -201q-42 -97 -83 -166q34 -18 74 -34q33 -13 61 -13q63 0 100 58q38 59 38 136v1157q0 87 31 133q33 48 96 48q64 0 153 -47q87 -46 182 -115l349 -256l333 356h5v-481q0 -203 -86 -316
q-85 -111 -222 -116q-61 -2 -124 33q-60 33 -132 90q-1 -153 26 -269q27 -112 73 -188q45 -73 105 -111q59 -37 122 -37q105 0 162 71q56 69 71 218h5v-383q0 -198 -78 -327q-79 -130 -236 -130q-156 0 -248 109t-92 268q0 74 3 155t9 165h-477v-535q0 -75 -41 -119
q-40 -43 -116 -43q-74 0 -190 55q-101 48 -228 103q-67 -52 -157 -104q-91 -53 -157 -54zM909 862v-309h514q1 12 8 64q3 21 11 65q-68 57 -123 106q-77 69 -117 103q-65 54 -104 78q-50 30 -88 30q-58 0 -79 -34q-22 -36 -22 -103zM1458 1823q-18 -130 -54 -193t-118 -63
q-26 0 -68 9q-68 15 -89 20q-51 13 -89 21q-43 9 -73 9q-38 0 -58 -17t-28 -53h-4q21 129 55 192q34 64 117 64q27 0 70 -9q62 -13 89 -20q43 -12 89 -21q44 -9 71 -9q37 0 57 17q21 18 29 53h4z" />
    <glyph glyph-name="Adieresis" unicode="&#xc4;" 
d="M20 -492v725q0 61 19 89q17 26 59 26q28 0 80 -33q86 -54 120 -78q66 -47 141 -99q70 -49 141 -91q55 101 84 202q28 97 28 208q0 179 -95 291q-94 110 -257 110q-114 0 -199 -50q-82 -48 -116 -153h-5v717q63 64 160 104q98 40 195 40q120 0 208 -50q85 -49 143 -138
q57 -88 84 -218q28 -134 28 -289q0 -98 -21 -208q-23 -119 -53 -215q-33 -105 -75 -201q-42 -97 -83 -166q34 -18 74 -34q33 -13 61 -13q63 0 100 58q38 59 38 136v1157q0 87 31 133q33 48 96 48q64 0 153 -47q87 -46 182 -115l349 -256l333 356h5v-481q0 -203 -86 -316
q-85 -111 -222 -116q-61 -2 -124 33q-60 33 -132 90q-1 -153 26 -269q27 -112 73 -188q45 -73 105 -111q59 -37 122 -37q105 0 162 71q56 69 71 218h5v-383q0 -198 -78 -327q-79 -130 -236 -130q-156 0 -248 109t-92 268q0 74 3 155t9 165h-477v-535q0 -75 -41 -119
q-40 -43 -116 -43q-74 0 -190 55q-101 48 -228 103q-67 -52 -157 -104q-91 -53 -157 -54zM909 862v-309h514q1 12 8 64q3 21 11 65q-68 57 -123 106q-77 69 -117 103q-65 54 -104 78q-50 30 -88 30q-58 0 -79 -34q-22 -36 -22 -103zM1292 1841q64 0 105 -42q41 -43 41 -99
t-41 -99q-41 -42 -105 -42t-104 42q-41 43 -41 99t41 99q40 42 104 42zM920 1841q64 0 104 -42q41 -43 41 -99t-41 -99q-40 -42 -104 -42t-105 42q-41 43 -41 99t41 99q41 42 105 42z" />
    <glyph glyph-name="Aring" unicode="&#xc5;" 
d="M20 -492v725q0 61 19 89q17 26 59 26q28 0 80 -33q86 -54 120 -78q66 -47 141 -99q70 -49 141 -91q55 101 84 202q28 97 28 208q0 179 -95 291q-94 110 -257 110q-114 0 -199 -50q-82 -48 -116 -153h-5v717q63 64 160 104q98 40 195 40q120 0 208 -50q85 -49 143 -138
q57 -88 84 -218q28 -134 28 -289q0 -98 -21 -208q-23 -119 -53 -215q-33 -105 -75 -201q-42 -97 -83 -166q34 -18 74 -34q33 -13 61 -13q63 0 100 58q38 59 38 136v1157q0 87 31 133q33 48 96 48q64 0 153 -47q87 -46 182 -115l349 -256l333 356h5v-481q0 -203 -86 -316
q-85 -111 -222 -116q-61 -2 -124 33q-60 33 -132 90q-1 -153 26 -269q27 -112 73 -188q45 -73 105 -111q59 -37 122 -37q105 0 162 71q56 69 71 218h5v-383q0 -198 -78 -327q-79 -130 -236 -130q-156 0 -248 109t-92 268q0 74 3 155t9 165h-477v-535q0 -75 -41 -119
q-40 -43 -116 -43q-74 0 -190 55q-101 48 -228 103q-67 -52 -157 -104q-91 -53 -157 -54zM909 862v-309h514q1 12 8 64q3 21 11 65q-68 57 -123 106q-77 69 -117 103q-65 54 -104 78q-50 30 -88 30q-58 0 -79 -34q-22 -36 -22 -103zM1106 1556q-132 0 -203 37
q-72 37 -72 107q0 68 72 106q71 37 203 37t203 -37t71 -106q0 -70 -71 -107t-203 -37zM1106 1819q-51 0 -76 -31q-24 -30 -24 -88t24 -88q25 -31 76 -31t76 31q24 30 24 88t-24 88q-25 31 -76 31z" />
    <glyph glyph-name="AE" unicode="&#xc6;" 
d="M217 -324q-59 -86 -103 -125q-48 -42 -94 -43v725q0 59 10 89q9 26 44 26q15 0 44 -20q36 -25 67 -50q46 -36 81 -67q48 -41 84 -68q41 109 59 197q17 85 17 199q0 169 -56 247q-57 80 -147 80q-75 0 -130 -50q-53 -48 -68 -167h-5v838q138 15 239 -21q99 -35 158 -110
q60 -76 87 -192q26 -111 26 -261q0 -211 -44 -414q-43 -200 -109 -366q38 -27 68 -43q32 -17 55 -17q41 0 56 35q15 34 15 80v1157q0 87 27 133q28 48 78 48q41 0 184 -54q140 -52 336 -135q-47 -225 -67 -389q-21 -174 -21 -309q0 -175 32 -295q31 -117 89 -195v1184
q1 103 23 154q21 49 87 49q39 0 107 -50q52 -38 141 -109q73 -58 147 -109q73 -50 124 -50q71 0 113 71q41 70 52 175h5v-627q0 -83 -25 -128q-24 -44 -74 -44q-36 0 -120 61q-96 70 -175 132q-88 69 -179 132q-87 60 -132 60q-31 0 -47 -31t-16 -98v-241h407v-348h-407
v-218q68 -73 165 -100q96 -27 201 -27q174 0 277 91q102 90 120 280h5v-383q0 -198 -108 -327q-109 -130 -308 -130q-130 0 -235 48q-101 46 -168 133q-65 84 -100 209q-34 121 -34 274v150h-473v-652q0 -78 -20 -119q-21 -43 -56 -43q-57 0 -140 53q-95 60 -169 115z
M602 903v-233h473v168q-35 35 -92 77q-53 39 -102 65q-51 27 -99 44q-45 16 -80 16q-57 0 -78 -34q-22 -36 -22 -103z" />
    <glyph glyph-name="Ccedilla" unicode="&#xc7;" 
d="M1059 -506h-10q-9 -9 -12 -16t-3 -15q0 -18 31 -46q32 -29 67 -58q33 -28 66 -67q31 -37 31 -68q0 -65 -72 -128t-194 -63q-62 0 -109 30t-47 85q0 38 3 63t15 72h4q24 -110 83 -166q58 -55 122 -55q30 0 51 18t21 50q0 28 -30 58q-29 29 -65 56q-56 42 -66 50
q-30 24 -30 42q0 33 37 69q39 37 95 89q-243 2 -438 92q-192 89 -325 245q-133 155 -203 365q-71 211 -71 447q0 429 171 660t489 231q146 0 302 -54q147 -51 302 -118q230 -99 274 -118q129 -54 221 -54q89 0 138 55t49 125q0 40 -8 82q-6 33 -27 78l4 4q37 -54 76 -154
q37 -95 37 -202q0 -124 -30 -219q-30 -94 -80 -158q-49 -62 -120 -96q-69 -33 -147 -33q-72 0 -145 23q-74 23 -153 62q-72 35 -157 85q-92 54 -162 92v-979h9h8q380 0 614 147t359 412h4q-33 -203 -105 -390q-72 -186 -190 -325t-289 -222t-395 -83zM45 643q0 -175 79 -303
q80 -130 211 -212q132 -82 308 -126q171 -42 371 -47v995q-131 73 -248 120q-126 50 -248 50q-98 0 -180 -26q-87 -27 -151 -84q-63 -56 -103 -149q-39 -91 -39 -218z" />
    <glyph glyph-name="Egrave" unicode="&#xc8;" 
d="M1044 766q0 -60 -9 -127q-10 -78 -23 -132q-17 -75 -35 -125q-23 -67 -43 -110q10 -4 36.5 -15t40.5 -17q13 -6 37.5 -17t36.5 -16v1116q0 103 23 154q22 49 88 49q51 0 137 -50q61 -35 180 -109q103 -64 188 -109q94 -50 157 -50q71 0 113 71q41 70 52 175h5v-627
q0 -84 -29 -128t-84 -44q-40 0 -138 56q-90 51 -209 122q-101 60 -218 121q-107 56 -164 56q-33 0 -52 -25q-18 -24 -18 -74v-243h531v-349h-531v-124q189 -78 350 -132q165 -55 267 -55q69 0 122 32q56 34 89 81q35 50 54 109q19 57 25 118h5v-526q0 -171 -61 -243
q-60 -71 -173 -71q-74 0 -195 36q-114 34 -264 90q-78 29 -302 118q-244 97 -308 121q-44 -57 -118 -131q-65 -65 -137 -117q-70 -51 -141 -84t-132 -33q-102 0 -140 59q-37 58 -37 163v741q0 63 24 92t79 29q38 0 118 -27q93 -32 182 -69q86 -36 227 -99q71 -31 251 -110
q24 61 39 132q14 66 14 128q0 94 -34 166q-35 74 -95 124q-59 49 -139 76t-170 27q-79 0 -150 -20q-78 -22 -140 -58t-116 -90q-50 -50 -85 -117h-5v717q77 70 176 107q98 37 228 37q136 0 252 -58q113 -57 196 -156q81 -97 127 -238q45 -138 45 -298zM51 -121
q0 -77 64 -118q62 -40 166 -40q121 0 237 51q112 49 172 115q-164 60 -282 94q-130 37 -218 39q-59 0 -99 -31t-40 -110zM1413 1581v-4l-491 41v205z" />
    <glyph glyph-name="Eacute" unicode="&#xc9;" 
d="M1044 766q0 -60 -9 -127q-10 -78 -23 -132q-17 -75 -35 -125q-23 -67 -43 -110q10 -4 36.5 -15t40.5 -17q13 -6 37.5 -17t36.5 -16v1116q0 103 23 154q22 49 88 49q51 0 137 -50q61 -35 180 -109q103 -64 188 -109q94 -50 157 -50q71 0 113 71q41 70 52 175h5v-627
q0 -84 -29 -128t-84 -44q-40 0 -138 56q-90 51 -209 122q-101 60 -218 121q-107 56 -164 56q-33 0 -52 -25q-18 -24 -18 -74v-243h531v-349h-531v-124q189 -78 350 -132q165 -55 267 -55q69 0 122 32q56 34 89 81q35 50 54 109q19 57 25 118h5v-526q0 -171 -61 -243
q-60 -71 -173 -71q-74 0 -195 36q-114 34 -264 90q-78 29 -302 118q-244 97 -308 121q-44 -57 -118 -131q-65 -65 -137 -117q-70 -51 -141 -84t-132 -33q-102 0 -140 59q-37 58 -37 163v741q0 63 24 92t79 29q38 0 118 -27q93 -32 182 -69q86 -36 227 -99q71 -31 251 -110
q24 61 39 132q14 66 14 128q0 94 -34 166q-35 74 -95 124q-59 49 -139 76t-170 27q-79 0 -150 -20q-78 -22 -140 -58t-116 -90q-50 -50 -85 -117h-5v717q77 70 176 107q98 37 228 37q136 0 252 -58q113 -57 196 -156q81 -97 127 -238q45 -138 45 -298zM51 -121
q0 -77 64 -118q62 -40 166 -40q121 0 237 51q112 49 172 115q-164 60 -282 94q-130 37 -218 39q-59 0 -99 -31t-40 -110zM915 1581l492 242v-205l-492 -41v4z" />
    <glyph glyph-name="Ecircumflex" unicode="&#xca;" 
d="M1044 766q0 -60 -9 -127q-10 -78 -23 -132q-17 -75 -35 -125q-23 -67 -43 -110q10 -4 36.5 -15t40.5 -17q13 -6 37.5 -17t36.5 -16v1116q0 103 23 154q22 49 88 49q51 0 137 -50q61 -35 180 -109q103 -64 188 -109q94 -50 157 -50q71 0 113 71q41 70 52 175h5v-627
q0 -84 -29 -128t-84 -44q-40 0 -138 56q-90 51 -209 122q-101 60 -218 121q-107 56 -164 56q-33 0 -52 -25q-18 -24 -18 -74v-243h531v-349h-531v-124q189 -78 350 -132q165 -55 267 -55q69 0 122 32q56 34 89 81q35 50 54 109q19 57 25 118h5v-526q0 -171 -61 -243
q-60 -71 -173 -71q-74 0 -195 36q-114 34 -264 90q-78 29 -302 118q-244 97 -308 121q-44 -57 -118 -131q-65 -65 -137 -117q-70 -51 -141 -84t-132 -33q-102 0 -140 59q-37 58 -37 163v741q0 63 24 92t79 29q38 0 118 -27q93 -32 182 -69q86 -36 227 -99q71 -31 251 -110
q24 61 39 132q14 66 14 128q0 94 -34 166q-35 74 -95 124q-59 49 -139 76t-170 27q-79 0 -150 -20q-78 -22 -140 -58t-116 -90q-50 -50 -85 -117h-5v717q77 70 176 107q98 37 228 37q136 0 252 -58q113 -57 196 -156q81 -97 127 -238q45 -138 45 -298zM51 -121
q0 -77 64 -118q62 -40 166 -40q121 0 237 51q112 49 172 115q-164 60 -282 94q-130 37 -218 39q-59 0 -99 -31t-40 -110zM887 1577h-4l288 246h5l288 -246h-4l-286 76z" />
    <glyph glyph-name="Edieresis" unicode="&#xcb;" 
d="M1044 766q0 -60 -9 -127q-10 -78 -23 -132q-17 -75 -35 -125q-23 -67 -43 -110q10 -4 36.5 -15t40.5 -17q13 -6 37.5 -17t36.5 -16v1116q0 103 23 154q22 49 88 49q51 0 137 -50q61 -35 180 -109q103 -64 188 -109q94 -50 157 -50q71 0 113 71q41 70 52 175h5v-627
q0 -84 -29 -128t-84 -44q-40 0 -138 56q-90 51 -209 122q-101 60 -218 121q-107 56 -164 56q-33 0 -52 -25q-18 -24 -18 -74v-243h531v-349h-531v-124q189 -78 350 -132q165 -55 267 -55q69 0 122 32q56 34 89 81q35 50 54 109q19 57 25 118h5v-526q0 -171 -61 -243
q-60 -71 -173 -71q-74 0 -195 36q-114 34 -264 90q-78 29 -302 118q-244 97 -308 121q-44 -57 -118 -131q-65 -65 -137 -117q-70 -51 -141 -84t-132 -33q-102 0 -140 59q-37 58 -37 163v741q0 63 24 92t79 29q38 0 118 -27q93 -32 182 -69q86 -36 227 -99q71 -31 251 -110
q24 61 39 132q14 66 14 128q0 94 -34 166q-35 74 -95 124q-59 49 -139 76t-170 27q-79 0 -150 -20q-78 -22 -140 -58t-116 -90q-50 -50 -85 -117h-5v717q77 70 176 107q98 37 228 37q136 0 252 -58q113 -57 196 -156q81 -97 127 -238q45 -138 45 -298zM51 -121
q0 -77 64 -118q62 -40 166 -40q121 0 237 51q112 49 172 115q-164 60 -282 94q-130 37 -218 39q-59 0 -99 -31t-40 -110zM1350 1841q64 0 104 -42q41 -43 41 -99q0 -57 -41 -100q-40 -41 -104 -41q-65 0 -105 41q-41 43 -41 100q0 56 41 99q41 42 105 42zM977 1841
q63 0 104 -42q41 -43 41 -99q0 -57 -41 -100q-40 -41 -104 -41q-65 0 -105 41q-41 43 -41 100q0 56 41 99q40 42 105 42z" />
    <glyph glyph-name="Igrave" unicode="&#xcc;" 
d="M891 963h-301q-246 0 -387 -65q-139 -64 -178 -243h-5v717q101 71 209 107q110 37 244 37q211 0 331 -138q118 -136 118 -415v-779q34 -7 102 -19q11 -2 32 -6t38 -7t32 -5v1272h385q239 0 373 21q133 21 139 98h5v-487q0 -89 -42 -152t-124 -63q-44 0 -107 11
q-7 1 -66.5 11t-95.5 17q-141 25 -203 38q-91 19 -233 43v-813q141 -21 299 -29q147 -8 266 15q120 23 200 82t101 168l5 -31v-612q-82 -118 -214 -178t-286 -60q-214 0 -364 65q-149 65 -218 212q-125 10 -288 8q-145 -1 -281 -28q-130 -25 -227 -80q-97 -54 -125 -144h-5
v459q0 173 71 242t226 69q65 0 221 -36q153 -35 353 -75v773zM1270 1581v-4l-492 41v205z" />
    <glyph glyph-name="Iacute" unicode="&#xcd;" 
d="M891 963h-301q-246 0 -387 -65q-139 -64 -178 -243h-5v717q101 71 209 107q110 37 244 37q211 0 331 -138q118 -136 118 -415v-779q34 -7 102 -19q11 -2 32 -6t38 -7t32 -5v1272h385q239 0 373 21q133 21 139 98h5v-487q0 -89 -42 -152t-124 -63q-44 0 -107 11
q-7 1 -66.5 11t-95.5 17q-141 25 -203 38q-91 19 -233 43v-813q141 -21 299 -29q147 -8 266 15q120 23 200 82t101 168l5 -31v-612q-82 -118 -214 -178t-286 -60q-214 0 -364 65q-149 65 -218 212q-125 10 -288 8q-145 -1 -281 -28q-130 -25 -227 -80q-97 -54 -125 -144h-5
v459q0 173 71 242t226 69q65 0 221 -36q153 -35 353 -75v773zM778 1581l492 242v-205l-492 -41v4z" />
    <glyph glyph-name="Icircumflex" unicode="&#xce;" 
d="M891 963h-301q-246 0 -387 -65q-139 -64 -178 -243h-5v717q101 71 209 107q110 37 244 37q211 0 331 -138q118 -136 118 -415v-779q34 -7 102 -19q11 -2 32 -6t38 -7t32 -5v1272h385q239 0 373 21q133 21 139 98h5v-487q0 -89 -42 -152t-124 -63q-44 0 -107 11
q-7 1 -66.5 11t-95.5 17q-141 25 -203 38q-91 19 -233 43v-813q141 -21 299 -29q147 -8 266 15q120 23 200 82t101 168l5 -31v-612q-82 -118 -214 -178t-286 -60q-214 0 -364 65q-149 65 -218 212q-125 10 -288 8q-145 -1 -281 -28q-130 -25 -227 -80q-97 -54 -125 -144h-5
v459q0 173 71 242t226 69q65 0 221 -36q153 -35 353 -75v773zM737 1577h-4l289 246h4l289 -246h-4l-287 76z" />
    <glyph glyph-name="Idieresis" unicode="&#xcf;" 
d="M891 963h-301q-246 0 -387 -65q-139 -64 -178 -243h-5v717q101 71 209 107q110 37 244 37q211 0 331 -138q118 -136 118 -415v-779q34 -7 102 -19q11 -2 32 -6t38 -7t32 -5v1272h385q239 0 373 21q133 21 139 98h5v-487q0 -89 -42 -152t-124 -63q-44 0 -107 11
q-7 1 -66.5 11t-95.5 17q-141 25 -203 38q-91 19 -233 43v-813q141 -21 299 -29q147 -8 266 15q120 23 200 82t101 168l5 -31v-612q-82 -118 -214 -178t-286 -60q-214 0 -364 65q-149 65 -218 212q-125 10 -288 8q-145 -1 -281 -28q-130 -25 -227 -80q-97 -54 -125 -144h-5
v459q0 173 71 242t226 69q65 0 221 -36q153 -35 353 -75v773zM1210 1841q64 0 105 -42q41 -43 41 -99t-41 -99q-41 -42 -105 -42t-104 42q-41 43 -41 99t41 99q40 42 104 42zM838 1841q64 0 104 -42q41 -43 41 -99t-41 -99q-40 -42 -104 -42t-105 42q-41 43 -41 99t41 99
q41 42 105 42z" />
    <glyph glyph-name="Eth" unicode="&#xd0;" 
d="M10 -287v541q0 96 30 131t93 35q24 0 105 -28q59 -20 188 -71q29 -11 247 -100q144 -59 281 -108q40 73 60 150q20 76 20 157v18v19l-563 -78v164l561 -78q-6 109 -45 202q-39 92 -105 160q-67 69 -161 106q-96 38 -209 38q-188 0 -316 -81q-127 -81 -171 -235h-5v717
q98 64 213 103q120 41 238 41q161 0 282 -63t203 -167q83 -106 123 -240q41 -138 41 -284q0 -84 -9 -175t-27 -178q-19 -93 -43 -167q-27 -83 -58 -140q12 -4 42.5 -15t46.5 -17q29 -11 89 -31v655q0 217 23 427q23 211 73 409h3q187 -40 336 -169q146 -127 244 -309
q99 -184 148 -403q50 -223 50 -444q0 -140 -40 -266q-41 -129 -108 -223q-68 -95 -158 -151q-91 -57 -194 -57q-64 0 -159 20q-93 20 -201 51q-99 29 -227 71q-105 35 -232 78q-111 -94 -255 -162q-145 -68 -274 -68q-85 0 -132 46q-48 46 -48 169zM1753 543v-164l-561 78
v-428q163 -54 319 -91q153 -36 267 -36q100 0 160 67q61 69 61 193q0 140 -62 267t-169 219q-108 93 -256 150q-144 55 -320 60v-393zM41 -178q0 -30 31 -56q29 -25 82 -42q54 -17 118 -26q67 -9 142 -9q51 0 117 15t130 44q-193 66 -305 101q-146 46 -207 47q-54 1 -81 -18
q-27 -20 -27 -56z" />
    <glyph glyph-name="Ntilde" unicode="&#xd1;" 
d="M1024 807q0 -94 -19 -193q-18 -94 -52 -201q-33 -104 -72 -192q-43 -97 -84 -162q21 -8 71 -24q31 -10 60 -10q79 0 108 41t29 106v1122q0 116 29 174t86 58q50 0 126 -48q64 -40 160 -107q75 -52 164 -106q80 -48 133 -48q76 0 148 90q72 89 123 209h4l-291 -920
q-55 -176 -70 -254q-16 -86 -16 -137q0 -75 37 -119q38 -45 108 -45q109 0 161 88q51 87 56 219h5v-446q0 -171 -98 -283q-98 -111 -242 -111q-134 0 -228 75t-94 212q0 70 34 168q36 103 85 207q54 114 112 219q61 111 117 207l-477 418q-61 52 -101 21t-40 -117v-1248
q0 -76 -42 -119t-116 -43q-32 0 -82 21q-51 22 -106 52q-57 31 -123 72q-13 8 -59 36t-70 43q-77 -87 -184 -156q-106 -68 -181 -68q-65 0 -89 34q-24 35 -24 118v645q0 75 21 105t65 30q37 0 112 -42q80 -45 167 -99q18 -11 86 -53.5t107 -66.5q97 -61 186 -103
q48 86 73 174q25 90 25 184t-32 181q-32 85 -90 147q-59 62 -142 96q-85 35 -186 35q-175 -2 -267 -68t-120 -170h-5v717q71 65 181 105q108 39 215 39q151 0 268 -51q113 -49 190 -141q75 -90 113 -223q37 -130 37 -294zM51 -225q0 -60 34 -87q36 -28 107 -28q54 0 121 19
q66 19 158 67q-98 59 -180 98q-87 41 -144 41q-51 0 -73 -25q-23 -26 -23 -85zM1540 1823q-18 -130 -54 -193t-118 -63q-27 0 -69 9q-62 13 -88 20q-51 13 -89 21q-43 9 -73 9q-38 0 -58 -17t-28 -53h-5q21 126 56 192q34 64 116 64q28 0 71 -9q62 -13 89 -20q43 -12 89 -21
q44 -9 71 -9q37 0 57 17q21 18 29 53h4z" />
    <glyph glyph-name="Ograve" unicode="&#xd2;" 
d="M2038 512q0 -201 -70 -390q-68 -184 -201 -323q-131 -137 -319 -219t-424 -82t-424 82t-319 219q-133 139 -201 323q-70 189 -70 390t70 390q68 184 201 323q131 137 319 219t424 82t424 -82t319 -219q133 -139 201 -323q70 -189 70 -390zM1309 -16q323 0 498 90t175 284
q0 130 -110 253q-111 124 -287 219q-179 96 -399 154q-222 58 -447 58q-322 0 -498 -90q-175 -90 -175 -284q0 -130 110 -253q111 -124 287 -219q179 -96 399 -154q222 -58 447 -58zM1270 1581v-4l-492 41v205z" />
    <glyph glyph-name="Oacute" unicode="&#xd3;" 
d="M2038 512q0 -201 -70 -390q-68 -184 -201 -323q-131 -137 -319 -219t-424 -82t-424 82t-319 219q-133 139 -201 323q-70 189 -70 390t70 390q68 184 201 323q131 137 319 219t424 82t424 -82t319 -219q133 -139 201 -323q70 -189 70 -390zM1309 -16q323 0 498 90t175 284
q0 130 -110 253q-111 124 -287 219q-179 96 -399 154q-222 58 -447 58q-322 0 -498 -90q-175 -90 -175 -284q0 -130 110 -253q111 -124 287 -219q179 -96 399 -154q222 -58 447 -58zM778 1581l492 242v-205l-492 -41v4z" />
    <glyph glyph-name="Ocircumflex" unicode="&#xd4;" 
d="M2038 512q0 -201 -70 -390q-68 -184 -201 -323q-131 -137 -319 -219t-424 -82t-424 82t-319 219q-133 139 -201 323q-70 189 -70 390t70 390q68 184 201 323q131 137 319 219t424 82t424 -82t319 -219q133 -139 201 -323q70 -189 70 -390zM1309 -16q323 0 498 90t175 284
q0 130 -110 253q-111 124 -287 219q-179 96 -399 154q-222 58 -447 58q-322 0 -498 -90q-175 -90 -175 -284q0 -130 110 -253q111 -124 287 -219q179 -96 399 -154q222 -58 447 -58zM737 1577h-4l289 246h4l289 -246h-4l-287 76z" />
    <glyph glyph-name="Otilde" unicode="&#xd5;" 
d="M2038 512q0 -201 -70 -390q-68 -184 -201 -323q-131 -137 -319 -219t-424 -82t-424 82t-319 219q-133 139 -201 323q-70 189 -70 390t70 390q68 184 201 323q131 137 319 219t424 82t424 -82t319 -219q133 -139 201 -323q70 -189 70 -390zM1309 -16q323 0 498 90t175 284
q0 130 -110 253q-111 124 -287 219q-179 96 -399 154q-222 58 -447 58q-322 0 -498 -90q-175 -90 -175 -284q0 -130 110 -253q111 -124 287 -219q179 -96 399 -154q222 -58 447 -58zM1315 1823q-18 -130 -54 -193t-118 -63q-27 0 -69 9q-62 13 -88 20q-51 13 -89 21
q-44 9 -74 9q-37 0 -57 -17q-21 -18 -29 -53h-4q21 129 55 192q34 64 117 64q27 0 71 -9q62 -13 89 -20q43 -12 89 -21q43 -9 71 -9q37 0 57 17q21 18 29 53h4z" />
    <glyph glyph-name="Odieresis" unicode="&#xd6;" 
d="M2038 512q0 -201 -70 -390q-68 -184 -201 -323q-131 -137 -319 -219t-424 -82t-424 82t-319 219q-133 139 -201 323q-70 189 -70 390t70 390q68 184 201 323q131 137 319 219t424 82t424 -82t319 -219q133 -139 201 -323q70 -189 70 -390zM1309 -16q323 0 498 90t175 284
q0 130 -110 253q-111 124 -287 219q-179 96 -399 154q-222 58 -447 58q-322 0 -498 -90q-175 -90 -175 -284q0 -130 110 -253q111 -124 287 -219q179 -96 399 -154q222 -58 447 -58zM1210 1841q64 0 105 -42q41 -43 41 -99t-41 -99q-41 -42 -105 -42t-104 42q-41 43 -41 99
t41 99q40 42 104 42zM838 1841q64 0 104 -42q41 -43 41 -99t-41 -99q-40 -42 -104 -42t-105 42q-41 43 -41 99t41 99q41 42 105 42z" />
    <glyph glyph-name="multiply" unicode="&#xd7;" horiz-adv-x="1024" 
d="M815 791l-276 -277l276 -276l-27 -27l-276 276l-276 -276l-27 27l276 276l-276 277l27 26l276 -276l276 276z" />
    <glyph glyph-name="Oslash" unicode="&#xd8;" 
d="M117 -512l-117 119l291 182q-137 141 -208 327q-73 190 -73 396q0 201 70 390q68 184 201 323q131 137 319 219t424 82q226 0 409 -75t312 -204l186 289l117 -119l-291 -182q137 -141 208 -327q73 -190 73 -396q0 -201 -70 -390q-68 -184 -201 -323q-131 -137 -319 -219
t-424 -82q-226 0 -409 75t-312 204zM1309 -16q323 0 498 90t175 284q0 130 -110 253q-111 124 -287 219q-179 96 -399 154q-222 58 -447 58q-322 0 -498 -90q-175 -90 -175 -284q0 -130 110 -253q111 -124 287 -219q179 -96 399 -154q222 -58 447 -58z" />
    <glyph glyph-name="Ugrave" unicode="&#xd9;" 
d="M891 817q0 -81 -20 -175q-19 -88 -50 -180q-32 -96 -70 -175q-44 -93 -81 -160q86 -43 154 -75q73 -34 143 -63q76 -31 117 -44q54 -17 83 -17q31 0 54 13q20 11 32 48q13 38 17 101q4 59 4 170v1256h4q46 -111 134 -156q87 -45 204 -45q116 0 231 50q116 50 185 151h6
l-389 -963q-107 -267 -83 -414t150 -153q117 -6 197 83t110 279h5v-328q0 -231 -103 -372q-102 -140 -264 -140q-211 0 -271 167t54 450l258 637h-397v-887q0 -188 -71 -277q-72 -90 -179 -90q-36 0 -109 19q-63 17 -158 47q-55 18 -191 67q-13 5 -90.5 33t-119.5 43
q-62 -75 -141 -142t-142 -67q-42 0 -63 34t-21 114v608q0 60 19 88q18 27 59 27q26 0 82 -21q68 -26 127 -54q134 -64 158 -76q28 -14 86 -42t88 -43q50 94 81 189q30 92 30 182q0 155 -91 255q-90 99 -256 99q-122 0 -220 -53q-95 -51 -158 -160h-5v717q22 25 65 52
q39 25 88 46q47 21 101 33q57 13 103 13q116 0 213 -50q98 -51 163 -139q66 -90 102 -220q36 -131 36 -290zM1270 1581v-4l-492 41v205z" />
    <glyph glyph-name="Uacute" unicode="&#xda;" 
d="M891 817q0 -81 -20 -175q-19 -88 -50 -180q-32 -96 -70 -175q-44 -93 -81 -160q86 -43 154 -75q73 -34 143 -63q76 -31 117 -44q54 -17 83 -17q31 0 54 13q20 11 32 48q13 38 17 101q4 59 4 170v1256h4q46 -111 134 -156q87 -45 204 -45q116 0 231 50q116 50 185 151h6
l-389 -963q-107 -267 -83 -414t150 -153q117 -6 197 83t110 279h5v-328q0 -231 -103 -372q-102 -140 -264 -140q-211 0 -271 167t54 450l258 637h-397v-887q0 -188 -71 -277q-72 -90 -179 -90q-36 0 -109 19q-63 17 -158 47q-55 18 -191 67q-13 5 -90.5 33t-119.5 43
q-62 -75 -141 -142t-142 -67q-42 0 -63 34t-21 114v608q0 60 19 88q18 27 59 27q26 0 82 -21q68 -26 127 -54q134 -64 158 -76q28 -14 86 -42t88 -43q50 94 81 189q30 92 30 182q0 155 -91 255q-90 99 -256 99q-122 0 -220 -53q-95 -51 -158 -160h-5v717q22 25 65 52
q39 25 88 46q47 21 101 33q57 13 103 13q116 0 213 -50q98 -51 163 -139q66 -90 102 -220q36 -131 36 -290zM778 1581l492 242v-205l-492 -41v4z" />
    <glyph glyph-name="Ucircumflex" unicode="&#xdb;" 
d="M891 817q0 -81 -20 -175q-19 -88 -50 -180q-32 -96 -70 -175q-44 -93 -81 -160q86 -43 154 -75q73 -34 143 -63q76 -31 117 -44q54 -17 83 -17q31 0 54 13q20 11 32 48q13 38 17 101q4 59 4 170v1256h4q46 -111 134 -156q87 -45 204 -45q116 0 231 50q116 50 185 151h6
l-389 -963q-107 -267 -83 -414t150 -153q117 -6 197 83t110 279h5v-328q0 -231 -103 -372q-102 -140 -264 -140q-211 0 -271 167t54 450l258 637h-397v-887q0 -188 -71 -277q-72 -90 -179 -90q-36 0 -109 19q-63 17 -158 47q-55 18 -191 67q-13 5 -90.5 33t-119.5 43
q-62 -75 -141 -142t-142 -67q-42 0 -63 34t-21 114v608q0 60 19 88q18 27 59 27q26 0 82 -21q68 -26 127 -54q134 -64 158 -76q28 -14 86 -42t88 -43q50 94 81 189q30 92 30 182q0 155 -91 255q-90 99 -256 99q-122 0 -220 -53q-95 -51 -158 -160h-5v717q22 25 65 52
q39 25 88 46q47 21 101 33q57 13 103 13q116 0 213 -50q98 -51 163 -139q66 -90 102 -220q36 -131 36 -290zM737 1577h-4l289 246h4l289 -246h-4l-287 76z" />
    <glyph glyph-name="Udieresis" unicode="&#xdc;" 
d="M891 817q0 -81 -20 -175q-19 -88 -50 -180q-32 -96 -70 -175q-44 -93 -81 -160q86 -43 154 -75q73 -34 143 -63q76 -31 117 -44q54 -17 83 -17q31 0 54 13q20 11 32 48q13 38 17 101q4 59 4 170v1256h4q46 -111 134 -156q87 -45 204 -45q116 0 231 50q116 50 185 151h6
l-389 -963q-107 -267 -83 -414t150 -153q117 -6 197 83t110 279h5v-328q0 -231 -103 -372q-102 -140 -264 -140q-211 0 -271 167t54 450l258 637h-397v-887q0 -188 -71 -277q-72 -90 -179 -90q-36 0 -109 19q-63 17 -158 47q-55 18 -191 67q-13 5 -90.5 33t-119.5 43
q-62 -75 -141 -142t-142 -67q-42 0 -63 34t-21 114v608q0 60 19 88q18 27 59 27q26 0 82 -21q68 -26 127 -54q134 -64 158 -76q28 -14 86 -42t88 -43q50 94 81 189q30 92 30 182q0 155 -91 255q-90 99 -256 99q-122 0 -220 -53q-95 -51 -158 -160h-5v717q22 25 65 52
q39 25 88 46q47 21 101 33q57 13 103 13q116 0 213 -50q98 -51 163 -139q66 -90 102 -220q36 -131 36 -290zM1210 1841q64 0 105 -42q41 -43 41 -99t-41 -99q-41 -42 -105 -42t-104 42q-41 43 -41 99t41 99q40 42 104 42zM838 1841q64 0 104 -42q41 -43 41 -99t-41 -99
q-40 -42 -104 -42t-105 42q-41 43 -41 99t41 99q41 42 105 42z" />
    <glyph glyph-name="Yacute" unicode="&#xdd;" 
d="M823 1063q0 -119 -46 -245q-47 -129 -109 -238q80 -11 148 -18q66 -7 118 -7q84 0 134 42t50 126v553q0 119 51 179q52 61 152 61q94 0 168 -59q72 -57 145 -167l86 -135l303 299h5v-481q0 -170 -64 -271q-63 -98 -162 -100q-68 -2 -145 64q-84 71 -154 141
q-62 -145 -87 -264t-25 -252v-12v-13q152 104 297 196q134 85 206 85q77 0 105 -46q29 -47 29 -151v-477q0 -169 -84 -267t-215 -98q-99 0 -187 78q-89 78 -129 262q-110 -66 -194 -119q-98 -62 -200 -114q-97 -50 -199 -84q-99 -33 -189 -33q-109 0 -160 69t-51 193v301h4
q12 -90 64 -129q51 -38 128 -38q76 0 166 30q85 28 187 81q84 43 195 114q77 49 194 127v18v21q0 132 25 261q24 126 96 285q-61 63 -122 117q-59 51 -102 51q-57 0 -81 -45q-25 -47 -25 -133v-504q0 -52 -28 -83q-26 -29 -77 -29h-645q-47 -53 -95 -96q-62 -55 -103 -85
q-50 -37 -99 -62q-45 -23 -82 -23v499q0 115 33 163t107 48q28 0 77 -6q53 -6 113 -15q67 -10 137 -21q29 -5 83 -12.5t63 -8.5q15 31 26 71q11 39 11 76q0 100 -70 162q-68 61 -186 61q-131 0 -235 -77t-154 -224h-5v717q63 66 168 105t207 39q204 0 316 -124t112 -329z
M1843 47q-75 -1 -178 -53q-98 -49 -219 -125q17 -42 50 -68q35 -28 74 -42q41 -15 82 -21q42 -6 74 -6q118 0 195 44q76 43 76 136q0 66 -40 100q-41 35 -114 35zM778 1581l492 242v-205l-492 -41v4z" />
    <glyph glyph-name="Thorn" unicode="&#xde;" 
d="M1096 -502h-4q-215 144 -257 173q-106 73 -210 139q-48 -56 -100 -108q-53 -54 -112 -97q-57 -42 -117 -70q-58 -27 -110 -27q-86 0 -126 63q-40 62 -40 165v725q0 52 21 79t72 27q37 0 124 -48q82 -45 192 -116q24 -15 99.5 -63.5t117.5 -75.5q91 -59 198 -121
q39 73 57 151q19 81 19 140q0 109 -30 202q-31 95 -85 161q-55 67 -138 105q-84 38 -188 38q-147 0 -260 -77q-110 -75 -194 -208h-5v709q69 65 161 108q96 44 202 44q146 0 266 -61t202 -167q84 -108 128 -253q45 -147 45 -314q0 -168 -41 -323q-39 -147 -111 -269
q29 -15 68 -32q26 -11 47 -11q48 0 63 29t15 84v1317h31v-474q45 138 145 203q101 66 227 66q105 0 208 -47q99 -45 179 -139q79 -92 125 -225q48 -138 48 -306v-279q0 -195 -35 -330q-34 -132 -92 -216q-56 -81 -135 -118q-76 -36 -160 -36q-72 0 -149 33q-78 33 -145 95
q-68 62 -126 155q-57 92 -90 208v-608zM1096 555q0 -101 50 -186q49 -84 130 -143q80 -59 181 -90q104 -32 202 -32q56 0 120 16q59 15 108 47t79 83q31 53 31 123q0 101 -50 186q-48 82 -130 142q-81 60 -182 91q-100 31 -201 31q-60 0 -120 -15t-109 -47t-79 -83t-30 -123
zM51 -127q0 -74 53 -113q52 -39 156 -39q92 0 182 32q87 31 150 77q-128 76 -222 117q-96 41 -177 41q-60 0 -102 -31q-40 -30 -40 -84z" />
    <glyph glyph-name="germandbls" unicode="&#xdf;" 
d="M956 -428q-74 62 -186 149q-106 83 -182 134q-81 -145 -184 -248q-99 -99 -197 -99q-96 0 -141 63q-46 64 -46 165v731q0 57 24 87t85 30q34 0 99 -31q58 -28 142 -83q81 -54 172 -121q32 -24 96 -71.5t95 -70.5q27 87 40 157q15 80 15 146q0 179 -83 286t-261 107
q-80 0 -147 -22q-68 -22 -124 -61q-53 -37 -93 -86q-38 -47 -55 -99h-5v737q67 58 173 102q102 42 210 42q218 0 340 -209q121 -208 121 -582q0 -121 -29 -263q-30 -147 -75 -276q60 -44 91 -68q55 -43 91 -69v1436h1092v-17l-650 -772h252q225 0 314 -128q88 -127 88 -408
q0 -151 -35 -274t-90 -208q-57 -88 -127 -133q-73 -47 -146 -47q-134 0 -209 116t-75 294v309h8q12 -103 46 -168q34 -66 80 -101t103 -49q59 -14 117 -14q128 0 210 56q81 55 81 161q0 112 -88 158q-89 47 -242 47h-653l567 674h-612v-1409h-17zM51 -121q0 -78 52 -118
t137 -40q98 0 181 46q82 46 134 108q-98 61 -195 103q-93 40 -172 40q-60 0 -98 -31q-39 -31 -39 -108z" />
    <glyph glyph-name="agrave" unicode="&#xe0;" 
d="M838 821q0 -98 -21 -208q-23 -119 -53 -215q-33 -105 -75 -201q-42 -97 -83 -166q34 -18 74 -34q33 -13 61 -13q63 0 100 58q38 59 38 136v1157q0 87 31 133q33 48 96 48q64 0 153 -47q87 -46 182 -115l349 -256l333 356h5v-481q0 -203 -86 -316q-85 -111 -222 -116
q-86 -2 -183 69q-101 74 -196 158q-120 107 -183 159q-87 72 -148 72q-59 0 -80 -34q-21 -35 -21 -103v-309h510q3 22 9 64q2 11 5.5 32.5t4.5 30.5l24 -18q-10 -190 15 -333q24 -137 72 -219t115 -119q66 -36 138 -36q69 0 106 40q38 41 38 107q0 77 -34 167t-81 163l4 4
q88 -104 145 -252q58 -150 58 -301q0 -70 -23 -139t-64 -120q-41 -52 -103 -84q-61 -32 -136 -32q-157 0 -248 109q-90 108 -90 268q0 74 3 155q4 111 7 165h-475v-535q0 -75 -41 -119q-40 -43 -116 -43q-74 0 -190 55q-101 48 -228 103q-67 -52 -157 -104q-91 -53 -157 -54
v725q0 61 19 89q17 26 59 26q27 0 81 -33q70 -43 120 -78q16 -11 64 -45t76 -54q70 -49 141 -91q53 105 82 201q30 100 30 209q0 179 -95 291q-94 110 -257 110q-114 0 -199 -50q-82 -48 -116 -153h-5v717q63 64 160 104q98 40 195 40q120 0 208 -50q85 -49 143 -138
q57 -88 84 -218q28 -134 28 -289zM1372 1581v-4l-491 41v205z" />
    <glyph glyph-name="aacute" unicode="&#xe1;" 
d="M838 821q0 -98 -21 -208q-23 -119 -53 -215q-33 -105 -75 -201q-42 -97 -83 -166q34 -18 74 -34q33 -13 61 -13q63 0 100 58q38 59 38 136v1157q0 87 31 133q33 48 96 48q64 0 153 -47q87 -46 182 -115l349 -256l333 356h5v-481q0 -203 -86 -316q-85 -111 -222 -116
q-86 -2 -183 69q-101 74 -196 158q-120 107 -183 159q-87 72 -148 72q-59 0 -80 -34q-21 -35 -21 -103v-309h510q3 22 9 64q2 11 5.5 32.5t4.5 30.5l24 -18q-10 -190 15 -333q24 -137 72 -219t115 -119q66 -36 138 -36q69 0 106 40q38 41 38 107q0 77 -34 167t-81 163l4 4
q88 -104 145 -252q58 -150 58 -301q0 -70 -23 -139t-64 -120q-41 -52 -103 -84q-61 -32 -136 -32q-157 0 -248 109q-90 108 -90 268q0 74 3 155q4 111 7 165h-475v-535q0 -75 -41 -119q-40 -43 -116 -43q-74 0 -190 55q-101 48 -228 103q-67 -52 -157 -104q-91 -53 -157 -54
v725q0 61 19 89q17 26 59 26q27 0 81 -33q70 -43 120 -78q16 -11 64 -45t76 -54q70 -49 141 -91q53 105 82 201q30 100 30 209q0 179 -95 291q-94 110 -257 110q-114 0 -199 -50q-82 -48 -116 -153h-5v717q63 64 160 104q98 40 195 40q120 0 208 -50q85 -49 143 -138
q57 -88 84 -218q28 -134 28 -289zM881 1581l491 242v-205l-491 -41v4z" />
    <glyph glyph-name="acircumflex" unicode="&#xe2;" 
d="M838 821q0 -98 -21 -208q-23 -119 -53 -215q-33 -105 -75 -201q-42 -97 -83 -166q34 -18 74 -34q33 -13 61 -13q63 0 100 58q38 59 38 136v1157q0 87 31 133q33 48 96 48q64 0 153 -47q87 -46 182 -115l349 -256l333 356h5v-481q0 -203 -86 -316q-85 -111 -222 -116
q-86 -2 -183 69q-101 74 -196 158q-120 107 -183 159q-87 72 -148 72q-59 0 -80 -34q-21 -35 -21 -103v-309h510q3 22 9 64q2 11 5.5 32.5t4.5 30.5l24 -18q-10 -190 15 -333q24 -137 72 -219t115 -119q66 -36 138 -36q69 0 106 40q38 41 38 107q0 77 -34 167t-81 163l4 4
q88 -104 145 -252q58 -150 58 -301q0 -70 -23 -139t-64 -120q-41 -52 -103 -84q-61 -32 -136 -32q-157 0 -248 109q-90 108 -90 268q0 74 3 155q4 111 7 165h-475v-535q0 -75 -41 -119q-40 -43 -116 -43q-74 0 -190 55q-101 48 -228 103q-67 -52 -157 -104q-91 -53 -157 -54
v725q0 61 19 89q17 26 59 26q27 0 81 -33q70 -43 120 -78q16 -11 64 -45t76 -54q70 -49 141 -91q53 105 82 201q30 100 30 209q0 179 -95 291q-94 110 -257 110q-114 0 -199 -50q-82 -48 -116 -153h-5v717q63 64 160 104q98 40 195 40q120 0 208 -50q85 -49 143 -138
q57 -88 84 -218q28 -134 28 -289zM737 1577h-4l289 246h4l289 -246h-4l-287 76z" />
    <glyph glyph-name="atilde" unicode="&#xe3;" 
d="M838 821q0 -98 -21 -208q-23 -119 -53 -215q-33 -105 -75 -201q-42 -97 -83 -166q34 -18 74 -34q33 -13 61 -13q63 0 100 58q38 59 38 136v1157q0 87 31 133q33 48 96 48q64 0 153 -47q87 -46 182 -115l349 -256l333 356h5v-481q0 -203 -86 -316q-85 -111 -222 -116
q-86 -2 -183 69q-101 74 -196 158q-120 107 -183 159q-87 72 -148 72q-59 0 -80 -34q-21 -35 -21 -103v-309h510q3 22 9 64q2 11 5.5 32.5t4.5 30.5l24 -18q-10 -190 15 -333q24 -137 72 -219t115 -119q66 -36 138 -36q69 0 106 40q38 41 38 107q0 77 -34 167t-81 163l4 4
q88 -104 145 -252q58 -150 58 -301q0 -70 -23 -139t-64 -120q-41 -52 -103 -84q-61 -32 -136 -32q-157 0 -248 109q-90 108 -90 268q0 74 3 155q4 111 7 165h-475v-535q0 -75 -41 -119q-40 -43 -116 -43q-74 0 -190 55q-101 48 -228 103q-67 -52 -157 -104q-91 -53 -157 -54
v725q0 61 19 89q17 26 59 26q27 0 81 -33q70 -43 120 -78q16 -11 64 -45t76 -54q70 -49 141 -91q53 105 82 201q30 100 30 209q0 179 -95 291q-94 110 -257 110q-114 0 -199 -50q-82 -48 -116 -153h-5v717q63 64 160 104q98 40 195 40q120 0 208 -50q85 -49 143 -138
q57 -88 84 -218q28 -134 28 -289zM1458 1823q-18 -130 -54 -193t-118 -63q-26 0 -68 9q-68 15 -89 20q-51 13 -89 21q-43 9 -73 9q-38 0 -58 -17t-28 -53h-4q21 129 55 192q34 64 117 64q27 0 70 -9q62 -13 89 -20q43 -12 89 -21q44 -9 71 -9q37 0 57 17q21 18 29 53h4z" />
    <glyph glyph-name="adieresis" unicode="&#xe4;" 
d="M838 821q0 -98 -21 -208q-23 -119 -53 -215q-33 -105 -75 -201q-42 -97 -83 -166q34 -18 74 -34q33 -13 61 -13q63 0 100 58q38 59 38 136v1157q0 87 31 133q33 48 96 48q64 0 153 -47q87 -46 182 -115l349 -256l333 356h5v-481q0 -203 -86 -316q-85 -111 -222 -116
q-86 -2 -183 69q-101 74 -196 158q-120 107 -183 159q-87 72 -148 72q-59 0 -80 -34q-21 -35 -21 -103v-309h510q3 22 9 64q2 11 5.5 32.5t4.5 30.5l24 -18q-10 -190 15 -333q24 -137 72 -219t115 -119q66 -36 138 -36q69 0 106 40q38 41 38 107q0 77 -34 167t-81 163l4 4
q88 -104 145 -252q58 -150 58 -301q0 -70 -23 -139t-64 -120q-41 -52 -103 -84q-61 -32 -136 -32q-157 0 -248 109q-90 108 -90 268q0 74 3 155q4 111 7 165h-475v-535q0 -75 -41 -119q-40 -43 -116 -43q-74 0 -190 55q-101 48 -228 103q-67 -52 -157 -104q-91 -53 -157 -54
v725q0 61 19 89q17 26 59 26q27 0 81 -33q70 -43 120 -78q16 -11 64 -45t76 -54q70 -49 141 -91q53 105 82 201q30 100 30 209q0 179 -95 291q-94 110 -257 110q-114 0 -199 -50q-82 -48 -116 -153h-5v717q63 64 160 104q98 40 195 40q120 0 208 -50q85 -49 143 -138
q57 -88 84 -218q28 -134 28 -289zM1210 1841q64 0 105 -42q41 -43 41 -99t-41 -99q-41 -42 -105 -42t-104 42q-41 43 -41 99t41 99q40 42 104 42zM838 1841q64 0 104 -42q41 -43 41 -99t-41 -99q-40 -42 -104 -42t-105 42q-41 43 -41 99t41 99q41 42 105 42z" />
    <glyph glyph-name="aring" unicode="&#xe5;" 
d="M838 821q0 -98 -21 -208q-23 -119 -53 -215q-33 -105 -75 -201q-42 -97 -83 -166q34 -18 74 -34q33 -13 61 -13q63 0 100 58q38 59 38 136v1157q0 87 31 133q33 48 96 48q64 0 153 -47q87 -46 182 -115l349 -256l333 356h5v-481q0 -203 -86 -316q-85 -111 -222 -116
q-86 -2 -183 69q-101 74 -196 158q-120 107 -183 159q-87 72 -148 72q-59 0 -80 -34q-21 -35 -21 -103v-309h510q3 22 9 64q2 11 5.5 32.5t4.5 30.5l24 -18q-10 -190 15 -333q24 -137 72 -219t115 -119q66 -36 138 -36q69 0 106 40q38 41 38 107q0 77 -34 167t-81 163l4 4
q88 -104 145 -252q58 -150 58 -301q0 -70 -23 -139t-64 -120q-41 -52 -103 -84q-61 -32 -136 -32q-157 0 -248 109q-90 108 -90 268q0 74 3 155q4 111 7 165h-475v-535q0 -75 -41 -119q-40 -43 -116 -43q-74 0 -190 55q-101 48 -228 103q-67 -52 -157 -104q-91 -53 -157 -54
v725q0 61 19 89q17 26 59 26q27 0 81 -33q70 -43 120 -78q16 -11 64 -45t76 -54q70 -49 141 -91q53 105 82 201q30 100 30 209q0 179 -95 291q-94 110 -257 110q-114 0 -199 -50q-82 -48 -116 -153h-5v717q63 64 160 104q98 40 195 40q120 0 208 -50q85 -49 143 -138
q57 -88 84 -218q28 -134 28 -289zM1024 1556q-132 0 -203 37t-71 107q0 69 71 106t203 37t203 -37t71 -106q0 -70 -71 -107t-203 -37zM1024 1819q-51 0 -76 -31q-24 -30 -24 -88t24 -88q25 -31 76 -31t76 31q24 30 24 88t-24 88q-25 31 -76 31z" />
    <glyph glyph-name="ae" unicode="&#xe6;" 
d="M217 -324q-59 -86 -103 -125q-48 -42 -94 -43v725q0 59 10 89q9 26 44 26q15 0 44 -20q36 -25 67 -50q46 -36 81 -67q48 -41 84 -68q41 109 59 197q17 85 17 199q0 169 -56 247q-57 80 -147 80q-75 0 -130 -50q-53 -48 -68 -167h-5v838q138 15 239 -21q99 -35 158 -110
q60 -76 87 -192q26 -111 26 -261q0 -211 -44 -414q-43 -200 -109 -366q38 -27 68 -43q32 -17 55 -17q41 0 56 35q15 34 15 80v1157q0 87 27 133q28 48 78 48q41 0 184 -54q140 -52 336 -135q-47 -225 -67 -389q-21 -174 -21 -309q0 -175 32 -295q31 -117 89 -195v742
q0 334 101 488q103 157 286 157q120 0 229 -44q110 -44 183 -110v-717h-5q-29 173 -147 288q-119 116 -293 116q-147 0 -235 -94t-88 -283v-12h407v-348h-407v-218q68 -73 165 -100q96 -27 201 -27q174 0 277 91q102 90 120 280h5v-383q0 -198 -108 -327
q-109 -130 -308 -130q-130 0 -235 48q-101 46 -168 133q-65 84 -100 209q-34 121 -34 274v150h-473v-652q0 -78 -20 -119q-21 -43 -56 -43q-57 0 -140 53q-95 60 -169 115zM602 903v-233h473v168q-35 35 -92 77q-53 39 -102 65q-51 27 -99 44q-45 16 -80 16q-57 0 -78 -34
q-22 -36 -22 -103z" />
    <glyph glyph-name="ccedilla" unicode="&#xe7;" 
d="M963 -506h-6h-5q-8 -8 -11 -16q-3 -7 -3 -15q0 -18 31 -46q45 -40 66 -58q37 -30 67 -67q31 -37 31 -68q0 -65 -72 -128t-195 -63q-62 0 -108 30q-47 30 -47 85q0 36 3 62q3 27 15 73h4q24 -110 83 -166q58 -55 122 -55q30 0 51 18t21 50q0 28 -30 58q-26 26 -66 56
t-65 50q-30 24 -30 42q0 33 37 69q62 60 94 89q-208 1 -386 76q-175 73 -297 218q-121 144 -189 365q-68 222 -68 513q0 418 171 644t489 226q147 0 304 -53q151 -51 303 -116q189 -81 276 -116q132 -53 225 -53q84 0 131 54q47 55 47 122q0 40 -8 82q-6 33 -27 78l4 2
q37 -54 76 -154q37 -95 37 -202q0 -124 -30 -218q-30 -96 -80 -159q-49 -62 -120 -96q-69 -33 -147 -33q-71 0 -148 24q-63 20 -153 63q-67 32 -159 85q-16 9 -73.5 42.5t-89.5 51.5v-983h24h23q198 0 367 32q165 31 287 99q118 66 196 174q76 106 99 254h4q0 -191 -65 -377
q-64 -183 -196 -327t-336 -231t-478 -87zM45 666q0 -148 77 -273q76 -124 208 -218q127 -91 307 -149q174 -56 371 -67v997q-124 69 -245 117q-123 49 -245 49q-96 0 -180 -25q-87 -26 -151 -81q-63 -54 -103 -143q-39 -87 -39 -207z" />
    <glyph glyph-name="egrave" unicode="&#xe8;" 
d="M20 -270v741q0 63 24 92t79 29q38 0 118 -27t182 -70q47 -20 227 -100q166 -74 251 -112q18 53 35 131q14 64 14 127q0 93 -35 168q-35 74 -93 125t-138 78q-82 28 -168 28q-79 0 -153 -20q-78 -21 -145 -59q-68 -39 -118 -90q-51 -52 -75 -116h-5v717q77 70 176 107
q98 37 228 37q136 0 252 -58q112 -56 196 -157q82 -98 127 -237q45 -138 45 -298q0 -127 -32 -261q-33 -138 -78 -237q6 -2 33.5 -14t42.5 -18l75 -33v678q0 331 140 488t391 157q120 0 229 -44q110 -44 183 -110v-717h-5q-27 157 -165 259q-140 104 -340 104
q-182 0 -292 -84t-110 -252v-27h426q74 0 121 22q44 21 59 103h4v-477l-610 47v-160q177 -75 340 -129q161 -53 260 -53q75 0 131 32q54 31 92 81q37 49 58 109q19 55 26 118h5v-526q0 -171 -61 -243q-60 -71 -173 -71q-74 0 -195 36q-114 34 -264 90q-78 29 -302 118
q-244 97 -308 121q-44 -57 -118 -131q-65 -65 -137 -117q-70 -51 -141 -84t-132 -33q-102 0 -140 59q-37 58 -37 163zM51 -121q0 -77 64 -118q62 -40 166 -40q121 0 237 51q112 49 172 115q-164 60 -282 94q-130 37 -218 39q-59 0 -99 -31t-40 -110zM1579 1581v-4l-492 41
v205z" />
    <glyph glyph-name="eacute" unicode="&#xe9;" 
d="M20 -270v741q0 63 24 92t79 29q38 0 118 -27t182 -70q47 -20 227 -100q166 -74 251 -112q18 53 35 131q14 64 14 127q0 93 -35 168q-35 74 -93 125t-138 78q-82 28 -168 28q-79 0 -153 -20q-78 -21 -145 -59q-68 -39 -118 -90q-51 -52 -75 -116h-5v717q77 70 176 107
q98 37 228 37q136 0 252 -58q112 -56 196 -157q82 -98 127 -237q45 -138 45 -298q0 -127 -32 -261q-33 -138 -78 -237q6 -2 33.5 -14t42.5 -18l75 -33v678q0 331 140 488t391 157q120 0 229 -44q110 -44 183 -110v-717h-5q-27 157 -165 259q-140 104 -340 104
q-182 0 -292 -84t-110 -252v-27h426q74 0 121 22q44 21 59 103h4v-477l-610 47v-160q177 -75 340 -129q161 -53 260 -53q75 0 131 32q54 31 92 81q37 49 58 109q19 55 26 118h5v-526q0 -171 -61 -243q-60 -71 -173 -71q-74 0 -195 36q-114 34 -264 90q-78 29 -302 118
q-244 97 -308 121q-44 -57 -118 -131q-65 -65 -137 -117q-70 -51 -141 -84t-132 -33q-102 0 -140 59q-37 58 -37 163zM51 -121q0 -77 64 -118q62 -40 166 -40q121 0 237 51q112 49 172 115q-164 60 -282 94q-130 37 -218 39q-59 0 -99 -31t-40 -110zM1071 1581l492 242v-205
l-492 -41v4z" />
    <glyph glyph-name="ecircumflex" unicode="&#xea;" 
d="M20 -270v741q0 63 24 92t79 29q38 0 118 -27t182 -70q47 -20 227 -100q166 -74 251 -112q18 53 35 131q14 64 14 127q0 93 -35 168q-35 74 -93 125t-138 78q-82 28 -168 28q-79 0 -153 -20q-78 -21 -145 -59q-68 -39 -118 -90q-51 -52 -75 -116h-5v717q77 70 176 107
q98 37 228 37q136 0 252 -58q112 -56 196 -157q82 -98 127 -237q45 -138 45 -298q0 -127 -32 -261q-33 -138 -78 -237q6 -2 33.5 -14t42.5 -18l75 -33v678q0 331 140 488t391 157q120 0 229 -44q110 -44 183 -110v-717h-5q-27 157 -165 259q-140 104 -340 104
q-182 0 -292 -84t-110 -252v-27h426q74 0 121 22q44 21 59 103h4v-477l-610 47v-160q177 -75 340 -129q161 -53 260 -53q75 0 131 32q54 31 92 81q37 49 58 109q19 55 26 118h5v-526q0 -171 -61 -243q-60 -71 -173 -71q-74 0 -195 36q-114 34 -264 90q-78 29 -302 118
q-244 97 -308 121q-44 -57 -118 -131q-65 -65 -137 -117q-70 -51 -141 -84t-132 -33q-102 0 -140 59q-37 58 -37 163zM51 -121q0 -77 64 -118q62 -40 166 -40q121 0 237 51q112 49 172 115q-164 60 -282 94q-130 37 -218 39q-59 0 -99 -31t-40 -110zM1018 1577h-4l289 246h4
l288 -246h-4l-286 76z" />
    <glyph glyph-name="edieresis" unicode="&#xeb;" 
d="M20 -270v741q0 63 24 92t79 29q38 0 118 -27t182 -70q47 -20 227 -100q166 -74 251 -112q18 53 35 131q14 64 14 127q0 93 -35 168q-35 74 -93 125t-138 78q-82 28 -168 28q-79 0 -153 -20q-78 -21 -145 -59q-68 -39 -118 -90q-51 -52 -75 -116h-5v717q77 70 176 107
q98 37 228 37q136 0 252 -58q112 -56 196 -157q82 -98 127 -237q45 -138 45 -298q0 -127 -32 -261q-33 -138 -78 -237q6 -2 33.5 -14t42.5 -18l75 -33v678q0 331 140 488t391 157q120 0 229 -44q110 -44 183 -110v-717h-5q-27 157 -165 259q-140 104 -340 104
q-182 0 -292 -84t-110 -252v-27h426q74 0 121 22q44 21 59 103h4v-477l-610 47v-160q177 -75 340 -129q161 -53 260 -53q75 0 131 32q54 31 92 81q37 49 58 109q19 55 26 118h5v-526q0 -171 -61 -243q-60 -71 -173 -71q-74 0 -195 36q-114 34 -264 90q-78 29 -302 118
q-244 97 -308 121q-44 -57 -118 -131q-65 -65 -137 -117q-70 -51 -141 -84t-132 -33q-102 0 -140 59q-37 58 -37 163zM51 -121q0 -77 64 -118q62 -40 166 -40q121 0 237 51q112 49 172 115q-164 60 -282 94q-130 37 -218 39q-59 0 -99 -31t-40 -110zM1415 1841q65 0 105 -42
q41 -43 41 -99q0 -57 -41 -100q-40 -41 -105 -41q-64 0 -104 41q-41 43 -41 100q0 56 41 99q41 42 104 42zM1042 1841q64 0 105 -42q41 -43 41 -99q0 -57 -41 -100q-40 -41 -105 -41q-64 0 -104 41q-41 43 -41 100q0 56 41 99q40 42 104 42z" />
    <glyph glyph-name="igrave" unicode="&#xec;" 
d="M891 965h-301q-248 0 -387 -66t-178 -244h-5v717q101 71 209 107q110 37 244 37q206 0 328 -149q121 -148 121 -402v-781q34 -7 102 -19q11 -2 32 -6t38 -7t32 -5v1184h529q171 0 252 38q78 37 116 167h5v-514q0 -128 -42 -172q-42 -43 -124 -43q-38 0 -108 9
q-43 6 -164 25q-100 16 -205 36q-111 21 -228 45v-779q141 -21 299 -29q147 -8 266 15q120 23 200 82t101 168h5v-643q-83 -109 -214 -173q-133 -65 -286 -65q-230 0 -377 65q-146 65 -209 212q-132 10 -288 7q-144 -3 -279 -28q-126 -24 -225 -79q-97 -54 -125 -144h-5v459
q0 173 71 242t226 69q65 0 221 -36q153 -35 353 -75v775zM1270 1581v-4l-492 41v205z" />
    <glyph glyph-name="iacute" unicode="&#xed;" 
d="M891 965h-301q-248 0 -387 -66t-178 -244h-5v717q101 71 209 107q110 37 244 37q206 0 328 -149q121 -148 121 -402v-781q34 -7 102 -19q11 -2 32 -6t38 -7t32 -5v1184h529q171 0 252 38q78 37 116 167h5v-514q0 -128 -42 -172q-42 -43 -124 -43q-38 0 -108 9
q-43 6 -164 25q-100 16 -205 36q-111 21 -228 45v-779q141 -21 299 -29q147 -8 266 15q120 23 200 82t101 168h5v-643q-83 -109 -214 -173q-133 -65 -286 -65q-230 0 -377 65q-146 65 -209 212q-132 10 -288 7q-144 -3 -279 -28q-126 -24 -225 -79q-97 -54 -125 -144h-5v459
q0 173 71 242t226 69q65 0 221 -36q153 -35 353 -75v775zM778 1581l492 242v-205l-492 -41v4z" />
    <glyph glyph-name="icircumflex" unicode="&#xee;" 
d="M891 965h-301q-248 0 -387 -66t-178 -244h-5v717q101 71 209 107q110 37 244 37q206 0 328 -149q121 -148 121 -402v-781q34 -7 102 -19q11 -2 32 -6t38 -7t32 -5v1184h529q171 0 252 38q78 37 116 167h5v-514q0 -128 -42 -172q-42 -43 -124 -43q-38 0 -108 9
q-43 6 -164 25q-100 16 -205 36q-111 21 -228 45v-779q141 -21 299 -29q147 -8 266 15q120 23 200 82t101 168h5v-643q-83 -109 -214 -173q-133 -65 -286 -65q-230 0 -377 65q-146 65 -209 212q-132 10 -288 7q-144 -3 -279 -28q-126 -24 -225 -79q-97 -54 -125 -144h-5v459
q0 173 71 242t226 69q65 0 221 -36q153 -35 353 -75v775zM737 1577h-4l289 246h4l289 -246h-4l-287 76z" />
    <glyph glyph-name="idieresis" unicode="&#xef;" 
d="M891 965h-301q-248 0 -387 -66t-178 -244h-5v717q101 71 209 107q110 37 244 37q206 0 328 -149q121 -148 121 -402v-781q34 -7 102 -19q11 -2 32 -6t38 -7t32 -5v1184h529q171 0 252 38q78 37 116 167h5v-514q0 -128 -42 -172q-42 -43 -124 -43q-38 0 -108 9
q-43 6 -164 25q-100 16 -205 36q-111 21 -228 45v-779q141 -21 299 -29q147 -8 266 15q120 23 200 82t101 168h5v-643q-83 -109 -214 -173q-133 -65 -286 -65q-230 0 -377 65q-146 65 -209 212q-132 10 -288 7q-144 -3 -279 -28q-126 -24 -225 -79q-97 -54 -125 -144h-5v459
q0 173 71 242t226 69q65 0 221 -36q153 -35 353 -75v775zM1210 1841q64 0 105 -42q41 -43 41 -99t-41 -99q-41 -42 -105 -42t-104 42q-41 43 -41 99t41 99q40 42 104 42zM838 1841q64 0 104 -42q41 -43 41 -99t-41 -99q-40 -42 -104 -42t-105 42q-41 43 -41 99t41 99
q41 42 105 42z" />
    <glyph glyph-name="eth" unicode="&#xf0;" 
d="M10 -287v541q0 96 30 131t93 35q24 0 105 -28q59 -20 188 -71q29 -11 247 -100q144 -59 281 -108q40 73 60 150q20 76 20 157v18v19l-563 -78v164l561 -78q-6 109 -45 202q-39 92 -105 160q-67 69 -161 106q-96 38 -209 38q-188 0 -316 -81q-127 -81 -171 -235h-5v717
q98 64 213 103q120 41 238 41q161 0 282 -63t203 -167q83 -106 123 -240q41 -138 41 -284q0 -84 -9 -175t-27 -178q-19 -93 -43 -167q-27 -83 -58 -140q12 -4 42.5 -15t46.5 -17q29 -11 89 -31v655q0 217 23 427q23 211 73 409h3q187 -40 336 -169q146 -127 244 -309
q99 -184 148 -403q50 -223 50 -444q0 -140 -40 -266q-41 -129 -108 -223q-68 -95 -158 -151q-91 -57 -194 -57q-64 0 -159 20q-93 20 -201 51q-99 29 -227 71q-105 35 -232 78q-111 -94 -255 -162q-145 -68 -274 -68q-85 0 -132 46q-48 46 -48 169zM1753 543v-164l-561 78
v-428q163 -54 319 -91q153 -36 267 -36q100 0 160 67q61 69 61 193q0 140 -62 267t-169 219q-108 93 -256 150q-144 55 -320 60v-393zM41 -178q0 -30 31 -56q29 -25 82 -42q54 -17 118 -26q67 -9 142 -9q51 0 117 15t130 44q-193 66 -305 101q-146 46 -207 47q-54 1 -81 -18
q-27 -20 -27 -56z" />
    <glyph glyph-name="ntilde" unicode="&#xf1;" 
d="M1024 807q0 -94 -19 -193q-18 -94 -52 -201q-33 -104 -72 -192q-43 -97 -84 -162q21 -8 71 -24q31 -10 60 -10q79 0 108 41t29 106v1163q0 97 29 144t88 47q36 0 100 -32q57 -28 149 -85q52 -32 191 -122q109 -71 227 -142l174 319h5v-594q0 -144 -37 -193
q-38 -50 -117 -50q-31 0 -67 12q-29 10 -78 35q-59 -202 -79 -326q-20 -122 -20 -184q0 -92 41 -151q40 -58 119 -58q80 0 119 52q39 53 39 161q0 56 -23 128q-23 71 -53 118l6 4q68 -101 113 -242q47 -146 47 -274q0 -192 -96 -293t-261 -101q-138 0 -236 83
q-97 82 -97 235q0 67 23 149q25 90 73 181l260 532q-77 43 -183 122q-48 35 -233 171q-38 29 -68 46t-59 17q-35 0 -50 -29q-15 -30 -15 -77v-1268q0 -76 -42 -119t-116 -43q-32 0 -82 21q-51 22 -106 52q-57 31 -123 72q-13 8 -59 36t-70 43q-77 -87 -184 -156
q-106 -68 -181 -68q-65 0 -89 34q-24 35 -24 118v645q0 75 21 105t65 30q37 0 112 -42q80 -45 167 -99q18 -11 86 -53.5t107 -66.5q97 -61 186 -103q48 86 73 174q25 90 25 184t-32 181q-32 85 -90 147q-59 62 -142 96q-85 35 -186 35q-175 -2 -267 -68t-120 -170h-5v717
q71 65 181 105q108 39 215 39q151 0 268 -51q113 -49 190 -141q75 -90 113 -223q37 -130 37 -294zM51 -225q0 -60 34 -87q36 -28 107 -28q54 0 121 19q66 19 158 67q-98 59 -180 98q-87 41 -144 41q-51 0 -73 -25q-23 -26 -23 -85zM1540 1823q-18 -130 -54 -193t-118 -63
q-27 0 -69 9q-62 13 -88 20q-51 13 -89 21q-43 9 -73 9q-38 0 -58 -17t-28 -53h-5q21 126 56 192q34 64 116 64q28 0 71 -9q62 -13 89 -20q43 -12 89 -21q44 -9 71 -9q37 0 57 17q21 18 29 53h4z" />
    <glyph glyph-name="ograve" unicode="&#xf2;" 
d="M2038 512q0 -201 -70 -390q-68 -184 -201 -323q-131 -137 -319 -219t-424 -82t-424 82t-319 219q-133 139 -201 323q-70 189 -70 390t70 390q68 184 201 323q131 137 319 219t424 82t424 -82t319 -219q133 -139 201 -323q70 -189 70 -390zM1309 -16q323 0 498 90t175 284
q0 130 -110 253q-111 124 -287 219q-179 96 -399 154q-222 58 -447 58q-322 0 -498 -90q-175 -90 -175 -284q0 -130 110 -253q111 -124 287 -219q179 -96 399 -154q222 -58 447 -58zM1270 1581v-4l-492 41v205z" />
    <glyph glyph-name="oacute" unicode="&#xf3;" 
d="M2038 512q0 -201 -70 -390q-68 -184 -201 -323q-131 -137 -319 -219t-424 -82t-424 82t-319 219q-133 139 -201 323q-70 189 -70 390t70 390q68 184 201 323q131 137 319 219t424 82t424 -82t319 -219q133 -139 201 -323q70 -189 70 -390zM1309 -16q323 0 498 90t175 284
q0 130 -110 253q-111 124 -287 219q-179 96 -399 154q-222 58 -447 58q-322 0 -498 -90q-175 -90 -175 -284q0 -130 110 -253q111 -124 287 -219q179 -96 399 -154q222 -58 447 -58zM778 1581l492 242v-205l-492 -41v4z" />
    <glyph glyph-name="ocircumflex" unicode="&#xf4;" 
d="M2038 512q0 -201 -70 -390q-68 -184 -201 -323q-131 -137 -319 -219t-424 -82t-424 82t-319 219q-133 139 -201 323q-70 189 -70 390t70 390q68 184 201 323q131 137 319 219t424 82t424 -82t319 -219q133 -139 201 -323q70 -189 70 -390zM1309 -16q323 0 498 90t175 284
q0 130 -110 253q-111 124 -287 219q-179 96 -399 154q-222 58 -447 58q-322 0 -498 -90q-175 -90 -175 -284q0 -130 110 -253q111 -124 287 -219q179 -96 399 -154q222 -58 447 -58zM737 1577h-4l289 246h4l289 -246h-4l-287 76z" />
    <glyph glyph-name="otilde" unicode="&#xf5;" 
d="M2038 512q0 -201 -70 -390q-68 -184 -201 -323q-131 -137 -319 -219t-424 -82t-424 82t-319 219q-133 139 -201 323q-70 189 -70 390t70 390q68 184 201 323q131 137 319 219t424 82t424 -82t319 -219q133 -139 201 -323q70 -189 70 -390zM1309 -16q323 0 498 90t175 284
q0 130 -110 253q-111 124 -287 219q-179 96 -399 154q-222 58 -447 58q-322 0 -498 -90q-175 -90 -175 -284q0 -130 110 -253q111 -124 287 -219q179 -96 399 -154q222 -58 447 -58zM1315 1823q-18 -130 -54 -193t-118 -63q-27 0 -69 9q-62 13 -88 20q-51 13 -89 21
q-44 9 -74 9q-37 0 -57 -17q-21 -18 -29 -53h-4q21 129 55 192q34 64 117 64q27 0 71 -9q62 -13 89 -20q43 -12 89 -21q43 -9 71 -9q37 0 57 17q21 18 29 53h4z" />
    <glyph glyph-name="odieresis" unicode="&#xf6;" 
d="M2038 512q0 -201 -70 -390q-68 -184 -201 -323q-131 -137 -319 -219t-424 -82t-424 82t-319 219q-133 139 -201 323q-70 189 -70 390t70 390q68 184 201 323q131 137 319 219t424 82t424 -82t319 -219q133 -139 201 -323q70 -189 70 -390zM1309 -16q323 0 498 90t175 284
q0 130 -110 253q-111 124 -287 219q-179 96 -399 154q-222 58 -447 58q-322 0 -498 -90q-175 -90 -175 -284q0 -130 110 -253q111 -124 287 -219q179 -96 399 -154q222 -58 447 -58zM1210 1841q64 0 105 -42q41 -43 41 -99t-41 -99q-41 -42 -105 -42t-104 42q-41 43 -41 99
t41 99q40 42 104 42zM838 1841q64 0 104 -42q41 -43 41 -99t-41 -99q-40 -42 -104 -42t-105 42q-41 43 -41 99t41 99q41 42 105 42z" />
    <glyph glyph-name="divide" unicode="&#xf7;" horiz-adv-x="1024" 
d="M512 666q-58 0 -94 35q-37 36 -37 92q0 55 37 92t94 37t94 -37t37 -92q0 -56 -37 -92q-36 -35 -94 -35zM113 528h798v-30h-798v30zM512 102q-57 0 -94 37t-37 92q0 59 37 93t94 34t94 -34t37 -93q0 -55 -37 -92t-94 -37z" />
    <glyph glyph-name="oslash" unicode="&#xf8;" 
d="M117 -512l-117 119l291 182q-137 141 -208 327q-73 190 -73 396q0 201 70 390q68 184 201 323q131 137 319 219t424 82q226 0 409 -75t312 -204l186 289l117 -119l-291 -182q137 -141 208 -327q73 -190 73 -396q0 -201 -70 -390q-68 -184 -201 -323q-131 -137 -319 -219
t-424 -82q-226 0 -409 75t-312 204zM1309 -16q323 0 498 90t175 284q0 130 -110 253q-111 124 -287 219q-179 96 -399 154q-222 58 -447 58q-322 0 -498 -90q-175 -90 -175 -284q0 -130 110 -253q111 -124 287 -219q179 -96 399 -154q222 -58 447 -58z" />
    <glyph glyph-name="ugrave" unicode="&#xf9;" 
d="M877 817q0 -77 -19 -172q-18 -91 -48 -179q-31 -92 -70 -174t-81 -157q27 -13 80.5 -38.5t80.5 -38.5q83 -39 148 -66q63 -26 123 -46q54 -18 87 -18q30 0 53 13q21 12 33 48q11 34 16 101q4 59 4 170v1256h4q47 -113 131 -157q85 -44 197 -44q115 0 233 50
q117 49 185 151h4l-365 -930q-46 -118 -57 -221q-11 -102 9 -179q19 -73 67 -118q46 -43 110 -43q57 0 87 36q32 38 32 95q0 55 -25 135q-23 72 -98 192l6 4q117 -178 175 -323q59 -147 59 -305q0 -164 -94 -257q-96 -94 -244 -94q-213 0 -285 167q-72 166 43 458l248 629
h-391v-887q0 -188 -71 -277q-72 -90 -179 -90q-36 0 -110 19q-60 15 -160 47q-81 26 -195 68q-8 3 -213 77q-63 -78 -141 -144q-79 -67 -142 -67q-42 0 -63 34t-21 114v608q0 60 19 88q18 27 59 27q26 0 80 -20q58 -22 124 -51q77 -35 155 -72q94 -45 170 -84q48 98 74 184
q28 93 28 178q0 156 -87 255t-249 99q-123 0 -215 -53q-91 -52 -153 -160h-5v717q22 25 65 52q39 25 88 46q47 21 101 33q57 13 103 13q114 0 208 -50q93 -49 157 -139q66 -93 100 -220q35 -132 35 -290zM1270 1581v-4l-492 41v205z" />
    <glyph glyph-name="uacute" unicode="&#xfa;" 
d="M877 817q0 -77 -19 -172q-18 -91 -48 -179q-31 -92 -70 -174t-81 -157q27 -13 80.5 -38.5t80.5 -38.5q83 -39 148 -66q63 -26 123 -46q54 -18 87 -18q30 0 53 13q21 12 33 48q11 34 16 101q4 59 4 170v1256h4q47 -113 131 -157q85 -44 197 -44q115 0 233 50
q117 49 185 151h4l-365 -930q-46 -118 -57 -221q-11 -102 9 -179q19 -73 67 -118q46 -43 110 -43q57 0 87 36q32 38 32 95q0 55 -25 135q-23 72 -98 192l6 4q117 -178 175 -323q59 -147 59 -305q0 -164 -94 -257q-96 -94 -244 -94q-213 0 -285 167q-72 166 43 458l248 629
h-391v-887q0 -188 -71 -277q-72 -90 -179 -90q-36 0 -110 19q-60 15 -160 47q-81 26 -195 68q-8 3 -213 77q-63 -78 -141 -144q-79 -67 -142 -67q-42 0 -63 34t-21 114v608q0 60 19 88q18 27 59 27q26 0 80 -20q58 -22 124 -51q77 -35 155 -72q94 -45 170 -84q48 98 74 184
q28 93 28 178q0 156 -87 255t-249 99q-123 0 -215 -53q-91 -52 -153 -160h-5v717q22 25 65 52q39 25 88 46q47 21 101 33q57 13 103 13q114 0 208 -50q93 -49 157 -139q66 -93 100 -220q35 -132 35 -290zM778 1581l492 242v-205l-492 -41v4z" />
    <glyph glyph-name="ucircumflex" unicode="&#xfb;" 
d="M877 817q0 -77 -19 -172q-18 -91 -48 -179q-31 -92 -70 -174t-81 -157q27 -13 80.5 -38.5t80.5 -38.5q83 -39 148 -66q63 -26 123 -46q54 -18 87 -18q30 0 53 13q21 12 33 48q11 34 16 101q4 59 4 170v1256h4q47 -113 131 -157q85 -44 197 -44q115 0 233 50
q117 49 185 151h4l-365 -930q-46 -118 -57 -221q-11 -102 9 -179q19 -73 67 -118q46 -43 110 -43q57 0 87 36q32 38 32 95q0 55 -25 135q-23 72 -98 192l6 4q117 -178 175 -323q59 -147 59 -305q0 -164 -94 -257q-96 -94 -244 -94q-213 0 -285 167q-72 166 43 458l248 629
h-391v-887q0 -188 -71 -277q-72 -90 -179 -90q-36 0 -110 19q-60 15 -160 47q-81 26 -195 68q-8 3 -213 77q-63 -78 -141 -144q-79 -67 -142 -67q-42 0 -63 34t-21 114v608q0 60 19 88q18 27 59 27q26 0 80 -20q58 -22 124 -51q77 -35 155 -72q94 -45 170 -84q48 98 74 184
q28 93 28 178q0 156 -87 255t-249 99q-123 0 -215 -53q-91 -52 -153 -160h-5v717q22 25 65 52q39 25 88 46q47 21 101 33q57 13 103 13q114 0 208 -50q93 -49 157 -139q66 -93 100 -220q35 -132 35 -290zM737 1577h-4l289 246h4l289 -246h-4l-287 76z" />
    <glyph glyph-name="udieresis" unicode="&#xfc;" 
d="M877 817q0 -77 -19 -172q-18 -91 -48 -179q-31 -92 -70 -174t-81 -157q27 -13 80.5 -38.5t80.5 -38.5q83 -39 148 -66q63 -26 123 -46q54 -18 87 -18q30 0 53 13q21 12 33 48q11 34 16 101q4 59 4 170v1256h4q47 -113 131 -157q85 -44 197 -44q115 0 233 50
q117 49 185 151h4l-365 -930q-46 -118 -57 -221q-11 -102 9 -179q19 -73 67 -118q46 -43 110 -43q57 0 87 36q32 38 32 95q0 55 -25 135q-23 72 -98 192l6 4q117 -178 175 -323q59 -147 59 -305q0 -164 -94 -257q-96 -94 -244 -94q-213 0 -285 167q-72 166 43 458l248 629
h-391v-887q0 -188 -71 -277q-72 -90 -179 -90q-36 0 -110 19q-60 15 -160 47q-81 26 -195 68q-8 3 -213 77q-63 -78 -141 -144q-79 -67 -142 -67q-42 0 -63 34t-21 114v608q0 60 19 88q18 27 59 27q26 0 80 -20q58 -22 124 -51q77 -35 155 -72q94 -45 170 -84q48 98 74 184
q28 93 28 178q0 156 -87 255t-249 99q-123 0 -215 -53q-91 -52 -153 -160h-5v717q22 25 65 52q39 25 88 46q47 21 101 33q57 13 103 13q114 0 208 -50q93 -49 157 -139q66 -93 100 -220q35 -132 35 -290zM1210 1841q64 0 105 -42q41 -43 41 -99q0 -57 -41 -100
q-40 -41 -105 -41q-64 0 -104 41q-41 43 -41 100q0 56 41 99q40 42 104 42zM838 1841q64 0 104 -42q41 -43 41 -99q0 -57 -41 -100q-40 -41 -104 -41q-65 0 -105 41q-41 43 -41 100q0 56 41 99q41 42 105 42z" />
    <glyph glyph-name="yacute" unicode="&#xfd;" 
d="M199 -489q-41 0 -75 34q-32 32 -56 97q-24 64 -35 146q-13 93 -13 185q0 331 85 480t198 149q67 0 165 -60t198 -126q6 27 9 54t3 54q0 180 -74 290t-196 110q-124 0 -224 -66q-98 -64 -159 -203h-5v717q63 66 168 105t207 39q203 0 317 -124q113 -123 113 -329
q0 -166 -33 -338q-34 -178 -92 -332q69 -45 128 -74q60 -30 106 -30q82 0 121 61q38 60 59 182l135 744q23 123 43 179q21 61 84 61q39 0 106 -48q62 -45 140 -118l227 -215l174 319h5v-594q0 -144 -37 -193q-39 -51 -117 -51q-20 0 -50 15q-35 18 -65 37q-26 -71 15 -129
q42 -59 112 -129q60 -60 106 -136t46 -194q0 -277 -115 -430q-114 -152 -293 -152q-204 0 -321 166q-116 166 -115 500q0 126 17 227q17 102 49 183q31 78 75 121q46 44 99 44q82 0 124 -73q41 -72 41 -230v-350h-4q-15 126 -67 196t-146 70q-69 0 -113 -50t-44 -138
q0 -63 32 -108q33 -46 90 -78q59 -32 133 -47q76 -15 165 -15q165 0 264 42q98 42 98 122q0 30 -21 60q-22 31 -56 58q-46 36 -73 54q-46 31 -77 53q-87 62 -97 170t50 209q-66 45 -124 90q-61 47 -127 95q-70 51 -110 75q-51 31 -74 31q-50 -1 -65 -42q-13 -36 -29 -122
l-176 -963q-11 -59 -34 -89q-24 -31 -85 -31q-19 0 -57 21q-33 18 -83 54q-48 34 -100 76q-21 17 -62 49t-48 37q-68 -212 -165 -335q-94 -119 -195 -119zM51 -29q1 -98 48 -145t124 -47q71 0 154 52q82 51 149 159q-95 73 -173 119q-85 51 -142 51q-72 0 -117 -47
q-45 -46 -43 -142zM778 1581l492 242v-205l-492 -41v4z" />
    <glyph glyph-name="thorn" unicode="&#xfe;" 
d="M1096 -502h-4q-215 144 -257 173q-106 73 -210 139q-48 -56 -100 -108q-53 -54 -112 -97q-57 -42 -117 -70q-58 -27 -110 -27q-86 0 -126 63q-40 62 -40 165v725q0 52 21 79t72 27q37 0 124 -48q82 -45 192 -116q24 -15 99.5 -63.5t117.5 -75.5q91 -59 198 -121
q39 73 57 151q19 81 19 140q0 109 -30 202q-31 95 -85 161q-55 67 -138 105q-84 38 -188 38q-147 0 -260 -77q-110 -75 -194 -208h-5v709q69 65 161 108q96 44 202 44q146 0 266 -61t202 -167q84 -108 128 -253q45 -147 45 -314q0 -168 -41 -323q-39 -147 -111 -269
q29 -15 68 -32q26 -11 47 -11q48 0 63 29t15 84v1317h31v-474q45 138 145 203q101 66 227 66q105 0 208 -47q99 -45 179 -139q79 -92 125 -225q48 -138 48 -306v-279q0 -195 -35 -330q-34 -132 -92 -216q-56 -81 -135 -118q-76 -36 -160 -36q-72 0 -149 33q-78 33 -145 95
q-68 62 -126 155q-57 92 -90 208v-608zM1096 555q0 -101 50 -186q49 -84 130 -143q80 -59 181 -90q104 -32 202 -32q56 0 120 16q59 15 108 47t79 83q31 53 31 123q0 101 -50 186q-48 82 -130 142q-81 60 -182 91q-100 31 -201 31q-60 0 -120 -15t-109 -47t-79 -83t-30 -123
zM51 -127q0 -74 53 -113q52 -39 156 -39q92 0 182 32q87 31 150 77q-128 76 -222 117q-96 41 -177 41q-60 0 -102 -31q-40 -30 -40 -84z" />
    <glyph glyph-name="ydieresis" unicode="&#xff;" 
d="M199 -489q-41 0 -75 34q-32 32 -56 97q-24 64 -35 146q-13 93 -13 185q0 331 85 480t198 149q67 0 165 -60t198 -126q6 27 9 54t3 54q0 180 -74 290t-196 110q-124 0 -224 -66q-98 -64 -159 -203h-5v717q63 66 168 105t207 39q203 0 317 -124q113 -123 113 -329
q0 -166 -33 -338q-34 -178 -92 -332q69 -45 128 -74q60 -30 106 -30q82 0 121 61q38 60 59 182l135 744q23 123 43 179q21 61 84 61q39 0 106 -48q62 -45 140 -118l227 -215l174 319h5v-594q0 -144 -37 -193q-39 -51 -117 -51q-20 0 -50 15q-35 18 -65 37q-26 -71 15 -129
q42 -59 112 -129q60 -60 106 -136t46 -194q0 -277 -115 -430q-114 -152 -293 -152q-204 0 -321 166q-116 166 -115 500q0 126 17 227q17 102 49 183q31 78 75 121q46 44 99 44q82 0 124 -73q41 -72 41 -230v-350h-4q-15 126 -67 196t-146 70q-69 0 -113 -50t-44 -138
q0 -63 32 -108q33 -46 90 -78q59 -32 133 -47q76 -15 165 -15q165 0 264 42q98 42 98 122q0 30 -21 60q-22 31 -56 58q-46 36 -73 54q-46 31 -77 53q-87 62 -97 170t50 209q-66 45 -124 90q-61 47 -127 95q-70 51 -110 75q-51 31 -74 31q-50 -1 -65 -42q-13 -36 -29 -122
l-176 -963q-11 -59 -34 -89q-24 -31 -85 -31q-19 0 -57 21q-33 18 -83 54q-48 34 -100 76q-21 17 -62 49t-48 37q-68 -212 -165 -335q-94 -119 -195 -119zM51 -29q1 -98 48 -145t124 -47q71 0 154 52q82 51 149 159q-95 73 -173 119q-85 51 -142 51q-72 0 -117 -47
q-45 -46 -43 -142zM1210 1841q64 0 105 -42q41 -43 41 -99q0 -57 -41 -100q-40 -41 -105 -41q-64 0 -104 41q-41 43 -41 100q0 56 41 99q40 42 104 42zM838 1841q64 0 104 -42q41 -43 41 -99q0 -57 -41 -100q-40 -41 -104 -41q-65 0 -105 41q-41 43 -41 100q0 56 41 99
q41 42 105 42z" />
    <glyph glyph-name="Amacron" unicode="&#x100;" 
d="M20 -492v725q0 61 19 89q17 26 59 26q28 0 80 -33q86 -54 120 -78q66 -47 141 -99q70 -49 141 -91q55 101 84 202q28 97 28 208q0 179 -95 291q-94 110 -257 110q-114 0 -199 -50q-82 -48 -116 -153h-5v717q63 64 160 104q98 40 195 40q120 0 208 -50q85 -49 143 -138
q57 -88 84 -218q28 -134 28 -289q0 -98 -21 -208q-23 -119 -53 -215q-33 -105 -75 -201q-42 -97 -83 -166q34 -18 74 -34q33 -13 61 -13q63 0 100 58q38 59 38 136v1157q0 87 31 133q33 48 96 48q64 0 153 -47q87 -46 182 -115l349 -256l333 356h5v-481q0 -203 -86 -316
q-85 -111 -222 -116q-61 -2 -124 33q-60 33 -132 90q-1 -153 26 -269q27 -112 73 -188q45 -73 105 -111q59 -37 122 -37q105 0 162 71q56 69 71 218h5v-383q0 -198 -78 -327q-79 -130 -236 -130q-156 0 -248 109t-92 268q0 74 3 155t9 165h-477v-535q0 -75 -41 -119
q-40 -43 -116 -43q-74 0 -190 55q-101 48 -228 103q-67 -52 -157 -104q-91 -53 -157 -54zM909 862v-309h514q1 12 8 64q3 21 11 65q-68 57 -123 106q-77 69 -117 103q-65 54 -104 78q-50 30 -88 30q-58 0 -79 -34q-22 -36 -22 -103zM1329 1745v-193h-450v193h450z" />
    <glyph glyph-name="amacron" unicode="&#x101;" 
d="M838 821q0 -98 -21 -208q-23 -119 -53 -215q-33 -105 -75 -201q-42 -97 -83 -166q34 -18 74 -34q33 -13 61 -13q63 0 100 58q38 59 38 136v1157q0 87 31 133q33 48 96 48q64 0 153 -47q87 -46 182 -115l349 -256l333 356h5v-481q0 -203 -86 -316q-85 -111 -222 -116
q-86 -2 -183 69q-101 74 -196 158q-120 107 -183 159q-87 72 -148 72q-59 0 -80 -34q-21 -35 -21 -103v-309h510q3 22 9 64q2 11 5.5 32.5t4.5 30.5l24 -18q-10 -190 15 -333q24 -137 72 -219t115 -119q66 -36 138 -36q69 0 106 40q38 41 38 107q0 77 -34 167t-81 163l4 4
q88 -104 145 -252q58 -150 58 -301q0 -70 -23 -139t-64 -120q-41 -52 -103 -84q-61 -32 -136 -32q-157 0 -248 109q-90 108 -90 268q0 74 3 155q4 111 7 165h-475v-535q0 -75 -41 -119q-40 -43 -116 -43q-74 0 -190 55q-101 48 -228 103q-67 -52 -157 -104q-91 -53 -157 -54
v725q0 61 19 89q17 26 59 26q27 0 81 -33q70 -43 120 -78q16 -11 64 -45t76 -54q70 -49 141 -91q53 105 82 201q30 100 30 209q0 179 -95 291q-94 110 -257 110q-114 0 -199 -50q-82 -48 -116 -153h-5v717q63 64 160 104q98 40 195 40q120 0 208 -50q85 -49 143 -138
q57 -88 84 -218q28 -134 28 -289zM1331 1745v-193h-450v193h450z" />
    <glyph glyph-name="Abreve" unicode="&#x102;" 
d="M20 -492v725q0 61 19 89q17 26 59 26q28 0 80 -33q86 -54 120 -78q66 -47 141 -99q70 -49 141 -91q55 101 84 202q28 97 28 208q0 179 -95 291q-94 110 -257 110q-114 0 -199 -50q-82 -48 -116 -153h-5v717q63 64 160 104q98 40 195 40q120 0 208 -50q85 -49 143 -138
q57 -88 84 -218q28 -134 28 -289q0 -98 -21 -208q-23 -119 -53 -215q-33 -105 -75 -201q-42 -97 -83 -166q34 -18 74 -34q33 -13 61 -13q63 0 100 58q38 59 38 136v1157q0 87 31 133q33 48 96 48q64 0 153 -47q87 -46 182 -115l349 -256l333 356h5v-481q0 -203 -86 -316
q-85 -111 -222 -116q-61 -2 -124 33q-60 33 -132 90q-1 -153 26 -269q27 -112 73 -188q45 -73 105 -111q59 -37 122 -37q105 0 162 71q56 69 71 218h5v-383q0 -198 -78 -327q-79 -130 -236 -130q-156 0 -248 109t-92 268q0 74 3 155t9 165h-477v-535q0 -75 -41 -119
q-40 -43 -116 -43q-74 0 -190 55q-101 48 -228 103q-67 -52 -157 -104q-91 -53 -157 -54zM909 862v-309h514q1 12 8 64q3 21 11 65q-68 57 -123 106q-77 69 -117 103q-65 54 -104 78q-50 30 -88 30q-58 0 -79 -34q-22 -36 -22 -103zM1147 1546q-104 0 -170 63t-66 193h4
q0 -55 71 -79q68 -23 161 -23t161 23q70 24 70 79h4q0 -131 -65 -193q-66 -63 -170 -63z" />
    <glyph glyph-name="abreve" unicode="&#x103;" 
d="M838 821q0 -98 -21 -208q-23 -119 -53 -215q-33 -105 -75 -201q-42 -97 -83 -166q34 -18 74 -34q33 -13 61 -13q63 0 100 58q38 59 38 136v1157q0 87 31 133q33 48 96 48q64 0 153 -47q87 -46 182 -115l349 -256l333 356h5v-481q0 -203 -86 -316q-85 -111 -222 -116
q-86 -2 -183 69q-101 74 -196 158q-120 107 -183 159q-87 72 -148 72q-59 0 -80 -34q-21 -35 -21 -103v-309h510q3 22 9 64q2 11 5.5 32.5t4.5 30.5l24 -18q-10 -190 15 -333q24 -137 72 -219t115 -119q66 -36 138 -36q69 0 106 40q38 41 38 107q0 77 -34 167t-81 163l4 4
q88 -104 145 -252q58 -150 58 -301q0 -70 -23 -139t-64 -120q-41 -52 -103 -84q-61 -32 -136 -32q-157 0 -248 109q-90 108 -90 268q0 74 3 155q4 111 7 165h-475v-535q0 -75 -41 -119q-40 -43 -116 -43q-74 0 -190 55q-101 48 -228 103q-67 -52 -157 -104q-91 -53 -157 -54
v725q0 61 19 89q17 26 59 26q27 0 81 -33q70 -43 120 -78q16 -11 64 -45t76 -54q70 -49 141 -91q53 105 82 201q30 100 30 209q0 179 -95 291q-94 110 -257 110q-114 0 -199 -50q-82 -48 -116 -153h-5v717q63 64 160 104q98 40 195 40q120 0 208 -50q85 -49 143 -138
q57 -88 84 -218q28 -134 28 -289zM1024 1546q-104 0 -170 63t-66 193h5q0 -55 70 -79q68 -23 161 -23t161 23q70 24 70 79h5q0 -130 -66 -193t-170 -63z" />
    <glyph glyph-name="Aogonek" unicode="&#x104;" 
d="M20 -492v725q0 61 19 89q17 26 59 26q27 0 81 -33q70 -43 120 -78q16 -11 64 -45t76 -54q70 -49 141 -91q55 101 84 202q28 97 28 208q0 179 -95 291q-94 110 -257 110q-114 0 -199 -50q-82 -48 -116 -153h-5v717q63 64 160 104q98 40 195 40q120 0 208 -50
q85 -49 143 -138q57 -88 84 -218q28 -134 28 -289q0 -98 -21 -208q-23 -122 -54 -215q-35 -105 -75 -201q-39 -93 -82 -166q34 -18 74 -34q33 -13 61 -13q63 0 100 58q38 59 38 136v1157q0 87 31 133q33 48 96 48q64 0 153 -47q87 -46 182 -115l349 -256l333 356h5v-481
q0 -202 -87 -316q-85 -111 -221 -116q-61 -2 -124 33q-60 33 -132 90q-1 -153 26 -269q27 -112 73 -188q45 -73 105 -111q59 -37 122 -37q105 0 162 71q56 69 71 218h5v-383q0 -198 -78 -327q-79 -130 -236 -130h-4h-4q-34 -38 -42 -73q-9 -37 -9 -68q0 -72 43 -103
q44 -32 96 -32q37 0 73 12q35 12 62 45l4 -2q-46 -81 -104 -139q-59 -59 -158 -59q-67 0 -123 41q-55 40 -55 114q0 44 18 81t49 70q35 37 66 59q38 27 72 54q-148 6 -236 114q-88 107 -88 263q0 74 3 155t9 165h-477v-535q0 -75 -41 -119q-40 -43 -116 -43q-74 0 -190 55
q-101 48 -228 103q-67 -52 -157 -104q-91 -53 -157 -54zM909 862v-309h514l5.5 33t4.5 31q3 21 9 65q-74 59 -123 105q-67 62 -117 104q-65 54 -104 78q-50 30 -88 30q-58 0 -79 -34q-22 -36 -22 -103z" />
    <glyph glyph-name="aogonek" unicode="&#x105;" 
d="M838 821q0 -98 -21 -208q-23 -122 -54 -215q-35 -105 -75 -201q-39 -93 -82 -166q34 -18 74 -34q33 -13 61 -13q63 0 100 58q38 59 38 136v1157q0 87 31 133q33 48 96 48q64 0 153 -47q87 -46 182 -115l349 -256l333 356h5v-481q0 -203 -86 -316q-85 -111 -222 -116
q-86 -2 -183 69q-101 74 -196 158q-120 107 -183 159q-87 72 -148 72q-59 0 -80 -34q-21 -35 -21 -103v-309h510q3 22 9 64q2 11 5.5 32.5t4.5 30.5l24 -18q-10 -190 15 -333q24 -137 72 -219t115 -119q66 -36 138 -36q69 0 106 40q38 41 38 107q0 77 -34 167t-81 163l4 4
q88 -104 145 -252q58 -150 58 -301q0 -70 -23 -139t-64 -120q-41 -52 -103 -84q-61 -32 -136 -32h-4h-4q-34 -38 -42 -73q-9 -37 -9 -68q0 -72 43 -103q44 -32 96 -32q37 0 73 12q35 12 62 45l4 -2q-46 -81 -104 -139q-59 -59 -158 -59q-67 0 -123 41q-55 40 -55 114
q0 44 18 81t49 70q35 37 66 59q38 27 72 54q-151 6 -236 114q-86 109 -86 263q0 74 3 155q4 111 7 165h-475v-535q0 -75 -41 -119q-40 -43 -116 -43q-74 0 -190 55q-101 48 -228 103q-67 -52 -157 -104q-91 -53 -157 -54v725q0 61 19 89q17 26 59 26q27 0 81 -33
q70 -43 120 -78q16 -11 64 -45t76 -54q70 -49 141 -91q53 105 82 201q30 100 30 209q0 179 -95 291q-94 110 -257 110q-114 0 -199 -50q-82 -48 -116 -153h-5v717q63 64 160 104q98 40 195 40q120 0 208 -50q85 -49 143 -138q57 -88 84 -218q28 -134 28 -289z" />
    <glyph glyph-name="Cacute" unicode="&#x106;" 
d="M1059 -506q-248 0 -444 89q-194 88 -329 244t-205 366q-71 213 -71 450q0 429 171 660t489 231q146 0 302 -54q147 -51 302 -118q230 -99 274 -118q129 -54 221 -54q89 0 138 55t49 125q0 40 -8 82q-6 33 -27 78l4 4q37 -54 76 -154q37 -95 37 -202q0 -124 -30 -219
q-30 -94 -80 -158q-49 -62 -120 -96q-69 -33 -147 -33q-72 0 -145 23q-74 23 -153 62q-72 35 -157 85q-92 54 -162 92v-979h9h8q380 0 614 147t359 412h4q-33 -203 -105 -390q-72 -186 -190 -325t-289 -222t-395 -83zM45 643q0 -175 79 -303q80 -130 211 -212
q132 -82 308 -126q171 -42 371 -47v995q-131 73 -248 120q-126 50 -248 50q-98 0 -180 -26q-87 -27 -151 -84q-63 -56 -103 -149q-39 -91 -39 -218zM778 1581l492 242v-205l-492 -41v4z" />
    <glyph glyph-name="cacute" unicode="&#x107;" 
d="M963 -506q-212 0 -391 73q-175 71 -301 217q-121 140 -192 366q-69 220 -69 516q0 418 171 644t489 226q147 0 304 -53q151 -51 303 -116q189 -81 276 -116q132 -53 225 -53q84 0 131 54q47 55 47 122q0 40 -8 82q-6 33 -27 78l4 2q37 -54 76 -154q37 -95 37 -202
q0 -124 -30 -218q-30 -96 -80 -159q-49 -62 -120 -96q-69 -33 -147 -33q-71 0 -148 24q-63 20 -153 63q-67 32 -159 85q-16 9 -73.5 42.5t-89.5 51.5v-983h24h23q198 0 367 32q165 31 287 99q118 66 196 174q76 106 99 254h4q0 -191 -65 -377q-64 -183 -196 -327t-336 -231
t-478 -87zM45 666q0 -148 78 -274t209 -218q129 -91 306 -148q174 -56 370 -67v997q-124 69 -245 117q-123 49 -245 49q-96 0 -180 -25q-87 -26 -151 -81q-63 -54 -103 -143q-39 -87 -39 -207zM778 1581l492 242v-205l-492 -41v4z" />
    <glyph glyph-name="Ccircumflex" unicode="&#x108;" 
d="M1059 -506q-248 0 -444 89q-194 88 -329 244t-205 366q-71 213 -71 450q0 429 171 660t489 231q146 0 302 -54q147 -51 302 -118q230 -99 274 -118q129 -54 221 -54q89 0 138 55t49 125q0 40 -8 82q-6 33 -27 78l4 4q37 -54 76 -154q37 -95 37 -202q0 -124 -30 -219
q-30 -94 -80 -158q-49 -62 -120 -96q-69 -33 -147 -33q-72 0 -145 23q-74 23 -153 62q-72 35 -157 85q-92 54 -162 92v-979h9h8q380 0 614 147t359 412h4q-33 -203 -105 -390q-72 -186 -190 -325t-289 -222t-395 -83zM45 643q0 -175 79 -303q80 -130 211 -212
q132 -82 308 -126q171 -42 371 -47v995q-131 73 -248 120q-126 50 -248 50q-98 0 -180 -26q-87 -27 -151 -84q-63 -56 -103 -149q-39 -91 -39 -218zM737 1577h-4l289 246h4l289 -246h-4l-287 76z" />
    <glyph glyph-name="ccircumflex" unicode="&#x109;" 
d="M963 -506q-212 0 -391 73q-175 71 -301 217q-121 140 -192 366q-69 220 -69 516q0 418 171 644t489 226q147 0 304 -53q151 -51 303 -116q189 -81 276 -116q132 -53 225 -53q84 0 131 54q47 55 47 122q0 40 -8 82q-6 33 -27 78l4 2q37 -54 76 -154q37 -95 37 -202
q0 -124 -30 -218q-30 -96 -80 -159q-49 -62 -120 -96q-69 -33 -147 -33q-71 0 -148 24q-63 20 -153 63q-67 32 -159 85q-16 9 -73.5 42.5t-89.5 51.5v-983h24h23q198 0 367 32q165 31 287 99q118 66 196 174q76 106 99 254h4q0 -191 -65 -377q-64 -183 -196 -327t-336 -231
t-478 -87zM45 666q0 -148 78 -274t209 -218q129 -91 306 -148q174 -56 370 -67v997q-124 69 -245 117q-123 49 -245 49q-96 0 -180 -25q-87 -26 -151 -81q-63 -54 -103 -143q-39 -87 -39 -207zM737 1577h-4l289 246h4l289 -246h-4l-287 76z" />
    <glyph glyph-name="Cdotaccent" unicode="&#x10a;" 
d="M1059 -506q-248 0 -444 89q-194 88 -329 244t-205 366q-71 213 -71 450q0 429 171 660t489 231q146 0 302 -54q147 -51 302 -118q230 -99 274 -118q129 -54 221 -54q89 0 138 55t49 125q0 40 -8 82q-6 33 -27 78l4 4q37 -54 76 -154q37 -95 37 -202q0 -124 -30 -219
q-30 -94 -80 -158q-49 -62 -120 -96q-69 -33 -147 -33q-72 0 -145 23q-74 23 -153 62q-72 35 -157 85q-92 54 -162 92v-979h9h8q380 0 614 147t359 412h4q-33 -203 -105 -390q-72 -186 -190 -325t-289 -222t-395 -83zM45 643q0 -175 79 -303q80 -130 211 -212
q132 -82 308 -126q171 -42 371 -47v995q-131 73 -248 120q-126 50 -248 50q-98 0 -180 -26q-87 -27 -151 -84q-63 -56 -103 -149q-39 -91 -39 -218zM1024 1864q72 0 119 -47t47 -117t-47 -117t-119 -47t-119 47t-47 117t47 117t119 47z" />
    <glyph glyph-name="cdotaccent" unicode="&#x10b;" 
d="M963 -506q-212 0 -391 73q-175 71 -301 217q-121 140 -192 366q-69 220 -69 516q0 418 171 644t489 226q147 0 304 -53q151 -51 303 -116q189 -81 276 -116q132 -53 225 -53q84 0 131 54q47 55 47 122q0 40 -8 82q-6 33 -27 78l4 2q37 -54 76 -154q37 -95 37 -202
q0 -124 -30 -218q-30 -96 -80 -159q-49 -62 -120 -96q-69 -33 -147 -33q-71 0 -148 24q-63 20 -153 63q-67 32 -159 85q-16 9 -73.5 42.5t-89.5 51.5v-983h24h23q198 0 367 32q165 31 287 99q118 66 196 174q76 106 99 254h4q0 -191 -65 -377q-64 -183 -196 -327t-336 -231
t-478 -87zM45 666q0 -148 78 -274t209 -218q129 -91 306 -148q174 -56 370 -67v997q-124 69 -245 117q-123 49 -245 49q-96 0 -180 -25q-87 -26 -151 -81q-63 -54 -103 -143q-39 -87 -39 -207zM1024 1864q72 0 119 -47t47 -117t-47 -117t-119 -47t-119 47t-47 117t47 117
t119 47z" />
    <glyph glyph-name="Ccaron" unicode="&#x10c;" 
d="M1059 -506q-248 0 -444 89q-194 88 -329 244t-205 366q-71 213 -71 450q0 429 171 660t489 231q146 0 302 -54q147 -51 302 -118q230 -99 274 -118q129 -54 221 -54q89 0 138 55t49 125q0 40 -8 82q-6 33 -27 78l4 4q37 -54 76 -154q37 -95 37 -202q0 -124 -30 -219
q-30 -94 -80 -158q-49 -62 -120 -96q-69 -33 -147 -33q-72 0 -145 23q-74 23 -153 62q-72 35 -157 85q-92 54 -162 92v-979h9h8q380 0 614 147t359 412h4q-33 -203 -105 -390q-72 -186 -190 -325t-289 -222t-395 -83zM45 643q0 -175 79 -303q80 -130 211 -212
q132 -82 308 -126q171 -42 371 -47v995q-131 73 -248 120q-126 50 -248 50q-98 0 -180 -26q-87 -27 -151 -84q-63 -56 -103 -149q-39 -91 -39 -218zM1311 1823h4l-289 -246h-4l-289 246h4l287 -76z" />
    <glyph glyph-name="ccaron" unicode="&#x10d;" 
d="M963 -506q-212 0 -391 73q-175 71 -301 217q-121 140 -192 366q-69 220 -69 516q0 418 171 644t489 226q147 0 304 -53q151 -51 303 -116q189 -81 276 -116q132 -53 225 -53q84 0 131 54q47 55 47 122q0 40 -8 82q-6 33 -27 78l4 2q37 -54 76 -154q37 -95 37 -202
q0 -124 -30 -218q-30 -96 -80 -159q-49 -62 -120 -96q-69 -33 -147 -33q-71 0 -148 24q-63 20 -153 63q-67 32 -159 85q-16 9 -73.5 42.5t-89.5 51.5v-983h24h23q198 0 367 32q165 31 287 99q118 66 196 174q76 106 99 254h4q0 -191 -65 -377q-64 -183 -196 -327t-336 -231
t-478 -87zM45 666q0 -148 78 -274t209 -218q129 -91 306 -148q174 -56 370 -67v997q-124 69 -245 117q-123 49 -245 49q-96 0 -180 -25q-87 -26 -151 -81q-63 -54 -103 -143q-39 -87 -39 -207zM1311 1823h4l-289 -246h-4l-289 246h4l287 -76z" />
    <glyph glyph-name="Dcaron" unicode="&#x10e;" 
d="M10 -287v684q0 97 30 131q30 35 93 35q42 0 130 -35q84 -33 200 -89q121 -58 248 -123q126 -64 274 -136q22 56 36 118q13 58 13 122q0 115 -38 218q-37 101 -108 175q-72 75 -172 116q-102 42 -229 42q-178 0 -299 -82q-119 -81 -163 -234h-5v717q98 64 213 103
q120 41 238 41q161 0 282 -63t203 -167q83 -106 123 -240q41 -138 41 -284q0 -80 -7 -154q-9 -92 -20 -156q-15 -84 -34 -151q-21 -73 -45 -135l36 -18t37 -18q36 -17 74 -34v598q0 217 20 411q19 188 89 421h2q157 -130 304 -275q141 -139 243 -297q101 -156 160 -342
t59 -407q0 -140 -40 -266q-41 -129 -108 -223q-68 -95 -158 -151q-91 -57 -194 -57q-56 0 -145 25q-83 23 -185 65q-99 40 -207 90q-95 44 -215 101q-59 -59 -129 -110q-71 -52 -150 -92q-78 -40 -160 -64q-84 -25 -157 -25q-85 0 -132 46q-48 46 -48 169zM1999 100
q0 83 -91 192q-92 110 -219 216q-122 102 -267 198q-128 85 -230 140v-762q167 -76 332 -130q157 -52 276 -52q84 0 141 51q58 52 58 147zM41 -96q0 -49 31 -91q30 -40 82 -68q51 -27 118 -42q63 -14 142 -14q75 0 171 28t171 86q-225 108 -340 161q-159 74 -230 75
q-63 5 -105 -30q-41 -34 -40 -105zM1464 1823h4l-288 -246h-4l-289 246h4l287 -76z" />
    <glyph glyph-name="dcaron" unicode="&#x10f;" 
d="M1462 1823h4l-288 -246h-4l-289 246h4l287 -76zM10 -287v684q0 97 30 131q30 35 93 35q42 0 130 -35q81 -32 201 -89q87 -41 249 -124t274 -137q23 59 35 118q12 60 12 120q0 118 -38 221t-108 176q-72 75 -172 116q-102 42 -229 42q-178 0 -299 -82q-119 -81 -163 -234
h-5v717q98 64 213 103q120 41 238 41q161 0 282 -63t203 -167q83 -106 123 -240q41 -138 41 -284q0 -80 -7 -154q-9 -92 -20 -156q-15 -84 -34 -151q-21 -73 -45 -135l36 -18t37 -18q36 -17 74 -34v1430h2q178 -145 338 -287q162 -144 279 -296q119 -155 188 -335
q70 -183 70 -403q0 -140 -40 -266q-41 -129 -108 -223q-68 -95 -158 -151q-91 -57 -194 -57q-56 0 -145 25q-83 23 -185 65q-99 40 -207 90q-95 44 -215 101q-56 -56 -130 -110q-67 -49 -150 -92q-76 -40 -160 -64q-86 -25 -156 -25q-85 0 -132 46q-48 46 -48 169zM1999 100
q0 83 -91 192q-92 110 -219 216q-122 102 -267 198q-128 85 -230 140v-762q167 -76 332 -130q157 -52 276 -52q84 0 141 51q58 52 58 147zM41 -96q0 -52 31 -94q30 -40 82 -68q50 -26 118 -40q65 -13 142 -13q75 0 166 29q93 29 170 87q-191 93 -337 159q-154 70 -227 75
q-67 4 -107 -30q-39 -34 -38 -105z" />
    <glyph glyph-name="Dcroat" unicode="&#x110;" 
d="M10 -287v541q0 96 30 131t93 35q24 0 105 -28q59 -20 188 -71q29 -11 247 -100q144 -59 281 -108q40 73 60 150q20 76 20 157v18v19l-563 -78v164l561 -78q-6 109 -45 202q-39 92 -105 160q-67 69 -161 106q-96 38 -209 38q-188 0 -316 -81q-127 -81 -171 -235h-5v717
q98 64 213 103q120 41 238 41q161 0 282 -63t203 -167q83 -106 123 -240q41 -138 41 -284q0 -84 -9 -175t-27 -178q-19 -93 -43 -167q-27 -83 -58 -140q12 -4 42.5 -15t46.5 -17q29 -11 89 -31v655q0 217 23 427q23 211 73 409h3q187 -40 336 -169q146 -127 244 -309
q99 -184 148 -403q50 -223 50 -444q0 -140 -40 -266q-41 -129 -108 -223q-68 -95 -158 -151q-91 -57 -194 -57q-64 0 -159 20q-93 20 -201 51q-99 29 -227 71q-105 35 -232 78q-111 -94 -255 -162q-145 -68 -274 -68q-85 0 -132 46q-48 46 -48 169zM1753 543v-164l-561 78
v-428q163 -54 319 -91q153 -36 267 -36q100 0 160 67q61 69 61 193q0 140 -62 267t-169 219q-108 93 -256 150q-144 55 -320 60v-393zM41 -178q0 -30 31 -56q29 -25 82 -42q54 -17 118 -26q67 -9 142 -9q51 0 117 15t130 44q-193 66 -305 101q-146 46 -207 47q-54 1 -81 -18
q-27 -20 -27 -56z" />
    <glyph glyph-name="dcroat" unicode="&#x111;" 
d="M10 -287v541q0 96 30 131t93 35q24 0 105 -28q59 -20 188 -71q29 -11 247 -100q144 -59 281 -108q40 73 60 150q20 76 20 157v18v19l-563 -78v164l561 -78q-6 109 -45 202q-39 92 -105 160q-67 69 -161 106q-96 38 -209 38q-188 0 -316 -81q-127 -81 -171 -235h-5v717
q98 64 213 103q120 41 238 41q161 0 282 -63t203 -167q83 -106 123 -240q41 -138 41 -284q0 -84 -9 -175t-27 -178q-19 -93 -43 -167q-27 -83 -58 -140q12 -4 42.5 -15t46.5 -17q29 -11 89 -31v655q0 217 23 427q23 211 73 409h3q187 -40 336 -169q146 -127 244 -309
q99 -184 148 -403q50 -223 50 -444q0 -140 -40 -266q-41 -129 -108 -223q-68 -95 -158 -151q-91 -57 -194 -57q-64 0 -159 20q-93 20 -201 51q-99 29 -227 71q-105 35 -232 78q-111 -94 -255 -162q-145 -68 -274 -68q-85 0 -132 46q-48 46 -48 169zM1753 543v-164l-561 78
v-428q163 -54 319 -91q153 -36 267 -36q100 0 160 67q61 69 61 193q0 140 -62 267t-169 219q-108 93 -256 150q-144 55 -320 60v-393zM41 -178q0 -30 31 -56q29 -25 82 -42q54 -17 118 -26q67 -9 142 -9q51 0 117 15t130 44q-193 66 -305 101q-146 46 -207 47q-54 1 -81 -18
q-27 -20 -27 -56z" />
    <glyph glyph-name="Emacron" unicode="&#x112;" 
d="M1044 766q0 -60 -9 -127q-10 -78 -23 -132q-17 -75 -35 -125q-23 -67 -43 -110q10 -4 36.5 -15t40.5 -17q13 -6 37.5 -17t36.5 -16v1116q0 103 23 154q22 49 88 49q51 0 137 -50q61 -35 180 -109q103 -64 188 -109q94 -50 157 -50q71 0 113 71q41 70 52 175h5v-627
q0 -84 -29 -128t-84 -44q-40 0 -138 56q-90 51 -209 122q-101 60 -218 121q-107 56 -164 56q-33 0 -52 -25q-18 -24 -18 -74v-243h531v-349h-531v-124q189 -78 350 -132q165 -55 267 -55q69 0 122 32q56 34 89 81q35 50 54 109q19 57 25 118h5v-526q0 -171 -61 -243
q-60 -71 -173 -71q-74 0 -195 36q-114 34 -264 90q-78 29 -302 118q-244 97 -308 121q-44 -57 -118 -131q-65 -65 -137 -117q-70 -51 -141 -84t-132 -33q-102 0 -140 59q-37 58 -37 163v741q0 63 24 92t79 29q38 0 118 -27q93 -32 182 -69q86 -36 227 -99q71 -31 251 -110
q24 61 39 132q14 66 14 128q0 94 -34 166q-35 74 -95 124q-59 49 -139 76t-170 27q-79 0 -150 -20q-78 -22 -140 -58t-116 -90q-50 -50 -85 -117h-5v717q77 70 176 107q98 37 228 37q136 0 252 -58q113 -57 196 -156q81 -97 127 -238q45 -138 45 -298zM51 -121
q0 -77 64 -118q62 -40 166 -40q121 0 237 51q112 49 172 115q-164 60 -282 94q-130 37 -218 39q-59 0 -99 -31t-40 -110zM1411 1745v-193h-450v193h450z" />
    <glyph glyph-name="emacron" unicode="&#x113;" 
d="M20 -270v741q0 63 24 92t79 29q38 0 118 -27t182 -70q47 -20 227 -100q166 -74 251 -112q18 53 35 131q14 64 14 127q0 93 -35 168q-35 74 -93 125t-138 78q-82 28 -168 28q-79 0 -153 -20q-78 -21 -145 -59q-68 -39 -118 -90q-51 -52 -75 -116h-5v717q77 70 176 107
q98 37 228 37q136 0 252 -58q112 -56 196 -157q82 -98 127 -237q45 -138 45 -298q0 -127 -32 -261q-33 -138 -78 -237q6 -2 33.5 -14t42.5 -18l75 -33v678q0 331 140 488t391 157q120 0 229 -44q110 -44 183 -110v-717h-5q-27 157 -165 259q-140 104 -340 104
q-182 0 -292 -84t-110 -252v-27h426q74 0 121 22q44 21 59 103h4v-477l-610 47v-160q177 -75 340 -129q161 -53 260 -53q75 0 131 32q54 31 92 81q37 49 58 109q19 55 26 118h5v-526q0 -171 -61 -243q-60 -71 -173 -71q-74 0 -195 36q-114 34 -264 90q-78 29 -302 118
q-244 97 -308 121q-44 -57 -118 -131q-65 -65 -137 -117q-70 -51 -141 -84t-132 -33q-102 0 -140 59q-37 58 -37 163zM51 -121q0 -77 64 -118q62 -40 166 -40q121 0 237 51q112 49 172 115q-164 60 -282 94q-130 37 -218 39q-59 0 -99 -31t-40 -110zM1430 1745v-193h-451
v193h451z" />
    <glyph glyph-name="Ebreve" unicode="&#x114;" 
d="M1044 766q0 -60 -9 -127q-10 -78 -23 -132q-17 -75 -35 -125q-23 -67 -43 -110q10 -4 36.5 -15t40.5 -17q13 -6 37.5 -17t36.5 -16v1116q0 103 23 154q22 49 88 49q51 0 137 -50q61 -35 180 -109q103 -64 188 -109q94 -50 157 -50q71 0 113 71q41 70 52 175h5v-627
q0 -84 -29 -128t-84 -44q-40 0 -138 56q-90 51 -209 122q-101 60 -218 121q-107 56 -164 56q-33 0 -52 -25q-18 -24 -18 -74v-243h531v-349h-531v-124q189 -78 350 -132q165 -55 267 -55q69 0 122 32q56 34 89 81q35 50 54 109q19 57 25 118h5v-526q0 -171 -61 -243
q-60 -71 -173 -71q-74 0 -195 36q-114 34 -264 90q-78 29 -302 118q-244 97 -308 121q-44 -57 -118 -131q-65 -65 -137 -117q-70 -51 -141 -84t-132 -33q-102 0 -140 59q-37 58 -37 163v741q0 63 24 92t79 29q38 0 118 -27q93 -32 182 -69q86 -36 227 -99q71 -31 251 -110
q24 61 39 132q14 66 14 128q0 94 -34 166q-35 74 -95 124q-59 49 -139 76t-170 27q-79 0 -150 -20q-78 -22 -140 -58t-116 -90q-50 -50 -85 -117h-5v717q77 70 176 107q98 37 228 37q136 0 252 -58q113 -57 196 -156q81 -97 127 -238q45 -138 45 -298zM51 -121
q0 -77 64 -118q62 -40 166 -40q121 0 237 51q112 49 172 115q-164 60 -282 94q-130 37 -218 39q-59 0 -99 -31t-40 -110zM1178 1546q-104 0 -170 63t-66 193h4q0 -55 71 -79q68 -23 161 -23q92 0 160 23q71 24 71 79h4q0 -131 -65 -193q-66 -63 -170 -63z" />
    <glyph glyph-name="ebreve" unicode="&#x115;" 
d="M20 -270v741q0 63 24 92t79 29q38 0 118 -27t182 -70q47 -20 227 -100q166 -74 251 -112q18 53 35 131q14 64 14 127q0 93 -35 168q-35 74 -93 125t-138 78q-82 28 -168 28q-79 0 -153 -20q-78 -21 -145 -59q-68 -39 -118 -90q-51 -52 -75 -116h-5v717q77 70 176 107
q98 37 228 37q136 0 252 -58q112 -56 196 -157q82 -98 127 -237q45 -138 45 -298q0 -127 -32 -261q-33 -138 -78 -237q6 -2 33.5 -14t42.5 -18l75 -33v678q0 331 140 488t391 157q120 0 229 -44q110 -44 183 -110v-717h-5q-27 157 -165 259q-140 104 -340 104
q-182 0 -292 -84t-110 -252v-27h426q74 0 121 22q44 21 59 103h4v-477l-610 47v-160q177 -75 340 -129q161 -53 260 -53q75 0 131 32q54 31 92 81q37 49 58 109q19 55 26 118h5v-526q0 -171 -61 -243q-60 -71 -173 -71q-74 0 -195 36q-114 34 -264 90q-78 29 -302 118
q-244 97 -308 121q-44 -57 -118 -131q-65 -65 -137 -117q-70 -51 -141 -84t-132 -33q-102 0 -140 59q-37 58 -37 163zM51 -121q0 -77 64 -118q62 -40 166 -40q121 0 237 51q112 49 172 115q-164 60 -282 94q-130 37 -218 39q-59 0 -99 -31t-40 -110zM1286 1546
q-104 0 -170 63q-65 62 -65 193h4q0 -55 70 -79q68 -23 161 -23t161 23q71 24 71 79h4q0 -130 -66 -193t-170 -63z" />
    <glyph glyph-name="Edotaccent" unicode="&#x116;" 
d="M1044 766q0 -60 -9 -127q-10 -78 -23 -132q-17 -75 -35 -125q-23 -67 -43 -110q10 -4 36.5 -15t40.5 -17q13 -6 37.5 -17t36.5 -16v1116q0 103 23 154q22 49 88 49q51 0 137 -50q61 -35 180 -109q103 -64 188 -109q94 -50 157 -50q71 0 113 71q41 70 52 175h5v-627
q0 -84 -29 -128t-84 -44q-40 0 -138 56q-90 51 -209 122q-101 60 -218 121q-107 56 -164 56q-33 0 -52 -25q-18 -24 -18 -74v-243h531v-349h-531v-124q189 -78 350 -132q165 -55 267 -55q69 0 122 32q56 34 89 81q35 50 54 109q19 57 25 118h5v-526q0 -171 -61 -243
q-60 -71 -173 -71q-74 0 -195 36q-114 34 -264 90q-78 29 -302 118q-244 97 -308 121q-44 -57 -118 -131q-65 -65 -137 -117q-70 -51 -141 -84t-132 -33q-102 0 -140 59q-37 58 -37 163v741q0 63 24 92t79 29q38 0 118 -27q93 -32 182 -69q86 -36 227 -99q71 -31 251 -110
q24 61 39 132q14 66 14 128q0 94 -34 166q-35 74 -95 124q-59 49 -139 76t-170 27q-79 0 -150 -20q-78 -22 -140 -58t-116 -90q-50 -50 -85 -117h-5v717q77 70 176 107q98 37 228 37q136 0 252 -58q113 -57 196 -156q81 -97 127 -238q45 -138 45 -298zM51 -121
q0 -77 64 -118q62 -40 166 -40q121 0 237 51q112 49 172 115q-164 60 -282 94q-130 37 -218 39q-59 0 -99 -31t-40 -110zM1190 1864q72 0 119 -47t47 -117t-47 -117t-119 -47t-119 47t-47 117t47 117t119 47z" />
    <glyph glyph-name="edotaccent" unicode="&#x117;" 
d="M20 -270v741q0 63 24 92t79 29q38 0 118 -27t182 -70q47 -20 227 -100q166 -74 251 -112q18 53 35 131q14 64 14 127q0 93 -35 168q-35 74 -93 125t-138 78q-82 28 -168 28q-79 0 -153 -20q-78 -21 -145 -59q-68 -39 -118 -90q-51 -52 -75 -116h-5v717q77 70 176 107
q98 37 228 37q136 0 252 -58q112 -56 196 -157q82 -98 127 -237q45 -138 45 -298q0 -127 -32 -261q-33 -138 -78 -237q6 -2 33.5 -14t42.5 -18l75 -33v678q0 331 140 488t391 157q120 0 229 -44q110 -44 183 -110v-717h-5q-27 157 -165 259q-140 104 -340 104
q-182 0 -292 -84t-110 -252v-27h426q74 0 121 22q44 21 59 103h4v-477l-610 47v-160q177 -75 340 -129q161 -53 260 -53q75 0 131 32q54 31 92 81q37 49 58 109q19 55 26 118h5v-526q0 -171 -61 -243q-60 -71 -173 -71q-74 0 -195 36q-114 34 -264 90q-78 29 -302 118
q-244 97 -308 121q-44 -57 -118 -131q-65 -65 -137 -117q-70 -51 -141 -84t-132 -33q-102 0 -140 59q-37 58 -37 163zM51 -121q0 -77 64 -118q62 -40 166 -40q121 0 237 51q112 49 172 115q-164 60 -282 94q-130 37 -218 39q-59 0 -99 -31t-40 -110zM1272 1864q72 0 119 -47
t47 -117t-47 -117t-119 -47t-119 47t-47 117t47 117t119 47z" />
    <glyph glyph-name="Eogonek" unicode="&#x118;" 
d="M1044 766q0 -126 -31 -260q-32 -137 -77 -234q8 -4 23.5 -10.5t28 -12t23.5 -10.5q30 -14 74 -32v1116q0 103 23 154q22 49 88 49q51 0 137 -50q61 -35 180 -109q103 -64 188 -109q94 -50 157 -50q71 0 113 71q41 70 52 175h5v-627q0 -84 -29 -128t-84 -44q-40 0 -138 56
q-90 51 -209 122q-101 60 -218 121q-107 56 -164 56q-33 0 -52 -25q-18 -24 -18 -74v-243h531v-349h-531v-124q198 -84 350 -133q166 -54 267 -54q69 0 122 32q56 34 89 81q35 50 54 109q19 57 25 118h5v-526q0 -171 -61 -243q-60 -71 -173 -71h-4h-4q-34 -38 -42 -73
q-9 -37 -9 -68q0 -72 43 -103q44 -32 96 -32q37 0 73 12q35 12 62 45l4 -2q-46 -81 -104 -139q-59 -59 -158 -59q-67 0 -123 41q-55 40 -55 114q0 88 67 151q61 57 140 113q-81 5 -199 41q-103 32 -262 91q-161 60 -296 115q-136 55 -300 118q-48 -62 -117 -131
q-67 -67 -136 -117q-70 -51 -141 -84t-132 -33q-102 0 -140 59q-37 58 -37 163v741q0 63 24 92t79 29q41 0 120 -27q93 -32 182 -69q96 -40 226 -99q74 -33 250 -110q24 65 38 132q15 71 15 128q0 94 -34 166q-35 74 -95 124q-59 49 -139 76t-170 27q-79 0 -150 -20
q-78 -22 -140 -58t-116 -90q-50 -50 -85 -117h-5v717q77 70 176 107q98 37 228 37q136 0 252 -58q113 -57 196 -156q81 -97 127 -238q45 -138 45 -298zM51 -121q0 -77 64 -118q62 -40 166 -40q121 0 237 51q111 49 172 113q-168 63 -282 96q-130 37 -218 39q-59 0 -99 -31
t-40 -110z" />
    <glyph glyph-name="eogonek" unicode="&#x119;" 
d="M20 -270v741q0 63 24 92t79 29q38 0 118 -27t182 -70q47 -20 227 -100q166 -74 251 -112q18 54 35 132q14 66 14 126q0 93 -35 168q-35 74 -93 125t-138 78q-82 28 -168 28q-80 0 -154 -20q-76 -21 -144 -59q-68 -39 -118 -90q-51 -52 -75 -116h-5v717q77 70 176 107
q98 37 228 37q136 0 252 -58q112 -56 196 -157q82 -98 127 -237q45 -138 45 -298q0 -62 -9 -129q-10 -77 -23 -133q-17 -74 -35 -126q-23 -67 -43 -110q6 -2 33.5 -14t42.5 -18l75 -33v678q0 331 140 488t391 157q120 0 229 -44q110 -44 183 -110v-717h-5q-27 157 -165 259
q-140 104 -340 104q-182 0 -292 -84t-110 -252v-27h426q74 0 121 22q44 21 59 103h4v-477l-610 47v-160q177 -75 340 -129q161 -53 260 -53q75 0 131 32q54 31 92 81q37 49 58 109q19 55 26 118h5v-526q0 -171 -61 -243q-60 -71 -173 -71h-4h-4q-34 -38 -42 -73
q-9 -37 -9 -68q0 -72 43 -103q44 -32 96 -32q37 0 73 12q35 12 62 45l4 -2q-46 -81 -104 -139q-59 -59 -158 -59q-67 0 -123 41q-55 40 -55 114q0 88 67 151q61 57 140 113q-81 5 -199 41q-103 32 -262 91q-161 60 -296 115q-136 55 -300 118q-48 -62 -117 -131
q-67 -67 -136 -117q-70 -51 -141 -84t-132 -33q-102 0 -140 59q-37 58 -37 163zM51 -121q0 -77 64 -118q62 -40 166 -40q121 0 237 51q111 49 172 113q-168 63 -282 96q-130 37 -218 39q-59 0 -99 -31t-40 -110z" />
    <glyph glyph-name="Ecaron" unicode="&#x11a;" 
d="M1044 766q0 -60 -9 -127q-10 -78 -23 -132q-17 -75 -35 -125q-23 -67 -43 -110q10 -4 36.5 -15t40.5 -17q13 -6 37.5 -17t36.5 -16v1116q0 103 23 154q22 49 88 49q51 0 137 -50q61 -35 180 -109q103 -64 188 -109q94 -50 157 -50q71 0 113 71q41 70 52 175h5v-627
q0 -84 -29 -128t-84 -44q-40 0 -138 56q-90 51 -209 122q-101 60 -218 121q-107 56 -164 56q-33 0 -52 -25q-18 -24 -18 -74v-243h531v-349h-531v-124q189 -78 350 -132q165 -55 267 -55q69 0 122 32q56 34 89 81q35 50 54 109q19 57 25 118h5v-526q0 -171 -61 -243
q-60 -71 -173 -71q-74 0 -195 36q-114 34 -264 90q-78 29 -302 118q-244 97 -308 121q-44 -57 -118 -131q-65 -65 -137 -117q-70 -51 -141 -84t-132 -33q-102 0 -140 59q-37 58 -37 163v741q0 63 24 92t79 29q38 0 118 -27q93 -32 182 -69q86 -36 227 -99q71 -31 251 -110
q24 61 39 132q14 66 14 128q0 94 -34 166q-35 74 -95 124q-59 49 -139 76t-170 27q-79 0 -150 -20q-78 -22 -140 -58t-116 -90q-50 -50 -85 -117h-5v717q77 70 176 107q98 37 228 37q136 0 252 -58q113 -57 196 -156q81 -97 127 -238q45 -138 45 -298zM51 -121
q0 -77 64 -118q62 -40 166 -40q121 0 237 51q112 49 172 115q-164 60 -282 94q-130 37 -218 39q-59 0 -99 -31t-40 -110zM1413 1823h4l-289 -246h-4l-288 246h4l286 -76z" />
    <glyph glyph-name="ecaron" unicode="&#x11b;" 
d="M20 -270v741q0 63 24 92t79 29q38 0 118 -27t182 -70q47 -20 227 -100q166 -74 251 -112q18 53 35 131q14 64 14 127q0 93 -35 168q-35 74 -93 125t-138 78q-82 28 -168 28q-79 0 -153 -20q-78 -21 -145 -59q-68 -39 -118 -90q-51 -52 -75 -116h-5v717q77 70 176 107
q98 37 228 37q136 0 252 -58q112 -56 196 -157q82 -98 127 -237q45 -138 45 -298q0 -127 -32 -261q-33 -138 -78 -237q6 -2 33.5 -14t42.5 -18l75 -33v678q0 331 140 488t391 157q120 0 229 -44q110 -44 183 -110v-717h-5q-27 157 -165 259q-140 104 -340 104
q-182 0 -292 -84t-110 -252v-27h426q74 0 121 22q44 21 59 103h4v-477l-610 47v-160q177 -75 340 -129q161 -53 260 -53q75 0 131 32q54 31 92 81q37 49 58 109q19 55 26 118h5v-526q0 -171 -61 -243q-60 -71 -173 -71q-74 0 -195 36q-114 34 -264 90q-78 29 -302 118
q-244 97 -308 121q-44 -57 -118 -131q-65 -65 -137 -117q-70 -51 -141 -84t-132 -33q-102 0 -140 59q-37 58 -37 163zM51 -121q0 -77 64 -118q62 -40 166 -40q121 0 237 51q112 49 172 115q-164 60 -282 94q-130 37 -218 39q-59 0 -99 -31t-40 -110zM1575 1823h4l-289 -246
h-4l-289 246h4l287 -76z" />
    <glyph glyph-name="Gcircumflex" unicode="&#x11c;" 
d="M831 764q0 -116 -18 -244q-18 -127 -51 -235q36 -20 55 -31t55 -31v658q0 332 172 488q174 157 474 157q61 0 130 -12q82 -14 137 -31q69 -21 131 -49q59 -27 112 -62v-717h-5q-62 167 -206 259q-147 94 -342 94q-122 0 -227 -42t-181 -124q-77 -83 -120 -206
q-44 -126 -44 -288v-141q122 -66 212 -110q98 -48 213 -92q102 -39 207 -64q106 -25 191 -25q149 0 214 46q67 47 67 130q0 94 -74 142t-215 32l-448 -55v567h4q0 -83 31 -114t104 -31h260q167 0 268 -112t101 -404q0 -156 -43 -270q-44 -116 -119 -193q-77 -79 -182 -117
q-106 -39 -234 -39q-82 0 -186 40q-113 44 -219 98q-128 66 -236 127q-125 71 -235 126q-33 -64 -86 -136q-52 -71 -108 -122q-62 -57 -116 -88q-61 -35 -112 -35q-76 0 -109 60t-33 168v739q0 56 31 87q30 30 96 30q37 0 96 -24q68 -28 133 -63q98 -53 165 -92
q16 -9 83 -48.5t105 -61.5q8 28 17 81q8 45 8 77q0 219 -111 349t-270 130q-127 0 -222 -77q-96 -78 -126 -208h-5v717q53 57 145 101q90 43 179 43q114 0 206 -56q90 -54 153 -154q63 -98 96 -238q32 -134 32 -304zM51 -121q0 -78 51 -118q50 -40 111 -40q92 0 184 56
q94 57 154 129q-99 49 -194 81q-92 31 -169 31q-60 0 -98 -31q-39 -31 -39 -108zM903 1577h-4l289 246h4l289 -246h-4l-287 76z" />
    <glyph glyph-name="gcircumflex" unicode="&#x11d;" 
d="M2028 594q0 -258 -68 -465q-66 -202 -193 -344q-124 -139 -305 -213t-403 -74q-249 0 -444 102q-197 103 -329 265q-135 166 -205 372q-71 210 -71 418q0 417 171 644t489 227q144 0 300 -56q168 -60 299 -119q127 -57 272 -120q126 -55 218 -55q93 0 144 57t51 129
q0 40 -8 82q-6 33 -27 78l6 4q37 -54 76 -154q37 -95 37 -203q0 -120 -31 -218q-29 -92 -84 -158q-54 -64 -125 -97q-70 -32 -153 -32q-69 0 -141 24q-65 22 -148 64q-76 39 -156 87q-92 56 -162 95v-340h990zM45 655q0 -147 78 -273q77 -124 209 -217q130 -91 307 -147
q174 -55 369 -61v993q-118 67 -241 114q-125 48 -249 48q-93 0 -180 -26q-89 -26 -151 -80q-63 -54 -103 -143q-39 -87 -39 -208zM1968 246h-930v-289h12h11q356 0 591 55q236 55 316 234zM737 1577h-4l289 246h4l289 -246h-4l-287 76z" />
    <glyph glyph-name="Gbreve" unicode="&#x11e;" 
d="M831 764q0 -116 -18 -244q-18 -127 -51 -235q36 -20 55 -31t55 -31v658q0 332 172 488q174 157 474 157q61 0 130 -12q82 -14 137 -31q69 -21 131 -49q59 -27 112 -62v-717h-5q-62 167 -206 259q-147 94 -342 94q-122 0 -227 -42t-181 -124q-77 -83 -120 -206
q-44 -126 -44 -288v-141q122 -66 212 -110q98 -48 213 -92q102 -39 207 -64q106 -25 191 -25q149 0 214 46q67 47 67 130q0 94 -74 142t-215 32l-448 -55v567h4q0 -83 31 -114t104 -31h260q167 0 268 -112t101 -404q0 -156 -43 -270q-44 -116 -119 -193q-77 -79 -182 -117
q-106 -39 -234 -39q-82 0 -186 40q-113 44 -219 98q-128 66 -236 127q-125 71 -235 126q-33 -64 -86 -136q-52 -71 -108 -122q-62 -57 -116 -88q-61 -35 -112 -35q-76 0 -109 60t-33 168v739q0 56 31 87q30 30 96 30q37 0 96 -24q68 -28 133 -63q98 -53 165 -92
q16 -9 83 -48.5t105 -61.5q8 28 17 81q8 45 8 77q0 219 -111 349t-270 130q-127 0 -222 -77q-96 -78 -126 -208h-5v717q53 57 145 101q90 43 179 43q114 0 206 -56q90 -54 153 -154q63 -98 96 -238q32 -134 32 -304zM51 -121q0 -78 51 -118q50 -40 111 -40q92 0 184 56
q94 57 154 129q-99 49 -194 81q-92 31 -169 31q-60 0 -98 -31q-39 -31 -39 -108zM1171 1546q-104 0 -170 63q-65 62 -65 193h4q0 -55 71 -79q68 -23 160 -23q93 0 161 23q71 24 71 79h4q0 -130 -66 -193t-170 -63z" />
    <glyph glyph-name="gbreve" unicode="&#x11f;" 
d="M2028 594q0 -258 -68 -465q-66 -202 -193 -344q-124 -139 -305 -213t-403 -74q-249 0 -444 102q-197 103 -329 265q-135 166 -205 372q-71 210 -71 418q0 417 171 644t489 227q144 0 300 -56q168 -60 299 -119q127 -57 272 -120q126 -55 218 -55q93 0 144 57t51 129
q0 40 -8 82q-6 33 -27 78l6 4q37 -54 76 -154q37 -95 37 -203q0 -120 -31 -218q-29 -92 -84 -158q-54 -64 -125 -97q-70 -32 -153 -32q-69 0 -141 24q-65 22 -148 64q-76 39 -156 87q-92 56 -162 95v-340h990zM45 655q0 -147 78 -273q77 -124 209 -217q130 -91 307 -147
q174 -55 369 -61v993q-118 67 -241 114q-125 48 -249 48q-93 0 -180 -26q-89 -26 -151 -80q-63 -54 -103 -143q-39 -87 -39 -208zM1968 246h-930v-289h12h11q356 0 591 55q236 55 316 234zM1024 1546q-104 0 -170 63t-66 193h5q0 -55 70 -79q68 -23 161 -23t161 23
q70 24 70 79h5q0 -130 -66 -193t-170 -63z" />
    <glyph glyph-name="Gdotaccent" unicode="&#x120;" 
d="M831 764q0 -116 -18 -244q-18 -127 -51 -235q36 -20 55 -31t55 -31v658q0 332 172 488q174 157 474 157q61 0 130 -12q82 -14 137 -31q69 -21 131 -49q59 -27 112 -62v-717h-5q-62 167 -206 259q-147 94 -342 94q-122 0 -227 -42t-181 -124q-77 -83 -120 -206
q-44 -126 -44 -288v-141q122 -66 212 -110q98 -48 213 -92q102 -39 207 -64q106 -25 191 -25q149 0 214 46q67 47 67 130q0 94 -74 142t-215 32l-448 -55v567h4q0 -83 31 -114t104 -31h260q167 0 268 -112t101 -404q0 -156 -43 -270q-44 -116 -119 -193q-77 -79 -182 -117
q-106 -39 -234 -39q-82 0 -186 40q-113 44 -219 98q-128 66 -236 127q-125 71 -235 126q-33 -64 -86 -136q-52 -71 -108 -122q-62 -57 -116 -88q-61 -35 -112 -35q-76 0 -109 60t-33 168v739q0 56 31 87q30 30 96 30q37 0 96 -24q68 -28 133 -63q98 -53 165 -92
q16 -9 83 -48.5t105 -61.5q8 28 17 81q8 45 8 77q0 219 -111 349t-270 130q-127 0 -222 -77q-96 -78 -126 -208h-5v717q53 57 145 101q90 43 179 43q114 0 206 -56q90 -54 153 -154q63 -98 96 -238q32 -134 32 -304zM51 -121q0 -78 51 -118q50 -40 111 -40q92 0 184 56
q94 57 154 129q-99 49 -194 81q-92 31 -169 31q-60 0 -98 -31q-39 -31 -39 -108zM1249 1864q72 0 119 -47t47 -117t-47 -117t-119 -47t-119 47t-47 117t47 117t119 47z" />
    <glyph glyph-name="gdotaccent" unicode="&#x121;" 
d="M2028 594q0 -258 -68 -465q-66 -202 -193 -344q-124 -139 -305 -213t-403 -74q-249 0 -444 102q-197 103 -329 265q-135 166 -205 372q-71 210 -71 418q0 417 171 644t489 227q144 0 300 -56q168 -60 299 -119q127 -57 272 -120q126 -55 218 -55q93 0 144 57t51 129
q0 40 -8 82q-6 33 -27 78l6 4q37 -54 76 -154q37 -95 37 -203q0 -120 -31 -218q-29 -92 -84 -158q-54 -64 -125 -97q-70 -32 -153 -32q-69 0 -141 24q-65 22 -148 64q-76 39 -156 87q-92 56 -162 95v-340h990zM45 655q0 -147 78 -273q77 -124 209 -217q130 -91 307 -147
q174 -55 369 -61v993q-118 67 -241 114q-125 48 -249 48q-93 0 -180 -26q-89 -26 -151 -80q-63 -54 -103 -143q-39 -87 -39 -208zM1968 246h-930v-289h12h11q356 0 591 55q236 55 316 234zM1024 1864q72 0 119 -47t47 -117t-47 -117t-119 -47t-119 47t-47 117t47 117t119 47
z" />
    <glyph glyph-name="Gcommaaccent" unicode="&#x122;" 
d="M831 764q0 -116 -18 -244q-18 -127 -51 -235q36 -20 55 -31t55 -31v658q0 332 172 488q174 157 474 157q61 0 130 -12q82 -14 137 -31q69 -21 131 -49q59 -27 112 -62v-717h-5q-62 167 -206 259q-147 94 -342 94q-122 0 -227 -42t-181 -124q-77 -83 -120 -206
q-44 -126 -44 -288v-141q122 -66 212 -110q98 -48 213 -92q102 -39 207 -64q106 -25 191 -25q149 0 214 46q67 47 67 130q0 94 -74 142t-215 32l-448 -55v567h4q0 -83 31 -114t104 -31h260q167 0 268 -112t101 -404q0 -156 -43 -270q-44 -116 -119 -193q-77 -79 -182 -117
q-106 -39 -234 -39q-82 0 -186 40q-113 44 -219 98q-128 66 -236 127q-125 71 -235 126q-33 -64 -86 -136q-52 -71 -108 -122q-62 -57 -116 -88q-61 -35 -112 -35q-76 0 -109 60t-33 168v739q0 56 31 87q30 30 96 30q37 0 96 -24q68 -28 133 -63q98 -53 165 -92
q16 -9 83 -48.5t105 -61.5q8 28 17 81q8 45 8 77q0 219 -111 349t-270 130q-127 0 -222 -77q-96 -78 -126 -208h-5v717q53 57 145 101q90 43 179 43q114 0 206 -56q90 -54 153 -154q63 -98 96 -238q32 -134 32 -304zM51 -121q0 -78 51 -118q50 -40 111 -40q92 0 184 56
q94 57 154 129q-99 49 -194 81q-92 31 -169 31q-60 0 -98 -31q-39 -31 -39 -108zM1090 -860h-5l82 287h226z" />
    <glyph glyph-name="gcommaaccent" unicode="&#x123;" 
d="M2028 594q0 -258 -68 -465q-66 -202 -193 -344q-124 -139 -305 -213t-403 -74q-249 0 -444 102q-197 103 -329 265q-135 166 -205 372q-71 210 -71 418q0 417 171 644t489 227q144 0 300 -56q168 -60 299 -119q127 -57 272 -120q126 -55 218 -55q93 0 144 57t51 129
q0 40 -8 82q-6 33 -27 78l6 4q37 -54 76 -154q37 -95 37 -203q0 -120 -31 -218q-29 -92 -84 -158q-54 -64 -125 -97q-70 -32 -153 -32q-69 0 -141 24q-65 22 -148 64q-76 39 -156 87q-92 56 -162 95v-340h990zM45 655q0 -147 78 -273q77 -124 209 -217q130 -91 307 -147
q174 -55 369 -61v993q-118 67 -241 114q-125 48 -249 48q-93 0 -180 -26q-89 -26 -151 -80q-63 -54 -103 -143q-39 -87 -39 -208zM1968 246h-930v-289h12h11q356 0 591 55q236 55 316 234zM842 -860h-4l82 287h225z" />
    <glyph glyph-name="Hcircumflex" unicode="&#x124;" 
d="M903 725v-56q0 -21 -2 -59q32 -1 88.5 -2.5t80.5 -1.5q106 -2 130 -2q78 0 120 39t42 176v410q0 153 73 220t207 67q93 0 202 -38q105 -37 184 -106v-717h-5q-45 168 -150 258q-106 91 -241 91q-42 0 -82 -8t-65 -21v-535q0 -236 68 -332q69 -98 186 -98q118 0 192 98
q74 99 92 240h5v-512q0 -171 -73 -255q-72 -83 -208 -83q-133 0 -214 73q-79 72 -79 222v1163q-28 -22 -45 -57q-16 -33 -16 -80v-614h-551q-29 -147 -81 -274q-54 -130 -124 -221q-72 -92 -164 -147q-93 -55 -201 -55q-114 0 -183 76t-69 234v657q0 68 22 114q21 44 95 44
q8 0 114 -2q31 -1 179 -5q51 -2 215 -8q34 -1 108.5 -3.5t112.5 -4.5q-12 184 -114 289t-246 105q-79 0 -157 -26q-77 -26 -140 -72q-67 -49 -112 -110q-48 -64 -72 -141h-5v717q57 58 155 101q96 43 216 43q113 0 209 -61q93 -59 162 -166q66 -102 104 -251
q37 -144 37 -313zM313 -201q96 0 175 33q81 34 141 89q61 57 106 130q45 74 74 154h-530q-118 0 -173 -49t-55 -152q0 -98 73 -151q74 -54 189 -54zM737 1577h-4l289 246h4l289 -246h-4l-287 76z" />
    <glyph glyph-name="hcircumflex" unicode="&#x125;" 
d="M20 -182v719q0 53 24 74q25 22 93 22q8 0 114 -2q31 -1 179 -5q51 -2 215 -8q34 -1 108.5 -3.5t112.5 -4.5q-15 184 -129 289t-270 105q-171 0 -282 -99t-160 -250h-5v717q57 58 155 101q96 43 216 43q113 0 209 -61q93 -59 162 -166q66 -102 104 -251q37 -144 37 -313
v-56q0 -21 -2 -59q32 -1 88.5 -2.5t80.5 -1.5q106 -2 130 -2q88 0 135 39t47 176v410q0 154 68 220q69 67 192 67q93 0 202 -38q105 -37 184 -106v-717h-5q-45 168 -147 258q-103 91 -244 91q-31 0 -68 -7q-32 -6 -59 -18v-539q0 -234 66 -332t168 -98q62 0 112 32
q49 31 85 81q38 53 59 108q22 58 28 117h5v-512q0 -172 -83 -255t-219 -83q-103 0 -178 73q-73 72 -73 222v1168q-28 -22 -45 -59t-17 -83v-493q0 -107 -34 -150t-97 -43q-65 0 -188 21q-157 27 -258 47q-34 -148 -85 -273q-52 -126 -123 -220q-70 -93 -160 -146
q-91 -54 -196 -54q-114 0 -183 76t-69 234zM51 49q0 -121 75 -185q76 -65 187 -65q89 0 166 33q75 32 137 87q63 55 110 129q49 76 81 157q-153 29 -300 54q-150 26 -228 26q-113 0 -170 -59q-58 -60 -58 -177zM737 1577h-4l289 246h4l289 -246h-4l-287 76z" />
    <glyph glyph-name="Hbar" unicode="&#x126;" 
d="M303 686v164l449 -49q-1 127 -57 204q-53 74 -177 74q-76 0 -151 -31q-74 -31 -142 -89q-64 -55 -117 -134t-83 -170h-5v717q55 55 148 99q95 45 203 45q93 0 169 -43q79 -45 131 -119q56 -80 85 -179q30 -103 30 -225q0 -24 -2 -76l-4 -77l244 -27l313 35v383
q0 176 75 252t210 76q102 0 214 -37q113 -37 192 -107v-717h-5q-47 179 -172 274t-280 95q-92 0 -148 -50q-55 -49 -55 -155v-10l377 41v-164l-721 80zM1368 612v-397q0 -123 78 -174t211 -51q151 0 249 102q96 100 117 256h5v-416q0 -217 -89 -326q-89 -108 -253 -108
q-161 0 -255 83t-94 253v395h-612q-27 -136 -72 -283q-41 -134 -96 -229q-54 -94 -126 -152q-71 -57 -159 -57q-114 0 -183 76t-69 234v657q0 68 22 114q21 44 95 44q59 0 221 -3q261 -5 352 -7q256 -6 372 -8q183 -3 286 -3zM252 -201q63 0 129 36q67 37 124 95
q56 57 107 138t80 161h-434q-108 0 -157 -55q-50 -56 -50 -170q0 -99 55 -151q57 -54 146 -54z" />
    <glyph glyph-name="hbar" unicode="&#x127;" 
d="M303 686v164l449 -49q-1 127 -57 204q-53 74 -177 74q-76 0 -151 -31q-74 -31 -142 -89q-64 -55 -117 -134t-83 -170h-5v717q55 55 148 99q95 45 203 45q93 0 169 -43q79 -45 131 -119q56 -80 85 -179q30 -103 30 -225q0 -24 -2 -76l-4 -77l244 -27l313 35v383
q0 176 75 252t210 76q102 0 214 -37q113 -37 192 -107v-717h-5q-47 179 -172 274t-280 95q-92 0 -148 -50q-55 -49 -55 -155v-10l377 41v-164l-721 80zM1368 612v-397q0 -123 78 -174t211 -51q151 0 249 102q96 100 117 256h5v-416q0 -217 -89 -326q-89 -108 -253 -108
q-161 0 -255 83t-94 253v395h-612q-27 -136 -72 -283q-41 -134 -96 -229q-54 -94 -126 -152q-71 -57 -159 -57q-114 0 -183 76t-69 234v657q0 68 22 114q21 44 95 44q59 0 221 -3q261 -5 352 -7q256 -6 372 -8q183 -3 286 -3zM252 -201q63 0 129 36q67 37 124 95
q56 57 107 138t80 161h-434q-108 0 -157 -55q-50 -56 -50 -170q0 -99 55 -151q57 -54 146 -54z" />
    <glyph glyph-name="Itilde" unicode="&#x128;" 
d="M891 963h-301q-246 0 -387 -65q-139 -64 -178 -243h-5v717q101 71 209 107q110 37 244 37q211 0 331 -138q118 -136 118 -415v-779q34 -7 102 -19q11 -2 32 -6t38 -7t32 -5v1272h385q239 0 373 21q133 21 139 98h5v-487q0 -89 -42 -152t-124 -63q-44 0 -107 11
q-7 1 -66.5 11t-95.5 17q-141 25 -203 38q-91 19 -233 43v-813q141 -21 299 -29q147 -8 266 15q120 23 200 82t101 168l5 -31v-612q-82 -118 -214 -178t-286 -60q-214 0 -364 65q-149 65 -218 212q-125 10 -288 8q-145 -1 -281 -28q-130 -25 -227 -80q-97 -54 -125 -144h-5
v459q0 173 71 242t226 69q65 0 221 -36q153 -35 353 -75v773zM1315 1823q-18 -130 -54 -193t-118 -63q-27 0 -69 9q-62 13 -88 20q-51 13 -89 21q-44 9 -74 9q-37 0 -57 -17q-21 -18 -29 -53h-4q21 129 55 192q34 64 117 64q27 0 71 -9q62 -13 89 -20q43 -12 89 -21
q43 -9 71 -9q36 0 57 18q22 19 29 52h4z" />
    <glyph glyph-name="itilde" unicode="&#x129;" 
d="M891 965h-301q-248 0 -387 -66t-178 -244h-5v717q101 71 209 107q110 37 244 37q206 0 328 -149q121 -148 121 -402v-781q34 -7 102 -19q11 -2 32 -6t38 -7t32 -5v1184h529q171 0 252 38q78 37 116 167h5v-514q0 -128 -42 -172q-42 -43 -124 -43q-38 0 -108 9
q-43 6 -164 25q-100 16 -205 36q-111 21 -228 45v-779q141 -21 299 -29q147 -8 266 15q120 23 200 82t101 168h5v-643q-83 -109 -214 -173q-133 -65 -286 -65q-230 0 -377 65q-146 65 -209 212q-132 10 -288 7q-144 -3 -279 -28q-126 -24 -225 -79q-97 -54 -125 -144h-5v459
q0 173 71 242t226 69q65 0 221 -36q153 -35 353 -75v775zM1315 1823q-18 -130 -54 -193t-118 -63q-27 0 -69 9q-62 13 -88 20q-51 13 -89 21q-44 9 -74 9q-37 0 -57 -17q-21 -18 -29 -53h-4q21 129 55 192q34 64 117 64q27 0 71 -9q62 -13 89 -20q43 -12 89 -21q43 -9 71 -9
q37 0 57 17q21 18 29 53h4z" />
    <glyph glyph-name="Imacron" unicode="&#x12a;" 
d="M891 963h-301q-246 0 -387 -65q-139 -64 -178 -243h-5v717q101 71 209 107q110 37 244 37q211 0 331 -138q118 -136 118 -415v-779q34 -7 102 -19q11 -2 32 -6t38 -7t32 -5v1272h385q239 0 373 21q133 21 139 98h5v-487q0 -89 -42 -152t-124 -63q-44 0 -107 11
q-7 1 -66.5 11t-95.5 17q-141 25 -203 38q-91 19 -233 43v-813q141 -21 299 -29q147 -8 266 15q120 23 200 82t101 168l5 -31v-612q-82 -118 -214 -178t-286 -60q-214 0 -364 65q-149 65 -218 212q-125 10 -288 8q-145 -1 -281 -28q-130 -25 -227 -80q-97 -54 -125 -144h-5
v459q0 173 71 242t226 69q65 0 221 -36q153 -35 353 -75v773zM1249 1745v-193h-450v193h450z" />
    <glyph glyph-name="imacron" unicode="&#x12b;" 
d="M891 965h-301q-248 0 -387 -66t-178 -244h-5v717q101 71 209 107q110 37 244 37q206 0 328 -149q121 -148 121 -402v-781q34 -7 102 -19q11 -2 32 -6t38 -7t32 -5v1184h529q171 0 252 38q78 37 116 167h5v-514q0 -128 -42 -172q-42 -43 -124 -43q-38 0 -108 9
q-43 6 -164 25q-100 16 -205 36q-111 21 -228 45v-779q141 -21 299 -29q147 -8 266 15q120 23 200 82t101 168h5v-643q-83 -109 -214 -173q-133 -65 -286 -65q-230 0 -377 65q-146 65 -209 212q-132 10 -288 7q-144 -3 -279 -28q-126 -24 -225 -79q-97 -54 -125 -144h-5v459
q0 173 71 242t226 69q65 0 221 -36q153 -35 353 -75v775zM1249 1745v-193h-450v193h450z" />
    <glyph glyph-name="Ibreve" unicode="&#x12c;" 
d="M891 963h-301q-246 0 -387 -65q-139 -64 -178 -243h-5v717q101 71 209 107q110 37 244 37q211 0 331 -138q118 -136 118 -415v-779q34 -7 102 -19q11 -2 32 -6t38 -7t32 -5v1272h385q239 0 373 21q133 21 139 98h5v-487q0 -89 -42 -152t-124 -63q-44 0 -107 11
q-7 1 -66.5 11t-95.5 17q-141 25 -203 38q-91 19 -233 43v-813q141 -21 299 -29q147 -8 266 15q120 23 200 82t101 168l5 -31v-612q-82 -118 -214 -178t-286 -60q-214 0 -364 65q-149 65 -218 212q-125 10 -288 8q-145 -1 -281 -28q-130 -25 -227 -80q-97 -54 -125 -144h-5
v459q0 173 71 242t226 69q65 0 221 -36q153 -35 353 -75v773zM1024 1546q-104 0 -170 63t-66 193h5q0 -55 70 -79q68 -23 161 -23t161 23q70 24 70 79h5q0 -130 -66 -193t-170 -63z" />
    <glyph glyph-name="ibreve" unicode="&#x12d;" 
d="M891 965h-301q-248 0 -387 -66t-178 -244h-5v717q101 71 209 107q110 37 244 37q206 0 328 -149q121 -148 121 -402v-781q34 -7 102 -19q11 -2 32 -6t38 -7t32 -5v1184h529q171 0 252 38q78 37 116 167h5v-514q0 -128 -42 -172q-42 -43 -124 -43q-38 0 -108 9
q-43 6 -164 25q-100 16 -205 36q-111 21 -228 45v-779q141 -21 299 -29q147 -8 266 15q120 23 200 82t101 168h5v-643q-83 -109 -214 -173q-133 -65 -286 -65q-230 0 -377 65q-146 65 -209 212q-132 10 -288 7q-144 -3 -279 -28q-126 -24 -225 -79q-97 -54 -125 -144h-5v459
q0 173 71 242t226 69q65 0 221 -36q153 -35 353 -75v775zM1024 1546q-104 0 -170 63t-66 193h5q0 -55 70 -79q68 -23 161 -23t161 23q70 24 70 79h5q0 -130 -66 -193t-170 -63z" />
    <glyph glyph-name="Iogonek" unicode="&#x12e;" 
d="M891 963h-301q-246 0 -387 -65q-139 -64 -178 -243h-5v717q101 71 209 107q110 37 244 37q211 0 331 -138q118 -136 118 -415v-779q34 -7 102 -19q11 -2 32 -6t38 -7t32 -5v1272h385q239 0 373 21q133 21 139 98h5v-487q0 -89 -42 -152t-124 -63q-44 0 -107 11
q-7 1 -66.5 11t-95.5 17q-141 25 -203 38q-91 19 -233 43v-813q141 -21 299 -29q147 -8 266 15q120 23 200 82t101 168l5 -31v-612q-82 -117 -215 -178q-132 -60 -285 -60h-4h-4q-34 -38 -42 -73q-10 -42 -10 -68q0 -72 43 -103q44 -32 97 -32q36 0 72 12t63 45l4 -2
q-44 -78 -105 -139q-60 -60 -157 -60q-67 0 -123 41q-55 40 -55 115q0 42 18 80t48 69q31 33 67 60q25 19 71 55q-204 1 -352 67q-145 65 -213 210q-125 10 -288 8q-145 -1 -281 -28q-130 -25 -227 -80q-97 -54 -125 -144h-5v459q0 173 71 242t226 69q65 0 221 -36
q153 -35 353 -75v773z" />
    <glyph glyph-name="iogonek" unicode="&#x12f;" 
d="M891 963h-301q-246 0 -387 -65q-139 -64 -178 -243h-5v717q101 71 209 107q110 37 244 37q211 0 331 -138q118 -136 118 -415v-779q34 -7 102 -19q11 -2 32 -6t38 -7t32 -5v1184h529q174 0 252 37t116 168h5v-514q0 -128 -42 -172q-42 -43 -124 -43q-38 0 -108 9
q-38 5 -165 25q-91 15 -205 36q-98 19 -227 45v-779q141 -21 299 -29q147 -8 266 15q120 23 200 82t101 168l5 -31v-612q-82 -118 -214 -178t-286 -60h-12h-15q-34 -38 -42 -73q-9 -37 -9 -68q0 -72 43 -103q44 -32 96 -32q37 0 73 12q35 12 62 45l5 -2q-44 -78 -105 -139
q-60 -60 -158 -60q-67 0 -123 41q-55 40 -55 115q0 88 68 151q65 60 139 113q-203 5 -343 70t-206 207q-125 10 -288 8q-145 -1 -281 -28q-130 -25 -227 -80q-97 -54 -125 -144h-5v459q0 173 71 242t226 69q65 0 221 -36q153 -35 353 -75v773zM1024 1372q-34 0 -58 24
t-24 58t24 58t58 24t58 -24t24 -58t-24 -58t-58 -24z" />
    <glyph glyph-name="Idotaccent" unicode="&#x130;" 
d="M891 963h-301q-246 0 -387 -65q-139 -64 -178 -243h-5v717q101 71 209 107q110 37 244 37q211 0 331 -138q118 -136 118 -415v-779q34 -7 102 -19q11 -2 32 -6t38 -7t32 -5v1272h385q239 0 373 21q133 21 139 98h5v-487q0 -89 -42 -152t-124 -63q-44 0 -107 11
q-7 1 -66.5 11t-95.5 17q-141 25 -203 38q-91 19 -233 43v-813q141 -21 299 -29q147 -8 266 15q120 23 200 82t101 168l5 -31v-612q-82 -118 -214 -178t-286 -60q-214 0 -364 65q-149 65 -218 212q-125 10 -288 8q-145 -1 -281 -28q-130 -25 -227 -80q-97 -54 -125 -144h-5
v459q0 173 71 242t226 69q65 0 221 -36q153 -35 353 -75v773zM1024 1864q72 0 119 -47t47 -117t-47 -117t-119 -47t-119 47t-47 117t47 117t119 47z" />
    <glyph glyph-name="dotlessi" unicode="&#x131;" 
d="M891 965h-301q-248 0 -387 -66t-178 -244h-5v717q101 71 209 107q110 37 244 37q206 0 328 -149q121 -148 121 -402v-781q34 -7 102 -19q11 -2 32 -6t38 -7t32 -5v1184h529q171 0 252 38q78 37 116 167h5v-514q0 -128 -42 -172q-42 -43 -124 -43q-38 0 -108 9
q-43 6 -164 25q-100 16 -205 36q-111 21 -228 45v-779q141 -21 299 -29q147 -8 266 15q120 23 200 82t101 168h5v-643q-83 -109 -214 -173q-133 -65 -286 -65q-230 0 -377 65q-146 65 -209 212q-132 10 -288 7q-144 -3 -279 -28q-126 -24 -225 -79q-97 -54 -125 -144h-5v459
q0 173 71 242t226 69q65 0 221 -36q153 -35 353 -75v775z" />
    <glyph glyph-name="IJ" unicode="&#x132;" 
d="M1004 -244q-50 -53 -123 -102q-72 -48 -145 -82q-76 -35 -154 -54q-82 -20 -156 -20q-177 0 -291 87q-115 88 -115 227q0 73 45 161q45 89 111 175q74 97 149 179q59 65 152 171l53 59q35 38 70 95q33 54 33 118q0 78 -50 120q-49 42 -143 42q-59 0 -125 -25
q-62 -24 -118 -63q-58 -41 -101 -88q-42 -46 -71 -101h-5v717q44 23 120 53q63 24 142 46q77 21 147 32q81 13 138 13q198 0 323 -83q124 -82 124 -223q0 -74 -45 -160q-43 -81 -112 -171q-70 -91 -147 -172q-89 -94 -151 -164l-57 -64q-51 -56 -88 -115q-41 -65 -41 -133
q0 -66 56 -106q58 -41 153 -41q127 0 245 74q117 73 172 190h5v-592zM2028 1034q0 -148 -25 -275q-24 -121 -80 -274q55 -67 85 -155q30 -89 30 -187q0 -77 -18 -163q-20 -93 -47 -171q-32 -91 -71 -165q-39 -73 -90 -146l-10 6q51 147 45 285t-67 238q-18 -96 -56 -192
t-90 -170q-51 -73 -127 -121q-73 -46 -166 -46q-143 0 -220 86t-77 211v252q0 298 133 455q131 155 365 155q112 0 201 -37t153 -104q8 96 -13 178q-21 85 -69 148q-47 62 -126 100q-77 37 -183 37q-158 0 -286 -85q-129 -86 -170 -239h-5v717q36 25 101 52q57 23 129 46
q67 21 137 33q75 13 127 13q103 0 195 -29q88 -28 155 -87q65 -58 103 -150q37 -90 37 -216zM1075 47q0 -87 63 -130q64 -44 191 -44q157 0 268 62q114 64 160 126q-61 81 -159 127q-102 48 -236 48q-128 0 -208 -50q-79 -49 -79 -139z" />
    <glyph glyph-name="ij" unicode="&#x133;" 
d="M567 1372q-34 0 -58 24t-24 58t24 58t58 24q35 0 59 -24q23 -23 23 -58t-23 -58q-24 -24 -59 -24zM1536 1372q-34 0 -58 24t-24 58t24 58t58 24t58 -24t24 -58t-24 -58t-58 -24zM1004 -244q-50 -53 -123 -102q-72 -48 -145 -82q-76 -35 -154 -54q-82 -20 -156 -20
q-177 0 -291 87q-115 88 -115 227q0 73 45 161q45 89 111 175q74 97 149 179q59 65 152 171l53 59q23 25 74 84q36 42 78 107h-242q-184 0 -302 21t-118 108v577h5q11 -26 43 -46q38 -24 77 -41t101 -37q42 -14 110 -32l195 -55q227 -64 333 -100q115 -39 115 -80
q0 -13 -8 -29q-6 -13 -22 -30l-467 -525q-47 -53 -88 -117t-41 -131q0 -66 56 -106q58 -41 153 -41q127 0 245 74q117 73 172 190h5v-592zM2028 1034q0 -148 -25 -275q-24 -121 -80 -274q55 -67 85 -155q30 -89 30 -187q0 -77 -18 -163q-20 -93 -47 -171q-32 -91 -71 -165
q-39 -73 -90 -146l-10 6q51 147 45 285t-67 238q-17 -92 -60 -192q-42 -97 -97 -170q-57 -75 -128 -121t-154 -46q-143 0 -220 86t-77 211v252q0 298 133 455q131 155 365 155q112 0 198 -35q88 -36 152 -100q-6 115 -99 194q-92 79 -288 79q-156 0 -266 -32
q-107 -31 -190 -108h-5v531q35 24 110 53q60 23 151 47q76 20 158 34q77 13 136 13q211 0 319 -71q110 -72 110 -228zM1075 47q0 -87 63 -130q64 -44 191 -44q157 0 268 62q114 64 160 126q-61 81 -159 127q-102 48 -236 48q-128 0 -208 -50q-79 -49 -79 -139z" />
    <glyph glyph-name="Jcircumflex" unicode="&#x134;" 
d="M2028 856q0 -120 -26 -247q-24 -119 -106 -273q68 -89 105 -184t37 -193q0 -111 -39 -195q-38 -81 -106 -140q-63 -54 -156 -90q-88 -34 -193 -46v4q138 30 201 97q61 65 61 182q0 73 -38 138q-37 64 -101 120q-83 -113 -199 -212q-115 -98 -247 -168q-134 -71 -283 -111
q-148 -40 -301 -40q-137 0 -250 40q-116 41 -196 118t-125 194q-46 120 -46 269q0 150 67 267q66 115 193 194q123 76 310 117q182 40 416 40q276 0 503 -106t363 -266q20 48 26 102q7 60 7 98q0 95 -40 171q-41 78 -113 130q-72 53 -175 83q-102 30 -225 30
q-119 0 -280 -41q-141 -36 -313 -91q-195 -63 -289 -91q-135 -41 -206 -41q-112 0 -178 72t-66 227q0 171 131 317t334 205l2 -2q-69 -39 -101 -74t-32 -74q0 -46 33 -73t98 -27q59 0 177 36q181 55 258 79q137 43 282 79q144 36 252 36q121 0 226 -39q107 -40 183 -119
t120 -205q45 -129 45 -297zM51 119q0 -76 49 -118q47 -40 139 -62q91 -22 217 -26q142 -5 283 -5q297 0 528 35q228 35 363 114q-166 121 -435 187q-265 65 -522 74q-251 9 -437 -41q-185 -50 -185 -158zM1188 1577h-4l289 246h4l288 -246h-4l-286 76z" />
    <glyph glyph-name="jcircumflex" unicode="&#x135;" 
d="M2028 1020q0 -135 -22 -286q-21 -145 -97 -322q63 -57 96 -126t33 -143q0 -77 -18 -163q-20 -93 -47 -171q-32 -91 -71 -165q-39 -73 -90 -146l-10 6q45 84 62 150q18 68 18 158q0 81 -41 151q-42 71 -123 123q-82 -123 -206 -234q-120 -108 -260 -187
q-141 -80 -298 -123q-159 -44 -317 -44q-134 0 -250 38q-113 37 -196 111q-79 70 -125 181q-46 110 -46 250q0 141 71 250t203 181q136 74 324 111q189 37 437 37q281 0 489 -59q213 -60 334 -158q33 96 48 185q16 94 16 176q0 108 -60 174q-59 65 -203 65q-99 0 -267 -52
q-155 -48 -353 -114q-146 -49 -361 -113q-174 -52 -290 -52q-186 0 -287 92t-101 272q0 146 106 269t275 178l2 -2q-85 -50 -114 -94q-27 -40 -27 -85q0 -51 42 -89q43 -38 157 -38q110 0 310 48q183 44 390 104q224 65 365 104q173 48 235 48q113 0 190 -120
q77 -121 77 -376zM51 78q0 -60 49 -94q51 -36 139 -52q82 -15 217 -20q113 -4 283 -4q323 0 564 51q242 51 383 147q-123 67 -326 105q-200 37 -486 37q-186 0 -339 -6q-155 -6 -261 -24q-109 -18 -164 -51q-59 -35 -59 -89zM1425 1577h-4l289 246h4l289 -246h-4l-287 76z
" />
    <glyph glyph-name="Kcommaaccent" unicode="&#x136;" 
d="M838 807q0 -95 -18 -195q-19 -104 -50 -198q-34 -101 -79 -193q-48 -97 -103 -174q44 -28 85 -46q38 -17 68 -17q64 0 100 35q38 36 38 118v631q29 24 89.5 72.5t90.5 72.5q99 79 201 162q31 133 65 237q39 119 76 214h4q46 -58 98 -115q45 -49 90 -90q112 79 212 133
q95 51 143 51q44 0 62 -30t18 -103v-717h-5l-399 185l-389 -295q8 -124 48 -230q41 -108 102 -182t143 -119q79 -43 164 -43q99 0 155 74t56 197q0 72 -11 146q-11 71 -39 161h5q25 -52 58 -133q31 -74 58 -158q27 -83 45 -166q19 -89 19 -155q0 -202 -83 -320
q-83 -117 -229 -117q-121 0 -217 75t-162 209q-67 136 -104 322q-36 183 -41 414l-293 -221v-629q0 -75 -41 -119q-40 -43 -116 -43q-71 0 -189 59q-110 55 -233 126q-52 -71 -107 -127q-56 -58 -106 -58q-46 0 -71 37q-26 38 -26 115v604q0 60 19 88q18 27 59 27
q27 0 78 -33t114 -81q33 -25 134 -103q78 -60 137 -99q67 102 105 201q41 106 41 193q0 86 -26 166q-25 76 -73 135q-46 56 -114 91q-67 34 -150 34q-121 0 -208 -60t-111 -168h-5v717q56 59 161 103q102 43 196 43q106 0 194 -51q86 -50 145 -142q58 -91 90 -224
q32 -134 32 -294zM905 -860h-4l82 287h225z" />
    <glyph glyph-name="kcommaaccent" unicode="&#x137;" 
d="M838 807q0 -95 -18 -195q-19 -104 -50 -198q-34 -101 -79 -193q-48 -97 -103 -174q44 -28 85 -46q38 -17 68 -17q64 0 100 35q38 36 38 118v631q126 103 184 150q15 12 207 163q31 127 70 234q76 209 77 211h4q62 -76 93 -112q47 -53 85 -89q122 83 209 130q92 50 140 50
q44 0 62 -30t18 -103v-717h-5l-399 185l-389 -295q8 -124 48 -230q41 -108 102 -182t143 -119q79 -43 164 -43q157 0 233 90q75 89 98 287h5v-411q0 -202 -80 -320q-80 -117 -222 -117q-121 0 -217 75t-162 209q-67 135 -104 323q-36 184 -41 413l-293 -221v-629
q0 -75 -41 -119q-40 -43 -116 -43q-71 0 -189 59q-110 55 -233 126q-52 -71 -107 -127q-56 -58 -106 -58q-46 0 -71 37q-26 38 -26 115v604q0 60 19 88q18 27 59 27q27 0 78 -33t114 -81q33 -25 134 -103q78 -60 137 -99q63 96 104 202q40 104 40 198q0 192 -99 306
t-262 114q-123 0 -210 -60t-111 -168h-3v717q56 59 161 103q102 43 196 43q106 0 194 -51q86 -50 145 -142q58 -91 90 -224q32 -134 32 -294zM905 -860h-4l82 287h225z" />
    <glyph glyph-name="kgreenlandic" unicode="&#x138;" 
d="M838 807q0 -95 -18 -195q-19 -104 -50 -198q-34 -101 -79 -193q-48 -97 -103 -174q44 -28 85 -46q38 -17 68 -17q64 0 100 35q38 36 38 118v631q126 103 184 150q15 12 207 163q31 127 70 234q76 209 77 211h4q62 -76 93 -112q47 -53 85 -89q122 83 209 130q92 50 140 50
q44 0 62 -30t18 -103v-717h-5l-399 185l-389 -295q8 -124 48 -230q41 -108 102 -182t143 -119q79 -43 164 -43q157 0 233 90q75 89 98 287h5v-411q0 -202 -80 -320q-80 -117 -222 -117q-121 0 -217 75t-162 209q-67 135 -104 323q-36 184 -41 413l-293 -221v-629
q0 -75 -41 -119q-40 -43 -116 -43q-71 0 -189 59q-110 55 -233 126q-52 -71 -107 -127q-56 -58 -106 -58q-46 0 -71 37q-26 38 -26 115v604q0 60 19 88q18 27 59 27q27 0 78 -33t114 -81q33 -25 134 -103q78 -60 137 -99q63 96 104 202q40 104 40 198q0 192 -99 306
t-262 114q-123 0 -210 -60t-111 -168h-3v717q56 59 161 103q102 43 196 43q106 0 194 -51q86 -50 145 -142q58 -91 90 -224q32 -134 32 -294z" />
    <glyph glyph-name="Lacute" unicode="&#x139;" 
d="M2038 123q0 -129 -40 -240q-41 -113 -112 -195q-72 -83 -172 -132q-102 -50 -221 -50q-78 0 -185 26q-99 24 -223 67q-110 38 -239 90l-236 94q-120 -138 -226 -205q-111 -70 -198 -70q-82 0 -124 78t-42 275v377q0 77 20 112t75 35q25 0 95 -18q46 -12 169 -49
q22 -7 64 -19.5t80.5 -24t73.5 -22.5q18 -6 245 -74q24 41 51 97q34 70 49 102q-82 -21 -162 -33t-155 -12q-127 0 -238 33q-109 33 -191 99q-81 66 -128 166q-48 102 -48 232q0 138 58 262q57 121 152 207q93 84 224 135q129 50 269 50q53 0 115 -14q57 -13 114 -42l-4 -8
q-36 14 -78 22q-36 7 -82 7q-184 0 -295 -102q-112 -103 -112 -265q0 -201 162 -320q161 -118 440 -118q33 0 50 1q34 2 50 3q73 147 163 295q89 146 192 269q99 118 206 196q104 76 205 76q85 0 132 -47t47 -138q0 -133 -93 -279q-92 -144 -239 -272q-143 -124 -335 -230
q-189 -105 -378 -161q-36 -76 -55 -113q-4 -7 -56 -106q17 -5 192 -52q94 -26 180 -45q78 -18 159 -31q67 -11 127 -11q190 0 285 89q94 88 94 236q0 77 -29 144t-94 135l4 4q42 -38 87 -92q43 -52 80 -118q35 -63 58 -142q23 -80 23 -164zM1800 1247q-71 0 -155 -34
q-94 -38 -176 -102q-92 -72 -179 -176q-91 -109 -168 -253q152 15 294 58t255 107q111 63 179 137q69 75 69 153q0 50 -29 81q-28 29 -90 29zM158 -66q-47 0 -76 -33q-31 -36 -31 -106q0 -75 50 -107t139 -32q92 0 174 39t155 106q-149 60 -247 95q-108 38 -164 38z
M1536 1581l492 242v-205l-492 -41v4z" />
    <glyph glyph-name="lacute" unicode="&#x13a;" 
d="M2038 123q0 -129 -40 -240q-41 -113 -112 -195q-72 -83 -172 -132q-102 -50 -221 -50q-78 0 -185 26q-99 24 -223 67q-110 38 -239 90l-236 94q-120 -138 -226 -205q-111 -70 -198 -70q-82 0 -124 78t-42 275v377q0 77 20 112t75 35q25 0 95 -18q46 -12 169 -49
q22 -7 64 -19.5t80.5 -24t73.5 -22.5q18 -6 245 -74q24 41 51 97q34 70 49 102q-82 -21 -162 -33t-155 -12q-127 0 -238 33q-109 33 -191 99q-81 66 -128 166q-48 102 -48 232q0 138 58 262q57 121 152 207q93 84 224 135q129 50 269 50q53 0 115 -14q57 -13 114 -42l-4 -8
q-36 14 -78 22q-36 7 -82 7q-184 0 -295 -102q-112 -103 -112 -265q0 -201 162 -320q161 -118 440 -118q33 0 50 1q34 2 50 3q73 147 163 295q89 146 192 269q99 118 206 196q104 76 205 76q85 0 132 -47t47 -138q0 -133 -93 -279q-92 -144 -239 -272q-143 -124 -335 -230
q-189 -105 -378 -161q-36 -76 -55 -113q-4 -7 -56 -106q17 -5 192 -52q94 -26 180 -45q78 -18 159 -31q67 -11 127 -11q190 0 285 89q94 88 94 236q0 77 -29 144t-94 135l4 4q42 -38 87 -92q43 -52 80 -118q35 -63 58 -142q23 -80 23 -164zM1800 1247q-71 0 -155 -34
q-94 -38 -176 -102q-92 -72 -179 -176q-91 -109 -168 -253q152 15 294 58t255 107q111 63 179 137q69 75 69 153q0 50 -29 81q-28 29 -90 29zM158 -66q-47 0 -76 -33q-31 -36 -31 -106q0 -75 50 -107t139 -32q92 0 174 39t155 106q-149 60 -247 95q-108 38 -164 38z
M1534 1581l491 242v-205l-491 -41v4z" />
    <glyph glyph-name="Lcommaaccent" unicode="&#x13b;" 
d="M2038 123q0 -129 -40 -240q-41 -113 -112 -195q-72 -83 -172 -132q-102 -50 -221 -50q-78 0 -185 26q-99 24 -223 67q-110 38 -239 90l-236 94q-120 -138 -226 -205q-111 -70 -198 -70q-82 0 -124 78t-42 275v377q0 77 20 112t75 35q25 0 95 -18q46 -12 169 -49
q22 -7 64 -19.5t80.5 -24t73.5 -22.5q18 -6 245 -74q24 41 51 97q34 70 49 102q-82 -21 -162 -33t-155 -12q-127 0 -238 33q-109 33 -191 99q-81 66 -128 166q-48 102 -48 232q0 138 58 262q57 121 152 207q93 84 224 135q129 50 269 50q53 0 115 -14q57 -13 114 -42l-4 -8
q-36 14 -78 22q-36 7 -82 7q-184 0 -295 -102q-112 -103 -112 -265q0 -201 162 -320q161 -118 440 -118q33 0 50 1q34 2 50 3q73 147 163 295q89 146 192 269q99 118 206 196q104 76 205 76q85 0 132 -47t47 -138q0 -133 -93 -279q-92 -144 -239 -272q-143 -124 -335 -230
q-189 -105 -378 -161q-36 -76 -55 -113q-4 -7 -56 -106q17 -5 192 -52q94 -26 180 -45q78 -18 159 -31q67 -11 127 -11q190 0 285 89q94 88 94 236q0 77 -29 144t-94 135l4 4q42 -38 87 -92q43 -52 80 -118q35 -63 58 -142q23 -80 23 -164zM1800 1247q-71 0 -155 -34
q-94 -38 -176 -102q-92 -72 -179 -176q-91 -109 -168 -253q152 15 294 58t255 107q111 63 179 137q69 75 69 153q0 50 -29 81q-28 29 -90 29zM158 -66q-47 0 -76 -33q-31 -36 -31 -106q0 -75 50 -107t139 -32q92 0 174 39t155 106q-149 60 -247 95q-108 38 -164 38z
M905 -860h-4l82 287h225z" />
    <glyph glyph-name="lcommaaccent" unicode="&#x13c;" 
d="M2038 123q0 -129 -40 -240q-41 -113 -112 -195q-72 -83 -172 -132q-102 -50 -221 -50q-78 0 -185 26q-99 24 -223 67q-110 38 -239 90l-236 94q-120 -138 -226 -205q-111 -70 -198 -70q-82 0 -124 78t-42 275v377q0 77 20 112t75 35q25 0 95 -18q46 -12 169 -49
q22 -7 64 -19.5t80.5 -24t73.5 -22.5q18 -6 245 -74q24 41 51 97q34 70 49 102q-82 -21 -162 -33t-155 -12q-127 0 -238 33q-109 33 -191 99q-81 66 -128 166q-48 102 -48 232q0 138 58 262q57 121 152 207q93 84 224 135q129 50 269 50q53 0 115 -14q57 -13 114 -42l-4 -8
q-36 14 -78 22q-36 7 -82 7q-184 0 -295 -102q-112 -103 -112 -265q0 -201 162 -320q161 -118 440 -118q33 0 50 1q34 2 50 3q73 147 163 295q89 146 192 269q99 118 206 196q104 76 205 76q85 0 132 -47t47 -138q0 -133 -93 -279q-92 -144 -239 -272q-143 -124 -335 -230
q-189 -105 -378 -161q-36 -76 -55 -113q-4 -7 -56 -106q17 -5 192 -52q94 -26 180 -45q78 -18 159 -31q67 -11 127 -11q190 0 285 89q94 88 94 236q0 77 -29 144t-94 135l4 4q42 -38 87 -92q43 -52 80 -118q35 -63 58 -142q23 -80 23 -164zM1800 1247q-71 0 -155 -34
q-94 -38 -176 -102q-92 -72 -179 -176q-91 -109 -168 -253q152 15 294 58t255 107q111 63 179 137q69 75 69 153q0 50 -29 81q-28 29 -90 29zM158 -66q-47 0 -76 -33q-31 -36 -31 -106q0 -75 50 -107t139 -32q92 0 174 39t155 106q-149 60 -247 95q-108 38 -164 38z
M905 -860h-4l82 287h225z" />
    </font>
</defs>
</svg>
