<?xml version="1.0" standalone="no"?>
<!DOCTYPE svg PUBLIC "-//W3C//DTD SVG 1.1//EN" "http://www.w3.org/Graphics/SVG/1.1/DTD/svg11.dtd" >
<svg xmlns="http://www.w3.org/2000/svg" xmlns:xlink="http://www.w3.org/1999/xlink" version="1.1">
<metadata>
Created by FontForge 20170731 at Fri Dec 31 01:44:58 2021
 By Aleksey,,,
Copyright (c) 2020 by Bureau Brut. All rights reserved.
</metadata>
<defs>
<font id="BoogyBrutWEBL-Bold" horiz-adv-x="1187" >
  <font-face 
    font-family="Boogy Brut WEBL Bold"
    font-weight="700"
    font-stretch="normal"
    units-per-em="2048"
    panose-1="2 0 0 0 0 0 0 0 0 0"
    ascent="1536"
    descent="-512"
    x-height="1024"
    cap-height="1331"
    bbox="-61 -1358 3123 1987"
    underline-thickness="81"
    underline-position="-388"
    unicode-range="U+000D-1F867"
  />
<missing-glyph horiz-adv-x="2048" 
d="M205 -410v1844h1638v-1844h-1638zM1137 1047q62 0 105 -31q42 -30 42 -88q0 -66 -65 -115q-53 -40 -143 -98q-77 -50 -142 -109q-66 -60 -66 -147q0 -78 42 -123q40 -43 104 -96l39 39q-5 5 -6 11l-3 15q0 59 66 103q93 61 142 93q78 50 143 117q65 66 65 177
q0 69 -27 134q-25 61 -81 113q-52 49 -133 78t-183 29q-164 0 -264 -65q-98 -64 -98 -150q0 -41 16 -74q16 -34 45 -63h41q88 141 177 195q90 55 184 55zM1030 -223q77 0 126 49q50 50 50 125t-50 125q-49 49 -126 49q-76 0 -125 -49t-49 -125t49 -125t125 -49z" />
    <glyph glyph-name="f_b" unicode="fb" horiz-adv-x="1824" 
d="M461 1178v-154h246v-174h-246v-635q0 -96 32 -128q31 -31 101 -46v-41h-553v41q70 15 101 46q32 32 32 128v635h-143v41l143 61q5 124 48 224t116 171q71 70 168 109q96 39 207 39q69 0 113 -17q47 -18 73 -44l176 71v-653q88 105 169 148q82 44 169 44q147 0 238 -118
q92 -119 92 -332q0 -142 -43 -255q-44 -115 -117 -194q-72 -78 -171 -122q-96 -43 -206 -43q-81 0 -150 24q-66 23 -124 70l-103 -94h-41v1292q-52 55 -101 87t-85 32q-64 0 -103 -51q-38 -50 -38 -162zM1251 850q-50 0 -94 -29q-42 -27 -82 -80v-417q0 -127 44 -194
t112 -67q51 0 91 34q42 36 68 91q27 56 42 133q14 70 14 156q0 185 -48 279t-147 94z" />
    <glyph glyph-name="f_f_b" unicode="ffb" horiz-adv-x="2439" 
d="M1075 1178v-154h246v-174h-246v-635q0 -96 32 -128q31 -31 101 -46v-41h-553v41q72 16 102 46q31 31 31 128v635h-327v-635q0 -96 32 -128q31 -31 101 -46v-41h-553v41q70 15 101 46q32 32 32 128v635h-143v41l149 63q15 109 65 198t126 152q74 61 174 96q98 34 209 34
q77 0 138 -16q56 -15 91 -42q71 58 158 88q91 31 186 31q70 0 114 -17q46 -18 72 -44l177 71v-653q88 105 169 148q82 44 169 44q146 0 237 -118q92 -119 92 -332q0 -142 -43 -255q-45 -117 -116 -194t-172 -122q-96 -43 -205 -43q-82 0 -151 24q-66 23 -124 70l-102 -94
h-41v1292q-52 55 -101 87t-85 32q-65 0 -104 -51q-38 -50 -38 -162zM461 1083v-59h334q7 50 23 101q15 47 38 92q-56 59 -110 90q-53 30 -103 30q-84 0 -133 -59t-49 -195zM1866 850q-50 0 -94 -29q-42 -27 -82 -80v-417q0 -127 44 -194t111 -67q51 0 91 34q42 36 68 91
q27 56 42 133q14 70 14 156q0 185 -48 279t-146 94z" />
    <glyph glyph-name="f_f_h" unicode="ffh" horiz-adv-x="2467" 
d="M1075 1178v-154h246v-174h-246v-635q0 -96 32 -128q31 -31 101 -46v-41h-553v41q72 16 102 46q31 31 31 128v635h-327v-635q0 -96 32 -128q31 -31 101 -46v-41h-553v41q70 15 101 46q32 32 32 128v635h-143v41l149 63q15 109 65 198t126 152q74 61 174 96q98 34 209 34
q77 0 138 -16q56 -15 91 -42q71 58 158 88q91 31 186 31q70 0 114 -17q46 -18 72 -44l177 71v-680q95 112 184 165q90 54 184 54q122 0 184 -75t62 -211v-543q0 -96 32 -128q31 -31 101 -46v-41h-553v41q72 16 102 46q31 31 31 128v465q0 90 -32 129q-33 41 -93 41
q-58 0 -107 -39q-51 -40 -95 -90v-506q0 -97 31 -128q30 -30 102 -46v-41h-553v41q70 15 101 46q32 32 32 128v1057q-52 55 -101 87t-85 32q-65 0 -104 -51q-38 -50 -38 -162zM461 1083v-59h334q7 50 23 101q15 47 38 92q-56 59 -110 90q-53 30 -103 30q-84 0 -133 -59
t-49 -195z" />
    <glyph glyph-name="f_f_j" unicode="ffj" horiz-adv-x="1843" 
d="M1403 59v791h-328v-635q0 -96 32 -128q31 -31 101 -46v-41h-553v41q72 16 102 46q31 31 31 128v635h-327v-635q0 -96 32 -128q31 -31 101 -46v-41h-553v41q70 15 101 46q32 32 32 128v635h-143v41l149 63q15 109 65 198t126 152q74 61 174 96q98 34 209 34q83 0 143 -18
t94 -46q75 59 172 92q96 33 205 33q149 0 217 -49q70 -50 70 -117q0 -36 -19 -76q-16 -33 -49 -63h-41q-83 104 -153 157q-68 52 -136 52q-83 0 -133 -60q-49 -59 -49 -194v-121h514l101 41v-983q0 -90 -24 -153q-23 -61 -77 -107q-53 -46 -140 -80q-96 -38 -210 -70v45
q50 24 88 52q32 23 49 60q18 39 22 90q5 60 5 140zM461 1083v-59h336q7 48 23 99q15 47 38 89q-65 68 -112 95q-53 30 -103 30q-84 0 -133 -59t-49 -195z" />
    <glyph glyph-name="f_f_k" unicode="ffk" horiz-adv-x="2408" 
d="M1075 1178v-154h246v-174h-246v-635q0 -96 32 -128q31 -31 101 -46v-41h-553v41q72 16 102 46q31 31 31 128v635h-327v-635q0 -96 32 -128q31 -31 101 -46v-41h-553v41q70 15 101 46q32 32 32 128v635h-143v41l149 63q15 109 65 198t126 152q74 61 174 96q98 34 209 34
q77 0 138 -16q56 -15 91 -42q71 58 158 88q91 31 186 31q70 0 114 -17q46 -18 72 -44l177 71v-989l202 236q76 88 63 150q-13 63 -93 81v41h495v-41q-96 -29 -184 -83q-89 -54 -170 -146l-14 -17l186 -389q71 -150 124 -221q49 -65 109 -86v-41h-378l-232 524l-108 -118
v-191q0 -97 31 -128q30 -30 102 -46v-41h-553v41q70 15 101 46q32 32 32 128v1057q-52 55 -101 87t-85 32q-65 0 -104 -51q-38 -50 -38 -162zM461 1083v-59h334q7 50 23 101q15 47 38 92q-56 59 -110 90q-53 30 -103 30q-84 0 -133 -59t-49 -195z" />
    <glyph glyph-name="f_f_t" unicode="fft" horiz-adv-x="1996" 
d="M1382 344v506h-307v-635q0 -96 41 -129q40 -33 133 -45v-41h-594v41q72 16 102 46q31 31 31 128v635h-327v-635q0 -96 32 -128q31 -31 101 -46v-41h-553v41q70 15 101 46q32 32 32 128v635h-143v41l149 63q15 109 65 198t126 152q74 61 174 96q98 34 209 34q77 0 138 -16
q56 -15 91 -42q71 58 158 88q91 31 186 31q115 0 169 -45t54 -109q0 -34 -17 -61q-19 -30 -44 -55h-43q-67 77 -125 121q-60 45 -104 45q-65 0 -104 -51q-38 -50 -38 -162v-154h322l237 246h35v-246h287v-174h-287v-455q0 -92 38 -150q37 -57 114 -57q49 0 81 27
q32 28 50 84l43 -12q-30 -149 -107 -229q-75 -78 -200 -78q-154 0 -230 101t-76 263zM461 1083v-59h334q7 50 23 101q15 47 38 92q-56 59 -110 90q-53 30 -103 30q-84 0 -133 -59t-49 -195z" />
    <glyph glyph-name="f_h" unicode="fh" horiz-adv-x="1853" 
d="M461 1178v-154h246v-174h-246v-635q0 -96 32 -128q31 -31 101 -46v-41h-553v41q70 15 101 46q32 32 32 128v635h-143v41l143 61q5 124 48 224t116 171q71 70 168 109q96 39 207 39q69 0 113 -17q47 -18 73 -44l176 71v-680q94 110 185 165q90 54 184 54q121 0 183 -75
q63 -77 63 -211v-543q0 -97 31 -128q30 -30 102 -46v-41h-553v41q70 15 101 46q32 32 32 128v465q0 88 -33 129t-92 41q-58 0 -108 -39q-51 -40 -95 -90v-506q0 -96 32 -128q31 -31 101 -46v-41h-553v41q72 16 102 46q31 31 31 128v1057q-52 55 -101 87t-85 32
q-64 0 -103 -51q-38 -50 -38 -162z" />
    <glyph glyph-name="f_j" unicode="fj" horiz-adv-x="1228" 
d="M788 59v791h-327v-635q0 -96 32 -128q31 -31 101 -46v-41h-553v41q70 15 101 46q32 32 32 128v635h-143v41l143 61q6 125 52 224q47 101 124 171t181 109q103 39 223 39q149 0 217 -49q69 -50 69 -117q0 -39 -18 -76q-16 -33 -49 -63h-41q-81 102 -154 157
q-68 52 -135 52q-83 0 -133 -60q-49 -59 -49 -194v-121h514l100 41v-983q0 -93 -23 -153q-23 -61 -77 -107q-53 -46 -140 -80q-96 -38 -210 -70v45q50 24 88 52q32 23 49 60q16 36 21 90q5 60 5 140z" />
    <glyph glyph-name="f_k" unicode="fk" horiz-adv-x="1794" 
d="M461 1178v-154h246v-174h-246v-635q0 -96 32 -128q31 -31 101 -46v-41h-553v41q70 15 101 46q32 32 32 128v635h-143v41l143 61q5 124 48 224t116 171q71 70 168 109q96 39 207 39q69 0 113 -17q47 -18 73 -44l176 71v-989l203 236q75 87 62 150q-14 63 -93 81v41h496
v-41q-96 -29 -184 -83q-89 -54 -170 -146l-15 -17l187 -389q72 -153 123 -221q48 -64 110 -86v-41h-379l-231 524l-109 -118v-191q0 -96 32 -128q31 -31 101 -46v-41h-553v41q72 16 102 46q31 31 31 128v1057q-52 55 -101 87t-85 32q-64 0 -103 -51q-38 -50 -38 -162z" />
    <glyph glyph-name="f_t" unicode="ft" horiz-adv-x="1382" 
d="M768 344v506h-307v-635q0 -96 41 -129q40 -33 133 -45v-41h-594v41q70 15 101 46q32 32 32 128v635h-143v41l143 61q5 124 48 224t116 171q71 70 168 109q96 39 207 39q115 0 169 -45t54 -109q0 -34 -17 -61t-45 -55h-43q-68 79 -124 121q-60 45 -105 45q-64 0 -103 -51
q-38 -50 -38 -162v-154h321l238 246h35v-246h286v-174h-286v-455q0 -92 38 -150q37 -57 113 -57q50 0 81 27q32 28 50 84l43 -12q-30 -150 -106 -229q-75 -78 -201 -78q-153 0 -229 101t-76 263z" />
    <glyph glyph-name="f_f" unicode="ff" horiz-adv-x="1402" 
d="M1075 1178v-154h287v-174h-287v-635q0 -96 41 -129q40 -33 133 -45v-41h-594v41q72 16 102 46q31 31 31 128v635h-327v-635q0 -96 32 -128q31 -31 101 -46v-41h-553v41q70 15 101 46q32 32 32 128v635h-143v41l149 63q15 109 65 198t126 152q74 61 174 96q98 34 209 34
q77 0 138 -16q56 -15 91 -42q71 58 158 88q91 31 186 31q115 0 169 -45t54 -109q0 -34 -17 -61q-19 -30 -44 -55h-43q-67 77 -125 121q-60 45 -104 45q-65 0 -104 -51q-38 -50 -38 -162zM461 1083v-59h334q7 50 23 101q15 47 38 92q-56 59 -110 90q-53 30 -103 30
q-84 0 -133 -59t-49 -195z" />
    <glyph glyph-name="fi" unicode="fi" horiz-adv-x="1239" 
d="M461 1145v-121h514l100 41v-840q0 -101 32 -136q30 -32 101 -48v-41h-553v41q73 16 102 48q31 34 31 136v625h-327v-635q0 -96 32 -128q31 -31 101 -46v-41h-553v41q70 15 101 46q32 32 32 128v635h-143v41l143 61q6 125 52 224q47 101 124 171t181 109q103 39 223 39
q149 0 217 -49q69 -50 69 -117q0 -39 -18 -76q-16 -33 -49 -63h-41q-81 102 -154 157q-68 52 -135 52q-83 0 -133 -60q-49 -59 -49 -194z" />
    <glyph glyph-name="fl" unicode="fl" horiz-adv-x="1239" 
d="M461 1178v-154h246v-174h-246v-635q0 -96 32 -128q31 -31 101 -46v-41h-553v41q70 15 101 46q32 32 32 128v635h-143v41l143 61q5 124 48 224t116 171q71 70 168 109q96 39 207 39q69 0 113 -17q47 -18 73 -44l176 71v-1290q0 -96 32 -128q31 -31 101 -46v-41h-553v41
q72 16 102 46q31 31 31 128v1057q-52 55 -101 87t-85 32q-64 0 -103 -51q-38 -50 -38 -162z" />
    <glyph glyph-name="f_f_i" unicode="ffi" horiz-adv-x="1853" 
d="M1075 1145v-121h514l101 41v-840q0 -102 31 -136q29 -32 102 -48v-41h-553v41q71 16 101 48q32 35 32 136v625h-328v-635q0 -96 32 -128q31 -31 101 -46v-41h-553v41q72 16 102 46q31 31 31 128v635h-327v-635q0 -96 32 -128q31 -31 101 -46v-41h-553v41q70 15 101 46
q32 32 32 128v635h-143v41l149 63q15 109 65 198t126 152q74 61 174 96q98 34 209 34q83 0 143 -18t94 -46q75 59 172 92q96 33 205 33q149 0 217 -49q70 -50 70 -117q0 -36 -19 -76q-16 -33 -49 -63h-41q-83 104 -153 157q-68 52 -136 52q-83 0 -133 -60q-49 -59 -49 -194z
M461 1083v-59h336q7 48 23 99q15 47 38 89q-66 69 -111 95q-52 30 -104 30q-84 0 -133 -59t-49 -195z" />
    <glyph glyph-name="f_f_l" unicode="ffl" horiz-adv-x="1853" 
d="M1075 1178v-154h246v-174h-246v-635q0 -96 32 -128q31 -31 101 -46v-41h-553v41q72 16 102 46q31 31 31 128v635h-327v-635q0 -96 32 -128q31 -31 101 -46v-41h-553v41q70 15 101 46q32 32 32 128v635h-143v41l149 63q15 109 65 198t126 152q74 61 174 96q98 34 209 34
q77 0 138 -16q56 -15 91 -42q71 58 158 88q91 31 186 31q70 0 114 -17q46 -18 72 -44l177 71v-1290q0 -97 31 -128q30 -30 102 -46v-41h-553v41q70 15 101 46q32 32 32 128v1057q-52 55 -101 87t-85 32q-65 0 -104 -51q-38 -50 -38 -162zM461 1083v-59h334q7 50 23 101
q15 47 38 92q-56 59 -110 90q-53 30 -103 30q-84 0 -133 -59t-49 -195z" />
    <glyph glyph-name=".notdef" horiz-adv-x="2048" 
d="M205 -410v1844h1638v-1844h-1638zM1137 1047q62 0 105 -31q42 -30 42 -88q0 -66 -65 -115q-53 -40 -143 -98q-77 -50 -142 -109q-66 -60 -66 -147q0 -78 42 -123q40 -43 104 -96l39 39q-5 5 -6 11l-3 15q0 59 66 103q93 61 142 93q78 50 143 117q65 66 65 177
q0 69 -27 134q-25 61 -81 113q-52 49 -133 78t-183 29q-164 0 -264 -65q-98 -64 -98 -150q0 -41 16 -74q16 -34 45 -63h41q88 141 177 195q90 55 184 55zM1030 -223q77 0 126 49q50 50 50 125t-50 125q-49 49 -126 49q-76 0 -125 -49t-49 -125t49 -125t125 -49z" />
    <glyph glyph-name="glyph1" horiz-adv-x="0" 
 />
    <glyph glyph-name="nonmarkingreturn" horiz-adv-x="682" 
 />
    <glyph glyph-name="CR" unicode="&#xd;" horiz-adv-x="1024" 
 />
    <glyph glyph-name="space" unicode=" " horiz-adv-x="409" 
 />
    <glyph glyph-name="exclam" unicode="!" horiz-adv-x="577" 
d="M313 500h-49l-143 831h336zM289 -20q-82 0 -134 52q-53 53 -53 132t53 132q52 52 134 52t134 -52t52 -132t-52 -132t-134 -52z" />
    <glyph glyph-name="quotedbl" unicode="&#x22;" horiz-adv-x="915" 
d="M227 729l-125 602h301l-124 -602h-52zM637 729l-125 602h301l-125 -602h-51z" />
    <glyph glyph-name="numbersign" unicode="#" horiz-adv-x="1105" 
d="M174 891h188l134 440h94l-133 -440h331l134 440h94l-133 -440h161v-82h-188l-86 -287h162v-82h-189l-133 -440h-94l133 440h-332l-133 -440h-94l133 440h-162v82h189l86 287h-162v82zM344 522h332l86 287h-332z" />
    <glyph glyph-name="dollar" unicode="$" horiz-adv-x="1116" 
d="M608 1536v-186q112 -6 192 -40q82 -35 148 -73v-367h-45q-41 168 -123 262q-83 95 -172 123v-407q56 -23 145 -66q72 -34 130 -85q55 -48 94 -124q37 -73 37 -178q0 -172 -109 -284q-107 -110 -297 -127v-189h-92v185q-131 2 -223 35q-94 34 -170 79v418h45
q17 -102 56 -182q37 -78 86 -131q48 -53 102 -85t104 -44v471q-73 30 -146 64q-74 34 -133 81t-97 115t-38 166q0 160 112 266q111 105 302 117v186h92zM313 1108q0 -84 59 -134q60 -51 144 -89v385q-88 -1 -145 -48q-58 -47 -58 -114zM811 250q0 94 -58 151q-61 59 -145 99
v-439q88 6 146 56q57 49 57 133z" />
    <glyph glyph-name="ampersand" unicode="&#x26;" horiz-adv-x="1484" 
d="M735 709l299 -316q101 157 64 253q-38 98 -154 108v41h498v-41q-54 -17 -97 -44q-40 -25 -78 -71q-40 -48 -82 -116q-80 -129 -108 -177l131 -137q82 -88 140 -123q57 -35 116 -45v-41h-442l-113 125q-74 -69 -165 -109q-94 -41 -214 -41q-198 0 -314 93
q-114 92 -114 256q0 135 72 216q70 79 223 156q-68 83 -105 161q-34 71 -34 161q0 147 103 240q105 94 294 94q158 0 254 -70q95 -69 95 -164q0 -110 -99 -194q-102 -87 -243 -136q22 -24 34 -38t39 -41zM465 1118q-1 -50 30 -113q33 -65 132 -178q55 35 108 111
q53 77 53 158q0 71 -47 116t-123 45q-70 0 -110 -37q-41 -38 -43 -102zM358 463q0 -132 96 -210q95 -77 240 -77q45 0 81 6q33 5 65 19l-303 336q-11 13 -32 36t-24 26q-31 35 -49 56q-32 -26 -53 -74t-21 -118z" />
    <glyph glyph-name="quotesingle" unicode="'" horiz-adv-x="505" 
d="M227 729l-125 602h301l-124 -602h-52z" />
    <glyph glyph-name="parenleft" unicode="(" horiz-adv-x="690" 
d="M399 635q0 -310 84 -502t207 -336l-33 -33q-108 81 -195 161q-94 87 -164 189q-71 105 -113 231q-42 127 -42 290t42 290q42 126 113 231q70 102 164 189q81 75 195 160l33 -32q-129 -135 -210 -332t-81 -506z" />
    <glyph glyph-name="parenright" unicode=")" horiz-adv-x="690" 
d="M291 635q0 309 -81 506t-210 332l33 32q114 -85 195 -160q94 -87 164 -189q71 -105 113 -231q42 -127 42 -290t-42 -290q-42 -126 -113 -231q-70 -102 -164 -189q-87 -80 -195 -161l-33 33q129 135 210 332t81 506z" />
    <glyph glyph-name="asterisk" unicode="*" horiz-adv-x="843" 
d="M61 977l78 240l246 -175l-90 289h252l-90 -289l248 177l77 -240l-301 -4l242 -180l-203 -148l-96 287l-98 -289l-203 148l244 180z" />
    <glyph glyph-name="plus" unicode="+" horiz-adv-x="1003" 
d="M123 676h336v348h86v-348h336v-82h-336v-348h-86v348h-336v82z" />
    <glyph glyph-name="comma" unicode="," horiz-adv-x="577" 
d="M147 295h297v-41l-321 -561h-51z" />
    <glyph glyph-name="hyphen" unicode="-" horiz-adv-x="696" 
d="M102 758h492v-246h-492v246z" />
    <glyph glyph-name="period" unicode="." horiz-adv-x="577" 
d="M289 -20q-82 0 -134 52q-53 53 -53 132t53 132q52 52 134 52t134 -52t52 -132t-52 -132t-134 -52z" />
    <glyph glyph-name="slash" unicode="/" horiz-adv-x="716" 
d="M137 0h-96l539 1331h96z" />
    <glyph glyph-name="zero" unicode="0" horiz-adv-x="1269" 
d="M635 1352q116 0 216 -50q99 -49 169 -141q69 -90 108 -217q39 -128 39 -278q0 -152 -39 -279t-108 -217t-169 -140t-216 -50t-216 50t-169 140q-71 93 -109 217q-39 127 -39 279q0 150 39 278q38 124 109 217q70 92 169 141q100 50 216 50zM635 1270q-47 0 -91 -28
q-42 -27 -72 -96q-29 -68 -46 -187q-16 -115 -16 -293q0 -179 16 -294q17 -119 46 -187q30 -69 72 -96q44 -28 91 -28t91 28q42 27 72 96q29 68 46 187q16 115 16 294q0 178 -16 293q-17 119 -46 187q-30 69 -72 96q-44 28 -91 28z" />
    <glyph glyph-name="one" unicode="1" horiz-adv-x="794" 
d="M784 41v-41h-686v41q104 15 149 46q46 31 46 128v813l-262 -145v61l559 428v-1157q0 -97 46 -128t148 -46z" />
    <glyph glyph-name="two" unicode="2" horiz-adv-x="1038" 
d="M41 0v41q174 162 292 283t187 214q71 95 100 170q29 74 29 150q0 116 -68 181q-70 67 -192 67q-108 0 -182 -68t-74 -190h-51q0 223 121 363q121 141 311 141q182 0 281 -99q98 -98 98 -268q0 -94 -36 -178q-37 -85 -103 -168q-66 -82 -165 -175q-112 -105 -218 -198h585
v-266h-915z" />
    <glyph glyph-name="three" unicode="3" horiz-adv-x="1026" 
d="M944 379q0 -97 -46 -171q-48 -77 -122 -125q-79 -51 -177 -77t-212 -26q-169 0 -247 65q-79 66 -79 154q0 39 18 76q19 40 48 69h41q84 -149 169 -214q81 -62 173 -62q76 0 127 45t51 137q0 137 -105 232q-106 96 -274 145v41q138 22 231 80q91 57 91 157q0 84 -61 142
q-60 57 -169 57q-111 0 -181 -72q-70 -71 -70 -190h-52q0 109 29 205q28 92 83 161q56 69 136 106q84 38 186 38q160 0 250 -87t90 -216q0 -83 -55 -166q-56 -84 -172 -123q122 -44 211 -146q88 -100 88 -235z" />
    <glyph glyph-name="four" unicode="4" horiz-adv-x="1093" 
d="M858 215q0 -97 46 -128q45 -31 149 -46v-41h-686v41q102 15 148 46t46 128v92h-561v41l653 983h205v-850h215v-174h-215v-92zM195 481h366v553z" />
    <glyph glyph-name="five" unicode="5" horiz-adv-x="1017" 
d="M936 422q0 -108 -44 -193q-43 -83 -119 -139q-77 -57 -173 -83q-99 -27 -205 -27q-173 0 -253 65q-81 66 -81 154q0 39 18 76q19 40 48 69h41q85 -153 172 -215q85 -61 178 -61t154 53q59 52 59 149q0 54 -20 107q-21 55 -84 109q-65 56 -184 105q-121 50 -314 93
l154 647h594v-266h-572l-31 -137q204 -43 335 -99q133 -57 202 -117q70 -61 98 -137q27 -73 27 -153z" />
    <glyph glyph-name="six" unicode="6" horiz-adv-x="1171" 
d="M645 1260q-120 0 -176 -137t-57 -406q54 57 135 105q77 46 184 46q167 0 262 -113q97 -115 97 -292q0 -115 -42 -205q-42 -89 -109 -152q-65 -60 -152 -94q-83 -32 -171 -32q-97 0 -187 32q-92 33 -165 107q-72 73 -117 195t-45 296q0 182 58 325q57 141 148 232
q93 93 206 139t227 46q158 0 231 -47q72 -47 72 -117q0 -36 -18 -73t-51 -75h-41q-115 136 -172 178t-117 42zM582 688q-46 0 -88 -13q-44 -14 -82 -50q1 -106 18 -208q16 -100 45 -179q28 -76 73 -126q44 -49 103 -49q87 0 130 67q42 66 42 183q0 83 -14 147
q-15 70 -45 119q-29 48 -76 79q-45 30 -106 30z" />
    <glyph glyph-name="seven" unicode="7" horiz-adv-x="872" 
d="M872 1290q-38 -86 -115 -279q-59 -147 -101 -297q-42 -149 -70 -331q-27 -176 -27 -383h-391v41l539 1024h-687v266h852v-41z" />
    <glyph glyph-name="eight" unicode="8" horiz-adv-x="1118" 
d="M1036 379q0 -172 -127 -286q-126 -113 -340 -113q-108 0 -194 20q-94 22 -155 63q-62 42 -101 107q-37 62 -37 149q0 117 84 195t196 117q-98 55 -168 137q-71 83 -71 219q0 155 118 260t316 105q85 0 169 -19q76 -17 135 -53q56 -34 88 -87t32 -118q0 -109 -79 -176
q-78 -66 -191 -104q51 -24 120 -65q60 -36 105 -84q47 -50 73 -114q27 -66 27 -153zM336 1096q0 -54 25 -92q26 -40 68 -70q45 -32 97 -56q8 -4 50 -23t65 -30q56 49 90 104q33 54 33 136q0 94 -59 149q-61 56 -164 56q-95 0 -150 -48t-55 -126zM315 328q0 -125 74 -196
t195 -71q109 0 175 52q64 51 64 139q0 72 -35 122q-36 52 -91 88q-58 38 -127 69q-62 28 -140 65q-56 -52 -84 -115q-31 -68 -31 -153z" />
    <glyph glyph-name="nine" unicode="9" horiz-adv-x="1171" 
d="M526 72q121 0 176 136q57 139 58 406q-54 -57 -135 -105q-77 -46 -185 -46q-166 0 -262 114t-96 291q0 115 42 205q42 91 108 152q65 60 152 94q86 33 171 33q94 0 187 -33q92 -33 165 -107q72 -74 117 -195q45 -122 45 -296q0 -184 -57 -325q-56 -139 -149 -232
q-91 -91 -206 -138q-113 -46 -227 -46q-157 0 -230 47t-73 116q0 35 18 73q17 35 52 75h41q112 -133 172 -177q57 -42 116 -42zM348 1018q0 -83 14 -147q14 -66 46 -118q31 -50 75 -80q45 -30 107 -30q46 0 88 13q43 13 82 51q-1 98 -19 207q-17 102 -45 180t-72 126
q-43 48 -104 48q-87 0 -130 -67q-42 -66 -42 -183z" />
    <glyph glyph-name="colon" unicode=":" horiz-adv-x="577" 
d="M289 -20q-82 0 -134 52q-53 53 -53 132t53 132q52 52 134 52t134 -52t52 -132t-52 -132t-134 -52zM289 647q-82 0 -134 52q-53 53 -53 132q0 80 53 133q52 52 134 52t134 -52t52 -133q0 -80 -52 -132t-134 -52z" />
    <glyph glyph-name="semicolon" unicode=";" horiz-adv-x="577" 
d="M289 647q-82 0 -134 52q-53 53 -53 132q0 80 53 133q52 52 134 52t134 -52t52 -133q0 -80 -52 -132t-134 -52zM147 295h297v-41l-321 -561h-51z" />
    <glyph glyph-name="less" unicode="&#x3c;" horiz-adv-x="1003" 
d="M123 594v82l758 368v-94l-658 -315l658 -316v-94z" />
    <glyph glyph-name="equal" unicode="=" horiz-adv-x="1003" 
d="M123 840h758v-82h-758v82zM123 512h758v-82h-758v82z" />
    <glyph glyph-name="greater" unicode="&#x3e;" horiz-adv-x="1003" 
d="M881 594l-758 -369v94l657 316l-657 315v94l758 -368v-82z" />
    <glyph glyph-name="question" unicode="?" horiz-adv-x="909" 
d="M524 1249q-94 0 -183 -54q-87 -53 -177 -196h-41q-28 28 -45 64t-17 74q0 85 99 150q100 65 264 65q101 0 182 -29t133 -78q56 -52 81 -113q28 -67 28 -135q0 -109 -66 -176q-70 -71 -142 -118q-49 -32 -142 -93q-66 -44 -66 -102q0 -5 2 -15q2 -7 6 -12l-39 -39
q-55 46 -103 97q-42 45 -42 123q0 87 66 147q65 59 142 109q83 53 142 98q66 50 66 114q0 59 -42 89t-106 30zM418 -20q-76 0 -125 49t-49 125t49 125t125 49q77 0 126 -49q50 -50 50 -125t-50 -125q-49 -49 -126 -49z" />
    <glyph glyph-name="at" unicode="@" horiz-adv-x="1525" 
d="M1102 125q-87 0 -164 41q-76 40 -88 145q-27 -95 -96 -144q-70 -50 -158 -50q-95 0 -144 46q-51 48 -51 120q0 58 37 105q38 49 146 106l247 129v79q0 66 -22 103t-84 37q-61 0 -105 -58t-10 -161q-41 -25 -84 -38q-47 -14 -90 -14q-16 42 -8 84q7 39 32 78q24 37 58 70
q30 29 72 59q77 55 134 79q65 28 128 28q96 0 153 -60q56 -59 56 -159v-353q0 -77 29 -109t77 -32q77 0 120 88q44 90 44 248q0 111 -39 207q-39 97 -109 165q-68 66 -170 108q-98 40 -216 40q-132 0 -243 -45q-109 -44 -190 -125q-78 -78 -124 -191q-45 -111 -45 -243
q0 -128 41 -239q41 -110 116 -188q76 -79 186 -124t244 -45q90 0 165 17q79 18 145 51l26 -76q-72 -37 -156 -58q-81 -20 -180 -20q-154 0 -282 51q-127 51 -214 141t-135 216q-49 129 -49 274q0 147 53 276q52 128 143 218q92 92 219 144q126 52 280 52q132 0 249 -44
q116 -44 198 -123q84 -81 131 -191q48 -112 48 -248q2 -207 -83 -336q-86 -131 -238 -131zM625 360q0 -37 22 -62q23 -26 62 -26q51 0 87 46q36 47 36 124v93l-60 -29q-80 -39 -115 -71q-32 -29 -32 -75z" />
    <glyph glyph-name="A" unicode="A" horiz-adv-x="1380" 
d="M416 41v-41h-416v41q90 33 141 99q53 68 103 194l422 1038h47l422 -1030q64 -157 109 -214q47 -60 106 -87v-41h-559v41q63 7 87 68q23 59 -20 165l-14 37h-516l-13 -32q-44 -108 -13 -166q30 -57 114 -72zM397 485h377l-188 480z" />
    <glyph glyph-name="B" unicode="B" horiz-adv-x="1388" 
d="M51 1290v41h619q282 0 425 -81q142 -81 142 -232q0 -123 -108 -201t-267 -108q87 -11 173 -40q79 -26 142 -72q59 -43 95 -108q35 -64 35 -145q0 -166 -143 -255t-425 -89h-688v41q81 16 118 47q36 30 36 127v901q0 97 -36 127q-37 31 -118 47zM627 1249h-125v-512h153
q109 0 187 70q76 69 76 178q0 47 -12 94q-13 49 -43 85q-32 38 -89 62q-55 23 -147 23zM725 655h-223v-573h194q91 0 148 27q59 28 89 68q31 41 43 95q11 48 11 105q0 124 -76 201t-186 77z" />
    <glyph glyph-name="C" unicode="C" horiz-adv-x="1355" 
d="M705 1257q-156 0 -255 -130q-100 -132 -100 -347q0 -142 40 -244q41 -105 106 -170q69 -69 149 -99q83 -31 170 -31q143 0 259 87q116 88 149 283h51q-7 -119 -46 -237q-38 -115 -107 -201q-70 -87 -169 -137q-100 -51 -231 -51q-132 0 -247 47q-112 45 -195 132
q-84 88 -130 208q-47 124 -47 272q0 156 55 290q54 133 145 225t213 145q123 53 257 53q120 0 236 -31q103 -27 206 -70v-411h-45q-101 228 -221 322q-122 95 -243 95z" />
    <glyph glyph-name="D" unicode="D" horiz-adv-x="1495" 
d="M51 1290v41h586q356 0 556 -164t200 -456q0 -159 -62 -292q-62 -132 -164 -224q-105 -94 -239 -144q-136 -51 -285 -51h-592v41q81 16 118 47q36 30 36 127v901q0 97 -36 127q-37 31 -118 47zM594 1249h-92v-1167h153q94 0 170 49t128 131q53 82 81 192q29 111 29 226
q0 120 -27 225q-27 104 -82 180q-56 77 -145 120q-91 44 -215 44z" />
    <glyph glyph-name="E" unicode="E" horiz-adv-x="1320" 
d="M51 1290v41h1147v-471h-45q-50 223 -147 305q-99 84 -283 84h-221v-532h43q126 0 198 83q72 82 99 224h45v-696h-45q-27 142 -99 224q-72 83 -198 83h-43v-553h221q184 0 283 84q97 82 147 305h45v-471h-1147v41q81 16 118 47q36 30 36 127v901q0 97 -36 127
q-37 31 -118 47z" />
    <glyph glyph-name="F" unicode="F" horiz-adv-x="1280" 
d="M51 1290v41h1147v-471h-45q-50 223 -147 305q-99 84 -283 84h-221v-573h63q127 0 199 83q71 81 98 224h45v-696h-45q-27 143 -98 224q-72 83 -199 83h-63v-379q0 -97 46 -128t148 -46v-41h-645v41q81 16 118 47q36 30 36 127v901q0 97 -36 127q-37 31 -118 47z" />
    <glyph glyph-name="G" unicode="G" horiz-adv-x="1433" 
d="M678 655v82h612v-757h-41l-231 213q-61 -97 -154 -155q-94 -58 -221 -58q-116 0 -214 46q-101 48 -172 130q-75 88 -114 200q-41 118 -41 258q0 164 56 302q57 139 149 233q96 97 220 149q130 54 266 54q125 0 247 -31q113 -29 215 -70v-391h-45q-94 217 -221 305
t-252 88q-172 0 -280 -133q-109 -135 -109 -354q0 -143 40 -245q41 -105 106 -170q67 -67 149 -98q85 -32 170 -32q49 0 92 10q46 11 88 31v393h-315z" />
    <glyph glyph-name="H" unicode="H" horiz-adv-x="1576" 
d="M51 1290v41h604v-41q-80 -16 -117 -47q-36 -30 -36 -127v-379h573v379q0 97 -36 127q-37 31 -117 47v41h604v-41q-81 -16 -118 -47q-36 -30 -36 -127v-901q0 -97 36 -127q37 -31 118 -47v-41h-604v41q80 16 117 47q36 30 36 127v440h-573v-440q0 -97 36 -127
q37 -31 117 -47v-41h-604v41q81 16 118 47q36 30 36 127v901q0 97 -36 127q-37 31 -118 47z" />
    <glyph glyph-name="I" unicode="I" horiz-adv-x="706" 
d="M51 1290v41h604v-41q-80 -16 -117 -47q-36 -30 -36 -127v-901q0 -97 36 -127q37 -31 117 -47v-41h-604v41q81 16 118 47q36 30 36 127v901q0 97 -36 127q-37 31 -118 47z" />
    <glyph glyph-name="J" unicode="J" horiz-adv-x="696" 
d="M205 1116q0 97 -36 127q-37 31 -118 47v41h604v-41q-80 -16 -117 -47q-36 -30 -36 -127v-1034q0 -87 -25 -153q-23 -60 -79 -107q-56 -46 -142 -80q-99 -39 -215 -70v45q50 24 88 52q32 23 49 60q18 39 22 90q5 60 5 140v1057z" />
    <glyph glyph-name="K" unicode="K" horiz-adv-x="1439" 
d="M51 41q81 16 118 47q36 30 36 127v901q0 97 -36 127q-37 31 -118 47v41h604v-41q-80 -16 -117 -47q-36 -30 -36 -127v-500l391 443q83 92 68 152q-15 61 -101 79v41h506v-41q-97 -28 -186 -82q-88 -54 -172 -147l-179 -197l310 -516q98 -166 149 -223q56 -63 121 -84v-41
h-422l-360 639l-125 -137v-287q0 -97 36 -127q37 -31 117 -47v-41h-604v41z" />
    <glyph glyph-name="L" unicode="L" horiz-adv-x="1218" 
d="M51 41q81 16 118 47q36 30 36 127v901q0 97 -36 127q-37 31 -118 47v41h645v-41q-102 -15 -148 -46t-46 -128v-1034h160q183 0 282 84q98 83 148 305h45v-471h-1086v41z" />
    <glyph glyph-name="M" unicode="M" horiz-adv-x="1740" 
d="M1239 215v866l-446 -1101h-48l-452 1097v-780q0 -76 11 -117q12 -44 34 -71t60 -42q40 -16 89 -26v-41h-477v41q49 10 89 26q39 16 61 42q22 27 34 71q11 41 11 117v895q-39 44 -80 64q-36 18 -84 34v41h463l366 -940l369 940h451v-41q-81 -16 -118 -47q-36 -30 -36 -127
v-901q0 -97 36 -127q37 -31 118 -47v-41h-605v41q81 16 118 47q36 30 36 127z" />
    <glyph glyph-name="N" unicode="N" horiz-adv-x="1433" 
d="M1229 -61h-41l-895 1110v-752q0 -76 11 -117q12 -44 34 -71t60 -42q40 -16 89 -26v-41h-477v41q49 10 89 26q39 16 61 42q22 27 34 71q11 41 11 117v858q-51 59 -97 92q-50 36 -108 43v41h420l721 -876v579q0 72 -12 117q-13 48 -33 72q-22 26 -61 42q-34 14 -89 25v41
h477v-41q-55 -11 -89 -25q-38 -15 -60 -42q-22 -26 -34 -72q-11 -41 -11 -117v-1095z" />
    <glyph glyph-name="O" unicode="O" horiz-adv-x="1579" 
d="M815 1352q145 0 265 -43q122 -44 209 -126q87 -83 137 -209q51 -130 51 -290q0 -165 -56 -297t-151 -221q-96 -90 -227 -138t-279 -48q-145 0 -265 43q-124 44 -209 125q-87 83 -137 209q-51 130 -51 290q0 165 56 297t151 221q97 91 227 139t279 48zM764 1262
q-166 0 -249 -134t-83 -409q0 -111 23 -229q22 -115 69 -208q45 -91 120 -153q71 -59 171 -59q167 0 249 133q83 134 83 409q0 111 -23 229q-23 116 -69 209q-45 89 -120 152q-72 60 -171 60z" />
    <glyph glyph-name="P" unicode="P" horiz-adv-x="1357" 
d="M51 1290v41h606q310 0 464 -106q155 -107 155 -310q0 -120 -52 -208q-52 -87 -140 -145q-87 -57 -201 -84t-238 -27h-143v-236q0 -97 46 -128t148 -46v-41h-645v41q81 16 118 47q36 30 36 127v901q0 97 -36 127q-37 31 -118 47zM614 1249h-112v-717h141q131 0 222 99
q91 98 91 252q0 67 -13 131q-13 65 -51 118q-36 51 -105 85q-64 32 -173 32z" />
    <glyph glyph-name="Q" unicode="Q" horiz-adv-x="1579" 
d="M924 -72h383l-164 -256h-49q-76 0 -139 13q-57 12 -106 47q-47 34 -91 96q-40 57 -94 158q-127 15 -227 62q-103 48 -177 131t-116 201t-42 267q0 165 56 297t151 221q97 91 227 139t279 48q145 0 265 -43q122 -44 209 -126q87 -83 137 -209q51 -130 51 -290
q0 -165 -56 -297t-151 -221q-96 -90 -227 -138t-279 -48h-2q24 -21 65 -36q43 -16 97 -16zM768 1257q-168 0 -252 -132t-84 -406q0 -108 23 -226q23 -120 68 -208q47 -93 118 -152t170 -59q168 0 252 132t84 406q0 109 -23 227q-23 120 -68 208q-46 91 -118 151
q-71 59 -170 59z" />
    <glyph glyph-name="R" unicode="R" horiz-adv-x="1392" 
d="M51 1290v41h606q292 0 440 -83q146 -82 146 -236q0 -145 -110 -230q-112 -86 -273 -116q49 -7 92 -36q42 -28 76 -87l197 -336q52 -88 78 -122q28 -37 69 -44v-41h-379l-276 528q-27 50 -49 73q-22 24 -82 24h-84v-410q0 -97 36 -127q37 -31 117 -47v-41h-604v41
q81 16 118 47q36 30 36 127v901q0 97 -36 127q-37 31 -118 47zM614 1249h-112v-542h141q117 0 199 76t82 196q0 43 -13 95q-12 49 -46 87q-36 41 -94 64q-60 24 -157 24z" />
    <glyph glyph-name="S" unicode="S" horiz-adv-x="1157" 
d="M606 61q98 0 168 51q68 50 68 138q0 132 -116 194q-114 61 -254 117q-142 57 -254 140q-116 86 -116 266q0 171 131 278t351 107q133 0 232 -35q93 -33 173 -80v-367h-45q-27 101 -71 179q-42 73 -98 125q-51 47 -116 72q-61 24 -118 24q-95 0 -156 -46t-61 -116
q0 -120 114 -172q129 -59 251 -109q140 -57 251 -146q115 -92 115 -286q0 -190 -134 -303q-133 -112 -360 -112q-145 0 -250 31q-103 30 -188 83v418h45q22 -121 73 -209t112 -139q67 -55 130 -78q70 -25 123 -25z" />
    <glyph glyph-name="T" unicode="T" horiz-adv-x="1431" 
d="M1059 0h-686v41q102 15 148 46t46 128v1034h-10q-184 0 -283 -84q-97 -82 -147 -305h-45v471h1268v-471h-45q-50 222 -148 305q-99 84 -283 84h-10v-1034q0 -97 46 -128q45 -31 149 -46v-41z" />
    <glyph glyph-name="U" unicode="U" horiz-adv-x="1384" 
d="M918 1331h477v-41q-55 -11 -89 -25q-39 -16 -61 -42t-34 -72q-11 -41 -11 -117v-518q0 -259 -134 -398q-134 -138 -374 -138t-374 138q-134 139 -134 398v600q0 97 -36 127q-37 31 -117 47v41h604v-41q-81 -16 -118 -47q-36 -30 -36 -127v-600q0 -165 84 -251
q84 -85 232 -85q147 0 231 85q84 86 84 251v518q0 76 -11 117q-12 46 -34 72q-23 27 -60 42q-34 14 -89 25v41z" />
    <glyph glyph-name="V" unicode="V" horiz-adv-x="1359" 
d="M1116 997l-411 -1017h-48l-411 1009q-63 154 -110 214q-47 61 -105 87v41h559v-41q-64 -8 -86 -67q-22 -60 18 -166l260 -666l258 662q44 109 14 166q-29 56 -114 71v41h420v-41q-90 -33 -141 -99q-53 -68 -103 -194z" />
    <glyph glyph-name="W" unicode="W" horiz-adv-x="1953" 
d="M1331 -20l-356 978l-352 -978h-43l-398 1085q-40 110 -69 157q-27 45 -82 68v41h518v-41q-70 -11 -90 -66q-21 -57 18 -167l217 -629l230 672q-39 100 -77 138q-37 37 -81 52v41h547v-41q-73 -11 -98 -63t14 -170l217 -631l219 616q50 137 22 186q-26 47 -122 62v41h389
v-41q-59 -22 -106 -83q-50 -65 -95 -191l-379 -1036h-43z" />
    <glyph glyph-name="X" unicode="X" horiz-adv-x="1284" 
d="M297 303l211 334l-279 438q-59 95 -104 144q-44 49 -94 71v41h551v-41q-56 -15 -75 -68q-19 -54 30 -130l176 -281l155 250q67 111 45 160q-22 48 -98 69v41h412v-41q-76 -32 -137 -84q-62 -52 -140 -178l-186 -295l301 -477q55 -86 104 -142q44 -50 95 -73v-41h-551v41
q54 15 74 69q20 55 -29 130l-201 317l-178 -287q-67 -110 -45 -159t98 -70v-41h-412v41q78 33 138 84t139 178z" />
    <glyph glyph-name="Y" unicode="Y" horiz-adv-x="1359" 
d="M997 0h-604v41q81 16 118 47q36 30 36 127v203l-271 571q-74 157 -125 214q-53 59 -120 87v41h590v-41q-65 -8 -92 -68t24 -165l240 -492l233 488q51 106 16 165q-34 57 -122 72v41h440v-41q-98 -38 -149 -102q-49 -62 -113 -191l-254 -524v-258q0 -97 36 -127
q37 -31 117 -47v-41z" />
    <glyph glyph-name="Z" unicode="Z" horiz-adv-x="1181" 
d="M82 0v41l668 1208h-162q-184 0 -283 -84q-97 -82 -147 -305h-45v471h987v-41l-668 -1208h193q183 0 282 84q98 83 148 305h45v-471h-1018z" />
    <glyph glyph-name="bracketleft" unicode="[" horiz-adv-x="690" 
d="M184 -225v1720h465v-82h-209v-1556h209v-82h-465z" />
    <glyph glyph-name="backslash" unicode="\" horiz-adv-x="716" 
d="M580 0l-539 1331h96l539 -1331h-96z" />
    <glyph glyph-name="bracketright" unicode="]" horiz-adv-x="690" 
d="M506 1495v-1720h-465v82h209v1556h-209v82h465z" />
    <glyph glyph-name="asciicircum" unicode="^" horiz-adv-x="1003" 
d="M461 1331h82l368 -758h-94l-315 658l-316 -658h-94z" />
    <glyph glyph-name="underscore" unicode="_" horiz-adv-x="1064" 
d="M123 -225h819v-82h-819v82z" />
    <glyph glyph-name="grave" unicode="`" horiz-adv-x="1024" 
d="M492 1147l-308 369h246l123 -369h-61z" />
    <glyph glyph-name="a" unicode="a" horiz-adv-x="1054" 
d="M305 627q-44 -27 -95 -42q-55 -17 -104 -18q-19 52 -8 99t39 89q27 40 73 81q35 31 89 71q94 69 163 103t154 34q136 0 195 -71t59 -176v-492q0 -77 24 -109t62 -32q34 0 60 20q28 22 45 47l39 -32q-57 -95 -122 -152q-64 -57 -165 -57q-70 0 -134 46q-66 47 -73 183
q-34 -114 -122 -177q-86 -62 -195 -62t-168 56q-60 57 -60 146q0 69 41 130q41 60 170 128l312 162v105q0 87 -29 139q-29 51 -104 51q-39 0 -74 -18t-58 -54q-22 -33 -28 -85t14 -113zM311 270q0 -44 28 -75t77 -31q70 0 119 61t49 162v125l-76 -37q-108 -51 -154 -97
q-43 -43 -43 -108z" />
    <glyph glyph-name="b" unicode="b" horiz-adv-x="1189" 
d="M440 1505v-653q88 105 169 148q82 44 169 44q147 0 238 -118q92 -119 92 -332q0 -142 -43 -255q-44 -115 -117 -194q-72 -78 -171 -122q-96 -43 -206 -43q-81 0 -150 24q-66 23 -124 70l-102 -94h-41v1310h-144v41zM616 850q-50 0 -94 -29q-42 -27 -82 -80v-417
q0 -127 44 -194t112 -67q51 0 91 34q42 36 68 91q27 56 42 133q14 70 14 156q0 185 -48 279t-147 94z" />
    <glyph glyph-name="c" unicode="c" horiz-adv-x="1001" 
d="M313 627q0 -172 77 -288t231 -116q118 0 183 80t83 186h43q0 -103 -28 -199q-26 -91 -82 -162q-53 -68 -135 -109q-78 -39 -183 -39q-107 0 -184 35t-131 100q-50 60 -78 150q-27 87 -27 190q0 113 36 219q35 105 105 188q69 82 171 132q103 50 231 50q160 0 230 -64
q71 -65 71 -151q0 -37 -20 -74t-50 -67h-41q-73 150 -139 198q-68 50 -141 50q-117 0 -169 -93q-53 -94 -53 -216z" />
    <glyph glyph-name="d" unicode="d" horiz-adv-x="1200" 
d="M1180 133l-410 -174v238q-97 -119 -181 -167q-86 -50 -177 -50q-147 0 -238 118q-92 119 -92 332q0 142 43 255q44 115 117 194q72 78 171 122q96 43 205 43q31 0 68 -5q26 -4 64 -13v264h-144v41l430 174v-1331h144v-41zM573 174q51 0 95 29q42 27 82 80v417
q0 127 -44 194t-112 67q-51 0 -91 -34q-42 -36 -68 -91q-27 -56 -42 -133q-14 -70 -14 -156q0 -185 48 -279t146 -94z" />
    <glyph glyph-name="e" unicode="e" horiz-adv-x="1046" 
d="M965 707v-52h-631q-2 -16 -2 -25v-28q0 -167 75 -275t222 -108q65 0 114 24t85 61q37 38 59 86q23 48 33 99h43q0 -104 -29 -199q-28 -93 -84 -162q-55 -68 -138 -109q-79 -39 -188 -39q-112 0 -193 37q-82 37 -138 104q-57 67 -83 154q-28 92 -28 190q0 106 34 209
q34 105 98 186q63 81 161 133q96 51 223 51q95 0 164 -27q68 -27 115 -75q45 -46 66 -108q22 -64 22 -127zM571 963q-91 0 -148 -66q-56 -65 -77 -160h299q32 0 48 14t16 50q0 56 -32 109t-106 53z" />
    <glyph glyph-name="f" unicode="f" horiz-adv-x="788" 
d="M461 1178v-154h287v-174h-287v-635q0 -96 41 -129q40 -33 133 -45v-41h-594v41q70 15 101 46q32 32 32 128v635h-143v41l143 61q5 124 48 224t116 171q71 70 168 109q96 39 207 39q115 0 169 -45t54 -109q0 -34 -17 -61t-45 -55h-43q-68 79 -124 121q-60 45 -105 45
q-64 0 -103 -51q-38 -50 -38 -162z" />
    <glyph glyph-name="g" unicode="g" horiz-adv-x="1019" 
d="M522 1044q47 0 95 -5q44 -5 83 -15h320v-82h-156q44 -40 63 -86q21 -49 21 -106q0 -134 -124 -218q-123 -83 -326 -83q-19 0 -53 2q-9 1 -25.5 2.5t-24.5 1.5q-28 -19 -53 -44q-20 -20 -20 -44q0 -34 35 -50t120 -16h252q145 0 205 -56q61 -57 61 -145q0 -84 -53 -163
q-52 -78 -142 -137q-88 -58 -206 -93q-119 -35 -240 -35q-129 0 -225 38q-94 37 -94 126q0 47 44 106q43 57 148 119q-64 15 -104 52q-41 38 -41 104q0 63 63 129q60 63 158 125q-113 33 -172 98t-59 154q0 141 125 231q124 90 325 90zM496 975q-75 0 -109 -52
q-35 -53 -35 -157q0 -43 9 -88q9 -43 31 -80q21 -34 54 -57q34 -23 80 -23q75 0 109 46q35 47 35 143q0 42 -10 95q-9 49 -30 86t-55 62t-79 25zM240 -74q0 -74 74 -104q78 -31 184 -31q129 0 217 55t88 117q0 45 -31 67q-30 21 -90 21h-338h-19q-10 0 -20 2
q-36 -34 -50 -61q-15 -28 -15 -66z" />
    <glyph glyph-name="h" unicode="h" horiz-adv-x="1228" 
d="M451 721v-506q0 -97 31 -128q30 -30 102 -46v-41h-553v41q70 15 101 46q32 32 32 128v1075h-144v41l431 174v-680q95 112 184 165q90 54 184 54q121 0 183 -75q63 -77 63 -211v-543q0 -96 32 -128q31 -31 101 -46v-41h-553v41q70 15 101 46q32 32 32 128v465
q0 88 -33 129t-92 41q-57 0 -107 -39q-51 -40 -95 -90z" />
    <glyph glyph-name="i" unicode="i" horiz-adv-x="624" 
d="M336 1516q81 0 134 -53q52 -52 52 -132t-52 -132t-134 -52t-134 52t-52 132t52 132q53 53 134 53zM461 1065v-840q0 -101 32 -136q30 -32 101 -48v-41h-553v41q71 16 101 48q32 35 32 136v625h-143v41z" />
    <glyph glyph-name="j" unicode="j" horiz-adv-x="614" 
d="M336 1516q81 0 134 -53q52 -52 52 -132t-52 -132t-134 -52t-134 52t-52 132t52 132q53 53 134 53zM174 59v791h-143v41l430 174v-983q0 -90 -24 -153q-23 -61 -77 -107q-53 -46 -140 -80q-96 -38 -210 -70v45q50 24 88 52q32 23 49 60q18 39 22 90q5 60 5 140z" />
    <glyph glyph-name="k" unicode="k" horiz-adv-x="1210" 
d="M451 1505v-993l233 240q82 83 67 148t-98 83v41h508v-41q-98 -29 -187 -86q-90 -57 -177 -143l-33 -33l186 -373q76 -151 128 -221q48 -64 112 -86v-41h-389l-236 520l-114 -114v-191q0 -97 31 -128q30 -30 102 -46v-41h-553v41q70 15 101 46q32 32 32 128v1075h-144v41z
" />
    <glyph glyph-name="l" unicode="l" horiz-adv-x="614" 
d="M451 1505v-1290q0 -97 31 -128q30 -30 102 -46v-41h-553v41q70 15 101 46q32 32 32 128v1075h-144v41z" />
    <glyph glyph-name="m" unicode="m" horiz-adv-x="1812" 
d="M461 721v-506q0 -97 25 -129q26 -33 87 -45v-41h-532v41q70 15 101 46q32 32 32 128v635h-143v41l409 174v-264q97 119 191 182q91 61 188 61q103 0 161 -58q59 -59 71 -165q94 110 182 167q87 56 180 56q117 0 176 -75q60 -77 60 -211v-543q0 -97 31 -128
q30 -30 102 -46v-41h-543v41q66 15 94 46q29 32 29 128v465q0 88 -30 129t-85 41q-53 0 -100 -39q-48 -41 -92 -90v-506q0 -97 28 -128t95 -46v-41h-533v41q66 15 94 46q29 32 29 128v465q0 88 -30 129t-85 41q-53 0 -100 -39q-48 -41 -92 -90z" />
    <glyph glyph-name="n" unicode="n" horiz-adv-x="1239" 
d="M461 721v-506q0 -96 32 -128q31 -31 101 -46v-41h-553v41q70 15 101 46q32 32 32 128v635h-143v41l409 174v-264q99 122 196 183q95 60 193 60q122 0 184 -75t62 -211v-543q0 -96 32 -128q31 -31 101 -46v-41h-553v41q72 16 102 46q31 31 31 128v465q0 90 -32 129
q-33 41 -92 41q-58 0 -108 -39q-51 -40 -95 -90z" />
    <glyph glyph-name="o" unicode="o" horiz-adv-x="1175" 
d="M608 1044q231 0 358 -142q128 -143 128 -372q0 -118 -39 -220q-39 -101 -108 -175q-71 -75 -166 -115q-96 -40 -212 -40q-232 0 -359 142q-128 143 -128 372q0 118 39 220q39 103 107 175q71 75 166 115q96 40 214 40zM612 63q88 0 129 95q41 96 41 284q0 94 -12 185
q-12 92 -39 167q-27 74 -68 120q-42 47 -100 47q-88 0 -129 -95q-41 -96 -41 -284q0 -94 12 -185q12 -92 39 -167q26 -73 69 -120q42 -47 99 -47z" />
    <glyph glyph-name="p" unicode="p" horiz-adv-x="1204" 
d="M430 1065v-238q97 119 181 167q86 50 177 50q147 0 238 -118q92 -119 92 -332q0 -142 -43 -255q-44 -115 -117 -194q-72 -78 -171 -122q-96 -43 -205 -43q-31 0 -68 5q-24 3 -63 13v-90q0 -96 41 -129q40 -33 133 -45v-41h-594v41q70 15 101 46q32 32 32 128v942h-144v41
zM627 850q-51 0 -95 -29q-40 -26 -81 -80v-417q0 -127 44 -194t111 -67q51 0 91 34q42 36 68 91q27 56 42 133q14 70 14 156q0 185 -48 279t-146 94z" />
    <glyph glyph-name="q" unicode="q" horiz-adv-x="1189" 
d="M1169 -266v-41h-594v41q94 12 134 45q41 33 41 129v264q-88 -105 -169 -148q-82 -44 -169 -44q-147 0 -238 118q-92 119 -92 332q0 142 43 255q44 115 117 194q72 78 171 122q96 43 205 43q82 0 151 -24q66 -23 124 -70l102 94h41v-1136q0 -96 32 -128q31 -31 101 -46z
M573 174q51 0 95 29q42 27 82 80v417q0 127 -44 194t-112 67q-51 0 -91 -34q-42 -36 -68 -91q-27 -56 -42 -133q-14 -70 -14 -156q0 -185 48 -279t146 -94z" />
    <glyph glyph-name="r" unicode="r" horiz-adv-x="827" 
d="M776 758q-111 0 -180 -12q-70 -12 -135 -74v-457q0 -96 41 -129q40 -33 133 -45v-41h-594v41q70 15 101 46q32 32 32 128v635h-143v41l409 174v-330q77 175 163 242t163 67h20v-286h-10z" />
    <glyph glyph-name="s" unicode="s" horiz-adv-x="907" 
d="M485 63q70 0 106 36t36 94q0 87 -84 130q-88 46 -185 89q-101 45 -184 115q-84 71 -84 210q0 148 106 228q104 79 261 79q92 0 163 -17q79 -19 160 -56v-326h-43q-77 174 -160 244q-86 72 -167 72q-57 0 -88 -31t-31 -78q0 -82 84 -123q102 -49 183 -86q98 -44 183 -119
q84 -74 84 -217q0 -157 -110 -242t-277 -85q-94 0 -173 16q-80 16 -169 57v326h43q77 -173 167 -244q92 -72 179 -72z" />
    <glyph glyph-name="t" unicode="t" horiz-adv-x="768" 
d="M154 344v506h-144v31l393 430h37v-287h287v-174h-287v-455q0 -92 38 -150q38 -57 114 -57q50 0 81 27q32 28 50 84l43 -12q-30 -149 -107 -229q-75 -78 -200 -78q-154 0 -230 101q-75 100 -75 263z" />
    <glyph glyph-name="u" unicode="u" horiz-adv-x="1198" 
d="M1178 133l-410 -174v260q-113 -113 -206 -177q-90 -62 -193 -62q-106 0 -160 75q-55 76 -55 211v584h-144v41l430 174v-721q0 -78 28 -120q27 -40 79 -40q51 0 97 27q48 28 104 72v567h-144v41l430 174v-891h144v-41z" />
    <glyph glyph-name="v" unicode="v" horiz-adv-x="1105" 
d="M844 637l-264 -657h-48l-286 702q-63 154 -110 214q-47 61 -105 87v41h553v-41q-64 -8 -85 -68q-21 -61 17 -165l141 -375l119 317q56 150 21 216q-35 67 -99 75v41h408v-41q-35 -14 -62 -33q-32 -23 -62 -58q-35 -41 -67 -99q-31 -55 -71 -156z" />
    <glyph glyph-name="w" unicode="w" horiz-adv-x="1519" 
d="M1006 -20l-248 673l-244 -673h-43l-289 778q-39 107 -69 156q-28 46 -82 69v41h487v-41q-48 -7 -68 -67t17 -166l119 -351l127 377l-2 6q-39 105 -71 146q-31 40 -71 55v41h496v-41q-55 -7 -79 -65q-24 -57 15 -168l119 -353l121 338q47 137 22 186q-26 50 -102 62v41
h359v-41q-60 -22 -105 -83q-47 -64 -96 -191l-270 -729h-43z" />
    <glyph glyph-name="x" unicode="x" horiz-adv-x="1073" 
d="M250 233l160 246l-187 289q-57 88 -105 141t-98 74v41h510v-41q-53 -15 -69 -58q-17 -44 22 -104l109 -166l104 166q39 60 21 104q-18 43 -76 58v41h363v-41q-71 -29 -116 -63q-51 -39 -112 -132l-135 -208l209 -324q56 -88 105 -142q47 -51 98 -73v-41h-512v41
q55 15 70 58q15 45 -23 104l-129 200l-129 -200q-39 -61 -20 -104t75 -58v-41h-365v41q72 29 120 63q53 38 110 129z" />
    <glyph glyph-name="y" unicode="y" horiz-adv-x="1105" 
d="M580 -25q-57 -140 -149 -222q-91 -81 -202 -81q-39 0 -69 6q-14 3 -58 15v254q43 -18 81 -26q41 -9 83 -9q74 0 141 22q68 22 109 86l-270 662q-63 154 -110 214q-47 61 -105 87v41h553v-41q-64 -8 -85 -68q-21 -61 17 -165l141 -375l119 317q56 150 21 216
q-35 67 -99 75v41h408v-41q-31 -13 -62 -34q-30 -21 -62 -59q-34 -40 -67 -98q-31 -53 -71 -155z" />
    <glyph glyph-name="z" unicode="z" horiz-adv-x="960" 
d="M61 0v41l498 901h-84q-150 0 -226 -76q-77 -77 -122 -272h-45v430h817v-41l-498 -901h105q150 0 226 76q77 77 122 272h45v-430h-838z" />
    <glyph glyph-name="braceleft" unicode="{" horiz-adv-x="690" 
d="M649 -143v-82h-96q-173 0 -250 73q-78 73 -78 234v379q0 71 -29 101q-30 32 -94 32h-45v82h45q64 0 94 32q29 30 29 101v379q0 160 78 233q79 74 250 74h96v-82h-45q-63 0 -93 -30t-30 -93v-420q0 -100 -52 -156q-51 -56 -169 -77q117 -21 169 -79t52 -159v-419
q0 -64 30 -94q29 -29 93 -29h45z" />
    <glyph glyph-name="bar" unicode="|" horiz-adv-x="501" 
d="M297 1536v-1843h-92v1843h92z" />
    <glyph glyph-name="braceright" unicode="}" horiz-adv-x="690" 
d="M465 82q0 -161 -78 -234q-77 -73 -250 -73h-96v82h45q64 0 93 29q30 30 30 94v419q0 101 52 159t169 79q-118 21 -169 77q-52 56 -52 156v420q0 63 -30 93t-93 30h-45v82h96q171 0 250 -74q78 -73 78 -233v-379q0 -69 30 -101t93 -32h45v-82h-45q-63 0 -93 -32t-30 -101
v-379z" />
    <glyph glyph-name="asciitilde" unicode="~" horiz-adv-x="1003" 
d="M688 594q50 0 78 33q29 34 29 110v11h86v-11q0 -114 -47 -170q-46 -55 -142 -55q-65 0 -115 26q-52 27 -93 56q-52 37 -82 56q-41 26 -87 26q-49 0 -77 -33q-29 -34 -29 -111v-10h-86v10q0 114 47 170t141 56q66 0 116 -26q49 -25 92 -56q52 -37 82 -56q41 -26 87 -26z
" />
    <glyph glyph-name="nbspace" unicode="&#xa0;" horiz-adv-x="409" 
 />
    <glyph glyph-name="exclamdown" unicode="&#xa1;" horiz-adv-x="577" 
d="M289 1044q82 0 134 -52t52 -132t-52 -132t-134 -52t-134 52q-53 53 -53 132t53 132q52 52 134 52zM264 524h49l144 -831h-336z" />
    <glyph glyph-name="cent" unicode="&#xa2;" horiz-adv-x="1001" 
d="M606 1229v-185h9h10q160 0 230 -64q71 -65 71 -151q0 -37 -20 -74t-50 -67h-41q-53 111 -105 165q-54 55 -104 73v-703h7h8q118 0 183 80t83 186h43q0 -183 -83 -322q-82 -137 -241 -175v-197h-92v185h-6h-6q-107 0 -184 35t-131 100q-50 60 -78 150q-27 87 -27 190
q0 99 29 195q29 94 84 174q55 78 136 134q80 55 183 76v195h92zM313 627q0 -136 51 -244q49 -103 150 -141v694q-107 -8 -154 -100t-47 -209z" />
    <glyph glyph-name="sterling" unicode="&#xa3;" horiz-adv-x="987" 
d="M43 686h143q-40 61 -69 127q-31 70 -31 150q0 98 43 169q43 72 112 121q70 51 157 74q92 25 182 25q179 0 268 -66q88 -66 88 -153q0 -42 -17 -77q-18 -38 -49 -69h-41q-84 149 -165 207q-83 59 -170 59q-74 0 -117 -40t-43 -109q0 -50 22 -100q21 -47 55 -104
q42 -70 65 -106q34 -53 59 -108h266v-82h-240q1 -4 2 -11.5t1 -11.5q1 -8 1 -24q0 -63 -54 -132t-165 -159h600v-266h-905v41q148 149 214 237q64 85 64 144q0 46 -22 90q-25 49 -55 92h-199v82z" />
    <glyph glyph-name="currency" unicode="&#xa4;" horiz-adv-x="1003" 
d="M244 956l94 -94q33 22 75 36q40 13 89 13t89 -13q42 -14 75 -36l94 94l63 -63l-94 -94q23 -33 36 -75q13 -40 13 -89t-13 -89q-13 -42 -36 -75l94 -94l-63 -64l-94 95q-33 -22 -75 -36q-44 -14 -89 -14t-89 14q-42 14 -75 36l-94 -95l-64 64l94 94q-21 30 -35 75
q-14 44 -14 89t14 89q14 45 35 75l-94 94zM502 829q-82 0 -136 -55q-55 -57 -55 -139t55 -139q54 -56 136 -56t136 56t54 139t-54 139q-54 55 -136 55z" />
    <glyph glyph-name="yen" unicode="&#xa5;" horiz-adv-x="1228" 
d="M233 440h232v140l-70 147h-264v82h225l-86 180q-73 155 -126 214t-119 87v41h589v-41q-63 -8 -92 -68q-28 -59 25 -165l164 -328l159 324q53 110 18 166t-124 71v41h440v-41q-97 -38 -147 -101q-54 -68 -115 -192l-92 -188h246v-82h-287l-47 -96v-191h231v-82h-231v-143
q0 -97 36 -127q37 -31 117 -47v-41h-604v41q81 16 118 47q36 30 36 127v143h-232v82z" />
    <glyph glyph-name="brokenbar" unicode="&#xa6;" horiz-adv-x="501" 
d="M297 1536v-717h-92v717h92zM297 410v-717h-92v717h92z" />
    <glyph glyph-name="section" unicode="&#xa7;" horiz-adv-x="1085" 
d="M963 10q0 -148 -117 -243q-118 -95 -314 -95q-120 0 -213 31q-84 28 -159 72v321h45q23 -90 62 -151q43 -66 90 -105q48 -39 106 -61q55 -21 108 -21q74 0 121 41t47 99q0 92 -103 135q-104 43 -225 90q-122 47 -226 125q-103 78 -103 237q0 98 45 173t127 114
q-57 39 -94 98t-37 144q0 148 117 243q118 95 313 95q120 0 213 -31q86 -29 160 -72v-321h-45q-22 88 -63 151q-43 66 -90 105q-48 40 -105 61q-55 21 -109 21q-74 0 -121 -41t-47 -99q0 -91 104 -135q104 -43 225 -90q120 -46 225 -125q104 -78 104 -237q0 -96 -46 -173
q-45 -75 -127 -114q58 -41 95 -99t37 -143zM297 600q0 -59 39 -100q41 -42 98 -71q55 -28 134 -56q67 -24 145 -58q33 15 54 45t21 64q0 62 -38 101q-39 40 -100 71q-63 32 -135 56q-59 20 -144 57q-33 -15 -54 -45q-20 -29 -20 -64z" />
    <glyph glyph-name="dieresis" unicode="&#xa8;" horiz-adv-x="1024" 
d="M326 1462q60 0 97 -39q38 -40 38 -92t-38 -92q-37 -39 -97 -39t-98 39q-38 40 -38 92t38 92q37 39 98 39zM698 1462q60 0 98 -39q38 -40 38 -92t-38 -92q-38 -39 -98 -39t-97 39q-38 40 -38 92t38 92q37 39 97 39z" />
    <glyph glyph-name="copyright" unicode="&#xa9;" horiz-adv-x="1683" 
d="M842 1352q144 0 274 -52q127 -51 218 -142q93 -93 143 -218q51 -128 51 -274q0 -148 -51 -275q-50 -125 -143 -218q-91 -91 -218 -142q-128 -51 -274 -51q-148 0 -275 51t-218 142t-142 218t-51 275q0 146 51 274q51 127 142 218t218 142q130 52 275 52zM842 1255
q-127 0 -236 -44q-110 -44 -186 -122q-79 -80 -122 -188q-44 -109 -44 -235q0 -127 44 -236q43 -106 122 -187q78 -79 186 -123q109 -44 236 -44q126 0 235 44q110 44 187 123t121 187q44 109 44 236q0 126 -44 235q-44 110 -121 188q-76 77 -187 122q-109 44 -235 44z
M846 961q-80 0 -124 -64t-44 -170q0 -135 72 -197q71 -61 155 -61q71 0 133 38q61 37 76 126h47q-5 -71 -26 -129q-23 -63 -63 -109q-42 -48 -98 -74q-61 -28 -134 -28q-150 0 -250 94q-101 95 -101 252q0 96 32 174q30 73 85 125q52 49 124 75q69 25 147 25q73 0 134 -17
q73 -20 117 -38v-223h-43q-45 108 -107 153q-65 48 -132 48z" />
    <glyph glyph-name="ordfeminine" unicode="&#xaa;" horiz-adv-x="843" 
d="M274 1055q-39 -22 -75 -33q-41 -13 -80 -14q-27 72 16 137q43 66 109 115q62 46 121 66q58 20 114 20q105 0 153 -51q46 -49 46 -124v-344q0 -53 16 -75q17 -23 43 -23t43 14q20 17 31 33l27 -22q-39 -68 -84 -108q-44 -40 -117 -40q-55 0 -107 29q-50 28 -65 113
q-28 -71 -86 -109q-60 -39 -129 -39q-84 0 -131 39t-47 102q0 48 26 86q27 39 111 84l237 125v78q0 59 -17 89q-18 32 -64 32q-48 0 -82 -49q-35 -51 -9 -131zM276 807q0 -26 17 -45t47 -19q46 0 76 39t30 103v69l-43 -20q-68 -32 -98 -61q-29 -27 -29 -66zM123 410h627v-82
h-627v82z" />
    <glyph glyph-name="guillemotleft" unicode="&#xab;" horiz-adv-x="1105" 
d="M102 672l404 352h67l-208 -389l208 -389h-67l-404 352v74zM532 672l404 352h68l-209 -389l209 -389h-68l-404 352v74z" />
    <glyph glyph-name="logicalnot" unicode="&#xac;" horiz-adv-x="1003" 
d="M123 676h758v-430h-86v348h-672v82z" />
    <glyph glyph-name="registered" unicode="&#xae;" horiz-adv-x="1198" 
d="M600 1352q103 0 192 -36t152 -99q62 -62 99 -153q36 -88 36 -192t-36 -192t-99 -153q-62 -63 -152 -100q-89 -36 -192 -36q-104 0 -192 36q-89 36 -153 100t-100 153q-36 88 -36 192t36 192q37 92 100 153q65 63 153 99q89 36 192 36zM600 1286q-178 0 -295 -118
t-117 -296q0 -180 117 -298q116 -117 295 -117q180 0 294 117q116 119 116 298q0 177 -116 296q-115 118 -294 118zM332 1092v32h262q119 0 181 -31q63 -31 63 -89q0 -56 -47 -89q-45 -32 -117 -43q26 -1 45 -11q19 -9 35 -36l75 -116q26 -38 31 -43q12 -14 27 -15v-33h-187
l-106 191q-7 18 -16 28q-8 9 -23 9h-8v-127q0 -38 12 -50t45 -18v-33h-272v33q31 6 44 18t13 50v309q0 37 -13 47q-14 11 -44 17zM575 1069h-28v-168h41q34 0 60 26t26 64q0 25 -19 52q-18 26 -80 26z" />
    <glyph glyph-name="macron" unicode="&#xaf;" horiz-adv-x="1024" 
d="M737 1427v-192h-450v192h450z" />
    <glyph glyph-name="degree" unicode="&#xb0;" horiz-adv-x="798" 
d="M399 1352q119 0 198 -79t79 -198q0 -118 -79 -197t-198 -79q-118 0 -197 79t-79 197q0 119 79 198t197 79zM399 1270q-82 0 -136 -56t-54 -139t54 -139q54 -55 136 -55q83 0 137 55q54 56 54 139t-54 139t-137 56z" />
    <glyph glyph-name="plusminus" unicode="&#xb1;" horiz-adv-x="1003" 
d="M123 676h336v348h86v-348h336v-82h-336v-348h-86v348h-336v82zM123 82h758v-82h-758v82z" />
    <glyph glyph-name="acute" unicode="&#xb4;" horiz-adv-x="1024" 
d="M532 1147h-61l123 369h246z" />
    <glyph glyph-name="paragraph" unicode="&#xb6;" horiz-adv-x="1243" 
d="M741 1331v-1638h-286v41q102 15 148 46t46 128v624h-20q-103 0 -198 24q-96 24 -168 74q-74 51 -117 128q-44 79 -44 182q0 190 129 291q128 100 385 100h125zM895 1331h246v-41q-81 -16 -118 -47q-36 -30 -36 -127v-1126q0 -76 11 -117q12 -46 34 -72t61 -42
q34 -14 89 -25v-41h-287v1638z" />
    <glyph glyph-name="periodcentered" unicode="&#xb7;" horiz-adv-x="577" 
d="M289 457q-82 0 -134 52q-53 53 -53 132t53 132q52 52 134 52t134 -52t52 -132t-52 -132t-134 -52z" />
    <glyph glyph-name="cedilla" unicode="&#xb8;" horiz-adv-x="1024" 
d="M594 0q-34 -27 -51 -48q-17 -22 -17 -36q0 -15 22 -34q8 -7 24 -19.5t23 -18.5q28 -23 47 -46q22 -27 22 -58q0 -56 -67 -114q-65 -56 -179 -56q-64 0 -110 24t-46 70q0 26 12 44t27 30h29q30 -51 61 -79t68 -28q18 0 31 10q12 9 12 25q0 20 -21 41q-28 28 -44 42t-44 44
q-20 21 -20 43q0 34 37 68q12 11 46 43t56 53h82z" />
    <glyph glyph-name="ordmasculine" unicode="&#xba;" horiz-adv-x="913" 
d="M471 1346q170 0 265 -101t95 -260q0 -165 -108 -275t-279 -110q-173 0 -267 100q-95 101 -95 261q0 165 108 275t281 110zM473 680q55 0 82 60t27 184q0 46 -9 120q-7 62 -24 111q-17 51 -43 80q-28 31 -66 31q-56 0 -83 -61q-27 -60 -27 -183q0 -55 8 -121
q7 -58 26 -110t44 -80q28 -31 65 -31zM143 410h627v-82h-627v82z" />
    <glyph glyph-name="guillemotright" unicode="&#xbb;" horiz-adv-x="1105" 
d="M573 598l-403 -352h-68l209 389l-209 389h68l403 -352v-74zM1004 598l-404 -352h-68l209 389l-209 389h68l404 -352v-74z" />
    <glyph glyph-name="questiondown" unicode="&#xbf;" horiz-adv-x="909" 
d="M492 1044q75 0 124 -49q50 -50 50 -125t-50 -125q-49 -49 -124 -49q-77 0 -126 49q-51 51 -51 125t51 125q49 49 126 49zM385 -225q95 0 183 54q87 53 177 196h41q28 -28 45 -64t17 -74q0 -86 -98 -150q-100 -65 -265 -65q-101 0 -182 29t-133 78q-56 52 -81 113
q-28 67 -28 135q0 109 66 176q70 71 142 118q104 67 143 93q65 43 65 102q0 5 -2 15q-1 7 -6 12l39 39q55 -46 103 -97q42 -45 42 -123q0 -88 -65 -147q-63 -57 -143 -109q-83 -53 -142 -98q-65 -49 -65 -114q0 -59 42 -89t105 -30z" />
    <glyph glyph-name="Agrave" unicode="&#xc0;" horiz-adv-x="1380" 
d="M416 41v-41h-416v41q90 33 141 99q53 68 103 194l422 1038h47l422 -1030q64 -157 109 -214q47 -60 106 -87v-41h-559v41q63 7 87 68q23 59 -20 165l-14 37h-516l-13 -32q-44 -108 -13 -166q30 -57 114 -72zM397 485h377l-188 480zM934 1475v-41l-492 41v204z" />
    <glyph glyph-name="Aacute" unicode="&#xc1;" horiz-adv-x="1380" 
d="M416 41v-41h-416v41q90 33 141 99q53 68 103 194l422 1038h47l422 -1030q64 -157 109 -214q47 -60 106 -87v-41h-559v41q63 7 87 68q23 59 -20 165l-14 37h-516l-13 -32q-44 -108 -13 -166q30 -57 114 -72zM397 485h377l-188 480zM444 1475l492 204v-204l-492 -41v41z
" />
    <glyph glyph-name="Acircumflex" unicode="&#xc2;" horiz-adv-x="1380" 
d="M416 41v-41h-416v41q90 33 141 99q53 68 103 194l422 1038h47l422 -1030q64 -157 109 -214q47 -60 106 -87v-41h-559v41q63 7 87 68q23 59 -20 165l-14 37h-516l-13 -32q-44 -108 -13 -166q30 -57 114 -72zM397 485h377l-188 480zM383 1434v41l266 204h82l266 -204v-41
l-307 88z" />
    <glyph glyph-name="Atilde" unicode="&#xc3;" horiz-adv-x="1380" 
d="M416 41v-41h-416v41q90 33 141 99q53 68 103 194l422 1038h47l422 -1030q64 -157 109 -214q47 -60 106 -87v-41h-559v41q63 7 87 68q23 59 -20 165l-14 37h-516l-13 -32q-44 -108 -13 -166q30 -57 114 -72zM397 485h377l-188 480zM981 1669q-17 -118 -53 -176
q-37 -59 -119 -59q-39 0 -75 12q-27 9 -67 28q-27 13 -64 27q-31 12 -62 12q-38 0 -58 -17q-21 -18 -28 -52h-56q21 114 56 176q34 59 116 59q39 0 75 -12q31 -10 68 -28q32 -15 63 -27q34 -13 63 -13q36 0 57 18q22 19 29 52h55z" />
    <glyph glyph-name="Adieresis" unicode="&#xc4;" horiz-adv-x="1380" 
d="M416 41v-41h-416v41q90 33 141 99q53 68 103 194l422 1038h47l422 -1030q64 -157 109 -214q47 -60 106 -87v-41h-559v41q63 7 87 68q23 59 -20 165l-14 37h-516l-13 -32q-44 -108 -13 -166q30 -57 114 -72zM397 485h377l-188 480zM504 1688q60 0 97 -39q38 -40 38 -93
q0 -52 -38 -92q-37 -39 -97 -39t-97 39q-38 40 -38 92q0 53 38 93q37 39 97 39zM877 1688q59 0 97 -39q38 -40 38 -93q0 -52 -38 -92q-38 -39 -97 -39q-61 0 -98 39q-38 40 -38 92q0 53 38 93q37 39 98 39z" />
    <glyph glyph-name="Aring" unicode="&#xc5;" horiz-adv-x="1380" 
d="M416 41v-41h-416v41q90 33 141 99q53 68 103 194l422 1038h47l422 -1030q64 -157 109 -214q47 -60 106 -87v-41h-559v41q63 7 87 68q23 59 -20 165l-14 37h-516l-13 -32q-44 -108 -13 -166q30 -57 114 -72zM397 485h377l-188 480zM690 1413q-107 0 -180 37
q-74 38 -74 106q0 69 74 107q73 37 180 37t180 -37q74 -38 74 -107q0 -68 -74 -106q-73 -37 -180 -37zM690 1622q-38 0 -58 -16q-22 -17 -22 -50q0 -32 22 -49q20 -16 58 -16q39 0 59 16q21 17 21 49q0 34 -21 50q-20 16 -59 16z" />
    <glyph glyph-name="AE" unicode="&#xc6;" horiz-adv-x="2156" 
d="M887 1290v41h1147v-471h-45q-50 222 -148 305q-99 84 -282 84h-222v-532h43q127 0 199 83q71 81 98 224h45v-696h-45q-27 143 -98 224q-72 83 -199 83h-43v-553h222q183 0 282 84q98 83 148 305h45v-471h-1147v41q81 16 118 47q35 29 35 127v117h-589l-39 -53
q-80 -112 -69 -167q12 -56 91 -71v-41h-434v41q101 33 173 99t167 194l668 907q-17 19 -50 31q-29 10 -71 18zM1040 1116v20q0 7 -2 17l-463 -647h465v610z" />
    <glyph glyph-name="Ccedilla" unicode="&#xc7;" horiz-adv-x="1355" 
d="M705 1257q-156 0 -255 -130q-100 -132 -100 -347q0 -142 40 -244q41 -105 106 -170q69 -69 149 -99q83 -31 170 -31q143 0 259 87q116 88 149 283h51q-6 -115 -41 -225t-96 -193q-60 -82 -151 -139q-87 -55 -206 -67q-25 -22 -36 -37t-11 -29q0 -15 22 -34q8 -7 24 -19.5
t23 -18.5q28 -23 47 -46q21 -26 21 -58q0 -57 -66 -114q-65 -56 -179 -56q-63 0 -110 24q-46 24 -46 70q0 26 12 44t27 30h29q30 -51 61 -79t68 -28q18 0 31 10q12 9 12 25q0 20 -21 41q-28 28 -44 42t-44 44q-20 21 -20 43q0 32 30 62q37 37 86 82q-129 5 -236 53
q-111 50 -189 134q-79 85 -124 205t-45 267q0 156 55 290q54 133 145 225t213 145q123 53 257 53q120 0 236 -31q103 -27 206 -70v-411h-45q-101 228 -221 322q-122 95 -243 95z" />
    <glyph glyph-name="Egrave" unicode="&#xc8;" horiz-adv-x="1320" 
d="M51 1290v41h1147v-471h-45q-50 223 -147 305q-99 84 -283 84h-221v-532h43q126 0 198 83q72 82 99 224h45v-696h-45q-27 142 -99 224q-72 83 -198 83h-43v-553h221q184 0 283 84q97 82 147 305h45v-471h-1147v41q81 16 118 47q36 30 36 127v901q0 97 -36 127
q-37 31 -118 47zM967 1475v-41l-492 41v204z" />
    <glyph glyph-name="Eacute" unicode="&#xc9;" horiz-adv-x="1320" 
d="M51 1290v41h1147v-471h-45q-50 223 -147 305q-99 84 -283 84h-221v-532h43q126 0 198 83q72 82 99 224h45v-696h-45q-27 142 -99 224q-72 83 -198 83h-43v-553h221q184 0 283 84q97 82 147 305h45v-471h-1147v41q81 16 118 47q36 30 36 127v901q0 97 -36 127
q-37 31 -118 47zM477 1475l492 204v-204l-492 -41v41z" />
    <glyph glyph-name="Ecircumflex" unicode="&#xca;" horiz-adv-x="1320" 
d="M51 1290v41h1147v-471h-45q-50 223 -147 305q-99 84 -283 84h-221v-532h43q126 0 198 83q72 82 99 224h45v-696h-45q-27 142 -99 224q-72 83 -198 83h-43v-553h221q184 0 283 84q97 82 147 305h45v-471h-1147v41q81 16 118 47q36 30 36 127v901q0 97 -36 127
q-37 31 -118 47zM416 1434v41l266 204h82l266 -204v-41l-307 88z" />
    <glyph glyph-name="Edieresis" unicode="&#xcb;" horiz-adv-x="1320" 
d="M51 1290v41h1147v-471h-45q-50 223 -147 305q-99 84 -283 84h-221v-532h43q126 0 198 83q72 82 99 224h45v-696h-45q-27 142 -99 224q-72 83 -198 83h-43v-553h221q184 0 283 84q97 82 147 305h45v-471h-1147v41q81 16 118 47q36 30 36 127v901q0 97 -36 127
q-37 31 -118 47zM537 1688q59 0 97 -39q38 -40 38 -93q0 -52 -38 -92q-38 -39 -97 -39q-61 0 -98 39q-38 40 -38 92q0 53 38 93q37 39 98 39zM909 1688q60 0 98 -39q37 -38 37 -93q0 -54 -37 -92q-38 -39 -98 -39q-59 0 -97 39q-38 40 -38 92q0 53 38 93q38 39 97 39z" />
    <glyph glyph-name="Igrave" unicode="&#xcc;" horiz-adv-x="706" 
d="M51 1290v41h604v-41q-80 -16 -117 -47q-36 -30 -36 -127v-901q0 -97 36 -127q37 -31 117 -47v-41h-604v41q81 16 118 47q36 30 36 127v901q0 97 -36 127q-37 31 -118 47zM598 1475v-41l-492 41v204z" />
    <glyph glyph-name="Iacute" unicode="&#xcd;" horiz-adv-x="706" 
d="M51 1290v41h604v-41q-80 -16 -117 -47q-36 -30 -36 -127v-901q0 -97 36 -127q37 -31 117 -47v-41h-604v41q81 16 118 47q36 30 36 127v901q0 97 -36 127q-37 31 -118 47zM109 1475l491 204v-204l-491 -41v41z" />
    <glyph glyph-name="Icircumflex" unicode="&#xce;" horiz-adv-x="706" 
d="M51 1290v41h604v-41q-80 -16 -117 -47q-36 -30 -36 -127v-901q0 -97 36 -127q37 -31 117 -47v-41h-604v41q81 16 118 47q36 30 36 127v901q0 97 -36 127q-37 31 -118 47zM47 1434v41l266 204h82l267 -204v-41l-308 88z" />
    <glyph glyph-name="Idieresis" unicode="&#xcf;" horiz-adv-x="706" 
d="M51 1290v41h604v-41q-80 -16 -117 -47q-36 -30 -36 -127v-901q0 -97 36 -127q37 -31 117 -47v-41h-604v41q81 16 118 47q36 30 36 127v901q0 97 -36 127q-37 31 -118 47zM168 1688q60 0 97 -39q38 -40 38 -93q0 -52 -38 -92q-38 -39 -97 -39q-60 0 -97 39q-38 40 -38 92
q0 53 38 93q37 39 97 39zM541 1688q59 0 97 -39q38 -40 38 -93q0 -52 -38 -92q-38 -39 -97 -39q-61 0 -98 39q-37 38 -37 92q0 55 37 93q37 39 98 39z" />
    <glyph glyph-name="Eth" unicode="&#xd0;" horiz-adv-x="1495" 
d="M51 707h154v409q0 97 -36 127q-37 31 -118 47v41h586q356 0 556 -164t200 -456q0 -159 -62 -292q-62 -132 -164 -224q-105 -94 -239 -144q-136 -51 -285 -51h-592v41q81 16 118 47q36 30 36 127v410h-154v82zM788 625h-286v-543h153q94 0 170 49t128 131q53 82 81 192
q29 111 29 226q0 120 -27 225q-27 104 -82 180q-56 77 -145 120q-91 44 -215 44h-92v-542h286v-82z" />
    <glyph glyph-name="Ntilde" unicode="&#xd1;" horiz-adv-x="1433" 
d="M1229 -61h-41l-895 1110v-752q0 -76 11 -117q12 -44 34 -71t60 -42q40 -16 89 -26v-41h-477v41q49 10 89 26q39 16 61 42q22 27 34 71q11 41 11 117v858q-51 59 -97 92q-50 36 -108 43v41h420l721 -876v579q0 72 -12 117q-13 48 -33 72q-22 26 -61 42q-34 14 -89 25v41
h477v-41q-55 -11 -89 -25q-38 -15 -60 -42q-22 -26 -34 -72q-11 -41 -11 -117v-1095zM1008 1669q-16 -116 -54 -176q-37 -59 -118 -59q-39 0 -75 12q-31 10 -68 28q-31 15 -63 27t-63 12q-37 0 -57 -17q-22 -19 -29 -52h-55q21 117 55 176t117 59q39 0 75 -12q27 -9 67 -28
q27 -13 64 -27q34 -13 62 -13q37 0 58 18t28 52h56z" />
    <glyph glyph-name="Ograve" unicode="&#xd2;" horiz-adv-x="1579" 
d="M815 1352q145 0 265 -43q122 -44 209 -126q87 -83 137 -209q51 -130 51 -290q0 -165 -56 -297t-151 -221q-96 -90 -227 -138t-279 -48q-145 0 -265 43q-124 44 -209 125q-87 83 -137 209q-51 130 -51 290q0 165 56 297t151 221q97 91 227 139t279 48zM764 1262
q-166 0 -249 -134t-83 -409q0 -111 23 -229q22 -115 69 -208q45 -91 120 -153q71 -59 171 -59q167 0 249 133q83 134 83 409q0 111 -23 229q-23 116 -69 209q-45 89 -120 152q-72 60 -171 60zM1032 1475v-41l-491 41v204z" />
    <glyph glyph-name="Oacute" unicode="&#xd3;" horiz-adv-x="1579" 
d="M815 1352q145 0 265 -43q122 -44 209 -126q87 -83 137 -209q51 -130 51 -290q0 -165 -56 -297t-151 -221q-96 -90 -227 -138t-279 -48q-145 0 -265 43q-124 44 -209 125q-87 83 -137 209q-51 130 -51 290q0 165 56 297t151 221q97 91 227 139t279 48zM764 1262
q-166 0 -249 -134t-83 -409q0 -111 23 -229q22 -115 69 -208q45 -91 120 -153q71 -59 171 -59q167 0 249 133q83 134 83 409q0 111 -23 229q-23 116 -69 209q-45 89 -120 152q-72 60 -171 60zM545 1475l491 204v-204l-491 -41v41z" />
    <glyph glyph-name="Ocircumflex" unicode="&#xd4;" horiz-adv-x="1579" 
d="M815 1352q145 0 265 -43q122 -44 209 -126q87 -83 137 -209q51 -130 51 -290q0 -165 -56 -297t-151 -221q-96 -90 -227 -138t-279 -48q-145 0 -265 43q-124 44 -209 125q-87 83 -137 209q-51 130 -51 290q0 165 56 297t151 221q97 91 227 139t279 48zM764 1262
q-166 0 -249 -134t-83 -409q0 -111 23 -229q22 -115 69 -208q45 -91 120 -153q71 -59 171 -59q167 0 249 133q83 134 83 409q0 111 -23 229q-23 116 -69 209q-45 89 -120 152q-72 60 -171 60zM483 1434v41l267 204h81l267 -204v-41l-307 88z" />
    <glyph glyph-name="Otilde" unicode="&#xd5;" horiz-adv-x="1579" 
d="M815 1352q145 0 265 -43q122 -44 209 -126q87 -83 137 -209q51 -130 51 -290q0 -165 -56 -297t-151 -221q-96 -90 -227 -138t-279 -48q-145 0 -265 43q-124 44 -209 125q-87 83 -137 209q-51 130 -51 290q0 165 56 297t151 221q97 91 227 139t279 48zM764 1262
q-166 0 -249 -134t-83 -409q0 -111 23 -229q22 -115 69 -208q45 -91 120 -153q71 -59 171 -59q167 0 249 133q83 134 83 409q0 111 -23 229q-23 116 -69 209q-45 89 -120 152q-72 60 -171 60zM1081 1669q-17 -118 -53 -176q-37 -59 -119 -59q-38 0 -74 12q-31 10 -68 28
q-28 13 -64 27q-31 12 -62 12q-37 0 -57 -17q-22 -19 -29 -52h-55q21 117 55 176t117 59q38 0 74 -12q31 -10 68 -28q28 -13 64 -27q34 -13 62 -13q36 0 57 18q22 19 29 52h55z" />
    <glyph glyph-name="Odieresis" unicode="&#xd6;" horiz-adv-x="1579" 
d="M815 1352q145 0 265 -43q122 -44 209 -126q87 -83 137 -209q51 -130 51 -290q0 -165 -56 -297t-151 -221q-96 -90 -227 -138t-279 -48q-145 0 -265 43q-124 44 -209 125q-87 83 -137 209q-51 130 -51 290q0 165 56 297t151 221q97 91 227 139t279 48zM764 1262
q-166 0 -249 -134t-83 -409q0 -111 23 -229q22 -115 69 -208q45 -91 120 -153q71 -59 171 -59q167 0 249 133q83 134 83 409q0 111 -23 229q-23 116 -69 209q-45 89 -120 152q-72 60 -171 60zM604 1688q60 0 97 -39q38 -40 38 -93q0 -52 -38 -92q-37 -39 -97 -39t-97 39
q-38 40 -38 92q0 53 38 93q37 39 97 39zM977 1688q59 0 97 -39q38 -40 38 -93q0 -52 -38 -92q-38 -39 -97 -39t-97 39q-38 40 -38 92q0 53 38 93q38 39 97 39z" />
    <glyph glyph-name="multiply" unicode="&#xd7;" horiz-adv-x="1003" 
d="M244 956l258 -258l258 258l63 -63l-258 -258l258 -258l-63 -64l-258 258l-258 -258l-64 64l258 258l-258 258z" />
    <glyph glyph-name="Oslash" unicode="&#xd8;" horiz-adv-x="1579" 
d="M815 1352q128 0 242 -35q110 -34 198 -105l113 119h109l-164 -172q77 -83 121 -203q43 -117 43 -272q0 -165 -56 -297t-151 -221q-96 -90 -227 -138t-279 -48q-131 0 -243 34q-110 33 -199 105l-111 -119h-109l162 174q-75 81 -119 201q-43 117 -43 272q0 165 56 297
t151 221q97 91 227 139t279 48zM764 1262q-166 0 -249 -134t-83 -409q0 -82 12 -166q11 -80 35 -160l588 629q-44 103 -122 172q-77 68 -181 68zM1147 612q0 82 -12 167q-11 78 -37 161l-588 -629q45 -102 124 -173q75 -68 181 -68q167 0 249 133q83 134 83 409z" />
    <glyph glyph-name="Ugrave" unicode="&#xd9;" horiz-adv-x="1384" 
d="M918 1331h477v-41q-55 -11 -89 -25q-39 -16 -61 -42t-34 -72q-11 -41 -11 -117v-518q0 -259 -134 -398q-134 -138 -374 -138t-374 138q-134 139 -134 398v600q0 97 -36 127q-37 31 -117 47v41h604v-41q-81 -16 -118 -47q-36 -30 -36 -127v-600q0 -165 84 -251
q84 -85 232 -85q147 0 231 85q84 86 84 251v518q0 76 -11 117q-12 46 -34 72q-23 27 -60 42q-34 14 -89 25v41zM1026 1475v-41l-491 41v204z" />
    <glyph glyph-name="Uacute" unicode="&#xda;" horiz-adv-x="1384" 
d="M918 1331h477v-41q-55 -11 -89 -25q-39 -16 -61 -42t-34 -72q-11 -41 -11 -117v-518q0 -259 -134 -398q-134 -138 -374 -138t-374 138q-134 139 -134 398v600q0 97 -36 127q-37 31 -117 47v41h604v-41q-81 -16 -118 -47q-36 -30 -36 -127v-600q0 -165 84 -251
q84 -85 232 -85q147 0 231 85q84 86 84 251v518q0 76 -11 117q-12 46 -34 72q-23 27 -60 42q-34 14 -89 25v41zM537 1475l491 204v-204l-491 -41v41z" />
    <glyph glyph-name="Ucircumflex" unicode="&#xdb;" horiz-adv-x="1384" 
d="M918 1331h477v-41q-55 -11 -89 -25q-39 -16 -61 -42t-34 -72q-11 -41 -11 -117v-518q0 -259 -134 -398q-134 -138 -374 -138t-374 138q-134 139 -134 398v600q0 97 -36 127q-37 31 -117 47v41h604v-41q-81 -16 -118 -47q-36 -30 -36 -127v-600q0 -165 84 -251
q84 -85 232 -85q147 0 231 85q84 86 84 251v518q0 76 -11 117q-12 46 -34 72q-23 27 -60 42q-34 14 -89 25v41zM475 1434v41l266 204h82l267 -204v-41l-308 88z" />
    <glyph glyph-name="Udieresis" unicode="&#xdc;" horiz-adv-x="1384" 
d="M918 1331h477v-41q-55 -11 -89 -25q-39 -16 -61 -42t-34 -72q-11 -41 -11 -117v-518q0 -259 -134 -398q-134 -138 -374 -138t-374 138q-134 139 -134 398v600q0 97 -36 127q-37 31 -117 47v41h604v-41q-81 -16 -118 -47q-36 -30 -36 -127v-600q0 -165 84 -251
q84 -85 232 -85q147 0 231 85q84 86 84 251v518q0 76 -11 117q-12 46 -34 72q-23 27 -60 42q-34 14 -89 25v41zM596 1688q60 0 97 -39q38 -40 38 -93q0 -52 -38 -92q-37 -39 -97 -39t-97 39q-38 40 -38 92q0 53 38 93q37 39 97 39zM969 1688q59 0 97 -39q38 -40 38 -93
q0 -52 -38 -92q-38 -39 -97 -39q-61 0 -98 39q-37 38 -37 92q0 55 37 93q37 39 98 39z" />
    <glyph glyph-name="Yacute" unicode="&#xdd;" horiz-adv-x="1359" 
d="M997 0h-604v41q81 16 118 47q36 30 36 127v203l-271 571q-74 157 -125 214q-53 59 -120 87v41h590v-41q-65 -8 -92 -68t24 -165l240 -492l233 488q51 106 16 165q-34 57 -122 72v41h440v-41q-98 -38 -149 -102q-49 -62 -113 -191l-254 -524v-258q0 -97 36 -127
q37 -31 117 -47v-41zM532 1475l492 204v-204l-492 -41v41z" />
    <glyph glyph-name="Thorn" unicode="&#xde;" horiz-adv-x="1378" 
d="M51 1290v41h604v-41q-74 -15 -110 -41q-37 -27 -43 -102h155q309 0 464 -107t155 -309q0 -121 -52 -209q-51 -86 -140 -144q-87 -57 -201 -84q-118 -28 -238 -28h-143v-51q0 -97 36 -127q37 -31 117 -47v-41h-604v41q81 16 118 47q36 30 36 127v901q0 97 -36 127
q-37 31 -118 47zM614 1065h-112v-717h141q131 0 222 98t91 252q0 67 -13 131q-13 65 -51 118q-36 51 -105 85q-66 33 -173 33z" />
    <glyph glyph-name="germandbls" unicode="&#xdf;" horiz-adv-x="1378" 
d="M594 0h-553v41q70 15 101 46q32 32 32 128v635h-143v41l145 61q12 122 62 224q50 100 126 171q75 69 179 109q102 39 219 39q150 0 248 -76t98 -205q0 -72 -39 -115q-38 -42 -86 -78q-57 -42 -86 -68q-39 -35 -39 -83q0 -72 72 -121q112 -77 157 -107q88 -59 158 -133
q72 -77 72 -202q0 -156 -107 -242q-106 -85 -266 -85q-82 0 -148 13q-73 14 -147 50v326h43q63 -165 144 -236q81 -70 155 -70q61 0 94 36t33 94q0 76 -71 125q-91 62 -156 102q-82 50 -156 119q-71 67 -71 178q0 86 33 136q33 51 75 97q36 40 75 96q34 49 34 128
q0 104 -60 158t-145 54q-99 0 -157 -77t-58 -254v-840q0 -96 32 -128q31 -31 101 -46v-41z" />
    <glyph glyph-name="agrave" unicode="&#xe0;" horiz-adv-x="1054" 
d="M305 627q-44 -27 -95 -42q-55 -17 -104 -18q-19 52 -8 99t39 89q27 40 73 81q35 31 89 71q94 69 163 103t154 34q136 0 195 -71t59 -176v-492q0 -77 24 -109t62 -32q34 0 60 20q28 22 45 47l39 -32q-57 -95 -122 -152q-64 -57 -165 -57q-70 0 -134 46q-66 47 -73 183
q-34 -114 -122 -177q-86 -62 -195 -62t-168 56q-60 57 -60 146q0 69 41 130q41 60 170 128l312 162v105q0 87 -29 139q-29 51 -104 51q-39 0 -74 -18t-58 -54q-22 -33 -28 -85t14 -113zM311 270q0 -44 28 -75t77 -31q70 0 119 61t49 162v125l-76 -37q-108 -51 -154 -97
q-43 -43 -43 -108zM522 1147l-307 369h246l123 -369h-62z" />
    <glyph glyph-name="aacute" unicode="&#xe1;" horiz-adv-x="1054" 
d="M305 627q-44 -27 -95 -42q-55 -17 -104 -18q-19 52 -8 99t39 89q27 40 73 81q35 31 89 71q94 69 163 103t154 34q136 0 195 -71t59 -176v-492q0 -77 24 -109t62 -32q34 0 60 20q28 22 45 47l39 -32q-57 -95 -122 -152q-64 -57 -165 -57q-70 0 -134 46q-66 47 -73 183
q-34 -114 -122 -177q-86 -62 -195 -62t-168 56q-60 57 -60 146q0 69 41 130q41 60 170 128l312 162v105q0 87 -29 139q-29 51 -104 51q-39 0 -74 -18t-58 -54q-22 -33 -28 -85t14 -113zM311 270q0 -44 28 -75t77 -31q70 0 119 61t49 162v125l-76 -37q-108 -51 -154 -97
q-43 -43 -43 -108zM563 1147h-61l123 369h245z" />
    <glyph glyph-name="acircumflex" unicode="&#xe2;" horiz-adv-x="1054" 
d="M305 627q-44 -27 -95 -42q-55 -17 -104 -18q-19 52 -8 99t39 89q27 40 73 81q35 31 89 71q94 69 163 103t154 34q136 0 195 -71t59 -176v-492q0 -77 24 -109t62 -32q34 0 60 20q28 22 45 47l39 -32q-57 -95 -122 -152q-64 -57 -165 -57q-70 0 -134 46q-66 47 -73 183
q-34 -114 -122 -177q-86 -62 -195 -62t-168 56q-60 57 -60 146q0 69 41 130q41 60 170 128l312 162v105q0 87 -29 139q-29 51 -104 51q-39 0 -74 -18t-58 -54q-22 -33 -28 -85t14 -113zM311 270q0 -44 28 -75t77 -31q70 0 119 61t49 162v125l-76 -37q-108 -51 -154 -97
q-43 -43 -43 -108zM317 1147h-61l246 369h82l245 -369h-61l-225 178z" />
    <glyph glyph-name="atilde" unicode="&#xe3;" horiz-adv-x="1054" 
d="M305 627q-44 -27 -95 -42q-55 -17 -104 -18q-19 52 -8 99t39 89q27 40 73 81q35 31 89 71q94 69 163 103t154 34q136 0 195 -71t59 -176v-492q0 -77 24 -109t62 -32q34 0 60 20q28 22 45 47l39 -32q-57 -95 -122 -152q-64 -57 -165 -57q-70 0 -134 46q-66 47 -73 183
q-34 -114 -122 -177q-86 -62 -195 -62t-168 56q-60 57 -60 146q0 69 41 130q41 60 170 128l312 162v105q0 87 -29 139q-29 51 -104 51q-39 0 -74 -18t-58 -54q-22 -33 -28 -85t14 -113zM311 270q0 -44 28 -75t77 -31q70 0 119 61t49 162v125l-76 -37q-108 -51 -154 -97
q-43 -43 -43 -108zM834 1485q-21 -137 -56 -208q-34 -69 -117 -69q-36 0 -74 16q-40 17 -68 34q-35 22 -63 35q-34 16 -63 16q-36 0 -56 -23t-30 -67h-55q23 137 56 205q35 71 116 71q39 0 75 -15q32 -13 67 -35q32 -20 64 -35t62 -15q38 0 57 22q18 21 29 68h56z" />
    <glyph glyph-name="adieresis" unicode="&#xe4;" horiz-adv-x="1054" 
d="M305 627q-44 -27 -95 -42q-55 -17 -104 -18q-19 52 -8 99t39 89q27 40 73 81q35 31 89 71q94 69 163 103t154 34q136 0 195 -71t59 -176v-492q0 -77 24 -109t62 -32q34 0 60 20q28 22 45 47l39 -32q-57 -95 -122 -152q-64 -57 -165 -57q-70 0 -134 46q-66 47 -73 183
q-34 -114 -122 -177q-86 -62 -195 -62t-168 56q-60 57 -60 146q0 69 41 130q41 60 170 128l312 162v105q0 87 -29 139q-29 51 -104 51q-39 0 -74 -18t-58 -54q-22 -33 -28 -85t14 -113zM311 270q0 -44 28 -75t77 -31q70 0 119 61t49 162v125l-76 -37q-108 -51 -154 -97
q-43 -43 -43 -108zM356 1462q60 0 98 -39q38 -40 38 -92t-38 -92q-37 -39 -98 -39q-60 0 -97 39q-38 40 -38 92t38 92q38 39 97 39zM729 1462q59 0 97 -39q38 -40 38 -92t-38 -92q-38 -39 -97 -39t-97 39q-38 40 -38 92t38 92q38 39 97 39z" />
    <glyph glyph-name="aring" unicode="&#xe5;" horiz-adv-x="1054" 
d="M305 627q-44 -27 -95 -42q-55 -17 -104 -18q-19 52 -8 99t39 89q27 40 73 81q35 31 89 71q94 69 163 103t154 34q136 0 195 -71t59 -176v-492q0 -77 24 -109t62 -32q34 0 60 20q28 22 45 47l39 -32q-57 -95 -122 -152q-64 -57 -165 -57q-70 0 -134 46q-66 47 -73 183
q-34 -114 -122 -177q-86 -62 -195 -62t-168 56q-60 57 -60 146q0 69 41 130q41 60 170 128l312 162v105q0 87 -29 139q-29 51 -104 51q-39 0 -74 -18t-58 -54q-22 -33 -28 -85t14 -113zM311 270q0 -44 28 -75t77 -31q70 0 119 61t49 162v125l-76 -37q-108 -51 -154 -97
q-43 -43 -43 -108zM543 1167q-108 0 -181 43t-73 121t73 121t181 43q107 0 180 -43q74 -44 74 -121t-74 -121q-73 -43 -180 -43zM543 1417q-38 0 -59 -21t-21 -65q0 -43 21 -64q22 -22 59 -22q36 0 58 22t22 64q0 43 -22 65q-21 21 -58 21z" />
    <glyph glyph-name="ae" unicode="&#xe6;" horiz-adv-x="1585" 
d="M1503 707v-52h-631q-2 -16 -2 -25v-28q0 -167 75 -275t222 -108q65 0 115 24q49 24 85 61q35 36 58 86q23 48 33 99h43q0 -108 -28 -199q-29 -93 -84 -162q-54 -67 -139 -109q-79 -39 -187 -39q-172 0 -278 89q-105 89 -144 228q-17 -150 -115 -234q-98 -83 -227 -83
q-113 0 -175 56q-63 57 -63 146q0 69 41 130q41 60 170 128l312 162v105q0 87 -29 139q-29 51 -104 51q-39 0 -74 -18t-58 -54q-22 -33 -28 -85t14 -113q-44 -27 -95 -42q-55 -17 -104 -18q-19 52 -8 99t39 89q27 40 73 81q35 31 89 71q94 69 163 103t154 34q83 0 137 -27
q53 -26 81 -75q64 50 136 75q76 27 167 27q94 0 163 -27q68 -27 115 -75t67 -108q21 -62 21 -127zM1110 963q-91 0 -148 -66q-56 -65 -77 -160h299q32 0 48 14q15 13 15 50q0 56 -32 109t-105 53zM311 270q0 -44 28 -75t77 -31q70 0 119 61t49 162v125l-76 -37
q-108 -51 -154 -97q-43 -43 -43 -108z" />
    <glyph glyph-name="ccedilla" unicode="&#xe7;" horiz-adv-x="1001" 
d="M313 627q0 -172 77 -288t231 -116q118 0 183 80t83 186h43q0 -97 -24 -186q-25 -90 -70 -155q-47 -66 -116 -110t-159 -54q-26 -22 -36 -38q-11 -16 -11 -30q0 -15 22 -34q8 -7 24 -19.5t23 -18.5q28 -23 47 -46q21 -26 21 -58q0 -57 -66 -114q-65 -56 -179 -56
q-64 0 -110 24t-46 70q0 26 12 44t27 30h28q29 -49 62 -79q31 -28 67 -28q19 0 32 10q11 8 11 25q0 21 -20 41q-28 28 -44 42t-44 44q-21 22 -21 43q0 31 31 62q37 37 86 82q-98 4 -173 42q-75 37 -124 100q-51 65 -74 147q-24 85 -24 186q0 113 36 219q35 105 105 188
q69 82 171 132q103 50 231 50q160 0 230 -64q71 -65 71 -151q0 -37 -20 -74t-50 -67h-41q-73 150 -139 198q-68 50 -141 50q-117 0 -169 -93q-53 -94 -53 -216z" />
    <glyph glyph-name="egrave" unicode="&#xe8;" horiz-adv-x="1046" 
d="M965 707v-52h-631q-2 -16 -2 -25v-28q0 -167 75 -275t222 -108q65 0 114 24t85 61q37 38 59 86q23 48 33 99h43q0 -104 -29 -199q-28 -93 -84 -162q-55 -68 -138 -109q-79 -39 -188 -39q-112 0 -193 37q-82 37 -138 104q-57 67 -83 154q-28 92 -28 190q0 106 34 209
q34 105 98 186q63 81 161 133q96 51 223 51q95 0 164 -27q68 -27 115 -75q45 -46 66 -108q22 -64 22 -127zM571 963q-91 0 -148 -66q-56 -65 -77 -160h299q32 0 48 14t16 50q0 56 -32 109t-106 53zM551 1147l-307 369h245l123 -369h-61z" />
    <glyph glyph-name="eacute" unicode="&#xe9;" horiz-adv-x="1046" 
d="M965 707v-52h-631q-2 -16 -2 -25v-28q0 -167 75 -275t222 -108q65 0 114 24t85 61q37 38 59 86q23 48 33 99h43q0 -104 -29 -199q-28 -93 -84 -162q-55 -68 -138 -109q-79 -39 -188 -39q-112 0 -193 37q-82 37 -138 104q-57 67 -83 154q-28 92 -28 190q0 106 34 209
q34 105 98 186q63 81 161 133q96 51 223 51q95 0 164 -27q68 -27 115 -75q45 -46 66 -108q22 -64 22 -127zM571 963q-91 0 -148 -66q-56 -65 -77 -160h299q32 0 48 14t16 50q0 56 -32 109t-106 53zM592 1147h-62l123 369h246z" />
    <glyph glyph-name="ecircumflex" unicode="&#xea;" horiz-adv-x="1046" 
d="M965 707v-52h-631q-2 -16 -2 -25v-28q0 -167 75 -275t222 -108q65 0 114 24t85 61q37 38 59 86q23 48 33 99h43q0 -104 -29 -199q-28 -93 -84 -162q-55 -68 -138 -109q-79 -39 -188 -39q-112 0 -193 37q-82 37 -138 104q-57 67 -83 154q-28 92 -28 190q0 106 34 209
q34 105 98 186q63 81 161 133q96 51 223 51q95 0 164 -27q68 -27 115 -75q45 -46 66 -108q22 -64 22 -127zM571 963q-91 0 -148 -66q-56 -65 -77 -160h299q32 0 48 14t16 50q0 56 -32 109t-106 53zM346 1147h-61l245 369h82l246 -369h-61l-226 178z" />
    <glyph glyph-name="edieresis" unicode="&#xeb;" horiz-adv-x="1046" 
d="M965 707v-52h-631q-2 -16 -2 -25v-28q0 -167 75 -275t222 -108q65 0 114 24t85 61q37 38 59 86q23 48 33 99h43q0 -104 -29 -199q-28 -93 -84 -162q-55 -68 -138 -109q-79 -39 -188 -39q-112 0 -193 37q-82 37 -138 104q-57 67 -83 154q-28 92 -28 190q0 106 34 209
q34 105 98 186q63 81 161 133q96 51 223 51q95 0 164 -27q68 -27 115 -75q45 -46 66 -108q22 -64 22 -127zM571 963q-91 0 -148 -66q-56 -65 -77 -160h299q32 0 48 14t16 50q0 56 -32 109t-106 53zM385 1462q59 0 97 -39q38 -40 38 -92t-38 -92q-38 -39 -97 -39
q-60 0 -97 39q-38 40 -38 92t38 92q37 39 97 39zM758 1462q60 0 97 -39q38 -40 38 -92t-38 -92q-37 -39 -97 -39t-98 39q-37 38 -37 92t37 92q38 39 98 39z" />
    <glyph glyph-name="igrave" unicode="&#xec;" horiz-adv-x="624" 
d="M461 1065v-840q0 -101 32 -136q30 -32 101 -48v-41h-553v41q71 16 101 48q32 35 32 136v625h-143v41zM297 1147l-307 369h246l122 -369h-61z" />
    <glyph glyph-name="iacute" unicode="&#xed;" horiz-adv-x="624" 
d="M461 1065v-840q0 -101 32 -136q30 -32 101 -48v-41h-553v41q71 16 101 48q32 35 32 136v625h-143v41zM338 1147h-62l123 369h246z" />
    <glyph glyph-name="icircumflex" unicode="&#xee;" horiz-adv-x="624" 
d="M461 1065v-840q0 -101 32 -136q30 -32 101 -48v-41h-553v41q71 16 101 48q32 35 32 136v625h-143v41zM92 1147h-61l245 369h82l246 -369h-61l-226 178z" />
    <glyph glyph-name="idieresis" unicode="&#xef;" horiz-adv-x="624" 
d="M461 1065v-840q0 -101 32 -136q30 -32 101 -48v-41h-553v41q71 16 101 48q32 35 32 136v625h-143v41zM131 1462q59 0 97 -39q38 -40 38 -92t-38 -92q-38 -39 -97 -39t-97 39q-38 40 -38 92t38 92q37 39 97 39zM504 1462q60 0 97 -39q38 -40 38 -92t-38 -92
q-37 -39 -97 -39t-97 39q-38 40 -38 92t38 92q37 39 97 39z" />
    <glyph glyph-name="eth" unicode="&#xf0;" horiz-adv-x="1138" 
d="M451 1026l211 119q-28 57 -73 86q-44 29 -102 29q-59 0 -116 -42t-172 -178h-41q-35 40 -52 75q-18 37 -18 73q0 70 73 117t230 47q99 0 202 -35q96 -32 189 -105l205 115v-88l-145 -82q94 -94 154 -238q61 -146 61 -331q0 -162 -37 -276q-38 -117 -101 -189
q-66 -75 -152 -109t-187 -34q-112 0 -207 33q-99 35 -172 97q-76 65 -118 152q-44 91 -44 201q0 179 98 292t264 113q112 0 191 -49t139 -112q-1 109 -11 207q-9 92 -30 159l-239 -135v88zM315 311q0 -109 40 -171t126 -62q62 0 107 45q44 44 75 118q29 69 46 169
q15 88 20 196q-41 44 -86 59t-92 15q-59 0 -105 -29q-43 -27 -73 -79q-28 -48 -43 -117q-15 -67 -15 -144z" />
    <glyph glyph-name="ntilde" unicode="&#xf1;" horiz-adv-x="1239" 
d="M461 721v-506q0 -96 32 -128q31 -31 101 -46v-41h-553v41q70 15 101 46q32 32 32 128v635h-143v41l409 174v-264q99 122 196 183q95 60 193 60q122 0 184 -75t62 -211v-543q0 -96 32 -128q31 -31 101 -46v-41h-553v41q72 16 102 46q31 31 31 128v465q0 90 -32 129
q-33 41 -92 41q-58 0 -108 -39q-51 -40 -95 -90zM909 1485q-21 -140 -55 -208q-34 -69 -117 -69q-36 0 -74 16q-40 17 -68 34q-32 20 -64 35q-34 16 -62 16q-36 0 -56 -23t-30 -67h-55q23 137 56 205q35 71 116 71q38 0 74 -15q35 -15 68 -35q32 -20 64 -35t62 -15
q37 0 56 22t30 68h55z" />
    <glyph glyph-name="ograve" unicode="&#xf2;" horiz-adv-x="1175" 
d="M608 1044q231 0 358 -142q128 -143 128 -372q0 -118 -39 -220q-39 -101 -108 -175q-71 -75 -166 -115q-96 -40 -212 -40q-232 0 -359 142q-128 143 -128 372q0 118 39 220q39 103 107 175q71 75 166 115q96 40 214 40zM612 63q88 0 129 95q41 96 41 284q0 94 -12 185
q-12 92 -39 167q-27 74 -68 120q-42 47 -100 47q-88 0 -129 -95q-41 -96 -41 -284q0 -94 12 -185q12 -92 39 -167q26 -73 69 -120q42 -47 99 -47zM567 1147l-307 369h246l123 -369h-62z" />
    <glyph glyph-name="oacute" unicode="&#xf3;" horiz-adv-x="1175" 
d="M608 1044q231 0 358 -142q128 -143 128 -372q0 -118 -39 -220q-39 -101 -108 -175q-71 -75 -166 -115q-96 -40 -212 -40q-232 0 -359 142q-128 143 -128 372q0 118 39 220q39 103 107 175q71 75 166 115q96 40 214 40zM612 63q88 0 129 95q41 96 41 284q0 94 -12 185
q-12 92 -39 167q-27 74 -68 120q-42 47 -100 47q-88 0 -129 -95q-41 -96 -41 -284q0 -94 12 -185q12 -92 39 -167q26 -73 69 -120q42 -47 99 -47zM608 1147h-61l123 369h245z" />
    <glyph glyph-name="ocircumflex" unicode="&#xf4;" horiz-adv-x="1175" 
d="M608 1044q231 0 358 -142q128 -143 128 -372q0 -118 -39 -220q-39 -101 -108 -175q-71 -75 -166 -115q-96 -40 -212 -40q-232 0 -359 142q-128 143 -128 372q0 118 39 220q39 103 107 175q71 75 166 115q96 40 214 40zM612 63q88 0 129 95q41 96 41 284q0 94 -12 185
q-12 92 -39 167q-27 74 -68 120q-42 47 -100 47q-88 0 -129 -95q-41 -96 -41 -284q0 -94 12 -185q12 -92 39 -167q26 -73 69 -120q42 -47 99 -47zM362 1147h-61l246 369h82l245 -369h-61l-225 178z" />
    <glyph glyph-name="otilde" unicode="&#xf5;" horiz-adv-x="1175" 
d="M608 1044q231 0 358 -142q128 -143 128 -372q0 -118 -39 -220q-39 -101 -108 -175q-71 -75 -166 -115q-96 -40 -212 -40q-232 0 -359 142q-128 143 -128 372q0 118 39 220q39 103 107 175q71 75 166 115q96 40 214 40zM612 63q88 0 129 95q41 96 41 284q0 94 -12 185
q-12 92 -39 167q-27 74 -68 120q-42 47 -100 47q-88 0 -129 -95q-41 -96 -41 -284q0 -94 12 -185q12 -92 39 -167q26 -73 69 -120q42 -47 99 -47zM879 1485q-21 -137 -56 -208q-35 -69 -116 -69q-37 0 -75 16q-40 17 -68 34q-35 22 -63 35q-34 16 -63 16q-36 0 -56 -23
t-30 -67h-55q23 137 56 205q35 71 116 71q39 0 75 -15q32 -13 67 -35q32 -20 64 -35q31 -15 62 -15q38 0 57 22q18 21 29 68h56z" />
    <glyph glyph-name="odieresis" unicode="&#xf6;" horiz-adv-x="1175" 
d="M608 1044q231 0 358 -142q128 -143 128 -372q0 -118 -39 -220q-39 -101 -108 -175q-71 -75 -166 -115q-96 -40 -212 -40q-232 0 -359 142q-128 143 -128 372q0 118 39 220q39 103 107 175q71 75 166 115q96 40 214 40zM612 63q88 0 129 95q41 96 41 284q0 94 -12 185
q-12 92 -39 167q-27 74 -68 120q-42 47 -100 47q-88 0 -129 -95q-41 -96 -41 -284q0 -94 12 -185q12 -92 39 -167q26 -73 69 -120q42 -47 99 -47zM401 1462q61 0 98 -39q38 -40 38 -92t-38 -92q-37 -39 -98 -39q-59 0 -97 39q-38 40 -38 92t38 92q38 39 97 39zM774 1462
q60 0 97 -39q38 -40 38 -92t-38 -92q-37 -39 -97 -39t-97 39q-38 40 -38 92t38 92q37 39 97 39z" />
    <glyph glyph-name="divide" unicode="&#xf7;" horiz-adv-x="1003" 
d="M502 788q-56 0 -94 36q-37 36 -37 91q0 56 37 93q36 36 94 36t94 -36q37 -37 37 -93q0 -55 -37 -91q-38 -36 -94 -36zM123 676h758v-82h-758v82zM502 225q-57 0 -94 37t-37 92q0 58 37 92q38 35 94 35t94 -35q37 -34 37 -92q0 -55 -37 -92t-94 -37z" />
    <glyph glyph-name="oslash" unicode="&#xf8;" horiz-adv-x="1175" 
d="M608 1044q96 0 169 -23q77 -24 134 -69l64 72h119l-117 -133q57 -67 87 -159t30 -202q0 -118 -39 -220q-39 -101 -108 -175q-71 -75 -166 -115q-96 -40 -212 -40q-98 0 -171 23q-77 24 -134 69l-63 -72h-119l117 133q-57 67 -87 159q-30 91 -30 202q0 118 39 220
q39 103 107 175q71 75 166 115q96 40 214 40zM393 582q0 -57 4 -104q3 -35 13 -103l333 383q-27 90 -71 145q-46 58 -109 58q-88 0 -129 -95q-41 -96 -41 -284zM612 63q88 0 129 95q41 96 41 284q0 57 -4 104q-4 51 -12 103l-334 -383q27 -88 72 -145q46 -58 108 -58z" />
    <glyph glyph-name="ugrave" unicode="&#xf9;" horiz-adv-x="1198" 
d="M1178 133l-410 -174v260q-113 -113 -206 -177q-90 -62 -193 -62q-106 0 -160 75q-55 76 -55 211v584h-144v41l430 174v-721q0 -78 28 -120q27 -40 79 -40q51 0 97 27q48 28 104 72v567h-144v41l430 174v-891h144v-41zM600 1147l-307 369h246l123 -369h-62z" />
    <glyph glyph-name="uacute" unicode="&#xfa;" horiz-adv-x="1198" 
d="M1178 133l-410 -174v260q-113 -113 -206 -177q-90 -62 -193 -62q-106 0 -160 75q-55 76 -55 211v584h-144v41l430 174v-721q0 -78 28 -120q27 -40 79 -40q51 0 97 27q48 28 104 72v567h-144v41l430 174v-891h144v-41zM641 1147h-61l122 369h246z" />
    <glyph glyph-name="ucircumflex" unicode="&#xfb;" horiz-adv-x="1198" 
d="M1178 133l-410 -174v260q-113 -113 -206 -177q-90 -62 -193 -62q-106 0 -160 75q-55 76 -55 211v584h-144v41l430 174v-721q0 -78 28 -120q27 -40 79 -40q51 0 97 27q48 28 104 72v567h-144v41l430 174v-891h144v-41zM395 1147h-61l246 369h82l245 -369h-61l-225 178z
" />
    <glyph glyph-name="udieresis" unicode="&#xfc;" horiz-adv-x="1198" 
d="M1178 133l-410 -174v260q-113 -113 -206 -177q-90 -62 -193 -62q-106 0 -160 75q-55 76 -55 211v584h-144v41l430 174v-721q0 -78 28 -120q27 -40 79 -40q51 0 97 27q48 28 104 72v567h-144v41l430 174v-891h144v-41zM434 1462q60 0 97 -39q38 -40 38 -92t-38 -92
q-37 -39 -97 -39t-97 39q-38 40 -38 92t38 92q37 39 97 39zM807 1462q59 0 97 -39q38 -40 38 -92t-38 -92q-38 -39 -97 -39t-97 39q-38 40 -38 92t38 92q38 39 97 39z" />
    <glyph glyph-name="yacute" unicode="&#xfd;" horiz-adv-x="1105" 
d="M580 -25q-57 -140 -149 -222q-91 -81 -202 -81q-39 0 -69 6q-14 3 -58 15v254q43 -18 81 -26q41 -9 83 -9q74 0 141 22q68 22 109 86l-270 662q-63 154 -110 214q-47 61 -105 87v41h553v-41q-64 -8 -85 -68q-21 -61 17 -165l141 -375l119 317q56 150 21 216
q-35 67 -99 75v41h408v-41q-31 -13 -62 -34q-30 -21 -62 -59q-34 -40 -67 -98q-31 -53 -71 -155zM662 1147h-62l123 369h246z" />
    <glyph glyph-name="thorn" unicode="&#xfe;" horiz-adv-x="1193" 
d="M440 -92q0 -96 41 -129q40 -33 133 -45v-41h-594v41q72 16 102 46q32 32 32 128v1382h-144v41l430 174v-653q88 105 169 148q82 44 169 44q147 0 238 -118q92 -119 92 -332q0 -142 -43 -255q-44 -115 -117 -194q-72 -78 -171 -122q-96 -43 -206 -43q-30 0 -67 5
q-26 4 -64 13v-90zM616 850q-50 0 -94 -29q-42 -27 -82 -80v-417q0 -127 44 -194t112 -67q51 0 91 34q42 36 68 91q27 56 42 133q14 70 14 156q0 185 -48 279t-147 94z" />
    <glyph glyph-name="ydieresis" unicode="&#xff;" horiz-adv-x="1105" 
d="M580 -25q-57 -140 -149 -222q-91 -81 -202 -81q-39 0 -69 6q-14 3 -58 15v254q43 -18 81 -26q41 -9 83 -9q74 0 141 22q68 22 109 86l-270 662q-63 154 -110 214q-47 61 -105 87v41h553v-41q-64 -8 -85 -68q-21 -61 17 -165l141 -375l119 317q56 150 21 216
q-35 67 -99 75v41h408v-41q-31 -13 -62 -34q-30 -21 -62 -59q-34 -40 -67 -98q-31 -53 -71 -155zM455 1462q59 0 97 -39q38 -40 38 -92t-38 -92q-38 -39 -97 -39q-61 0 -98 39q-38 40 -38 92t38 92q37 39 98 39zM827 1462q61 0 98 -39q38 -40 38 -92t-38 -92
q-37 -39 -98 -39q-59 0 -97 39q-38 40 -38 92t38 92q38 39 97 39z" />
    <glyph glyph-name="Amacron" unicode="&#x100;" horiz-adv-x="1380" 
d="M416 41v-41h-416v41q90 33 141 99q53 68 103 194l422 1038h47l422 -1030q64 -157 109 -214q47 -60 106 -87v-41h-559v41q63 7 87 68q23 59 -20 165l-14 37h-516l-13 -32q-44 -108 -13 -166q30 -57 114 -72zM397 485h377l-188 480zM915 1642v-192h-450v192h450z" />
    <glyph glyph-name="amacron" unicode="&#x101;" horiz-adv-x="1054" 
d="M305 627q-44 -27 -95 -42q-55 -17 -104 -18q-19 52 -8 99t39 89q27 40 73 81q35 31 89 71q94 69 163 103t154 34q136 0 195 -71t59 -176v-492q0 -77 24 -109t62 -32q34 0 60 20q28 22 45 47l39 -32q-57 -95 -122 -152q-64 -57 -165 -57q-70 0 -134 46q-66 47 -73 183
q-34 -114 -122 -177q-86 -62 -195 -62t-168 56q-60 57 -60 146q0 69 41 130q41 60 170 128l312 162v105q0 87 -29 139q-29 51 -104 51q-39 0 -74 -18t-58 -54q-22 -33 -28 -85t14 -113zM311 270q0 -44 28 -75t77 -31q70 0 119 61t49 162v125l-76 -37q-108 -51 -154 -97
q-43 -43 -43 -108zM768 1427v-192h-451v192h451z" />
    <glyph glyph-name="Abreve" unicode="&#x102;" horiz-adv-x="1380" 
d="M416 41v-41h-416v41q90 33 141 99q53 68 103 194l422 1038h47l422 -1030q64 -157 109 -214q47 -60 106 -87v-41h-559v41q63 7 87 68q23 59 -20 165l-14 37h-516l-13 -32q-44 -108 -13 -166q30 -57 114 -72zM397 485h377l-188 480zM690 1434q-113 0 -184 59
q-72 60 -72 186h62q15 -43 66 -62q54 -20 128 -20t128 20q52 19 67 62h61q0 -126 -72 -186q-71 -59 -184 -59z" />
    <glyph glyph-name="abreve" unicode="&#x103;" horiz-adv-x="1054" 
d="M305 627q-44 -27 -95 -42q-55 -17 -104 -18q-19 52 -8 99t39 89q27 40 73 81q35 31 89 71q94 69 163 103t154 34q136 0 195 -71t59 -176v-492q0 -77 24 -109t62 -32q34 0 60 20q28 22 45 47l39 -32q-57 -95 -122 -152q-64 -57 -165 -57q-70 0 -134 46q-66 47 -73 183
q-34 -114 -122 -177q-86 -62 -195 -62t-168 56q-60 57 -60 146q0 69 41 130q41 60 170 128l312 162v105q0 87 -29 139q-29 51 -104 51q-39 0 -74 -18t-58 -54q-22 -33 -28 -85t14 -113zM311 270q0 -44 28 -75t77 -31q70 0 119 61t49 162v125l-76 -37q-108 -51 -154 -97
q-43 -43 -43 -108zM543 1178q-114 0 -185 71t-71 226h61q0 -69 60 -96t135 -27t135 27q59 27 59 96h62q0 -154 -72 -226q-71 -71 -184 -71z" />
    <glyph glyph-name="Aogonek" unicode="&#x104;" horiz-adv-x="1380" 
d="M416 41v-41h-416v41q90 33 141 99q53 68 103 194l422 1038h47l422 -1030q64 -157 109 -214q47 -60 106 -87v-41h-559v41q63 7 87 68q23 59 -20 165l-14 37h-516l-13 -32q-44 -108 -13 -166q30 -57 114 -72zM397 485h377l-188 480zM1044 -215q0 -47 27 -68q26 -20 62 -20
q33 0 64 15t56 46l35 -24q-47 -77 -103 -120q-58 -44 -136 -44q-70 0 -128 41q-57 41 -57 115q0 45 21 84q20 38 52 71q30 32 71 63t75 56h82q-59 -59 -91 -115q-30 -53 -30 -100z" />
    <glyph glyph-name="aogonek" unicode="&#x105;" horiz-adv-x="1054" 
d="M305 627q-44 -27 -95 -42q-55 -17 -104 -18q-19 52 -8 99t39 89q27 40 73 81q35 31 89 71q94 69 163 103t154 34q136 0 195 -71t59 -176v-492q0 -77 24 -109t62 -32q34 0 60 20q28 22 45 47l39 -32q-40 -76 -95 -125q-45 -40 -108 -94q-50 -42 -87 -89q-36 -45 -36 -106
q0 -47 27 -68q26 -20 61 -20q34 0 65 15t56 46l35 -24q-46 -76 -104 -120t-136 -44q-70 0 -128 41q-56 40 -56 115q0 37 19 72q17 32 51 69q29 32 68 63q50 40 75 58q-66 4 -129 54q-65 51 -72 179q-34 -115 -122 -179q-86 -62 -195 -62t-168 56q-60 57 -60 146q0 69 41 130
q41 60 170 128l312 162v105q0 87 -29 139q-29 51 -104 51q-39 0 -74 -18t-58 -54q-22 -33 -28 -85t14 -113zM311 270q0 -44 28 -75t77 -31q70 0 119 61t49 162v125l-76 -37q-108 -51 -154 -97q-43 -43 -43 -108z" />
    <glyph glyph-name="Cacute" unicode="&#x106;" horiz-adv-x="1355" 
d="M705 1257q-156 0 -255 -130q-100 -132 -100 -347q0 -142 40 -244q41 -105 106 -170q69 -69 149 -99q83 -31 170 -31q143 0 259 87q116 88 149 283h51q-7 -119 -46 -237q-38 -115 -107 -201q-70 -87 -169 -137q-100 -51 -231 -51q-132 0 -247 47q-112 45 -195 132
q-84 88 -130 208q-47 124 -47 272q0 156 55 290q54 133 145 225t213 145q123 53 257 53q120 0 236 -31q103 -27 206 -70v-411h-45q-101 228 -221 322q-122 95 -243 95zM526 1475l492 204v-204l-492 -41v41z" />
    <glyph glyph-name="cacute" unicode="&#x107;" horiz-adv-x="1001" 
d="M313 627q0 -172 77 -288t231 -116q118 0 183 80t83 186h43q0 -103 -28 -199q-26 -91 -82 -162q-53 -68 -135 -109q-78 -39 -183 -39q-107 0 -184 35t-131 100q-50 60 -78 150q-27 87 -27 190q0 113 36 219q35 105 105 188q69 82 171 132q103 50 231 50q160 0 230 -64
q71 -65 71 -151q0 -37 -20 -74t-50 -67h-41q-73 150 -139 198q-68 50 -141 50q-117 0 -169 -93q-53 -94 -53 -216zM596 1147h-61l122 369h246z" />
    <glyph glyph-name="Ccircumflex" unicode="&#x108;" horiz-adv-x="1355" 
d="M705 1257q-156 0 -255 -130q-100 -132 -100 -347q0 -142 40 -244q41 -105 106 -170q69 -69 149 -99q83 -31 170 -31q143 0 259 87q116 88 149 283h51q-7 -119 -46 -237q-38 -115 -107 -201q-70 -87 -169 -137q-100 -51 -231 -51q-132 0 -247 47q-112 45 -195 132
q-84 88 -130 208q-47 124 -47 272q0 156 55 290q54 133 145 225t213 145q123 53 257 53q120 0 236 -31q103 -27 206 -70v-411h-45q-101 228 -221 322q-122 95 -243 95zM465 1434v41l266 204h82l266 -204v-41l-307 88z" />
    <glyph glyph-name="ccircumflex" unicode="&#x109;" horiz-adv-x="1001" 
d="M313 627q0 -172 77 -288t231 -116q118 0 183 80t83 186h43q0 -103 -28 -199q-26 -91 -82 -162q-53 -68 -135 -109q-78 -39 -183 -39q-107 0 -184 35t-131 100q-50 60 -78 150q-27 87 -27 190q0 113 36 219q35 105 105 188q69 82 171 132q103 50 231 50q160 0 230 -64
q71 -65 71 -151q0 -37 -20 -74t-50 -67h-41q-73 150 -139 198q-68 50 -141 50q-117 0 -169 -93q-53 -94 -53 -216zM350 1147h-61l246 369h81l246 -369h-61l-226 178z" />
    <glyph glyph-name="Cdotaccent" unicode="&#x10a;" horiz-adv-x="1355" 
d="M705 1257q-156 0 -255 -130q-100 -132 -100 -347q0 -142 40 -244q41 -105 106 -170q69 -69 149 -99q83 -31 170 -31q143 0 259 87q116 88 149 283h51q-7 -119 -46 -237q-38 -115 -107 -201q-70 -87 -169 -137q-100 -51 -231 -51q-132 0 -247 47q-112 45 -195 132
q-84 88 -130 208q-47 124 -47 272q0 156 55 290q54 133 145 225t213 145q123 53 257 53q120 0 236 -31q103 -27 206 -70v-411h-45q-101 228 -221 322q-122 95 -243 95zM772 1710q68 0 112 -44t44 -110q0 -65 -44 -109t-112 -44t-112 44t-44 109q0 66 44 110t112 44z" />
    <glyph glyph-name="cdotaccent" unicode="&#x10b;" horiz-adv-x="1001" 
d="M313 627q0 -172 77 -288t231 -116q118 0 183 80t83 186h43q0 -103 -28 -199q-26 -91 -82 -162q-53 -68 -135 -109q-78 -39 -183 -39q-107 0 -184 35t-131 100q-50 60 -78 150q-27 87 -27 190q0 113 36 219q35 105 105 188q69 82 171 132q103 50 231 50q160 0 230 -64
q71 -65 71 -151q0 -37 -20 -74t-50 -67h-41q-73 150 -139 198q-68 50 -141 50q-117 0 -169 -93q-53 -94 -53 -216zM575 1485q68 0 112 -44t44 -110q0 -65 -44 -109t-112 -44q-67 0 -111 44t-44 109q0 66 44 110t111 44z" />
    <glyph glyph-name="Ccaron" unicode="&#x10c;" horiz-adv-x="1355" 
d="M705 1257q-156 0 -255 -130q-100 -132 -100 -347q0 -142 40 -244q41 -105 106 -170q69 -69 149 -99q83 -31 170 -31q143 0 259 87q116 88 149 283h51q-7 -119 -46 -237q-38 -115 -107 -201q-70 -87 -169 -137q-100 -51 -231 -51q-132 0 -247 47q-112 45 -195 132
q-84 88 -130 208q-47 124 -47 272q0 156 55 290q54 133 145 225t213 145q123 53 257 53q120 0 236 -31q103 -27 206 -70v-411h-45q-101 228 -221 322q-122 95 -243 95zM465 1679l307 -88l307 88v-41l-266 -204h-82l-266 204v41z" />
    <glyph glyph-name="ccaron" unicode="&#x10d;" horiz-adv-x="1001" 
d="M313 627q0 -172 77 -288t231 -116q118 0 183 80t83 186h43q0 -103 -28 -199q-26 -91 -82 -162q-53 -68 -135 -109q-78 -39 -183 -39q-107 0 -184 35t-131 100q-50 60 -78 150q-27 87 -27 190q0 113 36 219q35 105 105 188q69 82 171 132q103 50 231 50q160 0 230 -64
q71 -65 71 -151q0 -37 -20 -74t-50 -67h-41q-73 150 -139 198q-68 50 -141 50q-117 0 -169 -93q-53 -94 -53 -216zM801 1516h61l-246 -369h-81l-246 369h61l225 -179z" />
    <glyph glyph-name="Dcaron" unicode="&#x10e;" horiz-adv-x="1495" 
d="M51 1290v41h586q356 0 556 -164t200 -456q0 -159 -62 -292q-62 -132 -164 -224q-105 -94 -239 -144q-136 -51 -285 -51h-592v41q81 16 118 47q36 30 36 127v901q0 97 -36 127q-37 31 -118 47zM594 1249h-92v-1167h153q94 0 170 49t128 131q53 82 81 192q29 111 29 226
q0 120 -27 225q-27 104 -82 180q-56 77 -145 120q-91 44 -215 44zM399 1679l308 -88l307 88v-41l-266 -204h-82l-267 204v41z" />
    <glyph glyph-name="dcaron" unicode="&#x10f;" horiz-adv-x="1200" 
d="M1180 133l-410 -174v238q-97 -119 -181 -167q-86 -50 -177 -50q-147 0 -238 118q-92 119 -92 332q0 142 43 255q44 115 117 194q72 78 171 122q96 43 205 43q31 0 68 -5q26 -4 64 -13v264h-144v41l430 174v-1331h144v-41zM573 174q51 0 95 29q42 27 82 80v417
q0 127 -44 194t-112 67q-51 0 -91 -34q-42 -36 -68 -91q-27 -56 -42 -133q-14 -70 -14 -156q0 -185 48 -279t146 -94zM1200 963h-61l61 368h225z" />
    <glyph glyph-name="Dcroat" unicode="&#x110;" horiz-adv-x="1495" 
d="M51 707h154v409q0 97 -36 127q-37 31 -118 47v41h586q356 0 556 -164t200 -456q0 -159 -62 -292q-62 -132 -164 -224q-105 -94 -239 -144q-136 -51 -285 -51h-592v41q81 16 118 47q36 30 36 127v410h-154v82zM788 625h-286v-543h153q94 0 170 49t128 131q53 82 81 192
q29 111 29 226q0 120 -27 225q-27 104 -82 180q-56 77 -145 120q-91 44 -215 44h-92v-542h286v-82z" />
    <glyph glyph-name="dcroat" unicode="&#x111;" horiz-adv-x="1200" 
d="M1180 133l-410 -174v238q-97 -119 -181 -167q-86 -50 -177 -50q-147 0 -238 118q-92 119 -92 332q0 142 43 255q44 115 117 194q72 78 171 122q96 43 205 43q31 0 68 -5q26 -4 64 -13v107h-267v81h267v76h-144v41l430 174v-291h144v-81h-144v-959h144v-41zM573 174
q51 0 95 29q42 27 82 80v417q0 127 -44 194t-112 67q-51 0 -91 -34q-42 -36 -68 -91q-27 -56 -42 -133q-14 -70 -14 -156q0 -185 48 -279t146 -94z" />
    <glyph glyph-name="Emacron" unicode="&#x112;" horiz-adv-x="1320" 
d="M51 1290v41h1147v-471h-45q-50 223 -147 305q-99 84 -283 84h-221v-532h43q126 0 198 83q72 82 99 224h45v-696h-45q-27 142 -99 224q-72 83 -198 83h-43v-553h221q184 0 283 84q97 82 147 305h45v-471h-1147v41q81 16 118 47q36 30 36 127v901q0 97 -36 127
q-37 31 -118 47zM948 1642v-192h-450v192h450z" />
    <glyph glyph-name="emacron" unicode="&#x113;" horiz-adv-x="1046" 
d="M965 707v-52h-631q-2 -16 -2 -25v-28q0 -167 75 -275t222 -108q65 0 114 24t85 61q37 38 59 86q23 48 33 99h43q0 -104 -29 -199q-28 -93 -84 -162q-55 -68 -138 -109q-79 -39 -188 -39q-112 0 -193 37q-82 37 -138 104q-57 67 -83 154q-28 92 -28 190q0 106 34 209
q34 105 98 186q63 81 161 133q96 51 223 51q95 0 164 -27q68 -27 115 -75q45 -46 66 -108q22 -64 22 -127zM571 963q-91 0 -148 -66q-56 -65 -77 -160h299q32 0 48 14t16 50q0 56 -32 109t-106 53zM797 1427v-192h-451v192h451z" />
    <glyph glyph-name="Ebreve" unicode="&#x114;" horiz-adv-x="1320" 
d="M51 1290v41h1147v-471h-45q-50 223 -147 305q-99 84 -283 84h-221v-532h43q126 0 198 83q72 82 99 224h45v-696h-45q-27 142 -99 224q-72 83 -198 83h-43v-553h221q184 0 283 84q97 82 147 305h45v-471h-1147v41q81 16 118 47q36 30 36 127v901q0 97 -36 127
q-37 31 -118 47zM723 1434q-113 0 -184 59q-72 60 -72 186h61q15 -43 67 -62q54 -20 128 -20t128 20q52 19 67 62h61q0 -126 -72 -186q-71 -59 -184 -59z" />
    <glyph glyph-name="ebreve" unicode="&#x115;" horiz-adv-x="1046" 
d="M965 707v-52h-631q-2 -16 -2 -25v-28q0 -167 75 -275t222 -108q65 0 114 24t85 61q37 38 59 86q23 48 33 99h43q0 -104 -29 -199q-28 -93 -84 -162q-55 -68 -138 -109q-79 -39 -188 -39q-112 0 -193 37q-82 37 -138 104q-57 67 -83 154q-28 92 -28 190q0 106 34 209
q34 105 98 186q63 81 161 133q96 51 223 51q95 0 164 -27q68 -27 115 -75q45 -46 66 -108q22 -64 22 -127zM571 963q-91 0 -148 -66q-56 -65 -77 -160h299q32 0 48 14t16 50q0 56 -32 109t-106 53zM571 1178q-113 0 -184 71q-72 72 -72 226h62q0 -69 59 -96q60 -27 135 -27
q76 0 136 27q59 27 59 96h61q0 -155 -71 -226t-185 -71z" />
    <glyph glyph-name="Edotaccent" unicode="&#x116;" horiz-adv-x="1320" 
d="M51 1290v41h1147v-471h-45q-50 223 -147 305q-99 84 -283 84h-221v-532h43q126 0 198 83q72 82 99 224h45v-696h-45q-27 142 -99 224q-72 83 -198 83h-43v-553h221q184 0 283 84q97 82 147 305h45v-471h-1147v41q81 16 118 47q36 30 36 127v901q0 97 -36 127
q-37 31 -118 47zM723 1710q68 0 112 -44t44 -110q0 -65 -44 -109t-112 -44t-112 44t-44 109q0 66 44 110t112 44z" />
    <glyph glyph-name="edotaccent" unicode="&#x117;" horiz-adv-x="1046" 
d="M965 707v-52h-631q-2 -16 -2 -25v-28q0 -167 75 -275t222 -108q65 0 114 24t85 61q37 38 59 86q23 48 33 99h43q0 -104 -29 -199q-28 -93 -84 -162q-55 -68 -138 -109q-79 -39 -188 -39q-112 0 -193 37q-82 37 -138 104q-57 67 -83 154q-28 92 -28 190q0 106 34 209
q34 105 98 186q63 81 161 133q96 51 223 51q95 0 164 -27q68 -27 115 -75q45 -46 66 -108q22 -64 22 -127zM571 963q-91 0 -148 -66q-56 -65 -77 -160h299q32 0 48 14t16 50q0 56 -32 109t-106 53zM571 1485q68 0 112 -44t44 -110q0 -65 -44 -109t-112 -44q-67 0 -111 44
t-44 109q0 66 44 110t111 44z" />
    <glyph glyph-name="Eogonek" unicode="&#x118;" horiz-adv-x="1320" 
d="M51 1290v41h1147v-471h-45q-50 223 -147 305q-99 84 -283 84h-221v-532h43q126 0 198 83q72 82 99 224h45v-696h-45q-27 142 -99 224q-72 83 -198 83h-43v-553h221q184 0 283 84q97 82 147 305h45v-471h-1147v41q81 16 118 47q36 30 36 127v901q0 97 -36 127
q-37 31 -118 47zM932 -215q0 -48 26 -68t62 -20q32 0 64 15q33 16 57 46l35 -24q-46 -76 -104 -120t-136 -44q-70 0 -128 41q-56 40 -56 115q0 47 20 84q20 38 52 71q30 32 71 63q26 20 76 56h82q-59 -59 -91 -115q-30 -53 -30 -100z" />
    <glyph glyph-name="eogonek" unicode="&#x119;" horiz-adv-x="1046" 
d="M629 219q65 0 114 24t85 61q37 38 59 86q23 48 33 99h43q0 -163 -59 -266t-127 -174q-69 -72 -127 -130t-58 -134q0 -48 26 -68t62 -20q32 0 64 15q33 16 57 46l35 -24q-46 -76 -104 -120t-136 -44q-70 0 -128 41q-56 40 -56 115q0 76 57 136q58 61 145 126
q-34 -5 -53 -6q-28 -2 -37 -2q-112 0 -193 37q-82 37 -138 104q-57 67 -83 154q-28 92 -28 190q0 106 34 209q34 105 98 186q63 81 161 133q96 51 223 51q95 0 164 -27q68 -27 115 -75q45 -46 66 -108q22 -64 22 -127v-52h-631q-2 -16 -2 -25v-28q0 -167 75 -275t222 -108z
M571 963q-91 0 -148 -66q-56 -65 -77 -160h299q32 0 48 14t16 50q0 56 -32 109t-106 53z" />
    <glyph glyph-name="Ecaron" unicode="&#x11a;" horiz-adv-x="1320" 
d="M51 1290v41h1147v-471h-45q-50 223 -147 305q-99 84 -283 84h-221v-532h43q126 0 198 83q72 82 99 224h45v-696h-45q-27 142 -99 224q-72 83 -198 83h-43v-553h221q184 0 283 84q97 82 147 305h45v-471h-1147v41q81 16 118 47q36 30 36 127v901q0 97 -36 127
q-37 31 -118 47zM416 1679l307 -88l307 88v-41l-266 -204h-82l-266 204v41z" />
    <glyph glyph-name="ecaron" unicode="&#x11b;" horiz-adv-x="1046" 
d="M965 707v-52h-631q-2 -16 -2 -25v-28q0 -167 75 -275t222 -108q65 0 114 24t85 61q37 38 59 86q23 48 33 99h43q0 -104 -29 -199q-28 -93 -84 -162q-55 -68 -138 -109q-79 -39 -188 -39q-112 0 -193 37q-82 37 -138 104q-57 67 -83 154q-28 92 -28 190q0 106 34 209
q34 105 98 186q63 81 161 133q96 51 223 51q95 0 164 -27q68 -27 115 -75q45 -46 66 -108q22 -64 22 -127zM571 963q-91 0 -148 -66q-56 -65 -77 -160h299q32 0 48 14t16 50q0 56 -32 109t-106 53zM797 1516h61l-246 -369h-82l-245 369h61l225 -179z" />
    <glyph glyph-name="Gcircumflex" unicode="&#x11c;" horiz-adv-x="1433" 
d="M678 655v82h612v-757h-41l-231 213q-61 -97 -154 -155q-94 -58 -221 -58q-116 0 -214 46q-101 48 -172 130q-75 88 -114 200q-41 118 -41 258q0 164 56 302q57 139 149 233q96 97 220 149q130 54 266 54q125 0 247 -31q113 -29 215 -70v-391h-45q-94 217 -221 305
t-252 88q-172 0 -280 -133q-109 -135 -109 -354q0 -143 40 -245q41 -105 106 -170q67 -67 149 -98q85 -32 170 -32q49 0 92 10q46 11 88 31v393h-315zM485 1434v41l267 204h82l266 -204v-41l-307 88z" />
    <glyph glyph-name="gcircumflex" unicode="&#x11d;" horiz-adv-x="1052" 
d="M522 1044q47 0 95 -5q44 -5 83 -15h320v-82h-156q44 -40 63 -86q21 -49 21 -106q0 -134 -124 -218q-123 -83 -326 -83q-19 0 -53 2q-9 1 -25.5 2.5t-24.5 1.5q-28 -19 -53 -44q-20 -20 -20 -44q0 -34 35 -50t120 -16h252q145 0 205 -56q61 -57 61 -145q0 -84 -53 -163
q-52 -78 -142 -137q-88 -58 -206 -93q-119 -35 -240 -35q-129 0 -225 38q-94 37 -94 126q0 47 44 106q43 57 148 119q-64 15 -104 52q-41 38 -41 104q0 63 63 129q60 63 158 125q-113 33 -172 98t-59 154q0 141 125 231q124 90 325 90zM496 975q-75 0 -109 -52
q-35 -53 -35 -157q0 -43 9 -88q9 -43 31 -80q21 -34 54 -57q34 -23 80 -23q75 0 109 46q35 47 35 143q0 42 -10 95q-9 49 -30 86t-55 62t-79 25zM240 -74q0 -74 74 -104q78 -31 184 -31q129 0 217 55t88 117q0 45 -31 67q-30 21 -90 21h-338h-19q-10 0 -20 2
q-36 -34 -50 -61q-15 -28 -15 -66zM297 1147h-61l245 369h82l246 -369h-61l-226 178z" />
    <glyph glyph-name="Gbreve" unicode="&#x11e;" horiz-adv-x="1433" 
d="M678 655v82h612v-757h-41l-231 213q-61 -97 -154 -155q-94 -58 -221 -58q-116 0 -214 46q-101 48 -172 130q-75 88 -114 200q-41 118 -41 258q0 164 56 302q57 139 149 233q96 97 220 149q130 54 266 54q125 0 247 -31q113 -29 215 -70v-391h-45q-94 217 -221 305
t-252 88q-172 0 -280 -133q-109 -135 -109 -354q0 -143 40 -245q41 -105 106 -170q67 -67 149 -98q85 -32 170 -32q49 0 92 10q46 11 88 31v393h-315zM793 1434q-114 0 -185 59t-71 186h61q15 -43 67 -62q54 -20 128 -20t128 20q51 19 66 62h62q0 -126 -72 -186
q-71 -59 -184 -59z" />
    <glyph glyph-name="gbreve" unicode="&#x11f;" horiz-adv-x="1052" 
d="M522 1044q47 0 95 -5q44 -5 83 -15h320v-82h-156q44 -40 63 -86q21 -49 21 -106q0 -134 -124 -218q-123 -83 -326 -83q-19 0 -53 2q-9 1 -25.5 2.5t-24.5 1.5q-28 -19 -53 -44q-20 -20 -20 -44q0 -34 35 -50t120 -16h252q145 0 205 -56q61 -57 61 -145q0 -84 -53 -163
q-52 -78 -142 -137q-88 -58 -206 -93q-119 -35 -240 -35q-129 0 -225 38q-94 37 -94 126q0 47 44 106q43 57 148 119q-64 15 -104 52q-41 38 -41 104q0 63 63 129q60 63 158 125q-113 33 -172 98t-59 154q0 141 125 231q124 90 325 90zM496 975q-75 0 -109 -52
q-35 -53 -35 -157q0 -43 9 -88q9 -43 31 -80q21 -34 54 -57q34 -23 80 -23q75 0 109 46q35 47 35 143q0 42 -10 95q-9 49 -30 86t-55 62t-79 25zM240 -74q0 -74 74 -104q78 -31 184 -31q129 0 217 55t88 117q0 45 -31 67q-30 21 -90 21h-338h-19q-10 0 -20 2
q-36 -34 -50 -61q-15 -28 -15 -66zM522 1178q-113 0 -184 71q-72 72 -72 226h62q0 -69 59 -96q60 -27 135 -27t135 27t60 96h61q0 -155 -71 -226t-185 -71z" />
    <glyph glyph-name="Gdotaccent" unicode="&#x120;" horiz-adv-x="1433" 
d="M678 655v82h612v-757h-41l-231 213q-61 -97 -154 -155q-94 -58 -221 -58q-116 0 -214 46q-101 48 -172 130q-75 88 -114 200q-41 118 -41 258q0 164 56 302q57 139 149 233q96 97 220 149q130 54 266 54q125 0 247 -31q113 -29 215 -70v-391h-45q-94 217 -221 305
t-252 88q-172 0 -280 -133q-109 -135 -109 -354q0 -143 40 -245q41 -105 106 -170q67 -67 149 -98q85 -32 170 -32q49 0 92 10q46 11 88 31v393h-315zM793 1710q67 0 111 -44t44 -110q0 -65 -44 -109t-111 -44q-68 0 -112 44t-44 109q0 66 44 110t112 44z" />
    <glyph glyph-name="gdotaccent" unicode="&#x121;" horiz-adv-x="1052" 
d="M522 1044q47 0 95 -5q44 -5 83 -15h320v-82h-156q44 -40 63 -86q21 -49 21 -106q0 -134 -124 -218q-123 -83 -326 -83q-19 0 -53 2q-9 1 -25.5 2.5t-24.5 1.5q-28 -19 -53 -44q-20 -20 -20 -44q0 -34 35 -50t120 -16h252q145 0 205 -56q61 -57 61 -145q0 -84 -53 -163
q-52 -78 -142 -137q-88 -58 -206 -93q-119 -35 -240 -35q-129 0 -225 38q-94 37 -94 126q0 47 44 106q43 57 148 119q-64 15 -104 52q-41 38 -41 104q0 63 63 129q60 63 158 125q-113 33 -172 98t-59 154q0 141 125 231q124 90 325 90zM496 975q-75 0 -109 -52
q-35 -53 -35 -157q0 -43 9 -88q9 -43 31 -80q21 -34 54 -57q34 -23 80 -23q75 0 109 46q35 47 35 143q0 42 -10 95q-9 49 -30 86t-55 62t-79 25zM240 -74q0 -74 74 -104q78 -31 184 -31q129 0 217 55t88 117q0 45 -31 67q-30 21 -90 21h-338h-19q-10 0 -20 2
q-36 -34 -50 -61q-15 -28 -15 -66zM522 1485q68 0 112 -44t44 -110q0 -65 -44 -109t-112 -44q-67 0 -111 44t-44 109q0 66 44 110t111 44z" />
    <glyph glyph-name="Gcommaaccent" unicode="&#x122;" horiz-adv-x="1433" 
d="M678 655v82h612v-757h-41l-231 213q-61 -97 -154 -155q-94 -58 -221 -58q-116 0 -214 46q-101 48 -172 130q-75 88 -114 200q-41 118 -41 258q0 164 56 302q57 139 149 233q96 97 220 149q130 54 266 54q125 0 247 -31q113 -29 215 -70v-391h-45q-94 217 -221 305
t-252 88q-172 0 -280 -133q-109 -135 -109 -354q0 -143 40 -245q41 -105 106 -170q67 -67 149 -98q85 -32 170 -32q49 0 92 10q46 11 88 31v393h-315zM532 -410h-61l82 287h225z" />
    <glyph glyph-name="gcommaaccent" unicode="&#x123;" horiz-adv-x="1052" 
d="M522 1044q47 0 95 -5q44 -5 83 -15h320v-82h-156q44 -40 63 -86q21 -49 21 -106q0 -134 -124 -218q-123 -83 -326 -83q-19 0 -53 2q-9 1 -25.5 2.5t-24.5 1.5q-28 -19 -53 -44q-20 -20 -20 -44q0 -34 35 -50t120 -16h252q145 0 205 -56q61 -57 61 -145q0 -84 -53 -163
q-52 -78 -142 -137q-88 -58 -206 -93q-119 -35 -240 -35q-129 0 -225 38q-94 37 -94 126q0 47 44 106q43 57 148 119q-64 15 -104 52q-41 38 -41 104q0 63 63 129q60 63 158 125q-113 33 -172 98t-59 154q0 141 125 231q124 90 325 90zM496 975q-75 0 -109 -52
q-35 -53 -35 -157q0 -43 9 -88q9 -43 31 -80q21 -34 54 -57q34 -23 80 -23q75 0 109 46q35 47 35 143q0 42 -10 95q-9 49 -30 86t-55 62t-79 25zM240 -74q0 -74 74 -104q78 -31 184 -31q129 0 217 55t88 117q0 45 -31 67q-30 21 -90 21h-338h-19q-10 0 -20 2
q-36 -34 -50 -61q-15 -28 -15 -66zM686 1516h62l-103 -369h-246z" />
    <glyph glyph-name="Hcircumflex" unicode="&#x124;" horiz-adv-x="1576" 
d="M51 1290v41h604v-41q-80 -16 -117 -47q-36 -30 -36 -127v-379h573v379q0 97 -36 127q-37 31 -117 47v41h604v-41q-81 -16 -118 -47q-36 -30 -36 -127v-901q0 -97 36 -127q37 -31 118 -47v-41h-604v41q80 16 117 47q36 30 36 127v440h-573v-440q0 -97 36 -127
q37 -31 117 -47v-41h-604v41q81 16 118 47q36 30 36 127v901q0 97 -36 127q-37 31 -118 47zM481 1434v41l267 204h81l267 -204v-41l-308 88z" />
    <glyph glyph-name="hcircumflex" unicode="&#x125;" horiz-adv-x="1239" 
d="M451 721v-506q0 -97 31 -128q30 -30 102 -46v-41h-553v41q70 15 101 46q32 32 32 128v1075h-144v41l431 174v-680q95 112 184 165q90 54 184 54q121 0 183 -75q63 -77 63 -211v-543q0 -96 32 -128q31 -31 101 -46v-41h-553v41q70 15 101 46q32 32 32 128v465
q0 88 -33 129t-92 41q-57 0 -107 -39q-51 -40 -95 -90zM313 1516v40l267 205h82l266 -205v-40l-307 88z" />
    <glyph glyph-name="Hbar" unicode="&#x126;" horiz-adv-x="1576" 
d="M51 1020h154v96q0 97 -36 127q-37 31 -118 47v41h604v-41q-80 -16 -117 -47q-36 -30 -36 -127v-96h573v96q0 97 -36 127q-37 31 -117 47v41h604v-41q-81 -16 -118 -47q-36 -30 -36 -127v-96h154v-82h-154v-723q0 -97 36 -127q37 -31 118 -47v-41h-604v41q80 16 117 47
q36 30 36 127v440h-573v-440q0 -97 36 -127q37 -31 117 -47v-41h-604v41q81 16 118 47q36 30 36 127v723h-154v82zM502 737h573v201h-573v-201z" />
    <glyph glyph-name="hbar" unicode="&#x127;" horiz-adv-x="1228" 
d="M451 721v-506q0 -97 31 -128q30 -30 102 -46v-41h-553v41q70 15 101 46q32 32 32 128v918h-144v81h144v76h-144v41l431 174v-291h266v-81h-266v-308q95 112 184 165q90 54 184 54q121 0 183 -75q63 -77 63 -211v-543q0 -96 32 -128q31 -31 101 -46v-41h-553v41
q70 15 101 46q32 32 32 128v465q0 88 -33 129t-92 41q-57 0 -107 -39q-51 -40 -95 -90z" />
    <glyph glyph-name="Itilde" unicode="&#x128;" horiz-adv-x="706" 
d="M51 1290v41h604v-41q-80 -16 -117 -47q-36 -30 -36 -127v-901q0 -97 36 -127q37 -31 117 -47v-41h-604v41q81 16 118 47q36 30 36 127v901q0 97 -36 127q-37 31 -118 47zM645 1669q-17 -118 -53 -176q-37 -59 -119 -59q-39 0 -75 12q-27 9 -67 28q-27 13 -64 27
q-31 12 -62 12q-38 0 -58 -17q-21 -18 -28 -52h-56q21 114 56 176q34 59 117 59q38 0 74 -12q31 -10 68 -28q32 -15 63 -27q34 -13 63 -13q36 0 57 18q22 19 29 52h55z" />
    <glyph glyph-name="itilde" unicode="&#x129;" horiz-adv-x="624" 
d="M461 1065v-840q0 -101 32 -136q30 -32 101 -48v-41h-553v41q71 16 101 48q32 35 32 136v625h-143v41zM608 1485q-21 -140 -55 -208q-35 -69 -117 -69q-37 0 -75 16q-37 15 -67 34q-32 20 -64 35q-34 16 -62 16q-36 0 -56 -23t-30 -67h-55q23 137 56 205q35 71 116 71
q38 0 74 -15q35 -15 68 -35q35 -22 63 -35q31 -15 63 -15q37 0 56 22t30 68h55z" />
    <glyph glyph-name="Imacron" unicode="&#x12a;" horiz-adv-x="706" 
d="M51 1290v41h604v-41q-80 -16 -117 -47q-36 -30 -36 -127v-901q0 -97 36 -127q37 -31 117 -47v-41h-604v41q81 16 118 47q36 30 36 127v901q0 97 -36 127q-37 31 -118 47zM580 1642v-192h-451v192h451z" />
    <glyph glyph-name="imacron" unicode="&#x12b;" horiz-adv-x="624" 
d="M461 1065v-840q0 -101 32 -136q30 -32 101 -48v-41h-553v41q71 16 101 48q32 35 32 136v625h-143v41zM543 1427v-192h-451v192h451z" />
    <glyph glyph-name="Ibreve" unicode="&#x12c;" horiz-adv-x="706" 
d="M51 1290v41h604v-41q-80 -16 -117 -47q-36 -30 -36 -127v-901q0 -97 36 -127q37 -31 117 -47v-41h-604v41q81 16 118 47q36 30 36 127v901q0 97 -36 127q-37 31 -118 47zM354 1434q-113 0 -184 59q-72 60 -72 186h62q15 -43 66 -62q54 -20 128 -20t128 20q52 19 67 62h61
q0 -127 -71 -186t-185 -59z" />
    <glyph glyph-name="ibreve" unicode="&#x12d;" horiz-adv-x="624" 
d="M461 1065v-840q0 -101 32 -136q30 -32 101 -48v-41h-553v41q71 16 101 48q32 35 32 136v625h-143v41zM317 1178q-113 0 -184 71q-72 72 -72 226h62q0 -69 59 -96q60 -27 135 -27q76 0 136 27q59 27 59 96h61q0 -155 -71 -226t-185 -71z" />
    <glyph glyph-name="Iogonek" unicode="&#x12e;" horiz-adv-x="706" 
d="M51 1290v41h604v-41q-80 -16 -117 -47q-36 -30 -36 -127v-901q0 -97 36 -127q37 -31 117 -47v-41h-604v41q81 16 118 47q36 30 36 127v901q0 97 -36 127q-37 31 -118 47zM299 -215q0 -47 27 -68q26 -20 61 -20q33 0 65 15q31 15 56 46l35 -24q-46 -76 -104 -120t-136 -44
q-70 0 -128 41q-56 40 -56 115q0 47 20 84q20 38 52 71q30 32 71 63q26 20 76 56h82q-59 -59 -91 -115q-30 -53 -30 -100z" />
    <glyph glyph-name="iogonek" unicode="&#x12f;" horiz-adv-x="624" 
d="M336 1516q81 0 134 -53q52 -52 52 -132t-52 -132t-134 -52t-134 52t-52 132t52 132q53 53 134 53zM461 1065v-840q0 -101 32 -136q30 -32 101 -48v-41h-553v41q71 16 101 48q32 35 32 136v625h-143v41zM262 -215q0 -47 27 -68q26 -20 61 -20q34 0 65 15t56 46l35 -24
q-46 -76 -104 -120t-136 -44q-70 0 -128 41q-56 40 -56 115q0 47 20 84q19 36 53 71q33 34 70 63q26 20 76 56h82q-59 -59 -91 -115q-30 -53 -30 -100z" />
    <glyph glyph-name="Idotaccent" unicode="&#x130;" horiz-adv-x="706" 
d="M51 1290v41h604v-41q-80 -16 -117 -47q-36 -30 -36 -127v-901q0 -97 36 -127q37 -31 117 -47v-41h-604v41q81 16 118 47q36 30 36 127v901q0 97 -36 127q-37 31 -118 47zM354 1710q68 0 112 -44t44 -110q0 -65 -44 -109t-112 -44q-67 0 -111 44t-44 109q0 66 44 110
t111 44z" />
    <glyph glyph-name="dotlessi" unicode="&#x131;" horiz-adv-x="624" 
d="M461 1065v-840q0 -101 32 -136q30 -32 101 -48v-41h-553v41q71 16 101 48q32 35 32 136v625h-143v41z" />
    <glyph glyph-name="IJ" unicode="&#x132;" horiz-adv-x="1402" 
d="M51 1290v41h604v-41q-80 -16 -117 -47q-36 -30 -36 -127v-901q0 -97 36 -127q37 -31 117 -47v-41h-604v41q81 16 118 47q36 30 36 127v901q0 97 -36 127q-37 31 -118 47zM911 1116q0 98 -35 127q-37 31 -118 47v41h604v-41q-81 -16 -118 -47q-36 -30 -36 -127v-1034
q0 -90 -24 -153q-23 -60 -79 -107q-56 -46 -142 -80q-99 -39 -215 -70v45q50 24 88 52q32 23 49 60q17 36 21 90q5 60 5 140v1057z" />
    <glyph glyph-name="ij" unicode="&#x133;" horiz-adv-x="1239" 
d="M336 1516q81 0 134 -53q52 -52 52 -132t-52 -132t-134 -52t-134 52t-52 132t52 132q53 53 134 53zM461 1065v-840q0 -101 32 -136q30 -32 101 -48v-41h-553v41q71 16 101 48q32 35 32 136v625h-143v41zM961 1516q81 0 134 -53q52 -52 52 -132t-52 -132t-134 -52
q-83 0 -135 52t-52 132t52 132q53 53 135 53zM799 59v791h-144v41l430 174v-983q0 -93 -23 -153q-23 -61 -77 -107q-53 -46 -140 -80q-96 -38 -210 -70v45q50 24 88 52q32 23 49 60q18 39 22 90q5 60 5 140z" />
    <glyph glyph-name="Jcircumflex" unicode="&#x134;" horiz-adv-x="696" 
d="M205 1116q0 97 -36 127q-37 31 -118 47v41h604v-41q-80 -16 -117 -47q-36 -30 -36 -127v-1034q0 -87 -25 -153q-23 -60 -79 -107q-56 -46 -142 -80q-99 -39 -215 -70v45q50 24 88 52q32 23 49 60q18 39 22 90q5 60 5 140v1057zM47 1434v41l266 204h82l267 -204v-41
l-308 88z" />
    <glyph glyph-name="jcircumflex" unicode="&#x135;" horiz-adv-x="614" 
d="M174 59v791h-143v41l430 174v-983q0 -90 -24 -153q-23 -61 -77 -107q-53 -46 -140 -80q-96 -38 -210 -70v45q50 24 88 52q32 23 49 60q18 39 22 90q5 60 5 140zM92 1147h-61l245 369h82l246 -369h-61l-226 178z" />
    <glyph glyph-name="Kcommaaccent" unicode="&#x136;" horiz-adv-x="1392" 
d="M51 41q81 16 118 47q36 30 36 127v901q0 97 -36 127q-37 31 -118 47v41h604v-41q-80 -16 -117 -47q-36 -30 -36 -127v-500l391 443q83 92 68 152q-15 61 -101 79v41h506v-41q-97 -28 -186 -82q-88 -54 -172 -147l-179 -197l310 -516q98 -166 149 -223q56 -63 121 -84v-41
h-422l-360 639l-125 -137v-287q0 -97 36 -127q37 -31 117 -47v-41h-604v41zM553 -410h-61l81 287h226z" />
    <glyph glyph-name="kcommaaccent" unicode="&#x137;" horiz-adv-x="1210" 
d="M451 1505v-993l233 240q82 83 67 148t-98 83v41h508v-41q-98 -29 -187 -86q-90 -57 -177 -143l-33 -33l186 -373q76 -151 128 -221q48 -64 112 -86v-41h-389l-236 520l-114 -114v-191q0 -97 31 -128q30 -30 102 -46v-41h-553v41q70 15 101 46q32 32 32 128v1075h-144v41z
M451 -410h-62l82 287h225z" />
    <glyph glyph-name="kgreenlandic" unicode="&#x138;" horiz-adv-x="1220" 
d="M461 1065v-553l233 240q82 83 67 148t-97 83v41h507v-41q-98 -29 -187 -86q-90 -57 -177 -143l-33 -33l187 -373q75 -151 128 -221q48 -65 111 -86v-41h-389l-236 520l-114 -114v-181q0 -101 32 -136q30 -32 101 -48v-41h-553v41q71 16 101 48q32 35 32 136v625h-143v41z
" />
    <glyph glyph-name="Lacute" unicode="&#x139;" horiz-adv-x="1218" 
d="M51 41q81 16 118 47q36 30 36 127v901q0 97 -36 127q-37 31 -118 47v41h645v-41q-102 -15 -148 -46t-46 -128v-1034h160q183 0 282 84q98 83 148 305h45v-471h-1086v41zM109 1475l491 204v-204l-491 -41v41z" />
    <glyph glyph-name="lacute" unicode="&#x13a;" horiz-adv-x="624" 
d="M451 1505v-1290q0 -97 31 -128q30 -30 102 -46v-41h-553v41q70 15 101 46q32 32 32 128v1075h-144v41zM72 1556l491 205v-205l-491 -40v40z" />
    <glyph glyph-name="Lcommaaccent" unicode="&#x13b;" horiz-adv-x="1218" 
d="M51 41q81 16 118 47q36 30 36 127v901q0 97 -36 127q-37 31 -118 47v41h645v-41q-102 -15 -148 -46t-46 -128v-1034h160q183 0 282 84q98 83 148 305h45v-471h-1086v41zM532 -410h-61l82 287h225z" />
    <glyph glyph-name="lcommaaccent" unicode="&#x13c;" horiz-adv-x="614" 
d="M451 1505v-1290q0 -97 31 -128q30 -30 102 -46v-41h-553v41q70 15 101 46q32 32 32 128v1075h-144v41zM174 -410h-61l82 287h225z" />
    <glyph glyph-name="Lcaron" unicode="&#x13d;" horiz-adv-x="1218" 
d="M51 41q81 16 118 47q36 30 36 127v901q0 97 -36 127q-37 31 -118 47v41h645v-41q-102 -15 -148 -46t-46 -128v-1034h160q183 0 282 84q98 83 148 305h45v-471h-1086v41zM819 963h-61l61 368h225z" />
    <glyph glyph-name="lcaron" unicode="&#x13e;" horiz-adv-x="614" 
d="M451 1505v-1290q0 -97 31 -128q30 -30 102 -46v-41h-553v41q70 15 101 46q32 32 32 128v1075h-144v41zM614 963h-61l61 368h226z" />
    <glyph glyph-name="Ldot" unicode="&#x13f;" horiz-adv-x="1218" 
d="M51 41q81 16 118 47q36 30 36 127v901q0 97 -36 127q-37 31 -118 47v41h645v-41q-102 -15 -148 -46t-46 -128v-1034h160q183 0 282 84q98 83 148 305h45v-471h-1086v41zM963 850q67 0 111 -44t44 -110q0 -65 -44 -109t-111 -44q-68 0 -112 44t-44 109q0 66 44 110t112 44
z" />
    <glyph glyph-name="ldot" unicode="&#x140;" horiz-adv-x="823" 
d="M451 1505v-1290q0 -97 31 -128q30 -30 102 -46v-41h-553v41q70 15 101 46q32 32 32 128v1075h-144v41zM719 870q67 0 111 -44t44 -109q0 -66 -44 -110t-111 -44q-68 0 -112 44t-44 110q0 65 44 109t112 44z" />
    <glyph glyph-name="Lslash" unicode="&#x141;" horiz-adv-x="1218" 
d="M51 41q81 16 118 47q36 30 36 127v352l-154 -114v96l154 115v452q0 97 -36 127q-37 31 -118 47v41h645v-41q-102 -15 -148 -46t-46 -128v-254l246 182v-96l-246 -182v-684h160q183 0 282 84q98 83 148 305h45v-471h-1086v41z" />
    <glyph glyph-name="lslash" unicode="&#x142;" horiz-adv-x="614" 
d="M20 602l144 113v575h-144v41l431 174v-590l133 105v-102l-133 -105v-598q0 -97 31 -128q30 -30 102 -46v-41h-553v41q70 15 101 46q32 32 32 128v397l-144 -110v100z" />
    <glyph glyph-name="Nacute" unicode="&#x143;" horiz-adv-x="1433" 
d="M1229 -61h-41l-895 1110v-752q0 -76 11 -117q12 -44 34 -71t60 -42q40 -16 89 -26v-41h-477v41q49 10 89 26q39 16 61 42q22 27 34 71q11 41 11 117v858q-51 59 -97 92q-50 36 -108 43v41h420l721 -876v579q0 72 -12 117q-13 48 -33 72q-22 26 -61 42q-34 14 -89 25v41
h477v-41q-55 -11 -89 -25q-38 -15 -60 -42q-22 -26 -34 -72q-11 -41 -11 -117v-1095zM471 1475l492 204v-204l-492 -41v41z" />
    <glyph glyph-name="nacute" unicode="&#x144;" horiz-adv-x="1239" 
d="M461 721v-506q0 -96 32 -128q31 -31 101 -46v-41h-553v41q70 15 101 46q32 32 32 128v635h-143v41l409 174v-264q99 122 196 183q95 60 193 60q122 0 184 -75t62 -211v-543q0 -96 32 -128q31 -31 101 -46v-41h-553v41q72 16 102 46q31 31 31 128v465q0 90 -32 129
q-33 41 -92 41q-58 0 -108 -39q-51 -40 -95 -90zM639 1147h-61l122 369h246z" />
    <glyph glyph-name="Ncommaaccent" unicode="&#x145;" horiz-adv-x="1433" 
d="M1229 -61h-41l-895 1110v-752q0 -76 11 -117q12 -44 34 -71t60 -42q40 -16 89 -26v-41h-477v41q49 10 89 26q39 16 61 42q22 27 34 71q11 41 11 117v858q-51 59 -97 92q-50 36 -108 43v41h420l721 -876v579q0 72 -12 117q-13 48 -33 72q-22 26 -61 42q-34 14 -89 25v41
h477v-41q-55 -11 -89 -25q-38 -15 -60 -42q-22 -26 -34 -72q-11 -41 -11 -117v-1095zM608 -410h-61l82 287h225z" />
    <glyph glyph-name="ncommaaccent" unicode="&#x146;" horiz-adv-x="1239" 
d="M461 721v-506q0 -96 32 -128q31 -31 101 -46v-41h-553v41q70 15 101 46q32 32 32 128v635h-143v41l409 174v-264q99 122 196 183q95 60 193 60q122 0 184 -75t62 -211v-543q0 -96 32 -128q31 -31 101 -46v-41h-553v41q72 16 102 46q31 31 31 128v465q0 90 -32 129
q-33 41 -92 41q-58 0 -108 -39q-51 -40 -95 -90zM502 -410h-62l82 287h226z" />
    <glyph glyph-name="Ncaron" unicode="&#x147;" horiz-adv-x="1433" 
d="M1229 -61h-41l-895 1110v-752q0 -76 11 -117q12 -44 34 -71t60 -42q40 -16 89 -26v-41h-477v41q49 10 89 26q39 16 61 42q22 27 34 71q11 41 11 117v858q-51 59 -97 92q-50 36 -108 43v41h420l721 -876v579q0 72 -12 117q-13 48 -33 72q-22 26 -61 42q-34 14 -89 25v41
h477v-41q-55 -11 -89 -25q-38 -15 -60 -42q-22 -26 -34 -72q-11 -41 -11 -117v-1095zM410 1679l307 -88l307 88v-41l-266 -204h-82l-266 204v41z" />
    <glyph glyph-name="ncaron" unicode="&#x148;" horiz-adv-x="1239" 
d="M461 721v-506q0 -96 32 -128q31 -31 101 -46v-41h-553v41q70 15 101 46q32 32 32 128v635h-143v41l409 174v-264q99 122 196 183q95 60 193 60q122 0 184 -75t62 -211v-543q0 -96 32 -128q31 -31 101 -46v-41h-553v41q72 16 102 46q31 31 31 128v465q0 90 -32 129
q-33 41 -92 41q-58 0 -108 -39q-51 -40 -95 -90zM844 1516h61l-246 -369h-81l-246 369h61l225 -179z" />
    <glyph glyph-name="Eng" unicode="&#x14a;" horiz-adv-x="1433" 
d="M1229 82q0 -87 -25 -153q-23 -60 -79 -107q-56 -46 -142 -80q-99 -39 -215 -70v45q50 24 88 52q32 23 49 60q18 39 22 90q5 60 5 140v197l-619 768v-727q0 -72 12 -117q12 -46 33 -71q22 -26 61 -42q40 -16 89 -26v-41h-477v41q49 10 89 26q38 15 60 42t34 71
q11 41 11 117v836q-56 67 -107 106q-53 41 -118 51v41h420l721 -876v579q0 72 -12 117q-13 48 -33 72q-22 26 -61 42q-34 14 -89 25v41h477v-41q-55 -11 -89 -25q-38 -15 -60 -42q-22 -26 -34 -72q-11 -41 -11 -117v-952z" />
    <glyph glyph-name="eng" unicode="&#x14b;" horiz-adv-x="1228" 
d="M788 680q0 90 -32 129q-33 41 -92 41q-58 0 -108 -39q-51 -40 -95 -90v-506q0 -96 32 -128q31 -31 101 -46v-41h-553v41q70 15 101 46q32 32 32 128v635h-143v41l409 174v-264q99 122 196 183q95 60 193 60q122 0 184 -75t62 -211v-676q0 -93 -23 -153q-23 -61 -77 -107
q-53 -46 -140 -80q-96 -38 -210 -70v45q50 24 88 52q32 23 49 60q16 36 21 90q5 60 5 140v621z" />
    <glyph glyph-name="Omacron" unicode="&#x14c;" horiz-adv-x="1579" 
d="M815 1352q145 0 265 -43q122 -44 209 -126q87 -83 137 -209q51 -130 51 -290q0 -165 -56 -297t-151 -221q-96 -90 -227 -138t-279 -48q-145 0 -265 43q-124 44 -209 125q-87 83 -137 209q-51 130 -51 290q0 165 56 297t151 221q97 91 227 139t279 48zM764 1262
q-166 0 -249 -134t-83 -409q0 -111 23 -229q22 -115 69 -208q45 -91 120 -153q71 -59 171 -59q167 0 249 133q83 134 83 409q0 111 -23 229q-23 116 -69 209q-45 89 -120 152q-72 60 -171 60zM1016 1642v-192h-451v192h451z" />
    <glyph glyph-name="omacron" unicode="&#x14d;" horiz-adv-x="1175" 
d="M608 1044q231 0 358 -142q128 -143 128 -372q0 -118 -39 -220q-39 -101 -108 -175q-71 -75 -166 -115q-96 -40 -212 -40q-232 0 -359 142q-128 143 -128 372q0 118 39 220q39 103 107 175q71 75 166 115q96 40 214 40zM612 63q88 0 129 95q41 96 41 284q0 94 -12 185
q-12 92 -39 167q-27 74 -68 120q-42 47 -100 47q-88 0 -129 -95q-41 -96 -41 -284q0 -94 12 -185q12 -92 39 -167q26 -73 69 -120q42 -47 99 -47zM813 1427v-192h-451v192h451z" />
    <glyph glyph-name="Obreve" unicode="&#x14e;" horiz-adv-x="1579" 
d="M815 1352q145 0 265 -43q122 -44 209 -126q87 -83 137 -209q51 -130 51 -290q0 -165 -56 -297t-151 -221q-96 -90 -227 -138t-279 -48q-145 0 -265 43q-124 44 -209 125q-87 83 -137 209q-51 130 -51 290q0 165 56 297t151 221q97 91 227 139t279 48zM764 1262
q-166 0 -249 -134t-83 -409q0 -111 23 -229q22 -115 69 -208q45 -91 120 -153q71 -59 171 -59q167 0 249 133q83 134 83 409q0 111 -23 229q-23 116 -69 209q-45 89 -120 152q-72 60 -171 60zM791 1434q-114 0 -185 59t-71 186h61q15 -43 67 -62q54 -20 128 -20t128 20
q51 19 66 62h62q0 -126 -72 -186q-71 -59 -184 -59z" />
    <glyph glyph-name="obreve" unicode="&#x14f;" horiz-adv-x="1175" 
d="M608 1044q231 0 358 -142q128 -143 128 -372q0 -118 -39 -220q-39 -101 -108 -175q-71 -75 -166 -115q-96 -40 -212 -40q-232 0 -359 142q-128 143 -128 372q0 118 39 220q39 103 107 175q71 75 166 115q96 40 214 40zM612 63q88 0 129 95q41 96 41 284q0 94 -12 185
q-12 92 -39 167q-27 74 -68 120q-42 47 -100 47q-88 0 -129 -95q-41 -96 -41 -284q0 -94 12 -185q12 -92 39 -167q26 -73 69 -120q42 -47 99 -47zM588 1178q-114 0 -185 71t-71 226h61q0 -69 60 -96t135 -27t135 27q59 27 59 96h62q0 -154 -72 -226q-71 -71 -184 -71z" />
    <glyph glyph-name="Ohungarumlaut" unicode="&#x150;" horiz-adv-x="1579" 
d="M815 1352q145 0 265 -43q122 -44 209 -126q87 -83 137 -209q51 -130 51 -290q0 -165 -56 -297t-151 -221q-96 -90 -227 -138t-279 -48q-145 0 -265 43q-124 44 -209 125q-87 83 -137 209q-51 130 -51 290q0 165 56 297t151 221q97 91 227 139t279 48zM764 1262
q-166 0 -249 -134t-83 -409q0 -111 23 -229q22 -115 69 -208q45 -91 120 -153q71 -59 171 -59q167 0 249 133q83 134 83 409q0 111 -23 229q-23 116 -69 209q-45 89 -120 152q-72 60 -171 60zM668 1434h-62l41 245h287zM991 1434h-61l41 245h286z" />
    <glyph glyph-name="ohungarumlaut" unicode="&#x151;" horiz-adv-x="1175" 
d="M608 1044q231 0 358 -142q128 -143 128 -372q0 -118 -39 -220q-39 -101 -108 -175q-71 -75 -166 -115q-96 -40 -212 -40q-232 0 -359 142q-128 143 -128 372q0 118 39 220q39 103 107 175q71 75 166 115q96 40 214 40zM612 63q88 0 129 95q41 96 41 284q0 94 -12 185
q-12 92 -39 167q-27 74 -68 120q-42 47 -100 47q-88 0 -129 -95q-41 -96 -41 -284q0 -94 12 -185q12 -92 39 -167q26 -73 69 -120q42 -47 99 -47zM424 1147h-62l62 369h225zM788 1147h-61l61 369h226z" />
    <glyph glyph-name="OE" unicode="&#x152;" horiz-adv-x="2109" 
d="M1333 635h-43v-553h221q184 0 283 84q98 83 148 305h45v-471h-1129q-356 0 -556 164t-200 457q0 158 62 291q62 134 164 225q103 92 239 143t285 51h1135v-471h-45q-50 222 -148 305q-99 84 -283 84h-221v-532h43q127 0 199 83q71 81 98 224h45v-696h-45q-27 143 -98 224
q-72 83 -199 83zM901 82h92v1167h-153q-94 0 -170 -49t-128 -131q-53 -83 -81 -191q-29 -111 -29 -227q0 -120 27 -225q27 -104 82 -180q56 -77 145 -120q91 -44 215 -44z" />
    <glyph glyph-name="oe" unicode="&#x153;" horiz-adv-x="1808" 
d="M608 1044q124 0 221 -44q98 -44 160 -123q60 73 158 121q93 46 213 46q95 0 164 -27q67 -26 114 -75q47 -48 67 -108q21 -62 21 -127v-52h-630q-2 -16 -2 -25v-28q0 -168 74 -275q75 -108 223 -108q65 0 114 24t85 61q37 38 59 86q21 44 32 99h43q0 -108 -28 -199
q-28 -93 -84 -162q-55 -68 -138 -109q-79 -39 -188 -39q-116 0 -201 42t-141 111q-69 -72 -165 -113q-93 -40 -210 -40q-232 0 -359 142q-128 143 -128 372q0 118 39 220q39 103 107 175q71 75 166 115q96 40 214 40zM1333 963q-91 0 -148 -66q-56 -65 -77 -160h299
q32 0 48 14q15 13 15 50q0 57 -31 109q-32 53 -106 53zM612 63q88 0 129 95q41 96 41 284q0 94 -12 185q-12 92 -39 167q-27 74 -68 120q-42 47 -100 47q-88 0 -129 -95q-41 -96 -41 -284q0 -94 12 -185q12 -92 39 -167q26 -73 69 -120q42 -47 99 -47z" />
    <glyph glyph-name="Racute" unicode="&#x154;" horiz-adv-x="1392" 
d="M51 1290v41h606q292 0 440 -83q146 -82 146 -236q0 -145 -110 -230q-112 -86 -273 -116q49 -7 92 -36q42 -28 76 -87l197 -336q52 -88 78 -122q28 -37 69 -44v-41h-379l-276 528q-27 50 -49 73q-22 24 -82 24h-84v-410q0 -97 36 -127q37 -31 117 -47v-41h-604v41
q81 16 118 47q36 30 36 127v901q0 97 -36 127q-37 31 -118 47zM614 1249h-112v-542h141q117 0 199 76t82 196q0 43 -13 95q-12 49 -46 87q-36 41 -94 64q-60 24 -157 24zM451 1475l491 204v-204l-491 -41v41z" />
    <glyph glyph-name="racute" unicode="&#x155;" horiz-adv-x="827" 
d="M776 758q-111 0 -180 -12q-70 -12 -135 -74v-457q0 -96 41 -129q40 -33 133 -45v-41h-594v41q70 15 101 46q32 32 32 128v635h-143v41l409 174v-330q77 175 163 242t163 67h20v-286h-10zM496 1147h-62l123 369h246z" />
    <glyph glyph-name="Rcommaaccent" unicode="&#x156;" horiz-adv-x="1392" 
d="M51 1290v41h606q292 0 440 -83q146 -82 146 -236q0 -145 -110 -230q-112 -86 -273 -116q49 -7 92 -36q42 -28 76 -87l197 -336q52 -88 78 -122q28 -37 69 -44v-41h-379l-276 528q-27 50 -49 73q-22 24 -82 24h-84v-410q0 -97 36 -127q37 -31 117 -47v-41h-604v41
q81 16 118 47q36 30 36 127v901q0 97 -36 127q-37 31 -118 47zM614 1249h-112v-542h141q117 0 199 76t82 196q0 43 -13 95q-12 49 -46 87q-36 41 -94 64q-60 24 -157 24zM553 -410h-61l81 287h226z" />
    <glyph glyph-name="rcommaaccent" unicode="&#x157;" horiz-adv-x="827" 
d="M776 758q-111 0 -180 -12q-70 -12 -135 -74v-457q0 -96 41 -129q40 -33 133 -45v-41h-594v41q70 15 101 46q32 32 32 128v635h-143v41l409 174v-330q77 175 163 242t163 67h20v-286h-10zM213 -410h-61l81 287h226z" />
    <glyph glyph-name="Rcaron" unicode="&#x158;" horiz-adv-x="1392" 
d="M51 1290v41h606q292 0 440 -83q146 -82 146 -236q0 -145 -110 -230q-112 -86 -273 -116q49 -7 92 -36q42 -28 76 -87l197 -336q52 -88 78 -122q28 -37 69 -44v-41h-379l-276 528q-27 50 -49 73q-22 24 -82 24h-84v-410q0 -97 36 -127q37 -31 117 -47v-41h-604v41
q81 16 118 47q36 30 36 127v901q0 97 -36 127q-37 31 -118 47zM614 1249h-112v-542h141q117 0 199 76t82 196q0 43 -13 95q-12 49 -46 87q-36 41 -94 64q-60 24 -157 24zM389 1679l307 -88l308 88v-41l-267 -204h-82l-266 204v41z" />
    <glyph glyph-name="rcaron" unicode="&#x159;" horiz-adv-x="827" 
d="M776 758q-111 0 -180 -12q-70 -12 -135 -74v-457q0 -96 41 -129q40 -33 133 -45v-41h-594v41q70 15 101 46q32 32 32 128v635h-143v41l409 174v-330q77 175 163 242t163 67h20v-286h-10zM700 1516h62l-246 -369h-82l-246 369h62l225 -179z" />
    <glyph glyph-name="Sacute" unicode="&#x15a;" horiz-adv-x="1157" 
d="M606 61q98 0 168 51q68 50 68 138q0 132 -116 194q-114 61 -254 117q-142 57 -254 140q-116 86 -116 266q0 171 131 278t351 107q133 0 232 -35q93 -33 173 -80v-367h-45q-27 101 -71 179q-42 73 -98 125q-51 47 -116 72q-61 24 -118 24q-95 0 -156 -46t-61 -116
q0 -120 114 -172q129 -59 251 -109q140 -57 251 -146q115 -92 115 -286q0 -190 -134 -303q-133 -112 -360 -112q-145 0 -250 31q-103 30 -188 83v418h45q22 -121 73 -209t112 -139q67 -55 130 -78q70 -25 123 -25zM332 1475l491 204v-204l-491 -41v41z" />
    <glyph glyph-name="sacute" unicode="&#x15b;" horiz-adv-x="907" 
d="M485 63q70 0 106 36t36 94q0 87 -84 130q-88 46 -185 89q-101 45 -184 115q-84 71 -84 210q0 148 106 228q104 79 261 79q92 0 163 -17q79 -19 160 -56v-326h-43q-77 174 -160 244q-86 72 -167 72q-57 0 -88 -31t-31 -78q0 -82 84 -123q102 -49 183 -86q98 -44 183 -119
q84 -74 84 -217q0 -157 -110 -242t-277 -85q-94 0 -173 16q-80 16 -169 57v326h43q77 -173 167 -244q92 -72 179 -72zM487 1147h-61l123 369h246z" />
    <glyph glyph-name="Scircumflex" unicode="&#x15c;" horiz-adv-x="1157" 
d="M606 61q98 0 168 51q68 50 68 138q0 132 -116 194q-114 61 -254 117q-142 57 -254 140q-116 86 -116 266q0 171 131 278t351 107q133 0 232 -35q93 -33 173 -80v-367h-45q-27 101 -71 179q-42 73 -98 125q-51 47 -116 72q-61 24 -118 24q-95 0 -156 -46t-61 -116
q0 -120 114 -172q129 -59 251 -109q140 -57 251 -146q115 -92 115 -286q0 -190 -134 -303q-133 -112 -360 -112q-145 0 -250 31q-103 30 -188 83v418h45q22 -121 73 -209t112 -139q67 -55 130 -78q70 -25 123 -25zM270 1434v41l267 204h82l266 -204v-41l-307 88z" />
    <glyph glyph-name="scircumflex" unicode="&#x15d;" horiz-adv-x="907" 
d="M485 63q70 0 106 36t36 94q0 87 -84 130q-88 46 -185 89q-101 45 -184 115q-84 71 -84 210q0 148 106 228q104 79 261 79q92 0 163 -17q79 -19 160 -56v-326h-43q-77 174 -160 244q-86 72 -167 72q-57 0 -88 -31t-31 -78q0 -82 84 -123q102 -49 183 -86q98 -44 183 -119
q84 -74 84 -217q0 -157 -110 -242t-277 -85q-94 0 -173 16q-80 16 -169 57v326h43q77 -173 167 -244q92 -72 179 -72zM242 1147h-62l246 369h82l246 -369h-62l-225 178z" />
    <glyph glyph-name="Scedilla" unicode="&#x15e;" horiz-adv-x="1157" 
d="M606 61q98 0 168 51q68 50 68 138q0 132 -116 194q-114 61 -254 117q-142 57 -254 140q-116 86 -116 266q0 171 131 278t351 107q133 0 232 -35q93 -33 173 -80v-367h-45q-27 101 -71 179q-42 73 -98 125q-51 47 -116 72q-61 24 -118 24q-95 0 -156 -46t-61 -116
q0 -120 114 -172q129 -59 251 -109q140 -57 251 -146q115 -92 115 -286q0 -171 -112 -281q-110 -109 -302 -130q-26 -22 -36 -38q-11 -16 -11 -30q0 -16 21 -34q7 -6 23.5 -19t24.5 -19q28 -23 47 -46q21 -26 21 -58q0 -57 -66 -114q-65 -56 -180 -56q-63 0 -109 24t-46 70
q0 26 12 44t27 30h28q29 -49 62 -79q31 -28 67 -28q19 0 32 10q11 8 11 25q0 21 -20 41q-28 28 -44 42t-44 44q-21 22 -21 43q0 31 31 62q37 37 86 82q-144 0 -247 31q-102 31 -187 83v418h45q22 -121 73 -209t112 -139q67 -55 130 -78q70 -25 123 -25z" />
    <glyph glyph-name="scedilla" unicode="&#x15f;" horiz-adv-x="907" 
d="M485 63q70 0 106 36t36 94q0 87 -84 130q-88 46 -185 89q-101 45 -184 115q-84 71 -84 210q0 148 106 228q104 79 261 79q92 0 163 -17q79 -19 160 -56v-326h-43q-77 174 -160 244q-86 72 -167 72q-57 0 -88 -31t-31 -78q0 -82 84 -123q102 -49 183 -86q98 -44 183 -119
q84 -74 84 -217q0 -137 -86 -220t-221 -101q-24 -20 -38 -39q-11 -15 -11 -31t21 -34q7 -6 23.5 -19t24.5 -19q28 -23 47 -46q21 -26 21 -58q0 -57 -66 -114q-65 -56 -180 -56q-62 0 -109 24q-46 24 -46 70q0 26 12 44t27 30h28q29 -49 62 -79q31 -28 67 -28q19 0 32 10
q11 8 11 25q0 21 -20 41q-28 28 -44 42t-44 44q-21 22 -21 43q0 31 31 62q37 37 86 82q-92 0 -169 16q-78 16 -167 57v326h43q77 -173 167 -244q92 -72 179 -72z" />
    <glyph glyph-name="Scaron" unicode="&#x160;" horiz-adv-x="1157" 
d="M606 61q98 0 168 51q68 50 68 138q0 132 -116 194q-114 61 -254 117q-142 57 -254 140q-116 86 -116 266q0 171 131 278t351 107q133 0 232 -35q93 -33 173 -80v-367h-45q-27 101 -71 179q-42 73 -98 125q-51 47 -116 72q-61 24 -118 24q-95 0 -156 -46t-61 -116
q0 -120 114 -172q129 -59 251 -109q140 -57 251 -146q115 -92 115 -286q0 -190 -134 -303q-133 -112 -360 -112q-145 0 -250 31q-103 30 -188 83v418h45q22 -121 73 -209t112 -139q67 -55 130 -78q70 -25 123 -25zM270 1679l308 -88l307 88v-41l-266 -204h-82l-267 204v41z
" />
    <glyph glyph-name="scaron" unicode="&#x161;" horiz-adv-x="907" 
d="M485 63q70 0 106 36t36 94q0 87 -84 130q-88 46 -185 89q-101 45 -184 115q-84 71 -84 210q0 148 106 228q104 79 261 79q92 0 163 -17q79 -19 160 -56v-326h-43q-77 174 -160 244q-86 72 -167 72q-57 0 -88 -31t-31 -78q0 -82 84 -123q102 -49 183 -86q98 -44 183 -119
q84 -74 84 -217q0 -157 -110 -242t-277 -85q-94 0 -173 16q-80 16 -169 57v326h43q77 -173 167 -244q92 -72 179 -72zM692 1516h62l-246 -369h-82l-246 369h62l225 -179z" />
    <glyph glyph-name="Tcommaaccent" unicode="&#x162;" horiz-adv-x="1431" 
d="M1059 0h-686v41q102 15 148 46t46 128v1034h-10q-184 0 -283 -84q-97 -82 -147 -305h-45v471h1268v-471h-45q-50 222 -148 305q-99 84 -283 84h-10v-1034q0 -97 46 -128q45 -31 149 -46v-41zM573 -410h-61l82 287h225z" />
    <glyph glyph-name="tcommaaccent" unicode="&#x163;" horiz-adv-x="768" 
d="M154 344v506h-144v31l393 430h37v-287h287v-174h-287v-455q0 -92 38 -150q38 -57 114 -57q50 0 81 27q32 28 50 84l43 -12q-30 -149 -107 -229q-75 -78 -200 -78q-154 0 -230 101q-75 100 -75 263zM315 -410h-61l82 287h225z" />
    <glyph glyph-name="Tcaron" unicode="&#x164;" horiz-adv-x="1431" 
d="M1059 0h-686v41q102 15 148 46t46 128v1034h-10q-184 0 -283 -84q-97 -82 -147 -305h-45v471h1268v-471h-45q-50 222 -148 305q-99 84 -283 84h-10v-1034q0 -97 46 -128q45 -31 149 -46v-41zM410 1679l307 -88l307 88v-41l-266 -204h-82l-266 204v41z" />
    <glyph glyph-name="tcaron" unicode="&#x165;" horiz-adv-x="768" 
d="M154 344v506h-144v31l393 430h37v-287h287v-174h-287v-455q0 -92 38 -150q38 -57 114 -57q50 0 81 27q32 28 50 84l43 -12q-30 -149 -107 -229q-75 -78 -200 -78q-154 0 -230 101q-75 100 -75 263zM614 1167h-61l61 369h226z" />
    <glyph glyph-name="Tbar" unicode="&#x166;" horiz-adv-x="1431" 
d="M307 707h260v542h-10q-184 0 -283 -84q-97 -82 -147 -305h-45v471h1268v-471h-45q-50 222 -148 305q-99 84 -283 84h-10v-542h260v-82h-260v-410q0 -97 46 -128q45 -31 149 -46v-41h-686v41q102 15 148 46t46 128v410h-260v82z" />
    <glyph glyph-name="tbar" unicode="&#x167;" horiz-adv-x="768" 
d="M154 344v219h-134v82h134v205h-144v31l393 430h37v-287h287v-174h-287v-205h234v-82h-234v-168q0 -92 38 -150q38 -57 114 -57q50 0 81 27q32 28 50 84l43 -12q-30 -149 -107 -229q-75 -78 -200 -78q-154 0 -230 101q-75 100 -75 263z" />
    <glyph glyph-name="Utilde" unicode="&#x168;" horiz-adv-x="1384" 
d="M918 1331h477v-41q-55 -11 -89 -25q-39 -16 -61 -42t-34 -72q-11 -41 -11 -117v-518q0 -259 -134 -398q-134 -138 -374 -138t-374 138q-134 139 -134 398v600q0 97 -36 127q-37 31 -117 47v41h604v-41q-81 -16 -118 -47q-36 -30 -36 -127v-600q0 -165 84 -251
q84 -85 232 -85q147 0 231 85q84 86 84 251v518q0 76 -11 117q-12 46 -34 72q-23 27 -60 42q-34 14 -89 25v41zM1073 1669q-17 -118 -53 -176q-37 -59 -119 -59q-39 0 -75 12q-27 9 -67 28q-28 13 -64 27q-31 12 -62 12q-38 0 -58 -17q-21 -18 -28 -52h-55q21 117 55 176
t117 59q38 0 74 -12q31 -10 68 -28q32 -15 63 -27q34 -13 63 -13q36 0 57 18q22 19 29 52h55z" />
    <glyph glyph-name="utilde" unicode="&#x169;" horiz-adv-x="1198" 
d="M1178 133l-410 -174v260q-113 -113 -206 -177q-90 -62 -193 -62q-106 0 -160 75q-55 76 -55 211v584h-144v41l430 174v-721q0 -78 28 -120q27 -40 79 -40q51 0 97 27q48 28 104 72v567h-144v41l430 174v-891h144v-41zM911 1485q-21 -140 -55 -208q-34 -69 -117 -69
q-36 0 -74 16q-40 17 -68 34q-35 22 -63 35q-34 16 -63 16q-36 0 -56 -23t-30 -67h-55q23 137 56 205q35 71 116 71q39 0 75 -15q32 -13 67 -35q32 -20 64 -35t62 -15q37 0 56 22t30 68h55z" />
    <glyph glyph-name="Umacron" unicode="&#x16a;" horiz-adv-x="1384" 
d="M918 1331h477v-41q-55 -11 -89 -25q-39 -16 -61 -42t-34 -72q-11 -41 -11 -117v-518q0 -259 -134 -398q-134 -138 -374 -138t-374 138q-134 139 -134 398v600q0 97 -36 127q-37 31 -117 47v41h604v-41q-81 -16 -118 -47q-36 -30 -36 -127v-600q0 -165 84 -251
q84 -85 232 -85q147 0 231 85q84 86 84 251v518q0 76 -11 117q-12 46 -34 72q-23 27 -60 42q-34 14 -89 25v41zM1008 1642v-192h-451v192h451z" />
    <glyph glyph-name="umacron" unicode="&#x16b;" horiz-adv-x="1198" 
d="M1178 133l-410 -174v260q-113 -113 -206 -177q-90 -62 -193 -62q-106 0 -160 75q-55 76 -55 211v584h-144v41l430 174v-721q0 -78 28 -120q27 -40 79 -40q51 0 97 27q48 28 104 72v567h-144v41l430 174v-891h144v-41zM846 1427v-192h-451v192h451z" />
    <glyph glyph-name="Ubreve" unicode="&#x16c;" horiz-adv-x="1384" 
d="M918 1331h477v-41q-55 -11 -89 -25q-39 -16 -61 -42t-34 -72q-11 -41 -11 -117v-518q0 -259 -134 -398q-134 -138 -374 -138t-374 138q-134 139 -134 398v600q0 97 -36 127q-37 31 -117 47v41h604v-41q-81 -16 -118 -47q-36 -30 -36 -127v-600q0 -165 84 -251
q84 -85 232 -85q147 0 231 85q84 86 84 251v518q0 76 -11 117q-12 46 -34 72q-23 27 -60 42q-34 14 -89 25v41zM782 1434q-113 0 -184 59q-72 60 -72 186h62q15 -43 66 -62q54 -20 128 -20t128 20q52 19 67 62h61q0 -127 -71 -186t-185 -59z" />
    <glyph glyph-name="ubreve" unicode="&#x16d;" horiz-adv-x="1198" 
d="M1178 133l-410 -174v260q-113 -113 -206 -177q-90 -62 -193 -62q-106 0 -160 75q-55 76 -55 211v584h-144v41l430 174v-721q0 -78 28 -120q27 -40 79 -40q51 0 97 27q48 28 104 72v567h-144v41l430 174v-891h144v-41zM621 1178q-114 0 -185 71t-71 226h61q0 -69 59 -96
q60 -27 136 -27q75 0 135 27q59 27 59 96h62q0 -154 -72 -226q-71 -71 -184 -71z" />
    <glyph glyph-name="Uring" unicode="&#x16e;" horiz-adv-x="1384" 
d="M918 1331h477v-41q-55 -11 -89 -25q-39 -16 -61 -42t-34 -72q-11 -41 -11 -117v-518q0 -259 -134 -398q-134 -138 -374 -138t-374 138q-134 139 -134 398v600q0 97 -36 127q-37 31 -117 47v41h604v-41q-81 -16 -118 -47q-36 -30 -36 -127v-600q0 -165 84 -251
q84 -85 232 -85q147 0 231 85q84 86 84 251v518q0 76 -11 117q-12 46 -34 72q-23 27 -60 42q-34 14 -89 25v41zM782 1413q-107 0 -180 37q-74 38 -74 106q0 69 74 107q73 37 180 37q108 0 181 -37t73 -107q0 -69 -73 -106t-181 -37zM782 1622q-38 0 -58 -16q-22 -17 -22 -50
q0 -32 22 -49q20 -16 58 -16q39 0 59 16q21 17 21 49q0 34 -21 50q-20 16 -59 16z" />
    <glyph glyph-name="uring" unicode="&#x16f;" horiz-adv-x="1198" 
d="M1178 133l-410 -174v260q-113 -113 -206 -177q-90 -62 -193 -62q-106 0 -160 75q-55 76 -55 211v584h-144v41l430 174v-721q0 -78 28 -120q27 -40 79 -40q51 0 97 27q48 28 104 72v567h-144v41l430 174v-891h144v-41zM621 1167q-108 0 -181 43t-73 121t73 121t181 43
q107 0 180 -43t73 -121t-73 -121t-180 -43zM621 1417q-38 0 -59 -21t-21 -65q0 -43 21 -64q22 -22 59 -22q36 0 58 22q21 21 21 64q0 44 -21 65t-58 21z" />
    <glyph glyph-name="Uhungarumlaut" unicode="&#x170;" horiz-adv-x="1384" 
d="M918 1331h477v-41q-55 -11 -89 -25q-39 -16 -61 -42t-34 -72q-11 -41 -11 -117v-518q0 -259 -134 -398q-134 -138 -374 -138t-374 138q-134 139 -134 398v600q0 97 -36 127q-37 31 -117 47v41h604v-41q-81 -16 -118 -47q-36 -30 -36 -127v-600q0 -165 84 -251
q84 -85 232 -85q147 0 231 85q84 86 84 251v518q0 76 -11 117q-12 46 -34 72q-23 27 -60 42q-34 14 -89 25v41zM659 1434h-61l41 245h287zM983 1434h-61l41 245h286z" />
    <glyph glyph-name="uhungarumlaut" unicode="&#x171;" horiz-adv-x="1198" 
d="M1178 133l-410 -174v260q-113 -113 -206 -177q-90 -62 -193 -62q-106 0 -160 75q-55 76 -55 211v584h-144v41l430 174v-721q0 -78 28 -120q27 -40 79 -40q51 0 97 27q48 28 104 72v567h-144v41l430 174v-891h144v-41zM457 1147h-62l62 369h225zM821 1147h-61l61 369h226z
" />
    <glyph glyph-name="Uogonek" unicode="&#x172;" horiz-adv-x="1384" 
d="M659 -430q-70 0 -128 41q-56 40 -56 115q0 83 62 143q60 58 131 111q-229 7 -357 145q-127 136 -127 391v600q0 97 -36 127q-37 31 -117 47v41h604v-41q-81 -16 -118 -47q-36 -30 -36 -127v-600q0 -165 84 -251q84 -85 232 -85q147 0 231 85q84 86 84 251v518
q0 76 -11 117q-12 46 -34 72q-23 27 -60 42q-33 13 -90 25v41h478v-41q-55 -11 -89 -25q-39 -16 -61 -42t-34 -72q-11 -41 -11 -117v-518q0 -241 -116 -378q-114 -135 -324 -156q-54 -57 -79 -104q-26 -49 -26 -93q0 -47 27 -68q26 -20 61 -20q33 0 65 15q31 15 56 46
l35 -24q-47 -77 -103 -120q-58 -44 -137 -44z" />
    <glyph glyph-name="uogonek" unicode="&#x173;" horiz-adv-x="1198" 
d="M1178 137q-162 -72 -249 -162t-87 -190q0 -48 26 -68t62 -20q32 0 64 15q33 16 57 46l34 -24q-47 -77 -103 -120q-58 -44 -136 -44q-70 0 -128 41q-56 40 -56 115q0 57 30 104q29 46 76 86v303q-113 -113 -206 -177q-90 -62 -193 -62q-106 0 -160 75q-55 76 -55 211v584
h-144v41l430 174v-721q0 -78 28 -120q27 -40 79 -40q51 0 97 27q48 28 104 72v567h-144v41l430 174v-891h144v-37z" />
    <glyph glyph-name="Wcircumflex" unicode="&#x174;" horiz-adv-x="1953" 
d="M1331 -20l-356 978l-352 -978h-43l-398 1085q-40 110 -69 157q-27 45 -82 68v41h518v-41q-70 -11 -90 -66q-21 -57 18 -167l217 -629l230 672q-39 100 -77 138q-37 37 -81 52v41h547v-41q-73 -11 -98 -63t14 -170l217 -631l219 616q50 137 22 186q-26 47 -122 62v41h389
v-41q-59 -22 -106 -83q-50 -65 -95 -191l-379 -1036h-43zM729 1434v41l266 204h82l266 -204v-41l-307 88z" />
    <glyph glyph-name="wcircumflex" unicode="&#x175;" horiz-adv-x="1519" 
d="M1006 -20l-248 673l-244 -673h-43l-289 778q-39 107 -69 156q-28 46 -82 69v41h487v-41q-48 -7 -68 -67t17 -166l119 -351l127 377l-2 6q-39 105 -71 146q-31 40 -71 55v41h496v-41q-55 -7 -79 -65q-24 -57 15 -168l119 -353l121 338q47 137 22 186q-26 50 -102 62v41
h359v-41q-60 -22 -105 -83q-47 -64 -96 -191l-270 -729h-43zM588 1147h-62l246 369h82l246 -369h-62l-225 178z" />
    <glyph glyph-name="Ycircumflex" unicode="&#x176;" horiz-adv-x="1359" 
d="M997 0h-604v41q81 16 118 47q36 30 36 127v203l-271 571q-74 157 -125 214q-53 59 -120 87v41h590v-41q-65 -8 -92 -68t24 -165l240 -492l233 488q51 106 16 165q-34 57 -122 72v41h440v-41q-98 -38 -149 -102q-49 -62 -113 -191l-254 -524v-258q0 -97 36 -127
q37 -31 117 -47v-41zM471 1434v41l266 204h82l266 -204v-41l-307 88z" />
    <glyph glyph-name="ycircumflex" unicode="&#x177;" horiz-adv-x="1105" 
d="M580 -25q-57 -140 -149 -222q-91 -81 -202 -81q-39 0 -69 6q-14 3 -58 15v254q43 -18 81 -26q41 -9 83 -9q74 0 141 22q68 22 109 86l-270 662q-63 154 -110 214q-47 61 -105 87v41h553v-41q-64 -8 -85 -68q-21 -61 17 -165l141 -375l119 317q56 150 21 216
q-35 67 -99 75v41h408v-41q-31 -13 -62 -34q-30 -21 -62 -59q-34 -40 -67 -98q-31 -53 -71 -155zM416 1147h-62l246 369h82l246 -369h-62l-225 178z" />
    <glyph glyph-name="Ydieresis" unicode="&#x178;" horiz-adv-x="1359" 
d="M997 0h-604v41q81 16 118 47q36 30 36 127v203l-271 571q-74 157 -125 214q-53 59 -120 87v41h590v-41q-65 -8 -92 -68t24 -165l240 -492l233 488q51 106 16 165q-34 57 -122 72v41h440v-41q-98 -38 -149 -102q-49 -62 -113 -191l-254 -524v-258q0 -97 36 -127
q37 -31 117 -47v-41zM592 1688q60 0 97 -39q38 -40 38 -93q0 -52 -38 -92q-37 -39 -97 -39t-97 39q-38 40 -38 92q0 53 38 93q38 39 97 39zM965 1688q59 0 97 -39q38 -40 38 -93q0 -52 -38 -92q-38 -39 -97 -39q-61 0 -98 39q-38 40 -38 92q0 53 38 93q37 39 98 39z" />
    <glyph glyph-name="Zacute" unicode="&#x179;" horiz-adv-x="1181" 
d="M82 0v41l668 1208h-162q-184 0 -283 -84q-97 -82 -147 -305h-45v471h987v-41l-668 -1208h193q183 0 282 84q98 83 148 305h45v-471h-1018zM377 1475l491 204v-204l-491 -41v41z" />
    <glyph glyph-name="zacute" unicode="&#x17a;" horiz-adv-x="960" 
d="M61 0v41l498 901h-84q-150 0 -226 -76q-77 -77 -122 -272h-45v430h817v-41l-498 -901h105q150 0 226 76q77 77 122 272h45v-430h-838zM543 1147h-62l123 369h246z" />
    <glyph glyph-name="Zdotaccent" unicode="&#x17b;" horiz-adv-x="1181" 
d="M82 0v41l668 1208h-162q-184 0 -283 -84q-97 -82 -147 -305h-45v471h987v-41l-668 -1208h193q183 0 282 84q98 83 148 305h45v-471h-1018zM623 1710q67 0 111 -44t44 -110q0 -65 -44 -109t-111 -44q-68 0 -112 44t-44 109q0 66 44 110t112 44z" />
    <glyph glyph-name="zdotaccent" unicode="&#x17c;" horiz-adv-x="960" 
d="M61 0v41l498 901h-84q-150 0 -226 -76q-77 -77 -122 -272h-45v430h817v-41l-498 -901h105q150 0 226 76q77 77 122 272h45v-430h-838zM522 1485q68 0 112 -44t44 -110q0 -65 -44 -109t-112 -44q-67 0 -111 44t-44 109q0 66 44 110t111 44z" />
    <glyph glyph-name="Zcaron" unicode="&#x17d;" horiz-adv-x="1181" 
d="M82 0v41l668 1208h-162q-184 0 -283 -84q-97 -82 -147 -305h-45v471h987v-41l-668 -1208h193q183 0 282 84q98 83 148 305h45v-471h-1018zM315 1679l308 -88l307 88v-41l-266 -204h-82l-267 204v41z" />
    <glyph glyph-name="zcaron" unicode="&#x17e;" horiz-adv-x="960" 
d="M61 0v41l498 901h-84q-150 0 -226 -76q-77 -77 -122 -272h-45v430h817v-41l-498 -901h105q150 0 226 76q77 77 122 272h45v-430h-838zM748 1516h61l-246 -369h-82l-245 369h61l225 -179z" />
    <glyph glyph-name="Aringacute" unicode="&#x1fa;" horiz-adv-x="1380" 
d="M416 41v-41h-416v41q90 33 141 99q53 68 103 194l422 1038h47l422 -1030q64 -157 109 -214q47 -60 106 -87v-41h-559v41q63 7 87 68q23 59 -20 165l-14 37h-516l-13 -32q-44 -108 -13 -166q30 -57 114 -72zM397 485h377l-188 480zM690 1413q-107 0 -180 37
q-74 38 -74 106q0 69 74 107q73 37 180 37t180 -37q74 -38 74 -107q0 -68 -74 -106q-73 -37 -180 -37zM690 1622q-38 0 -58 -16q-22 -17 -22 -50q0 -32 22 -49q20 -16 58 -16q39 0 59 16q21 17 21 49q0 34 -21 50q-20 16 -59 16zM444 1782l492 205v-205l-492 -41v41z" />
    <glyph glyph-name="aringacute" unicode="&#x1fb;" horiz-adv-x="1054" 
d="M305 627q-44 -27 -95 -42q-55 -17 -104 -18q-19 52 -8 99t39 89q27 40 73 81q35 31 89 71q94 69 163 103t154 34q136 0 195 -71t59 -176v-492q0 -77 24 -109t62 -32q34 0 60 20q28 22 45 47l39 -32q-57 -95 -122 -152q-64 -57 -165 -57q-70 0 -134 46q-66 47 -73 183
q-34 -114 -122 -177q-86 -62 -195 -62t-168 56q-60 57 -60 146q0 69 41 130q41 60 170 128l312 162v105q0 87 -29 139q-29 51 -104 51q-39 0 -74 -18t-58 -54q-22 -33 -28 -85t14 -113zM311 270q0 -44 28 -75t77 -31q70 0 119 61t49 162v125l-76 -37q-108 -51 -154 -97
q-43 -43 -43 -108zM543 1167q-108 0 -181 43t-73 121t73 121t181 43q107 0 180 -43q74 -44 74 -121t-74 -121q-73 -43 -180 -43zM543 1417q-38 0 -59 -21t-21 -65q0 -43 21 -64q22 -22 59 -22q36 0 58 22t22 64q0 43 -22 65q-21 21 -58 21zM563 1147h-61l123 369h245z" />
    <glyph glyph-name="AEacute" unicode="&#x1fc;" horiz-adv-x="2156" 
d="M887 1290v41h1147v-471h-45q-50 222 -148 305q-99 84 -282 84h-222v-532h43q127 0 199 83q71 81 98 224h45v-696h-45q-27 143 -98 224q-72 83 -199 83h-43v-553h222q183 0 282 84q98 83 148 305h45v-471h-1147v41q81 16 118 47q35 29 35 127v117h-589l-39 -53
q-80 -112 -69 -167q12 -56 91 -71v-41h-434v41q101 33 173 99t167 194l668 907q-17 19 -50 31q-29 10 -71 18zM1040 1116v20q0 7 -2 17l-463 -647h465v610zM1130 1475l492 204v-204l-492 -41v41z" />
    <glyph glyph-name="aeacute" unicode="&#x1fd;" horiz-adv-x="1595" 
d="M1503 707v-52h-631q-2 -16 -2 -25v-28q0 -167 75 -275t222 -108q65 0 115 24q49 24 85 61q35 36 58 86q23 48 33 99h43q0 -108 -28 -199q-29 -93 -84 -162q-54 -67 -139 -109q-79 -39 -187 -39q-172 0 -278 89q-105 89 -144 228q-17 -150 -115 -234q-98 -83 -227 -83
q-113 0 -175 56q-63 57 -63 146q0 69 41 130q41 60 170 128l312 162v105q0 87 -29 139q-29 51 -104 51q-39 0 -74 -18t-58 -54q-22 -33 -28 -85t14 -113q-44 -27 -95 -42q-55 -17 -104 -18q-19 52 -8 99t39 89q27 40 73 81q35 31 89 71q94 69 163 103t154 34q83 0 137 -27
q53 -26 81 -75q64 50 136 75q76 27 167 27q94 0 163 -27q68 -27 115 -75t67 -108q21 -62 21 -127zM1110 963q-91 0 -148 -66q-56 -65 -77 -160h299q32 0 48 14q15 13 15 50q0 56 -32 109t-105 53zM311 270q0 -44 28 -75t77 -31q70 0 119 61t49 162v125l-76 -37
q-108 -51 -154 -97q-43 -43 -43 -108zM840 1147h-62l123 369h246z" />
    <glyph glyph-name="Oslashacute" unicode="&#x1fe;" horiz-adv-x="1579" 
d="M815 1352q128 0 242 -35q110 -34 198 -105l113 119h109l-164 -172q77 -83 121 -203q43 -117 43 -272q0 -165 -56 -297t-151 -221q-96 -90 -227 -138t-279 -48q-131 0 -243 34q-110 33 -199 105l-111 -119h-109l162 174q-75 81 -119 201q-43 117 -43 272q0 165 56 297
t151 221q97 91 227 139t279 48zM764 1262q-166 0 -249 -134t-83 -409q0 -82 12 -166q11 -80 35 -160l588 629q-44 103 -122 172q-77 68 -181 68zM1147 612q0 82 -12 167q-11 78 -37 161l-588 -629q45 -102 124 -173q75 -68 181 -68q167 0 249 133q83 134 83 409zM545 1475
l491 204v-204l-491 -41v41z" />
    <glyph glyph-name="oslashacute" unicode="&#x1ff;" horiz-adv-x="1175" 
d="M608 1044q96 0 169 -23q77 -24 134 -69l64 72h119l-117 -133q57 -67 87 -159t30 -202q0 -118 -39 -220q-39 -101 -108 -175q-71 -75 -166 -115q-96 -40 -212 -40q-98 0 -171 23q-77 24 -134 69l-63 -72h-119l117 133q-57 67 -87 159q-30 91 -30 202q0 118 39 220
q39 103 107 175q71 75 166 115q96 40 214 40zM393 582q0 -57 4 -104q3 -35 13 -103l333 383q-27 90 -71 145q-46 58 -109 58q-88 0 -129 -95q-41 -96 -41 -284zM612 63q88 0 129 95q41 96 41 284q0 57 -4 104q-4 51 -12 103l-334 -383q27 -88 72 -145q46 -58 108 -58z
M608 1147h-61l123 369h245z" />
    <glyph glyph-name="Scommaaccent" unicode="&#x218;" horiz-adv-x="1157" 
d="M606 61q98 0 168 51q68 50 68 138q0 132 -116 194q-114 61 -254 117q-142 57 -254 140q-116 86 -116 266q0 171 131 278t351 107q133 0 232 -35q93 -33 173 -80v-367h-45q-27 101 -71 179q-42 73 -98 125q-51 47 -116 72q-61 24 -118 24q-95 0 -156 -46t-61 -116
q0 -120 114 -172q129 -59 251 -109q140 -57 251 -146q115 -92 115 -286q0 -190 -134 -303q-133 -112 -360 -112q-145 0 -250 31q-103 30 -188 83v418h45q22 -121 73 -209t112 -139q67 -55 130 -78q70 -25 123 -25zM436 -410h-61l82 287h225z" />
    <glyph glyph-name="scommaaccent" unicode="&#x219;" horiz-adv-x="907" 
d="M485 63q70 0 106 36t36 94q0 87 -84 130q-88 46 -185 89q-101 45 -184 115q-84 71 -84 210q0 148 106 228q104 79 261 79q92 0 163 -17q79 -19 160 -56v-326h-43q-77 174 -160 244q-86 72 -167 72q-57 0 -88 -31t-31 -78q0 -82 84 -123q102 -49 183 -86q98 -44 183 -119
q84 -74 84 -217q0 -157 -110 -242t-277 -85q-94 0 -173 16q-80 16 -169 57v326h43q77 -173 167 -244q92 -72 179 -72zM311 -410h-61l82 287h225z" />
    <glyph glyph-name="uni021A" unicode="&#x21a;" horiz-adv-x="1431" 
d="M1059 0h-686v41q102 15 148 46t46 128v1034h-10q-184 0 -283 -84q-97 -82 -147 -305h-45v471h1268v-471h-45q-50 222 -148 305q-99 84 -283 84h-10v-1034q0 -97 46 -128q45 -31 149 -46v-41zM573 -410h-61l82 287h225z" />
    <glyph glyph-name="uni021B" unicode="&#x21b;" horiz-adv-x="768" 
d="M154 344v506h-144v31l393 430h37v-287h287v-174h-287v-455q0 -92 38 -150q38 -57 114 -57q50 0 81 27q32 28 50 84l43 -12q-30 -149 -107 -229q-75 -78 -200 -78q-154 0 -230 101q-75 100 -75 263zM315 -410h-61l82 287h225z" />
    <glyph glyph-name="dotlessj" unicode="&#x237;" horiz-adv-x="614" 
d="M174 59v791h-143v41l430 174v-983q0 -90 -24 -153q-23 -61 -77 -107q-53 -46 -140 -80q-96 -38 -210 -70v45q50 24 88 52q32 23 49 60q18 39 22 90q5 60 5 140z" />
    <glyph glyph-name="circumflex" unicode="&#x2c6;" horiz-adv-x="1024" 
d="M287 1147h-62l246 369h82l246 -369h-62l-225 178z" />
    <glyph glyph-name="caron" unicode="&#x2c7;" horiz-adv-x="1024" 
d="M737 1516h62l-246 -369h-82l-246 369h62l225 -179z" />
    <glyph glyph-name="breve" unicode="&#x2d8;" horiz-adv-x="1024" 
d="M512 1178q-113 0 -184 71q-72 72 -72 226h61q0 -69 60 -96t135 -27t135 27t60 96h61q0 -154 -72 -226q-71 -71 -184 -71z" />
    <glyph glyph-name="dotaccent" unicode="&#x2d9;" horiz-adv-x="1024" 
d="M512 1485q68 0 112 -44t44 -110q0 -65 -44 -109t-112 -44t-112 44t-44 109q0 66 44 110t112 44z" />
    <glyph glyph-name="ring" unicode="&#x2da;" horiz-adv-x="1024" 
d="M512 1167q-107 0 -180 43q-74 44 -74 121t74 121q73 43 180 43t180 -43q74 -44 74 -121t-74 -121q-73 -43 -180 -43zM512 1417q-37 0 -58 -21q-22 -22 -22 -65q0 -42 22 -64t58 -22t58 22t22 64q0 43 -22 65q-21 21 -58 21z" />
    <glyph glyph-name="ogonek" unicode="&#x2db;" horiz-adv-x="1024" 
d="M473 -215q0 -47 27 -68q26 -20 61 -20q33 0 65 15q31 15 56 46l35 -24q-46 -76 -104 -120t-136 -44q-70 0 -128 41q-56 40 -56 115q0 47 20 84q19 36 53 71q33 34 70 63q26 20 76 56h82q-59 -59 -91 -115q-30 -52 -30 -100z" />
    <glyph glyph-name="tilde" unicode="&#x2dc;" horiz-adv-x="1024" 
d="M803 1485q-21 -140 -55 -208q-34 -69 -117 -69q-37 0 -75 16q-40 17 -68 34q-35 22 -63 35q-34 16 -63 16q-36 0 -56 -23t-30 -67h-55q22 134 57 205t115 71q39 0 75 -15q35 -15 68 -35q35 -22 63 -35q31 -15 63 -15q37 0 56 22t30 68h55z" />
    <glyph glyph-name="hungarumlaut" unicode="&#x2dd;" horiz-adv-x="1024" 
d="M348 1147h-61l61 369h225zM713 1147h-62l62 369h225z" />
    <glyph glyph-name="caronSlovak" unicode="&#x30c;" horiz-adv-x="1024" 
d="M573 963h-61l61 368h226z" />
    <glyph glyph-name="commaaccent" unicode="&#x326;" horiz-adv-x="1024" 
d="M369 -410h-62l82 287h225z" />
    <glyph glyph-name="Wgrave" unicode="&#x1e80;" horiz-adv-x="1953" 
d="M1331 -20l-356 978l-352 -978h-43l-398 1085q-40 110 -69 157q-27 45 -82 68v41h518v-41q-70 -11 -90 -66q-21 -57 18 -167l217 -629l230 672q-39 100 -77 138q-37 37 -81 52v41h547v-41q-73 -11 -98 -63t14 -170l217 -631l219 616q50 137 22 186q-26 47 -122 62v41h389
v-41q-59 -22 -106 -83q-50 -65 -95 -191l-379 -1036h-43zM1280 1475v-41l-492 41v204z" />
    <glyph glyph-name="wgrave" unicode="&#x1e81;" horiz-adv-x="1519" 
d="M1006 -20l-248 673l-244 -673h-43l-289 778q-39 107 -69 156q-28 46 -82 69v41h487v-41q-48 -7 -68 -67t17 -166l119 -351l127 377l-2 6q-39 105 -71 146q-31 40 -71 55v41h496v-41q-55 -7 -79 -65q-24 -57 15 -168l119 -353l121 338q47 137 22 186q-26 50 -102 62v41
h359v-41q-60 -22 -105 -83q-47 -64 -96 -191l-270 -729h-43zM793 1147l-308 369h246l123 -369h-61z" />
    <glyph glyph-name="Wacute" unicode="&#x1e82;" horiz-adv-x="1953" 
d="M1331 -20l-356 978l-352 -978h-43l-398 1085q-40 110 -69 157q-27 45 -82 68v41h518v-41q-70 -11 -90 -66q-21 -57 18 -167l217 -629l230 672q-39 100 -77 138q-37 37 -81 52v41h547v-41q-73 -11 -98 -63t14 -170l217 -631l219 616q50 137 22 186q-26 47 -122 62v41h389
v-41q-59 -22 -106 -83q-50 -65 -95 -191l-379 -1036h-43zM791 1475l491 204v-204l-491 -41v41z" />
    <glyph glyph-name="wacute" unicode="&#x1e83;" horiz-adv-x="1519" 
d="M1006 -20l-248 673l-244 -673h-43l-289 778q-39 107 -69 156q-28 46 -82 69v41h487v-41q-48 -7 -68 -67t17 -166l119 -351l127 377l-2 6q-39 105 -71 146q-31 40 -71 55v41h496v-41q-55 -7 -79 -65q-24 -57 15 -168l119 -353l121 338q47 137 22 186q-26 50 -102 62v41
h359v-41q-60 -22 -105 -83q-47 -64 -96 -191l-270 -729h-43zM834 1147h-62l123 369h246z" />
    <glyph glyph-name="Wdieresis" unicode="&#x1e84;" horiz-adv-x="1953" 
d="M1331 -20l-356 978l-352 -978h-43l-398 1085q-40 110 -69 157q-27 45 -82 68v41h518v-41q-70 -11 -90 -66q-21 -57 18 -167l217 -629l230 672q-39 100 -77 138q-37 37 -81 52v41h547v-41q-73 -11 -98 -63t14 -170l217 -631l219 616q50 137 22 186q-26 47 -122 62v41h389
v-41q-59 -22 -106 -83q-50 -65 -95 -191l-379 -1036h-43zM850 1688q60 0 97 -39q38 -40 38 -93q0 -52 -38 -92q-37 -39 -97 -39t-97 39q-38 40 -38 92q0 53 38 93q37 39 97 39zM1223 1688q59 0 97 -39q38 -40 38 -93q0 -52 -38 -92q-38 -39 -97 -39q-61 0 -98 39
q-38 40 -38 92q0 53 38 93q37 39 98 39z" />
    <glyph glyph-name="wdieresis" unicode="&#x1e85;" horiz-adv-x="1519" 
d="M1006 -20l-248 673l-244 -673h-43l-289 778q-39 107 -69 156q-28 46 -82 69v41h487v-41q-48 -7 -68 -67t17 -166l119 -351l127 377l-2 6q-39 105 -71 146q-31 40 -71 55v41h496v-41q-55 -7 -79 -65q-24 -57 15 -168l119 -353l121 338q47 137 22 186q-26 50 -102 62v41
h359v-41q-60 -22 -105 -83q-47 -64 -96 -191l-270 -729h-43zM627 1462q59 0 97 -39q38 -40 38 -92t-38 -92q-38 -39 -97 -39q-61 0 -98 39q-37 38 -37 92t37 92q37 39 98 39zM999 1462q61 0 98 -39q38 -40 38 -92t-38 -92q-37 -39 -98 -39q-59 0 -97 39q-38 40 -38 92t38 92
q38 39 97 39z" />
    <glyph glyph-name="Ygrave" unicode="&#x1ef2;" horiz-adv-x="1359" 
d="M997 0h-604v41q81 16 118 47q36 30 36 127v203l-271 571q-74 157 -125 214q-53 59 -120 87v41h590v-41q-65 -8 -92 -68t24 -165l240 -492l233 488q51 106 16 165q-34 57 -122 72v41h440v-41q-98 -38 -149 -102q-49 -62 -113 -191l-254 -524v-258q0 -97 36 -127
q37 -31 117 -47v-41zM1022 1475v-41l-492 41v204z" />
    <glyph glyph-name="ygrave" unicode="&#x1ef3;" horiz-adv-x="1105" 
d="M580 -25q-57 -140 -149 -222q-91 -81 -202 -81q-39 0 -69 6q-14 3 -58 15v254q43 -18 81 -26q41 -9 83 -9q74 0 141 22q68 22 109 86l-270 662q-63 154 -110 214q-47 61 -105 87v41h553v-41q-64 -8 -85 -68q-21 -61 17 -165l141 -375l119 317q56 150 21 216
q-35 67 -99 75v41h408v-41q-31 -13 -62 -34q-30 -21 -62 -59q-34 -40 -67 -98q-31 -53 -71 -155zM621 1147l-308 369h246l123 -369h-61z" />
    <glyph glyph-name="en_space" unicode="&#x2002;" horiz-adv-x="1024" 
 />
    <glyph glyph-name="em_space" unicode="&#x2003;" horiz-adv-x="2048" 
 />
    <glyph glyph-name="threeperem_space" unicode="&#x2004;" horiz-adv-x="681" 
 />
    <glyph glyph-name="fourperem_space" unicode="&#x2005;" horiz-adv-x="512" 
 />
    <glyph glyph-name="figure_space" unicode="&#x2007;" 
 />
    <glyph glyph-name="thin_space" unicode="&#x2009;" horiz-adv-x="256" 
 />
    <glyph glyph-name="hair_space" unicode="&#x200a;" horiz-adv-x="204" 
 />
    <glyph glyph-name="endash" unicode="&#x2013;" horiz-adv-x="1064" 
d="M123 676h819v-82h-819v82z" />
    <glyph glyph-name="emdash" unicode="&#x2014;" horiz-adv-x="1884" 
d="M123 676h1638v-82h-1638v82z" />
    <glyph glyph-name="quoteleft" unicode="&#x2018;" horiz-adv-x="495" 
d="M358 729h-297v41l322 561h51z" />
    <glyph glyph-name="quoteright" unicode="&#x2019;" horiz-adv-x="495" 
d="M137 1331h297v-41l-321 -561h-52z" />
    <glyph glyph-name="quotesinglbase" unicode="&#x201a;" horiz-adv-x="516" 
d="M137 295h297v-41l-321 -561h-52z" />
    <glyph glyph-name="quotedblleft" unicode="&#x201c;" horiz-adv-x="905" 
d="M358 729h-297v41l322 561h51zM768 729h-297v41l322 561h51z" />
    <glyph glyph-name="quotedblright" unicode="&#x201d;" horiz-adv-x="905" 
d="M137 1331h297v-41l-321 -561h-52zM547 1331h297v-41l-322 -561h-51z" />
    <glyph glyph-name="quotedblbase" unicode="&#x201e;" horiz-adv-x="925" 
d="M137 295h297v-41l-321 -561h-52zM547 295h297v-41l-322 -561h-51z" />
    <glyph glyph-name="dagger" unicode="&#x2020;" horiz-adv-x="802" 
d="M526 655l-104 -962h-41l-107 962l95 306l-306 -95v252l308 -96l-97 309h252l-98 -311l311 98v-252l-309 97z" />
    <glyph glyph-name="daggerdbl" unicode="&#x2021;" horiz-adv-x="802" 
d="M63 158l306 -95l-95 306v286l95 306l-306 -95v252l308 -96l-97 309h252l-98 -311l311 98v-252l-309 97l96 -308v-286l-96 -308l309 97v-252l-311 98l98 -311h-252l97 309l-308 -96v252z" />
    <glyph glyph-name="bullet" unicode="&#x2022;" horiz-adv-x="1024" 
d="M512 1044q181 0 295 -115q115 -117 115 -294t-115 -294q-114 -116 -295 -116t-295 116q-115 117 -115 294t115 294q114 115 295 115z" />
    <glyph glyph-name="triangularbullet" unicode="&#x2023;" horiz-adv-x="1024" 
d="M307 1106l615 -471l-615 -471v942z" />
    <glyph glyph-name="ellipsis" unicode="&#x2026;" horiz-adv-x="1437" 
d="M268 -20q-71 0 -118 47q-48 48 -48 116q0 69 48 117q47 47 118 47q72 0 119 -47t47 -117q0 -69 -47 -116t-119 -47zM719 -20q-72 0 -119 47t-47 116q0 70 47 117t119 47t119 -47t47 -117q0 -69 -47 -116t-119 -47zM1169 -20q-71 0 -118 47t-47 116q0 70 47 117t118 47
q72 0 119 -47t47 -117q0 -69 -47 -116t-119 -47z" />
    <glyph glyph-name="guilsinglleft" unicode="&#x2039;" horiz-adv-x="675" 
d="M102 672l404 352h67l-208 -389l208 -389h-67l-404 352v74z" />
    <glyph glyph-name="guilsinglright" unicode="&#x203a;" horiz-adv-x="675" 
d="M573 598l-403 -352h-68l209 389l-209 389h68l403 -352v-74z" />
    <glyph glyph-name="word_joiner" unicode="&#x2060;" horiz-adv-x="409" 
 />
    <glyph glyph-name="parenleft.sup" unicode="&#x207d;" horiz-adv-x="514" 
d="M303 1059q0 -215 56 -346q57 -134 145 -232l-31 -32q-70 51 -137 112q-65 59 -115 132q-48 70 -79 163q-29 87 -29 203t29 203q30 91 79 162q50 73 115 132q73 66 137 113l31 -33q-89 -99 -145 -231q-56 -131 -56 -346z" />
    <glyph glyph-name="parenright.sup" unicode="&#x207e;" horiz-adv-x="514" 
d="M211 1059q0 215 -56 346q-56 132 -145 231l31 33q64 -47 137 -113q65 -59 115 -132q49 -71 79 -162q29 -87 29 -203t-29 -203q-31 -93 -79 -163q-50 -73 -115 -132q-67 -61 -137 -112l-31 32q88 98 145 232q56 131 56 346z" />
    <glyph glyph-name="Euro" unicode="&#x20ac;" horiz-adv-x="1071" 
d="M61 522h134q-6 43 -8 70q-3 38 -3 74t3 73q2 27 8 70h-134v82h148q50 210 184 335q135 126 324 126q172 0 253 -48t81 -112q0 -40 -18 -77q-18 -38 -48 -68h-41q-69 123 -119 173t-108 50q-82 0 -139 -81t-78 -298h319v-82h-323q-2 -33 -3 -69q-1 -24 -1 -74q0 -51 1 -75
q1 -36 3 -69h323v-82h-319q21 -217 78 -298t139 -81q57 0 108 51q50 50 119 173h41q29 -29 48 -69q18 -37 18 -77q0 -63 -81 -111t-253 -48q-190 0 -324 125t-184 335h-148v82z" />
    <glyph glyph-name="rublesign" unicode="&#x20bd;" horiz-adv-x="1255" 
d="M41 440h215v287h-215v82h215v307q0 97 -36 127q-37 31 -118 47v41h590q257 0 384 -70q128 -71 128 -204q0 -87 -43 -149q-42 -61 -115 -102q-71 -40 -168 -60q-92 -19 -198 -19h-127v-287h246v-82h-246v-143q0 -97 46 -128q45 -31 149 -46v-41h-646v41q81 16 118 47
q36 30 36 127v143h-215v82zM649 1249h-96v-440h125q92 0 149 60q58 61 58 155q0 40 -9 80q-9 41 -35 73q-24 30 -73 52q-44 20 -119 20z" />
    <glyph glyph-name="numero_sign" unicode="&#x2116;" horiz-adv-x="2367" 
d="M1229 -61h-41l-895 1110v-752q0 -76 11 -117q12 -44 34 -71t60 -42q40 -16 89 -26v-41h-477v41q49 10 89 26q39 16 61 42q22 27 34 71q11 41 11 117v858q-51 59 -97 92q-50 36 -108 43v41h420l721 -876v579q0 72 -12 117q-13 48 -33 72q-22 26 -61 42q-34 14 -89 25v41
h477v-41q-55 -11 -89 -25q-38 -15 -60 -42q-22 -26 -34 -72q-11 -41 -11 -117v-1095zM1925 1346q170 0 265 -101q96 -102 96 -260q0 -164 -109 -275q-108 -110 -279 -110q-173 0 -267 100q-95 101 -95 261q0 164 109 275q108 110 280 110zM1927 680q55 0 82 60t27 184
q0 54 -8 120q-7 57 -25 111q-17 51 -43 80q-28 31 -66 31q-56 0 -83 -61q-27 -60 -27 -183q0 -55 8 -121q7 -58 26 -110t44 -80q28 -31 65 -31zM1597 410h627v-82h-627v82z" />
    <glyph glyph-name="sound_recording_copyright" unicode="&#x2117;" horiz-adv-x="1683" 
d="M842 1352q144 0 274 -52q127 -51 218 -142q93 -93 143 -218q51 -128 51 -274q0 -148 -51 -275q-50 -125 -143 -218q-91 -91 -218 -142q-128 -51 -274 -51q-148 0 -275 51t-218 142t-142 218t-51 275q0 146 51 274q51 127 142 218t218 142q130 52 275 52zM842 1255
q-127 0 -236 -44q-110 -44 -186 -122q-79 -80 -122 -188q-44 -109 -44 -235q0 -127 44 -236q43 -106 122 -187q78 -79 186 -123q109 -44 236 -44q126 0 235 44q110 44 187 123t121 187q44 109 44 236q0 126 -44 235q-44 110 -121 188q-76 77 -187 122q-109 44 -235 44z
M498 985v41h364q188 0 279 -58q92 -59 92 -167q0 -65 -32 -114q-33 -50 -84 -79q-53 -30 -121 -45q-64 -14 -140 -14h-61v-107q0 -53 23 -70q25 -19 81 -26v-41h-401v41q42 7 62 26q20 18 20 70v449q0 50 -20 67t-62 27zM838 952h-43v-329h59q64 0 109 46q45 47 45 115
q0 60 -33 114t-137 54z" />
    <glyph glyph-name="servicemark" unicode="&#x2120;" horiz-adv-x="1765" 
d="M371 672q43 0 65 21q23 21 23 57q0 50 -60 79q-22 10 -65.5 31t-63.5 31q-69 33 -129 84q-59 50 -59 145q0 108 78 167q79 59 190 59q63 0 120 -12q59 -12 120 -40v-229h-43q-51 115 -112 162t-118 47q-36 0 -55 -19q-18 -18 -18 -45q0 -47 59 -74q25 -11 129 -61
q70 -34 129 -85q60 -52 60 -150q0 -114 -82 -177q-83 -63 -201 -63q-70 0 -127 10t-125 41v230h43q50 -116 116 -163q64 -46 126 -46zM1386 752v362l-212 -510h-62l-215 510v-319q0 -77 24 -102q25 -26 80 -38v-41h-296v41q55 12 80 38q24 25 24 102v444q-22 26 -42 34
q-23 10 -46 17v41h293l182 -465l180 465h307v-41q-45 -8 -64 -25q-20 -18 -20 -69v-444q0 -53 20 -70t64 -27v-41h-380v41q44 10 64 27q19 16 19 70z" />
    <glyph glyph-name="trademark" unicode="&#x2122;" horiz-adv-x="1929" 
d="M653 614h-424v41q55 7 81 26q26 18 26 69v507h-6q-102 0 -151 -40q-50 -41 -77 -152h-41v266h760v-266h-41q-24 112 -75 152q-50 40 -152 40h-6v-507q0 -51 25 -69q26 -19 81 -26v-41zM1550 752v362l-213 -510h-61l-215 510v-319q0 -78 23 -102q25 -26 81 -38v-41h-297
v41q56 12 81 38q24 25 24 102v444q-22 26 -42 34q-23 10 -46 17v41h293l182 -465l180 465h307v-41q-45 -8 -64 -25q-20 -18 -20 -69v-444q0 -53 20 -70t64 -27v-41h-381v41q46 11 65 27t19 70z" />
    <glyph glyph-name="leftwards_arrow" unicode="&#x2190;" horiz-adv-x="1003" 
d="M618 1024l-348 -348h611v-82h-611l348 -348h-106l-389 389l389 389h106z" />
    <glyph glyph-name="upwards_arrow" unicode="&#x2191;" horiz-adv-x="1003" 
d="M881 559l-336 336v-649h-86v649l-336 -336v107l379 378l379 -378v-107z" />
    <glyph glyph-name="rightwards_arrow" unicode="&#x2192;" horiz-adv-x="1003" 
d="M385 1024h107l389 -389l-389 -389h-107l348 348h-610v82h610z" />
    <glyph glyph-name="downwards_arrow" unicode="&#x2193;" horiz-adv-x="1003" 
d="M881 711v-107l-379 -379l-379 379v107l336 -336v649h86v-649z" />
    <glyph glyph-name="left_right_arrow" unicode="&#x2194;" horiz-adv-x="1617" 
d="M618 1024l-348 -348h1078l-349 348h107l389 -389l-389 -389h-107l349 348h-1078l348 -348h-106l-389 389l389 389h106z" />
    <glyph glyph-name="up_down_arrow" unicode="&#x2195;" horiz-adv-x="1003" 
d="M881 465v-107l-379 -378l-379 378v107l336 -336v1073l-336 -336v107l379 379l379 -379v-107l-336 336v-1073z" />
    <glyph glyph-name="north_west_arrow" unicode="&#x2196;" horiz-adv-x="1003" 
d="M899 942h-553l485 -485l-59 -60l-481 482v-553l-86 86v612h612z" />
    <glyph glyph-name="north_east_arrow" unicode="&#x2197;" horiz-adv-x="1003" 
d="M104 942l82 82h613v-612l-86 -86v553l-482 -482l-59 60l485 485h-553z" />
    <glyph glyph-name="south_east_arrow" unicode="&#x2198;" horiz-adv-x="1003" 
d="M899 82l-82 -82h-612v612l86 86v-553l481 482l59 -60l-485 -485h553z" />
    <glyph glyph-name="south_west_arrow" unicode="&#x2199;" horiz-adv-x="1003" 
d="M104 82h553l-485 485l59 60l482 -482v553l86 -86v-612h-613z" />
    <glyph glyph-name="rightwards_over_leftwards_arrow" unicode="&#x21c4;" horiz-adv-x="1617" 
d="M999 1331h107l389 -389l-389 -389h-107l349 348h-1164v82h1164zM1434 348h-1164l348 -348h-106l-389 389l389 389h106l-348 -348h1164v-82z" />
    <glyph glyph-name="upwards_arrow_leftwards_of_down" unicode="&#x21c5;" horiz-adv-x="1556" 
d="M545 0h-86v1202l-336 -336v107l379 379l379 -379v-107l-336 336v-1202zM1098 1331v-1202l336 336v-107l-379 -378l-379 378v107l336 -336v1202h86z" />
    <glyph glyph-name="leftwards_over_rightwards_arrow" unicode="&#x21c6;" horiz-adv-x="1617" 
d="M618 1331l-348 -348h1164v-82h-1164l348 -348h-106l-389 389l389 389h106zM184 348v82h1164l-349 348h107l389 -389l-389 -389h-107l349 348h-1164z" />
    <glyph glyph-name="downwards_arrow_leftwards_of_up" unicode="&#x21f5;" horiz-adv-x="1556" 
d="M1098 0h-86v1202l-336 -336v107l379 379l379 -379v-107l-336 336v-1202zM545 1331v-1202l336 336v-107l-379 -378l-379 378v107l336 -336v1202h86z" />
    <glyph glyph-name="minus" unicode="&#x2212;" horiz-adv-x="1003" 
d="M123 676h758v-82h-758v82z" />
    <glyph glyph-name="infinity" unicode="&#x221e;" horiz-adv-x="1388" 
d="M993 901q118 0 195 -76q78 -77 78 -190q0 -114 -78 -191q-76 -75 -195 -75q-107 0 -176 57q-73 61 -123 133q-50 -72 -123 -133q-69 -57 -176 -57q-118 0 -194 75q-78 77 -78 191q0 113 78 190q77 76 194 76q107 0 176 -57q73 -61 123 -133q50 72 123 133q69 57 176 57z
M989 819q-82 0 -137 -55q-57 -57 -107 -129q50 -72 107 -129q55 -55 137 -55q83 0 136 52q55 53 55 132t-55 132q-53 52 -136 52zM209 635q0 -79 54 -132q53 -52 136 -52t138 55q54 54 106 129q-52 75 -106 129q-55 55 -138 55t-136 -52q-54 -53 -54 -132z" />
    <glyph glyph-name="approxequal" unicode="&#x2248;" horiz-adv-x="1003" 
d="M688 758q50 0 78 33q29 34 29 110v10h86v-10q0 -114 -47 -170q-46 -55 -142 -55q-66 0 -115 25q-47 24 -93 57q-52 37 -82 56q-41 26 -87 26q-49 0 -77 -33q-29 -34 -29 -111v-10h-86v10q0 114 47 170t141 56q66 0 116 -26q49 -25 92 -56q63 -45 82 -57q40 -25 87 -25z
M688 430q50 0 78 33q29 34 29 110v11h86v-11q0 -114 -47 -170q-46 -55 -142 -55q-65 0 -115 26q-52 27 -93 56q-52 37 -82 56q-41 26 -87 26q-49 0 -77 -33q-29 -34 -29 -110v-11h-86v11q0 114 47 170q46 55 141 55q66 0 116 -26q49 -25 92 -56q52 -37 82 -56q41 -26 87 -26
z" />
    <glyph glyph-name="notequal" unicode="&#x2260;" horiz-adv-x="1003" 
d="M123 512h221l205 246h-426v82h493l154 184h111l-154 -184h154v-82h-222l-204 -246h426v-82h-494l-154 -184h-110l153 184h-153v82z" />
    <glyph glyph-name="lessequal" unicode="&#x2264;" horiz-adv-x="1003" 
d="M123 594v82l758 368v-94l-658 -315l658 -316v-94zM123 82h758v-82h-758v82z" />
    <glyph glyph-name="greaterequal" unicode="&#x2265;" horiz-adv-x="1003" 
d="M881 594l-758 -369v94l657 316l-657 315v94l758 -368v-82zM881 82v-82h-758v82h758z" />
    <glyph glyph-name="diameter_sign" unicode="&#x2300;" horiz-adv-x="1048" 
d="M524 1014q70 0 131 -21q65 -22 109 -59l102 102l60 -59l-103 -103q39 -46 60 -108q20 -59 20 -131q0 -164 -107 -271q-108 -108 -272 -108q-72 0 -131 20q-61 21 -108 60l-103 -103l-59 60l102 102q-37 44 -59 109q-21 62 -21 131q0 163 108 271t271 108zM524 932
q-128 0 -210 -84q-83 -85 -83 -213q0 -51 15 -97q16 -49 41 -81l418 417q-38 28 -83 42q-50 16 -98 16zM817 635q0 54 -14 97q-16 49 -41 81l-418 -418q38 -28 83 -42q47 -15 97 -15q128 0 210 84q83 85 83 213z" />
    <glyph glyph-name="bullseye" unicode="&#x25c9;" horiz-adv-x="1712" 
d="M856 1290q142 0 262 -49q122 -49 208 -136q86 -86 136 -208q49 -120 49 -262t-49 -262q-50 -122 -136 -208q-86 -87 -208 -136q-120 -49 -262 -49t-262 49q-122 50 -208 136q-86 87 -136 208q-49 120 -49 262t49 262q50 122 136 208q86 87 208 136q120 49 262 49z
M856 1208q-126 0 -230 -43q-109 -45 -182 -118t-118 -183q-43 -105 -43 -229t43 -229q45 -110 118 -183q74 -74 182 -119q104 -43 230 -43t230 43q108 45 182 119q73 73 118 183q44 108 44 229t-44 229q-45 110 -118 183t-182 118q-104 43 -230 43zM856 1044q181 0 295 -115
q115 -117 115 -294t-115 -294q-114 -116 -295 -116t-295 116q-115 117 -115 294t115 294q114 115 295 115zM856 963q-140 0 -232 -94t-92 -234q0 -141 92 -235q92 -93 232 -93q141 0 233 93q91 92 91 235q0 142 -91 234q-92 94 -233 94z" />
    <glyph glyph-name="fisheye" unicode="&#x25ce;" horiz-adv-x="1712" 
d="M856 1290q142 0 262 -49q122 -49 208 -136q86 -86 136 -208q49 -120 49 -262t-49 -262q-50 -122 -136 -208q-86 -87 -208 -136q-120 -49 -262 -49t-262 49q-122 50 -208 136q-86 87 -136 208q-49 120 -49 262t49 262q50 122 136 208q86 87 208 136q120 49 262 49z
M856 1208q-126 0 -230 -43q-109 -45 -182 -118t-118 -183q-43 -105 -43 -229t43 -229q45 -110 118 -183q74 -74 182 -119q104 -43 230 -43t230 43q108 45 182 119q73 73 118 183q44 108 44 229t-44 229q-45 110 -118 183t-182 118q-104 43 -230 43zM856 1044q181 0 295 -115
q115 -117 115 -294t-115 -294q-114 -116 -295 -116t-295 116q-115 117 -115 294t115 294q114 115 295 115z" />
    <glyph glyph-name="openbullet" unicode="&#x25e6;" horiz-adv-x="1024" 
d="M512 1044q181 0 295 -115q115 -117 115 -294t-115 -294q-114 -116 -295 -116t-295 116q-115 117 -115 294t115 294q114 115 295 115zM512 963q-140 0 -232 -94t-92 -234q0 -141 92 -235q92 -93 232 -93t232 93q92 94 92 235q0 140 -92 234t-232 94z" />
    <glyph glyph-name="black_sun_with_rays" unicode="&#x2600;" horiz-adv-x="1488" 
d="M813 1331v-254h-141v254h141zM1266 1092l-181 -183l-102 103l182 180zM322 1188l182 -180l-101 -99l-182 181zM1085 668q0 -145 -96 -244q-95 -98 -244 -98q-147 0 -245 98q-99 99 -99 244q0 146 99 245t245 99q148 0 244 -99t96 -245zM76 598v143h258v-143h-258z
M1411 598h-254v143h254v-143zM322 147l-103 99l184 182l101 -100zM1266 246l-101 -101l-182 181l102 100zM813 0h-141v258h141v-258z" />
    <glyph glyph-name="cloud" unicode="&#x2601;" horiz-adv-x="1513" 
d="M1204 524v-15q0 -5 -2 -15q109 -1 182 -74q72 -72 72 -182t-73 -185q-72 -73 -183 -73q-84 0 -147 42t-90 111q-50 -69 -128 -109q-79 -40 -176 -40q-59 0 -110 16q-54 17 -96 43q-34 -31 -79 -47t-98 -16q-111 0 -184 73q-74 74 -74 185t74 183q75 73 184 73h20
q9 0 19 -2q39 102 131 165q93 64 213 64q27 0 53 -3t50 -9q33 35 81 54q47 19 105 19q112 0 184 -73q72 -74 72 -185z" />
    <glyph glyph-name="starblack" unicode="&#x2605;" horiz-adv-x="1525" 
d="M1485 827l-445 -321l170 -526l-446 323l-449 -323l172 526l-446 321h551l172 525l172 -525h549z" />
    <glyph glyph-name="starwhite" unicode="&#x2606;" horiz-adv-x="1525" 
d="M1485 827l-445 -321l170 -526l-446 323l-449 -323l172 526l-446 321h551l172 525l172 -525h549zM1192 745h-328l-100 312l-102 -312h-326l264 -190l-100 -311l264 192l264 -192l-102 311z" />
    <glyph glyph-name="ballot_box" unicode="&#x2610;" horiz-adv-x="1478" 
d="M156 0v1167h1167v-1167h-1167zM254 96h971v975h-971v-975z" />
    <glyph glyph-name="ballot_box_with_check" unicode="&#x2611;" horiz-adv-x="1478" 
d="M156 0v1167h1167v-1167h-1167zM254 96h971v975h-971v-975zM729 180h-96l-213 510l98 41l172 -399l287 669l98 -40z" />
    <glyph glyph-name="ballot_box_with_x" unicode="&#x2612;" horiz-adv-x="1478" 
d="M156 0v1167h1167v-1167h-1167zM254 96h971v975h-971v-975zM481 905l258 -258l258 258l64 -63l-258 -258l258 -258l-64 -64l-258 258l-258 -258l-63 64l258 258l-258 258z" />
    <glyph glyph-name="trigramheaven" unicode="&#x2630;" horiz-adv-x="1638" 
d="M164 1331h1311v-82h-1311v82zM164 707h1311v-82h-1311v82zM164 82h1311v-82h-1311v82z" />
    <glyph glyph-name="white_frowning_face" unicode="&#x2639;" horiz-adv-x="1765" 
d="M883 -61q-159 0 -292 54q-136 55 -231 150t-150 231q-54 134 -54 292t54 291q55 136 150 231t231 150t292 55t292 -55q134 -54 230 -150q95 -95 150 -231t55 -291q0 -156 -55 -292t-150 -231q-96 -96 -230 -150q-133 -54 -292 -54zM883 1296q-136 0 -253 -47
q-116 -47 -199 -131q-85 -86 -130 -199q-47 -117 -47 -253t47 -253q46 -115 130 -200q83 -84 199 -131q117 -47 253 -47t253 47q115 46 198 131q84 85 130 200q47 117 47 253t-47 253q-45 113 -130 199q-83 85 -198 131q-117 47 -253 47zM1133 709q-62 0 -102 40t-40 101
t40 101t102 40q61 0 101 -40t40 -101t-40 -101t-101 -40zM633 709q-62 0 -102 40q-39 39 -39 101t39 101q40 40 102 40q61 0 101 -40t40 -101t-40 -101t-101 -40zM883 551q123 0 215 -75t141 -197q-76 65 -169 91q-91 25 -187 25q-97 0 -188 -25q-93 -26 -169 -91
q48 120 142 197q92 75 215 75z" />
    <glyph glyph-name="white_smiling_face" unicode="&#x263a;" horiz-adv-x="1765" 
d="M883 -61q-159 0 -292 54q-136 55 -231 150t-150 231q-54 134 -54 292t54 291q55 136 150 231t231 150t292 55t292 -55q134 -54 230 -150q95 -95 150 -231t55 -291q0 -156 -55 -292t-150 -231q-96 -96 -230 -150q-133 -54 -292 -54zM883 1296q-136 0 -253 -47
q-116 -47 -199 -131q-85 -86 -130 -199q-47 -117 -47 -253t47 -253q46 -115 130 -200q83 -84 199 -131q117 -47 253 -47t253 47q115 46 198 131q84 85 130 200q47 117 47 253t-47 253q-45 113 -130 199q-83 85 -198 131q-117 47 -253 47zM1133 709q-62 0 -102 40t-40 101
t40 101t102 40q61 0 101 -40t40 -101t-40 -101t-101 -40zM633 709q-62 0 -102 40q-39 39 -39 101t39 101q40 40 102 40q61 0 101 -40t40 -101t-40 -101t-101 -40zM883 258q-123 0 -215 75q-94 77 -142 197q76 -65 169 -91q91 -25 188 -25q96 0 187 25q93 26 169 91
q-49 -122 -141 -197t-215 -75z" />
    <glyph glyph-name="black_smiling_face" unicode="&#x263b;" horiz-adv-x="1765" 
d="M883 -61q-159 0 -292 54q-136 55 -231 150t-150 231q-54 134 -54 292t54 291q55 136 150 231t231 150t292 55t292 -55q134 -54 230 -150q95 -95 150 -231t55 -291q0 -156 -55 -292t-150 -231q-96 -96 -230 -150q-133 -54 -292 -54zM1133 709q61 0 101 40t40 101t-40 101
t-101 40q-62 0 -102 -40t-40 -101t40 -101t102 -40zM633 709q61 0 101 40t40 101t-40 101t-101 40q-62 0 -102 -40q-39 -39 -39 -101t39 -101q40 -40 102 -40zM883 258q123 0 215 75t141 197q-76 -65 -169 -91q-91 -25 -187 -25q-97 0 -188 25q-93 26 -169 91
q48 -120 142 -197q92 -75 215 -75z" />
    <glyph glyph-name="flagwhite" unicode="&#x2690;" horiz-adv-x="1667" 
d="M1464 276q-143 0 -296 25q-140 23 -288 54q-138 29 -287 57q-141 26 -290 28v-440h-98v1331h80q157 0 304 -25q106 -18 297 -57q163 -33 294 -56q150 -26 295 -26h69v-891h-80zM1446 1069q-139 0 -283 26q-125 23 -282 56q-150 32 -286 56q-147 26 -292 26v-696
q141 0 285 -26q125 -23 282 -56q183 -39 285 -57q141 -25 291 -25v696z" />
    <glyph glyph-name="flagblack" unicode="&#x2691;" horiz-adv-x="1667" 
d="M1464 276q-143 0 -296 25q-140 23 -288 54q-138 29 -287 57q-141 26 -290 28v-440h-98v1331h80q157 0 304 -25q106 -18 297 -57q163 -33 294 -56q150 -26 295 -26h69v-891h-80z" />
    <glyph glyph-name="high_voltage_sign" unicode="&#x26a1;" horiz-adv-x="710" 
d="M111 -20l229 706l-250 -113l256 758h201l-191 -545l318 132z" />
    <glyph glyph-name="upper_blade_scissors" unicode="&#x2701;" horiz-adv-x="2942" 
d="M440 440q94 0 170 -43q77 -44 121 -114h516l64 20l-35 57l-399 336q-25 -8 -50 -11q-24 -3 -51 -3q-145 0 -241 96q-97 97 -97 242t97 242q96 96 241 96q146 0 242 -96t96 -242q0 -94 -43 -170t-115 -121l465 -389l314 102q233 74 404 73q178 -2 306 -47
q133 -47 228 -120q93 -72 168 -143h-1258l244 -205h-326l-127 205h-610q8 -26 11 -50q3 -25 3 -53q0 -145 -96 -241q-97 -97 -242 -97q-144 0 -241 97t-97 241q0 145 97 242q96 96 241 96zM776 1268q-103 0 -172 -72t-69 -176t69 -176t172 -72t172 72q70 73 70 176t-70 176
q-69 72 -172 72zM440 350q-104 0 -172 -71q-69 -72 -69 -177q0 -104 69 -176q68 -71 172 -71t172 71q70 73 70 176q0 104 -70 177q-68 71 -172 71z" />
    <glyph glyph-name="black_scissors" unicode="&#x2702;" horiz-adv-x="2760" 
d="M440 152q-145 0 -241 96q-97 97 -97 241q0 145 97 242q96 96 241 96q146 0 242 -96t96 -242q0 -61 -18 -114t-51 -96l571 -207l258 202q191 147 355 207q166 61 303 62q141 2 254 -35q119 -39 208 -78l-1181 -430l1181 -430q-89 -39 -208 -78q-113 -37 -254 -35
q-137 1 -303 62q-164 60 -355 207l-258 202l-571 -207q33 -43 51 -96t18 -114q0 -146 -96 -242t-242 -96q-145 0 -241 96q-97 97 -97 242q0 144 97 241q96 96 241 96q65 0 115 -17q56 -19 94 -50l486 176l55 43l-55 43l-486 176q-38 -31 -94 -50q-50 -17 -115 -17zM440 242
q104 0 172 71q70 73 70 176q0 104 -70 177q-68 71 -172 71t-172 -71q-69 -72 -69 -177q0 -104 69 -176q68 -71 172 -71zM440 -242q-104 0 -172 -71q-69 -72 -69 -176q0 -105 69 -177q68 -71 172 -71t172 71q70 73 70 177q0 103 -70 176q-68 71 -172 71z" />
    <glyph glyph-name="lower_blade_scissors" unicode="&#x2703;" horiz-adv-x="2942" 
d="M440 -440q-145 0 -241 96q-97 97 -97 242q0 144 97 241t241 97q145 0 242 -97q96 -96 96 -241q0 -28 -3 -53q-3 -24 -11 -50h610l127 205h326l-244 -205h1258q-75 -71 -168 -143q-95 -73 -228 -120q-128 -45 -306 -47q-171 -1 -404 73l-314 102l-465 -389
q72 -45 115 -121t43 -170q0 -146 -96 -242t-242 -96q-145 0 -241 96q-97 97 -97 242t97 242q96 96 241 96q27 0 51 -3q25 -3 50 -11l399 336l35 57l-64 20h-516q-44 -70 -121 -114q-76 -43 -170 -43zM440 -350q104 0 172 71q70 73 70 177q0 103 -70 176q-68 71 -172 71
t-172 -71q-69 -72 -69 -176q0 -105 69 -177q68 -71 172 -71zM776 -1268q103 0 172 72q70 73 70 176t-70 176q-69 72 -172 72t-172 -72t-69 -176t69 -176t172 -72z" />
    <glyph glyph-name="lower_right_pencil" unicode="&#x270e;" horiz-adv-x="1882" 
d="M766 -305l-725 725l913 911h723v-723zM1372 1241h-328l543 -543v328zM983 49l557 557l-588 588l-557 -557zM766 -168l147 148l-587 587l-148 -147z" />
    <glyph glyph-name="pencil" unicode="&#x270f;" horiz-adv-x="2068" 
d="M205 0v1024h1290l512 -512l-512 -512h-1290zM303 96h207v832h-207v-832zM608 96h789v832h-789v-832zM1726 664l-231 231v-766l231 231v304z" />
    <glyph glyph-name="upper_right_pencil" unicode="&#x2710;" horiz-adv-x="1882" 
d="M766 1636l911 -913v-723h-723l-913 911zM766 1499l-588 -588l148 -147l587 588zM983 1282l-588 -588l557 -557l588 588zM1372 90l215 215v328l-543 -543h328z" />
    <glyph glyph-name="check_mark" unicode="&#x2713;" horiz-adv-x="1478" 
d="M729 180h-96l-213 510l98 41l172 -399l287 669l98 -40z" />
    <glyph glyph-name="ballot_x" unicode="&#x2717;" horiz-adv-x="1478" 
d="M481 905l258 -258l258 258l64 -63l-258 -258l258 -258l-64 -64l-258 258l-258 -258l-63 64l258 258l-258 258z" />
    <glyph glyph-name="sparkles" unicode="&#x2728;" horiz-adv-x="1531" 
d="M102 633v65q316 0 472 145q155 144 155 488h74q0 -345 155 -488q157 -145 472 -145v-65q-315 0 -472 -145q-155 -143 -155 -488h-74q0 344 -155 488q-156 145 -472 145zM406 666q126 -27 230 -111q103 -84 130 -256q27 172 130 256q104 84 230 111q-127 24 -230 109
t-130 257q-27 -172 -130 -257t-230 -109z" />
    <glyph glyph-name="anticlockwise_gapped_circle_arw" unicode="&#x27f2;" horiz-adv-x="1570" 
d="M360 455q0 147 43 257q44 112 117 185t173 111q95 36 210 36q113 0 211 -41q99 -41 174 -115q73 -72 117 -170q43 -96 43 -206t-43 -206q-44 -98 -117 -170q-74 -72 -174 -114t-211 -42q-104 0 -193 33q-94 35 -163 98l59 67q64 -62 138 -89q78 -28 159 -28q94 0 178 36
t146 98q61 61 98 143q37 81 37 174q0 94 -37 175q-39 85 -98 143q-63 61 -146 97q-84 36 -178 36q-93 0 -177 -32q-81 -31 -145 -95q-62 -62 -99 -159q-36 -95 -36 -222v-70l304 299v-106l-344 -342l-345 342v106l299 -297v68z" />
    <glyph glyph-name="clockwise_gapped_circle_arrow" unicode="&#x27f3;" horiz-adv-x="1570" 
d="M1210 455v-68l299 297v-106l-344 -342l-344 342v106l303 -299v70q0 130 -35 222q-37 97 -99 159q-64 64 -145 95q-84 32 -177 32q-95 0 -179 -36q-81 -35 -145 -97q-59 -58 -98 -143q-37 -81 -37 -175q0 -93 37 -174q38 -82 98 -143q63 -63 145 -98q84 -36 179 -36
q80 0 158 28q76 27 139 89l59 -67q-69 -63 -163 -98q-89 -33 -193 -33q-113 0 -211 41q-99 41 -174 115q-73 72 -117 170q-43 96 -43 206t43 206q44 98 117 170t174 114q100 42 211 42q115 0 210 -36q100 -38 173 -111q72 -72 116 -185q43 -110 43 -257z" />
    <glyph glyph-name="north_west_and_south_east_arrow" unicode="&#x2921;" horiz-adv-x="1433" 
d="M535 82h552l-796 799v-553l-86 86v612h612l82 -82h-553l797 -799v553l86 -86v-612h-613z" />
    <glyph glyph-name="north_east_and_south_west_arrow" unicode="&#x2922;" horiz-adv-x="1433" 
d="M899 82l-82 -82h-612v612l86 86v-553l796 799h-552l81 82h613v-612l-86 -86v553l-797 -799h553z" />
    <glyph glyph-name="upwards_black_arrow" unicode="&#x2bc5;" horiz-adv-x="1579" 
d="M123 0l668 1352l665 -1352h-1333z" />
    <glyph glyph-name="downwards_black_arrow" unicode="&#x2bc6;" horiz-adv-x="1579" 
d="M123 1331h1333l-665 -1351z" />
    <glyph glyph-name="leftwards_black_arrow" unicode="&#x2bc7;" horiz-adv-x="1185" 
d="M981 1546v-1761l-879 881z" />
    <glyph glyph-name="black_rightwards_arrow" unicode="&#x2bc8;" horiz-adv-x="1185" 
d="M205 1546l878 -880l-878 -881v1761z" />
    <glyph glyph-name="A.sup" unicode="&#xe001;" horiz-adv-x="1001" 
d="M326 655v-41h-316v41q64 23 101 66q35 41 69 127l289 713h53l289 -707q41 -102 75 -141q36 -41 75 -58v-41h-433v41q45 6 60 44q15 37 -13 108l-8 18h-307l-6 -16q-27 -69 -7 -108t79 -46zM317 969h195l-98 250z" />
    <glyph glyph-name="B.sup" unicode="&#xe00e;" horiz-adv-x="1054" 
d="M68 1507v39h452q208 0 313 -57t105 -162q0 -81 -69 -134t-173 -75q122 -21 206 -86q85 -66 85 -176q0 -116 -105 -179t-313 -63h-501v41q58 12 82 33t24 90v608q0 68 -24 89q-22 19 -82 32zM489 1464h-65v-321h86q69 0 116 46q48 47 48 116q0 54 -35 107q-34 52 -150 52z
M559 1061h-135v-365h115q114 0 148 60q34 59 34 123q0 79 -47 131q-47 51 -115 51z" />
    <glyph glyph-name="C.sup" unicode="&#xe010;" horiz-adv-x="989" 
d="M524 1475q-101 0 -164 -86q-63 -85 -63 -228q0 -94 27 -163t69 -111q45 -45 97 -65q54 -21 112 -21q101 0 182 56q82 57 103 181h47q-6 -87 -33 -166t-77 -140q-48 -59 -123 -96q-72 -36 -166 -36q-97 0 -181 33q-86 34 -144 92q-60 59 -94 145q-34 84 -34 191
q0 113 40 203q40 92 106 157q64 64 156 103q87 37 187 37q86 0 172 -22q83 -21 150 -48v-289h-43q-65 149 -152 211q-86 62 -174 62z" />
    <glyph glyph-name="D.sup" unicode="&#xe017;" horiz-adv-x="1128" 
d="M68 1505v41h430q258 0 403 -114q146 -114 146 -320q0 -111 -46 -205q-46 -93 -119 -156q-77 -66 -173 -101q-99 -36 -207 -36h-434v39q58 12 82 33t24 90v608q0 68 -24 89q-22 19 -82 32zM467 1464h-43v-768h86q58 0 108 33t84 87q37 58 54 125q18 70 18 149
q0 157 -71 266q-70 108 -236 108z" />
    <glyph glyph-name="E.sup" unicode="&#xe01b;" horiz-adv-x="999" 
d="M68 1505v41h835v-329h-45q-30 141 -101 194t-200 53h-133v-336h8q87 0 139 58q52 59 70 157h43v-512h-43q-18 100 -70 158t-139 58h-8v-351h133q127 0 200 54q71 53 101 194h45v-330h-835v41q58 12 82 33t24 90v606q0 68 -24 89q-22 19 -82 32z" />
    <glyph glyph-name="Euro.LT" unicode="&#xe026;" 
d="M123 522h133q-3 25 -7 70q-3 38 -3 74t3 73q4 45 7 70h-133v82h147q50 209 185 335t323 126q172 0 253 -48t81 -112q0 -42 -17 -77q-18 -38 -48 -68h-41q-69 123 -119 173t-109 50q-82 0 -139 -81t-78 -298h320v-82h-324q-1 -33 -3 -69q-1 -24 -1 -74q0 -51 1 -75
q2 -36 3 -69h324v-82h-320q21 -217 78 -298t139 -81q58 0 109 51q50 50 119 173h41q29 -29 48 -69q17 -35 17 -77q0 -63 -81 -111t-253 -48q-189 0 -323 125q-135 126 -185 335h-147v82z" />
    <glyph glyph-name="Euro.OP" unicode="&#xe027;" horiz-adv-x="1071" 
d="M61 522h134q-6 43 -8 70q-3 38 -3 74t3 73q2 27 8 70h-134v82h148q50 210 184 335q135 126 324 126q172 0 253 -48t81 -112q0 -40 -18 -77q-18 -38 -48 -68h-41q-69 123 -119 173t-108 50q-82 0 -139 -81t-78 -298h319v-82h-323q-2 -33 -3 -69q-1 -24 -1 -74q0 -51 1 -75
q1 -36 3 -69h323v-82h-319q21 -217 78 -298t139 -81q57 0 108 51q50 50 119 173h41q29 -29 48 -69q18 -37 18 -77q0 -63 -81 -111t-253 -48q-190 0 -324 125t-184 335h-148v82z" />
    <glyph glyph-name="Euro.OT" unicode="&#xe028;" 
d="M123 522h133q-3 25 -7 70q-3 38 -3 74t3 73q4 45 7 70h-133v82h147q50 209 185 335t323 126q172 0 253 -48t81 -112q0 -42 -17 -77q-18 -38 -48 -68h-41q-69 123 -119 173t-109 50q-82 0 -139 -81t-78 -298h320v-82h-324q-1 -33 -3 -69q-1 -24 -1 -74q0 -51 1 -75
q2 -36 3 -69h324v-82h-320q21 -217 78 -298t139 -81q58 0 109 51q50 50 119 173h41q29 -29 48 -69q17 -35 17 -77q0 -63 -81 -111t-253 -48q-189 0 -323 125q-135 126 -185 335h-147v82z" />
    <glyph glyph-name="Euro.numr" unicode="&#xe02b;" horiz-adv-x="880" 
d="M76 766h92l-4 49q-2 32 -2 51q0 20 2 52q1 8 2.5 24t1.5 23h-92v82h110q39 134 137 217q97 82 232 82q127 0 186 -34q60 -34 60 -79q0 -24 -13 -53q-12 -27 -32 -47h-41q-43 75 -77 105q-35 30 -73 30q-49 0 -87 -48q-37 -47 -52 -173h201v-82h-207q-2 -30 -2 -47v-52
v-52q0 -18 2 -48h207v-80h-201q15 -129 51 -175q37 -48 88 -48q39 0 73 30t77 105h41q20 -20 32 -47q13 -29 13 -53q0 -44 -60 -79q-59 -34 -186 -34q-135 0 -232 82q-98 83 -137 219h-110v80z" />
    <glyph glyph-name="F.sup" unicode="&#xe02e;" horiz-adv-x="970" 
d="M68 1505v41h835v-329h-45q-30 141 -101 194t-200 53h-133v-364h22q89 0 140 57t69 158h43v-512h-43q-18 101 -69 158t-140 57h-22v-240q0 -69 32 -92q33 -24 103 -31v-41h-491v41q58 12 82 33t24 90v606q0 68 -24 89q-22 19 -82 32z" />
    <glyph glyph-name="G.sup" unicode="&#xe035;" horiz-adv-x="1064" 
d="M506 1049v81h448v-530h-41l-176 141q-41 -63 -105 -102t-151 -39q-171 0 -285 120t-114 310q0 111 41 210q41 98 109 169t161 112q90 40 193 40q94 0 180 -21q92 -23 156 -49v-274h-43q-62 139 -154 197q-88 56 -178 56q-111 0 -181 -87q-71 -88 -71 -232q0 -94 27 -163
t69 -111q45 -45 97 -65q54 -21 112 -21q24 0 54 5q24 4 53 13v240h-201z" />
    <glyph glyph-name="H.sup" unicode="&#xe03b;" horiz-adv-x="1206" 
d="M68 1505v41h462v-41q-59 -12 -81 -32q-25 -22 -25 -89v-241h358v241q0 68 -24 89q-22 19 -82 32v41h463v-41q-60 -13 -82 -32q-25 -22 -25 -89v-606q0 -68 25 -90q24 -21 82 -33v-41h-463v41q58 12 82 33t24 90v283h-358v-283q0 -68 25 -90q24 -21 81 -33v-41h-462v41
q58 12 82 33t24 90v606q0 68 -24 89q-22 19 -82 32z" />
    <glyph glyph-name="I.sup" unicode="&#xe03f;" horiz-adv-x="598" 
d="M68 1507v39h462v-39q-59 -12 -81 -32q-25 -22 -25 -89v-608q0 -68 25 -90q24 -21 81 -33v-41h-462v41q58 12 82 33t24 90v608q0 68 -24 89q-22 19 -82 32z" />
    <glyph glyph-name="J.sup" unicode="&#xe04b;" horiz-adv-x="589" 
d="M174 1384q0 68 -24 89q-22 19 -82 32v41h462v-41q-59 -12 -81 -32q-25 -22 -25 -89v-712q0 -63 -20 -106t-62 -72q-48 -33 -113 -57q-63 -23 -170 -52v43q40 19 62 36q24 19 35 43q12 25 15 63q3 37 3 98v716z" />
    <glyph glyph-name="K.sup" unicode="&#xe04e;" horiz-adv-x="1058" 
d="M68 655q58 12 82 33t24 90v606q0 68 -24 89q-22 19 -82 32v41h462v-41q-59 -12 -81 -32q-25 -22 -25 -89v-309l229 281q51 61 43 99t-63 50v41h352v-41q-69 -22 -124 -53q-58 -33 -109 -94l-105 -123l211 -377q58 -105 87 -146q31 -45 69 -57v-41h-301l-228 430l-61 -71
v-195q0 -68 25 -90q24 -21 81 -33v-41h-462v41z" />
    <glyph glyph-name="L.sup" unicode="&#xe051;" horiz-adv-x="927" 
d="M68 655q58 12 82 33t24 90v606q0 68 -24 89q-22 19 -82 32v41h491v-41q-71 -7 -103 -30t-32 -91v-688h90q127 0 200 54q71 53 101 194h45v-330h-792v41z" />
    <glyph glyph-name="M.sup" unicode="&#xe057;" horiz-adv-x="1341" 
d="M920 778v565l-302 -743h-53l-305 741v-505q0 -100 31 -134q29 -32 104 -47v-41h-356v41q73 15 103 47q32 34 32 134v602q-29 33 -55 45q-23 10 -60 22v41h377l238 -604l231 604h371v-41q-59 -12 -83 -32q-26 -21 -26 -89v-606q0 -69 26 -90q25 -21 83 -33v-41h-465v41
q58 12 83 33q26 21 26 90z" />
    <glyph glyph-name="N.sup" unicode="&#xe059;" horiz-adv-x="1062" 
d="M899 571h-49l-588 729v-464q0 -100 31 -134q29 -32 104 -47v-41h-358v41q73 15 103 47q32 34 32 134v573q-39 42 -75 65t-83 31v41h338l459 -561v342q0 100 -32 132q-31 31 -105 46v41h360v-41q-74 -15 -105 -46q-32 -32 -32 -132v-756z" />
    <glyph glyph-name="O.sup" unicode="&#xe05f;" horiz-adv-x="1167" 
d="M602 1561q106 0 194 -30q89 -30 153 -88q65 -59 101 -147q35 -86 35 -202q0 -119 -39 -207q-41 -93 -110 -156q-67 -62 -166 -97q-95 -34 -205 -34q-105 0 -193 30q-91 31 -154 88q-64 58 -100 146t-36 203q0 117 40 207q42 95 109 156q67 62 166 97q95 34 205 34z
M569 1475q-106 0 -160 -87q-55 -89 -55 -270q0 -73 15 -151q16 -82 44 -140q30 -62 75 -101q46 -40 110 -40q107 0 161 87t54 269q0 82 -14 153q-16 80 -44 138q-30 62 -76 102t-110 40z" />
    <glyph glyph-name="P.sup" unicode="&#xe06b;" horiz-adv-x="1034" 
d="M68 1505v41h444q225 0 339 -75t114 -216q0 -83 -39 -146q-37 -60 -103 -101q-64 -40 -146 -59q-80 -19 -173 -19h-80v-152q0 -69 32 -92q33 -24 103 -31v-41h-491v41q58 12 82 33t24 90v606q0 68 -24 89q-22 19 -82 32zM481 1464h-57v-452h78q82 0 140 62t58 159
q0 39 -8 82q-7 38 -33 75q-23 33 -67 54q-41 20 -111 20z" />
    <glyph glyph-name="Q.sup" unicode="&#xe06e;" horiz-adv-x="1167" 
d="M678 571h268l-115 -200h-34q-108 0 -165 45q-54 43 -132 186q-184 18 -301 136t-117 329q0 117 40 207q42 95 109 156q67 62 166 97q95 34 205 34q106 0 194 -30q89 -30 153 -88q65 -59 101 -147q35 -86 35 -202q0 -119 -39 -207q-41 -93 -110 -156q-67 -62 -163 -97
q-92 -34 -200 -34q17 -13 44 -20q32 -9 61 -9zM569 1475q-106 0 -160 -87q-55 -89 -55 -270q0 -73 15 -151q16 -82 44 -140q30 -62 75 -101q46 -40 110 -40q107 0 161 87t54 269q0 82 -14 153q-16 80 -44 138q-30 62 -76 102t-110 40z" />
    <glyph glyph-name="R.sup" unicode="&#xe070;" horiz-adv-x="1058" 
d="M68 1507v39h444q214 0 322 -57t108 -166q0 -101 -81 -161t-199 -81q38 -1 70 -21t59 -65l139 -235q35 -58 52 -77q21 -22 50 -28v-41h-305l-195 371q-16 30 -33 50q-15 18 -59 18h-16v-275q0 -68 25 -90q24 -21 81 -33v-41h-462v41q58 12 82 33t24 90v608q0 68 -24 89
q-22 19 -82 32zM481 1464h-57v-329h78q75 0 125 46q51 47 51 119q0 59 -37 111q-38 53 -160 53z" />
    <glyph glyph-name="S.sup" unicode="&#xe075;" horiz-adv-x="854" 
d="M444 690q64 0 100 33t36 76q0 77 -78 116q-70 35 -171 79q-93 40 -171 102t-78 182q0 125 94 204t254 79q98 0 169 -24q74 -25 126 -56v-256h-43q-33 128 -117 188t-166 60q-52 0 -87 -29q-33 -27 -33 -68q0 -67 77 -101q25 -11 81 -35.5l88 -38.5q92 -41 169 -106
q78 -66 78 -196q0 -135 -97 -217t-261 -82q-101 0 -183 22q-79 21 -135 58v293h41q15 -80 50 -132q37 -55 79 -87q44 -33 91 -48q51 -16 87 -16z" />
    <glyph glyph-name="T.sup" unicode="&#xe07c;" horiz-adv-x="1021" 
d="M772 614h-522v41q69 7 104 31q33 22 33 92v686h-6q-128 0 -195 -53q-65 -51 -98 -194h-43v329h932v-329h-43q-30 141 -97 194t-196 53h-6v-686q0 -70 33 -92q35 -24 104 -31v-41z" />
    <glyph glyph-name="T_h" unicode="&#xe07d;" horiz-adv-x="2359" 
d="M1059 0h-686v41q102 15 148 46t46 128v1034h-10q-184 0 -283 -84q-97 -82 -147 -305h-45v471h1069l430 174v-680q95 112 184 165q90 54 185 54q121 0 183 -75t62 -211v-543q0 -96 32 -128q30 -30 102 -46v-41h-553v41q70 15 101 46q32 32 32 128v465q0 88 -33 129t-92 41
q-58 0 -108 -39q-51 -40 -95 -90v-506q0 -96 32 -128q31 -31 101 -46v-41h-553v41q72 16 102 46q31 31 31 128v1034h-430v-1034q0 -97 46 -128q45 -31 149 -46v-41z" />
    <glyph glyph-name="U.sup" unicode="&#xe083;" horiz-adv-x="1060" 
d="M684 1546h360v-41q-74 -15 -105 -46q-32 -32 -32 -132v-352q0 -183 -99 -279t-278 -96q-178 0 -277 96t-99 279v409q0 67 -25 89q-22 19 -82 32v41h463v-41q-60 -13 -82 -32q-25 -22 -25 -89v-409q0 -103 54 -159q53 -54 153 -54t156 54q55 54 55 159v352q0 101 -31 132
t-106 46v41z" />
    <glyph glyph-name="V.sup" unicode="&#xe08f;" horiz-adv-x="991" 
d="M811 1313l-289 -713h-53l-289 707q-44 103 -76 141q-33 39 -73 57v41h432v-41q-45 -6 -60 -44q-15 -36 13 -107l162 -412l159 410q26 71 7 108q-20 38 -78 45v41h315v-41q-64 -23 -100 -65q-37 -43 -70 -127z" />
    <glyph glyph-name="W.sup" unicode="&#xe091;" horiz-adv-x="1409" 
d="M942 600l-240 655l-235 -655h-51l-279 760q-28 76 -47 102q-21 29 -57 43v41h403v-41q-48 -7 -62 -44q-13 -35 11 -107l131 -381l141 411q-24 62 -53 87q-27 23 -57 34v41h424v-41q-51 -7 -69 -42q-18 -34 9 -109l131 -383l134 372q33 90 14 121q-18 31 -84 41v41h293
v-41q-41 -16 -74 -53q-36 -40 -68 -127l-264 -725h-51z" />
    <glyph glyph-name="X.sup" unicode="&#xe099;" horiz-adv-x="923" 
d="M207 827l141 226l-201 315q-40 61 -71 91q-32 31 -66 46v41h426v-41q-39 -10 -52 -43q-14 -33 19 -84l109 -172l94 152q46 73 31 102q-15 30 -68 45v41h308v-41q-55 -24 -97 -54q-42 -31 -96 -118l-125 -198l215 -340q40 -61 73 -93q34 -32 66 -47v-41h-426v41
q40 11 52 43q12 33 -21 84l-125 199l-108 -178q-46 -73 -31 -103t68 -45v-41h-310v41q52 21 99 55q43 32 96 117z" />
    <glyph glyph-name="Y.sup" unicode="&#xe09b;" horiz-adv-x="991" 
d="M715 614h-424v41q58 12 83 33t25 90v113l-196 416q-49 103 -88 141q-36 35 -84 57v41h452v-41q-45 -6 -63 -44t16 -107l148 -301l143 299q33 68 10 106q-22 36 -86 47v41h330v-41q-70 -28 -107 -68t-77 -124l-191 -395v-140q0 -69 26 -90q25 -21 83 -33v-41z" />
    <glyph glyph-name="Z.sup" unicode="&#xe0a1;" horiz-adv-x="899" 
d="M72 614v41l454 809h-100q-129 0 -200 -53t-101 -194h-43v329h733v-41l-455 -809h123q128 0 199 54q69 52 102 194h43v-330h-755z" />
    <glyph glyph-name="a.sup" unicode="&#xe0a6;" horiz-adv-x="823" 
d="M264 1055q-38 -21 -76 -33q-41 -13 -79 -14q-27 72 22 132t115 109q69 51 114 72q53 25 109 25q105 0 153 -51q46 -49 46 -124v-344q0 -53 16 -75q17 -23 43 -23t43 14q20 17 31 33l26 -22q-39 -68 -84 -108q-44 -40 -116 -40q-55 0 -107 29q-50 28 -65 113
q-28 -71 -86 -109q-60 -39 -129 -39q-84 0 -131 39q-48 40 -48 102q0 47 27 86t111 84l237 125v72q0 59 -17 89q-18 32 -65 32q-48 0 -82 -46q-35 -47 -8 -128zM266 807q0 -26 17 -45t47 -19q45 0 75 39q31 40 31 103v69l-43 -20q-68 -32 -98 -61q-29 -27 -29 -66z" />
    <glyph glyph-name="acute.cap" unicode="&#xe0a7;" horiz-adv-x="1024" 
d="M266 1475l492 204v-204l-492 -41v41z" />
    <glyph glyph-name="b.sup" unicode="&#xe0af;" horiz-adv-x="878" 
d="M330 1667v-442q61 67 113 93q56 28 112 28q110 0 181 -83t71 -233q0 -97 -32 -178q-31 -79 -86 -135q-54 -56 -127 -86q-74 -31 -150 -31q-61 0 -106 17t-87 49l-80 -66h-41v905h-100v41zM442 1190q-32 0 -59 -21q-25 -20 -53 -55v-272q0 -78 27 -120t71 -42q67 0 103 82
t36 188q0 116 -30 178t-95 62z" />
    <glyph glyph-name="battery_1" unicode="&#xe0b2;" horiz-adv-x="1167" 
d="M1044 1167v-1167h-921v1167h205v164h512v-164h204zM219 406h729v663h-729v-663z" />
    <glyph glyph-name="battery_2" unicode="&#xe0b3;" horiz-adv-x="1167" 
d="M1044 1167v-1167h-921v1167h205v164h512v-164h204zM219 713h729v356h-729v-356z" />
    <glyph glyph-name="battery_3" unicode="&#xe0b4;" horiz-adv-x="1167" 
d="M1044 1167v-1167h-921v1167h205v164h512v-164h204z" />
    <glyph glyph-name="black_frowning_face" unicode="&#xe1d4;" horiz-adv-x="1765" 
d="M883 -61q-159 0 -292 54q-136 55 -231 150t-150 231q-54 134 -54 292t54 291q55 136 150 231t231 150t292 55t292 -55q134 -54 230 -150q95 -95 150 -231t55 -291q0 -156 -55 -292t-150 -231q-96 -96 -230 -150q-133 -54 -292 -54zM1133 709q61 0 101 40t40 101t-40 101
t-101 40q-62 0 -102 -40t-40 -101t40 -101t102 -40zM633 709q61 0 101 40t40 101t-40 101t-101 40q-62 0 -102 -40q-39 -39 -39 -101t39 -101q40 -40 102 -40zM883 551q-123 0 -215 -75q-94 -77 -142 -197q76 65 169 91q91 25 188 25q96 0 187 -25q93 -26 169 -91
q-49 122 -141 197t-215 75z" />
    <glyph glyph-name="breve.cap" unicode="&#xe1fd;" horiz-adv-x="1024" 
d="M512 1434q-113 0 -184 59q-72 60 -72 186h61q15 -43 67 -62q54 -20 128 -20t128 20q52 19 67 62h61q0 -126 -72 -186q-71 -59 -184 -59z" />
    <glyph glyph-name="c.sup" unicode="&#xe200;" horiz-adv-x="741" 
d="M258 1051q0 -112 49 -191q50 -80 152 -80q83 0 129 54q45 52 57 122h43q0 -146 -81 -251t-230 -105q-157 0 -234 96q-75 94 -75 240q0 76 24 149t75 132q49 56 124 93q73 36 172 36q116 0 170 -46q53 -45 53 -104q0 -30 -14 -54q-16 -27 -35 -46h-41q-44 93 -95 124
q-48 29 -102 29q-75 0 -108 -57t-33 -141z" />
    <glyph glyph-name="caron.cap" unicode="&#xe201;" horiz-adv-x="1024" 
d="M205 1679l307 -88l307 88v-41l-266 -204h-82l-266 204v41z" />
    <glyph glyph-name="cent.LT" unicode="&#xe202;" 
d="M688 1229v-185h9h10q160 0 230 -64q71 -65 71 -151q0 -37 -20 -74t-50 -67h-41q-53 111 -105 165q-54 55 -104 73v-703h7h7q119 0 184 80t83 186h43q0 -183 -83 -322q-82 -137 -241 -175v-197h-92v185h-6h-6q-107 0 -184 35t-131 100q-52 62 -79 150q-26 84 -26 190
q0 99 29 195q29 97 83 174t137 134q80 55 183 76v195h92zM395 627q0 -138 50 -244q48 -103 151 -141v694q-107 -8 -154 -100t-47 -209z" />
    <glyph glyph-name="cent.OP" unicode="&#xe203;" horiz-adv-x="1001" 
d="M606 1229v-185h9h10q160 0 230 -64q71 -65 71 -151q0 -37 -20 -74t-50 -67h-41q-53 111 -105 165q-54 55 -104 73v-703h7h8q118 0 183 80t83 186h43q0 -183 -83 -322q-82 -137 -241 -175v-197h-92v185h-6h-6q-107 0 -184 35t-131 100q-50 60 -78 150q-27 87 -27 190
q0 99 29 195q29 94 84 174q55 78 136 134q80 55 183 76v195h92zM313 627q0 -136 51 -244q49 -103 150 -141v694q-107 -8 -154 -100t-47 -209z" />
    <glyph glyph-name="cent.OT" unicode="&#xe204;" 
d="M688 1229v-185h9h10q160 0 230 -64q71 -65 71 -151q0 -37 -20 -74t-50 -67h-41q-53 111 -105 165q-54 55 -104 73v-703h7h7q119 0 184 80t83 186h43q0 -183 -83 -322q-82 -137 -241 -175v-197h-92v185h-6h-6q-107 0 -184 35t-131 100q-52 62 -79 150q-26 84 -26 190
q0 99 29 195q29 97 83 174t137 134q80 55 183 76v195h92zM395 627q0 -138 50 -244q48 -103 151 -141v694q-107 -8 -154 -100t-47 -209z" />
    <glyph glyph-name="cent.numr" unicode="&#xe207;" horiz-adv-x="741" 
d="M453 1260v-130h10q117 0 170 -45t53 -104q0 -30 -14 -54q-16 -27 -35 -46h-41q-33 69 -70 103t-73 44v-463q87 0 134 53q46 51 58 123h43q0 -129 -60 -225t-175 -123v-137h-64v129q-160 0 -241 94q-80 93 -80 242q0 71 20 134q22 71 60 122q39 53 101 95q59 40 140 52
v136h64zM258 836q0 -89 32 -161q31 -70 99 -97v456q-71 -5 -100 -60q-31 -59 -31 -138z" />
    <glyph glyph-name="circumflex.cap" unicode="&#xe215;" horiz-adv-x="1024" 
d="M205 1434v41l266 204h82l266 -204v-41l-307 88z" />
    <glyph glyph-name="comma.sup" unicode="&#xe217;" horiz-adv-x="450" 
d="M113 864h241v-41l-245 -381h-48z" />
    <glyph glyph-name="commaaccent.alt" unicode="&#xe218;" horiz-adv-x="1024" 
d="M676 1516h61l-102 -369h-246z" />
    <glyph glyph-name="d.sup" unicode="&#xe21c;" horiz-adv-x="905" 
d="M881 707l-318 -121v151q-62 -75 -121 -106t-118 -31q-111 0 -182 83q-70 82 -70 232q0 101 31 179q31 79 86 135q54 56 127 86q74 31 151 31q14 0 42 -4t40 -7v170h-90v41l321 121v-919h101v-41zM436 756q34 0 60 20q25 20 53 55v273q0 76 -28 120q-27 42 -70 42
q-68 0 -104 -82t-36 -189q0 -114 31 -178q30 -61 94 -61z" />
    <glyph glyph-name="dieresis.cap" unicode="&#xe22b;" horiz-adv-x="1024" 
d="M326 1688q60 0 97 -39q38 -40 38 -93q0 -52 -38 -92q-37 -39 -97 -39t-98 39q-38 40 -38 92q0 53 38 93q37 39 98 39zM698 1688q60 0 98 -39q38 -40 38 -93q0 -52 -38 -92q-38 -39 -98 -39t-97 39q-38 40 -38 92q0 53 38 93q37 39 97 39z" />
    <glyph glyph-name="dollar.LT" unicode="&#xe22e;" 
d="M643 1536v-186q112 -6 192 -40q82 -35 148 -73v-367h-45q-41 168 -123 262q-83 95 -172 123v-407q48 -20 144 -66q74 -35 131 -85q55 -48 94 -124q37 -73 37 -178q0 -172 -109 -284q-107 -110 -297 -127v-189h-92v185q-131 2 -223 35q-94 34 -170 79v418h45
q17 -102 56 -182q37 -78 86 -131q49 -54 101 -85q53 -32 105 -44v471q-84 35 -147 64q-74 34 -133 81q-58 46 -96 115q-38 68 -38 166q0 160 112 266q111 105 302 117v186h92zM348 1108q0 -84 59 -134q60 -51 144 -89v385q-88 -1 -145 -48q-58 -47 -58 -114zM846 250
q0 94 -59 151q-61 60 -144 99v-439q87 6 145 56t58 133z" />
    <glyph glyph-name="dollar.OP" unicode="&#xe22f;" horiz-adv-x="1116" 
d="M608 1536v-186q112 -6 192 -40q82 -35 148 -73v-367h-45q-41 168 -123 262q-83 95 -172 123v-407q56 -23 145 -66q72 -34 130 -85q55 -48 94 -124q37 -73 37 -178q0 -172 -109 -284q-107 -110 -297 -127v-189h-92v185q-131 2 -223 35q-94 34 -170 79v418h45
q17 -102 56 -182q37 -78 86 -131q48 -53 102 -85t104 -44v471q-73 30 -146 64q-74 34 -133 81t-97 115t-38 166q0 160 112 266q111 105 302 117v186h92zM313 1108q0 -84 59 -134q60 -51 144 -89v385q-88 -1 -145 -48q-58 -47 -58 -114zM811 250q0 94 -58 151q-61 59 -145 99
v-439q88 6 146 56q57 49 57 133z" />
    <glyph glyph-name="dollar.OT" unicode="&#xe230;" 
d="M643 1536v-186q112 -6 192 -40q82 -35 148 -73v-367h-45q-41 168 -123 262q-83 95 -172 123v-407q48 -20 144 -66q74 -35 131 -85q55 -48 94 -124q37 -73 37 -178q0 -172 -109 -284q-107 -110 -297 -127v-189h-92v185q-131 2 -223 35q-94 34 -170 79v418h45
q17 -102 56 -182q37 -78 86 -131q49 -54 101 -85q53 -32 105 -44v471q-84 35 -147 64q-74 34 -133 81q-58 46 -96 115q-38 68 -38 166q0 160 112 266q111 105 302 117v186h92zM348 1108q0 -84 59 -134q60 -51 144 -89v385q-88 -1 -145 -48q-58 -47 -58 -114zM846 250
q0 94 -59 151q-61 60 -144 99v-439q87 6 145 56t58 133z" />
    <glyph glyph-name="dollar.numr" unicode="&#xe233;" horiz-adv-x="854" 
d="M465 1475v-129q83 -4 146 -27q61 -22 114 -53v-256h-43q-27 104 -88 162q-62 59 -129 77v-239q57 -23 106 -46q56 -26 100 -62q43 -36 72 -89t29 -129q0 -125 -83 -205t-224 -92v-131h-66v129q-93 1 -172 24q-73 21 -131 56v293h41q12 -65 41 -116q28 -48 65 -84
q34 -33 78 -53q44 -21 78 -26v273q-11 5 -49 21.5t-60 25.5q-54 23 -103 59q-44 32 -75 84q-30 49 -30 121q0 119 86 197q86 79 231 86v129h66zM279 1161q0 -43 34 -71q37 -30 86 -52v219q-53 0 -87 -28q-33 -27 -33 -68zM580 584q0 47 -33 80t-82 57v-244q55 4 85 36
q30 31 30 71z" />
    <glyph glyph-name="dotaccent.cap" unicode="&#xe295;" horiz-adv-x="1024" 
d="M512 1710q68 0 112 -44t44 -110q0 -65 -44 -109t-112 -44t-112 44t-44 109q0 66 44 110t112 44z" />
    <glyph glyph-name="downwards_white_arrow" unicode="&#xe298;" horiz-adv-x="1579" 
d="M123 1331h1333l-668 -1351zM1309 1235h-1041l520 -1065z" />
    <glyph glyph-name="e.sup" unicode="&#xe29c;" horiz-adv-x="782" 
d="M731 1110v-61h-455v-13q0 -109 50 -182q50 -72 149 -72t156 55q55 54 67 119h31q0 -147 -85 -251q-86 -105 -243 -105q-165 0 -247 99q-82 98 -82 241q0 74 24 146q24 73 73 131q48 57 119 93q70 36 165 36q143 0 211 -72q67 -71 67 -164zM434 1268q-59 0 -96 -40
q-35 -38 -51 -98h190q19 0 32 10q11 8 11 36q0 33 -20 62q-21 30 -66 30z" />
    <glyph glyph-name="eight.LT" unicode="&#xe29d;" 
d="M1051 379q0 -172 -127 -286q-126 -113 -340 -113q-109 0 -195 20q-94 22 -155 63q-62 42 -101 107q-37 62 -37 149q0 117 84 195t197 117q-100 56 -169 137q-71 83 -71 219q0 155 118 260q119 105 316 105q85 0 169 -19q77 -18 136 -53q56 -34 88 -87q31 -52 31 -118
q0 -109 -79 -176q-78 -66 -191 -104q56 -26 121 -65q58 -35 104 -84q47 -50 73 -114q28 -68 28 -153zM350 1096q0 -52 26 -92q27 -42 67 -70q43 -31 98 -56q14 -6 52.5 -24.5t61.5 -28.5q56 49 90 104q33 54 33 136q0 94 -59 149q-61 56 -164 56q-93 0 -149 -48t-56 -126z
M330 328q0 -126 73 -196q74 -71 195 -71q109 0 175 52q65 51 65 139q0 72 -35 122q-36 52 -91 88q-58 38 -127 69q-77 35 -141 65q-56 -52 -84 -115q-30 -66 -30 -153z" />
    <glyph glyph-name="eight.OP" unicode="&#xe29e;" horiz-adv-x="1118" 
d="M1036 379q0 -172 -127 -286q-126 -113 -340 -113q-108 0 -194 20q-94 22 -155 63q-62 42 -101 107q-37 62 -37 149q0 117 84 195t196 117q-98 55 -168 137q-71 83 -71 219q0 155 118 260t316 105q85 0 169 -19q76 -17 135 -53q56 -34 88 -87t32 -118q0 -109 -79 -176
q-78 -66 -191 -104q51 -24 120 -65q60 -36 105 -84q47 -50 73 -114q27 -66 27 -153zM336 1096q0 -54 25 -92q26 -40 68 -70q45 -32 97 -56q8 -4 50 -23t65 -30q56 49 90 104q33 54 33 136q0 94 -59 149q-61 56 -164 56q-95 0 -150 -48t-55 -126zM315 328q0 -125 74 -196
t195 -71q109 0 175 52q64 51 64 139q0 72 -35 122q-36 52 -91 88q-58 38 -127 69q-62 28 -140 65q-56 -52 -84 -115q-31 -68 -31 -153z" />
    <glyph glyph-name="eight.OT" unicode="&#xe29f;" 
d="M1051 379q0 -172 -127 -286q-126 -113 -340 -113q-109 0 -195 20q-94 22 -155 63q-62 42 -101 107q-37 62 -37 149q0 117 84 195t197 117q-100 56 -169 137q-71 83 -71 219q0 155 118 260q119 105 316 105q85 0 169 -19q77 -18 136 -53q56 -34 88 -87q31 -52 31 -118
q0 -109 -79 -176q-78 -66 -191 -104q56 -26 121 -65q58 -35 104 -84q47 -50 73 -114q28 -68 28 -153zM350 1096q0 -52 26 -92q27 -42 67 -70q43 -31 98 -56q14 -6 52.5 -24.5t61.5 -28.5q56 49 90 104q33 54 33 136q0 94 -59 149q-61 56 -164 56q-93 0 -149 -48t-56 -126z
M330 328q0 -126 73 -196q74 -71 195 -71q109 0 175 52q65 51 65 139q0 72 -35 122q-36 52 -91 88q-58 38 -127 69q-77 35 -141 65q-56 -52 -84 -115q-30 -66 -30 -153z" />
    <glyph glyph-name="eight.numr" unicode="&#xe2a1;" horiz-adv-x="872" 
d="M791 664q0 -119 -95 -199t-252 -80t-259 59q-103 60 -103 179q0 78 58 130t139 81q-70 40 -119 99t-49 157q0 111 88 183q90 73 235 73q133 0 224 -51q90 -50 90 -138q0 -73 -55 -120q-51 -44 -136 -72q88 -43 161 -110t73 -191zM301 1167q0 -63 55 -100t131 -70
q32 29 51 66q17 33 17 86q0 55 -35 87t-96 32q-56 0 -90 -28q-33 -27 -33 -73zM287 629q0 -79 46 -122q47 -44 122 -44q66 0 106 31q39 30 39 81q0 43 -21 75t-58 58q-38 27 -81 47q-30 14 -92 44q-28 -33 -45 -75q-16 -41 -16 -95z" />
    <glyph glyph-name="exclam.sup" unicode="&#xe2aa;" horiz-adv-x="450" 
d="M248 965h-47l-115 581h276zM225 600q-61 0 -102 41t-41 100q0 60 41 101t102 41q62 0 103 -41t41 -101q0 -59 -41 -100t-103 -41z" />
    </font>
</defs>
</svg>
