<?xml version="1.0" standalone="no"?>
<!DOCTYPE svg PUBLIC "-//W3C//DTD SVG 1.1//EN" "http://www.w3.org/Graphics/SVG/1.1/DTD/svg11.dtd" >
<svg xmlns="http://www.w3.org/2000/svg" xmlns:xlink="http://www.w3.org/1999/xlink" version="1.1">
<metadata>
Created by FontForge 20170731 at Fri Dec 31 01:44:51 2021
 By Aleksey,,,
Copyright (c) 2020 by Bureau Brut. All rights reserved.
</metadata>
<defs>
<font id="BoogyBrutPosterWEBL-Black" horiz-adv-x="1024" >
  <font-face 
    font-family="Boogy Brut Poster WBL Black"
    font-weight="900"
    font-stretch="normal"
    units-per-em="2048"
    panose-1="2 0 0 0 0 0 0 0 0 0"
    ascent="1536"
    descent="-512"
    x-height="1024"
    cap-height="1331"
    bbox="-174 -410 3779 2089"
    underline-thickness="114"
    underline-position="-462"
    unicode-range="U+0020-FB04"
  />
<missing-glyph horiz-adv-x="2048" 
d="M205 -410v1844h1638v-1844h-1638zM1206 1077q48 0 78 -24q31 -25 31 -66q0 -50 -74 -107q-67 -52 -163 -117q-90 -61 -163 -125t-73 -130q0 -73 45 -136t114 -120l5 4q-7 7 -8 12q-1 4 -1 15q0 46 76 95q60 39 165 110q85 58 165 136q76 75 76 169q0 69 -31 136
q-29 63 -90 113q-59 49 -148 79q-88 30 -202 30q-201 0 -287 -66t-86 -153q0 -50 25 -94t65 -84h18q104 139 233 232q127 91 230 91zM1047 -221q90 0 148 58t58 147q0 88 -58 146t-148 58q-91 0 -149 -58t-58 -146q0 -89 58 -147t149 -58z" />
    <glyph glyph-name="f_f" unicode="ff" horiz-adv-x="1404" 
d="M461 240q0 -76 11 -116q13 -47 31 -69q20 -25 45 -35q23 -9 56 -16v-4h-614v4q33 7 56 16q25 10 45 35q18 22 31 69q11 40 11 116v579h-205v4l205 92q1 133 64 246q62 112 159 190t226 122q126 43 262 43q75 0 134 -17q56 -16 89 -43q78 48 165 74q85 26 187 26
q111 0 163 -40t52 -99q0 -39 -20 -72q-22 -36 -51 -65h-21q-117 123 -178 172t-113 49q-56 0 -91 -50q-34 -49 -34 -163v-264h338v-205h-338v-579q0 -72 12 -116q13 -49 30 -69q20 -25 45 -35q22 -9 57 -16v-4h-615v4q35 7 57 16q25 10 45 35q17 20 30 69q12 44 12 116v579
h-338v-579zM657 1458q-91 0 -143 -69q-53 -70 -53 -230v-135h342q7 82 38 155q32 77 72 132q-91 88 -146 116q-60 31 -110 31z" />
    <glyph glyph-name="fi" unicode="fi" horiz-adv-x="1249" 
d="M461 240q0 -76 11 -116q13 -47 31 -69q20 -25 45 -35q23 -9 56 -16v-4h-614v4q33 7 56 16q25 10 45 35q18 22 31 69q11 40 11 116v579h-205v4l205 92v31q0 133 61 249t158 194q99 79 228 123q130 44 264 44q131 0 199 -43q69 -43 69 -116q0 -43 -20 -79q-22 -39 -54 -71
h-20q-142 150 -218 200q-79 52 -143 52q-91 0 -143 -69q-53 -70 -53 -230v-176h575l90 41v-825q0 -72 12 -116q13 -49 30 -69q20 -25 45 -35q22 -9 57 -16v-4h-615v4q35 7 57 16q25 10 45 35q17 20 30 69q12 44 12 116v579h-338v-579z" />
    <glyph glyph-name="fl" unicode="fl" horiz-adv-x="1249" 
d="M461 240q0 -76 11 -116q13 -47 31 -69q20 -25 45 -35q23 -9 56 -16v-4h-614v4q33 7 56 16q25 10 45 35q18 22 31 69q11 40 11 116v579h-205v4l205 92v31q0 136 49 249q50 116 133 194q84 79 198 123q115 44 241 44q71 0 119 -18t71 -49l182 84v-1333q0 -72 12 -116
q13 -49 30 -69q20 -25 45 -35q22 -9 57 -16v-4h-615v4q35 7 57 16q25 10 45 35q17 20 30 69q12 44 12 116v1122q-73 73 -123 107q-47 32 -90 32q-56 0 -91 -50q-34 -49 -34 -163v-264h276v-205h-276v-579z" />
    <glyph glyph-name="f_f_i" unicode="ffi" horiz-adv-x="1914" 
d="M461 240q0 -76 11 -116q13 -47 31 -69q20 -25 45 -35q23 -9 56 -16v-4h-614v4q33 7 56 16q25 10 45 35q18 22 31 69q11 40 11 116v579h-205v4l205 92q1 133 64 246q62 112 159 190t226 122q126 43 262 43q90 0 151 -21q62 -21 90 -59q92 57 201 89q106 31 223 31
q132 0 200 -43q69 -43 69 -116q0 -41 -21 -79q-23 -41 -53 -71h-21q-142 150 -218 200q-79 52 -142 52q-91 0 -143 -69q-54 -71 -54 -230v-176h576l90 41v-825q0 -76 11 -116q13 -47 31 -69q20 -25 45 -35q23 -9 56 -16v-4h-614v4q33 7 56 16q25 10 45 35q18 22 31 69
q11 40 11 116v579h-338v-579q0 -72 12 -116q13 -49 30 -69q20 -25 45 -35q22 -9 57 -16v-4h-615v4q35 7 57 16q25 10 45 35q17 20 30 69q12 44 12 116v579h-338v-579zM657 1458q-91 0 -143 -69q-53 -70 -53 -230v-135h344q11 78 42 147q32 71 81 127q-94 92 -156 126
q-61 34 -115 34z" />
    <glyph glyph-name="f_f_l" unicode="ffl" horiz-adv-x="1914" 
d="M461 240q0 -76 11 -116q13 -47 31 -69q20 -25 45 -35q23 -9 56 -16v-4h-614v4q33 7 56 16q25 10 45 35q18 22 31 69q11 40 11 116v579h-205v4l205 92q1 133 64 246q62 112 159 190t226 122q126 43 262 43q75 0 134 -17q56 -16 89 -43q78 48 165 74q85 26 187 26
q72 0 120 -18t71 -49l182 84v-1333q0 -76 11 -116q13 -47 31 -69q20 -25 45 -35q23 -9 56 -16v-4h-614v4q33 7 56 16q25 10 45 35q18 22 31 69q11 40 11 116v1122q-73 73 -123 107q-47 32 -90 32q-56 0 -91 -50q-34 -49 -34 -163v-264h277v-205h-277v-579q0 -72 12 -116
q13 -49 30 -69q20 -25 45 -35q22 -9 57 -16v-4h-615v4q35 7 57 16q25 10 45 35q17 20 30 69q12 44 12 116v579h-338v-579zM657 1458q-91 0 -143 -69q-53 -70 -53 -230v-135h342q7 82 38 155q32 77 72 132q-91 88 -146 116q-60 31 -110 31z" />
    <glyph glyph-name="f_j" unicode="fj" horiz-adv-x="1239" 
d="M461 240q0 -76 11 -116q13 -47 31 -69q20 -25 45 -35q23 -9 56 -16v-4h-614v4q33 7 56 16q25 10 45 35q18 22 31 69q11 40 11 116v579h-205v4l205 92v31q0 133 61 249t158 194q99 79 228 123q130 44 264 44q131 0 199 -43q69 -43 69 -116q0 -43 -20 -79q-22 -39 -54 -71
h-20q-142 150 -218 200q-79 52 -143 52q-91 0 -143 -69q-53 -70 -53 -230v-176h575l90 41v-983q0 -93 -26 -152q-27 -62 -85 -105q-60 -45 -153 -80q-92 -35 -227 -73v4q57 38 90 69q31 30 49 70q16 37 21 88q4 44 4 126v790h-338v-579z" />
    <glyph glyph-name="f_b" unicode="fb" horiz-adv-x="1839" 
d="M461 240q0 -76 11 -116q13 -47 31 -69q20 -25 45 -35q23 -9 56 -16v-4h-614v4q33 7 56 16q25 10 45 35q18 22 31 69q11 40 11 116v579h-205v4l205 92v31q0 136 49 249q50 116 133 194q84 79 198 123q115 44 241 44q71 0 119 -18t71 -49l182 84v-825q16 27 60 92
q33 49 80 96q46 46 99 77t118 31q142 0 228 -125q87 -126 87 -319q0 -140 -44 -257q-43 -115 -118 -196q-74 -80 -172 -123q-100 -44 -207 -44q-82 0 -157 34q-72 32 -137 88l-160 -143h-4v1403q-73 73 -123 107q-47 32 -90 32q-56 0 -91 -50q-34 -49 -34 -163v-264h276
v-205h-276v-579zM1286 821q-47 0 -86 -21q-38 -21 -74 -61v-395q0 -165 44 -253q44 -87 112 -87q49 0 86 34q39 36 62 91q22 53 35 137q12 80 12 170q0 176 -49 282q-48 103 -142 103z" />
    <glyph glyph-name="f_h" unicode="fh" horiz-adv-x="1863" 
d="M1126 240q0 -72 12 -116q13 -49 30 -69q20 -25 45 -35q22 -9 57 -16q33 7 56 16q25 10 45 35q18 22 31 69q11 40 11 116v422q0 76 -24 116q-24 41 -101 41q-38 0 -76 -18q-31 -15 -86 -60v-501zM461 240q0 -76 11 -116q13 -47 31 -69q20 -25 45 -35q23 -9 56 -16v-4h-614
v4q33 7 56 16q25 10 45 35q18 22 31 69q11 40 11 116v579h-205v4l205 92v31q0 136 49 249q50 116 133 194q84 79 198 123q115 44 241 44q71 0 119 -18t71 -49l182 84v-823q77 113 172 205q92 89 203 89q142 0 191 -88t49 -241v-475q0 -76 11 -116q13 -47 31 -69
q20 -25 45 -35q23 -9 56 -16v-4h-1229v4q35 7 57 16q25 10 45 35q17 20 30 69q12 44 12 116v1122q-73 73 -123 107q-47 32 -90 32q-56 0 -91 -50q-34 -49 -34 -163v-264h276v-205h-276v-579z" />
    <glyph glyph-name="f_k" unicode="fk" horiz-adv-x="1824" 
d="M461 240q0 -76 11 -116q13 -47 31 -69q20 -25 45 -35q23 -9 56 -16v-4h-614v4q33 7 56 16q25 10 45 35q18 22 31 69q11 40 11 116v579h-205v4l205 92v31q0 136 49 249q50 116 133 194q84 79 198 123q115 44 241 44q71 0 119 -18t71 -49l182 84v-1137l265 262q48 48 59 98
q11 49 -4 91q-16 45 -47 78t-68 55v4h549v-4q-129 -57 -228 -129q-103 -75 -200 -172l303 -535q51 -90 86 -131q35 -42 86 -49v-4h-459l-251 481l-91 -90v-151q0 -72 12 -116q13 -49 30 -69q20 -25 45 -35q22 -9 57 -16v-4h-615v4q35 7 57 16q25 10 45 35q17 20 30 69
q12 44 12 116v1122q-73 73 -123 107q-47 32 -90 32q-56 0 -91 -50q-34 -49 -34 -163v-264h276v-205h-276v-579z" />
    <glyph glyph-name="f_t" unicode="ft" horiz-adv-x="1396" 
d="M461 240q0 -76 11 -116q13 -47 31 -69q20 -25 45 -35q23 -9 56 -16v-4h-614v4q33 7 56 16q25 10 45 35q18 22 31 69q11 40 11 116v579h-205v4l205 92v31q0 136 49 249q50 116 133 194q84 79 198 123q115 44 241 44q110 0 162 -40q53 -41 53 -99q0 -37 -21 -72
q-22 -36 -51 -65h-20q-113 119 -179 172q-61 49 -112 49q-56 0 -91 -50q-34 -49 -34 -163v-264h338v-205h-338v-579zM573 823l529 508h4v-307h332v-205h-332v-424q0 -88 36 -136t107 -48q76 0 123 50q48 51 55 171h11q-2 -219 -84 -336q-82 -116 -240 -116q-171 0 -253 101
q-83 103 -83 263v475h-205v4z" />
    <glyph glyph-name="f_f_j" unicode="ffj" horiz-adv-x="1904" 
d="M461 240q0 -76 11 -116q13 -47 31 -69q20 -25 45 -35q23 -9 56 -16v-4h-614v4q33 7 56 16q25 10 45 35q18 22 31 69q11 40 11 116v579h-205v4l205 92q1 133 64 246q62 112 159 190t226 122q126 43 262 43q90 0 151 -21q62 -21 90 -59q92 57 201 89q106 31 223 31
q132 0 200 -43q69 -43 69 -116q0 -41 -21 -79q-23 -41 -53 -71h-21q-142 150 -218 200q-79 52 -142 52q-91 0 -143 -69q-54 -71 -54 -230v-176h576l90 41v-983q0 -90 -27 -152t-85 -105q-61 -45 -152 -80q-90 -34 -228 -73v4q60 40 91 69q31 30 49 70q15 34 20 88
q4 44 4 126v790h-338v-579q0 -72 12 -116q13 -49 30 -69q20 -25 45 -35q22 -9 57 -16v-4h-615v4q35 7 57 16q25 10 45 35q17 20 30 69q12 44 12 116v579h-338v-579zM657 1458q-91 0 -143 -69q-53 -70 -53 -230v-135h344q11 78 42 147q32 71 81 127q-94 92 -156 126
q-61 34 -115 34z" />
    <glyph glyph-name="f_f_b" unicode="ffb" horiz-adv-x="2504" 
d="M461 240q0 -76 11 -116q13 -47 31 -69q20 -25 45 -35q23 -9 56 -16v-4h-614v4q33 7 56 16q25 10 45 35q18 22 31 69q11 40 11 116v579h-205v4l205 92q1 133 64 246q62 112 159 190t226 122q126 43 262 43q75 0 134 -17q56 -16 89 -43q78 48 165 74q85 26 187 26
q72 0 120 -18t71 -49l182 84v-825q23 39 59 92q33 49 80 96q45 45 100 77q53 31 117 31q143 0 229 -125q87 -126 87 -319q0 -140 -44 -257q-43 -115 -118 -196q-74 -80 -172 -123q-100 -44 -207 -44q-83 0 -158 34q-72 32 -137 88l-160 -143h-4v1403q-73 73 -123 107
q-47 32 -90 32q-56 0 -91 -50q-34 -49 -34 -163v-264h277v-205h-277v-579q0 -72 12 -116q13 -49 30 -69q20 -25 45 -35q22 -9 57 -16v-4h-615v4q35 7 57 16q25 10 45 35q17 20 30 69q12 44 12 116v579h-338v-579zM657 1458q-91 0 -143 -69q-53 -70 -53 -230v-135h342
q7 82 38 155q32 77 72 132q-91 88 -146 116q-60 31 -110 31zM1952 821q-47 0 -86 -21q-38 -21 -74 -61v-395q0 -165 44 -253q44 -87 112 -87q49 0 86 34t61 91t36 137q11 73 11 170q0 178 -48 282q-48 103 -142 103z" />
    <glyph glyph-name="f_f_h" unicode="ffh" horiz-adv-x="2529" 
d="M657 1458q-91 0 -143 -69q-53 -70 -53 -230v-135h342q7 82 38 155q32 77 72 132q-91 88 -146 116q-60 31 -110 31zM1792 240q0 -76 11 -116q13 -47 31 -69q20 -25 45 -35q23 -9 56 -16q35 7 57 16q25 10 45 35q17 20 30 69q12 44 12 116v422q0 74 -25 116q-24 41 -100 41
q-38 0 -76 -18q-31 -15 -86 -60v-501zM461 240q0 -76 11 -116q13 -47 31 -69q20 -25 45 -35q23 -9 56 -16v-4h-614v4q33 7 56 16q25 10 45 35q18 22 31 69q11 40 11 116v579h-205v4l205 92q1 133 64 246q62 112 159 190t226 122q126 43 262 43q75 0 134 -17q56 -16 89 -43
q78 48 165 74q85 26 187 26q72 0 120 -18t71 -49l182 84v-823q77 113 172 205q92 89 203 89q141 0 190 -88t49 -241v-475q0 -72 12 -116q13 -49 30 -69q20 -25 45 -35q22 -9 57 -16v-4h-1229v4q33 7 56 16q25 10 45 35q18 22 31 69q11 40 11 116v1122q-73 73 -123 107
q-47 32 -90 32q-56 0 -91 -50q-34 -49 -34 -163v-264h277v-205h-277v-579q0 -72 12 -116q13 -49 30 -69q20 -25 45 -35q22 -9 57 -16v-4h-615v4q35 7 57 16q25 10 45 35q17 20 30 69q12 44 12 116v579h-338v-579z" />
    <glyph glyph-name="f_f_k" unicode="ffk" horiz-adv-x="2490" 
d="M461 240q0 -76 11 -116q13 -47 31 -69q20 -25 45 -35q23 -9 56 -16v-4h-614v4q33 7 56 16q25 10 45 35q18 22 31 69q11 40 11 116v579h-205v4l205 92q1 133 64 246q62 112 159 190t226 122q126 43 262 43q75 0 134 -17q56 -16 89 -43q78 48 165 74q85 26 187 26
q72 0 120 -18t71 -49l182 84v-1137l264 262q49 49 60 98q10 47 -5 91q-16 45 -47 78q-33 34 -67 55v4h549v-4q-132 -58 -229 -129q-99 -72 -199 -172l303 -535q51 -90 86 -131q35 -42 86 -49v-4h-459l-252 481l-90 -90v-151q0 -76 11 -116q13 -47 31 -69q20 -25 45 -35
q23 -9 56 -16v-4h-614v4q33 7 56 16q25 10 45 35q18 22 31 69q11 40 11 116v1122q-73 73 -123 107q-47 32 -90 32q-56 0 -91 -50q-34 -49 -34 -163v-264h277v-205h-277v-579q0 -72 12 -116q13 -49 30 -69q20 -25 45 -35q22 -9 57 -16v-4h-615v4q35 7 57 16q25 10 45 35
q17 20 30 69q12 44 12 116v579h-338v-579zM657 1458q-91 0 -143 -69q-53 -70 -53 -230v-135h342q7 82 38 155q32 77 72 132q-91 88 -146 116q-60 31 -110 31z" />
    <glyph glyph-name="f_f_t" unicode="fft" horiz-adv-x="2062" 
d="M461 240q0 -76 11 -116q13 -47 31 -69q20 -25 45 -35q23 -9 56 -16v-4h-614v4q33 7 56 16q25 10 45 35q18 22 31 69q11 40 11 116v579h-205v4l205 92q1 133 64 246q62 112 159 190t226 122q126 43 262 43q75 0 134 -17q56 -16 89 -43q78 48 165 74q85 26 187 26
q111 0 163 -40t52 -99q0 -39 -20 -72q-22 -36 -51 -65h-21q-117 123 -178 172t-113 49q-56 0 -91 -50q-34 -49 -34 -163v-264h322l319 307h5v-307h331v-205h-331v-424q0 -89 35 -136q36 -48 108 -48q76 0 123 50q48 51 55 171h10q-1 -219 -84 -336q-82 -116 -239 -116
q-171 0 -253 101q-83 103 -83 263v475h-318v-579q0 -72 12 -116q13 -49 30 -69q20 -25 45 -35q22 -9 57 -16v-4h-615v4q35 7 57 16q25 10 45 35q17 20 30 69q12 44 12 116v579h-338v-579zM657 1458q-91 0 -143 -69q-53 -70 -53 -230v-135h342q7 82 38 155q32 77 72 132
q-91 88 -146 116q-60 31 -110 31z" />
    <glyph glyph-name=".notdef" horiz-adv-x="2048" 
d="M205 -410v1844h1638v-1844h-1638zM1206 1077q48 0 78 -24q31 -25 31 -66q0 -50 -74 -107q-67 -52 -163 -117q-90 -61 -163 -125t-73 -130q0 -73 45 -136t114 -120l5 4q-7 7 -8 12q-1 4 -1 15q0 46 76 95q60 39 165 110q85 58 165 136q76 75 76 169q0 69 -31 136
q-29 63 -90 113q-59 49 -148 79q-88 30 -202 30q-201 0 -287 -66t-86 -153q0 -50 25 -94t65 -84h18q104 139 233 232q127 91 230 91zM1047 -221q90 0 148 58t58 147q0 88 -58 146t-148 58q-91 0 -149 -58t-58 -146q0 -89 58 -147t149 -58z" />
    <glyph glyph-name=".null" horiz-adv-x="0" 
 />
    <glyph glyph-name="nonmarkingreturn" horiz-adv-x="682" 
 />
    <glyph glyph-name="space" unicode=" " horiz-adv-x="409" 
 />
    <glyph glyph-name="exclam" unicode="!" horiz-adv-x="577" 
d="M287 500l-207 831h420l-207 -831h-6zM289 -20q-91 0 -149 58t-58 146q0 89 58 147t149 58q90 0 148 -58q59 -59 59 -147q0 -87 -59 -146q-58 -58 -148 -58z" />
    <glyph glyph-name="quotedbl" unicode="&#x22;" horiz-adv-x="874" 
d="M229 647l-147 684h301l-147 -684h-7zM639 647l-147 684h301l-148 -684h-6z" />
    <glyph glyph-name="numbersign" unicode="#" 
d="M133 850h209l147 481h35l-147 -481h381l147 481h35l-147 -481h211v-31h-220l-94 -307h201v-31h-209l-147 -481h-35l147 481h-381l-147 -481h-35l147 481h-211v31h220l94 307h-201v31zM274 512h381l95 307h-381z" />
    <glyph glyph-name="dollar" unicode="$" horiz-adv-x="1040" 
d="M100 63v433h4q73 -156 152 -258t154 -152v457q-74 39 -129 74q-64 41 -112 92t-78 115t-30 149q0 156 97 251t252 119v193h36v-188q12 1 38 3q13 1 40 1h46q16 0 44 -2v186h37v-188q59 -4 125 -20q60 -14 135 -44v-391h-4q-67 113 -133 200q-64 84 -123 134v-400
q73 -38 123 -72q61 -41 105 -91q45 -51 72 -119q28 -70 28 -156q2 -159 -89 -260q-91 -102 -239 -135v-199h-37v191q-7 0 -23 -1.5t-24 -2.5q-32 -2 -51 -2h-36q-12 0 -34 2v-187h-36v189q-74 6 -150 24q-78 18 -160 55zM446 930q43 -23 82 -42q15 -7 43 -21t43 -21v407
q-42 28 -85 43q-44 16 -83 17v-383zM260 1163q0 -73 42 -122q43 -51 108 -89v359q-72 -7 -111 -48t-39 -100zM610 20h2h2v414q-52 30 -80 45t-88 45v-461q37 -20 83 -32q44 -11 81 -11zM795 188q0 73 -40 125q-42 54 -104 97v-387q71 11 107 53q37 43 37 112z" />
    <glyph glyph-name="ampersand" unicode="&#x26;" horiz-adv-x="1366" 
d="M823 639l209 -248q66 135 25 230q-40 94 -158 133v4h537v-4q-49 -26 -104 -63q-43 -29 -89 -75q-43 -43 -88 -103q-44 -58 -100 -148l170 -203q67 -80 126 -116q57 -35 107 -42v-4h-516l-88 100q-67 -55 -157 -91q-86 -34 -193 -34q-201 0 -333 103q-130 102 -130 254
q0 135 75 219q76 85 230 147q-52 78 -77 146t-25 149q0 154 103 256q105 103 288 103q177 0 272 -68q94 -67 94 -178q0 -89 -93 -155t-249 -111q37 -49 74 -94q48 -58 90 -107zM475 1194q-1 -61 30 -130t138 -204q34 43 60 121q24 73 24 158q0 89 -36 138q-36 50 -97 50
q-53 0 -85 -32q-33 -33 -34 -101zM332 553q0 -170 105 -275q106 -106 263 -106q20 0 41 3q25 4 41 7l-245 283q-19 23 -53 62t-46 53q-41 48 -78 100q-10 -20 -19 -50t-9 -77z" />
    <glyph glyph-name="quotesingle" unicode="'" horiz-adv-x="464" 
d="M229 647l-147 684h301l-147 -684h-7z" />
    <glyph glyph-name="parenleft" unicode="(" horiz-adv-x="690" 
d="M399 635q0 -321 71 -523q71 -203 192 -343l-5 -5q-108 81 -195 161q-94 87 -164 189q-71 105 -113 231q-42 127 -42 290t42 290q42 126 113 231q70 102 164 189q81 75 195 160l5 -4q-125 -134 -194 -339q-69 -206 -69 -527z" />
    <glyph glyph-name="parenright" unicode=")" horiz-adv-x="690" 
d="M291 635q0 321 -69 527t-193 339l4 4q114 -85 195 -160q94 -87 164 -189q71 -105 113 -231q42 -127 42 -290t-42 -290q-42 -126 -113 -231q-70 -102 -164 -189q-87 -80 -195 -161l-4 5q119 138 191 343q71 202 71 523z" />
    <glyph glyph-name="asterisk" unicode="*" horiz-adv-x="720" 
d="M485 1331l-125 -336l-127 336h252zM721 979l-361 16l283 224zM0 977l78 240l282 -222zM360 995l-96 -350l-203 148zM459 647l-99 348l302 -200z" />
    <glyph glyph-name="plus" unicode="+" horiz-adv-x="839" 
d="M41 651h360v373h37v-373h361v-30h-361v-373h-37v373h-360v30z" />
    <glyph glyph-name="comma" unicode="," horiz-adv-x="577" 
d="M117 377h358l-389 -705h-4z" />
    <glyph glyph-name="hyphen" unicode="-" horiz-adv-x="737" 
d="M102 778h533v-286h-533v286z" />
    <glyph glyph-name="period" unicode="." horiz-adv-x="577" 
d="M289 -20q-91 0 -149 58t-58 146q0 89 58 147t149 58q90 0 148 -58q59 -59 59 -147q0 -87 -59 -146q-58 -58 -148 -58z" />
    <glyph glyph-name="slash" unicode="/" horiz-adv-x="598" 
d="M57 0h-37l521 1331h37z" />
    <glyph glyph-name="zero" unicode="0" horiz-adv-x="1187" 
d="M594 1352q122 0 225 -50q100 -49 174 -141q73 -91 113 -217q41 -129 41 -278q0 -150 -41 -279q-40 -126 -113 -217t-174 -140q-103 -50 -225 -50t-225 50q-101 49 -174 140t-113 217q-41 129 -41 279q0 149 41 278q40 126 113 217q74 92 174 141q103 50 225 50zM594 1325
q-44 0 -83 -31q-38 -31 -65 -106q-27 -77 -42 -203q-15 -127 -15 -319t15 -320q15 -126 42 -203q27 -75 65 -106q39 -31 83 -31t83 31q37 30 64 106q27 77 42 203q16 136 16 320q0 183 -16 319q-15 126 -42 203q-27 76 -64 106q-39 31 -83 31z" />
    <glyph glyph-name="one" unicode="1" horiz-adv-x="747" 
d="M-80 860v4l664 508v-1112q0 -82 14 -125q15 -47 39 -74q23 -26 58 -38q40 -14 73 -19v-4h-707v4q33 5 73 19q37 13 59 38t38 74q15 47 15 125v723z" />
    <glyph glyph-name="two" unicode="2" horiz-adv-x="874" 
d="M-41 0v4q165 151 291 280q117 120 186 213q71 95 100 170q29 74 29 150q0 116 -65 181q-67 67 -185 67t-201 -68t-83 -190h-11q0 115 29 217q29 101 84 173q58 75 136 114q82 41 184 41q160 0 269 -91t109 -276q0 -99 -40 -180q-41 -83 -117 -162q-79 -82 -186 -170
q-60 -49 -248 -207h614v-266h-895z" />
    <glyph glyph-name="three" unicode="3" horiz-adv-x="937" 
d="M262 637q135 21 220 83q87 63 87 169q0 82 -61 136q-62 54 -182 54q-106 0 -185 -64q-80 -65 -80 -173h-10q0 109 29 205q27 91 82 161q53 69 131 106q79 38 178 38q171 0 262 -87q92 -87 92 -216q0 -87 -63 -166q-64 -81 -203 -109q73 -15 134 -53q62 -38 108 -92
q44 -51 70 -119q26 -67 26 -131q0 -97 -46 -171q-48 -77 -122 -125q-79 -51 -177 -77t-212 -26q-179 0 -262 67q-84 67 -84 160q0 49 28 99q27 48 66 87h16q107 -216 181 -300q72 -81 164 -81q64 0 105 59q40 58 40 156q0 157 -94 266q-95 110 -238 134v10z" />
    <glyph glyph-name="four" unicode="4" horiz-adv-x="1062" 
d="M1022 4v-4h-686v4q33 5 73 19q35 12 58 38q24 27 39 74q14 43 14 125v27h-540v4l854 1143h4v-942h184v-205h-184v-27q0 -82 14 -125q15 -47 39 -74q23 -26 58 -38q40 -14 73 -19zM172 492h348v466z" />
    <glyph glyph-name="five" unicode="5" horiz-adv-x="915" 
d="M874 422q0 -108 -44 -193q-43 -83 -117 -139q-75 -56 -171 -83q-97 -27 -202 -27q-179 0 -262 67q-84 67 -84 160q0 49 28 99q27 48 66 87h16q105 -187 200 -275q92 -85 198 -85q77 0 123 55q47 56 47 156q0 50 -21 109q-22 61 -83 116q-66 59 -180 110q-119 53 -310 93
l158 659h608v-266h-635l-29 -123q222 -44 354 -98q133 -54 210 -122t103 -142q27 -76 27 -158z" />
    <glyph glyph-name="six" unicode="6" horiz-adv-x="1105" 
d="M1065 438q0 -114 -37 -198q-40 -90 -99 -144q-63 -57 -146 -87q-80 -29 -173 -29q-119 0 -223 40q-103 40 -181 118t-121 191q-44 115 -44 259q0 204 61 348q62 146 158 238q96 91 218 135q120 43 241 43q157 0 230 -47t73 -117q0 -36 -18 -73q-17 -35 -52 -75h-20
q-33 39 -111 130q-45 52 -78 84t-60 45q-28 14 -60 14q-136 0 -193 -146q-57 -145 -57 -395q0 -52 1 -79t3 -79q58 89 133 157q79 71 188 71q169 0 268 -113t99 -291zM651 10q69 0 99 76q30 77 30 199q0 79 -15 150q-15 69 -46 122q-30 52 -79 82q-50 31 -112 31
q-37 0 -77 -14q-41 -14 -74 -50q7 -122 27 -232q20 -111 54 -190q36 -82 82 -127q49 -47 111 -47z" />
    <glyph glyph-name="seven" unicode="7" horiz-adv-x="897" 
d="M20 1065v266h918v-4q-86 -145 -155 -285q-75 -151 -127 -305q-55 -162 -86 -342t-31 -395h-410v4l639 1061h-748z" />
    <glyph glyph-name="eight" unicode="8" horiz-adv-x="1114" 
d="M557 1352q224 0 349 -82q126 -82 126 -240q0 -129 -88 -208q-87 -78 -248 -101q178 -24 278 -118q99 -93 99 -245q0 -184 -136 -281t-380 -97t-380 97t-136 281q0 152 99 245q100 94 278 118q-161 23 -248 101q-88 79 -88 208q0 158 126 240q125 82 349 82zM557 1325
q-63 0 -105 -60t-42 -235q0 -172 42 -233q42 -62 105 -62q64 0 106 62q42 61 42 233q0 175 -42 235t-106 60zM557 709q-79 0 -128 -72q-50 -73 -50 -279t50 -279t128 -73t128 73t50 279t-50 279q-49 72 -128 72z" />
    <glyph glyph-name="nine" unicode="9" horiz-adv-x="1105" 
d="M1065 743q0 -204 -61 -348q-61 -145 -158 -237q-96 -91 -218 -135q-120 -43 -241 -43q-157 0 -230 47t-73 116q0 35 18 73q17 35 52 75h20q33 -39 111 -130q49 -58 77 -84q32 -30 61 -45q28 -14 60 -14q136 0 193 146q57 145 57 395q0 52 -1 79t-3 79q-58 -89 -133 -157
q-79 -71 -188 -71q-169 0 -268 113q-99 112 -99 291q0 115 37 199q39 89 99 143q63 57 146 87t173 30q117 0 223 -41q103 -40 181 -118t121 -191q44 -115 44 -259zM455 1321q-69 0 -99 -76q-30 -77 -30 -198q0 -81 15 -151q15 -69 46 -122q30 -52 79 -82q48 -30 112 -30
q39 0 77 13q41 14 74 50q-7 114 -28 232q-20 115 -53 190q-36 82 -82 127q-49 47 -111 47z" />
    <glyph glyph-name="colon" unicode=":" horiz-adv-x="577" 
d="M289 -20q-91 0 -149 58t-58 146q0 89 58 147t149 58q90 0 148 -58q59 -59 59 -147q0 -87 -59 -146q-58 -58 -148 -58zM289 635q-91 0 -149 58t-58 147q0 88 58 146t149 58q90 0 148 -58q59 -59 59 -146q0 -88 -59 -147q-58 -58 -148 -58z" />
    <glyph glyph-name="semicolon" unicode=";" horiz-adv-x="577" 
d="M289 635q-91 0 -149 58t-58 147q0 88 58 146t149 58q90 0 148 -58q59 -59 59 -146q0 -88 -59 -147q-58 -58 -148 -58zM117 377h358l-389 -705h-4z" />
    <glyph glyph-name="less" unicode="&#x3c;" horiz-adv-x="839" 
d="M41 631v24l758 389v-34l-717 -367l717 -367v-34z" />
    <glyph glyph-name="equal" unicode="=" horiz-adv-x="839" 
d="M41 815h758v-31h-758v31zM41 487h758v-30h-758v30z" />
    <glyph glyph-name="greater" unicode="&#x3e;" horiz-adv-x="839" 
d="M799 631l-758 -389v34l717 367l-717 367v34l758 -389v-24z" />
    <glyph glyph-name="question" unicode="?" horiz-adv-x="888" 
d="M594 1278q-103 0 -230 -91q-128 -92 -233 -233h-18q-40 40 -65 84t-25 95q0 87 86 153t286 66q115 0 203 -30q87 -29 147 -79q62 -51 91 -114q30 -65 30 -136q0 -95 -75 -169q-77 -75 -165 -135q-105 -71 -165 -110q-76 -49 -76 -96q0 -10 1 -14q2 -7 7 -12l-4 -4
q-73 60 -115 119q-45 63 -45 137q0 65 74 130q73 64 163 125q107 72 163 116q73 57 73 108q0 41 -30 65q-31 25 -78 25zM434 -20q-90 0 -148 58q-59 59 -59 146q0 88 59 147q58 58 148 58q91 0 149 -58t58 -147q0 -88 -58 -146t-149 -58z" />
    <glyph glyph-name="at" unicode="@" horiz-adv-x="1443" 
d="M1044 117q-51 0 -97 10q-50 11 -86 37q-37 26 -61 75q-24 48 -24 124v26q-12 -126 -81 -199t-165 -73q-82 0 -129 36t-47 99q0 32 24 55q23 22 79 49l319 148v184q0 80 -23 123q-24 45 -94 45q-87 0 -121 -79q-34 -78 5 -199q-42 -24 -78 -31q-41 -8 -80 -2
q-28 79 25 153q54 76 135 136q64 52 138 95q68 40 140 40q116 0 166 -62q49 -61 49 -151v-402q0 -74 32 -108q32 -33 87 -33q82 0 142 100q61 102 61 279q0 123 -44 232q-42 105 -124 187q-79 79 -192 123q-112 44 -244 44q-142 0 -270 -51q-123 -49 -213 -139t-139 -212
q-50 -124 -50 -268q0 -145 46 -265q47 -122 130 -210q82 -87 207 -137q124 -50 274 -50q91 0 173 21q88 22 153 55l10 -18q-72 -37 -156 -58q-81 -20 -180 -20q-155 0 -282 51t-214 141t-135 216q-49 129 -49 274q0 147 53 276q52 128 143 218q91 92 219 144q126 52 280 52
q132 0 249 -44q115 -44 198 -123q84 -81 131 -191q48 -112 48 -248q0 -117 -26 -202q-28 -90 -73 -149q-49 -63 -107 -93q-61 -31 -132 -31zM586 330q0 -26 16 -41t51 -15q50 0 87 52q36 51 36 133v16l-88 -41q-56 -30 -77 -47q-25 -21 -25 -57z" />
    <glyph glyph-name="A" unicode="A" horiz-adv-x="1210" 
d="M334 4v-4h-467v4q72 53 133 142q65 94 143 292l260 656q-56 109 -121 159t-155 74v4h371l82 205l534 -1231q65 -150 116 -210q48 -57 113 -91v-4h-741v4q40 6 77 27q40 22 62 57q25 39 28 90t-28 125l-45 107h-526q-31 -94 -28 -163q3 -72 30 -121q29 -52 70 -81
q45 -31 92 -41zM444 1006q-6 16 -10 24q-1 2 -10 23l-174 -439h360z" />
    <glyph glyph-name="B" unicode="B" horiz-adv-x="1335" 
d="M-20 1327v4h688q309 0 445 -66t136 -225q0 -154 -138 -230q-137 -76 -359 -91q285 -7 414 -94q128 -86 128 -250q0 -98 -47 -169q-47 -70 -132 -117q-85 -46 -203 -67q-124 -22 -257 -22h-675v4q31 5 72 19q37 13 59 38q24 27 39 74q14 43 14 125v811q0 82 -14 125
q-15 47 -39 74t-59 39q-36 12 -72 18zM625 1300h-113v-565h141q105 0 169 78q65 79 65 195q0 50 -9 103q-9 50 -37 94q-27 42 -80 69q-51 26 -136 26zM625 700h-113v-669h141q119 0 195 93q76 92 76 234q0 57 -11 121q-11 61 -42 111q-32 51 -91 80q-60 30 -155 30z" />
    <glyph glyph-name="C" unicode="C" horiz-adv-x="1306" 
d="M653 1313q-83 0 -152 -33q-70 -34 -117 -92q-49 -62 -74 -140q-25 -79 -25 -178q0 -158 45 -272q46 -117 116 -187q75 -75 166 -108q96 -35 191 -35q83 0 161 26q74 25 139 79q61 51 107 137q45 84 66 201h10q-7 -144 -50 -278q-42 -131 -117 -232q-76 -102 -182 -161
q-108 -60 -249 -60q-139 0 -259 48q-121 48 -206 135q-86 88 -134 209q-48 122 -48 267q0 159 55 290q56 132 150 225q94 92 220 145q127 53 265 53q113 0 225 -25q105 -23 238 -76v-432h-4q-130 274 -266 384t-271 110z" />
    <glyph glyph-name="D" unicode="D" horiz-adv-x="1449" 
d="M-20 1327v4h636q372 0 583 -170q210 -169 210 -471q0 -158 -62 -283q-64 -130 -168 -219t-245 -139q-138 -49 -291 -49h-663v4q31 5 72 19q37 13 59 38q24 27 39 74q14 43 14 125v811q0 82 -14 125q-15 47 -39 74t-59 39q-36 12 -72 18zM655 31q89 0 159 51
q72 52 121 137q50 86 77 201q26 110 26 237q0 116 -21 230q-21 115 -74 207q-54 93 -143 149q-91 57 -227 57h-61v-1054q0 -116 39 -166q39 -49 104 -49z" />
    <glyph glyph-name="E" unicode="E" horiz-adv-x="1259" 
d="M512 266q0 -143 46 -189t138 -46q103 0 183 47q79 46 138 125q57 77 97 180q39 101 60 211h4v-594h-1198v4q31 5 72 19q37 13 59 38q24 27 39 74q14 43 14 125v811q0 82 -14 125q-15 47 -39 74t-59 39q-36 12 -72 18v4h1198v-471h-4q-60 212 -176 326t-336 114h-150v-579
h33q69 0 130 28q58 27 100 72t69 105t39 123h4v-687h-4q-12 63 -39 123t-69 105q-44 47 -100 73q-59 27 -130 27h-33v-424z" />
    <glyph glyph-name="F" unicode="F" horiz-adv-x="1177" 
d="M545 629h-33v-369q0 -115 41 -173q40 -56 164 -83v-4h-737v4q31 5 72 19q37 13 59 38q24 27 39 74q14 43 14 125v811q0 82 -14 125q-15 47 -39 74t-59 39q-36 12 -72 18v4h1157v-471h-4q-60 212 -176 326q-115 114 -336 114h-109v-641h33q69 0 130 28q56 26 100 73
q43 46 69 104q27 60 39 123h4v-686h-4q-12 63 -39 123q-26 58 -69 104q-44 47 -100 73q-61 28 -130 28z" />
    <glyph glyph-name="G" unicode="G" horiz-adv-x="1421" 
d="M602 758h696v-799h-4l-344 201q-80 -80 -165 -131q-82 -49 -210 -49q-123 0 -222 48q-98 48 -168 134q-68 84 -106 204t-38 257q0 167 61 301t165 229q101 92 241 146q138 53 285 53q116 0 233 -23q115 -23 272 -78v-432h-4q-96 160 -173 256q-81 101 -148 152
q-70 53 -135 71q-70 19 -133 19q-89 0 -154 -40q-66 -41 -108 -111q-40 -68 -62 -168q-21 -98 -21 -212q0 -158 50 -276q50 -117 126 -192q74 -73 174 -111q96 -37 193 -37h47v547h-348v41z" />
    <glyph glyph-name="H" unicode="H" horiz-adv-x="1597" 
d="M512 260q0 -82 14 -125q15 -47 39 -74q22 -25 59 -38q41 -14 72 -19v-4h-716v4q31 5 72 19q37 13 59 38q24 27 39 74q14 43 14 125v811q0 82 -14 125q-15 47 -39 74t-59 39q-36 12 -72 18v4h716v-4q-36 -6 -72 -18q-35 -12 -59 -39t-39 -74q-14 -43 -14 -125v-350h573
v350q0 82 -14 125q-15 47 -39 74t-58 39q-35 12 -73 18v4h717v-4q-38 -6 -73 -18q-34 -12 -58 -39t-39 -74q-14 -43 -14 -125v-811q0 -82 14 -125q15 -47 39 -74q23 -26 58 -38q40 -14 73 -19v-4h-717v4q33 5 73 19q35 12 58 38q24 27 39 74q14 43 14 125v430h-573v-430z
" />
    <glyph glyph-name="I" unicode="I" horiz-adv-x="675" 
d="M512 260q0 -82 14 -125q15 -47 39 -74q22 -25 59 -38q41 -14 72 -19v-4h-716v4q31 5 72 19q37 13 59 38q24 27 39 74q14 43 14 125v811q0 82 -14 125q-15 47 -39 74t-59 39q-36 12 -72 18v4h716v-4q-36 -6 -72 -18q-35 -12 -59 -39t-39 -74q-14 -43 -14 -125v-811z" />
    <glyph glyph-name="J" unicode="J" horiz-adv-x="675" 
d="M0 -324q57 38 90 69q31 30 49 70q16 37 21 88q4 44 4 126v1042q0 82 -14 125q-15 47 -39 74t-59 39q-36 12 -72 18v4h716v-4q-36 -6 -72 -18q-35 -12 -59 -39t-39 -74q-14 -43 -14 -125v-989q0 -89 -28 -151q-27 -60 -88 -104q-62 -45 -158 -80q-101 -37 -238 -75v4z" />
    <glyph glyph-name="K" unicode="K" horiz-adv-x="1314" 
d="M819 948l-12 -14l438 -750q53 -92 87 -132q35 -41 85 -48v-4h-489l-359 651l-57 -67v-324q0 -82 14 -125q15 -47 39 -74q22 -25 59 -38q41 -14 72 -19v-4h-716v4q31 5 72 19q37 13 59 38q24 27 39 74q14 43 14 125v811q0 82 -14 125q-15 47 -39 74t-59 39q-36 12 -72 18
v4h716v-4q-36 -6 -72 -18q-35 -12 -59 -39t-39 -74q-14 -43 -14 -125v-442l270 321q53 64 71 123t10 110q-8 50 -35 88q-28 38 -60 56v4h549v-4q-142 -62 -268 -161q-134 -105 -230 -218z" />
    <glyph glyph-name="L" unicode="L" horiz-adv-x="1136" 
d="M717 1331v-4q-124 -27 -164 -83q-41 -58 -41 -173v-1040h68q220 0 336 114t176 326h4v-471h-1116v4q31 5 72 19q37 13 59 38q24 27 39 74q14 43 14 125v811q0 82 -14 125q-15 47 -39 74t-59 39q-36 12 -72 18v4h737z" />
    <glyph glyph-name="M" unicode="M" horiz-adv-x="1705" 
d="M168 362v822q-46 67 -101 96q-58 31 -149 47v4h580l381 -913l364 913h483v-4q-36 -6 -72 -18q-35 -12 -59 -39t-39 -74q-14 -43 -14 -125v-811q0 -82 14 -125q15 -47 39 -74q22 -25 59 -38q41 -14 72 -19v-4h-716v4q31 5 72 19q37 13 59 38q24 27 39 74q14 43 14 125v856
l-471 -1177l-473 1087q-12 27 -24 51q-4 8 -11 23t-10 22v-760q0 -104 21 -168t57 -103t79 -56q49 -20 93 -31v-4h-537v4q41 11 92 31q45 18 80 56t56 103q22 68 22 168z" />
    <glyph glyph-name="N" unicode="N" horiz-adv-x="1284" 
d="M168 362v689l-53 61q-77 89 -132 144q-56 56 -141 71v4h557l691 -796v434q0 101 -22 169q-21 64 -56 102t-80 56q-51 20 -92 31v4h536v-4q-41 -11 -92 -31q-45 -18 -80 -56t-56 -102q-22 -68 -22 -169v-1030h-4l-917 1069v-646q0 -104 21 -168t57 -103t79 -56
q49 -20 93 -31v-4h-537v4q41 11 92 31q45 18 80 56t56 103q22 68 22 168z" />
    <glyph glyph-name="O" unicode="O" horiz-adv-x="1435" 
d="M741 1352q145 0 267 -48q118 -47 206 -136q89 -90 134 -210q47 -124 47 -268q0 -155 -56 -287q-55 -131 -150 -225q-92 -92 -223 -146q-126 -52 -274 -52q-144 0 -264 49q-121 49 -206 136q-85 86 -133 208t-48 266q0 157 55 288q54 129 151 226q92 92 223 146
q129 53 271 53zM686 1323q-128 0 -191 -147t-63 -449q0 -120 19 -255q18 -126 56 -230q37 -101 98 -168q60 -66 145 -66q133 0 193 148q61 149 61 446q0 127 -18 256q-19 133 -55 232q-37 99 -98 167q-60 66 -147 66z" />
    <glyph glyph-name="P" unicode="P" horiz-adv-x="1327" 
d="M717 0h-737v4q31 5 72 19q37 13 59 38q24 27 39 74q14 43 14 125v811q0 82 -14 125q-15 47 -39 74t-59 39q-36 12 -72 18v4h620q358 0 522 -102t164 -334q0 -119 -54 -210q-53 -90 -148 -151q-96 -62 -221 -93t-275 -31h-76v-150q0 -115 41 -173q40 -56 164 -83v-4z
M553 1300h-41v-860h74q140 0 235 113q94 112 94 309q0 89 -17 164q-19 82 -59 140q-42 60 -112 98q-66 36 -174 36z" />
    <glyph glyph-name="Q" unicode="Q" horiz-adv-x="1435" 
d="M840 -41h481l-178 -287h-82q-43 0 -90 9q-38 7 -78 38q-37 29 -86 93q-53 70 -115 168q-144 0 -264 49q-121 49 -206 136q-85 86 -133 208t-48 266q0 157 55 288q54 129 151 226q92 92 223 146q129 53 271 53q145 0 267 -48q118 -47 206 -136q89 -90 134 -210
q47 -124 47 -268q0 -155 -56 -287t-149 -225q-94 -94 -221 -146q-126 -52 -269 -52q17 -12 48 -17q27 -4 92 -4zM686 1323q-128 0 -191 -147t-63 -449q0 -120 19 -255q18 -126 56 -230q37 -101 98 -168q60 -66 145 -66q133 0 193 148q61 149 61 446q0 127 -18 256
q-19 133 -55 232q-37 99 -98 167q-60 66 -147 66z" />
    <glyph glyph-name="R" unicode="R" horiz-adv-x="1335" 
d="M-20 1331h720q324 0 454 -71q132 -72 132 -240q0 -152 -112 -233q-112 -80 -308 -103q54 -1 100 -30q44 -27 83 -93l217 -377q50 -90 86 -132q34 -40 86 -48v-4h-475l-271 563q-24 52 -48 74q-23 22 -83 22h-49v-399q0 -82 14 -125q15 -47 39 -74q22 -25 59 -38
q41 -14 72 -19v-4h-716v4q31 5 72 19q37 13 59 38q24 27 39 74q14 43 14 125v811q0 82 -14 125q-15 47 -39 74t-59 39q-36 12 -72 18v4zM657 1300h-145v-610h152q110 0 181 86q70 85 70 211q0 128 -61 220q-62 93 -197 93z" />
    <glyph glyph-name="S" unicode="S" horiz-adv-x="1122" 
d="M100 90v473h4q68 -145 148 -251q78 -104 155 -167q79 -65 150 -91q73 -27 135 -27q88 0 136 49q49 51 49 133q0 117 -128 177q-136 64 -280 121q-152 60 -280 152t-128 273q0 102 36 181q35 77 100 131q64 53 153 80q93 28 195 28q109 0 222 -25q102 -23 237 -76v-432h-5
q-153 266 -299 380q-145 114 -264 112q-84 0 -130 -48q-46 -47 -46 -120q0 -115 126 -165q188 -74 274 -106q151 -56 275 -151q126 -96 126 -301t-135 -323q-133 -117 -348 -117q-124 0 -232 26q-112 27 -246 84z" />
    <glyph glyph-name="T" unicode="T" horiz-adv-x="1351" 
d="M850 260q0 -82 14 -125q15 -47 39 -74q22 -25 59 -38q41 -14 72 -19v-4h-717v4q33 5 73 19q37 13 59 38t38 74q15 47 15 125v1040h-6q-197 0 -295 -117q-99 -119 -156 -323h-4v471h1270v-471h-4q-57 204 -156 323q-98 117 -295 117h-6v-1040z" />
    <glyph glyph-name="U" unicode="U" horiz-adv-x="1335" 
d="M502 547q0 -166 77 -258t240 -92t243 92q79 91 79 258v422q0 101 -22 169q-21 64 -56 102t-80 56q-51 20 -92 31v4h536v-4q-41 -11 -92 -31q-45 -18 -80 -56t-56 -102t-21 -169v-396q0 -303 -138 -449q-136 -144 -374 -144q-239 0 -375 143q-137 145 -137 450v498
q0 79 -15 125q-15 47 -39 74t-58 39q-35 12 -73 18v4h717v-4q-38 -6 -73 -18q-34 -12 -58 -39t-39 -74q-14 -43 -14 -125v-524z" />
    <glyph glyph-name="V" unicode="V" horiz-adv-x="1050" 
d="M76 1026q-66 154 -116 211q-48 56 -114 90v4h742v-4q-41 -6 -77 -25q-38 -20 -62 -56q-25 -38 -28 -90t28 -128l256 -610l186 477q39 99 39 174q0 77 -27 129q-28 54 -70 86t-96 43v4h467v-4q-70 -52 -133 -143t-143 -291l-379 -954z" />
    <glyph glyph-name="W" unicode="W" horiz-adv-x="1601" 
d="M61 1026q-61 156 -103 211q-43 56 -101 90v4h659v-4q-31 -5 -58 -24q-30 -21 -48 -58q-20 -41 -21 -91q-2 -55 25 -126l213 -579l157 446q0 3 1 4t1 4l-47 123q-58 155 -102 211q-45 57 -102 90v4h661v-4q-33 -5 -60 -24q-32 -22 -49 -58q-19 -39 -20 -91q-2 -55 25 -126
l215 -582l155 449q35 100 35 175q0 79 -22 130q-23 54 -63 85q-41 32 -83 42v4h416v-4q-62 -51 -119 -143q-58 -93 -127 -291l-338 -954l-356 915l-322 -915z" />
    <glyph glyph-name="X" unicode="X" horiz-adv-x="1075" 
d="M1012 221q65 -110 120 -151q58 -44 117 -66v-4h-737v4q21 1 50 19q29 17 46 45q20 31 21 67q2 39 -27 86l-225 371l-174 -277q-43 -67 -46 -122q-3 -57 19 -95q22 -39 62 -63q42 -26 81 -31v-4h-471v4q76 39 150 102q72 62 168 211l192 306l-295 487q-67 113 -119 152
q-54 41 -118 65v4h737v-4q-23 -2 -50 -18q-29 -17 -46 -45q-20 -31 -21 -68q-2 -39 27 -86l184 -303l131 209q44 68 47 123q3 54 -20 94q-23 39 -61 63q-41 25 -82 31v4h471v-4q-77 -39 -150 -102q-72 -62 -168 -211l-149 -238z" />
    <glyph glyph-name="Y" unicode="Y" horiz-adv-x="1050" 
d="M92 1026q-78 154 -128 210q-52 58 -118 91v4h742v-4q-25 -2 -52 -24q-28 -24 -46 -62q-16 -36 -18 -93q-1 -51 30 -120l209 -473l151 340q41 95 42 170q2 77 -22 131q-23 53 -65 89q-40 34 -80 42v4h467v-4q-36 -26 -72 -59t-73 -82q-33 -44 -77 -120q-37 -65 -85 -173
l-176 -404v-229q0 -82 14 -125q15 -47 39 -74q22 -25 59 -38q41 -14 72 -19v-4h-717v4q33 5 73 19q35 12 58 38q24 27 39 74t15 125v193z" />
    <glyph glyph-name="Z" unicode="Z" horiz-adv-x="1159" 
d="M20 0v4l717 1296h-180q-222 0 -338 -116q-117 -117 -174 -324h-4v471h1077v-4l-717 -1296h201q222 0 338 116q117 117 174 324h4v-471h-1098z" />
    <glyph glyph-name="bracketleft" unicode="[" horiz-adv-x="690" 
d="M184 -225v1720h465v-31h-209v-1659h209v-30h-465z" />
    <glyph glyph-name="backslash" unicode="\" horiz-adv-x="598" 
d="M541 0l-521 1331h37l521 -1331h-37z" />
    <glyph glyph-name="bracketright" unicode="]" horiz-adv-x="690" 
d="M506 -225h-465v30h209v1659h-209v31h465v-1720z" />
    <glyph glyph-name="asciicircum" unicode="^" horiz-adv-x="802" 
d="M389 1331h25l389 -758h-35l-367 717l-366 -717h-35z" />
    <glyph glyph-name="underscore" unicode="_" horiz-adv-x="983" 
d="M82 -276h819v-31h-819v31z" />
    <glyph glyph-name="grave" unicode="`" 
d="M510 1147l-326 369h246l84 -369h-4z" />
    <glyph glyph-name="a" unicode="a" horiz-adv-x="1028" 
d="M266 555q-44 -25 -96 -38q-45 -11 -100 -3q-19 51 -10 98q9 49 38 95q27 42 74 88q43 41 96 82q92 70 173 117q86 50 175 50q146 0 207 -76q62 -77 62 -190v-502q0 -87 27 -123t77 -36q39 0 69 21q28 19 50 48l10 -8q-65 -93 -133 -146q-67 -52 -176 -52q-47 0 -90 13
q-47 14 -80 47q-35 35 -57 93q-23 61 -23 154v39q-15 -161 -101 -253q-87 -93 -208 -93q-100 0 -160 45q-59 44 -59 122q0 42 29 70q30 29 100 62l399 186v229q0 97 -31 154q-30 55 -116 55q-110 0 -153 -98q-44 -99 7 -250zM319 246q0 -33 21 -51q22 -19 63 -19
q63 0 110 64q46 62 46 168v22l-111 -53q-65 -32 -97 -60q-32 -27 -32 -71z" />
    <glyph glyph-name="b" unicode="b" horiz-adv-x="1153" 
d="M1112 600q0 -140 -44 -257q-43 -115 -118 -196q-74 -80 -172 -123q-100 -44 -207 -44q-82 0 -157 34q-74 33 -138 88l-159 -143h-4v1368h-205v4l532 242v-825q16 27 60 92q33 49 80 96q46 46 99 77t118 31q142 0 228 -125q87 -126 87 -319zM600 821q-47 0 -86 -21
q-38 -21 -74 -61v-395q0 -165 44 -253q44 -87 112 -87q49 0 86 34t61 91t36 137t12 170q0 176 -49 282q-48 103 -142 103z" />
    <glyph glyph-name="c" unicode="c" horiz-adv-x="983" 
d="M932 809q0 -70 -34 -132q-35 -64 -85 -114h-20q-10 20 -46 94t-52 107q-44 92 -72 136q-33 53 -65 77t-73 24q-74 0 -129 -70t-55 -224q0 -203 96 -316q96 -112 238 -112q112 0 202 62q91 63 115 222h11q-7 -308 -138 -446q-129 -137 -331 -137q-104 0 -188 37
q-81 36 -146 105q-59 63 -95 162q-34 93 -34 208q0 121 45 223q45 103 122 175q79 74 179 114q101 40 217 40q174 0 256 -70t82 -165z" />
    <glyph glyph-name="d" unicode="d" horiz-adv-x="1163" 
d="M41 424q0 140 44 257q43 115 118 196q74 80 172 123q100 44 207 44q32 0 65 -6t66 -18v307h-205v4l532 242v-1368h205v-4l-532 -242v317q-16 -27 -60 -92q-33 -49 -80 -96q-46 -46 -99 -77t-118 -31q-142 0 -228 125q-87 126 -87 319zM553 203q47 0 86 21q38 21 74 61
v395q0 165 -44 253q-43 87 -112 87q-49 0 -86 -34t-61 -91t-36 -137q-12 -79 -12 -170q0 -176 49 -282q48 -103 142 -103z" />
    <glyph glyph-name="e" unicode="e" horiz-adv-x="985" 
d="M580 1044q162 0 255 -66q92 -65 103 -159h-633q-8 -30 -11 -58q-3 -31 -3 -67q0 -211 91 -309t230 -98q138 0 233 89q94 88 109 283h11q-1 -149 -29 -277q-27 -128 -82 -215q-56 -89 -144 -138t-214 -49q-102 0 -184 33t-147 98q-61 61 -98 156q-36 93 -36 210
q0 127 44 233q43 104 118 179t174 115t213 40zM514 1008q-69 0 -122 -41q-52 -40 -79 -117h265q26 0 42 8q15 8 15 35q0 41 -27 78t-94 37z" />
    <glyph glyph-name="f" unicode="f" horiz-adv-x="737" 
d="M461 240q0 -76 11 -116q13 -47 31 -69q20 -25 45 -35q23 -9 56 -16v-4h-614v4q33 7 56 16q25 10 45 35q18 22 31 69q11 40 11 116v579h-205v4l205 92v31q0 136 49 249q50 116 133 194q84 79 198 123q115 44 241 44q110 0 162 -40q53 -41 53 -99q0 -37 -21 -72
q-22 -36 -51 -65h-20q-113 119 -179 172q-61 49 -112 49q-56 0 -91 -50q-34 -49 -34 -163v-264h338v-205h-338v-579z" />
    <glyph glyph-name="g" unicode="g" horiz-adv-x="987" 
d="M481 1044q135 0 225 -32q92 -33 142 -90l47 102h205v-205h-199l3 -24q1 -8 1 -25q0 -133 -125 -217q-124 -84 -323 -84q-48 0 -96 5q-31 3 -82 13q-23 -18 -36 -35q-16 -21 -16 -42q0 -28 24 -43t75 -15h348q150 0 235 -45q86 -45 86 -162q0 -83 -60 -169
q-58 -82 -160 -152q-100 -68 -231 -110q-132 -42 -274 -42q-131 0 -198 44q-66 44 -66 114q0 57 62 104q82 62 155 113q-94 4 -156 43q-63 39 -63 125q0 89 79 149q75 56 187 125q-114 29 -178 98q-61 65 -61 156q0 134 125 218q123 83 325 83zM483 496q67 0 95 57
q28 56 28 174q0 48 -8 102q-7 47 -27 94q-17 40 -48 68q-30 27 -70 27q-64 0 -94 -57q-29 -55 -29 -175q0 -48 8 -102q7 -46 27 -93q18 -42 48 -69q29 -26 70 -26zM193 -53q0 -87 88 -115q90 -29 225 -29q147 0 246 39q98 39 98 105q0 49 -51 73q-53 25 -154 25h-381h-16
h-17q-16 -21 -28 -47q-10 -21 -10 -51z" />
    <glyph glyph-name="h" unicode="h" horiz-adv-x="1187" 
d="M451 240q0 -76 11 -116q13 -47 31 -69q20 -25 45 -35q23 -9 56 -16q33 7 56 16q25 10 45 35q18 22 31 69q11 40 11 116v422q0 76 -24 116q-24 41 -101 41q-38 0 -75 -18q-31 -15 -86 -60v-501zM-82 1331l533 242v-823q77 113 172 205q92 89 202 89q142 0 191 -88t49 -241
v-475q0 -76 11 -116q13 -47 31 -69q20 -25 45 -35q23 -9 56 -16v-4h-1228v4q33 7 56 16q25 10 45 35q18 22 31 69q11 40 11 116v1087h-205v4z" />
    <glyph glyph-name="i" unicode="i" horiz-adv-x="583" 
d="M315 1126q-89 0 -148 59q-58 58 -58 146q0 89 58 147t148 58q91 0 149 -58t58 -147q0 -88 -58 -146q-59 -59 -149 -59zM461 240q0 -76 11 -116q13 -47 31 -69q20 -25 45 -35q23 -9 56 -16v-4h-614v4q33 7 56 16q25 10 45 35q18 22 31 69q11 40 11 116v579h-205v4l533 242
v-825z" />
    <glyph glyph-name="j" unicode="j" horiz-adv-x="573" 
d="M315 1126q-89 0 -148 59q-58 58 -58 146q0 89 58 147t148 58q91 0 149 -58t58 -147q0 -88 -58 -146q-59 -59 -149 -59zM133 29v790h-205v4l533 242v-983q0 -90 -27 -152t-85 -105q-61 -45 -152 -80q-90 -34 -228 -73v4q57 38 90 69q33 32 50 70q15 34 20 88q4 44 4 126z
" />
    <glyph glyph-name="k" unicode="k" horiz-adv-x="1148" 
d="M451 240q0 -76 11 -116q13 -47 31 -69q20 -25 45 -35q23 -9 56 -16v-4h-614v4q33 7 56 16q25 10 45 35q18 22 31 69q11 40 11 116v1087h-205v4l533 242v-1137l264 262q48 48 59 98q11 49 -4 91q-16 45 -47 78t-68 55v4h549v-4q-129 -57 -228 -129q-103 -75 -200 -172
l303 -535q51 -90 86 -131q35 -42 86 -49v-4h-458l-252 481l-90 -90v-151z" />
    <glyph glyph-name="l" unicode="l" horiz-adv-x="573" 
d="M451 240q0 -76 11 -116q13 -47 31 -69q20 -25 45 -35q23 -9 56 -16v-4h-614v4q33 7 56 16q25 10 45 35q18 22 31 69q11 40 11 116v1087h-205v4l533 242v-1333z" />
    <glyph glyph-name="m" unicode="m" horiz-adv-x="1771" 
d="M461 240q0 -75 10 -116q11 -45 29 -69t43 -35q22 -9 51 -16q29 7 51 16q25 11 43 35t29 69q10 41 10 116v422q0 76 -22 116q-23 41 -93 41q-36 0 -70 -19q-33 -18 -81 -59v-501zM1321 240v422q0 75 -23 116t-92 41q-36 0 -70 -19q-33 -18 -81 -59v-13v-13v-475
q0 -75 10 -116q11 -45 29 -69t43 -35q22 -9 51 -16q29 7 51 16q25 11 43 35t29 69q10 41 10 116zM-72 823l533 242v-315q39 57 81 111q41 52 87 94q47 42 94 65q49 24 102 24q130 0 177 -77q49 -79 53 -217q39 57 81 111q41 52 87 94q47 42 94 65q49 24 102 24
q137 0 183 -88q47 -89 47 -241v-475q0 -76 11 -116q13 -47 31 -69q20 -25 45 -35q23 -9 56 -16v-4h-1802v4q33 7 56 16q25 10 45 35q18 22 31 69q11 40 11 116v579h-205v4z" />
    <glyph glyph-name="n" unicode="n" horiz-adv-x="1198" 
d="M461 240q0 -76 11 -116q13 -47 31 -69q20 -25 45 -35q23 -9 56 -16q33 7 56 16q26 11 46 35q17 20 30 69q12 44 12 116v422q0 74 -25 116q-24 41 -100 41q-39 0 -76 -18q-31 -15 -86 -60v-501zM-72 823l533 242v-315q77 113 172 205q92 89 203 89q141 0 190 -88t49 -241
v-475q0 -76 11 -116q13 -47 31 -69q20 -25 45 -35q22 -9 57 -16v-4h-1229v4q33 7 56 16q25 10 45 35q18 22 31 69q11 40 11 116v579h-205v4z" />
    <glyph glyph-name="o" unicode="o" horiz-adv-x="1114" 
d="M575 1044q114 0 207 -37q94 -37 161 -106q67 -68 104 -162q36 -91 36 -207q0 -122 -43 -223q-45 -105 -116 -175q-76 -75 -174 -114q-99 -40 -213 -40q-112 0 -205 37q-94 37 -161 106q-65 67 -103 162q-37 93 -37 207q0 122 43 223q45 105 116 175q75 74 175 114
q99 40 210 40zM532 1016q-74 0 -112 -112q-37 -110 -37 -343q0 -106 11 -197q13 -106 35 -178q25 -80 61 -128q38 -50 92 -50q77 0 113 112q36 111 36 343q0 106 -11 197q-13 106 -35 178q-25 80 -61 128q-38 50 -92 50z" />
    <glyph glyph-name="p" unicode="p" horiz-adv-x="1163" 
d="M123 819h-205v4l533 242v-317q23 39 59 92q33 49 80 96q46 46 99 77t118 31q142 0 228 -125q87 -126 87 -319q0 -140 -44 -257t-117 -196t-173 -123t-206 -44q-33 0 -66 6q-31 6 -65 18v-59q0 -115 38 -163q40 -51 166 -85v-4h-675v4q33 7 56 16q25 10 45 35q18 22 31 69
q11 40 11 115v887zM610 821q-47 0 -86 -21q-36 -20 -73 -61v-395q0 -165 44 -253q43 -87 111 -87q49 0 86 34q39 36 62 91q24 57 36 137q11 73 11 170q0 178 -48 282q-48 103 -143 103z" />
    <glyph glyph-name="q" unicode="q" horiz-adv-x="1153" 
d="M41 424q0 140 44 257q43 115 118 196q74 80 172 123q100 44 207 44q82 0 157 -34q74 -33 138 -88l159 143h4v-1133q0 -72 12 -115q13 -49 30 -69q20 -25 45 -35q22 -9 57 -16v-4h-676v4q126 34 166 85q39 50 39 163v331q-16 -27 -60 -92q-33 -49 -80 -96q-46 -46 -99 -77
t-118 -31q-142 0 -228 125q-87 126 -87 319zM553 203q47 0 86 21q38 21 74 61v395q0 165 -44 253q-43 87 -112 87q-49 0 -86 -34t-61 -91t-36 -137q-12 -79 -12 -170q0 -176 49 -282q48 -103 142 -103z" />
    <glyph glyph-name="r" unicode="r" horiz-adv-x="772" 
d="M143 819h-204v4l532 262v-258q29 108 103 165q75 57 151 57q30 0 63 -7q30 -6 46 -18v-205h-363v-567q0 -114 39 -163q40 -51 166 -85v-4h-676v4q33 7 56 16q25 10 45 35q18 22 31 69q11 40 11 116v579z" />
    <glyph glyph-name="s" unicode="s" horiz-adv-x="876" 
d="M545 29q64 0 96 31q33 32 33 90q0 86 -97 131q-102 47 -215 92q-112 44 -214 120q-97 72 -97 212q0 163 114 251q113 88 279 88q92 0 168 -22q81 -23 168 -61v-336h-4q-117 180 -216 279q-100 100 -200 100q-65 0 -101 -33t-36 -84q0 -84 94 -123q95 -39 207 -81
q111 -42 207 -116q94 -73 94 -229q0 -167 -104 -262q-105 -96 -270 -96q-117 0 -194 21q-73 20 -177 62v332h4q82 -108 155 -184q69 -72 121 -112q50 -39 99 -55q45 -15 86 -15z" />
    <glyph glyph-name="t" unicode="t" horiz-adv-x="741" 
d="M-82 823l528 508h5v-307h331v-205h-331v-424q0 -89 35 -136q36 -48 108 -48q76 0 123 50q48 51 55 171h10q-2 -219 -84 -336q-82 -116 -239 -116q-171 0 -253 101q-83 103 -83 263v475h-205v4z" />
    <glyph glyph-name="u" unicode="u" horiz-adv-x="1187" 
d="M123 819h-205v4l533 242v-703q0 -76 24 -116q24 -41 100 -41q38 0 76 18q31 15 86 60v536h-205v4l533 242v-860h205v-4l-533 -242v315q-77 -113 -172 -205q-92 -89 -203 -89q-141 0 -190 88t-49 241v510z" />
    <glyph glyph-name="v" unicode="v" horiz-adv-x="925" 
d="M137 719q-64 155 -114 211t-115 90v4h641v-4q-33 -5 -60 -22q-30 -19 -47 -46q-19 -29 -20 -70q-2 -47 18 -96l168 -426l94 228q42 100 44 180q1 78 -24 130t-69 82q-43 29 -88 40v4h453v-4q-69 -51 -134 -143q-64 -91 -149 -291l-274 -647z" />
    <glyph glyph-name="w" unicode="w" horiz-adv-x="1476" 
d="M137 719q-64 155 -114 211t-115 90v4h579v-4q-15 -1 -32 -16q-19 -16 -29 -43q-10 -29 -9 -72q2 -46 23 -103l166 -428l96 230l13 33q6 16 10 30l-27 68q-14 39 -41 98q-24 53 -46 90q-27 46 -52 72q-29 30 -59 41v4h600v-4q-33 -5 -60 -22q-30 -19 -47 -46
q-19 -29 -20 -70q-2 -47 18 -96l166 -428l96 230q42 100 44 180q1 78 -24 130t-69 82q-43 29 -88 40v4h453v-4q-69 -51 -134 -143q-64 -91 -149 -291l-274 -647l-269 667q0 -1 -1.5 -4.5t-2.5 -5.5t-2.5 -5.5t-1.5 -4.5l-274 -647z" />
    <glyph glyph-name="x" unicode="x" horiz-adv-x="1058" 
d="M905 221q66 -102 110 -146q43 -43 95 -71v-4h-655v4q21 1 50 19q27 17 45 45q17 27 17 67q0 39 -30 86l-152 232l-84 -138q-42 -69 -43 -122q-2 -55 21 -96q22 -39 62 -63q41 -24 79 -30v-4h-471v4q71 37 151 102q76 61 166 211l99 164l-211 322q-66 103 -111 150
q-41 43 -94 67v4h655v-4q-21 -1 -50 -19q-27 -17 -45 -45q-17 -27 -17 -67t30 -86l140 -211l69 117q42 69 43 122q2 57 -20 96q-21 38 -63 63q-41 24 -79 30v4h471v-4q-71 -37 -151 -102q-76 -61 -166 -211l-86 -144z" />
    <glyph glyph-name="y" unicode="y" horiz-adv-x="925" 
d="M532 109q-69 -164 -143 -271q-73 -106 -190 -106q-104 0 -154 63q-49 62 -41 144h445l-312 780q-63 157 -113 211q-52 56 -116 90v4h641v-4q-32 -5 -61 -22t-47 -46q-17 -28 -19 -70q-2 -47 18 -96l168 -424l94 226q46 106 47 181t-25 129q-25 51 -70 82q-42 29 -89 40v4
h453v-4q-69 -51 -134 -143q-64 -91 -149 -291z" />
    <glyph glyph-name="z" unicode="z" horiz-adv-x="989" 
d="M20 0v4l566 989h-29q-222 0 -337 -114q-115 -113 -175 -326h-4v471h907v-4l-565 -989h49q222 0 337 114q115 113 175 326h4v-471h-928z" />
    <glyph glyph-name="braceleft" unicode="{" horiz-adv-x="690" 
d="M629 -205v-20h-35q-206 0 -298 78q-91 78 -91 249v359q0 83 -33 124q-33 40 -102 40h-29v20h29q69 0 102 40q33 41 33 124v358q0 172 91 250q92 78 298 78h35v-20h-33q-69 0 -102 -45t-33 -140v-348q0 -148 -81 -220t-265 -87q184 -15 265 -87t81 -220v-348
q0 -95 33 -140t102 -45h33z" />
    <glyph glyph-name="bar" unicode="|" horiz-adv-x="446" 
d="M242 1536v-1843h-37v1843h37z" />
    <glyph glyph-name="braceright" unicode="}" horiz-adv-x="690" 
d="M485 102q0 -171 -91 -249q-92 -78 -298 -78h-35v20h33q70 0 103 45q32 44 32 140v348q0 148 81 220t265 87q-184 15 -265 87t-81 220v348q0 96 -32 140q-33 45 -103 45h-33v20h35q206 0 298 -78q91 -78 91 -250v-358q0 -83 33 -124q33 -40 103 -40h28v-20h-28
q-70 0 -103 -40q-33 -41 -33 -124v-359z" />
    <glyph glyph-name="asciitilde" unicode="~" horiz-adv-x="839" 
d="M612 543q70 0 111 45q41 46 41 149v11h35v-11q0 -114 -47 -170q-46 -55 -142 -55q-65 0 -111 34q-47 35 -86 74q-35 35 -83 73q-43 34 -103 34q-69 0 -110 -45q-41 -46 -41 -150v-10h-35v10q0 114 47 170t141 56q66 0 112 -34q47 -34 86 -74q35 -35 83 -73
q43 -34 102 -34z" />
    <glyph glyph-name="nbspace" unicode="&#xa0;" horiz-adv-x="409" 
 />
    <glyph glyph-name="exclamdown" unicode="&#xa1;" horiz-adv-x="577" 
d="M289 1044q90 0 148 -58q59 -59 59 -146q0 -88 -59 -147q-58 -58 -148 -58q-91 0 -149 58t-58 147q0 88 58 146t149 58zM291 524l207 -831h-420l207 831h6z" />
    <glyph glyph-name="cent" unicode="&#xa2;" horiz-adv-x="983" 
d="M932 809q0 -70 -34 -132q-35 -64 -85 -114h-20q-40 82 -142 286q-50 101 -102 134v-692q21 -6 42 -9t44 -3q112 0 202 62q91 63 115 222h11q-7 -288 -121 -427q-112 -137 -293 -154v-187h-37v185h-9h-9q-104 0 -188 37q-81 36 -146 105q-59 63 -95 162q-34 93 -34 208
q0 112 37 205q39 99 102 166q66 71 154 117t188 58v191h37v-187q14 2 22 2h23q174 0 256 -70t82 -165zM301 707q0 -154 58 -258q59 -106 153 -146v696q-8 2 -12 2h-15q-74 0 -129 -70t-55 -224z" />
    <glyph glyph-name="sterling" unicode="&#xa3;" horiz-adv-x="946" 
d="M850 627h-268q-7 -94 -83 -171q-80 -82 -210 -190h626v-266h-895v4q80 80 143 148q56 60 89 107q32 45 46 84q13 36 13 77q0 48 -25 99q-22 45 -61 108h-164v30h144q-84 131 -104 166q-50 85 -50 166q0 89 45 156q44 66 121 113q75 46 175 70q99 24 208 24q154 0 229 -55
q74 -54 74 -126q0 -54 -31 -105t-75 -95h-17q-95 197 -152 272q-58 76 -136 76q-63 0 -104 -41q-40 -40 -40 -107q0 -66 37 -133q39 -71 81 -134q37 -57 81 -130q37 -62 37 -117h266v-30z" />
    <glyph glyph-name="currency" unicode="&#xa4;" horiz-adv-x="839" 
d="M420 911q56 0 101 -17q49 -18 83 -48l92 92l27 -27l-92 -92q30 -34 48 -83q17 -45 17 -101t-17 -101q-18 -49 -48 -83l92 -93l-27 -26l-92 92q-34 -30 -83 -48q-48 -18 -101 -18q-54 0 -102 18q-47 18 -82 48l-93 -92l-26 26l92 93q-30 34 -48 83q-18 48 -18 101t18 101
q18 49 48 83l-92 92l26 27l93 -92q35 30 82 48q45 17 102 17zM420 877q-105 0 -171 -69q-67 -70 -67 -173t67 -173q66 -69 171 -69t171 69t66 173t-66 173t-171 69z" />
    <glyph glyph-name="yen" unicode="&#xa5;" horiz-adv-x="1009" 
d="M80 748h178l-154 315q-67 137 -112 185q-47 50 -105 79v4h695v-4q-23 -2 -47 -21q-26 -21 -40 -54q-16 -37 -16 -82q0 -48 27 -105l184 -416l131 299q36 80 38 150q1 66 -20 115q-20 46 -57 78q-34 30 -69 36v4h409v-4q-63 -47 -128 -125q-64 -77 -142 -256l-86 -198h207
v-31h-221l-52 -119v-188h211v-31h-211v-119q0 -78 15 -125t39 -74q23 -26 58 -38q40 -14 73 -19v-4h-717v4q33 5 73 19q35 12 58 38q24 27 39 74q14 43 14 125v119h-211v31h211v147l-78 160h-194v31z" />
    <glyph glyph-name="brokenbar" unicode="&#xa6;" horiz-adv-x="446" 
d="M242 1536v-717h-37v717h37zM242 410v-717h-37v717h37z" />
    <glyph glyph-name="section" unicode="&#xa7;" horiz-adv-x="1142" 
d="M1061 51q0 -184 -130 -281q-131 -98 -333 -98q-109 0 -222 25q-102 23 -237 76v350h4q135 -234 290 -323t274 -87q75 0 115 36t40 91q0 94 -126 137q-131 45 -274 90q-149 47 -275 126t-126 247q0 100 45 177t125 122q-64 39 -107 98q-42 57 -42 136q0 184 130 281
q131 98 333 98q109 0 222 -25q102 -23 237 -76v-350h-5q-136 235 -289 323q-155 89 -274 87q-74 0 -115 -36q-40 -36 -40 -91q0 -94 126 -137q131 -45 274 -90q148 -46 274 -126q126 -79 126 -247q0 -99 -44 -175t-119 -120q61 -42 103 -101q40 -56 40 -137zM217 657
q0 -71 74 -116q73 -45 180 -81q100 -34 227 -73q122 -38 211 -94q15 17 21 39t6 49q0 70 -74 114q-70 41 -180 77q-33 11 -226 71q-121 38 -212 90q-15 -15 -21 -34t-6 -42zM883 270q-10 -2 -15 -6q-6 -4 -14 -6q5 1 15 5t14 7z" />
    <glyph glyph-name="dieresis" unicode="&#xa8;" 
d="M698 1473q64 0 105 -42q41 -43 41 -100q0 -56 -41 -99q-41 -42 -105 -42t-104 42q-41 43 -41 99q0 57 41 100q40 42 104 42zM326 1473q64 0 104 -42q41 -43 41 -100q0 -56 -41 -99q-41 -42 -104 -42q-64 0 -105 42q-41 43 -41 99q0 57 41 100q41 42 105 42z" />
    <glyph glyph-name="copyright" unicode="&#xa9;" horiz-adv-x="1454" 
d="M727 1352q144 0 274 -52q128 -51 219 -142t142 -218q51 -128 51 -274q0 -148 -51 -275t-142 -218t-219 -142q-127 -51 -274 -51t-274 51q-128 51 -219 142t-142 218t-51 275q0 146 51 274q51 127 142 218t219 142q130 52 274 52zM727 1319q-142 0 -261 -49
q-121 -50 -206 -135q-86 -86 -134 -207q-48 -122 -48 -262q0 -142 48 -263q47 -119 134 -206t206 -136t261 -49t261 49t206 136t134 206q48 122 48 263q0 140 -48 262q-48 121 -134 207q-85 85 -206 135q-119 49 -261 49zM750 1008q-86 0 -136 -68q-49 -67 -49 -170
q0 -151 80 -220t178 -69q84 0 152 47t86 152h10q-5 -77 -28 -146q-25 -74 -65 -124q-43 -54 -104 -85q-62 -32 -141 -32q-152 0 -252 100t-100 260q0 84 33 156q34 74 89 122q59 52 130 79q72 28 155 28q62 0 113 -11q60 -13 121 -38v-217h-4q-62 129 -133 183
q-70 53 -135 53z" />
    <glyph glyph-name="ordfeminine" unicode="&#xaa;" horiz-adv-x="851" 
d="M209 1004q-32 -20 -68 -28q-33 -7 -69 -1q-27 69 20 135t119 119q64 47 121 81q60 36 123 36q121 0 175 -54q52 -52 52 -133v-350q0 -62 16 -87q17 -26 43 -26q21 0 40 14q20 15 30 29l10 -8q-44 -61 -92 -97q-46 -34 -123 -34q-70 0 -131 43t-61 172v8
q-15 -104 -82 -163q-68 -60 -156 -60q-66 0 -106 32q-39 32 -39 85q0 35 21 60q21 26 77 50l285 127v146q0 62 -22 98q-21 35 -81 35q-75 0 -105 -65q-30 -64 3 -164zM268 786q0 -22 12 -35q12 -14 37 -14q40 0 68 45q29 46 29 117v16l-54 -26q-47 -23 -69 -49
q-23 -28 -23 -54zM96 358h643v-30h-643v30zM96 31h643v-31h-643v31z" />
    <glyph glyph-name="guillemotleft" unicode="&#xab;" horiz-adv-x="937" 
d="M508 1065l-148 -451l148 -450h-6l-441 450l441 451h6zM877 1065l-148 -451l148 -450h-7l-440 450l440 451h7z" />
    <glyph glyph-name="logicalnot" unicode="&#xac;" horiz-adv-x="839" 
d="M41 651h758v-403h-37v373h-721v30z" />
    <glyph glyph-name="registered" unicode="&#xae;" horiz-adv-x="1198" 
d="M600 1352q103 0 192 -36t152 -99q62 -62 99 -153q36 -88 36 -192t-36 -192t-99 -153q-62 -63 -152 -100q-89 -36 -192 -36q-104 0 -192 36q-89 36 -153 100t-100 153q-36 88 -36 192t36 192q37 92 100 153q65 63 153 99q89 36 192 36zM600 1319q-97 0 -178 -34
q-83 -35 -140 -93q-60 -61 -93 -141q-33 -79 -33 -179t33 -179q34 -82 93 -142q57 -58 140 -93q81 -34 178 -34t177 34q84 36 141 93q59 59 92 142q32 80 32 179t-32 179q-33 82 -92 141q-57 57 -141 93q-80 34 -177 34zM311 1120v4h283q131 0 197 -31q67 -31 67 -89
q0 -56 -53 -88t-131 -44q29 -1 57 -10q24 -8 43 -37l109 -172q11 -19 19 -24q7 -4 20 -6v-5h-222l-106 191q-7 18 -16 28q-8 9 -23 9h-8v-156q0 -38 12 -50q11 -11 45 -17v-5h-293v5q32 6 44 17q14 12 14 50v367q0 36 -14 47q-12 10 -44 16zM567 1094h-20v-217h33
q39 0 66 31q28 33 28 83q0 37 -21 70t-86 33z" />
    <glyph glyph-name="macron" unicode="&#xaf;" 
d="M737 1438v-213h-450v213h450z" />
    <glyph glyph-name="degree" unicode="&#xb0;" horiz-adv-x="614" 
d="M307 1352q119 0 198 -79t79 -198q0 -118 -79 -197t-198 -79q-118 0 -197 79t-79 197q0 119 79 198t197 79zM307 1317q-105 0 -171 -69t-66 -173t66 -173q65 -68 171 -68t171 68q67 70 67 173t-67 173q-66 69 -171 69z" />
    <glyph glyph-name="plusminus" unicode="&#xb1;" horiz-adv-x="839" 
d="M41 651h360v373h37v-373h361v-30h-361v-373h-37v373h-360v30zM41 31h758v-31h-758v31z" />
    <glyph glyph-name="acute" unicode="&#xb4;" 
d="M514 1147h-4l84 369h246z" />
    <glyph glyph-name="paragraph" unicode="&#xb6;" horiz-adv-x="989" 
d="M625 1331v-1638h-232v4q104 15 149 46q46 31 46 128v661h-21q-103 0 -197 24q-96 24 -168 74q-74 51 -117 128q-44 79 -44 182q0 190 129 291q128 100 385 100h70zM778 1331h191v-4q-81 -16 -118 -47q-36 -30 -36 -127v-1200q0 -76 11 -117q12 -46 34 -72t61 -42
q34 -14 89 -25v-4h-232v1638z" />
    <glyph glyph-name="periodcentered" unicode="&#xb7;" horiz-adv-x="577" 
d="M289 430q-91 0 -149 58t-58 147q0 88 58 146q59 59 149 59q89 0 148 -59t59 -146q0 -88 -59 -147q-58 -58 -148 -58z" />
    <glyph glyph-name="cedilla" unicode="&#xb8;" 
d="M510 -10q-8 -6 -14 -16q-4 -7 -4 -15q0 -14 22 -29q5 -3 14.5 -9.5t17.5 -12t16 -10.5q21 -15 48 -40q23 -21 23 -51q0 -45 -51 -90t-142 -45q-43 0 -81 19q-35 17 -35 53q0 20 9 34t21 21h21q26 -43 58 -75q27 -27 63 -27q15 0 22 7q8 8 8 17q0 19 -19 37q-22 20 -43 36
t-43 36q-20 18 -20 37q0 24 27 51q32 32 76 72h6z" />
    <glyph glyph-name="ordmasculine" unicode="&#xba;" horiz-adv-x="837" 
d="M432 1346q164 0 270 -101q105 -101 105 -258q0 -83 -32 -156q-30 -69 -86 -122q-55 -52 -128 -80q-75 -29 -158 -29q-166 0 -269 100t-103 258q0 85 31 156t86 123t128 80q75 29 156 29zM401 1313q-42 0 -63 -75t-21 -230q0 -64 8 -136q8 -76 21 -120q15 -54 37 -87
q22 -34 53 -34q46 0 65 75q19 73 19 232q0 66 -6 133q-7 74 -20 121q-15 54 -37 87q-22 34 -56 34zM102 358h643v-30h-643v30zM102 31h643v-31h-643v31z" />
    <glyph glyph-name="guillemotright" unicode="&#xbb;" horiz-adv-x="937" 
d="M61 1065h7l440 -451l-440 -450h-7l148 450zM430 1065h6l441 -451l-441 -450h-6l148 450z" />
    <glyph glyph-name="questiondown" unicode="&#xbf;" horiz-adv-x="888" 
d="M455 1044q90 0 148 -58q59 -59 59 -146q0 -88 -59 -147q-58 -58 -148 -58q-91 0 -149 58t-58 147q0 88 58 146t149 58zM295 -254q103 0 230 91q128 92 233 233h18q40 -40 65 -84t25 -95q0 -87 -86 -153t-286 -66q-114 0 -203 30t-148 79q-60 49 -90 114q-30 64 -30 136
q0 95 75 169q76 75 165 135q105 71 165 110q76 49 76 96q0 10 -1 14q-2 7 -7 12l4 4q71 -58 114 -119q45 -63 45 -137q0 -66 -73 -130t-163 -125q-107 -72 -163 -116q-74 -57 -74 -108q0 -40 31 -65t78 -25z" />
    <glyph glyph-name="Agrave" unicode="&#xc0;" horiz-adv-x="1210" 
d="M334 4v-4h-467v4q72 53 133 142q65 94 143 292l260 656q-56 109 -121 159t-155 74v4h371l82 205l534 -1231q65 -150 116 -210q48 -57 113 -91v-4h-741v4q40 6 77 27q40 22 62 57q25 39 28 90t-28 125l-45 107h-526q-31 -94 -28 -163q3 -72 30 -121q29 -52 70 -81
q45 -31 92 -41zM444 1006q-6 16 -10 24q-1 2 -10 23l-174 -439h360zM821 1520v-4l-491 40v205z" />
    <glyph glyph-name="Aacute" unicode="&#xc1;" horiz-adv-x="1210" 
d="M334 4v-4h-467v4q72 53 133 142q65 94 143 292l260 656q-56 109 -121 159t-155 74v4h371l82 205l534 -1231q65 -150 116 -210q48 -57 113 -91v-4h-741v4q40 6 77 27q40 22 62 57q25 39 28 90t-28 125l-45 107h-526q-31 -94 -28 -163q3 -72 30 -121q29 -52 70 -81
q45 -31 92 -41zM444 1006q-6 16 -10 24q-1 2 -10 23l-174 -439h360zM332 1540l491 242v-205l-491 -41v4z" />
    <glyph glyph-name="Acircumflex" unicode="&#xc2;" horiz-adv-x="1210" 
d="M334 4v-4h-467v4q72 53 133 142q65 94 143 292l260 656q-56 109 -121 159t-155 74v4h371l82 205l534 -1231q65 -150 116 -210q48 -57 113 -91v-4h-741v4q40 6 77 27q40 22 62 57q25 39 28 90t-28 125l-45 107h-526q-31 -94 -28 -163q3 -72 30 -121q29 -52 70 -81
q45 -31 92 -41zM444 1006q-6 16 -10 24q-1 2 -10 23l-174 -439h360zM250 1493v4l325 242h5l325 -242v-4l-327 78z" />
    <glyph glyph-name="Atilde" unicode="&#xc3;" horiz-adv-x="1210" 
d="M334 4v-4h-467v4q72 53 133 142q65 94 143 292l260 656q-56 109 -121 159t-155 74v4h371l82 205l534 -1231q65 -150 116 -210q48 -57 113 -91v-4h-741v4q40 6 77 27q40 22 62 57q25 39 28 90t-28 125l-45 107h-526q-31 -94 -28 -163q3 -72 30 -121q29 -52 70 -81
q45 -31 92 -41zM444 1006q-6 16 -10 24q-1 2 -10 23l-174 -439h360zM868 1782q-18 -130 -54 -193t-118 -63q-96 0 -169 29q-75 30 -150 30q-38 0 -58 -17q-21 -18 -28 -52h-4q21 127 55 191q35 65 117 65q94 0 169 -30t150 -30q37 0 58 18t28 52h4z" />
    <glyph glyph-name="Adieresis" unicode="&#xc4;" horiz-adv-x="1210" 
d="M805 1698q63 0 104 -42q41 -43 41 -100q0 -56 -41 -99q-41 -42 -104 -42q-65 0 -105 42q-41 43 -41 99q0 57 41 100q40 42 105 42zM350 1698q64 0 105 -42q41 -43 41 -100q0 -56 -41 -99q-41 -42 -105 -42t-104 42q-41 43 -41 99q0 57 41 100q40 42 104 42zM334 4v-4
h-467v4q72 53 133 142q65 94 143 292l260 656q-56 109 -121 159t-155 74v4h371l82 205l534 -1231q65 -150 116 -210q48 -57 113 -91v-4h-741v4q40 6 77 27q40 22 62 57q25 39 28 90t-28 125l-45 107h-526q-33 -92 -30 -163q3 -72 30 -121q28 -51 71 -81q45 -31 93 -41z
M444 1006q-6 16 -10 24q-1 2 -10 23l-174 -439h360z" />
    <glyph glyph-name="Aring" unicode="&#xc5;" horiz-adv-x="1210" 
d="M334 4v-4h-467v4q72 53 133 142q65 94 143 292l260 656q-56 109 -121 159t-155 74v4h371l82 205l534 -1231q65 -150 116 -210q48 -57 113 -91v-4h-741v4q40 6 77 27q40 22 62 57q25 39 28 90t-28 125l-45 107h-526q-31 -94 -28 -163q3 -72 30 -121q29 -52 70 -81
q45 -31 92 -41zM444 1006q-6 16 -10 24q-1 2 -10 23l-174 -439h360zM578 1536q-132 0 -203 37q-72 37 -72 106t72 107q71 37 203 37q131 0 202 -37q72 -38 72 -107t-72 -106q-71 -37 -202 -37zM578 1798q-51 0 -76 -31t-25 -88t25 -88q24 -30 76 -30q51 0 75 30q25 31 25 88
t-25 88t-75 31z" />
    <glyph glyph-name="AE" unicode="&#xc6;" horiz-adv-x="2109" 
d="M1362 266q0 -143 46 -189t138 -46q103 0 183 47q79 46 138 125q57 77 97 180q37 96 59 211h5v-594h-1199v4q33 5 73 19q37 13 59 38t38 74q15 46 15 125v88h-660q-53 -66 -69 -124q-17 -59 -5 -103q13 -47 43 -76q33 -31 74 -41l-2 -4h-528l2 4q92 47 216 140
q113 85 259 235l670 692q0 79 -15 125q-16 49 -38 74q-24 27 -59 39t-73 18v4h1199v-471h-5q-60 213 -175 326q-116 114 -337 114h-149v-579h33q69 0 130 28q58 27 100 72t69 105t39 123h4v-687h-4q-12 63 -39 123t-69 105q-44 47 -100 73q-59 27 -130 27h-33v-424zM549 553
h465v481z" />
    <glyph glyph-name="Ccedilla" unicode="&#xc7;" horiz-adv-x="1306" 
d="M653 1313q-83 0 -152 -33q-70 -34 -117 -92q-49 -62 -74 -140q-25 -79 -25 -178q0 -158 45 -272q46 -117 116 -187q75 -75 166 -108q96 -35 191 -35q83 0 161 26q74 25 139 79q61 51 107 137q45 84 66 201h10q-7 -144 -50 -278q-42 -131 -117 -232q-76 -102 -182 -161
q-108 -60 -249 -60q-139 0 -259 48q-121 48 -206 135q-86 88 -134 209q-48 122 -48 267q0 159 55 290q56 132 150 225q94 92 220 145q127 53 265 53q113 0 225 -25q105 -23 238 -76v-432h-4q-130 274 -266 384t-271 110zM686 -10q-8 -6 -14 -16q-4 -7 -4 -15q0 -14 22 -29
l48 -32q21 -15 48 -40q23 -21 23 -51q0 -45 -51 -90t-142 -45q-42 0 -80 19q-36 18 -36 53q0 20 9 34t21 21h21q26 -43 58 -75q27 -27 63 -27q15 0 22 7q8 8 8 17q0 19 -19 37q-22 20 -43 36t-43 36q-19 18 -19 37q0 25 26 51q32 32 76 72h6z" />
    <glyph glyph-name="Egrave" unicode="&#xc8;" horiz-adv-x="1259" 
d="M512 266q0 -143 46 -189t138 -46q103 0 183 47q79 46 138 125q57 77 97 180q39 101 60 211h4v-594h-1198v4q31 5 72 19q37 13 59 38q24 27 39 74q14 43 14 125v811q0 82 -14 125q-15 47 -39 74t-59 39q-36 12 -72 18v4h1198v-471h-4q-60 212 -176 326t-336 114h-150v-579
h33q69 0 130 28q58 27 100 72t69 105t39 123h4v-687h-4q-12 63 -39 123t-69 105q-44 47 -100 73q-59 27 -130 27h-33v-424zM926 1438v-4l-492 41v204z" />
    <glyph glyph-name="Eacute" unicode="&#xc9;" horiz-adv-x="1259" 
d="M512 266q0 -143 46 -189t138 -46q103 0 183 47q79 46 138 125q57 77 97 180q39 101 60 211h4v-594h-1198v4q31 5 72 19q37 13 59 38q24 27 39 74q14 43 14 125v811q0 82 -14 125q-15 47 -39 74t-59 39q-36 12 -72 18v4h1198v-471h-4q-60 212 -176 326t-336 114h-150v-579
h33q69 0 130 28q58 27 100 72t69 105t39 123h4v-687h-4q-12 63 -39 123t-69 105q-44 47 -100 73q-59 27 -130 27h-33v-424zM436 1438l492 241v-204l-492 -41v4z" />
    <glyph glyph-name="Ecircumflex" unicode="&#xca;" horiz-adv-x="1259" 
d="M512 266q0 -143 46 -189t138 -46q103 0 183 47q79 46 138 125q57 77 97 180q39 101 60 211h4v-594h-1198v4q31 5 72 19q37 13 59 38q24 27 39 74q14 43 14 125v811q0 82 -14 125q-15 47 -39 74t-59 39q-36 12 -72 18v4h1198v-471h-4q-60 212 -176 326t-336 114h-150v-579
h33q69 0 130 28q58 27 100 72t69 105t39 123h4v-687h-4q-12 63 -39 123t-69 105q-44 47 -100 73q-59 27 -130 27h-33v-424zM354 1434v4l326 241h4l326 -241v-4l-328 77z" />
    <glyph glyph-name="Edieresis" unicode="&#xcb;" horiz-adv-x="1259" 
d="M512 266q0 -143 46 -189t138 -46q103 0 183 47q79 46 138 125q57 77 97 180q39 101 60 211h4v-594h-1198v4q31 5 72 19q37 13 59 38q24 27 39 74q14 43 14 125v811q0 82 -14 125q-15 47 -39 74t-59 39q-36 12 -72 18v4h1198v-471h-4q-60 212 -176 326t-336 114h-150v-579
h33q69 0 130 28q58 27 100 72t69 105t39 123h4v-687h-4q-12 63 -39 123t-69 105q-44 47 -100 73q-59 27 -130 27h-33v-424zM868 1698q64 0 105 -42q41 -43 41 -100q0 -56 -41 -99q-41 -42 -105 -42t-104 42q-41 43 -41 99q0 57 41 100q40 42 104 42zM496 1698q64 0 104 -42
q41 -43 41 -100q0 -56 -41 -99q-40 -42 -104 -42t-105 42q-41 43 -41 99q0 57 41 100q41 42 105 42z" />
    <glyph glyph-name="Igrave" unicode="&#xcc;" horiz-adv-x="675" 
d="M512 260q0 -82 14 -125q15 -47 39 -74q22 -25 59 -38q41 -14 72 -19v-4h-716v4q31 5 72 19q37 13 59 38q24 27 39 74q14 43 14 125v811q0 82 -14 125q-15 47 -39 74t-59 39q-36 12 -72 18v4h716v-4q-36 -6 -72 -18q-35 -12 -59 -39t-39 -74q-14 -43 -14 -125v-811z
M582 1438v-4l-492 41v204z" />
    <glyph glyph-name="Iacute" unicode="&#xcd;" horiz-adv-x="675" 
d="M512 260q0 -82 14 -125q15 -47 39 -74q22 -25 59 -38q41 -14 72 -19v-4h-716v4q31 5 72 19q37 13 59 38q24 27 39 74q14 43 14 125v811q0 82 -14 125q-15 47 -39 74t-59 39q-36 12 -72 18v4h716v-4q-36 -6 -72 -18q-35 -12 -59 -39t-39 -74q-14 -43 -14 -125v-811z
M92 1438l492 241v-204l-492 -41v4z" />
    <glyph glyph-name="Icircumflex" unicode="&#xce;" horiz-adv-x="675" 
d="M512 260q0 -82 14 -125q15 -47 39 -74q22 -25 59 -38q41 -14 72 -19v-4h-716v4q31 5 72 19q37 13 59 38q24 27 39 74q14 43 14 125v811q0 82 -14 125q-15 47 -39 74t-59 39q-36 12 -72 18v4h716v-4q-36 -6 -72 -18q-35 -12 -59 -39t-39 -74q-14 -43 -14 -125v-811z
M10 1434v4l326 241h4l326 -241v-4l-328 77z" />
    <glyph glyph-name="Idieresis" unicode="&#xcf;" horiz-adv-x="675" 
d="M512 260q0 -82 14 -125q15 -47 39 -74q22 -25 59 -38q41 -14 72 -19v-4h-716v4q31 5 72 19q37 13 59 38q24 27 39 74q14 43 14 125v811q0 82 -14 125q-15 47 -39 74t-59 39q-36 12 -72 18v4h716v-4q-36 -6 -72 -18q-35 -12 -59 -39t-39 -74q-14 -43 -14 -125v-811z
M524 1698q64 0 105 -42q41 -43 41 -100q0 -56 -41 -99q-41 -42 -105 -42t-104 42q-41 43 -41 99q0 57 41 100q41 42 104 42zM152 1698q64 0 104 -42q41 -43 41 -100q0 -56 -41 -99q-40 -42 -104 -42t-105 42q-41 43 -41 99q0 57 41 100q40 42 105 42z" />
    <glyph glyph-name="Eth" unicode="&#xd0;" horiz-adv-x="1449" 
d="M0 692h164v379q0 82 -14 125q-15 47 -39 74t-59 39q-36 12 -72 18v4h636q372 0 583 -170q210 -169 210 -471q0 -158 -62 -283q-64 -130 -168 -219t-245 -139q-138 -49 -291 -49h-663v4q31 5 72 19q37 13 59 38q24 27 39 74q14 43 14 125v402h-164v30zM655 31q89 0 159 51
q72 52 121 137q50 86 77 201q26 110 26 237q0 116 -21 230q-21 115 -74 207q-54 93 -143 149q-91 57 -227 57h-61v-608h246v-30h-246v-416q0 -116 39 -166q39 -49 104 -49z" />
    <glyph glyph-name="Ntilde" unicode="&#xd1;" horiz-adv-x="1284" 
d="M168 362v689l-53 61q-77 89 -132 144q-56 56 -141 71v4h557l691 -796v434q0 101 -22 169q-21 64 -56 102t-80 56q-51 20 -92 31v4h536v-4q-41 -11 -92 -31q-45 -18 -80 -56t-56 -102q-22 -68 -22 -169v-1030h-4l-917 1069v-646q0 -104 21 -168t57 -103t79 -56
q49 -20 93 -31v-4h-537v4q41 11 92 31q45 18 80 56t56 103q22 68 22 168zM934 1679q-18 -129 -54 -192q-37 -64 -118 -64q-94 0 -169 30t-151 30q-36 0 -57 -18q-22 -19 -29 -52h-4q21 126 56 192q34 64 116 64q94 0 169 -30q73 -29 151 -29q37 0 57 17q22 19 29 52h4z" />
    <glyph glyph-name="Ograve" unicode="&#xd2;" horiz-adv-x="1435" 
d="M741 1352q145 0 267 -48q118 -47 206 -136q89 -90 134 -210q47 -124 47 -268q0 -155 -56 -287q-55 -131 -150 -225q-92 -92 -223 -146q-126 -52 -274 -52q-144 0 -264 49q-121 49 -206 136q-85 86 -133 208t-48 266q0 157 55 288q54 129 151 226q92 92 223 146
q129 53 271 53zM686 1323q-128 0 -191 -147t-63 -449q0 -120 19 -255q18 -126 56 -230q37 -101 98 -168q60 -66 145 -66q133 0 193 148q61 149 61 446q0 127 -18 256q-19 133 -55 232q-37 99 -98 167q-60 66 -147 66zM963 1438v-4l-492 41v204z" />
    <glyph glyph-name="Oacute" unicode="&#xd3;" horiz-adv-x="1435" 
d="M741 1352q145 0 267 -48q118 -47 206 -136q89 -90 134 -210q47 -124 47 -268q0 -155 -56 -287q-55 -131 -150 -225q-92 -92 -223 -146q-126 -52 -274 -52q-144 0 -264 49q-121 49 -206 136q-85 86 -133 208t-48 266q0 157 55 288q54 129 151 226q92 92 223 146
q129 53 271 53zM686 1323q-128 0 -191 -147t-63 -449q0 -120 19 -255q18 -126 56 -230q37 -101 98 -168q60 -66 145 -66q133 0 193 148q61 149 61 446q0 127 -18 256q-19 133 -55 232q-37 99 -98 167q-60 66 -147 66zM473 1438l492 241v-204l-492 -41v4z" />
    <glyph glyph-name="Ocircumflex" unicode="&#xd4;" horiz-adv-x="1435" 
d="M741 1352q145 0 267 -48q118 -47 206 -136q89 -90 134 -210q47 -124 47 -268q0 -155 -56 -287q-55 -131 -150 -225q-92 -92 -223 -146q-126 -52 -274 -52q-144 0 -264 49q-121 49 -206 136q-85 86 -133 208t-48 266q0 157 55 288q54 129 151 226q92 92 223 146
q129 53 271 53zM686 1323q-128 0 -191 -147t-63 -449q0 -120 19 -255q18 -126 56 -230q37 -101 98 -168q60 -66 145 -66q133 0 193 148q61 149 61 446q0 127 -18 256q-19 133 -55 232q-37 99 -98 167q-60 66 -147 66zM391 1434v4l326 241h4l326 -241v-4l-328 77z" />
    <glyph glyph-name="Otilde" unicode="&#xd5;" horiz-adv-x="1435" 
d="M741 1352q145 0 267 -48q118 -47 206 -136q89 -90 134 -210q47 -124 47 -268q0 -155 -56 -287q-55 -131 -150 -225q-92 -92 -223 -146q-126 -52 -274 -52q-144 0 -264 49q-121 49 -206 136q-85 86 -133 208t-48 266q0 157 55 288q54 129 151 226q92 92 223 146
q129 53 271 53zM686 1323q-128 0 -191 -147t-63 -449q0 -120 19 -255q18 -126 56 -230q37 -101 98 -168q60 -66 145 -66q133 0 193 148q61 149 61 446q0 127 -18 256q-19 133 -55 232q-37 99 -98 167q-60 66 -147 66zM1010 1679q-18 -127 -55 -192q-37 -64 -117 -64
q-94 0 -169 30t-151 30q-36 0 -57 -18q-22 -19 -29 -52h-4q21 129 55 192q34 64 117 64q94 0 169 -30q72 -29 151 -29q37 0 57 17q22 19 29 52h4z" />
    <glyph glyph-name="Odieresis" unicode="&#xd6;" horiz-adv-x="1435" 
d="M741 1352q145 0 267 -48q118 -47 206 -136q89 -90 134 -210q47 -124 47 -268q0 -155 -56 -287q-55 -131 -150 -225q-92 -92 -223 -146q-126 -52 -274 -52q-144 0 -264 49q-121 49 -206 136q-85 86 -133 208t-48 266q0 157 55 288q54 129 151 226q92 92 223 146
q129 53 271 53zM686 1323q-128 0 -191 -147t-63 -449q0 -120 19 -255q18 -126 56 -230q37 -101 98 -168q60 -66 145 -66q133 0 193 148q61 149 61 446q0 127 -18 256q-19 133 -55 232q-37 99 -98 167q-60 66 -147 66zM905 1698q65 0 105 -42q41 -43 41 -100q0 -56 -41 -99
q-40 -42 -105 -42q-63 0 -104 42q-41 43 -41 99q0 57 41 100q41 42 104 42zM532 1698q64 0 105 -42q41 -43 41 -100q0 -56 -41 -99q-41 -42 -105 -42t-104 42q-41 43 -41 99q0 57 41 100q40 42 104 42z" />
    <glyph glyph-name="multiply" unicode="&#xd7;" horiz-adv-x="839" 
d="M723 911l-277 -276l277 -277l-27 -26l-276 276l-277 -276l-26 26l276 277l-276 276l26 27l277 -276l276 276z" />
    <glyph glyph-name="Oslash" unicode="&#xd8;" horiz-adv-x="1435" 
d="M41 0l168 178q-81 87 -124 204q-44 120 -44 257q0 157 55 288q54 129 151 226q92 92 223 146q129 53 271 53q141 0 259 -45q119 -45 204 -127l144 151h47l-168 -176q82 -91 124 -206q44 -120 44 -259q0 -155 -56 -287q-55 -131 -150 -225q-92 -92 -223 -146
q-126 -52 -274 -52q-140 0 -256 46q-120 48 -203 128l-145 -154h-47zM686 1323q-128 0 -191 -147t-63 -449q0 -87 7 -164q8 -84 22 -157l506 559q-33 148 -102 254q-68 104 -179 104zM1004 602q0 76 -8 164q-9 95 -21 158l-504 -561q33 -148 102 -251q69 -104 177 -104
q133 0 193 148q61 149 61 446z" />
    <glyph glyph-name="Ugrave" unicode="&#xd9;" horiz-adv-x="1335" 
d="M502 547q0 -166 77 -258t240 -92t243 92q79 91 79 258v422q0 101 -22 169q-21 64 -56 102t-80 56q-51 20 -92 31v4h536v-4q-41 -11 -92 -31q-45 -18 -80 -56t-56 -102t-21 -169v-396q0 -303 -138 -449q-136 -144 -374 -144q-239 0 -375 143q-137 145 -137 450v498
q0 79 -15 125q-15 47 -39 74t-58 39q-35 12 -73 18v4h717v-4q-38 -6 -73 -18q-34 -12 -58 -39t-39 -74q-14 -43 -14 -125v-524zM1036 1438v-4l-491 41v204z" />
    <glyph glyph-name="Uacute" unicode="&#xda;" horiz-adv-x="1335" 
d="M502 547q0 -166 77 -258t240 -92t243 92q79 91 79 258v422q0 101 -22 169q-21 64 -56 102t-80 56q-51 20 -92 31v4h536v-4q-41 -11 -92 -31q-45 -18 -80 -56t-56 -102t-21 -169v-396q0 -303 -138 -449q-136 -144 -374 -144q-239 0 -375 143q-137 145 -137 450v498
q0 79 -15 125q-15 47 -39 74t-58 39q-35 12 -73 18v4h717v-4q-38 -6 -73 -18q-34 -12 -58 -39t-39 -74q-14 -43 -14 -125v-524zM547 1438l491 241v-204l-491 -41v4z" />
    <glyph glyph-name="Ucircumflex" unicode="&#xdb;" horiz-adv-x="1335" 
d="M502 547q0 -166 77 -258t240 -92t243 92q79 91 79 258v422q0 101 -22 169q-21 64 -56 102t-80 56q-51 20 -92 31v4h536v-4q-41 -11 -92 -31q-45 -18 -80 -56t-56 -102t-21 -169v-396q0 -303 -138 -449q-136 -144 -374 -144q-239 0 -375 143q-137 145 -137 450v498
q0 79 -15 125q-15 47 -39 74t-58 39q-35 12 -73 18v4h717v-4q-38 -6 -73 -18q-34 -12 -58 -39t-39 -74q-14 -43 -14 -125v-524zM465 1434v4l326 241h4l325 -241v-4l-327 77z" />
    <glyph glyph-name="Udieresis" unicode="&#xdc;" horiz-adv-x="1335" 
d="M502 547q0 -166 77 -258t240 -92t243 92q79 91 79 258v422q0 101 -22 169q-21 64 -56 102t-80 56q-51 20 -92 31v4h536v-4q-41 -11 -92 -31q-45 -18 -80 -56t-56 -102t-21 -169v-396q0 -303 -138 -449q-136 -144 -374 -144q-239 0 -375 143q-137 145 -137 450v498
q0 79 -15 125q-15 47 -39 74t-58 39q-35 12 -73 18v4h717v-4q-38 -6 -73 -18q-34 -12 -58 -39t-39 -74q-14 -43 -14 -125v-524zM979 1698q63 0 104 -42q41 -43 41 -100q0 -56 -41 -99q-41 -42 -104 -42q-65 0 -105 42q-40 41 -40 99q0 59 40 100q40 42 105 42zM606 1698
q64 0 105 -42q41 -43 41 -100q0 -56 -41 -99q-41 -42 -105 -42t-104 42q-41 43 -41 99q0 57 41 100q40 42 104 42z" />
    <glyph glyph-name="Yacute" unicode="&#xdd;" horiz-adv-x="1050" 
d="M92 1026q-78 154 -128 210q-52 58 -118 91v4h742v-4q-25 -2 -52 -24q-28 -24 -46 -62q-16 -36 -18 -93q-1 -51 30 -120l209 -473l151 340q41 95 42 170q2 77 -22 131q-23 53 -65 89q-40 34 -80 42v4h467v-4q-36 -26 -72 -59t-73 -82q-33 -44 -77 -120q-37 -65 -85 -173
l-176 -404v-229q0 -82 14 -125q15 -47 39 -74q22 -25 59 -38q41 -14 72 -19v-4h-717v4q33 5 73 19q35 12 58 38q24 27 39 74t15 125v193zM418 1438l491 241v-204l-491 -41v4z" />
    <glyph glyph-name="Thorn" unicode="&#xde;" horiz-adv-x="1327" 
d="M696 4v-4h-716v4q31 5 72 19q37 13 59 38q24 27 39 74q14 43 14 125v811q0 82 -14 125q-15 47 -39 74t-59 39q-36 12 -72 18v4h716v-4q-64 -12 -115 -44q-50 -32 -65 -136h84q357 0 522 -103q164 -102 164 -333q0 -119 -54 -210t-148 -152t-221 -92q-130 -32 -275 -32
h-76q8 -133 60 -171q54 -38 124 -50zM512 260v-4h74q140 0 235 113q94 112 94 309q0 89 -17 164q-19 82 -59 140q-41 58 -112 97q-68 37 -174 37h-39q-2 -14 -2 -21v-24v-811z" />
    <glyph glyph-name="germandbls" unicode="&#xdf;" horiz-adv-x="1359" 
d="M1153 1247q0 -83 -49 -120q-50 -37 -108 -63q-52 -23 -107 -56q-49 -30 -49 -101q0 -88 71 -146q67 -54 156 -118q88 -63 156 -138q71 -78 71 -208q0 -147 -105 -232q-104 -85 -271 -85q-97 0 -160 15q-64 15 -146 48v291h4q151 -198 229 -261q80 -65 146 -65q49 0 75 27
q26 28 26 74q0 67 -68 129q-71 65 -148 126q-84 67 -149 142q-68 79 -68 180q0 77 38 132q39 56 82 105q47 54 82 108q38 59 38 147q0 111 -51 175t-154 64q-108 0 -171 -83q-62 -81 -62 -277v-817q0 -76 11 -116q13 -47 31 -69q20 -25 45 -35q23 -9 56 -16v-4h-614v4
q33 7 56 16q25 10 45 35q18 22 31 69q11 40 11 116v563v9v7h-205v4l215 99q23 126 91 227q69 102 165 174q94 71 215 112q117 40 244 40q144 0 220 -67q75 -66 75 -161z" />
    <glyph glyph-name="agrave" unicode="&#xe0;" horiz-adv-x="1028" 
d="M266 555q-44 -25 -96 -38q-45 -11 -100 -3q-19 51 -10 98q9 49 38 95q27 42 74 88q43 41 96 82q92 70 173 117q86 50 175 50q146 0 207 -76q62 -77 62 -190v-502q0 -87 27 -123t77 -36q39 0 69 21q28 19 50 48l10 -8q-65 -93 -133 -146q-67 -52 -176 -52q-47 0 -90 13
q-47 14 -80 47q-35 35 -57 93q-23 61 -23 154v39q-15 -161 -101 -253q-87 -93 -208 -93q-100 0 -160 45q-59 44 -59 122q0 42 29 70q30 29 100 62l399 186v229q0 97 -31 154q-30 55 -116 55q-110 0 -153 -98q-44 -99 7 -250zM319 246q0 -33 21 -51q22 -19 63 -19
q63 0 110 64q46 62 46 168v22l-111 -53q-65 -32 -97 -60q-32 -27 -32 -71zM549 1147l-326 369h246l84 -369h-4z" />
    <glyph glyph-name="aacute" unicode="&#xe1;" horiz-adv-x="1028" 
d="M266 555q-44 -25 -96 -38q-45 -11 -100 -3q-19 51 -10 98q9 49 38 95q27 42 74 88q43 41 96 82q92 70 173 117q86 50 175 50q146 0 207 -76q62 -77 62 -190v-502q0 -87 27 -123t77 -36q39 0 69 21q28 19 50 48l10 -8q-65 -93 -133 -146q-67 -52 -176 -52q-47 0 -90 13
q-47 14 -80 47q-35 35 -57 93q-23 61 -23 154v39q-15 -161 -101 -253q-87 -93 -208 -93q-100 0 -160 45q-59 44 -59 122q0 42 29 70q30 29 100 62l399 186v229q0 97 -31 154q-30 55 -116 55q-110 0 -153 -98q-44 -99 7 -250zM319 246q0 -33 21 -51q22 -19 63 -19
q63 0 110 64q46 62 46 168v22l-111 -53q-65 -32 -97 -60q-32 -27 -32 -71zM553 1147h-4l84 369h246z" />
    <glyph glyph-name="acircumflex" unicode="&#xe2;" horiz-adv-x="1028" 
d="M266 555q-44 -25 -96 -38q-45 -11 -100 -3q-19 51 -10 98q9 49 38 95q27 42 74 88q43 41 96 82q92 70 173 117q86 50 175 50q146 0 207 -76q62 -77 62 -190v-502q0 -87 27 -123t77 -36q39 0 69 21q28 19 50 48l10 -8q-65 -93 -133 -146q-67 -52 -176 -52q-47 0 -90 13
q-47 14 -80 47q-35 35 -57 93q-23 61 -23 154v39q-15 -161 -101 -253q-87 -93 -208 -93q-100 0 -160 45q-59 44 -59 122q0 42 29 70q30 29 100 62l399 186v229q0 97 -31 154q-30 55 -116 55q-110 0 -153 -98q-44 -99 7 -250zM319 246q0 -33 21 -51q22 -19 63 -19
q63 0 110 64q46 62 46 168v22l-111 -53q-65 -32 -97 -60q-32 -27 -32 -71zM264 1147h-4l289 369h4l289 -369h-4l-287 147z" />
    <glyph glyph-name="atilde" unicode="&#xe3;" horiz-adv-x="1028" 
d="M266 555q-44 -25 -96 -38q-45 -11 -100 -3q-19 51 -10 98q9 49 38 95q27 42 74 88q43 41 96 82q92 70 173 117q86 50 175 50q146 0 207 -76q62 -77 62 -190v-502q0 -87 27 -123t77 -36q39 0 69 21q28 19 50 48l10 -8q-65 -93 -133 -146q-67 -52 -176 -52q-47 0 -90 13
q-47 14 -80 47q-35 35 -57 93q-23 61 -23 154v39q-15 -161 -101 -253q-87 -93 -208 -93q-100 0 -160 45q-59 44 -59 122q0 42 29 70q30 29 100 62l399 186v229q0 97 -31 154q-30 55 -116 55q-110 0 -153 -98q-44 -99 7 -250zM319 246q0 -33 21 -51q22 -19 63 -19
q63 0 110 64q46 62 46 168v22l-111 -53q-65 -32 -97 -60q-32 -27 -32 -71zM842 1485q-21 -137 -56 -208q-34 -69 -116 -69q-44 0 -89 16q-39 14 -81 35q-36 18 -76 34t-74 16q-36 0 -56 -23t-30 -67h-4q23 137 56 205q35 71 116 71q47 0 89 -15q38 -14 81 -35q46 -23 76 -35
q38 -15 74 -15q37 0 56 22t30 68h4z" />
    <glyph glyph-name="adieresis" unicode="&#xe4;" horiz-adv-x="1028" 
d="M266 555q-44 -25 -96 -38q-45 -11 -100 -3q-19 51 -10 98q9 49 38 95q27 42 74 88q43 41 96 82q92 70 173 117q86 50 175 50q146 0 207 -76q62 -77 62 -190v-502q0 -87 27 -123t77 -36q39 0 69 21q28 19 50 48l10 -8q-65 -93 -133 -146q-67 -52 -176 -52q-47 0 -90 13
q-47 14 -80 47q-35 35 -57 93q-23 61 -23 154v39q-15 -161 -101 -253q-87 -93 -208 -93q-100 0 -160 45q-59 44 -59 122q0 42 29 70q30 29 100 62l399 186v229q0 97 -31 154q-30 55 -116 55q-110 0 -153 -98q-44 -99 7 -250zM319 246q0 -33 21 -51q22 -19 63 -19
q63 0 110 64q46 62 46 168v22l-111 -53q-65 -32 -97 -60q-32 -27 -32 -71zM737 1473q65 0 105 -42q41 -43 41 -100q0 -56 -41 -99q-40 -42 -105 -42q-63 0 -104 42q-41 43 -41 99q0 57 41 100q41 42 104 42zM365 1473q63 0 104 -42q41 -43 41 -100q0 -56 -41 -99
q-41 -42 -104 -42q-65 0 -105 42q-41 43 -41 99q0 57 41 100q40 42 105 42z" />
    <glyph glyph-name="aring" unicode="&#xe5;" horiz-adv-x="1028" 
d="M266 555q-44 -25 -96 -38q-45 -11 -100 -3q-19 51 -10 98q9 49 38 95q27 42 74 88q43 41 96 82q92 70 173 117q86 50 175 50q146 0 207 -76q62 -77 62 -190v-502q0 -87 27 -123t77 -36q39 0 69 21q28 19 50 48l10 -8q-65 -93 -133 -146q-67 -52 -176 -52q-47 0 -90 13
q-47 14 -80 47q-35 35 -57 93q-23 61 -23 154v39q-15 -161 -101 -253q-87 -93 -208 -93q-100 0 -160 45q-59 44 -59 122q0 42 29 70q30 29 100 62l399 186v229q0 97 -31 154q-30 55 -116 55q-110 0 -153 -98q-44 -99 7 -250zM319 246q0 -33 21 -51q22 -19 63 -19
q63 0 110 64q46 62 46 168v22l-111 -53q-65 -32 -97 -60q-32 -27 -32 -71zM551 1167q-107 0 -180 43q-74 44 -74 121t74 121q73 43 180 43t180 -43q74 -44 74 -121t-74 -121q-73 -43 -180 -43zM551 1470q-37 0 -58 -34q-22 -36 -22 -105q0 -68 22 -104q21 -35 58 -35t58 35
q22 36 22 104q0 69 -22 105q-21 34 -58 34z" />
    <glyph glyph-name="ae" unicode="&#xe6;" horiz-adv-x="1513" 
d="M1108 1044q162 0 255 -66q92 -65 103 -159h-632q-10 -35 -12 -58q-3 -31 -3 -67q0 -211 91 -309t231 -98q137 0 232 89t110 283h10q-1 -149 -29 -277q-27 -128 -82 -215q-56 -89 -144 -138t-214 -49q-180 0 -310 111q-130 110 -151 315v-7q0 -182 -92 -301
q-91 -118 -221 -118q-100 0 -160 45q-59 44 -59 122q0 42 29 70q30 29 100 62l399 186v229q0 97 -31 154q-30 55 -116 55q-110 0 -153 -98q-44 -99 7 -250q-44 -25 -96 -38q-45 -11 -100 -3q-19 51 -10 98q9 49 38 95q27 42 74 88q43 41 96 82q92 70 173 117q86 50 175 50
q77 0 124 -20q51 -22 83 -55q60 36 135 56q70 19 150 19zM1042 1008q-68 0 -121 -41q-52 -40 -79 -117h264q26 0 42 8q15 8 15 35q0 42 -26 78q-27 37 -95 37zM319 246q0 -33 21 -51q22 -19 63 -19q64 0 111 74t47 174v3v3l-112 -53q-67 -34 -98 -60q-32 -27 -32 -71z" />
    <glyph glyph-name="ccedilla" unicode="&#xe7;" horiz-adv-x="983" 
d="M932 809q0 -70 -34 -132q-35 -64 -85 -114h-20q-10 20 -46 94t-52 107q-44 92 -72 136q-33 53 -65 77t-73 24q-74 0 -129 -70t-55 -224q0 -203 96 -316q96 -112 238 -112q112 0 202 62q91 63 115 222h11q-7 -307 -137 -446q-128 -137 -326 -137q-4 -4 -6 -10t-2 -11
q0 -14 22 -29q5 -3 14.5 -9.5t17.5 -12t16 -10.5q21 -15 48 -40q23 -21 23 -51q0 -45 -51 -90t-142 -45q-43 0 -81 19q-35 17 -35 53q0 20 9 34t21 21h21q26 -43 58 -75q27 -27 63 -27q15 0 22 7q8 8 8 17q0 19 -19 37q-22 20 -43 36t-43 36q-20 18 -20 37q0 25 26 49
q24 22 67 64q-104 0 -188 37q-81 36 -146 105q-59 63 -95 162q-34 93 -34 208q0 121 45 223q45 103 122 175q79 74 179 114q101 40 217 40q174 0 256 -70t82 -165z" />
    <glyph glyph-name="egrave" unicode="&#xe8;" horiz-adv-x="985" 
d="M580 1044q162 0 255 -66q92 -65 103 -159h-633q-8 -30 -11 -58q-3 -31 -3 -67q0 -211 91 -309t230 -98q138 0 233 89q94 88 109 283h11q-1 -149 -29 -277q-27 -128 -82 -215q-56 -89 -144 -138t-214 -49q-102 0 -184 33t-147 98q-61 61 -98 156q-36 93 -36 210
q0 127 44 233q43 104 118 179t174 115t213 40zM514 1008q-69 0 -122 -41q-52 -40 -79 -117h265q26 0 42 8q15 8 15 35q0 41 -27 78t-94 37zM557 1147l-326 369h246l84 -369h-4z" />
    <glyph glyph-name="eacute" unicode="&#xe9;" horiz-adv-x="985" 
d="M580 1044q162 0 255 -66q92 -65 103 -159h-633q-8 -30 -11 -58q-3 -31 -3 -67q0 -211 91 -309t230 -98q138 0 233 89q94 88 109 283h11q-1 -149 -29 -277q-27 -128 -82 -215q-56 -89 -144 -138t-214 -49q-102 0 -184 33t-147 98q-61 61 -98 156q-36 93 -36 210
q0 127 44 233q43 104 118 179t174 115t213 40zM514 1008q-69 0 -122 -41q-52 -40 -79 -117h265q26 0 42 8q15 8 15 35q0 41 -27 78t-94 37zM561 1147h-4l84 369h246z" />
    <glyph glyph-name="ecircumflex" unicode="&#xea;" horiz-adv-x="985" 
d="M580 1044q162 0 255 -66q92 -65 103 -159h-633q-8 -30 -11 -58q-3 -31 -3 -67q0 -211 91 -309t230 -98q138 0 233 89q94 88 109 283h11q-1 -149 -29 -277q-27 -128 -82 -215q-56 -89 -144 -138t-214 -49q-102 0 -184 33t-147 98q-61 61 -98 156q-36 93 -36 210
q0 127 44 233q43 104 118 179t174 115t213 40zM514 1008q-69 0 -122 -41q-52 -40 -79 -117h265q26 0 42 8q15 8 15 35q0 41 -27 78t-94 37zM272 1147h-4l289 369h4l289 -369h-4l-287 147z" />
    <glyph glyph-name="edieresis" unicode="&#xeb;" horiz-adv-x="985" 
d="M580 1044q162 0 255 -66q92 -65 103 -159h-633q-8 -30 -11 -58q-3 -31 -3 -67q0 -211 91 -309t230 -98q138 0 233 89q94 88 109 283h11q-1 -149 -29 -277q-27 -128 -82 -215q-56 -89 -144 -138t-214 -49q-102 0 -184 33t-147 98q-61 61 -98 156q-36 93 -36 210
q0 127 44 233q43 104 118 179t174 115t213 40zM514 1008q-69 0 -122 -41q-52 -40 -79 -117h265q26 0 42 8q15 8 15 35q0 41 -27 78t-94 37zM745 1473q65 0 105 -42q41 -43 41 -100q0 -56 -41 -99q-40 -42 -105 -42q-63 0 -104 42q-41 43 -41 99q0 57 41 100q41 42 104 42z
M373 1473q63 0 104 -42q41 -43 41 -100q0 -56 -41 -99q-41 -42 -104 -42q-65 0 -105 42q-41 43 -41 99q0 57 41 100q40 42 105 42z" />
    <glyph glyph-name="igrave" unicode="&#xec;" horiz-adv-x="583" 
d="M461 240q0 -76 11 -116q13 -47 31 -69q20 -25 45 -35q23 -9 56 -16v-4h-614v4q33 7 56 16q25 10 45 35q18 22 31 69q11 40 11 116v579h-205v4l533 242v-825zM313 1147l-325 369h245l84 -369h-4z" />
    <glyph glyph-name="iacute" unicode="&#xed;" horiz-adv-x="583" 
d="M461 240q0 -76 11 -116q13 -47 31 -69q20 -25 45 -35q23 -9 56 -16v-4h-614v4q33 7 56 16q25 10 45 35q18 22 31 69q11 40 11 116v579h-205v4l533 242v-825zM317 1147h-4l84 369h246z" />
    <glyph glyph-name="icircumflex" unicode="&#xee;" horiz-adv-x="583" 
d="M461 240q0 -76 11 -116q13 -47 31 -69q20 -25 45 -35q23 -9 56 -16v-4h-614v4q33 7 56 16q25 10 45 35q18 22 31 69q11 40 11 116v579h-205v4l533 242v-825zM29 1147h-4l288 369h4l289 -369h-4l-287 147z" />
    <glyph glyph-name="idieresis" unicode="&#xef;" horiz-adv-x="583" 
d="M461 240q0 -76 11 -116q13 -47 31 -69q20 -25 45 -35q23 -9 56 -16v-4h-614v4q33 7 56 16q25 10 45 35q18 22 31 69q11 40 11 116v579h-205v4l533 242v-825zM502 1473q64 0 104 -42q41 -43 41 -100q0 -56 -41 -99q-40 -42 -104 -42t-105 42q-41 43 -41 99q0 57 41 100
q41 42 105 42zM129 1473q63 0 104 -42q41 -43 41 -100q0 -56 -41 -99q-41 -42 -104 -42t-104 42q-41 43 -41 99q0 57 41 100q40 42 104 42z" />
    <glyph glyph-name="eth" unicode="&#xf0;" horiz-adv-x="1105" 
d="M430 1028l260 102q-29 89 -80 136q-52 47 -127 47q-32 0 -60 -14q-29 -15 -61 -45q-27 -26 -77 -84q-78 -91 -111 -130h-20q-35 40 -52 75q-18 37 -18 73q0 70 73 117t230 47q116 0 233 -40q115 -39 211 -126l173 67v-34l-146 -58q94 -94 150 -234q57 -143 57 -339
q0 -144 -44 -259q-43 -113 -121 -191t-181 -118q-104 -40 -223 -40q-93 0 -173 29q-83 30 -146 87q-59 54 -99 144q-37 84 -37 198q0 178 99 291t268 113q109 0 188 -71q75 -68 133 -157q2 52 3 79t1 79q0 92 -8 180q-7 75 -25 148l-270 -107v35zM455 10q62 0 111 47
q46 45 82 127q33 75 53 190q21 118 28 232q-33 36 -74 50q-40 14 -77 14q-62 0 -112 -31q-49 -30 -79 -82q-31 -53 -46 -122q-15 -71 -15 -150q0 -123 30 -199t99 -76z" />
    <glyph glyph-name="ntilde" unicode="&#xf1;" horiz-adv-x="1198" 
d="M461 240q0 -76 11 -116q13 -47 31 -69q20 -25 45 -35q23 -9 56 -16q33 7 56 16q26 11 46 35q17 20 30 69q12 44 12 116v422q0 74 -25 116q-24 41 -100 41q-39 0 -76 -18q-31 -15 -86 -60v-501zM-72 823l533 242v-315q77 113 172 205q92 89 203 89q141 0 190 -88t49 -241
v-475q0 -76 11 -116q13 -47 31 -69q20 -25 45 -35q22 -9 57 -16v-4h-1229v4q33 7 56 16q25 10 45 35q18 22 31 69q11 40 11 116v579h-205v4zM895 1485q-21 -140 -55 -208q-34 -69 -117 -69q-44 0 -89 16q-46 16 -81 34q-46 23 -76 35q-40 16 -74 16q-36 0 -56 -23t-30 -67
h-4q22 134 57 205t115 71q47 0 89 -15q38 -14 81 -35q46 -23 76 -35q38 -15 74 -15q37 0 56 22t30 68h4z" />
    <glyph glyph-name="ograve" unicode="&#xf2;" horiz-adv-x="1114" 
d="M575 1044q114 0 207 -37q94 -37 161 -106q67 -68 104 -162q36 -91 36 -207q0 -122 -43 -223q-45 -105 -116 -175q-76 -75 -174 -114q-99 -40 -213 -40q-112 0 -205 37q-94 37 -161 106q-65 67 -103 162q-37 93 -37 207q0 122 43 223q45 105 116 175q75 74 175 114
q99 40 210 40zM532 1016q-74 0 -112 -112q-37 -110 -37 -343q0 -106 11 -197q13 -106 35 -178q25 -80 61 -128q38 -50 92 -50q77 0 113 112q36 111 36 343q0 106 -11 197q-13 106 -35 178q-25 80 -61 128q-38 50 -92 50zM555 1147l-326 369h246l84 -369h-4z" />
    <glyph glyph-name="oacute" unicode="&#xf3;" horiz-adv-x="1114" 
d="M575 1044q114 0 207 -37q94 -37 161 -106q67 -68 104 -162q36 -91 36 -207q0 -122 -43 -223q-45 -105 -116 -175q-76 -75 -174 -114q-99 -40 -213 -40q-112 0 -205 37q-94 37 -161 106q-65 67 -103 162q-37 93 -37 207q0 122 43 223q45 105 116 175q75 74 175 114
q99 40 210 40zM532 1016q-74 0 -112 -112q-37 -110 -37 -343q0 -106 11 -197q13 -106 35 -178q25 -80 61 -128q38 -50 92 -50q77 0 113 112q36 111 36 343q0 106 -11 197q-13 106 -35 178q-25 80 -61 128q-38 50 -92 50zM559 1147h-4l84 369h246z" />
    <glyph glyph-name="ocircumflex" unicode="&#xf4;" horiz-adv-x="1114" 
d="M575 1044q114 0 207 -37q94 -37 161 -106q67 -68 104 -162q36 -91 36 -207q0 -122 -43 -223q-45 -105 -116 -175q-76 -75 -174 -114q-99 -40 -213 -40q-112 0 -205 37q-94 37 -161 106q-65 67 -103 162q-37 93 -37 207q0 122 43 223q45 105 116 175q75 74 175 114
q99 40 210 40zM532 1016q-74 0 -112 -112q-37 -110 -37 -343q0 -106 11 -197q13 -106 35 -178q25 -80 61 -128q38 -50 92 -50q77 0 113 112q36 111 36 343q0 106 -11 197q-13 106 -35 178q-25 80 -61 128q-38 50 -92 50zM270 1147h-4l289 369h4l289 -369h-4l-287 147z" />
    <glyph glyph-name="otilde" unicode="&#xf5;" horiz-adv-x="1114" 
d="M575 1044q114 0 207 -37q94 -37 161 -106q67 -68 104 -162q36 -91 36 -207q0 -122 -43 -223q-45 -105 -116 -175q-76 -75 -174 -114q-99 -40 -213 -40q-112 0 -205 37q-94 37 -161 106q-65 67 -103 162q-37 93 -37 207q0 122 43 223q45 105 116 175q75 74 175 114
q99 40 210 40zM532 1016q-74 0 -112 -112q-37 -110 -37 -343q0 -106 11 -197q13 -106 35 -178q25 -80 61 -128q38 -50 92 -50q77 0 113 112q36 111 36 343q0 106 -11 197q-13 106 -35 178q-25 80 -61 128q-38 50 -92 50zM848 1485q-21 -140 -55 -208q-35 -69 -117 -69
q-44 0 -89 16t-81 34q-46 23 -76 35q-40 16 -74 16q-36 0 -56 -23t-30 -67h-4q22 134 57 205t115 71q47 0 89 -15q38 -14 81 -35q46 -23 76 -35q37 -15 74 -15t56 22t30 68h4z" />
    <glyph glyph-name="odieresis" unicode="&#xf6;" horiz-adv-x="1114" 
d="M575 1044q114 0 207 -37q94 -37 161 -106q67 -68 104 -162q36 -91 36 -207q0 -122 -43 -223q-45 -105 -116 -175q-76 -75 -174 -114q-99 -40 -213 -40q-112 0 -205 37q-94 37 -161 106q-65 67 -103 162q-37 93 -37 207q0 122 43 223q45 105 116 175q75 74 175 114
q99 40 210 40zM532 1016q-74 0 -112 -112q-37 -110 -37 -343q0 -106 11 -197q13 -106 35 -178q25 -80 61 -128q38 -50 92 -50q77 0 113 112q36 111 36 343q0 106 -11 197q-13 106 -35 178q-25 80 -61 128q-38 50 -92 50zM743 1473q65 0 105 -42q41 -43 41 -100
q0 -56 -41 -99q-40 -42 -105 -42q-63 0 -104 42q-41 43 -41 99q0 57 41 100q41 42 104 42zM371 1473q63 0 104 -42q41 -43 41 -100q0 -56 -41 -99q-40 -42 -104 -42q-65 0 -105 42q-41 43 -41 99q0 57 41 100q40 42 105 42z" />
    <glyph glyph-name="divide" unicode="&#xf7;" horiz-adv-x="839" 
d="M420 788q-56 0 -94 36q-37 36 -37 91q0 56 37 93q36 36 94 36t94 -36q37 -37 37 -93q0 -55 -37 -91q-38 -36 -94 -36zM41 651h758v-30h-758v30zM420 225q-57 0 -94 37t-37 92q0 58 37 92q38 35 94 35t94 -35q37 -34 37 -92q0 -55 -37 -92t-94 -37z" />
    <glyph glyph-name="oslash" unicode="&#xf8;" horiz-adv-x="1114" 
d="M31 0l129 135q-60 66 -95 159q-34 90 -34 198q0 122 43 223q45 105 116 175q75 74 175 114q99 40 210 40q110 0 200 -34q89 -34 157 -97l104 111h47l-129 -135q62 -67 96 -159q33 -88 33 -198q0 -122 -43 -223q-45 -105 -116 -175q-76 -75 -174 -114q-99 -40 -213 -40
q-108 0 -198 34q-88 33 -157 99l-104 -113h-47zM532 1016q-74 0 -112 -112q-37 -110 -37 -343q0 -51 3 -105q3 -56 9 -106l318 363q-22 128 -64 214q-44 89 -117 89zM731 463q0 51 -3 103q-3 53 -9 104l-318 -361q21 -123 65 -213q43 -88 116 -88q77 0 113 112
q36 111 36 343z" />
    <glyph glyph-name="ugrave" unicode="&#xf9;" horiz-adv-x="1187" 
d="M123 819h-205v4l533 242v-703q0 -76 24 -116q24 -41 100 -41q38 0 76 18q31 15 86 60v536h-205v4l533 242v-860h205v-4l-533 -242v315q-77 -113 -172 -205q-92 -89 -203 -89q-141 0 -190 88t-49 241v510zM623 1147l-326 369h246l84 -369h-4z" />
    <glyph glyph-name="uacute" unicode="&#xfa;" horiz-adv-x="1187" 
d="M123 819h-205v4l533 242v-703q0 -76 24 -116q24 -41 100 -41q38 0 76 18q31 15 86 60v536h-205v4l533 242v-860h205v-4l-533 -242v315q-77 -113 -172 -205q-92 -89 -203 -89q-141 0 -190 88t-49 241v510zM627 1147h-4l84 369h245z" />
    <glyph glyph-name="ucircumflex" unicode="&#xfb;" horiz-adv-x="1187" 
d="M123 819h-205v4l533 242v-703q0 -76 24 -116q24 -41 100 -41q38 0 76 18q31 15 86 60v536h-205v4l533 242v-860h205v-4l-533 -242v315q-77 -113 -172 -205q-92 -89 -203 -89q-141 0 -190 88t-49 241v510zM338 1147h-4l289 369h4l288 -369h-4l-286 147z" />
    <glyph glyph-name="udieresis" unicode="&#xfc;" horiz-adv-x="1187" 
d="M123 819h-205v4l533 242v-703q0 -76 24 -116q24 -41 100 -41q38 0 76 18q31 15 86 60v536h-205v4l533 242v-860h205v-4l-533 -242v315q-77 -113 -172 -205q-92 -89 -203 -89q-141 0 -190 88t-49 241v510zM811 1473q63 0 104 -42q41 -43 41 -100q0 -56 -41 -99
q-41 -42 -104 -42t-104 42q-41 43 -41 99q0 57 41 100q41 42 104 42zM438 1473q64 0 105 -42q41 -43 41 -100q0 -56 -41 -99q-41 -42 -105 -42t-104 42q-41 43 -41 99q0 57 41 100q41 42 104 42z" />
    <glyph glyph-name="yacute" unicode="&#xfd;" horiz-adv-x="925" 
d="M532 109q-69 -164 -143 -271q-73 -106 -190 -106q-104 0 -154 63q-49 62 -41 144h445l-312 780q-63 157 -113 211q-52 56 -116 90v4h641v-4q-32 -5 -61 -22t-47 -46q-17 -28 -19 -70q-2 -47 18 -96l168 -424l94 226q46 106 47 181t-25 129q-25 51 -70 82q-42 29 -89 40v4
h453v-4q-69 -51 -134 -143q-64 -91 -149 -291zM561 1147h-4l84 369h246z" />
    <glyph glyph-name="thorn" unicode="&#xfe;" horiz-adv-x="1153" 
d="M1112 600q0 -140 -44 -257q-43 -115 -118 -196q-74 -80 -172 -123q-100 -44 -207 -44q-32 0 -65 6t-66 18v-59q0 -113 39 -163q40 -51 166 -85v-4h-676v4q35 7 57 16q25 10 45 35q17 20 30 69q12 43 12 115v1395h-205v4l532 242v-825q16 27 60 92q33 49 80 96
q46 46 99 77t118 31q142 0 228 -125q87 -126 87 -319zM600 821q-47 0 -86 -21q-38 -21 -74 -61v-395q0 -165 44 -253q44 -87 112 -87q49 0 86 34t61 91t36 137t12 170q0 176 -49 282q-48 103 -142 103z" />
    <glyph glyph-name="ydieresis" unicode="&#xff;" horiz-adv-x="925" 
d="M532 109q-69 -164 -143 -271q-73 -106 -190 -106q-104 0 -154 63q-49 62 -41 144h445l-312 780q-63 157 -113 211q-52 56 -116 90v4h641v-4q-32 -5 -61 -22t-47 -46q-17 -28 -19 -70q-2 -47 18 -96l168 -424l94 226q46 106 47 181t-25 129q-25 51 -70 82q-42 29 -89 40v4
h453v-4q-69 -51 -134 -143q-64 -91 -149 -291zM745 1473q65 0 105 -42q41 -43 41 -100q0 -56 -41 -99q-40 -42 -105 -42q-63 0 -104 42q-41 43 -41 99q0 57 41 100q41 42 104 42zM373 1473q63 0 104 -42q41 -43 41 -100q0 -56 -41 -99q-41 -42 -104 -42q-65 0 -105 42
q-41 43 -41 99q0 57 41 100q40 42 105 42z" />
    <glyph glyph-name="Amacron" unicode="&#x100;" horiz-adv-x="1210" 
d="M334 4v-4h-467v4q72 53 133 142q65 94 143 292l260 656q-56 109 -121 159t-155 74v4h371l82 205l534 -1231q65 -150 116 -210q48 -57 113 -91v-4h-741v4q40 6 77 27q40 22 62 57q25 39 28 90t-28 125l-45 107h-526q-31 -94 -28 -163q3 -72 30 -121q29 -52 70 -81
q45 -31 92 -41zM444 1006q-6 16 -10 24q-1 2 -10 23l-174 -439h360zM803 1724v-192h-451v192h451z" />
    <glyph glyph-name="amacron" unicode="&#x101;" horiz-adv-x="1028" 
d="M266 555q-44 -25 -96 -38q-45 -11 -100 -3q-19 51 -10 98q9 49 38 95q27 42 74 88q43 41 96 82q92 70 173 117q86 50 175 50q146 0 207 -76q62 -77 62 -190v-502q0 -87 27 -123t77 -36q39 0 69 21q28 19 50 48l10 -8q-65 -93 -133 -146q-67 -52 -176 -52q-47 0 -90 13
q-47 14 -80 47q-35 35 -57 93q-23 61 -23 154v39q-15 -161 -101 -253q-87 -93 -208 -93q-100 0 -160 45q-59 44 -59 122q0 42 29 70q30 29 100 62l399 186v229q0 97 -31 154q-30 55 -116 55q-110 0 -153 -98q-44 -99 7 -250zM319 246q0 -33 21 -51q22 -19 63 -19
q63 0 110 64q46 62 46 168v22l-111 -53q-65 -32 -97 -60q-32 -27 -32 -71zM776 1438v-213h-450v213h450z" />
    <glyph glyph-name="Abreve" unicode="&#x102;" horiz-adv-x="1210" 
d="M334 4v-4h-467v4q72 53 133 142q65 94 143 292l260 656q-56 109 -121 159t-155 74v4h371l82 205l534 -1231q65 -150 116 -210q48 -57 113 -91v-4h-741v4q40 6 77 27q40 22 62 57q25 39 28 90t-28 125l-45 107h-526q-31 -94 -28 -163q3 -72 30 -121q29 -52 70 -81
q45 -31 92 -41zM444 1006q-6 16 -10 24q-1 2 -10 23l-174 -439h360zM578 1546q-104 0 -170 63t-66 193h4q0 -55 71 -79q68 -23 161 -23q92 0 160 23q71 24 71 79h4q0 -131 -65 -193q-66 -63 -170 -63z" />
    <glyph glyph-name="abreve" unicode="&#x103;" horiz-adv-x="1028" 
d="M266 555q-44 -25 -96 -38q-45 -11 -100 -3q-19 51 -10 98q9 49 38 95q27 42 74 88q43 41 96 82q92 70 173 117q86 50 175 50q146 0 207 -76q62 -77 62 -190v-502q0 -87 27 -123t77 -36q39 0 69 21q28 19 50 48l10 -8q-65 -93 -133 -146q-67 -52 -176 -52q-47 0 -90 13
q-47 14 -80 47q-35 35 -57 93q-23 61 -23 154v39q-15 -161 -101 -253q-87 -93 -208 -93q-100 0 -160 45q-59 44 -59 122q0 42 29 70q30 29 100 62l399 186v229q0 97 -31 154q-30 55 -116 55q-110 0 -153 -98q-44 -99 7 -250zM319 246q0 -33 21 -51q22 -19 63 -19
q63 0 110 64q46 62 46 168v22l-111 -53q-65 -32 -97 -60q-32 -27 -32 -71zM551 1178q-105 0 -170 71q-66 72 -66 226h4q0 -66 71 -95q69 -28 161 -28t161 28q70 28 70 95h4q0 -155 -65 -226t-170 -71z" />
    <glyph glyph-name="Aogonek" unicode="&#x104;" horiz-adv-x="1210" 
d="M334 4v-4h-467v4q72 53 133 142q65 94 143 292l260 656q-56 109 -121 159t-155 74v4h371l82 205l534 -1231q65 -150 116 -210q48 -57 113 -91v-4h-741v4q40 6 77 27q40 22 62 57q25 39 28 90t-28 125l-45 107h-526q-31 -94 -28 -163q3 -72 30 -121q29 -52 70 -81
q45 -31 92 -41zM444 1006q-6 16 -10 24q-1 2 -10 23l-174 -439h360zM975 -106q0 -52 35 -76q36 -25 73 -25q31 0 58 7t49 32h4q-38 -66 -86 -114q-46 -46 -131 -46q-55 0 -100 31q-43 30 -43 86q0 71 59 118q75 60 119 93h4q-26 -29 -33 -54q-8 -29 -8 -52z" />
    <glyph glyph-name="aogonek" unicode="&#x105;" horiz-adv-x="1028" 
d="M266 555q-44 -25 -96 -38q-45 -11 -100 -3q-19 51 -10 98q9 49 38 95q27 42 74 88q43 41 96 82q92 70 173 117q86 50 175 50q146 0 207 -76q62 -77 62 -190v-502q0 -87 27 -123t77 -36q39 0 69 21q28 19 50 48l10 -8q-65 -93 -133 -146q-67 -52 -174 -52q-21 -22 -26 -47
q-5 -28 -5 -46q0 -49 37 -71q38 -23 78 -23q30 0 57 7t49 32h5q-38 -66 -86 -114q-46 -46 -132 -46q-56 0 -100 30q-43 30 -43 83q0 59 52 107q55 51 110 88q-47 0 -90 13q-47 14 -80 47q-36 36 -56 94q-22 63 -22 153v39q-15 -161 -101 -253q-87 -93 -208 -93
q-100 0 -160 45q-59 44 -59 122q0 42 29 70q30 29 100 62l399 186v229q0 97 -31 154q-30 55 -116 55q-110 0 -153 -98q-44 -99 7 -250zM319 246q0 -33 21 -51q22 -19 63 -19q63 0 110 64q46 62 46 168v22l-111 -53q-65 -32 -97 -60q-32 -27 -32 -71z" />
    <glyph glyph-name="Cacute" unicode="&#x106;" horiz-adv-x="1306" 
d="M653 1313q-83 0 -152 -33q-70 -34 -117 -92q-49 -62 -74 -140q-25 -79 -25 -178q0 -158 45 -272q46 -117 116 -187q75 -75 166 -108q96 -35 191 -35q83 0 161 26q74 25 139 79q61 51 107 137q45 84 66 201h10q-7 -144 -50 -278q-42 -131 -117 -232q-76 -102 -182 -161
q-108 -60 -249 -60q-139 0 -259 48q-121 48 -206 135q-86 88 -134 209q-48 122 -48 267q0 159 55 290q56 132 150 225q94 92 220 145q127 53 265 53q113 0 225 -25q105 -23 238 -76v-432h-4q-130 274 -266 384t-271 110zM485 1438l492 241v-204l-492 -41v4z" />
    <glyph glyph-name="cacute" unicode="&#x107;" horiz-adv-x="983" 
d="M932 809q0 -70 -34 -132q-35 -64 -85 -114h-20q-10 20 -46 94t-52 107q-44 92 -72 136q-33 53 -65 77t-73 24q-74 0 -129 -70t-55 -224q0 -203 96 -316q96 -112 238 -112q112 0 202 62q91 63 115 222h11q-7 -308 -138 -446q-129 -137 -331 -137q-104 0 -188 37
q-81 36 -146 105q-59 63 -95 162q-34 93 -34 208q0 121 45 223q45 103 122 175q79 74 179 114q101 40 217 40q174 0 256 -70t82 -165zM555 1147h-4l84 369h246z" />
    <glyph glyph-name="Ccircumflex" unicode="&#x108;" horiz-adv-x="1306" 
d="M653 1313q-83 0 -152 -33q-70 -34 -117 -92q-49 -62 -74 -140q-25 -79 -25 -178q0 -158 45 -272q46 -117 116 -187q75 -75 166 -108q96 -35 191 -35q83 0 161 26q74 25 139 79q61 51 107 137q45 84 66 201h10q-7 -144 -50 -278q-42 -131 -117 -232q-76 -102 -182 -161
q-108 -60 -249 -60q-139 0 -259 48q-121 48 -206 135q-86 88 -134 209q-48 122 -48 267q0 159 55 290q56 132 150 225q94 92 220 145q127 53 265 53q113 0 225 -25q105 -23 238 -76v-432h-4q-130 274 -266 384t-271 110zM403 1434v4l326 241h4l326 -241v-4l-328 77z" />
    <glyph glyph-name="ccircumflex" unicode="&#x109;" horiz-adv-x="983" 
d="M932 809q0 -70 -34 -132q-35 -64 -85 -114h-20q-10 20 -46 94t-52 107q-44 92 -72 136q-33 53 -65 77t-73 24q-74 0 -129 -70t-55 -224q0 -203 96 -316q96 -112 238 -112q112 0 202 62q91 63 115 222h11q-7 -308 -138 -446q-129 -137 -331 -137q-104 0 -188 37
q-81 36 -146 105q-59 63 -95 162q-34 93 -34 208q0 121 45 223q45 103 122 175q79 74 179 114q101 40 217 40q174 0 256 -70t82 -165zM266 1147h-4l289 369h4l289 -369h-4l-287 147z" />
    <glyph glyph-name="Cdotaccent" unicode="&#x10a;" horiz-adv-x="1306" 
d="M653 1313q-83 0 -152 -33q-70 -34 -117 -92q-49 -62 -74 -140q-25 -79 -25 -178q0 -158 45 -272q46 -117 116 -187q75 -75 166 -108q96 -35 191 -35q83 0 161 26q74 25 139 79q61 51 107 137q45 84 66 201h10q-7 -144 -50 -278q-42 -131 -117 -232q-76 -102 -182 -161
q-108 -60 -249 -60q-139 0 -259 48q-121 48 -206 135q-86 88 -134 209q-48 122 -48 267q0 159 55 290q56 132 150 225q94 92 220 145q127 53 265 53q113 0 225 -25q105 -23 238 -76v-432h-4q-130 274 -266 384t-271 110zM731 1720q72 0 119 -47t47 -117q0 -69 -47 -116
t-119 -47t-119 47t-47 116q0 70 47 117t119 47z" />
    <glyph glyph-name="cdotaccent" unicode="&#x10b;" horiz-adv-x="983" 
d="M932 809q0 -70 -34 -132q-35 -64 -85 -114h-20q-10 20 -46 94t-52 107q-44 92 -72 136q-33 53 -65 77t-73 24q-74 0 -129 -70t-55 -224q0 -203 96 -316q96 -112 238 -112q112 0 202 62q91 63 115 222h11q-7 -308 -138 -446q-129 -137 -331 -137q-104 0 -188 37
q-81 36 -146 105q-59 63 -95 162q-34 93 -34 208q0 121 45 223q45 103 122 175q79 74 179 114q101 40 217 40q174 0 256 -70t82 -165zM553 1495q72 0 119 -47t47 -117t-47 -117t-119 -47t-119 47t-47 117t47 117t119 47z" />
    <glyph glyph-name="Ccaron" unicode="&#x10c;" horiz-adv-x="1306" 
d="M653 1313q-83 0 -152 -33q-70 -34 -117 -92q-49 -62 -74 -140q-25 -79 -25 -178q0 -158 45 -272q46 -117 116 -187q75 -75 166 -108q96 -35 191 -35q83 0 161 26q74 25 139 79q61 51 107 137q45 84 66 201h10q-7 -144 -50 -278q-42 -131 -117 -232q-76 -102 -182 -161
q-108 -60 -249 -60q-139 0 -259 48q-121 48 -206 135q-86 88 -134 209q-48 122 -48 267q0 159 55 290q56 132 150 225q94 92 220 145q127 53 265 53q113 0 225 -25q105 -23 238 -76v-432h-4q-130 274 -266 384t-271 110zM1059 1679v-4l-326 -241h-4l-326 241v4l328 -77z" />
    <glyph glyph-name="ccaron" unicode="&#x10d;" horiz-adv-x="983" 
d="M932 809q0 -70 -34 -132q-35 -64 -85 -114h-20q-10 20 -46 94t-52 107q-44 92 -72 136q-33 53 -65 77t-73 24q-74 0 -129 -70t-55 -224q0 -203 96 -316q96 -112 238 -112q112 0 202 62q91 63 115 222h11q-7 -308 -138 -446q-129 -137 -331 -137q-104 0 -188 37
q-81 36 -146 105q-59 63 -95 162q-34 93 -34 208q0 121 45 223q45 103 122 175q79 74 179 114q101 40 217 40q174 0 256 -70t82 -165zM840 1516h4l-289 -369h-4l-289 369h4l287 -148z" />
    <glyph glyph-name="Dcaron" unicode="&#x10e;" horiz-adv-x="1449" 
d="M-20 1327v4h636q372 0 583 -170q210 -169 210 -471q0 -158 -62 -283q-64 -130 -168 -219t-245 -139q-138 -49 -291 -49h-663v4q31 5 72 19q37 13 59 38q24 27 39 74q14 43 14 125v811q0 82 -14 125q-15 47 -39 74t-59 39q-36 12 -72 18zM655 31q89 0 159 51
q72 52 121 137q50 86 77 201q26 110 26 237q0 116 -21 230q-21 115 -74 207q-54 93 -143 149q-91 57 -227 57h-61v-1054q0 -116 39 -166q39 -49 104 -49zM971 1679v-4l-326 -241h-4l-326 241v4l328 -77z" />
    <glyph glyph-name="dcaron" unicode="&#x10f;" horiz-adv-x="1163" 
d="M41 424q0 140 44 257q43 115 118 196q74 80 172 123q100 44 207 44q32 0 65 -6t66 -18v307h-205v4l532 242v-1368h205v-4l-532 -242v317q-16 -27 -60 -92q-33 -49 -80 -96q-46 -46 -99 -77t-118 -31q-142 0 -228 125q-87 126 -87 319zM553 203q47 0 86 21q38 21 74 61
v395q0 165 -44 253q-43 87 -112 87q-49 0 -86 -34t-61 -91t-36 -137q-12 -79 -12 -170q0 -176 49 -282q48 -103 142 -103zM1147 963h-4l61 368h226z" />
    <glyph glyph-name="Dcroat" unicode="&#x110;" horiz-adv-x="1449" 
d="M0 692h164v379q0 82 -14 125q-15 47 -39 74t-59 39q-36 12 -72 18v4h636q372 0 583 -170q210 -169 210 -471q0 -158 -62 -283q-64 -130 -168 -219t-245 -139q-138 -49 -291 -49h-663v4q31 5 72 19q37 13 59 38q24 27 39 74q14 43 14 125v402h-164v30zM655 31q89 0 159 51
q72 52 121 137q50 86 77 201q26 110 26 237q0 116 -21 230q-21 115 -74 207q-54 93 -143 149q-91 57 -227 57h-61v-608h246v-30h-246v-416q0 -116 39 -166q39 -49 104 -49z" />
    <glyph glyph-name="dcroat" unicode="&#x111;" horiz-adv-x="1163" 
d="M41 424q0 140 44 257q43 115 118 196q74 80 172 123q100 44 207 44q32 0 65 -6t66 -18v117h-205v30h205v160h-205v4l532 242v-406h123v-30h-123v-932h205v-4l-532 -242v317q-16 -27 -60 -92q-33 -49 -80 -96q-46 -46 -99 -77t-118 -31q-142 0 -228 125q-87 126 -87 319z
M553 203q47 0 86 21q38 21 74 61v395q0 165 -44 253q-43 87 -112 87q-49 0 -86 -34t-61 -91t-36 -137q-12 -79 -12 -170q0 -176 49 -282q48 -103 142 -103z" />
    <glyph glyph-name="Emacron" unicode="&#x112;" horiz-adv-x="1259" 
d="M512 266q0 -143 46 -189t138 -46q103 0 183 47q79 46 138 125q57 77 97 180q39 101 60 211h4v-594h-1198v4q31 5 72 19q37 13 59 38q24 27 39 74q14 43 14 125v811q0 82 -14 125q-15 47 -39 74t-59 39q-36 12 -72 18v4h1198v-471h-4q-60 212 -176 326t-336 114h-150v-579
h33q69 0 130 28q58 27 100 72t69 105t39 123h4v-687h-4q-12 63 -39 123t-69 105q-44 47 -100 73q-59 27 -130 27h-33v-424zM907 1643v-193h-450v193h450z" />
    <glyph glyph-name="emacron" unicode="&#x113;" horiz-adv-x="985" 
d="M580 1044q162 0 255 -66q92 -65 103 -159h-633q-8 -30 -11 -58q-3 -31 -3 -67q0 -211 91 -309t230 -98q138 0 233 89q94 88 109 283h11q-1 -149 -29 -277q-27 -128 -82 -215q-56 -89 -144 -138t-214 -49q-102 0 -184 33t-147 98q-61 61 -98 156q-36 93 -36 210
q0 127 44 233q43 104 118 179t174 115t213 40zM514 1008q-69 0 -122 -41q-52 -40 -79 -117h265q26 0 42 8q15 8 15 35q0 41 -27 78t-94 37zM784 1438v-213h-450v213h450z" />
    <glyph glyph-name="Ebreve" unicode="&#x114;" horiz-adv-x="1259" 
d="M512 266q0 -143 46 -189t138 -46q103 0 183 47q79 46 138 125q57 77 97 180q39 101 60 211h4v-594h-1198v4q31 5 72 19q37 13 59 38q24 27 39 74q14 43 14 125v811q0 82 -14 125q-15 47 -39 74t-59 39q-36 12 -72 18v4h1198v-471h-4q-60 212 -176 326t-336 114h-150v-579
h33q69 0 130 28q58 27 100 72t69 105t39 123h4v-687h-4q-12 63 -39 123t-69 105q-44 47 -100 73q-59 27 -130 27h-33v-424zM682 1403q-105 0 -170 62q-66 63 -66 194h5q0 -55 70 -79q71 -24 161 -24q91 0 161 24t70 79h5q0 -131 -66 -194q-65 -62 -170 -62z" />
    <glyph glyph-name="ebreve" unicode="&#x115;" horiz-adv-x="985" 
d="M580 1044q162 0 255 -66q92 -65 103 -159h-633q-8 -30 -11 -58q-3 -31 -3 -67q0 -211 91 -309t230 -98q138 0 233 89q94 88 109 283h11q-1 -149 -29 -277q-27 -128 -82 -215q-56 -89 -144 -138t-214 -49q-102 0 -184 33t-147 98q-61 61 -98 156q-36 93 -36 210
q0 127 44 233q43 104 118 179t174 115t213 40zM514 1008q-69 0 -122 -41q-52 -40 -79 -117h265q26 0 42 8q15 8 15 35q0 41 -27 78t-94 37zM559 1178q-105 0 -170 71t-65 226h4q0 -67 70 -95q69 -28 161 -28t161 28q71 29 71 95h4q0 -154 -66 -226q-65 -71 -170 -71z" />
    <glyph glyph-name="Edotaccent" unicode="&#x116;" horiz-adv-x="1259" 
d="M512 266q0 -143 46 -189t138 -46q103 0 183 47q79 46 138 125q57 77 97 180q39 101 60 211h4v-594h-1198v4q31 5 72 19q37 13 59 38q24 27 39 74q14 43 14 125v811q0 82 -14 125q-15 47 -39 74t-59 39q-36 12 -72 18v4h1198v-471h-4q-60 212 -176 326t-336 114h-150v-579
h33q69 0 130 28q58 27 100 72t69 105t39 123h4v-687h-4q-12 63 -39 123t-69 105q-44 47 -100 73q-59 27 -130 27h-33v-424zM682 1720q72 0 119 -47t47 -117q0 -69 -47 -116t-119 -47t-119 47t-47 116q0 70 47 117t119 47z" />
    <glyph glyph-name="edotaccent" unicode="&#x117;" horiz-adv-x="985" 
d="M580 1044q162 0 255 -66q92 -65 103 -159h-633q-8 -30 -11 -58q-3 -31 -3 -67q0 -211 91 -309t230 -98q138 0 233 89q94 88 109 283h11q-1 -149 -29 -277q-27 -128 -82 -215q-56 -89 -144 -138t-214 -49q-102 0 -184 33t-147 98q-61 61 -98 156q-36 93 -36 210
q0 127 44 233q43 104 118 179t174 115t213 40zM514 1008q-69 0 -122 -41q-52 -40 -79 -117h265q26 0 42 8q15 8 15 35q0 41 -27 78t-94 37zM561 1495q72 0 119 -47t47 -117t-47 -117t-119 -47t-119 47t-47 117t47 117t119 47z" />
    <glyph glyph-name="Eogonek" unicode="&#x118;" horiz-adv-x="1259" 
d="M512 266q0 -143 46 -189t138 -46q103 0 183 47q79 46 138 125q57 77 97 180q39 101 60 211h4v-594h-1198v4q31 5 72 19q37 13 59 38q24 27 39 74q14 43 14 125v811q0 82 -14 125q-15 47 -39 74t-59 39q-36 12 -72 18v4h1198v-471h-4q-60 212 -176 326t-336 114h-150v-579
h33q69 0 130 28q58 27 100 72t69 105t39 123h4v-687h-4q-12 63 -39 123t-69 105q-44 47 -100 73q-59 27 -130 27h-33v-424zM938 -106q0 -52 35 -76q36 -25 74 -25q30 0 57 7t49 32h4q-38 -66 -86 -114q-46 -46 -131 -46q-55 0 -100 31q-43 30 -43 86q0 71 59 118
q75 60 119 93h4q-26 -29 -33 -54q-8 -29 -8 -52z" />
    <glyph glyph-name="eogonek" unicode="&#x119;" horiz-adv-x="985" 
d="M598 -106q0 -52 35 -76q36 -25 74 -25q30 0 57 7t49 32h4q-38 -66 -86 -114q-46 -46 -131 -46q-55 0 -100 31q-43 30 -43 86q0 70 58 118q43 35 116 91q-38 -9 -65 -13q-38 -5 -70 -5q-102 0 -184 33t-147 98q-61 61 -98 156q-36 93 -36 210q0 127 44 233q43 104 118 179
t174 115t213 40q162 0 255 -66q92 -65 103 -159h-633q-8 -30 -11 -58q-3 -31 -3 -67q0 -211 91 -309t230 -98q138 0 233 89q94 88 109 283h11q-1 -257 -78 -432q-77 -176 -248 -227q-26 -29 -33 -54q-8 -29 -8 -52zM514 1008q-69 0 -122 -41q-52 -40 -79 -117h265q26 0 42 8
q15 8 15 35q0 41 -27 78t-94 37z" />
    <glyph glyph-name="Ecaron" unicode="&#x11a;" horiz-adv-x="1259" 
d="M512 266q0 -143 46 -189t138 -46q103 0 183 47q79 46 138 125q57 77 97 180q39 101 60 211h4v-594h-1198v4q31 5 72 19q37 13 59 38q24 27 39 74q14 43 14 125v811q0 82 -14 125q-15 47 -39 74t-59 39q-36 12 -72 18v4h1198v-471h-4q-60 212 -176 326t-336 114h-150v-579
h33q69 0 130 28q58 27 100 72t69 105t39 123h4v-687h-4q-12 63 -39 123t-69 105q-44 47 -100 73q-59 27 -130 27h-33v-424zM1010 1679v-4l-326 -241h-4l-326 241v4l328 -77z" />
    <glyph glyph-name="ecaron" unicode="&#x11b;" horiz-adv-x="985" 
d="M580 1044q162 0 255 -66q92 -65 103 -159h-633q-8 -30 -11 -58q-3 -31 -3 -67q0 -211 91 -309t230 -98q138 0 233 89q94 88 109 283h11q-1 -149 -29 -277q-27 -128 -82 -215q-56 -89 -144 -138t-214 -49q-102 0 -184 33t-147 98q-61 61 -98 156q-36 93 -36 210
q0 127 44 233q43 104 118 179t174 115t213 40zM514 1008q-69 0 -122 -41q-52 -40 -79 -117h265q26 0 42 8q15 8 15 35q0 41 -27 78t-94 37zM846 1516h4l-289 -369h-4l-289 369h4l287 -148z" />
    <glyph glyph-name="Gcircumflex" unicode="&#x11c;" horiz-adv-x="1421" 
d="M602 758h696v-799h-4l-344 201q-80 -80 -165 -131q-82 -49 -210 -49q-123 0 -222 48q-98 48 -168 134q-68 84 -106 204t-38 257q0 167 61 301t165 229q101 92 241 146q138 53 285 53q116 0 233 -23q115 -23 272 -78v-432h-4q-96 160 -173 256q-81 101 -148 152
q-70 53 -135 71q-70 19 -133 19q-89 0 -154 -40q-66 -41 -108 -111q-40 -68 -62 -168q-21 -98 -21 -212q0 -158 50 -276q50 -117 126 -192q74 -73 174 -111q96 -37 193 -37h47v547h-348v41zM465 1434v4l326 241h4l325 -241v-4l-327 77z" />
    <glyph glyph-name="gcircumflex" unicode="&#x11d;" horiz-adv-x="987" 
d="M481 1044q135 0 225 -32q92 -33 142 -90l47 102h205v-205h-199l3 -24q1 -8 1 -25q0 -133 -125 -217q-124 -84 -323 -84q-48 0 -96 5q-31 3 -82 13q-23 -18 -36 -35q-16 -21 -16 -42q0 -28 24 -43t75 -15h348q150 0 235 -45q86 -45 86 -162q0 -83 -60 -169
q-58 -82 -160 -152q-100 -68 -231 -110q-132 -42 -274 -42q-131 0 -198 44q-66 44 -66 114q0 57 62 104q82 62 155 113q-94 4 -156 43q-63 39 -63 125q0 89 79 149q75 56 187 125q-114 29 -178 98q-61 65 -61 156q0 134 125 218q123 83 325 83zM483 496q67 0 95 57
q28 56 28 174q0 48 -8 102q-7 47 -27 94q-17 40 -48 68q-30 27 -70 27q-64 0 -94 -57q-29 -55 -29 -175q0 -48 8 -102q7 -46 27 -93q18 -42 48 -69q29 -26 70 -26zM193 -53q0 -87 88 -115q90 -29 225 -29q147 0 246 39q98 39 98 105q0 49 -51 73q-53 25 -154 25h-381h-16
h-17q-16 -21 -28 -47q-10 -21 -10 -51zM193 1147h-5l289 369h4l289 -369h-4l-287 147z" />
    <glyph glyph-name="Gbreve" unicode="&#x11e;" horiz-adv-x="1421" 
d="M602 758h696v-799h-4l-344 201q-80 -80 -165 -131q-82 -49 -210 -49q-123 0 -222 48q-98 48 -168 134q-68 84 -106 204t-38 257q0 167 61 301t165 229q101 92 241 146q138 53 285 53q116 0 233 -23q115 -23 272 -78v-432h-4q-96 160 -173 256q-81 101 -148 152
q-70 53 -135 71q-70 19 -133 19q-89 0 -154 -40q-66 -41 -108 -111q-40 -68 -62 -168q-21 -98 -21 -212q0 -158 50 -276q50 -117 126 -192q74 -73 174 -111q96 -37 193 -37h47v547h-348v41zM793 1403q-105 0 -170 62q-66 63 -66 194h4q0 -55 71 -79q70 -24 161 -24
q89 0 160 24t71 79h4q0 -132 -65 -194t-170 -62z" />
    <glyph glyph-name="gbreve" unicode="&#x11f;" horiz-adv-x="987" 
d="M481 1044q135 0 225 -32q92 -33 142 -90l47 102h205v-205h-199l3 -24q1 -8 1 -25q0 -133 -125 -217q-124 -84 -323 -84q-48 0 -96 5q-31 3 -82 13q-23 -18 -36 -35q-16 -21 -16 -42q0 -28 24 -43t75 -15h348q150 0 235 -45q86 -45 86 -162q0 -83 -60 -169
q-58 -82 -160 -152q-100 -68 -231 -110q-132 -42 -274 -42q-131 0 -198 44q-66 44 -66 114q0 57 62 104q82 62 155 113q-94 4 -156 43q-63 39 -63 125q0 89 79 149q75 56 187 125q-114 29 -178 98q-61 65 -61 156q0 134 125 218q123 83 325 83zM483 496q67 0 95 57
q28 56 28 174q0 48 -8 102q-7 47 -27 94q-17 40 -48 68q-30 27 -70 27q-64 0 -94 -57q-29 -55 -29 -175q0 -48 8 -102q7 -46 27 -93q18 -42 48 -69q29 -26 70 -26zM193 -53q0 -87 88 -115q90 -29 225 -29q147 0 246 39q98 39 98 105q0 49 -51 73q-53 25 -154 25h-381h-16
h-17q-16 -21 -28 -47q-10 -21 -10 -51zM479 1178q-105 0 -170 71t-65 226h4q0 -67 70 -95q69 -28 161 -28t161 28q71 29 71 95h4q0 -154 -66 -226q-65 -71 -170 -71z" />
    <glyph glyph-name="Gdotaccent" unicode="&#x120;" horiz-adv-x="1421" 
d="M602 758h696v-799h-4l-344 201q-80 -80 -165 -131q-82 -49 -210 -49q-123 0 -222 48q-98 48 -168 134q-68 84 -106 204t-38 257q0 167 61 301t165 229q101 92 241 146q138 53 285 53q116 0 233 -23q115 -23 272 -78v-432h-4q-96 160 -173 256q-81 101 -148 152
q-70 53 -135 71q-70 19 -133 19q-89 0 -154 -40q-66 -41 -108 -111q-40 -68 -62 -168q-21 -98 -21 -212q0 -158 50 -276q50 -117 126 -192q74 -73 174 -111q96 -37 193 -37h47v547h-348v41zM793 1720q71 0 118 -47t47 -117q0 -69 -47 -116t-118 -47q-72 0 -119 47t-47 116
q0 70 47 117t119 47z" />
    <glyph glyph-name="gdotaccent" unicode="&#x121;" horiz-adv-x="987" 
d="M481 1044q135 0 225 -32q92 -33 142 -90l47 102h205v-205h-199l3 -24q1 -8 1 -25q0 -133 -125 -217q-124 -84 -323 -84q-48 0 -96 5q-31 3 -82 13q-23 -18 -36 -35q-16 -21 -16 -42q0 -28 24 -43t75 -15h348q150 0 235 -45q86 -45 86 -162q0 -83 -60 -169
q-58 -82 -160 -152q-100 -68 -231 -110q-132 -42 -274 -42q-131 0 -198 44q-66 44 -66 114q0 57 62 104q82 62 155 113q-94 4 -156 43q-63 39 -63 125q0 89 79 149q75 56 187 125q-114 29 -178 98q-61 65 -61 156q0 134 125 218q123 83 325 83zM483 496q67 0 95 57
q28 56 28 174q0 48 -8 102q-7 47 -27 94q-17 40 -48 68q-30 27 -70 27q-64 0 -94 -57q-29 -55 -29 -175q0 -48 8 -102q7 -46 27 -93q18 -42 48 -69q29 -26 70 -26zM193 -53q0 -87 88 -115q90 -29 225 -29q147 0 246 39q98 39 98 105q0 49 -51 73q-53 25 -154 25h-381h-16
h-17q-16 -21 -28 -47q-10 -21 -10 -51zM479 1495q72 0 119 -47t47 -117t-47 -117t-119 -47t-119 47t-47 117t47 117t119 47z" />
    <glyph glyph-name="Gcommaaccent" unicode="&#x122;" horiz-adv-x="1421" 
d="M602 758h696v-799h-4l-344 201q-80 -80 -165 -131q-82 -49 -210 -49q-123 0 -222 48q-98 48 -168 134q-68 84 -106 204t-38 257q0 167 61 301t165 229q101 92 241 146q138 53 285 53q116 0 233 -23q115 -23 272 -78v-432h-4q-96 160 -173 256q-81 101 -148 152
q-70 53 -135 71q-70 19 -133 19q-89 0 -154 -40q-66 -41 -108 -111q-40 -68 -62 -168q-21 -98 -21 -212q0 -158 50 -276q50 -117 126 -192q74 -73 174 -111q96 -37 193 -37h47v547h-348v41zM537 -410h-5l82 287h226z" />
    <glyph glyph-name="gcommaaccent" unicode="&#x123;" horiz-adv-x="987" 
d="M481 1044q135 0 225 -32q92 -33 142 -90l47 102h205v-205h-199l3 -24q1 -8 1 -25q0 -133 -125 -217q-124 -84 -323 -84q-48 0 -96 5q-31 3 -82 13q-23 -18 -36 -35q-16 -21 -16 -42q0 -28 24 -43t75 -15h348q150 0 235 -45q86 -45 86 -162q0 -83 -60 -169
q-58 -82 -160 -152q-100 -68 -231 -110q-132 -42 -274 -42q-131 0 -198 44q-66 44 -66 114q0 57 62 104q82 62 155 113q-94 4 -156 43q-63 39 -63 125q0 89 79 149q75 56 187 125q-114 29 -178 98q-61 65 -61 156q0 134 125 218q123 83 325 83zM483 496q67 0 95 57
q28 56 28 174q0 48 -8 102q-7 47 -27 94q-17 40 -48 68q-30 27 -70 27q-64 0 -94 -57q-29 -55 -29 -175q0 -48 8 -102q7 -46 27 -93q18 -42 48 -69q29 -26 70 -26zM193 -53q0 -87 88 -115q90 -29 225 -29q147 0 246 39q98 39 98 105q0 49 -51 73q-53 25 -154 25h-381h-16
h-17q-16 -21 -28 -47q-10 -21 -10 -51zM700 1516h5l-103 -369h-246z" />
    <glyph glyph-name="Hcircumflex" unicode="&#x124;" horiz-adv-x="1597" 
d="M512 260q0 -82 14 -125q15 -47 39 -74q22 -25 59 -38q41 -14 72 -19v-4h-716v4q31 5 72 19q37 13 59 38q24 27 39 74q14 43 14 125v811q0 82 -14 125q-15 47 -39 74t-59 39q-36 12 -72 18v4h716v-4q-36 -6 -72 -18q-35 -12 -59 -39t-39 -74q-14 -43 -14 -125v-350h573
v350q0 82 -14 125q-15 47 -39 74t-58 39q-35 12 -73 18v4h717v-4q-38 -6 -73 -18q-34 -12 -58 -39t-39 -74q-14 -43 -14 -125v-811q0 -82 14 -125q15 -47 39 -74q23 -26 58 -38q40 -14 73 -19v-4h-717v4q33 5 73 19q35 12 58 38q24 27 39 74q14 43 14 125v430h-573v-430z
M471 1434v4l326 241h4l325 -241v-4l-327 77z" />
    <glyph glyph-name="hcircumflex" unicode="&#x125;" horiz-adv-x="1187" 
d="M451 240q0 -76 11 -116q13 -47 31 -69q20 -25 45 -35q23 -9 56 -16q33 7 56 16q25 10 45 35q18 22 31 69q11 40 11 116v422q0 76 -24 116q-24 41 -101 41q-38 0 -75 -18q-31 -15 -86 -60v-501zM-82 1331l533 242v-823q77 113 172 205q92 89 202 89q142 0 191 -88t49 -241
v-475q0 -76 11 -116q13 -47 31 -69q20 -25 45 -35q23 -9 56 -16v-4h-1228v4q33 7 56 16q25 10 45 35q18 22 31 69q11 40 11 116v1087h-205v4zM266 1638v4l326 242h4l326 -242v-4l-328 78z" />
    <glyph glyph-name="Hbar" unicode="&#x126;" horiz-adv-x="1597" 
d="M512 260q0 -82 14 -125q15 -47 39 -74q22 -25 59 -38q41 -14 72 -19v-4h-716v4q31 5 72 19q37 13 59 38q24 27 39 74q14 43 14 125v733h-164v31h164v47q0 82 -14 125q-15 47 -39 74t-59 39q-36 12 -72 18v4h716v-4q-36 -6 -72 -18q-35 -12 -59 -39t-39 -74
q-14 -43 -14 -125v-47h573v47q0 82 -14 125q-15 47 -39 74t-58 39q-35 12 -73 18v4h717v-4q-38 -6 -73 -18q-34 -12 -58 -39t-39 -74q-14 -43 -14 -125v-47h163v-31h-163v-733q0 -82 14 -125q15 -47 39 -74q23 -26 58 -38q40 -14 73 -19v-4h-717v4q33 5 73 19q35 12 58 38
q24 27 39 74q14 43 14 125v430h-573v-430zM512 721h573v272h-573v-272z" />
    <glyph glyph-name="hbar" unicode="&#x127;" horiz-adv-x="1187" 
d="M451 240q0 -76 11 -116q13 -47 31 -69q20 -25 45 -35q23 -9 56 -16q33 7 56 16q25 10 45 35q18 22 31 69q11 40 11 116v422q0 76 -24 116q-24 41 -101 41q-38 0 -75 -18q-31 -15 -86 -60v-501zM0 1167h123v160h-205v4l533 242v-406h204v-30h-204v-387q77 113 172 205
q92 89 202 89q142 0 191 -88t49 -241v-475q0 -76 11 -116q13 -47 31 -69q20 -25 45 -35q23 -9 56 -16v-4h-1228v4q33 7 56 16q25 10 45 35q18 22 31 69q11 40 11 116v897h-123v30z" />
    <glyph glyph-name="Itilde" unicode="&#x128;" horiz-adv-x="675" 
d="M512 260q0 -82 14 -125q15 -47 39 -74q22 -25 59 -38q41 -14 72 -19v-4h-716v4q31 5 72 19q37 13 59 38q24 27 39 74q14 43 14 125v811q0 82 -14 125q-15 47 -39 74t-59 39q-36 12 -72 18v4h716v-4q-36 -6 -72 -18q-35 -12 -59 -39t-39 -74q-14 -43 -14 -125v-811z
M629 1679q-18 -127 -55 -192q-37 -64 -117 -64q-94 0 -169 30t-151 30q-36 0 -57 -18q-22 -19 -29 -52h-4q21 129 55 192q34 64 117 64q94 0 169 -30q73 -29 151 -29q37 0 57 17q22 19 29 52h4z" />
    <glyph glyph-name="itilde" unicode="&#x129;" horiz-adv-x="583" 
d="M461 240q0 -76 11 -116q13 -47 31 -69q20 -25 45 -35q23 -9 56 -16v-4h-614v4q33 7 56 16q25 10 45 35q18 22 31 69q11 40 11 116v579h-205v4l533 242v-825zM606 1485q-21 -140 -55 -208q-35 -69 -117 -69q-44 0 -89 16q-46 16 -81 34q-46 23 -76 35q-40 16 -73 16
q-37 0 -57 -23q-18 -21 -29 -67h-4q23 137 56 205q35 71 116 71q47 0 89 -15q39 -14 81 -35q50 -25 75 -35q37 -15 74 -15t56 22t30 68h4z" />
    <glyph glyph-name="Imacron" unicode="&#x12a;" horiz-adv-x="675" 
d="M512 260q0 -82 14 -125q15 -47 39 -74q22 -25 59 -38q41 -14 72 -19v-4h-716v4q31 5 72 19q37 13 59 38q24 27 39 74q14 43 14 125v811q0 82 -14 125q-15 47 -39 74t-59 39q-36 12 -72 18v4h716v-4q-36 -6 -72 -18q-35 -12 -59 -39t-39 -74q-14 -43 -14 -125v-811z
M563 1642v-192h-450v192h450z" />
    <glyph glyph-name="imacron" unicode="&#x12b;" horiz-adv-x="583" 
d="M461 240q0 -76 11 -116q13 -47 31 -69q20 -25 45 -35q23 -9 56 -16v-4h-614v4q33 7 56 16q25 10 45 35q18 22 31 69q11 40 11 116v579h-205v4l533 242v-825zM541 1438v-213h-451v213h451z" />
    <glyph glyph-name="Ibreve" unicode="&#x12c;" horiz-adv-x="675" 
d="M512 260q0 -82 14 -125q15 -47 39 -74q22 -25 59 -38q41 -14 72 -19v-4h-716v4q31 5 72 19q37 13 59 38q24 27 39 74q14 43 14 125v811q0 82 -14 125q-15 47 -39 74t-59 39q-36 12 -72 18v4h716v-4q-36 -6 -72 -18q-35 -12 -59 -39t-39 -74q-14 -43 -14 -125v-811z
M338 1403q-105 0 -170 62q-66 63 -66 194h4q0 -55 71 -79t161 -24t161 24q70 24 70 79h4q0 -132 -65 -194t-170 -62z" />
    <glyph glyph-name="ibreve" unicode="&#x12d;" horiz-adv-x="583" 
d="M461 240q0 -76 11 -116q13 -47 31 -69q20 -25 45 -35q23 -9 56 -16v-4h-614v4q33 7 56 16q25 10 45 35q18 22 31 69q11 40 11 116v579h-205v4l533 242v-825zM315 1178q-105 0 -170 71t-65 226h4q0 -66 71 -95q69 -28 160 -28q92 0 161 28q71 29 71 95h4q0 -154 -66 -226
q-65 -71 -170 -71z" />
    <glyph glyph-name="Iogonek" unicode="&#x12e;" horiz-adv-x="675" 
d="M512 260q0 -82 14 -125q15 -47 39 -74q22 -25 59 -38q41 -14 72 -19v-4h-716v4q31 5 72 19q37 13 59 38q24 27 39 74q14 43 14 125v811q0 82 -14 125q-15 47 -39 74t-59 39q-36 12 -72 18v4h716v-4q-36 -6 -72 -18q-35 -12 -59 -39t-39 -74q-14 -43 -14 -125v-811z
M319 -106q0 -52 35 -76q36 -25 74 -25q30 0 57 7q29 8 50 32h4q-38 -66 -86 -114q-46 -46 -131 -46q-56 0 -101 31q-43 30 -43 86q0 70 60 118q90 72 118 93h4q-25 -28 -32 -54q-9 -32 -9 -52z" />
    <glyph glyph-name="iogonek" unicode="&#x12f;" horiz-adv-x="583" 
d="M315 1126q-89 0 -148 59q-58 58 -58 146q0 89 58 147t148 58q91 0 149 -58t58 -147q0 -88 -58 -146q-59 -59 -149 -59zM461 240q0 -76 11 -116q13 -47 31 -69q20 -25 45 -35q23 -9 56 -16v-4h-614v4q33 7 56 16q25 10 45 35q18 22 31 69q11 40 11 116v579h-205v4l533 242
v-825zM281 -106q0 -52 34 -76q36 -25 74 -25q30 0 57 7q29 8 50 32h4q-38 -66 -86 -114q-46 -46 -131 -46q-56 0 -101 31q-43 30 -43 86q0 70 60 118q90 72 118 93h5q-26 -29 -33 -54q-8 -29 -8 -52z" />
    <glyph glyph-name="Idotaccent" unicode="&#x130;" horiz-adv-x="675" 
d="M512 260q0 -82 14 -125q15 -47 39 -74q22 -25 59 -38q41 -14 72 -19v-4h-716v4q31 5 72 19q37 13 59 38q24 27 39 74q14 43 14 125v811q0 82 -14 125q-15 47 -39 74t-59 39q-36 12 -72 18v4h716v-4q-36 -6 -72 -18q-35 -12 -59 -39t-39 -74q-14 -43 -14 -125v-811z
M338 1720q72 0 119 -47t47 -117q0 -69 -47 -116t-119 -47t-119 47t-47 116q0 70 47 117t119 47z" />
    <glyph glyph-name="dotlessi" unicode="&#x131;" horiz-adv-x="583" 
d="M461 240q0 -76 11 -116q13 -47 31 -69q20 -25 45 -35q23 -9 56 -16v-4h-614v4q33 7 56 16q25 10 45 35q18 22 31 69q11 40 11 116v579h-205v4l533 242v-825z" />
    <glyph glyph-name="IJ" unicode="&#x132;" horiz-adv-x="1351" 
d="M512 260q0 -82 14 -125q15 -47 39 -74q22 -25 59 -38q41 -14 72 -19v-4h-716v4q31 5 72 19q37 13 59 38q24 27 39 74q14 43 14 125v811q0 82 -14 125q-15 47 -39 74t-59 39q-36 12 -72 18v4h716v-4q-36 -6 -72 -18q-35 -12 -59 -39t-39 -74q-14 -43 -14 -125v-811z
M676 -324q57 38 90 69q31 30 49 70q16 37 21 88q4 44 4 126v1042q0 79 -15 125q-15 47 -39 74t-58 39q-35 12 -73 18v4h717v-4q-38 -6 -73 -18q-34 -12 -58 -39t-39 -74q-14 -43 -14 -125v-989q0 -89 -28 -151q-27 -60 -88 -104q-61 -45 -159 -80q-104 -38 -237 -75v4z" />
    <glyph glyph-name="ij" unicode="&#x133;" horiz-adv-x="1157" 
d="M315 1126q-89 0 -148 59q-58 58 -58 146q0 89 58 147t148 58q91 0 149 -58t58 -147q0 -88 -58 -146q-59 -59 -149 -59zM461 240q0 -76 11 -116q13 -47 31 -69q20 -25 45 -35q23 -9 56 -16v-4h-614v4q33 7 56 16q25 10 45 35q18 22 31 69q11 40 11 116v579h-205v4l533 242
v-825zM899 1126q-89 0 -148 59t-59 146q0 88 59 147q58 58 148 58q91 0 149 -58t58 -147q0 -88 -58 -146q-59 -59 -149 -59zM717 29v790h-205v4l532 242v-983q0 -93 -26 -152q-27 -62 -85 -105q-60 -45 -153 -80q-92 -35 -227 -73v4q57 38 90 69q31 30 49 70q16 37 21 88
q4 44 4 126z" />
    <glyph glyph-name="Jcircumflex" unicode="&#x134;" horiz-adv-x="675" 
d="M0 -324q57 38 90 69q31 30 49 70q16 37 21 88q4 44 4 126v1042q0 82 -14 125q-15 47 -39 74t-59 39q-36 12 -72 18v4h716v-4q-36 -6 -72 -18q-35 -12 -59 -39t-39 -74q-14 -43 -14 -125v-989q0 -89 -28 -151q-27 -60 -88 -104q-62 -45 -158 -80q-101 -37 -238 -75v4z
M10 1434v4l326 241h4l326 -241v-4l-328 77z" />
    <glyph glyph-name="jcircumflex" unicode="&#x135;" horiz-adv-x="573" 
d="M133 29v790h-205v4l533 242v-983q0 -90 -27 -152t-85 -105q-61 -45 -152 -80q-90 -34 -228 -73v4q57 38 90 69q33 32 50 70q15 34 20 88q4 44 4 126zM29 1147h-4l288 369h4l289 -369h-4l-287 147z" />
    <glyph glyph-name="Kcommaaccent" unicode="&#x136;" horiz-adv-x="1314" 
d="M819 948l-12 -14l438 -750q53 -92 87 -132q35 -41 85 -48v-4h-489l-359 651l-57 -67v-324q0 -82 14 -125q15 -47 39 -74q22 -25 59 -38q41 -14 72 -19v-4h-716v4q31 5 72 19q37 13 59 38q24 27 39 74q14 43 14 125v811q0 82 -14 125q-15 47 -39 74t-59 39q-36 12 -72 18
v4h716v-4q-36 -6 -72 -18q-35 -12 -59 -39t-39 -74q-14 -43 -14 -125v-442l270 321q53 64 71 123t10 110q-8 50 -35 88q-28 38 -60 56v4h549v-4q-142 -62 -268 -161q-134 -105 -230 -218zM516 -410h-4l82 287h225z" />
    <glyph glyph-name="kcommaaccent" unicode="&#x137;" horiz-adv-x="1148" 
d="M451 240q0 -76 11 -116q13 -47 31 -69q20 -25 45 -35q23 -9 56 -16v-4h-614v4q33 7 56 16q25 10 45 35q18 22 31 69q11 40 11 116v1087h-205v4l533 242v-1137l264 262q48 48 59 98q11 49 -4 91q-16 45 -47 78t-68 55v4h549v-4q-129 -57 -228 -129q-103 -75 -200 -172
l303 -535q51 -90 86 -131q35 -42 86 -49v-4h-458l-252 481l-90 -90v-151zM455 -410h-4l81 287h226z" />
    <glyph glyph-name="kgreenlandic" unicode="&#x138;" horiz-adv-x="1159" 
d="M461 240q0 -76 11 -116q13 -47 31 -69q20 -25 45 -35q23 -9 56 -16v-4h-614v4q33 7 56 16q25 10 45 35q18 22 31 69q11 40 11 116v579h-205v4l533 242v-629l264 262q48 48 59 98q11 49 -4 91q-16 45 -47 78q-33 34 -67 55v4h548v-4q-129 -57 -228 -129
q-103 -75 -200 -172l304 -535q51 -90 86 -131q35 -42 86 -49v-4h-459l-252 481l-90 -90v-151z" />
    <glyph glyph-name="Lacute" unicode="&#x139;" horiz-adv-x="1136" 
d="M717 1331v-4q-124 -27 -164 -83q-41 -58 -41 -173v-1040h68q220 0 336 114t176 326h4v-471h-1116v4q31 5 72 19q37 13 59 38q24 27 39 74q14 43 14 125v811q0 82 -14 125q-15 47 -39 74t-59 39q-36 12 -72 18v4h737zM72 1438l491 241v-204l-491 -41v4z" />
    <glyph glyph-name="lacute" unicode="&#x13a;" horiz-adv-x="573" 
d="M451 240q0 -76 11 -116q13 -47 31 -69q20 -25 45 -35q23 -9 56 -16v-4h-614v4q33 7 56 16q25 10 45 35q18 22 31 69q11 40 11 116v1087h-205v4l533 242v-1333zM41 1642l491 242v-205l-491 -41v4z" />
    <glyph glyph-name="Lcommaaccent" unicode="&#x13b;" horiz-adv-x="1136" 
d="M717 1331v-4q-124 -27 -164 -83q-41 -58 -41 -173v-1040h68q220 0 336 114t176 326h4v-471h-1116v4q31 5 72 19q37 13 59 38q24 27 39 74q14 43 14 125v811q0 82 -14 125q-15 47 -39 74t-59 39q-36 12 -72 18v4h737zM393 -410h-4l82 287h225z" />
    <glyph glyph-name="lcommaaccent" unicode="&#x13c;" horiz-adv-x="573" 
d="M451 240q0 -76 11 -116q13 -47 31 -69q20 -25 45 -35q23 -9 56 -16v-4h-614v4q33 7 56 16q25 10 45 35q18 22 31 69q11 40 11 116v1087h-205v4l533 242v-1333zM106 -410h-4l82 287h226z" />
    <glyph glyph-name="Lcaron" unicode="&#x13d;" horiz-adv-x="1136" 
d="M717 1331v-4q-124 -27 -164 -83q-41 -58 -41 -173v-1040h68q220 0 336 114t176 326h4v-471h-1116v4q31 5 72 19q37 13 59 38q24 27 39 74q14 43 14 125v811q0 82 -14 125q-15 47 -39 74t-59 39q-36 12 -72 18v4h737zM762 963h-4l61 368h225z" />
    <glyph glyph-name="lcaron" unicode="&#x13e;" horiz-adv-x="573" 
d="M451 240q0 -76 11 -116q13 -47 31 -69q20 -25 45 -35q23 -9 56 -16v-4h-614v4q33 7 56 16q25 10 45 35q18 22 31 69q11 40 11 116v1087h-205v4l533 242v-1333zM557 963h-4l61 368h226z" />
    <glyph glyph-name="Ldot" unicode="&#x13f;" horiz-adv-x="1136" 
d="M717 1331v-4q-124 -27 -164 -83q-41 -58 -41 -173v-1040h68q220 0 336 114t176 326h4v-471h-1116v4q31 5 72 19q37 13 59 38q24 27 39 74q14 43 14 125v811q0 82 -14 125q-15 47 -39 74t-59 39q-36 12 -72 18v4h737zM909 903q72 0 119 -47t47 -117q0 -69 -47 -116
q-48 -48 -119 -48q-70 0 -118 48t-48 116q0 69 48 117q47 47 118 47z" />
    <glyph glyph-name="ldot" unicode="&#x140;" horiz-adv-x="823" 
d="M451 240q0 -76 11 -116q13 -47 31 -69q20 -25 45 -35q23 -9 56 -16v-4h-614v4q33 7 56 16q25 10 45 35q18 22 31 69q11 40 11 116v1087h-205v4l533 242v-1333zM698 881q72 0 119 -47t47 -117t-47 -117t-119 -47q-71 0 -118 47q-48 48 -48 117t48 117q47 47 118 47z" />
    <glyph glyph-name="Lslash" unicode="&#x141;" horiz-adv-x="1136" 
d="M0 440l164 117v514q0 82 -14 125q-15 47 -39 74t-59 39q-36 12 -72 18v4h737v-4q-124 -27 -164 -83q-41 -58 -41 -173v-309l225 160v-41l-225 -160v-690h68q220 0 336 114t176 326h4v-471h-1116v4q31 5 72 19q37 13 59 38q24 27 39 74q14 43 14 125v256l-164 -117v41z
" />
    <glyph glyph-name="lslash" unicode="&#x142;" horiz-adv-x="573" 
d="M451 240q0 -76 11 -116q13 -47 31 -69q20 -25 45 -35q23 -9 56 -16v-4h-614v4q33 7 56 16q25 10 45 35q18 22 31 69q11 40 11 116v444l-123 -100v41l123 100v602h-205v4l533 242v-629l122 100v-40l-122 -101v-663z" />
    <glyph glyph-name="Nacute" unicode="&#x143;" horiz-adv-x="1284" 
d="M168 362v689l-53 61q-77 89 -132 144q-56 56 -141 71v4h557l691 -796v434q0 101 -22 169q-21 64 -56 102t-80 56q-51 20 -92 31v4h536v-4q-41 -11 -92 -31q-45 -18 -80 -56t-56 -102q-22 -68 -22 -169v-1030h-4l-917 1069v-646q0 -104 21 -168t57 -103t79 -56
q49 -20 93 -31v-4h-537v4q41 11 92 31q45 18 80 56t56 103q22 68 22 168zM397 1438l492 241v-204l-492 -41v4z" />
    <glyph glyph-name="nacute" unicode="&#x144;" horiz-adv-x="1198" 
d="M461 240q0 -76 11 -116q13 -47 31 -69q20 -25 45 -35q23 -9 56 -16q33 7 56 16q26 11 46 35q17 20 30 69q12 44 12 116v422q0 74 -25 116q-24 41 -100 41q-39 0 -76 -18q-31 -15 -86 -60v-501zM-72 823l533 242v-315q77 113 172 205q92 89 203 89q141 0 190 -88t49 -241
v-475q0 -76 11 -116q13 -47 31 -69q20 -25 45 -35q22 -9 57 -16v-4h-1229v4q33 7 56 16q25 10 45 35q18 22 31 69q11 40 11 116v579h-205v4zM606 1147h-4l84 369h246z" />
    <glyph glyph-name="Ncommaaccent" unicode="&#x145;" horiz-adv-x="1284" 
d="M168 362v689l-53 61q-77 89 -132 144q-56 56 -141 71v4h557l691 -796v434q0 101 -22 169q-21 64 -56 102t-80 56q-51 20 -92 31v4h536v-4q-41 -11 -92 -31q-45 -18 -80 -56t-56 -102q-22 -68 -22 -169v-1030h-4l-917 1069v-646q0 -104 21 -168t57 -103t79 -56
q49 -20 93 -31v-4h-537v4q41 11 92 31q45 18 80 56t56 103q22 68 22 168zM496 -410h-4l81 287h226z" />
    <glyph glyph-name="ncommaaccent" unicode="&#x146;" horiz-adv-x="1198" 
d="M461 240q0 -76 11 -116q13 -47 31 -69q20 -25 45 -35q23 -9 56 -16q33 7 56 16q26 11 46 35q17 20 30 69q12 44 12 116v422q0 74 -25 116q-24 41 -100 41q-39 0 -76 -18q-31 -15 -86 -60v-501zM-72 823l533 242v-315q77 113 172 205q92 89 203 89q141 0 190 -88t49 -241
v-475q0 -76 11 -116q13 -47 31 -69q20 -25 45 -35q22 -9 57 -16v-4h-1229v4q33 7 56 16q25 10 45 35q18 22 31 69q11 40 11 116v579h-205v4zM393 -410h-4l82 287h225z" />
    <glyph glyph-name="Ncaron" unicode="&#x147;" horiz-adv-x="1284" 
d="M168 362v689l-53 61q-77 89 -132 144q-56 56 -141 71v4h557l691 -796v434q0 101 -22 169q-21 64 -56 102t-80 56q-51 20 -92 31v4h536v-4q-41 -11 -92 -31q-45 -18 -80 -56t-56 -102q-22 -68 -22 -169v-1030h-4l-917 1069v-646q0 -104 21 -168t57 -103t79 -56
q49 -20 93 -31v-4h-537v4q41 11 92 31q45 18 80 56t56 103q22 68 22 168zM971 1679v-4l-326 -241h-4l-326 241v4l328 -77z" />
    <glyph glyph-name="ncaron" unicode="&#x148;" horiz-adv-x="1198" 
d="M461 240q0 -76 11 -116q13 -47 31 -69q20 -25 45 -35q23 -9 56 -16q33 7 56 16q26 11 46 35q17 20 30 69q12 44 12 116v422q0 74 -25 116q-24 41 -100 41q-39 0 -76 -18q-31 -15 -86 -60v-501zM-72 823l533 242v-315q77 113 172 205q92 89 203 89q141 0 190 -88t49 -241
v-475q0 -76 11 -116q13 -47 31 -69q20 -25 45 -35q22 -9 57 -16v-4h-1229v4q33 7 56 16q25 10 45 35q18 22 31 69q11 40 11 116v579h-205v4zM891 1516h4l-289 -369h-4l-289 369h4l287 -148z" />
    <glyph glyph-name="Eng" unicode="&#x14a;" horiz-adv-x="1284" 
d="M168 362v689l-53 61q-77 89 -132 144q-56 56 -141 71v4h557l691 -796v434q0 101 -22 169q-21 64 -56 102t-80 56q-51 20 -92 31v4h536v-4q-41 -11 -92 -31q-45 -18 -80 -56t-56 -102q-22 -68 -22 -169v-887q0 -91 -27 -151t-88 -104q-61 -45 -159 -80q-101 -37 -238 -75
v4q60 40 91 69q31 30 49 70q15 34 20 88q4 44 4 126v309l-573 670v-646q0 -104 21 -168t57 -103t79 -56q49 -20 93 -31v-4h-537v4q41 11 92 31q45 18 80 56t56 103q22 68 22 168z" />
    <glyph glyph-name="eng" unicode="&#x14b;" horiz-adv-x="1187" 
d="M461 240q0 -76 11 -116q13 -47 31 -69q20 -25 45 -35q23 -9 56 -16v-4h-614v4q33 7 56 16q25 10 45 35q18 22 31 69q11 40 11 116v579h-205v4l533 242v-315q77 113 172 205q92 89 203 89q141 0 190 -88t49 -241v-633q0 -93 -26 -152q-27 -62 -85 -105q-60 -45 -153 -80
q-92 -35 -227 -73v4q57 38 90 69q31 30 49 70q15 34 20 88q5 55 5 126v633q0 74 -25 116q-24 41 -100 41q-39 0 -76 -18q-31 -15 -86 -60v-501z" />
    <glyph glyph-name="Omacron" unicode="&#x14c;" horiz-adv-x="1435" 
d="M741 1352q145 0 267 -48q118 -47 206 -136q89 -90 134 -210q47 -124 47 -268q0 -155 -56 -287q-55 -131 -150 -225q-92 -92 -223 -146q-126 -52 -274 -52q-144 0 -264 49q-121 49 -206 136q-85 86 -133 208t-48 266q0 157 55 288q54 129 151 226q92 92 223 146
q129 53 271 53zM686 1323q-128 0 -191 -147t-63 -449q0 -120 19 -255q18 -126 56 -230q37 -101 98 -168q60 -66 145 -66q133 0 193 148q61 149 61 446q0 127 -18 256q-19 133 -55 232q-37 99 -98 167q-60 66 -147 66zM944 1643v-193h-450v193h450z" />
    <glyph glyph-name="omacron" unicode="&#x14d;" horiz-adv-x="1114" 
d="M575 1044q114 0 207 -37q94 -37 161 -106q67 -68 104 -162q36 -91 36 -207q0 -122 -43 -223q-45 -105 -116 -175q-76 -75 -174 -114q-99 -40 -213 -40q-112 0 -205 37q-94 37 -161 106q-65 67 -103 162q-37 93 -37 207q0 122 43 223q45 105 116 175q75 74 175 114
q99 40 210 40zM532 1016q-74 0 -112 -112q-37 -110 -37 -343q0 -106 11 -197q13 -106 35 -178q25 -80 61 -128q38 -50 92 -50q77 0 113 112q36 111 36 343q0 106 -11 197q-13 106 -35 178q-25 80 -61 128q-38 50 -92 50zM782 1438v-213h-450v213h450z" />
    <glyph glyph-name="Obreve" unicode="&#x14e;" horiz-adv-x="1435" 
d="M741 1352q145 0 267 -48q118 -47 206 -136q89 -90 134 -210q47 -124 47 -268q0 -155 -56 -287q-55 -131 -150 -225q-92 -92 -223 -146q-126 -52 -274 -52q-144 0 -264 49q-121 49 -206 136q-85 86 -133 208t-48 266q0 157 55 288q54 129 151 226q92 92 223 146
q129 53 271 53zM686 1323q-128 0 -191 -147t-63 -449q0 -120 19 -255q18 -126 56 -230q37 -101 98 -168q60 -66 145 -66q133 0 193 148q61 149 61 446q0 127 -18 256q-19 133 -55 232q-37 99 -98 167q-60 66 -147 66zM719 1403q-105 0 -170 62q-66 63 -66 194h4
q0 -55 71 -79t161 -24q91 0 161 24t70 79h4q0 -132 -65 -194t-170 -62z" />
    <glyph glyph-name="obreve" unicode="&#x14f;" horiz-adv-x="1114" 
d="M575 1044q114 0 207 -37q94 -37 161 -106q67 -68 104 -162q36 -91 36 -207q0 -122 -43 -223q-45 -105 -116 -175q-76 -75 -174 -114q-99 -40 -213 -40q-112 0 -205 37q-94 37 -161 106q-65 67 -103 162q-37 93 -37 207q0 122 43 223q45 105 116 175q75 74 175 114
q99 40 210 40zM532 1016q-74 0 -112 -112q-37 -110 -37 -343q0 -106 11 -197q13 -106 35 -178q25 -80 61 -128q38 -50 92 -50q77 0 113 112q36 111 36 343q0 106 -11 197q-13 106 -35 178q-25 80 -61 128q-38 50 -92 50zM557 1178q-105 0 -170 71t-65 226h4q0 -67 70 -95
q69 -28 161 -28t161 28q70 28 70 95h5q0 -154 -66 -226q-65 -71 -170 -71z" />
    <glyph glyph-name="Ohungarumlaut" unicode="&#x150;" horiz-adv-x="1435" 
d="M741 1352q145 0 267 -48q118 -47 206 -136q89 -90 134 -210q47 -124 47 -268q0 -155 -56 -287q-55 -131 -150 -225q-92 -92 -223 -146q-126 -52 -274 -52q-144 0 -264 49q-121 49 -206 136q-85 86 -133 208t-48 266q0 157 55 288q54 129 151 226q92 92 223 146
q129 53 271 53zM686 1323q-128 0 -191 -147t-63 -449q0 -120 19 -255q18 -126 56 -230q37 -101 98 -168q60 -66 145 -66q133 0 193 148q61 149 61 446q0 127 -18 256q-19 133 -55 232q-37 99 -98 167q-60 66 -147 66zM539 1434h-4l20 225h266zM862 1434h-4l21 225h266z" />
    <glyph glyph-name="ohungarumlaut" unicode="&#x151;" horiz-adv-x="1114" 
d="M575 1044q114 0 207 -37q94 -37 161 -106q67 -68 104 -162q36 -91 36 -207q0 -122 -43 -223q-45 -105 -116 -175q-76 -75 -174 -114q-99 -40 -213 -40q-112 0 -205 37q-94 37 -161 106q-65 67 -103 162q-37 93 -37 207q0 122 43 223q45 105 116 175q75 74 175 114
q99 40 210 40zM532 1016q-74 0 -112 -112q-37 -110 -37 -343q0 -106 11 -197q13 -106 35 -178q25 -80 61 -128q38 -50 92 -50q77 0 113 112q36 111 36 343q0 106 -11 197q-13 106 -35 178q-25 80 -61 128q-38 50 -92 50zM336 1147h-4l61 369h225zM700 1147h-4l62 369h225z
" />
    <glyph glyph-name="OE" unicode="&#x152;" horiz-adv-x="2033" 
d="M807 1331h1145v-471h-4q-60 213 -175 326q-115 114 -337 114h-150v-579h33q69 0 130 28q58 27 100 72t69 105t39 123h4v-687h-4q-12 63 -39 123t-69 105q-44 47 -100 73q-58 27 -130 27h-33v-424q0 -143 46 -189t138 -46q103 0 183 47q79 46 138 125q57 77 97 180
q39 101 60 211h4v-594h-1118q-372 0 -583 170q-210 170 -210 471q0 159 62 284q63 128 168 218q104 89 245 139q138 49 291 49zM795 1300q-89 0 -159 -51q-72 -52 -121 -137q-50 -86 -77 -201q-26 -110 -26 -237q0 -116 21 -230q21 -113 74 -206q54 -95 143 -150
q92 -57 227 -57h61v1054q0 117 -39 166t-104 49z" />
    <glyph glyph-name="oe" unicode="&#x153;" horiz-adv-x="1769" 
d="M575 1044q122 0 224 -44q100 -43 166 -123q77 80 179 123q105 44 220 44q162 0 255 -66q92 -65 103 -159h-632q-10 -35 -12 -58q-3 -31 -3 -67q0 -211 91 -309t231 -98q137 0 232 89t110 283h10q-1 -149 -29 -277q-27 -128 -82 -215q-56 -89 -144 -138t-214 -49
q-109 0 -199 40q-92 41 -155 117q-77 -77 -176 -117t-213 -40q-112 0 -205 37q-94 37 -161 106q-65 67 -103 162q-37 93 -37 207q0 122 43 223q45 105 116 175q75 74 175 114q99 40 210 40zM532 1016q-74 0 -112 -112q-37 -110 -37 -343q0 -106 11 -197q13 -106 35 -178
q24 -78 62 -128t91 -50q77 0 113 112q36 111 36 343q0 106 -11 197q-13 106 -35 178q-25 80 -61 128q-38 50 -92 50zM1298 1008q-68 0 -121 -41q-52 -40 -79 -117h278q26 0 42 8t16 35q0 40 -35 78q-34 37 -101 37z" />
    <glyph glyph-name="Racute" unicode="&#x154;" horiz-adv-x="1335" 
d="M-20 1331h720q324 0 454 -71q132 -72 132 -240q0 -152 -112 -233q-112 -80 -308 -103q54 -1 100 -30q44 -27 83 -93l217 -377q50 -90 86 -132q34 -40 86 -48v-4h-475l-271 563q-24 52 -48 74q-23 22 -83 22h-49v-399q0 -82 14 -125q15 -47 39 -74q22 -25 59 -38
q41 -14 72 -19v-4h-716v4q31 5 72 19q37 13 59 38q24 27 39 74q14 43 14 125v811q0 82 -14 125q-15 47 -39 74t-59 39q-36 12 -72 18v4zM657 1300h-145v-610h152q110 0 181 86q70 85 70 211q0 128 -61 220q-62 93 -197 93zM373 1438l491 241v-204l-491 -41v4z" />
    <glyph glyph-name="racute" unicode="&#x155;" horiz-adv-x="772" 
d="M143 819h-204v4l532 262v-258q29 108 103 165q75 57 151 57q30 0 63 -7q30 -6 46 -18v-205h-363v-567q0 -114 39 -163q40 -51 166 -85v-4h-676v4q33 7 56 16q25 10 45 35q18 22 31 69q11 40 11 116v579zM473 1147h-4l84 369h246z" />
    <glyph glyph-name="Rcommaaccent" unicode="&#x156;" horiz-adv-x="1335" 
d="M-20 1331h720q324 0 454 -71q132 -72 132 -240q0 -152 -112 -233q-112 -80 -308 -103q54 -1 100 -30q44 -27 83 -93l217 -377q50 -90 86 -132q34 -40 86 -48v-4h-475l-271 563q-24 52 -48 74q-23 22 -83 22h-49v-399q0 -82 14 -125q15 -47 39 -74q22 -25 59 -38
q41 -14 72 -19v-4h-716v4q31 5 72 19q37 13 59 38q24 27 39 74q14 43 14 125v811q0 82 -14 125q-15 47 -39 74t-59 39q-36 12 -72 18v4zM657 1300h-145v-610h152q110 0 181 86q70 85 70 211q0 128 -61 220q-62 93 -197 93zM537 -410h-5l82 287h226z" />
    <glyph glyph-name="rcommaaccent" unicode="&#x157;" horiz-adv-x="772" 
d="M143 819h-204v4l532 262v-258q29 108 103 165q75 57 151 57q30 0 63 -7q30 -6 46 -18v-205h-363v-567q0 -114 39 -163q40 -51 166 -85v-4h-676v4q33 7 56 16q25 10 45 35q18 22 31 69q11 40 11 116v579zM127 -410h-4l82 287h225z" />
    <glyph glyph-name="Rcaron" unicode="&#x158;" horiz-adv-x="1335" 
d="M-20 1331h720q324 0 454 -71q132 -72 132 -240q0 -152 -112 -233q-112 -80 -308 -103q54 -1 100 -30q44 -27 83 -93l217 -377q50 -90 86 -132q34 -40 86 -48v-4h-475l-271 563q-24 52 -48 74q-23 22 -83 22h-49v-399q0 -82 14 -125q15 -47 39 -74q22 -25 59 -38
q41 -14 72 -19v-4h-716v4q31 5 72 19q37 13 59 38q24 27 39 74q14 43 14 125v811q0 82 -14 125q-15 47 -39 74t-59 39q-36 12 -72 18v4zM657 1300h-145v-610h152q110 0 181 86q70 85 70 211q0 128 -61 220q-62 93 -197 93zM946 1679v-4l-325 -241h-5l-325 241v4l327 -77z
" />
    <glyph glyph-name="rcaron" unicode="&#x159;" horiz-adv-x="772" 
d="M143 819h-204v4l532 262v-258q29 108 103 165q75 57 151 57q30 0 63 -7q30 -6 46 -18v-205h-363v-567q0 -114 39 -163q40 -51 166 -85v-4h-676v4q33 7 56 16q25 10 45 35q18 22 31 69q11 40 11 116v579zM758 1516h4l-289 -369h-4l-289 369h4l287 -148z" />
    <glyph glyph-name="Sacute" unicode="&#x15a;" horiz-adv-x="1122" 
d="M100 90v473h4q68 -145 148 -251q78 -104 155 -167q79 -65 150 -91q73 -27 135 -27q88 0 136 49q49 51 49 133q0 117 -128 177q-136 64 -280 121q-152 60 -280 152t-128 273q0 102 36 181q35 77 100 131q64 53 153 80q93 28 195 28q109 0 222 -25q102 -23 237 -76v-432h-5
q-153 266 -299 380q-145 114 -264 112q-84 0 -130 -48q-46 -47 -46 -120q0 -115 126 -165q188 -74 274 -106q151 -56 275 -151q126 -96 126 -301t-135 -323q-133 -117 -348 -117q-124 0 -232 26q-112 27 -246 84zM317 1438l492 241v-204l-492 -41v4z" />
    <glyph glyph-name="sacute" unicode="&#x15b;" horiz-adv-x="876" 
d="M545 29q64 0 96 31q33 32 33 90q0 86 -97 131q-102 47 -215 92q-112 44 -214 120q-97 72 -97 212q0 163 114 251q113 88 279 88q92 0 168 -22q81 -23 168 -61v-336h-4q-117 180 -216 279q-100 100 -200 100q-65 0 -101 -33t-36 -84q0 -84 94 -123q95 -39 207 -81
q111 -42 207 -116q94 -73 94 -229q0 -167 -104 -262q-105 -96 -270 -96q-117 0 -194 21q-73 20 -177 62v332h4q82 -108 155 -184q69 -72 121 -112q50 -39 99 -55q45 -15 86 -15zM440 1147h-4l84 369h246z" />
    <glyph glyph-name="Scircumflex" unicode="&#x15c;" horiz-adv-x="1122" 
d="M100 90v473h4q68 -145 148 -251q78 -104 155 -167q79 -65 150 -91q73 -27 135 -27q88 0 136 49q49 51 49 133q0 117 -128 177q-136 64 -280 121q-152 60 -280 152t-128 273q0 102 36 181q35 77 100 131q64 53 153 80q93 28 195 28q109 0 222 -25q102 -23 237 -76v-432h-5
q-153 266 -299 380q-145 114 -264 112q-84 0 -130 -48q-46 -47 -46 -120q0 -115 126 -165q188 -74 274 -106q151 -56 275 -151q126 -96 126 -301t-135 -323q-133 -117 -348 -117q-124 0 -232 26q-112 27 -246 84zM236 1434v4l325 241h4l326 -241v-4l-328 77z" />
    <glyph glyph-name="scircumflex" unicode="&#x15d;" horiz-adv-x="876" 
d="M545 29q64 0 96 31q33 32 33 90q0 86 -97 131q-102 47 -215 92q-112 44 -214 120q-97 72 -97 212q0 163 114 251q113 88 279 88q92 0 168 -22q81 -23 168 -61v-336h-4q-117 180 -216 279q-100 100 -200 100q-65 0 -101 -33t-36 -84q0 -84 94 -123q95 -39 207 -81
q111 -42 207 -116q94 -73 94 -229q0 -167 -104 -262q-105 -96 -270 -96q-117 0 -194 21q-73 20 -177 62v332h4q82 -108 155 -184q69 -72 121 -112q50 -39 99 -55q45 -15 86 -15zM152 1147h-5l289 369h4l289 -369h-4l-287 147z" />
    <glyph glyph-name="Scedilla" unicode="&#x15e;" horiz-adv-x="1122" 
d="M100 90v473h4q68 -145 148 -251q78 -104 155 -167q79 -65 150 -91q73 -27 135 -27q88 0 136 49q49 51 49 133q0 117 -128 177q-136 64 -280 121q-152 60 -280 152t-128 273q0 102 36 181q35 77 100 131q64 53 153 80q93 28 195 28q109 0 222 -25q102 -23 237 -76v-432h-5
q-153 266 -299 380q-145 114 -264 112q-84 0 -130 -48q-46 -47 -46 -120q0 -115 126 -165q188 -74 274 -106q151 -56 275 -151q126 -96 126 -301t-135 -323q-133 -117 -348 -117q-124 0 -232 26q-112 27 -246 84zM561 -10q-8 -6 -14 -16q-4 -7 -4 -15q0 -14 22 -29
q5 -3 14.5 -9.5t17.5 -12t16 -10.5q25 -18 49 -40q22 -21 22 -51q0 -45 -51 -90t-141 -45q-43 0 -81 19q-36 18 -36 53q0 20 9 34q8 12 22 21h20q26 -43 58 -75q27 -27 63 -27q15 0 22 7q9 9 9 17q0 19 -20 37q-22 20 -43 36t-43 36q-19 18 -19 37q0 25 26 51q32 32 76 72h6
z" />
    <glyph glyph-name="scedilla" unicode="&#x15f;" horiz-adv-x="876" 
d="M545 29q64 0 96 31q33 32 33 90q0 86 -97 131q-108 50 -214 92q-114 45 -215 120q-97 72 -97 212q0 163 114 251q113 88 279 88q92 0 168 -22q81 -23 168 -61v-336h-4q-117 180 -216 279q-100 100 -200 100q-65 0 -101 -33t-36 -84q0 -84 94 -123q95 -39 207 -81
q111 -42 207 -116q94 -73 94 -229q0 -167 -104 -262q-105 -96 -270 -96h-5q-4 -4 -6 -10t-2 -11q0 -14 23 -29l48 -32q21 -15 48 -40q23 -21 23 -51q0 -44 -52 -90q-51 -45 -141 -45q-43 0 -81 19q-36 18 -36 53q0 19 10 34q9 14 21 21h21q26 -43 58 -75q27 -27 62 -27
q16 0 23 7q8 8 8 17q0 19 -19 37q-22 20 -43 36t-43 36q-20 18 -20 37q0 25 26 49q9 9 31.5 31t34.5 33q-109 1 -187 23q-78 21 -173 60v332h4q82 -108 155 -184q69 -72 121 -112q50 -39 99 -55q45 -15 86 -15z" />
    <glyph glyph-name="Scaron" unicode="&#x160;" horiz-adv-x="1122" 
d="M100 90v473h4q68 -145 148 -251q78 -104 155 -167q79 -65 150 -91q73 -27 135 -27q88 0 136 49q49 51 49 133q0 117 -128 177q-136 64 -280 121q-152 60 -280 152t-128 273q0 102 36 181q35 77 100 131q64 53 153 80q93 28 195 28q109 0 222 -25q102 -23 237 -76v-432h-5
q-153 266 -299 380q-145 114 -264 112q-84 0 -130 -48q-46 -47 -46 -120q0 -115 126 -165q188 -74 274 -106q151 -56 275 -151q126 -96 126 -301t-135 -323q-133 -117 -348 -117q-124 0 -232 26q-112 27 -246 84zM891 1679v-4l-326 -241h-4l-325 241v4l327 -77z" />
    <glyph glyph-name="scaron" unicode="&#x161;" horiz-adv-x="876" 
d="M545 29q64 0 96 31q33 32 33 90q0 86 -97 131q-102 47 -215 92q-112 44 -214 120q-97 72 -97 212q0 163 114 251q113 88 279 88q92 0 168 -22q81 -23 168 -61v-336h-4q-117 180 -216 279q-100 100 -200 100q-65 0 -101 -33t-36 -84q0 -84 94 -123q95 -39 207 -81
q111 -42 207 -116q94 -73 94 -229q0 -167 -104 -262q-105 -96 -270 -96q-117 0 -194 21q-73 20 -177 62v332h4q82 -108 155 -184q69 -72 121 -112q50 -39 99 -55q45 -15 86 -15zM725 1516h4l-289 -369h-4l-289 369h5l286 -148z" />
    <glyph glyph-name="Tcaron" unicode="&#x164;" horiz-adv-x="1351" 
d="M850 260q0 -82 14 -125q15 -47 39 -74q22 -25 59 -38q41 -14 72 -19v-4h-717v4q33 5 73 19q37 13 59 38t38 74q15 47 15 125v1040h-6q-197 0 -295 -117q-99 -119 -156 -323h-4v471h1270v-471h-4q-57 204 -156 323q-98 117 -295 117h-6v-1040zM1004 1679v-4l-326 -241h-4
l-326 241v4l328 -77z" />
    <glyph glyph-name="tcaron" unicode="&#x165;" horiz-adv-x="741" 
d="M-82 823l528 508h5v-307h331v-205h-331v-424q0 -89 35 -136q36 -48 108 -48q76 0 123 50q48 51 55 171h10q-2 -219 -84 -336q-82 -116 -239 -116q-171 0 -253 101q-83 103 -83 263v475h-205v4zM557 1085h-4l61 369h226z" />
    <glyph glyph-name="Tbar" unicode="&#x166;" horiz-adv-x="1351" 
d="M266 692h236v608h-6q-197 0 -295 -117q-99 -119 -156 -323h-4v471h1270v-471h-4q-57 204 -156 323q-98 117 -295 117h-6v-608h235v-30h-235v-402q0 -82 14 -125q15 -47 39 -74q22 -25 59 -38q41 -14 72 -19v-4h-717v4q33 5 73 19q37 13 59 38t38 74q15 47 15 125v402
h-236v30z" />
    <glyph glyph-name="tbar" unicode="&#x167;" horiz-adv-x="741" 
d="M0 610h123v209h-205v4l528 508h5v-307h331v-205h-331v-209h204v-30h-204v-185q0 -89 35 -136q36 -48 108 -48q76 0 123 50q48 51 55 171h10q-2 -219 -84 -336q-82 -116 -239 -116q-171 0 -253 101q-83 103 -83 263v236h-123v30z" />
    <glyph glyph-name="Utilde" unicode="&#x168;" horiz-adv-x="1335" 
d="M502 547q0 -166 77 -258t240 -92t243 92q79 91 79 258v422q0 101 -22 169q-21 64 -56 102t-80 56q-51 20 -92 31v4h536v-4q-41 -11 -92 -31q-45 -18 -80 -56t-56 -102t-21 -169v-396q0 -303 -138 -449q-136 -144 -374 -144q-239 0 -375 143q-137 145 -137 450v498
q0 79 -15 125q-15 47 -39 74t-58 39q-35 12 -73 18v4h717v-4q-38 -6 -73 -18q-34 -12 -58 -39t-39 -74q-14 -43 -14 -125v-524zM1083 1679q-18 -129 -54 -192q-37 -64 -118 -64q-94 0 -169 30t-150 30q-36 0 -57 -18q-22 -19 -29 -52h-4q21 129 55 192q34 64 117 64
q94 0 169 -30q73 -29 150 -29q38 0 58 17q21 18 28 52h4z" />
    <glyph glyph-name="utilde" unicode="&#x169;" horiz-adv-x="1187" 
d="M123 819h-205v4l533 242v-703q0 -76 24 -116q24 -41 100 -41q38 0 76 18q31 15 86 60v536h-205v4l533 242v-860h205v-4l-533 -242v315q-77 -113 -172 -205q-92 -89 -203 -89q-141 0 -190 88t-49 241v510zM915 1485q-21 -140 -55 -208q-34 -69 -117 -69q-44 0 -89 16
q-46 16 -81 34q-50 25 -75 35q-40 16 -74 16q-36 0 -56 -23t-30 -67h-4q23 137 56 205q35 71 116 71q47 0 89 -15q39 -14 81 -35q46 -23 76 -35q37 -15 73 -15q38 0 57 22q18 21 29 68h4z" />
    <glyph glyph-name="Umacron" unicode="&#x16a;" horiz-adv-x="1335" 
d="M502 547q0 -166 77 -258t240 -92t243 92q79 91 79 258v422q0 101 -22 169q-21 64 -56 102t-80 56q-51 20 -92 31v4h536v-4q-41 -11 -92 -31q-45 -18 -80 -56t-56 -102t-21 -169v-396q0 -303 -138 -449q-136 -144 -374 -144q-239 0 -375 143q-137 145 -137 450v498
q0 79 -15 125q-15 47 -39 74t-58 39q-35 12 -73 18v4h717v-4q-38 -6 -73 -18q-34 -12 -58 -39t-39 -74q-14 -43 -14 -125v-524zM1018 1642v-192h-451v192h451z" />
    <glyph glyph-name="umacron" unicode="&#x16b;" horiz-adv-x="1187" 
d="M123 819h-205v4l533 242v-703q0 -76 24 -116q24 -41 100 -41q38 0 76 18q31 15 86 60v536h-205v4l533 242v-860h205v-4l-533 -242v315q-77 -113 -172 -205q-92 -89 -203 -89q-141 0 -190 88t-49 241v510zM850 1438v-213h-451v213h451z" />
    <glyph glyph-name="Ubreve" unicode="&#x16c;" horiz-adv-x="1335" 
d="M502 547q0 -166 77 -258t240 -92t243 92q79 91 79 258v422q0 101 -22 169q-21 64 -56 102t-80 56q-51 20 -92 31v4h536v-4q-41 -11 -92 -31q-45 -18 -80 -56t-56 -102t-21 -169v-396q0 -303 -138 -449q-136 -144 -374 -144q-239 0 -375 143q-137 145 -137 450v498
q0 79 -15 125q-15 47 -39 74t-58 39q-35 12 -73 18v4h717v-4q-38 -6 -73 -18q-34 -12 -58 -39t-39 -74q-14 -43 -14 -125v-524zM793 1403q-105 0 -170 62q-66 63 -66 194h4q0 -55 71 -79q70 -24 161 -24q89 0 160 24t71 79h4q0 -132 -65 -194t-170 -62z" />
    <glyph glyph-name="ubreve" unicode="&#x16d;" horiz-adv-x="1187" 
d="M123 819h-205v4l533 242v-703q0 -76 24 -116q24 -41 100 -41q38 0 76 18q31 15 86 60v536h-205v4l533 242v-860h205v-4l-533 -242v315q-77 -113 -172 -205q-92 -89 -203 -89q-141 0 -190 88t-49 241v510zM625 1178q-105 0 -170 71q-66 72 -66 226h4q0 -66 71 -95
q69 -28 161 -28q91 0 160 28q71 29 71 95h4q0 -155 -65 -226t-170 -71z" />
    <glyph glyph-name="Uring" unicode="&#x16e;" horiz-adv-x="1335" 
d="M502 547q0 -166 77 -258t240 -92t243 92q79 91 79 258v422q0 101 -22 169q-21 64 -56 102t-80 56q-51 20 -92 31v4h536v-4q-41 -11 -92 -31q-45 -18 -80 -56t-56 -102t-21 -169v-396q0 -303 -138 -449q-136 -144 -374 -144q-239 0 -375 143q-137 145 -137 450v498
q0 79 -15 125q-15 47 -39 74t-58 39q-35 12 -73 18v4h717v-4q-38 -6 -73 -18q-34 -12 -58 -39t-39 -74q-14 -43 -14 -125v-524zM793 1413q-132 0 -203 37q-72 38 -72 106q0 70 72 107q71 37 203 37q131 0 202 -37q72 -37 72 -107q0 -68 -72 -106q-71 -37 -202 -37zM793 1675
q-52 0 -76 -30q-25 -31 -25 -89q0 -57 25 -88q24 -30 76 -30q51 0 75 30q25 31 25 88q0 58 -25 89q-24 30 -75 30z" />
    <glyph glyph-name="uring" unicode="&#x16f;" horiz-adv-x="1187" 
d="M123 819h-205v4l533 242v-703q0 -76 24 -116q24 -41 100 -41q38 0 76 18q31 15 86 60v536h-205v4l533 242v-860h205v-4l-533 -242v315q-77 -113 -172 -205q-92 -89 -203 -89q-141 0 -190 88t-49 241v510zM625 1167q-108 0 -181 43t-73 121t73 121t181 43q107 0 180 -43
q74 -44 74 -121t-74 -121q-73 -43 -180 -43zM625 1470q-38 0 -59 -34t-21 -105q0 -69 21 -104t59 -35q37 0 58 35q22 36 22 104q0 69 -22 105q-21 34 -58 34z" />
    <glyph glyph-name="Uhungarumlaut" unicode="&#x170;" horiz-adv-x="1335" 
d="M502 547q0 -166 77 -258t240 -92t243 92q79 91 79 258v422q0 101 -22 169q-21 64 -56 102t-80 56q-51 20 -92 31v4h536v-4q-41 -11 -92 -31q-45 -18 -80 -56t-56 -102t-21 -169v-396q0 -303 -138 -449q-136 -144 -374 -144q-239 0 -375 143q-137 145 -137 450v498
q0 79 -15 125q-15 47 -39 74t-58 39q-35 12 -73 18v4h717v-4q-38 -6 -73 -18q-34 -12 -58 -39t-39 -74q-14 -43 -14 -125v-524zM612 1434h-4l21 225h266zM936 1434h-4l20 225h267z" />
    <glyph glyph-name="uhungarumlaut" unicode="&#x171;" horiz-adv-x="1187" 
d="M123 819h-205v4l533 242v-703q0 -76 24 -116q24 -41 100 -41q38 0 76 18q31 15 86 60v536h-205v4l533 242v-860h205v-4l-533 -242v315q-77 -113 -172 -205q-92 -89 -203 -89q-141 0 -190 88t-49 241v510zM403 1147h-4l62 369h225zM768 1147h-4l61 369h226z" />
    <glyph glyph-name="Uogonek" unicode="&#x172;" horiz-adv-x="1335" 
d="M502 547q0 -166 77 -258t240 -92t243 92q79 91 79 258v422q0 101 -22 169q-21 64 -56 102t-80 56q-51 20 -92 31v4h536v-4q-41 -11 -92 -31q-45 -18 -80 -56t-56 -102t-21 -169v-396q0 -303 -138 -449q-136 -144 -374 -144q-239 0 -375 143q-137 145 -137 450v498
q0 79 -15 125q-15 47 -39 74t-58 39q-35 12 -73 18v4h717v-4q-38 -6 -73 -18q-34 -12 -58 -39t-39 -74q-14 -43 -14 -125v-524zM637 -113q0 -49 37 -71q38 -23 78 -23q30 0 57 7t49 32h4q-38 -66 -86 -114q-46 -46 -131 -46q-57 0 -100 30t-43 83q0 59 51 107q54 51 111 88
h4q-22 -22 -26 -47q-5 -28 -5 -46z" />
    <glyph glyph-name="uogonek" unicode="&#x173;" horiz-adv-x="1187" 
d="M725 -104q0 -54 38 -78q39 -25 81 -25q30 0 57 7t49 32h4q-38 -66 -86 -114q-46 -46 -131 -46q-57 0 -100 30t-43 83q0 55 46 97q49 44 97 81v311q-77 -113 -172 -205q-92 -89 -203 -89q-141 0 -190 88t-49 241v510h-205v4l533 242v-703q0 -76 24 -116q24 -41 100 -41
q38 0 76 18q31 15 86 60v536h-205v4l533 242v-860h205v-4l-527 -240q-12 -15 -15 -33t-3 -32z" />
    <glyph glyph-name="Wcircumflex" unicode="&#x174;" horiz-adv-x="1601" 
d="M61 1026q-61 156 -103 211q-43 56 -101 90v4h659v-4q-31 -5 -58 -24q-30 -21 -48 -58q-20 -41 -21 -91q-2 -55 25 -126l213 -579l157 446q0 3 1 4t1 4l-47 123q-58 155 -102 211q-45 57 -102 90v4h661v-4q-33 -5 -60 -24q-32 -22 -49 -58q-19 -39 -20 -91q-2 -55 25 -126
l215 -582l155 449q35 100 35 175q0 79 -22 130q-23 54 -63 85q-41 32 -83 42v4h416v-4q-62 -51 -119 -143q-58 -93 -127 -291l-338 -954l-356 915l-322 -915zM539 1434v4l325 241h4l326 -241v-4l-328 77z" />
    <glyph glyph-name="wcircumflex" unicode="&#x175;" horiz-adv-x="1476" 
d="M137 719q-64 155 -114 211t-115 90v4h579v-4q-15 -1 -32 -16q-19 -16 -29 -43q-10 -29 -9 -72q2 -46 23 -103l166 -428l96 230l13 33q6 16 10 30l-27 68q-14 39 -41 98q-24 53 -46 90q-27 46 -52 72q-29 30 -59 41v4h600v-4q-33 -5 -60 -22q-30 -19 -47 -46
q-19 -29 -20 -70q-2 -47 18 -96l166 -428l96 230q42 100 44 180q1 78 -24 130t-69 82q-43 29 -88 40v4h453v-4q-69 -51 -134 -143q-64 -91 -149 -291l-274 -647l-269 667q0 -1 -1.5 -4.5t-2.5 -5.5t-2.5 -5.5t-1.5 -4.5l-274 -647zM530 1147h-4l289 369h4l289 -369h-4
l-287 147z" />
    <glyph glyph-name="Ycircumflex" unicode="&#x176;" horiz-adv-x="1050" 
d="M92 1026q-78 154 -128 210q-52 58 -118 91v4h742v-4q-25 -2 -52 -24q-28 -24 -46 -62q-16 -36 -18 -93q-1 -51 30 -120l209 -473l151 340q41 95 42 170q2 77 -22 131q-23 53 -65 89q-40 34 -80 42v4h467v-4q-36 -26 -72 -59t-73 -82q-33 -44 -77 -120q-37 -65 -85 -173
l-176 -404v-229q0 -82 14 -125q15 -47 39 -74q22 -25 59 -38q41 -14 72 -19v-4h-717v4q33 5 73 19q35 12 58 38q24 27 39 74t15 125v193zM336 1434v4l326 241h4l325 -241v-4l-327 77z" />
    <glyph glyph-name="ycircumflex" unicode="&#x177;" horiz-adv-x="925" 
d="M532 109q-69 -164 -143 -271q-73 -106 -190 -106q-104 0 -154 63q-49 62 -41 144h445l-312 780q-63 157 -113 211q-52 56 -116 90v4h641v-4q-32 -5 -61 -22t-47 -46q-17 -28 -19 -70q-2 -47 18 -96l168 -424l94 226q46 106 47 181t-25 129q-25 51 -70 82q-42 29 -89 40v4
h453v-4q-69 -51 -134 -143q-64 -91 -149 -291zM272 1147h-4l289 369h4l289 -369h-4l-287 147z" />
    <glyph glyph-name="Ydieresis" unicode="&#x178;" horiz-adv-x="1050" 
d="M92 1026q-78 154 -128 210q-52 58 -118 91v4h742v-4q-25 -2 -52 -24q-28 -24 -46 -62q-16 -36 -18 -93q-1 -51 30 -120l209 -473l151 340q41 95 42 170q2 77 -22 131q-23 53 -65 89q-40 34 -80 42v4h467v-4q-36 -26 -72 -59t-73 -82q-33 -44 -77 -120q-37 -65 -85 -173
l-176 -404v-229q0 -82 14 -125q15 -47 39 -74q22 -25 59 -38q41 -14 72 -19v-4h-717v4q33 5 73 19q35 12 58 38q24 27 39 74t15 125v193zM850 1698q64 0 104 -42q41 -43 41 -100q0 -56 -41 -99q-40 -42 -104 -42t-105 42q-40 41 -40 99q0 59 40 100q41 42 105 42zM477 1698
q65 0 105 -42q41 -43 41 -100q0 -56 -41 -99q-40 -42 -105 -42q-63 0 -104 42q-41 43 -41 99q0 57 41 100q41 42 104 42z" />
    <glyph glyph-name="Zacute" unicode="&#x179;" horiz-adv-x="1159" 
d="M20 0v4l717 1296h-180q-222 0 -338 -116q-117 -117 -174 -324h-4v471h1077v-4l-717 -1296h201q222 0 338 116q117 117 174 324h4v-471h-1098zM324 1438l491 241v-204l-491 -41v4z" />
    <glyph glyph-name="zacute" unicode="&#x17a;" horiz-adv-x="989" 
d="M20 0v4l566 989h-29q-222 0 -337 -114q-115 -113 -175 -326h-4v471h907v-4l-565 -989h49q222 0 337 114q115 113 175 326h4v-471h-928zM498 1147h-4l84 369h245z" />
    <glyph glyph-name="Zdotaccent" unicode="&#x17b;" horiz-adv-x="1159" 
d="M20 0v4l717 1296h-180q-222 0 -338 -116q-117 -117 -174 -324h-4v471h1077v-4l-717 -1296h201q222 0 338 116q117 117 174 324h4v-471h-1098zM569 1720q72 0 119 -47t47 -117q0 -69 -47 -116t-119 -47q-71 0 -118 47q-48 48 -48 116q0 69 48 117q47 47 118 47z" />
    <glyph glyph-name="zdotaccent" unicode="&#x17c;" horiz-adv-x="989" 
d="M20 0v4l566 989h-29q-222 0 -337 -114q-115 -113 -175 -326h-4v471h907v-4l-565 -989h49q222 0 337 114q115 113 175 326h4v-471h-928zM496 1495q71 0 118 -47q48 -48 48 -117t-48 -117q-47 -47 -118 -47q-72 0 -119 47t-47 117t47 117t119 47z" />
    <glyph glyph-name="Zcaron" unicode="&#x17d;" horiz-adv-x="1159" 
d="M20 0v4l717 1296h-180q-222 0 -338 -116q-117 -117 -174 -324h-4v471h1077v-4l-717 -1296h201q222 0 338 116q117 117 174 324h4v-471h-1098zM897 1679v-4l-326 -241h-4l-325 241v4l327 -77z" />
    <glyph glyph-name="zcaron" unicode="&#x17e;" horiz-adv-x="989" 
d="M20 0v4l566 989h-29q-222 0 -337 -114q-115 -113 -175 -326h-4v471h907v-4l-565 -989h49q222 0 337 114q115 113 175 326h4v-471h-928zM782 1516h4l-288 -369h-4l-289 369h4l287 -148z" />
    <glyph glyph-name="Aringacute" unicode="&#x1fa;" horiz-adv-x="1210" 
d="M334 4v-4h-467v4q72 53 133 142q65 94 143 292l260 656q-56 109 -121 159t-155 74v4h371l82 205l534 -1231q65 -150 116 -210q48 -57 113 -91v-4h-741v4q40 6 77 27q40 22 62 57q25 39 28 90t-28 125l-45 107h-526q-31 -94 -28 -163q3 -72 30 -121q29 -52 70 -81
q45 -31 92 -41zM444 1006q-6 16 -10 24q-1 2 -10 23l-174 -439h360zM578 1536q-132 0 -203 37q-72 37 -72 106t72 107q71 37 203 37q131 0 202 -37q72 -38 72 -107t-72 -106q-71 -37 -202 -37zM578 1798q-51 0 -76 -31t-25 -88t25 -88q24 -30 76 -30q51 0 75 30q25 31 25 88
t-25 88t-75 31zM332 1847l491 242v-205l-491 -41v4z" />
    <glyph glyph-name="aringacute" unicode="&#x1fb;" horiz-adv-x="1028" 
d="M266 555q-44 -25 -96 -38q-45 -11 -100 -3q-19 51 -10 98q9 49 38 95q27 42 74 88q43 41 96 82q92 70 173 117q86 50 175 50q146 0 207 -76q62 -77 62 -190v-502q0 -87 27 -123t77 -36q39 0 69 21q28 19 50 48l10 -8q-65 -93 -133 -146q-67 -52 -176 -52q-47 0 -90 13
q-47 14 -80 47q-35 35 -57 93q-23 61 -23 154v39q-15 -161 -101 -253q-87 -93 -208 -93q-100 0 -160 45q-59 44 -59 122q0 42 29 70q30 29 100 62l399 186v229q0 97 -31 154q-30 55 -116 55q-110 0 -153 -98q-44 -99 7 -250zM319 246q0 -33 21 -51q22 -19 63 -19
q63 0 110 64q46 62 46 168v22l-111 -53q-65 -32 -97 -60q-32 -27 -32 -71zM551 1167q-107 0 -180 43q-74 44 -74 121t74 121q73 43 180 43t180 -43q74 -44 74 -121t-74 -121q-73 -43 -180 -43zM551 1470q-37 0 -58 -34q-22 -36 -22 -105q0 -68 22 -104q21 -35 58 -35t58 35
q22 36 22 104q0 69 -22 105q-21 34 -58 34zM553 1556h-4l84 369h246z" />
    <glyph glyph-name="AEacute" unicode="&#x1fc;" horiz-adv-x="2109" 
d="M1362 266q0 -143 46 -189t138 -46q103 0 183 47q79 46 138 125q57 77 97 180q37 96 59 211h5v-594h-1199v4q33 5 73 19q37 13 59 38t38 74q15 46 15 125v88h-660q-53 -66 -69 -124q-17 -59 -5 -103q13 -47 43 -76q33 -31 74 -41l-2 -4h-528l2 4q92 47 216 140
q113 85 259 235l670 692q0 79 -15 125q-16 49 -38 74q-24 27 -59 39t-73 18v4h1199v-471h-5q-60 213 -175 326q-116 114 -337 114h-149v-579h33q69 0 130 28q58 27 100 72t69 105t39 123h4v-687h-4q-12 63 -39 123t-69 105q-44 47 -100 73q-59 27 -130 27h-33v-424zM549 553
h465v481zM1069 1438l492 241v-204l-492 -41v4z" />
    <glyph glyph-name="aeacute" unicode="&#x1fd;" horiz-adv-x="1513" 
d="M1108 1044q162 0 255 -66q92 -65 103 -159h-632q-10 -35 -12 -58q-3 -31 -3 -67q0 -211 91 -309t231 -98q137 0 232 89t110 283h10q-1 -149 -29 -277q-27 -128 -82 -215q-56 -89 -144 -138t-214 -49q-180 0 -310 111q-130 110 -151 315v-7q0 -182 -92 -301
q-91 -118 -221 -118q-100 0 -160 45q-59 44 -59 122q0 42 29 70q30 29 100 62l399 186v229q0 97 -31 154q-30 55 -116 55q-110 0 -153 -98q-44 -99 7 -250q-44 -25 -96 -38q-45 -11 -100 -3q-19 51 -10 98q9 49 38 95q27 42 74 88q43 41 96 82q92 70 173 117q86 50 175 50
q77 0 124 -20q51 -22 83 -55q60 36 135 56q70 19 150 19zM1042 1008q-68 0 -121 -41q-52 -40 -79 -117h264q26 0 42 8q15 8 15 35q0 42 -26 78q-27 37 -95 37zM319 246q0 -33 21 -51q22 -19 63 -19q64 0 111 74t47 174v3v3l-112 -53q-67 -34 -98 -60q-32 -27 -32 -71z
M778 1147h-4l84 369h246z" />
    <glyph glyph-name="Oslashacute" unicode="&#x1fe;" horiz-adv-x="1435" 
d="M41 0l168 178q-81 87 -124 204q-44 120 -44 257q0 157 55 288q54 129 151 226q92 92 223 146q129 53 271 53q141 0 259 -45q119 -45 204 -127l144 151h47l-168 -176q82 -91 124 -206q44 -120 44 -259q0 -155 -56 -287q-55 -131 -150 -225q-92 -92 -223 -146
q-126 -52 -274 -52q-140 0 -256 46q-120 48 -203 128l-145 -154h-47zM686 1323q-128 0 -191 -147t-63 -449q0 -87 7 -164q8 -84 22 -157l506 559q-33 148 -102 254q-68 104 -179 104zM1004 602q0 76 -8 164q-9 95 -21 158l-504 -561q33 -148 102 -251q69 -104 177 -104
q133 0 193 148q61 149 61 446zM473 1438l492 241v-204l-492 -41v4z" />
    <glyph glyph-name="oslashacute" unicode="&#x1ff;" horiz-adv-x="1114" 
d="M31 0l129 135q-60 66 -95 159q-34 90 -34 198q0 122 43 223q45 105 116 175q75 74 175 114q99 40 210 40q110 0 200 -34q89 -34 157 -97l104 111h47l-129 -135q62 -67 96 -159q33 -88 33 -198q0 -122 -43 -223q-45 -105 -116 -175q-76 -75 -174 -114q-99 -40 -213 -40
q-108 0 -198 34q-88 33 -157 99l-104 -113h-47zM532 1016q-74 0 -112 -112q-37 -110 -37 -343q0 -51 3 -105q3 -56 9 -106l318 363q-22 128 -64 214q-44 89 -117 89zM731 463q0 51 -3 103q-3 53 -9 104l-318 -361q21 -123 65 -213q43 -88 116 -88q77 0 113 112
q36 111 36 343zM559 1147h-4l84 369h246z" />
    <glyph glyph-name="Scommaaccent" unicode="&#x218;" horiz-adv-x="1122" 
d="M100 90v473h4q68 -145 148 -251q78 -104 155 -167q79 -65 150 -91q73 -27 135 -27q88 0 136 49q49 51 49 133q0 117 -128 177q-136 64 -280 121q-152 60 -280 152t-128 273q0 102 36 181q35 77 100 131q64 53 153 80q93 28 195 28q109 0 222 -25q102 -23 237 -76v-432h-5
q-153 266 -299 380q-145 114 -264 112q-84 0 -130 -48q-46 -47 -46 -120q0 -115 126 -165q188 -74 274 -106q151 -56 275 -151q126 -96 126 -301t-135 -323q-133 -117 -348 -117q-124 0 -232 26q-112 27 -246 84zM362 -410h-4l82 287h226z" />
    <glyph glyph-name="scommaaccent" unicode="&#x219;" horiz-adv-x="876" 
d="M545 29q64 0 96 31q33 32 33 90q0 86 -97 131q-102 47 -215 92q-112 44 -214 120q-97 72 -97 212q0 163 114 251q113 88 279 88q92 0 168 -22q81 -23 168 -61v-336h-4q-117 180 -216 279q-100 100 -200 100q-65 0 -101 -33t-36 -84q0 -84 94 -123q95 -39 207 -81
q111 -42 207 -116q94 -73 94 -229q0 -167 -104 -262q-105 -96 -270 -96q-117 0 -194 21q-73 20 -177 62v332h4q82 -108 155 -184q69 -72 121 -112q50 -39 99 -55q45 -15 86 -15zM238 -410h-5l82 287h226z" />
    <glyph glyph-name="Tcommaaccent" unicode="&#x21a;" horiz-adv-x="1351" 
d="M850 260q0 -82 14 -125q15 -47 39 -74q22 -25 59 -38q41 -14 72 -19v-4h-717v4q33 5 73 19q37 13 59 38t38 74q15 47 15 125v1040h-6q-197 0 -295 -117q-99 -119 -156 -323h-4v471h1270v-471h-4q-57 204 -156 323q-98 117 -295 117h-6v-1040zM475 -410h-4l82 287h225z
" />
    <glyph glyph-name="tcommaaccent" unicode="&#x21b;" horiz-adv-x="741" 
d="M-82 823l528 508h5v-307h331v-205h-331v-424q0 -89 35 -136q36 -48 108 -48q76 0 123 50q48 51 55 171h10q-2 -219 -84 -336q-82 -116 -239 -116q-171 0 -253 101q-83 103 -83 263v475h-205v4zM279 -410h-5l82 287h226z" />
    <glyph glyph-name="dotlessj" unicode="&#x237;" horiz-adv-x="573" 
d="M133 29v790h-205v4l533 242v-983q0 -90 -27 -152t-85 -105q-61 -45 -152 -80q-90 -34 -228 -73v4q57 38 90 69q33 32 50 70q15 34 20 88q4 44 4 126z" />
    <glyph glyph-name="circumflex" unicode="&#x2c6;" 
d="M225 1147h-4l289 369h4l289 -369h-4l-287 147z" />
    <glyph glyph-name="caron" unicode="&#x2c7;" 
d="M799 1516h4l-289 -369h-4l-289 369h4l287 -148z" />
    <glyph glyph-name="breve" unicode="&#x2d8;" 
d="M512 1178q-105 0 -170 71q-66 72 -66 226h5q0 -67 70 -95q69 -28 161 -28t161 28q70 28 70 95h5q0 -154 -66 -226q-65 -71 -170 -71z" />
    <glyph glyph-name="dotaccent" unicode="&#x2d9;" 
d="M512 1495q72 0 119 -47t47 -117t-47 -117t-119 -47t-119 47t-47 117t47 117t119 47z" />
    <glyph glyph-name="ring" unicode="&#x2da;" 
d="M512 1167q-107 0 -180 43q-74 44 -74 121t74 121q73 43 180 43t180 -43q74 -44 74 -121t-74 -121q-73 -43 -180 -43zM512 1470q-37 0 -58 -34q-22 -36 -22 -105q0 -68 22 -104q21 -35 58 -35t58 35q22 36 22 104q0 69 -22 105q-21 34 -58 34z" />
    <glyph glyph-name="ogonek" unicode="&#x2db;" 
d="M473 -106q0 -52 35 -76q36 -25 74 -25q30 0 57 7t49 32h4q-38 -66 -86 -114q-46 -46 -131 -46q-55 0 -100 31q-43 30 -43 86q0 71 59 118q75 60 119 93h4q-26 -29 -33 -54q-8 -29 -8 -52z" />
    <glyph glyph-name="tilde" unicode="&#x2dc;" 
d="M803 1485q-21 -140 -55 -208q-34 -69 -117 -69q-44 0 -89 16q-46 16 -81 34q-46 23 -76 35q-40 16 -74 16q-36 0 -56 -23t-30 -67h-4q22 134 57 205t115 71q47 0 89 -15q39 -14 81 -35q46 -23 76 -35q37 -15 74 -15t56 22t30 68h4z" />
    <glyph glyph-name="hungarumlaut" unicode="&#x2dd;" 
d="M291 1147h-4l61 369h225zM655 1147h-4l62 369h225z" />
    <glyph glyph-name="Wgrave" unicode="&#x1e80;" horiz-adv-x="1601" 
d="M61 1026q-61 156 -103 211q-43 56 -101 90v4h659v-4q-31 -5 -58 -24q-30 -21 -48 -58q-20 -41 -21 -91q-2 -55 25 -126l213 -579l157 446q0 3 1 4t1 4l-47 123q-58 155 -102 211q-45 57 -102 90v4h661v-4q-33 -5 -60 -24q-32 -22 -49 -58q-19 -39 -20 -91q-2 -55 25 -126
l215 -582l155 449q35 100 35 175q0 79 -22 130q-23 54 -63 85q-41 32 -83 42v4h416v-4q-62 -51 -119 -143q-58 -93 -127 -291l-338 -954l-356 915l-322 -915zM1110 1438v-4l-492 41v204z" />
    <glyph glyph-name="wgrave" unicode="&#x1e81;" horiz-adv-x="1476" 
d="M137 719q-64 155 -114 211t-115 90v4h579v-4q-15 -1 -32 -16q-19 -16 -29 -43q-10 -29 -9 -72q2 -46 23 -103l166 -428l96 230l13 33q6 16 10 30l-27 68q-14 39 -41 98q-24 53 -46 90q-27 46 -52 72q-29 30 -59 41v4h600v-4q-33 -5 -60 -22q-30 -19 -47 -46
q-19 -29 -20 -70q-2 -47 18 -96l166 -428l96 230q42 100 44 180q1 78 -24 130t-69 82q-43 29 -88 40v4h453v-4q-69 -51 -134 -143q-64 -91 -149 -291l-274 -647l-269 667q0 -1 -1.5 -4.5t-2.5 -5.5t-2.5 -5.5t-1.5 -4.5l-274 -647zM815 1147l-326 369h246l84 -369h-4z" />
    <glyph glyph-name="Wacute" unicode="&#x1e82;" horiz-adv-x="1601" 
d="M61 1026q-61 156 -103 211q-43 56 -101 90v4h659v-4q-31 -5 -58 -24q-30 -21 -48 -58q-20 -41 -21 -91q-2 -55 25 -126l213 -579l157 446q0 3 1 4t1 4l-47 123q-58 155 -102 211q-45 57 -102 90v4h661v-4q-33 -5 -60 -24q-32 -22 -49 -58q-19 -39 -20 -91q-2 -55 25 -126
l215 -582l155 449q35 100 35 175q0 79 -22 130q-23 54 -63 85q-41 32 -83 42v4h416v-4q-62 -51 -119 -143q-58 -93 -127 -291l-338 -954l-356 915l-322 -915zM621 1438l491 241v-204l-491 -41v4z" />
    <glyph glyph-name="wacute" unicode="&#x1e83;" horiz-adv-x="1476" 
d="M137 719q-64 155 -114 211t-115 90v4h579v-4q-15 -1 -32 -16q-19 -16 -29 -43q-10 -29 -9 -72q2 -46 23 -103l166 -428l96 230l13 33q6 16 10 30l-27 68q-14 39 -41 98q-24 53 -46 90q-27 46 -52 72q-29 30 -59 41v4h600v-4q-33 -5 -60 -22q-30 -19 -47 -46
q-19 -29 -20 -70q-2 -47 18 -96l166 -428l96 230q42 100 44 180q1 78 -24 130t-69 82q-43 29 -88 40v4h453v-4q-69 -51 -134 -143q-64 -91 -149 -291l-274 -647l-269 667q0 -1 -1.5 -4.5t-2.5 -5.5t-2.5 -5.5t-1.5 -4.5l-274 -647zM819 1147h-4l84 369h246z" />
    <glyph glyph-name="Wdieresis" unicode="&#x1e84;" horiz-adv-x="1601" 
d="M61 1026q-61 156 -103 211q-43 56 -101 90v4h659v-4q-31 -5 -58 -24q-30 -21 -48 -58q-20 -41 -21 -91q-2 -55 25 -126l213 -579l157 446q0 3 1 4t1 4l-47 123q-58 155 -102 211q-45 57 -102 90v4h661v-4q-33 -5 -60 -24q-32 -22 -49 -58q-19 -39 -20 -91q-2 -55 25 -126
l215 -582l155 449q35 100 35 175q0 79 -22 130q-23 54 -63 85q-41 32 -83 42v4h416v-4q-62 -51 -119 -143q-58 -93 -127 -291l-338 -954l-356 915l-322 -915zM1053 1698q63 0 104 -42q41 -43 41 -100q0 -56 -41 -99q-41 -42 -104 -42q-65 0 -105 42q-41 43 -41 99
q0 57 41 100q40 42 105 42zM680 1698q64 0 104 -42q41 -43 41 -100q0 -56 -41 -99q-40 -42 -104 -42t-105 42q-40 41 -40 99q0 59 40 100q41 42 105 42z" />
    <glyph glyph-name="wdieresis" unicode="&#x1e85;" horiz-adv-x="1476" 
d="M137 719q-64 155 -114 211t-115 90v4h579v-4q-15 -1 -32 -16q-19 -16 -29 -43q-10 -29 -9 -72q2 -46 23 -103l166 -428l96 230l13 33q6 16 10 30l-27 68q-14 39 -41 98q-24 53 -46 90q-27 46 -52 72q-29 30 -59 41v4h600v-4q-33 -5 -60 -22q-30 -19 -47 -46
q-19 -29 -20 -70q-2 -47 18 -96l166 -428l96 230q42 100 44 180q1 78 -24 130t-69 82q-43 29 -88 40v4h453v-4q-69 -51 -134 -143q-64 -91 -149 -291l-274 -647l-269 667q0 -1 -1.5 -4.5t-2.5 -5.5t-2.5 -5.5t-1.5 -4.5l-274 -647zM1004 1473q64 0 104 -42q41 -43 41 -100
q0 -56 -41 -99q-40 -42 -104 -42t-105 42q-41 43 -41 99q0 57 41 100q41 42 105 42zM631 1473q63 0 104 -42q41 -43 41 -100q0 -56 -41 -99q-41 -42 -104 -42q-65 0 -105 42q-41 43 -41 99q0 57 41 100q40 42 105 42z" />
    <glyph glyph-name="Ygrave" unicode="&#x1ef2;" horiz-adv-x="1050" 
d="M92 1026q-78 154 -128 210q-52 58 -118 91v4h742v-4q-25 -2 -52 -24q-28 -24 -46 -62q-16 -36 -18 -93q-1 -51 30 -120l209 -473l151 340q41 95 42 170q2 77 -22 131q-23 53 -65 89q-40 34 -80 42v4h467v-4q-36 -26 -72 -59t-73 -82q-33 -44 -77 -120q-37 -65 -85 -173
l-176 -404v-229q0 -82 14 -125q15 -47 39 -74q22 -25 59 -38q41 -14 72 -19v-4h-717v4q33 5 73 19q35 12 58 38q24 27 39 74t15 125v193zM907 1438v-4l-491 41v204z" />
    <glyph glyph-name="ygrave" unicode="&#x1ef3;" horiz-adv-x="925" 
d="M532 109q-69 -164 -143 -271q-73 -106 -190 -106q-104 0 -154 63q-49 62 -41 144h445l-312 780q-63 157 -113 211q-52 56 -116 90v4h641v-4q-32 -5 -61 -22t-47 -46q-17 -28 -19 -70q-2 -47 18 -96l168 -424l94 226q46 106 47 181t-25 129q-25 51 -70 82q-42 29 -89 40v4
h453v-4q-69 -51 -134 -143q-64 -91 -149 -291zM557 1147l-326 369h246l84 -369h-4z" />
    <glyph glyph-name="endash" unicode="&#x2013;" horiz-adv-x="983" 
d="M82 651h819v-30h-819v30z" />
    <glyph glyph-name="emdash" unicode="&#x2014;" horiz-adv-x="1802" 
d="M82 651h1638v-30h-1638v30z" />
    <glyph glyph-name="quoteleft" unicode="&#x2018;" horiz-adv-x="567" 
d="M358 647h-307l357 684h6z" />
    <glyph glyph-name="quoteright" unicode="&#x2019;" horiz-adv-x="567" 
d="M209 1331h307l-356 -684h-6z" />
    <glyph glyph-name="quotesinglbase" unicode="&#x201a;" horiz-adv-x="567" 
d="M168 377h307l-356 -684h-6z" />
    <glyph glyph-name="quotedblleft" unicode="&#x201c;" horiz-adv-x="976" 
d="M358 647h-307l357 684h6zM768 647h-307l356 684h6z" />
    <glyph glyph-name="quotedblright" unicode="&#x201d;" horiz-adv-x="976" 
d="M209 1331h307l-356 -684h-6zM618 1331h308l-357 -684h-6z" />
    <glyph glyph-name="quotedblbase" unicode="&#x201e;" horiz-adv-x="976" 
d="M168 377h307l-356 -684h-6zM578 377h307l-357 -684h-6z" />
    <glyph glyph-name="dagger" unicode="&#x2020;" horiz-adv-x="757" 
d="M504 1331l-125 -338l-125 338h250zM717 868l-338 125l338 125v-250zM41 868v250l338 -125zM504 655l-123 -962h-4l-123 962l125 338z" />
    <glyph glyph-name="daggerdbl" unicode="&#x2021;" horiz-adv-x="757" 
d="M504 1331l-125 -338l-125 338h250zM717 868l-338 125l338 125v-250zM41 868v250l338 -125zM504 655v-286l-125 -338l-125 338v286l125 338zM717 156v-250l-338 125zM41 156l338 -125l-338 -125v250zM504 -307h-250l125 338z" />
    <glyph glyph-name="bullet" unicode="&#x2022;" 
d="M512 1044q181 0 295 -115q115 -117 115 -294t-115 -294q-114 -116 -295 -116t-295 116q-115 117 -115 294t115 294q114 115 295 115z" />
    <glyph glyph-name="triangularbullet" unicode="&#x2023;" 
d="M307 1106l615 -471l-615 -471v942z" />
    <glyph glyph-name="ellipsis" unicode="&#x2026;" horiz-adv-x="1445" 
d="M268 -20q-81 0 -134 53q-52 52 -52 131t52 131q53 53 134 53t134 -53t53 -131t-53 -131t-134 -53zM723 -20q-81 0 -134 53q-52 52 -52 131t52 131q53 53 134 53t134 -53q52 -52 52 -131t-52 -131q-53 -53 -134 -53zM1178 -20q-82 0 -135 53q-52 52 -52 131t52 131
q53 53 135 53q81 0 134 -53q52 -52 52 -131t-52 -131q-53 -53 -134 -53z" />
    <glyph glyph-name="guilsinglleft" unicode="&#x2039;" horiz-adv-x="569" 
d="M508 1065l-148 -451l148 -450h-6l-441 450l441 451h6z" />
    <glyph glyph-name="guilsinglright" unicode="&#x203a;" horiz-adv-x="569" 
d="M61 1065h7l440 -451l-440 -450h-7l148 450z" />
    <glyph glyph-name="Euro" unicode="&#x20ac;" horiz-adv-x="1050" 
d="M41 819h115q37 240 185 386q149 147 366 147q169 0 252 -55q81 -54 81 -128q0 -46 -20 -85t-53 -72h-17q-77 177 -130 248q-49 65 -113 65q-41 0 -79 -25q-37 -25 -64 -81q-29 -60 -46 -156q-18 -99 -24 -244h315v-31h-315q-2 -38 -2 -59v-63v-64q0 -21 2 -59h315v-31
h-315q6 -145 24 -244q17 -94 46 -155q27 -57 64 -82q38 -25 79 -25q63 0 113 66q54 72 130 247h17q33 -33 53 -72t20 -85q0 -74 -81 -128t-252 -54q-216 0 -365 146q-148 145 -186 386h-115v31h111q-6 38 -7 59q-2 40 -2 64q0 23 2 63q1 21 7 59h-111v31z" />
    <glyph glyph-name="servicemark" unicode="&#x2120;" horiz-adv-x="1650" 
d="M82 659v263h4q77 -163 162 -227t151 -64q47 0 74 27t27 73q0 63 -69 96q-77 37 -150 66q-83 33 -151 82q-69 49 -69 147q0 110 75 170t190 60q61 0 123 -14q63 -14 129 -40v-237h-5q-84 144 -159 203q-77 61 -142 59q-44 0 -70 -27q-26 -28 -26 -65q0 -61 68 -88t147 -57
q83 -31 148 -82q67 -52 67 -164q0 -110 -72 -175q-73 -65 -190 -65q-67 0 -128 13q-63 14 -134 46zM780 811v455q-22 26 -51 40q-28 13 -74 21v4h355l178 -430l172 430h311v-4q-39 -7 -70 -32q-30 -24 -30 -105v-434q0 -84 30 -107q32 -24 70 -31v-4h-428v4q39 7 71 31
q29 22 29 107v463l-253 -637l-254 585q-2 6 -7 15.5t-6 12.5q-6 13 -12 24v-408q0 -109 42 -144q41 -34 93 -49v-4h-301v4q52 15 93 49q42 35 42 144z" />
    <glyph glyph-name="trademark" unicode="&#x2122;" horiz-adv-x="1814" 
d="M944 811v455q-22 26 -51 40q-28 13 -74 21v4h355l178 -430l172 430h311v-4q-40 -7 -71 -32q-29 -23 -29 -105v-434q0 -85 29 -107q32 -24 71 -31v-4h-428v4q39 7 71 31q29 22 29 107v463l-254 -637l-254 585q-4 10 -12 28q-6 13 -12 24v-408q0 -109 42 -144
q41 -34 93 -49v-4h-301v4q52 15 93 49q42 35 42 144zM516 758q0 -82 30 -106q29 -23 70 -31v-7h-428v7q42 8 71 31q30 24 30 106v547h-2q-105 0 -158 -62q-55 -64 -84 -166h-4v254h723v-254h-4q-28 103 -83 166q-54 62 -159 62h-2v-547z" />
    <glyph glyph-name="minus" unicode="&#x2212;" horiz-adv-x="839" 
d="M41 651h758v-30h-758v30z" />
    <glyph glyph-name="infinity" unicode="&#x221e;" horiz-adv-x="1224" 
d="M932 881q107 0 180 -71q72 -70 72 -175t-72 -175q-73 -71 -180 -71q-120 0 -193 64q-70 61 -127 143q-58 -81 -129 -143q-73 -64 -190 -64q-107 0 -180 71q-72 70 -72 175t72 175q73 71 180 71q117 0 190 -64q71 -62 129 -143q57 82 127 143q73 64 193 64zM928 840
q-103 0 -169 -64q-65 -63 -120 -141q55 -78 120 -141q66 -64 169 -64q92 0 151 58q60 58 60 147q0 87 -60 146q-61 59 -151 59zM86 635q0 -89 59 -147t152 -58q103 0 169 64q64 63 120 141q-56 78 -120 141q-66 64 -169 64q-91 0 -152 -59q-59 -58 -59 -146z" />
    <glyph glyph-name="approxequal" unicode="&#x2248;" horiz-adv-x="839" 
d="M612 707q70 0 111 45q41 46 41 149v10h35v-10q0 -114 -47 -170q-46 -55 -142 -55q-65 0 -111 34q-50 37 -86 73q-39 40 -83 74q-43 34 -103 34q-69 0 -110 -45q-41 -46 -41 -150v-10h-35v10q0 114 47 170t141 56q66 0 112 -34q47 -35 86 -74q40 -39 83 -74
q42 -33 102 -33zM612 379q70 0 111 45q41 46 41 149v11h35v-11q0 -114 -47 -170q-46 -55 -142 -55q-65 0 -111 34q-47 34 -86 74q-35 35 -83 73q-43 34 -103 34q-69 0 -110 -45q-41 -46 -41 -149v-11h-35v11q0 114 47 170q46 55 141 55q66 0 112 -34q47 -35 86 -74
q35 -35 83 -73q43 -34 102 -34z" />
    <glyph glyph-name="notequal" unicode="&#x2260;" horiz-adv-x="839" 
d="M41 487h250l254 297h-504v31h530l181 209h47l-181 -209h181v-31h-207l-254 -297h461v-30h-488l-182 -211h-47l182 211h-223v30z" />
    <glyph glyph-name="lessequal" unicode="&#x2264;" horiz-adv-x="839" 
d="M41 631v24l758 389v-34l-717 -367l717 -367v-34zM41 31h758v-31h-758v31z" />
    <glyph glyph-name="greaterequal" unicode="&#x2265;" horiz-adv-x="839" 
d="M799 631l-758 -389v34l717 367l-717 367v34l758 -389v-24zM799 31v-31h-758v31h758z" />
    <glyph glyph-name="fisheye" unicode="&#x25c9;" horiz-adv-x="1712" 
d="M856 1290q142 0 262 -49q122 -49 208 -136q86 -86 136 -208q49 -120 49 -262t-49 -262q-50 -122 -136 -208q-86 -87 -208 -136q-120 -49 -262 -49t-262 49q-122 50 -208 136q-86 87 -136 208q-49 120 -49 262t49 262q50 122 136 208q86 87 208 136q120 49 262 49z
M856 1257q-134 0 -249 -47q-111 -45 -195 -129q-81 -81 -128 -196q-46 -113 -46 -250t46 -250q48 -117 128 -197q84 -84 195 -129q115 -47 249 -47t249 47q111 45 195 129q80 80 128 197q47 115 47 250t-47 250t-128 196q-84 84 -195 129q-115 47 -249 47zM856 1044
q181 0 295 -115q115 -117 115 -294t-115 -294q-114 -116 -295 -116t-295 116q-115 117 -115 294t115 294q114 115 295 115z" />
    <glyph glyph-name="bullseye" unicode="&#x25ce;" horiz-adv-x="1712" 
d="M856 1290q142 0 262 -49q122 -49 208 -136q86 -86 136 -208q49 -120 49 -262t-49 -262q-50 -122 -136 -208q-86 -87 -208 -136q-120 -49 -262 -49t-262 49q-122 50 -208 136q-86 87 -136 208q-49 120 -49 262t49 262q50 122 136 208q86 87 208 136q120 49 262 49z
M856 1257q-134 0 -249 -47q-111 -45 -195 -129q-81 -81 -128 -196q-46 -113 -46 -250t46 -250q48 -117 128 -197q84 -84 195 -129q115 -47 249 -47t249 47q111 45 195 129q80 80 128 197q47 115 47 250t-47 250t-128 196q-84 84 -195 129q-115 47 -249 47zM856 1044
q181 0 295 -115q115 -117 115 -294t-115 -294q-114 -116 -295 -116t-295 116q-115 117 -115 294t115 294q114 115 295 115zM856 1012q-163 0 -268 -108t-105 -269t105 -269t268 -108t268 108t105 269t-105 269t-268 108z" />
    <glyph glyph-name="openbullet" unicode="&#x25e6;" 
d="M512 1044q181 0 295 -115q115 -117 115 -294t-115 -294q-114 -116 -295 -116t-295 116q-115 117 -115 294t115 294q114 115 295 115zM512 1012q-163 0 -268 -108t-105 -269t105 -269t268 -108t268 108t105 269t-105 269t-268 108z" />
    <glyph glyph-name="commaaccent" unicode="&#xf6c3;" 
d="M311 -410h-4l82 287h225z" />
    <glyph glyph-name="uniF8FF" unicode="&#xf8ff;" horiz-adv-x="1447" 
d="M109 326q162 -46 300 -52q142 -6 281 27q-138 88 -263 214q-119 120 -218 251l16 12q85 -118 205 -248q109 -118 254 -215q-76 168 -127 345q-53 186 -80 389l21 2q24 -194 74 -380q50 -184 122 -354q8 237 45 471q39 242 88 459l23 -6q-56 -229 -94 -469
q-35 -220 -51 -463q60 70 123 168q62 96 109 185q56 106 91 190q48 113 72 186l18 -6q-29 -87 -74 -189q-46 -103 -94 -192q-48 -90 -111 -182q-60 -89 -126 -162q149 39 300 124q148 83 318 216l15 -14q-159 -127 -320 -214q-155 -84 -311 -124q111 -68 256 -102
q151 -36 299 -46l-2 -20q-148 7 -288 47q-141 40 -243 98q15 -15 25 -41q9 -24 14 -59q11 -79 -1 -115q-12 -38 -44 -39q-32 -4 -55 29q-22 33 -33 111q-6 49 3 83q9 33 28 46q-145 -31 -284 -25q-142 6 -288 45zM702 293h-2h2z" />
    <glyph glyph-name="glyph1" horiz-adv-x="0" 
 />
    <glyph glyph-name="CR" 
 />
    <glyph glyph-name="word_joiner" horiz-adv-x="409" 
 />
    <glyph glyph-name="em_space" horiz-adv-x="2048" 
 />
    <glyph glyph-name="en_space" 
 />
    <glyph glyph-name="threeperem_space" horiz-adv-x="681" 
 />
    <glyph glyph-name="fourperem_space" horiz-adv-x="512" 
 />
    <glyph glyph-name="thin_space" horiz-adv-x="256" 
 />
    <glyph glyph-name="hair_space" horiz-adv-x="204" 
 />
    <glyph glyph-name="figure_space" horiz-adv-x="1228" 
 />
    <glyph glyph-name="at.cap" horiz-adv-x="1443" 
d="M1044 270q-47 0 -97 11q-52 11 -86 36q-37 26 -61 75q-24 48 -24 124v27q-12 -126 -81 -199q-69 -74 -165 -74q-82 0 -129 36t-47 100q0 32 24 55q23 22 79 49l319 147v185q0 80 -23 123q-24 45 -94 45q-87 0 -121 -79q-34 -78 5 -200q-42 -24 -78 -31q-41 -8 -80 -2
q-28 79 25 154q52 74 135 135q64 52 138 95q68 40 140 40q117 0 166 -61t49 -152v-401q0 -75 32 -109q31 -32 87 -32q82 0 142 100q61 102 61 278q0 124 -44 233q-42 104 -124 186q-79 79 -192 123q-112 44 -244 44q-144 0 -270 -50q-123 -49 -213 -139t-139 -212
q-50 -124 -50 -268q0 -146 46 -266q47 -122 130 -210q82 -87 207 -137q122 -49 274 -49q94 0 173 20q84 21 153 56l10 -19q-68 -35 -156 -57q-81 -20 -180 -20q-155 0 -282 51t-214 141t-135 216q-49 129 -49 274q0 147 53 276q53 128 143 218t219 143t280 53q132 0 249 -44
q115 -44 198 -123q83 -80 131 -192t48 -248q0 -116 -26 -201q-28 -92 -73 -150q-48 -62 -107 -92q-62 -32 -132 -32zM586 483q0 -26 16 -41q15 -14 51 -14q51 0 87 51t36 133v17l-88 -41q-56 -30 -77 -47q-25 -21 -25 -58z" />
    <glyph glyph-name="T_h" horiz-adv-x="2293" 
d="M1556 240q0 -72 12 -116q13 -49 30 -69q20 -24 46 -35q23 -9 56 -16q33 7 56 16q25 10 45 35q18 22 31 69q11 40 11 116v422q0 76 -24 116q-24 41 -101 41q-38 0 -76 -18q-31 -15 -86 -60v-501zM850 260q0 -82 14 -125q15 -47 39 -74q22 -25 59 -38q41 -14 72 -19v-4
h-717v4q33 5 73 19q37 13 59 38t38 74q15 47 15 125v1040h-6q-197 0 -295 -117q-99 -119 -156 -323h-4v471h983l532 242v-823q75 110 173 205q92 89 202 89q142 0 191 -88t49 -241v-475q0 -76 11 -116q13 -47 31 -69q20 -25 45 -35q23 -9 56 -16v-4h-1229v4q35 7 57 16
q25 10 45 35q18 22 31 69q11 40 11 116v1060h-379v-1040z" />
    <glyph glyph-name="w_w_w" horiz-adv-x="3129" 
d="M137 719q-64 155 -114 211t-115 90v4h579v-4q-15 -1 -32 -16q-19 -16 -29 -43q-10 -29 -9 -72q2 -46 23 -103l166 -428l96 230l13 33q6 16 10 30l-27 68q-14 39 -41 98q-24 53 -46 90q-27 46 -52 72q-29 30 -59 41v4h2253v-4q-33 -5 -60 -22q-30 -19 -47 -46
q-19 -29 -20 -70q-2 -47 18 -96l166 -428l96 230q42 100 44 180q1 78 -24 130t-69 82q-43 29 -88 40v4h453v-4q-71 -53 -135 -143q-62 -87 -148 -291l-275 -647l-268 667q0 -1 -1.5 -4.5t-2.5 -5.5t-2.5 -5.5t-1.5 -4.5l-274 -647l-269 667q0 -1 -1.5 -4.5t-2.5 -5.5
t-2.5 -5.5t-1.5 -4.5l-274 -647l-269 667q0 -1 -1.5 -4.5t-2.5 -5.5t-2.5 -5.5t-1.5 -4.5l-274 -647l-269 667q0 -1 -1.5 -4.5t-2.5 -5.5t-2.5 -5.5t-1.5 -4.5l-274 -647zM1249 719q-34 88 -80 176t-100 117q-54 -19 -84 -75q-31 -58 6 -151l166 -428l96 230l13 33
q6 16 10 30zM1800 719q-34 88 -80 176t-100 117q-54 -19 -84 -75q-31 -58 6 -151l166 -428l96 230l13 33q6 16 10 30zM2351 719q-34 88 -80 176t-100 117q-54 -19 -84 -75q-31 -58 6 -151l166 -428l96 230l13 33q6 16 10 30z" />
    <glyph glyph-name="fi.cap" horiz-adv-x="1853" 
d="M545 629h-33v-369q0 -115 41 -173q40 -56 164 -83v-4h-737v4q31 5 72 19q37 13 59 38q24 27 39 74q14 43 14 125v811q0 82 -14 125q-15 47 -39 74t-59 39q-36 12 -72 18v4h1157v-471h-4q-60 212 -176 326q-115 114 -336 114h-109v-641h33q69 0 130 28q56 26 100 73
q43 46 69 104q27 60 39 123h4v-686h-4q-12 63 -39 123q-26 58 -69 104q-44 47 -100 73q-61 28 -130 28zM1690 260q0 -82 14 -125q15 -47 39 -74q23 -26 58 -38q40 -14 73 -19v-4h-717v4q33 5 73 19q35 12 58 38q24 27 39 74q14 43 14 125v811q0 82 -14 125q-15 47 -39 74
t-58 39q-35 12 -73 18v4h717v-4q-38 -6 -73 -18q-34 -12 -58 -39t-39 -74q-14 -43 -14 -125v-811z" />
    <glyph glyph-name="fl.cap" horiz-adv-x="2314" 
d="M545 629h-33v-369q0 -115 41 -173q40 -56 164 -83v-4h-737v4q31 5 72 19q37 13 59 38q24 27 39 74q14 43 14 125v811q0 82 -14 125q-15 47 -39 74t-59 39q-36 12 -72 18v4h1157v-471h-4q-60 212 -176 326q-115 114 -336 114h-109v-641h33q69 0 130 28q56 26 100 73
q43 46 69 104q27 60 39 123h4v-686h-4q-12 63 -39 123q-26 58 -69 104q-44 47 -100 73q-61 28 -130 28zM1894 1331v-4q-123 -27 -163 -83q-41 -58 -41 -173v-1040h67q221 0 337 114q115 113 175 326h4v-471h-1116v4q33 5 73 19q35 12 58 38q24 27 39 74q14 43 14 125v811
q0 82 -14 125q-15 47 -39 74t-58 39q-35 12 -73 18v4h737z" />
    <glyph glyph-name="f_f.cap" horiz-adv-x="2355" 
d="M545 629h-33v-369q0 -115 41 -173q40 -56 164 -83v-4h-737v4q31 5 72 19q37 13 59 38q24 27 39 74q14 43 14 125v811q0 82 -14 125q-15 47 -39 74t-59 39q-36 12 -72 18v4h1157v-471h-4q-60 212 -176 326q-115 114 -336 114h-109v-641h33q69 0 130 28q56 26 100 73
q43 46 69 104q27 60 39 123h4v-686h-4q-12 63 -39 123q-26 58 -69 104q-44 47 -100 73q-61 28 -130 28zM1722 629h-32v-369q0 -115 41 -173q40 -56 163 -83v-4h-737v4q33 5 73 19q35 12 58 38q24 27 39 74q14 43 14 125v811q0 82 -14 125q-15 47 -39 74t-58 39
q-35 12 -73 18v4h1157v-471h-4q-60 213 -175 326q-115 114 -337 114h-108v-641h32q69 0 130 28q58 27 101 73q41 44 68 104t39 123h4v-686h-4q-12 63 -39 123t-68 104q-43 46 -101 73q-61 28 -130 28z" />
    <glyph glyph-name="f_f_i.cap" horiz-adv-x="3031" 
d="M545 629h-33v-369q0 -115 41 -173q40 -56 164 -83v-4h-737v4q31 5 72 19q37 13 59 38q24 27 39 74q14 43 14 125v811q0 82 -14 125q-15 47 -39 74t-59 39q-36 12 -72 18v4h1157v-471h-4q-60 212 -176 326q-115 114 -336 114h-109v-641h33q69 0 130 28q56 26 100 73
q43 46 69 104q27 60 39 123h4v-686h-4q-12 63 -39 123q-26 58 -69 104q-44 47 -100 73q-61 28 -130 28zM1722 629h-32v-369q0 -115 41 -173q40 -56 163 -83v-4h-737v4q33 5 73 19q35 12 58 38q24 27 39 74q14 43 14 125v811q0 82 -14 125q-15 47 -39 74t-58 39
q-35 12 -73 18v4h1157v-471h-4q-60 213 -175 326q-115 114 -337 114h-108v-641h32q69 0 130 28q58 27 101 73q41 44 68 104t39 123h4v-686h-4q-12 63 -39 123t-68 104q-43 46 -101 73q-61 28 -130 28zM2867 260q0 -78 15 -125q16 -49 38 -74t59 -38q40 -14 73 -19v-4h-717v4
q31 5 72 19q37 13 59 38q24 27 39 74q14 43 14 125v811q0 82 -14 125q-15 47 -39 74t-59 39q-36 12 -72 18v4h717v-4q-38 -6 -73 -18t-59 -39q-22 -25 -38 -74q-15 -46 -15 -125v-811z" />
    <glyph glyph-name="f_f_l.cap" horiz-adv-x="3491" 
d="M545 629h-33v-369q0 -115 41 -173q40 -56 164 -83v-4h-737v4q31 5 72 19q37 13 59 38q24 27 39 74q14 43 14 125v811q0 82 -14 125q-15 47 -39 74t-59 39q-36 12 -72 18v4h1157v-471h-4q-60 212 -176 326q-115 114 -336 114h-109v-641h33q69 0 130 28q56 26 100 73
q43 46 69 104q27 60 39 123h4v-686h-4q-12 63 -39 123q-26 58 -69 104q-44 47 -100 73q-61 28 -130 28zM1722 629h-32v-369q0 -115 41 -173q40 -56 163 -83v-4h-737v4q33 5 73 19q35 12 58 38q24 27 39 74q14 43 14 125v811q0 82 -14 125q-15 47 -39 74t-58 39
q-35 12 -73 18v4h1157v-471h-4q-60 213 -175 326q-115 114 -337 114h-108v-641h32q69 0 130 28q58 27 101 73q41 44 68 104t39 123h4v-686h-4q-12 63 -39 123t-68 104q-43 46 -101 73q-61 28 -130 28zM3072 1331v-4q-124 -27 -164 -83q-41 -58 -41 -173v-1040h68
q221 0 337 114q115 113 175 326h4v-471h-1116v4q31 5 72 19q37 13 59 38q24 27 39 74q14 43 14 125v811q0 82 -14 125q-15 47 -39 74t-59 39q-36 12 -72 18v4h737z" />
    <glyph glyph-name="w_w_w.cap" horiz-adv-x="3635" 
d="M61 1026q-61 156 -103 211q-43 56 -101 90v4h659v-4q-31 -5 -58 -24q-30 -21 -48 -58q-20 -41 -21 -91q-2 -55 25 -126l213 -580l157 447q0 3 1 4t1 4l-47 123q-58 155 -102 211q-45 57 -102 90v4h661v-4q-33 -5 -60 -24q-32 -22 -49 -58q-19 -39 -20 -91q-2 -55 25 -126
l215 -582l155 449q0 3 1 4t1 4l-47 123q-61 156 -103 211t-102 90v4h660v-4q-31 -5 -58 -24q-32 -22 -49 -58q-19 -39 -20 -91q-2 -58 24 -126l213 -579l158 446q0 3 1 4t1 4l-47 123q-58 155 -102 211t-103 90v4h662v-4q-34 -5 -61 -24q-30 -21 -48 -58q-19 -39 -20 -91
q-2 -58 24 -126l215 -582l156 449q0 3 1 4t1 4l-47 123q-58 155 -102 211t-103 90v4h662v-4q-34 -5 -61 -24q-30 -21 -48 -58q-19 -39 -20 -91q-2 -58 24 -126l215 -582l156 449q35 100 35 175q0 76 -23 130q-24 55 -62 85q-41 32 -83 42v4h416v-4q-62 -51 -119 -143
q-58 -93 -127 -291l-338 -954l-354 913l-324 -913l-356 915l-322 -915l-354 913l-324 -913l-356 915l-322 -915z" />
    <glyph glyph-name="zeroslash" horiz-adv-x="1187" 
d="M594 1352q122 0 225 -50q100 -49 174 -141q73 -91 113 -217q41 -129 41 -278q0 -150 -41 -279q-40 -126 -113 -217t-174 -140q-103 -50 -225 -50t-225 50q-101 49 -174 140t-113 217q-41 129 -41 279q0 149 41 278q40 126 113 217q74 92 174 141q103 50 225 50zM594 1325
q-44 0 -83 -31q-38 -31 -65 -106q-27 -77 -42 -203q-15 -127 -15 -319q0 -48 2 -132q2 -64 6 -116l389 540q-21 209 -71 287q-51 80 -121 80zM799 666q0 48 -2 132q-1 62 -6 115l-390 -540q21 -208 72 -287q51 -80 121 -80q44 0 83 31q37 30 64 106q27 77 42 203
q16 136 16 320z" />
    <glyph glyph-name="rublesign" horiz-adv-x="1204" 
d="M0 686h164v385q0 82 -14 125q-15 47 -39 74t-59 39q-36 12 -72 18v4h620q295 0 429 -74t134 -239q0 -87 -44 -157q-42 -66 -121 -113q-76 -45 -183 -69t-227 -24h-76v-245h338v-31h-338v-119q0 -115 41 -173q40 -56 164 -83v-4h-737v4q31 5 72 19q37 13 59 38
q24 27 39 74q14 43 14 125v119h-164v31h164v245h-164v31zM553 1300h-41v-614h74q87 0 147 80t60 219q0 60 -12 117q-12 58 -39 101q-28 45 -73 71t-116 26z" />
    <glyph glyph-name="zeroslash.OP" horiz-adv-x="1146" 
d="M573 1188q117 0 217 -44q98 -43 168 -124q70 -80 109 -192q39 -111 39 -244q0 -134 -39 -245q-39 -112 -109 -192q-69 -79 -168 -123q-100 -44 -217 -44q-116 0 -216 44q-101 44 -169 123q-68 78 -108 192q-39 111 -39 245q0 133 39 244q40 114 108 192q70 80 169 124
q100 44 216 44zM573 1161q-41 0 -74 -26q-35 -28 -59 -93q-25 -68 -38 -177q-13 -107 -13 -281q0 -45 2 -119q1 -55 6 -100l348 485q-18 179 -63 245t-109 66zM758 584q0 44 -2 118q-2 56 -6 101l-349 -486q18 -176 64 -244q46 -67 108 -67q41 0 75 27q36 28 59 92t37 177
q14 115 14 282z" />
    <glyph glyph-name="zero.OP" horiz-adv-x="1146" 
d="M573 1188q117 0 217 -44q98 -43 168 -124q70 -80 109 -192q39 -111 39 -244q0 -134 -39 -245q-39 -112 -109 -192q-69 -79 -168 -123q-100 -44 -217 -44q-116 0 -216 44q-101 44 -169 123q-68 78 -108 192q-39 111 -39 245q0 133 39 244q40 114 108 192q70 80 169 124
q100 44 216 44zM573 1161q-41 0 -74 -26q-35 -28 -59 -93q-25 -68 -38 -177q-13 -107 -13 -281q0 -175 13 -282q13 -109 38 -177q23 -64 59 -92q35 -27 74 -27q41 0 75 27q36 28 59 92t37 177q14 115 14 282q0 166 -14 281q-14 113 -37 177q-24 65 -59 93q-33 26 -75 26z
" />
    <glyph glyph-name="one.OP" horiz-adv-x="655" 
d="M492 260q0 -82 14 -125q15 -47 39 -74q23 -26 58 -38q40 -14 73 -19v-4h-696v4q31 5 72 19q37 13 59 38q24 27 39 74q14 43 14 125v647q0 82 -14 125q-15 47 -39 74t-59 39q-36 12 -72 18v4h696v-4q-38 -6 -73 -18q-34 -12 -58 -39t-39 -74q-14 -43 -14 -125v-647z" />
    <glyph glyph-name="two.OP" horiz-adv-x="858" 
d="M-41 0v4q128 118 265 242q124 112 183 175q72 76 105 137q35 64 35 128q0 96 -65 156q-63 59 -187 59q-111 0 -195 -75t-84 -199h-10q0 121 29 226q28 101 82 177q53 74 131 116t176 42q162 0 263 -82t101 -246q0 -85 -39 -154q-42 -74 -113 -144q-69 -67 -175 -147
l-225 -169h591v-246h-868z" />
    <glyph glyph-name="three.OP" horiz-adv-x="937" 
d="M262 473q135 21 220 83q87 63 87 169q0 82 -61 136q-62 54 -182 54q-106 0 -185 -64q-80 -65 -80 -173h-10q0 109 29 205q27 91 82 161q53 69 131 106q79 38 178 38q171 0 262 -87q92 -87 92 -216q0 -87 -63 -166q-64 -81 -203 -109q73 -15 134 -53q62 -38 108 -92
q44 -51 70 -119q26 -67 26 -131q0 -97 -46 -171q-48 -77 -122 -125q-79 -51 -177 -77t-212 -26q-179 0 -262 67q-84 68 -84 160q0 49 28 99q27 48 66 87h16q107 -216 181 -300q72 -81 164 -81q64 0 105 59q40 58 40 156q0 157 -94 266q-95 110 -238 134v10z" />
    <glyph glyph-name="four.OP" horiz-adv-x="1062" 
d="M838 -164h-318v164h-540v4l854 1266h4v-1004h184v-266h-184v-164zM199 266h321v484z" />
    <glyph glyph-name="five.OP" horiz-adv-x="915" 
d="M874 258q0 -107 -44 -192t-117 -140q-75 -56 -171 -83q-97 -27 -202 -27q-179 0 -262 67q-84 68 -84 160q0 49 28 99q27 48 66 87h16q105 -187 200 -275q92 -85 198 -85q77 0 123 55q47 56 47 156q0 50 -21 109q-22 61 -83 116q-66 59 -180 110q-119 53 -310 93l158 659
h608v-266h-635l-29 -123q222 -44 354 -98q133 -54 210 -122t103 -142q27 -76 27 -158z" />
    <glyph glyph-name="six.OP" horiz-adv-x="1105" 
d="M1065 438q0 -114 -37 -198q-40 -90 -99 -144q-63 -57 -146 -87q-80 -29 -173 -29q-119 0 -223 40q-103 40 -181 118t-121 191q-44 115 -44 259q0 204 61 348q62 146 158 238q96 91 218 135q120 43 241 43q157 0 230 -47t73 -117q0 -36 -18 -73q-17 -35 -52 -75h-20
q-33 39 -111 130q-45 52 -78 84t-60 45q-28 14 -60 14q-136 0 -193 -146q-57 -145 -57 -395q0 -52 1 -79t3 -79q58 89 133 157q79 71 188 71q169 0 268 -113t99 -291zM651 10q69 0 99 76q30 77 30 199q0 79 -15 150q-15 69 -46 122q-30 52 -79 82q-50 31 -112 31
q-37 0 -77 -14q-41 -14 -74 -50q7 -122 27 -232q20 -111 54 -190q36 -82 82 -127q49 -47 111 -47z" />
    <glyph glyph-name="seven.OP" horiz-adv-x="897" 
d="M20 901v266h918v-4q-89 -150 -155 -284q-74 -149 -127 -306q-55 -162 -86 -342t-31 -395h-410v4l639 1061h-748z" />
    <glyph glyph-name="eight.OP" horiz-adv-x="1114" 
d="M557 1352q224 0 349 -82q126 -82 126 -240q0 -129 -88 -208q-87 -78 -248 -101q178 -24 278 -118q99 -93 99 -245q0 -184 -136 -281t-380 -97t-380 97t-136 281q0 152 99 245q100 94 278 118q-161 23 -248 101q-88 79 -88 208q0 158 126 240q125 82 349 82zM557 1325
q-63 0 -105 -60t-42 -235q0 -172 42 -233q42 -62 105 -62q64 0 106 62q42 61 42 233q0 175 -42 235t-106 60zM557 709q-79 0 -128 -72q-50 -73 -50 -279t50 -279t128 -73t128 73t50 279t-50 279q-49 72 -128 72z" />
    <glyph glyph-name="nine.OP" horiz-adv-x="1105" 
d="M1065 580q0 -205 -61 -349q-61 -145 -158 -237q-96 -91 -218 -135q-120 -43 -241 -43q-157 0 -230 47t-73 117q0 34 18 72q17 35 52 75h20q33 -39 111 -130q49 -58 77 -84q32 -30 61 -45q26 -13 60 -13q136 0 193 145q57 146 57 395q0 52 -1 79t-3 79q-58 -89 -133 -157
q-77 -70 -188 -70q-169 0 -268 112t-99 291q0 115 37 199q39 89 99 143q63 57 146 87t173 30q117 0 223 -41q103 -40 181 -118t121 -190q44 -115 44 -259zM455 1157q-69 0 -99 -76q-30 -77 -30 -198q0 -81 15 -151q15 -69 46 -122q30 -52 79 -82q48 -30 112 -30q39 0 77 13
q41 14 74 50q-7 115 -28 233q-20 113 -53 189q-36 82 -82 127q-49 47 -111 47z" />
    <glyph glyph-name="numbersign.OP" 
d="M133 850h209l147 481h35l-147 -481h381l147 481h35l-147 -481h211v-31h-220l-94 -307h201v-31h-209l-147 -481h-35l147 481h-381l-147 -481h-35l147 481h-211v31h220l94 307h-201v31zM274 512h381l95 307h-381z" />
    <glyph glyph-name="Euro.OP" horiz-adv-x="1050" 
d="M41 819h115q37 240 185 386q149 147 366 147q169 0 252 -55q81 -54 81 -128q0 -46 -20 -85t-53 -72h-17q-77 177 -130 248q-49 65 -113 65q-41 0 -79 -25q-37 -25 -64 -81q-29 -60 -46 -156q-18 -99 -24 -244h315v-31h-315q-2 -38 -2 -59v-63v-64q0 -21 2 -59h315v-31
h-315q6 -145 24 -244q17 -94 46 -155q27 -57 64 -82q38 -25 79 -25q63 0 113 66q54 72 130 247h17q33 -33 53 -72t20 -85q0 -74 -81 -128t-252 -54q-216 0 -365 146q-148 145 -186 386h-115v31h111q-6 38 -7 59q-2 40 -2 64q0 23 2 63q1 21 7 59h-111v31z" />
    <glyph glyph-name="dollar.OP" horiz-adv-x="1040" 
d="M100 63v433h4q73 -156 152 -258t154 -152v457q-74 39 -129 74q-64 41 -112 92t-78 115t-30 149q0 156 97 251t252 119v193h36v-188q12 1 38 3q13 1 40 1h46q16 0 44 -2v186h37v-188q59 -4 125 -20q60 -14 135 -44v-391h-4q-67 113 -133 200q-64 84 -123 134v-400
q73 -38 123 -72q61 -41 105 -91q45 -51 72 -119q28 -70 28 -156q2 -159 -89 -260q-91 -102 -239 -135v-199h-37v191q-7 0 -23 -1.5t-24 -2.5q-32 -2 -51 -2h-36q-12 0 -34 2v-187h-36v189q-74 6 -150 24q-78 18 -160 55zM446 930q43 -23 82 -42q15 -7 43 -21t43 -21v407
q-42 28 -85 43q-44 16 -83 17v-383zM260 1163q0 -73 42 -122q43 -51 108 -89v359q-72 -7 -111 -48t-39 -100zM610 20h2h2v414q-52 30 -80 45t-88 45v-461q37 -20 83 -32q44 -11 81 -11zM795 188q0 73 -40 125q-42 54 -104 97v-387q71 11 107 53q37 43 37 112z" />
    <glyph glyph-name="cent.OP" horiz-adv-x="983" 
d="M932 809q0 -70 -34 -132q-35 -64 -85 -114h-20q-40 82 -142 286q-50 101 -102 134v-692q21 -6 42 -9t44 -3q112 0 202 62q91 63 115 222h11q-7 -288 -121 -427q-112 -137 -293 -154v-187h-37v185h-9h-9q-104 0 -188 37q-81 36 -146 105q-59 63 -95 162q-34 93 -34 208
q0 112 37 205q39 99 102 166q66 71 154 117t188 58v191h37v-187q14 2 22 2h23q174 0 256 -70t82 -165zM301 707q0 -154 58 -258q59 -106 153 -146v696q-8 2 -12 2h-15q-74 0 -129 -70t-55 -224z" />
    <glyph glyph-name="rublesign.OP" horiz-adv-x="1204" 
d="M0 686h164v385q0 82 -14 125q-15 47 -39 74t-59 39q-36 12 -72 18v4h620q295 0 429 -74t134 -239q0 -87 -44 -157q-42 -66 -121 -113q-76 -45 -183 -69t-227 -24h-76v-245h338v-31h-338v-119q0 -115 41 -173q40 -56 164 -83v-4h-737v4q31 5 72 19q37 13 59 38
q24 27 39 74q14 43 14 125v119h-164v31h164v245h-164v31zM553 1300h-41v-614h74q87 0 147 80t60 219q0 60 -12 117q-12 58 -39 101q-28 45 -73 71t-116 26z" />
    <glyph glyph-name="sterling.OP" horiz-adv-x="946" 
d="M850 627h-268q-7 -94 -83 -171q-80 -82 -210 -190h626v-266h-895v4q80 80 143 148q56 60 89 107q32 45 46 84q13 36 13 77q0 48 -25 99q-22 45 -61 108h-164v30h144q-84 131 -104 166q-50 85 -50 166q0 89 45 156q44 66 121 113q75 46 175 70q99 24 208 24q154 0 229 -55
q74 -54 74 -126q0 -54 -31 -105t-75 -95h-17q-95 197 -152 272q-58 76 -136 76q-63 0 -104 -41q-40 -40 -40 -107q0 -66 37 -133q39 -71 81 -134q37 -57 81 -130q37 -62 37 -117h266v-30z" />
    <glyph glyph-name="yen.OP" horiz-adv-x="1009" 
d="M80 748h178l-154 315q-67 137 -112 185q-47 50 -105 79v4h695v-4q-23 -2 -47 -21q-26 -21 -40 -54q-16 -37 -16 -82q0 -48 27 -105l184 -416l131 299q36 80 38 150q1 66 -20 115q-20 46 -57 78q-34 30 -69 36v4h409v-4q-63 -47 -128 -125q-64 -77 -142 -256l-86 -198h207
v-31h-221l-52 -119v-188h211v-31h-211v-119q0 -78 15 -125t39 -74q23 -26 58 -38q40 -14 73 -19v-4h-717v4q33 5 73 19q35 12 58 38q24 27 39 74q14 43 14 125v119h-211v31h211v147l-78 160h-194v31z" />
    <glyph glyph-name="exclamdown.cap" horiz-adv-x="577" 
d="M289 1352q89 0 148 -59t59 -146q0 -88 -59 -147q-58 -58 -148 -58q-91 0 -149 58t-58 147q0 88 58 146q59 59 149 59zM291 831l207 -831h-420l207 831h6z" />
    <glyph glyph-name="questiondown.cap" horiz-adv-x="888" 
d="M455 1352q89 0 148 -59t59 -146q0 -88 -59 -147q-58 -58 -148 -58q-91 0 -149 58t-58 147q0 88 58 146q59 59 149 59zM295 53q103 0 230 91q128 92 233 233h18q40 -40 65 -84t25 -94q0 -88 -86 -154q-84 -65 -286 -65q-117 0 -203 29q-89 30 -148 79q-60 50 -90 114
t-30 136q0 95 75 169q76 75 165 135q137 93 165 111q76 49 76 95q0 10 -1 14q-2 7 -7 12l4 5q69 -57 114 -120t45 -136q0 -66 -73 -130t-163 -125q-96 -65 -163 -117q-74 -57 -74 -108q0 -40 31 -65t78 -25z" />
    <glyph glyph-name="endash.cap" horiz-adv-x="983" 
d="M82 692h819v-30h-819v30z" />
    <glyph glyph-name="emdash.cap" horiz-adv-x="1802" 
d="M82 692h1638v-30h-1638v30z" />
    <glyph glyph-name="periodcentered.cap" horiz-adv-x="577" 
d="M289 471q-91 0 -149 58t-58 147q0 88 58 146q59 59 149 59q89 0 148 -59t59 -146q0 -88 -59 -147q-58 -58 -148 -58z" />
    <glyph glyph-name="hyphen.cap" horiz-adv-x="737" 
d="M102 819h533v-287h-533v287z" />
    <glyph glyph-name="guilsinglleft.cap" horiz-adv-x="569" 
d="M508 1106l-148 -451l148 -450h-6l-441 450l441 451h6z" />
    <glyph glyph-name="guilsinglright.cap" horiz-adv-x="569" 
d="M61 1106h7l440 -451l-440 -450h-7l148 450z" />
    <glyph glyph-name="guillemotleft.cap" horiz-adv-x="937" 
d="M508 1106l-148 -451l148 -450h-6l-441 450l441 451h6zM877 1106l-148 -451l148 -450h-7l-440 450l440 451h7z" />
    <glyph glyph-name="guillemotright.cap" horiz-adv-x="937" 
d="M61 1106h7l440 -451l-440 -450h-7l148 450zM430 1106h6l441 -451l-441 -450h-6l148 450z" />
    <glyph glyph-name="parenleft.cap" horiz-adv-x="690" 
d="M399 676q0 -321 71 -523q71 -203 192 -343l-5 -5q-108 81 -195 161q-94 87 -164 189q-71 105 -113 231q-42 127 -42 290q0 162 42 290q42 126 113 231q68 100 164 188q87 80 195 161l5 -4q-125 -134 -194 -339q-69 -206 -69 -527z" />
    <glyph glyph-name="parenright.cap" horiz-adv-x="690" 
d="M291 676q0 321 -69 527t-193 339l4 4q108 -81 195 -161q96 -88 164 -188q71 -105 113 -231q42 -127 42 -290q0 -162 -42 -290q-42 -126 -113 -231q-70 -102 -164 -189q-87 -80 -195 -161l-4 5q119 138 191 343q71 202 71 523z" />
    <glyph glyph-name="bracketleft.cap" horiz-adv-x="690" 
d="M184 -184v1720h465v-31h-209v-1659h209v-30h-465z" />
    <glyph glyph-name="bracketright.cap" horiz-adv-x="690" 
d="M506 -184h-465v30h209v1659h-209v31h465v-1720z" />
    <glyph glyph-name="braceleft.cap" horiz-adv-x="690" 
d="M629 -164v-20h-35q-206 0 -298 78q-91 78 -91 249v359q0 84 -33 124t-102 40h-29v20h29q69 0 102 40t33 124v358q0 172 91 250q92 78 298 78h35v-20h-33q-68 0 -102 -46q-33 -45 -33 -139v-348q0 -148 -81 -220t-265 -87q184 -15 265 -87t81 -220v-349q0 -94 33 -139
t102 -45h33z" />
    <glyph glyph-name="braceright.cap" horiz-adv-x="690" 
d="M485 143q0 -172 -91 -250q-90 -77 -298 -77h-35v20h33q70 0 103 45q32 44 32 139v349q0 148 81 220t265 87q-184 15 -265 87t-81 220v348q0 95 -32 139q-34 46 -103 46h-33v20h35q206 0 298 -78q91 -78 91 -250v-358q0 -84 33 -124t103 -40h28v-20h-28q-70 0 -103 -40
t-33 -124v-359z" />
    <glyph glyph-name="numero_sign" horiz-adv-x="2121" 
d="M168 362v689l-53 61q-77 89 -132 144q-56 56 -141 71v4h557l691 -796v434q0 101 -22 169q-21 64 -56 102t-80 56q-51 20 -92 31v4h536v-4q-41 -11 -92 -31q-45 -18 -80 -56t-56 -102q-22 -68 -22 -169v-1030h-4l-917 1069v-646q0 -104 21 -168t57 -103t79 -56
q49 -20 93 -31v-4h-537v4q41 11 92 31q45 18 80 56t56 103q22 68 22 168zM1716 1346q165 0 271 -101q104 -100 104 -258q0 -83 -32 -156q-30 -69 -86 -122q-55 -52 -128 -80q-75 -29 -157 -29q-167 0 -270 100t-103 258q0 83 32 156q31 71 86 123t128 80q75 29 155 29z
M1686 1313q-43 0 -64 -75q-20 -71 -20 -230q0 -73 7 -136q8 -76 21 -120q15 -54 37 -87q22 -34 53 -34q46 0 65 75q19 73 19 232q0 66 -6 133q-7 74 -20 121q-15 54 -37 87q-22 34 -55 34zM1386 358h644v-30h-644v30zM1386 31h644v-31h-644v31z" />
    <glyph glyph-name="sound_recording_copyright" horiz-adv-x="1454" 
d="M727 1352q144 0 274 -52q128 -51 219 -142t142 -218q51 -128 51 -274q0 -148 -51 -275t-142 -218t-219 -142q-127 -51 -274 -51t-274 51q-128 51 -219 142t-142 218t-51 275q0 146 51 274q51 127 142 218t219 142q130 52 274 52zM727 1319q-142 0 -261 -49
q-121 -50 -206 -135q-86 -86 -134 -207q-48 -122 -48 -262q0 -142 48 -263q47 -119 134 -206t206 -136t261 -49t261 49t206 136t134 206q48 122 48 263q0 140 -48 262q-48 121 -134 207q-85 85 -206 135q-119 49 -261 49zM791 305h-431v4q36 7 66 30q27 21 27 99v455
q0 78 -27 99q-29 22 -66 28v4h373q211 0 307 -54q97 -55 97 -175q0 -63 -32 -112q-32 -48 -86 -80t-130 -48q-74 -16 -162 -16h-39v-101q0 -58 21 -86t82 -43v-4zM709 997h-21v-432h37q70 0 118 57t48 156q0 84 -39 152q-39 67 -143 67z" />
    <glyph glyph-name="idotaccent" horiz-adv-x="583" 
d="M461 240q0 -76 11 -116q13 -47 31 -69q20 -25 45 -35q23 -9 56 -16v-4h-614v4q33 7 56 16q25 10 45 35q18 22 31 69q11 40 11 116v579h-205v4l533 242v-825zM315 1495q72 0 119 -47t47 -117t-47 -117t-119 -47q-71 0 -118 47t-47 117t47 117t118 47z" />
    <glyph glyph-name="acute.cap" 
d="M266 1438l492 241v-204l-492 -41v4z" />
    <glyph glyph-name="grave.cap" 
d="M758 1438v-4l-492 41v204z" />
    <glyph glyph-name="circumflex.cap" 
d="M184 1434v4l326 241h4l326 -241v-4l-328 77z" />
    <glyph glyph-name="caron.cap" 
d="M840 1679v-4l-326 -241h-4l-326 241v4l328 -77z" />
    <glyph glyph-name="caronSlovak" 
d="M516 963h-4l61 368h226z" />
    <glyph glyph-name="dieresis.cap" 
d="M698 1698q64 0 105 -42q41 -43 41 -100q0 -56 -41 -99q-41 -42 -105 -42t-104 42q-41 43 -41 99q0 57 41 100q40 42 104 42zM326 1698q64 0 104 -42q41 -43 41 -100q0 -56 -41 -99q-41 -42 -104 -42q-64 0 -105 42q-41 43 -41 99q0 57 41 100q41 42 105 42z" />
    <glyph glyph-name="dotaccent.cap" 
d="M512 1720q72 0 119 -47t47 -117q0 -69 -47 -116t-119 -47t-119 47t-47 116q0 70 47 117t119 47z" />
    <glyph glyph-name="tilde.cap" 
d="M803 1679q-18 -129 -54 -192q-37 -64 -118 -64q-94 0 -169 30t-151 30q-36 0 -57 -18q-22 -19 -29 -52h-4q21 129 55 192q34 64 117 64q94 0 169 -30q72 -29 151 -29q37 0 57 17q22 19 29 52h4z" />
    <glyph glyph-name="macron.cap" 
d="M737 1642v-192h-450v192h450z" />
    <glyph glyph-name="breve.cap" 
d="M512 1403q-105 0 -170 62q-66 63 -66 194h5q0 -55 70 -79t161 -24q90 0 161 24q70 24 70 79h5q0 -131 -66 -194q-65 -62 -170 -62z" />
    <glyph glyph-name="ring.cap" 
d="M512 1413q-132 0 -203 37t-71 106q0 70 71 107t203 37t203 -37t71 -107q0 -69 -71 -106t-203 -37zM512 1675q-52 0 -76 -30t-24 -89q0 -58 24 -88t76 -30t76 30t24 88q0 59 -24 89t-76 30z" />
    <glyph glyph-name="hungarumlaut.cap" 
d="M332 1434h-4l20 225h266zM655 1434h-4l21 225h266z" />
    <glyph glyph-name="commaaccent.alt" 
d="M733 1516h4l-102 -369h-246z" />
    <glyph glyph-name="diameter_sign" horiz-adv-x="1048" 
d="M524 1014q74 0 143 -25q65 -24 115 -69l101 100l24 -25l-100 -100q46 -50 71 -116q25 -65 25 -144q0 -164 -107 -271q-108 -108 -272 -108q-77 0 -144 26q-68 26 -116 70l-100 -100l-25 24l101 101q-46 51 -70 116q-25 69 -25 142q0 163 108 271t271 108zM524 977
q-148 0 -242 -97q-96 -99 -96 -245q0 -67 22 -127q21 -57 60 -102l488 487q-44 38 -104 61t-128 23zM862 635q0 71 -22 128t-62 103l-487 -487q46 -40 104 -63q57 -23 129 -23q149 0 243 97q95 98 95 245z" />
    <glyph glyph-name="plus.cap" horiz-adv-x="839" 
d="M41 692h360v373h37v-373h361v-30h-361v-373h-37v373h-360v30z" />
    <glyph glyph-name="minus.cap" horiz-adv-x="839" 
d="M41 692h758v-30h-758v30z" />
    <glyph glyph-name="plusminus.cap" horiz-adv-x="839" 
d="M41 692h360v373h37v-373h361v-30h-361v-373h-37v373h-360v30zM41 72h758v-31h-758v31z" />
    <glyph glyph-name="multiply.cap" horiz-adv-x="839" 
d="M723 952l-277 -276l277 -277l-27 -26l-276 276l-277 -276l-26 26l276 277l-276 276l26 27l277 -277l276 277z" />
    <glyph glyph-name="divide.cap" horiz-adv-x="839" 
d="M420 829q-56 0 -94 36q-37 36 -37 91q0 56 37 93q36 36 94 36t94 -36q37 -37 37 -93q0 -55 -37 -91q-38 -36 -94 -36zM41 692h758v-30h-758v30zM420 266q-57 0 -94 37t-37 92q0 58 37 92q38 35 94 35t94 -35q37 -34 37 -92q0 -55 -37 -92t-94 -37z" />
    <glyph glyph-name="equal.cap" horiz-adv-x="839" 
d="M41 856h758v-31h-758v31zM41 528h758v-30h-758v30z" />
    <glyph glyph-name="notequal.cap" horiz-adv-x="839" 
d="M41 528h250l254 297h-504v31h530l181 209h47l-181 -209h181v-31h-207l-254 -297h461v-30h-488l-182 -211h-47l182 211h-223v30z" />
    <glyph glyph-name="asciitilde.cap" horiz-adv-x="839" 
d="M612 584q70 0 111 45q41 46 41 149v10h35v-10q0 -114 -47 -170q-46 -55 -142 -55q-65 0 -111 34q-50 37 -86 73q-39 40 -83 74q-43 34 -103 34q-69 0 -110 -45q-41 -46 -41 -150v-10h-35v10q0 114 47 170t141 56q66 0 112 -34q47 -35 86 -74q40 -39 83 -74
q42 -33 102 -33z" />
    <glyph glyph-name="approxequal.cap" horiz-adv-x="839" 
d="M612 748q70 0 111 45q41 46 41 149v10h35v-10q0 -114 -47 -170q-46 -55 -142 -55q-65 0 -111 34q-50 37 -86 73q-39 40 -83 74q-43 34 -103 34q-69 0 -110 -45q-41 -46 -41 -150v-10h-35v10q0 114 47 170t141 56q66 0 112 -34q47 -34 86 -74q40 -40 83 -74
q42 -33 102 -33zM612 420q70 0 111 45q41 46 41 149v11h35v-11q0 -114 -47 -170q-46 -55 -142 -55q-65 0 -111 34q-47 35 -86 74q-35 35 -83 73q-43 34 -103 34q-69 0 -110 -45q-41 -46 -41 -149v-11h-35v11q0 114 47 170q46 55 141 55q66 0 112 -34q47 -35 86 -74
q35 -35 83 -73q43 -34 102 -34z" />
    <glyph glyph-name="less.cap" horiz-adv-x="839" 
d="M41 672v24l758 389v-34l-717 -367l717 -367v-34z" />
    <glyph glyph-name="greater.cap" horiz-adv-x="839" 
d="M799 672l-758 -389v34l717 367l-717 367v34l758 -389v-24z" />
    <glyph glyph-name="lessequal.cap" horiz-adv-x="839" 
d="M41 672v24l758 389v-34l-717 -367l717 -367v-34zM41 72h758v-31h-758v31z" />
    </font>
</defs>
</svg>
