<?xml version="1.0" standalone="no"?>
<!DOCTYPE svg PUBLIC "-//W3C//DTD SVG 1.1//EN" "http://www.w3.org/Graphics/SVG/1.1/DTD/svg11.dtd" >
<svg xmlns="http://www.w3.org/2000/svg" xmlns:xlink="http://www.w3.org/1999/xlink" version="1.1">
<metadata>
Created by FontForge 20170731 at Fri Dec 31 01:44:52 2021
 By Aleksey,,,
Copyright (c) 2020 by Bureau Brut. All rights reserved.
</metadata>
<defs>
<font id="BoogyBrutPosterWEBL-White" horiz-adv-x="1024" >
  <font-face 
    font-family="Boogy Brut Poster WBL White"
    font-weight="100"
    font-stretch="normal"
    units-per-em="2048"
    panose-1="2 0 0 0 0 0 0 0 0 0"
    ascent="1536"
    descent="-512"
    x-height="1024"
    cap-height="1331"
    bbox="-160 -410 2662 1905"
    underline-thickness="20"
    underline-position="-327"
    unicode-range="U+0020-FB04"
  />
<missing-glyph horiz-adv-x="2048" 
d="M205 -410v1844h1638v-1844h-1638zM1122 1102q88 0 138 -46q51 -47 51 -122q0 -96 -66 -174q-69 -82 -142 -146q-63 -56 -142 -131q-66 -63 -66 -131q0 -37 25 -71t63 -62l4 4q-12 8 -21 23q-8 13 -8 26q0 59 66 116q20 17 67.5 58t74.5 65q76 65 143 151q65 83 65 198
q0 133 -103 211t-255 78q-136 0 -223 -56q-88 -57 -88 -153q0 -22 7 -43q8 -23 19 -43h4q62 121 170 185q107 63 217 63zM997 2q-48 0 -81 -31q-31 -30 -31 -82t31 -82q32 -30 81 -30t81 30t32 82t-32 82q-33 31 -81 31z" />
    <glyph glyph-name="f_f" unicode="ff" horiz-adv-x="983" 
d="M225 184q0 -102 36 -134q35 -31 128 -46v-4h-369v4q42 11 73 35q30 23 30 104v799h-205v4l207 66q11 91 49 162t97 119q60 49 132 74q75 26 150 26q37 0 81 -7q38 -6 71 -18v-94q62 79 151 119q91 41 188 41q37 0 81 -7q38 -6 71 -18v-94q-85 32 -132 44q-57 15 -120 15
q-111 0 -169 -61t-58 -193v-96h428v-82h-428v-758q0 -102 36 -134q35 -31 128 -46v-4h-369v4q42 11 73 35q29 22 29 104v799h-389v-758zM453 1333q-111 0 -169 -61q-59 -62 -59 -193v-55h389q1 71 27 138q23 60 64 112q-82 31 -133 44q-57 15 -119 15z" />
    <glyph glyph-name="fi" unicode="fi" horiz-adv-x="829" 
d="M225 184q0 -102 36 -134q35 -31 128 -46v-4h-369v4q42 11 73 35q30 23 30 104v799h-205v4l205 66q1 99 39 179q39 82 96 132q62 55 136 82q78 29 159 29q37 0 81 -7q38 -6 71 -18v-94q-82 31 -133 44q-57 15 -119 15q-111 0 -169 -61q-59 -62 -59 -193v-96h428l64 20
v-901q0 -82 29 -104q31 -24 73 -35v-4h-307v4q42 11 73 35q29 22 29 104v799h-389v-758z" />
    <glyph glyph-name="fl" unicode="fl" horiz-adv-x="829" 
d="M225 184q0 -102 36 -134q35 -31 128 -46v-4h-369v4q42 11 73 35q30 23 30 104v799h-205v4l205 66q1 99 39 179q39 82 96 132q62 55 136 82q78 29 159 29q38 0 87 -7q46 -7 77 -20v-1264q0 -82 29 -104q31 -24 73 -35v-4h-307v4q42 11 73 35q29 22 29 104v1207
q-41 12 -79 18q-39 6 -82 6q-111 0 -169 -61q-59 -62 -59 -193v-96h328v-82h-328v-758z" />
    <glyph glyph-name="f_f_i" unicode="ffi" horiz-adv-x="1320" 
d="M225 184q0 -102 36 -134q35 -31 128 -46v-4h-369v4q42 11 73 35q30 23 30 104v799h-205v4l207 66q11 91 49 162t97 119q60 49 132 74q75 26 150 26q37 0 81 -7q38 -6 71 -18v-94q62 79 151 119q91 41 188 41q37 0 81 -7q38 -6 71 -18v-94q-85 32 -132 44q-57 15 -120 15
q-111 0 -169 -61t-58 -193v-96h428l63 20v-901q0 -81 30 -104q31 -24 73 -35v-4h-307v4q40 11 72 35q30 23 30 104v799h-389v-758q0 -102 36 -134q35 -31 128 -46v-4h-369v4q42 11 73 35q29 22 29 104v799h-389v-758zM453 1333q-111 0 -169 -61q-59 -62 -59 -193v-55h389
q1 71 27 138q23 60 64 112q-82 31 -133 44q-57 15 -119 15z" />
    <glyph glyph-name="f_f_l" unicode="ffl" horiz-adv-x="1320" 
d="M225 184q0 -102 36 -134q35 -31 128 -46v-4h-369v4q42 11 73 35q30 23 30 104v799h-205v4l207 66q11 91 49 162t97 119q60 49 132 74q75 26 150 26q37 0 81 -7q38 -6 71 -18v-94q62 79 151 119q91 41 188 41q39 0 88 -7q45 -6 76 -20v-1264q0 -81 30 -104q31 -24 73 -35
v-4h-307v4q40 11 72 35q30 23 30 104v1207q-40 12 -80 18q-39 6 -82 6q-111 0 -169 -61t-58 -193v-96h327v-82h-327v-758q0 -102 36 -134q35 -31 128 -46v-4h-369v4q42 11 73 35q29 22 29 104v799h-389v-758zM453 1333q-111 0 -169 -61q-59 -62 -59 -193v-55h389
q1 71 27 138q23 60 64 112q-82 31 -133 44q-57 15 -119 15z" />
    <glyph glyph-name="f_j" unicode="fj" horiz-adv-x="819" 
d="M225 184q0 -102 36 -134q35 -31 128 -46v-4h-369v4q42 11 73 35q30 23 30 104v799h-205v4l205 66q1 99 39 179q39 82 96 132q62 55 136 82q78 29 159 29q37 0 81 -7q38 -6 71 -18v-94q-82 31 -133 44q-57 15 -119 15q-111 0 -169 -61q-59 -62 -59 -193v-96h428l64 20
v-1044q0 -76 -10 -123q-11 -50 -40 -85q-30 -36 -82 -63q-63 -33 -134 -57v4q101 45 132 114q31 68 31 198v954h-389v-758z" />
    <glyph glyph-name="f_b" unicode="fb" horiz-adv-x="1562" 
d="M225 184q0 -102 36 -134q35 -31 128 -46v-4h-369v4q42 11 73 35q30 23 30 104v799h-205v4l205 66q1 99 39 179q39 82 96 132q62 55 136 82q78 29 159 29q38 0 87 -7q46 -7 77 -20v-690q23 59 60 118q36 59 84 105q49 48 113 76q63 28 146 28q99 0 171 -36
q75 -38 126 -102q51 -65 78 -154q27 -90 27 -195q0 -138 -47 -247q-46 -106 -122 -181q-77 -75 -171 -112q-95 -37 -195 -37q-106 0 -181 21q-67 19 -130 46l-58 -88h-4v1391q-41 12 -79 18q-39 6 -82 6q-111 0 -169 -61q-59 -62 -59 -193v-96h328v-82h-328v-758zM1069 956
q-93 0 -185 -50q-90 -49 -167 -197v-559q51 -57 125 -101q73 -43 176 -43q184 0 295 138q110 137 110 366q0 96 -24 178q-23 79 -71 141q-47 60 -111 94q-63 33 -148 33z" />
    <glyph glyph-name="f_h" unicode="fh" horiz-adv-x="1488" 
d="M225 184q0 -102 36 -134q35 -31 128 -46v-4h-369v4q42 11 73 35q30 23 30 104v799h-205v4l205 66q1 99 39 179q39 82 96 132q62 55 136 82q78 29 159 29q38 0 87 -7q46 -7 77 -20v-729q68 188 155 276q88 90 220 90q140 0 212 -89t72 -230v-582q0 -81 30 -104
q31 -24 73 -35v-4h-308v4q42 11 73 35q30 23 30 104v572q0 105 -55 170t-160 65q-103 0 -190 -62q-90 -64 -152 -218v-527q0 -82 29 -104q31 -24 73 -35v-4h-307v4q42 11 73 35q29 22 29 104v1207q-41 12 -79 18q-39 6 -82 6q-111 0 -169 -61q-59 -62 -59 -193v-96h328v-82
h-328v-758z" />
    <glyph glyph-name="f_k" unicode="fk" horiz-adv-x="1277" 
d="M225 184q0 -102 36 -134q35 -31 128 -46v-4h-369v4q42 11 73 35q30 23 30 104v799h-205v4l205 66q1 99 39 179q39 82 96 132q62 55 136 82q78 29 159 29q38 0 87 -7q46 -7 77 -20v-1016l340 389q103 118 91 168q-12 51 -83 72v4h365v-4q-85 -28 -166 -74
q-78 -45 -183 -168l-125 -143l281 -451q58 -92 103 -132q46 -40 98 -48v-4h-213l-340 551l-168 -191v-217q0 -82 29 -104q31 -24 73 -35v-4h-307v4q42 11 73 35q29 22 29 104v1207q-41 12 -79 18q-39 6 -82 6q-111 0 -169 -61q-59 -62 -59 -193v-96h328v-82h-328v-758z" />
    <glyph glyph-name="f_t" unicode="ft" horiz-adv-x="1073" 
d="M225 184q0 -102 36 -134q35 -31 128 -46v-4h-369v4q42 11 73 35q30 23 30 104v799h-205v4l205 66q1 99 39 179q39 82 96 132q62 55 136 82q78 29 159 29q37 0 81 -7q38 -6 71 -18v-94q-82 31 -133 44q-57 15 -119 15q-111 0 -169 -61q-59 -62 -59 -193v-96h291l180 164
v-164h402v-82h-402v-643q0 -99 47 -163q46 -62 144 -62q95 0 159 68t64 255h4q0 -203 -64 -310t-186 -107q-134 0 -202 86t-68 223v653h-369v-758z" />
    <glyph glyph-name="f_f_j" unicode="ffj" horiz-adv-x="1310" 
d="M225 184q0 -102 36 -134q35 -31 128 -46v-4h-369v4q42 11 73 35q30 23 30 104v799h-205v4l207 66q11 91 49 162t97 119q60 49 132 74q75 26 150 26q37 0 81 -7q38 -6 71 -18v-94q62 79 151 119q91 41 188 41q37 0 81 -7q38 -6 71 -18v-94q-85 32 -132 44q-57 15 -120 15
q-111 0 -169 -61t-58 -193v-96h428l63 20v-1044q0 -76 -10 -123q-11 -50 -40 -85q-30 -36 -82 -63q-63 -33 -134 -57v4q100 45 132 114q32 70 32 198v954h-389v-758q0 -102 36 -134q35 -31 128 -46v-4h-369v4q42 11 73 35q29 22 29 104v799h-389v-758zM453 1333
q-111 0 -169 -61q-59 -62 -59 -193v-55h389q1 71 27 138q23 60 64 112q-82 31 -133 44q-57 15 -119 15z" />
    <glyph glyph-name="f_f_b" unicode="ffb" horiz-adv-x="2054" 
d="M225 184q0 -102 36 -134q35 -31 128 -46v-4h-369v4q42 11 73 35q30 23 30 104v799h-205v4l207 66q11 91 49 162t97 119q60 49 132 74q75 26 150 26q37 0 81 -7q38 -6 71 -18v-94q62 79 151 119q91 41 188 41q39 0 88 -7q45 -6 76 -20v-690q22 54 61 118q36 59 84 105
q50 49 112 76q63 28 147 28q99 0 171 -36q75 -38 126 -102q51 -65 78 -154q26 -87 26 -195q0 -138 -47 -247q-46 -106 -122 -181q-77 -75 -171 -112q-95 -37 -194 -37q-107 0 -182 21q-67 19 -130 46l-57 -88h-4v1391q-40 12 -80 18q-39 6 -82 6q-111 0 -169 -61t-58 -193
v-96h327v-82h-327v-758q0 -102 36 -134q35 -31 128 -46v-4h-369v4q42 11 73 35q29 22 29 104v799h-389v-758zM453 1333q-111 0 -169 -61q-59 -62 -59 -193v-55h389q1 71 27 138q23 60 64 112q-82 31 -133 44q-57 15 -119 15zM1561 956q-94 0 -186 -50q-90 -49 -167 -197
v-559q51 -57 125 -101q73 -43 176 -43q184 0 295 138t111 366q0 92 -25 178q-24 81 -70 141t-112 94q-63 33 -147 33z" />
    <glyph glyph-name="f_f_h" unicode="ffh" horiz-adv-x="1980" 
d="M453 1333q-111 0 -169 -61q-59 -62 -59 -193v-55h389q1 71 27 138q23 60 64 112q-82 31 -133 44q-57 15 -119 15zM225 184q0 -102 36 -134q35 -31 128 -46v-4h-369v4q42 11 73 35q30 23 30 104v799h-205v4l207 66q11 91 49 162t97 119q60 49 132 74q75 26 150 26
q37 0 81 -7q38 -6 71 -18v-94q62 79 151 119q91 41 188 41q39 0 88 -7q45 -6 76 -20v-729q68 186 156 276t219 90q140 0 212 -89q73 -90 73 -230v-582q0 -82 29 -104q31 -24 73 -35v-4h-307v4q42 11 73 35q29 22 29 104v572q0 105 -55 170t-160 65q-102 0 -189 -62
q-91 -65 -153 -218v-527q0 -81 30 -104q31 -24 73 -35v-4h-307v4q40 11 72 35q30 23 30 104v1207q-40 12 -80 18q-39 6 -82 6q-111 0 -169 -61t-58 -193v-96h327v-82h-327v-758q0 -102 36 -134q35 -31 128 -46v-4h-369v4q42 11 73 35q29 22 29 104v799h-389v-758z" />
    <glyph glyph-name="f_f_k" unicode="ffk" horiz-adv-x="1769" 
d="M225 184q0 -102 36 -134q35 -31 128 -46v-4h-369v4q42 11 73 35q30 23 30 104v799h-205v4l207 66q11 91 49 162t97 119q60 49 132 74q75 26 150 26q37 0 81 -7q38 -6 71 -18v-94q62 79 151 119q91 41 188 41q39 0 88 -7q45 -6 76 -20v-1016l340 389q103 118 91 168
q-12 51 -83 72v4h365v-4q-85 -28 -166 -74q-76 -44 -182 -168l-125 -143l281 -451q58 -92 103 -132q47 -41 97 -48v-4h-213l-340 551l-168 -191v-217q0 -81 30 -104q31 -24 73 -35v-4h-307v4q40 11 72 35q30 23 30 104v1207q-40 12 -80 18q-39 6 -82 6q-111 0 -169 -61
t-58 -193v-96h327v-82h-327v-758q0 -102 36 -134q35 -31 128 -46v-4h-369v4q42 11 73 35q29 22 29 104v799h-389v-758zM453 1333q-111 0 -169 -61q-59 -62 -59 -193v-55h389q1 71 27 138q23 60 64 112q-82 31 -133 44q-57 15 -119 15z" />
    <glyph glyph-name="f_f_t" unicode="fft" horiz-adv-x="1564" 
d="M225 184q0 -102 36 -134q35 -31 128 -46v-4h-369v4q42 11 73 35q30 23 30 104v799h-205v4l207 66q11 91 49 162t97 119q60 49 132 74q75 26 150 26q37 0 81 -7q38 -6 71 -18v-94q62 79 151 119q91 41 188 41q37 0 81 -7q38 -6 71 -18v-94q-85 32 -132 44q-57 15 -120 15
q-111 0 -169 -61t-58 -193v-96h291l180 164v-164h401v-82h-401v-643q0 -99 47 -163q46 -62 143 -62q95 0 159 68q65 70 65 255h4q0 -201 -65 -310q-64 -107 -185 -107q-135 0 -203 86t-68 223v653h-368v-758q0 -102 36 -134q35 -31 128 -46v-4h-369v4q42 11 73 35
q29 22 29 104v799h-389v-758zM453 1333q-111 0 -169 -61q-59 -62 -59 -193v-55h389q1 71 27 138q23 60 64 112q-82 31 -133 44q-57 15 -119 15z" />
    <glyph glyph-name=".notdef" horiz-adv-x="2048" 
d="M205 -410v1844h1638v-1844h-1638zM1122 1102q88 0 138 -46q51 -47 51 -122q0 -96 -66 -174q-69 -82 -142 -146q-63 -56 -142 -131q-66 -63 -66 -131q0 -37 25 -71t63 -62l4 4q-12 8 -21 23q-8 13 -8 26q0 59 66 116q20 17 67.5 58t74.5 65q76 65 143 151q65 83 65 198
q0 133 -103 211t-255 78q-136 0 -223 -56q-88 -57 -88 -153q0 -22 7 -43q8 -23 19 -43h4q62 121 170 185q107 63 217 63zM997 2q-48 0 -81 -31q-31 -30 -31 -82t31 -82q32 -30 81 -30t81 30t32 82t-32 82q-33 31 -81 31z" />
    <glyph glyph-name=".null" horiz-adv-x="0" 
 />
    <glyph glyph-name="nonmarkingreturn" horiz-adv-x="682" 
 />
    <glyph glyph-name="space" unicode=" " horiz-adv-x="409" 
 />
    <glyph glyph-name="exclam" unicode="!" horiz-adv-x="307" 
d="M158 418h-8l-70 913h147zM154 205q47 0 80 -31q32 -30 32 -82t-32 -82t-80 -30q-50 0 -81 30q-32 30 -32 82t32 82q33 31 81 31z" />
    <glyph glyph-name="quotedbl" unicode="&#x22;" horiz-adv-x="731" 
d="M188 791l-65 540h137l-65 -540h-7zM537 791l-66 540h137l-65 -540h-6z" />
    <glyph glyph-name="numbersign" unicode="#" horiz-adv-x="1064" 
d="M154 860h213l143 471h25l-144 -471h402l143 471h25l-144 -471h207v-20h-213l-106 -348h206v-21h-213l-143 -471h-25l144 471h-402l-143 -471h-25l144 471h-207v21h213l106 348h-206v20zM279 492h401l106 348h-401z" />
    <glyph glyph-name="dollar" unicode="$" horiz-adv-x="804" 
d="M301 1536v-197q31 8 51 10q27 3 54 3q26 0 39 -1q26 -2 38 -3v188h23v-190q50 -7 106 -27q44 -16 99 -41v-281h-4q-38 105 -92 180q-49 68 -109 101v-563q102 -60 181 -142q77 -80 77 -202q0 -140 -68 -240q-67 -99 -190 -133v-203h-23v197q-27 -6 -54 -9t-58 -3
q-24 0 -36 1t-34 3v-189h-22v191q-71 11 -127 32q-53 20 -111 54v280h4q44 -114 105 -192q59 -76 129 -109v651q-101 57 -174 132q-72 74 -72 188q0 117 70 199t176 112v203h22zM358 1313q-18 0 -28 -1q-5 0 -14.5 -1t-14.5 -2v-482q72 -39 90 -49q50 -26 92 -51v561
q-33 14 -60 19q-31 6 -65 6zM90 1081q0 -80 54 -137q53 -56 135 -104v465q-88 -22 -138 -79q-51 -58 -51 -145zM418 18q10 0 34 2q6 1 16 3t15 2v563q-48 29 -91 51q-18 9 -50 26.5t-41 22.5v-647q29 -13 56 -17q40 -6 61 -6zM709 285q0 100 -60 169t-143 121v-546
q92 23 147 90q56 68 56 166z" />
    <glyph glyph-name="ampersand" unicode="&#x26;" horiz-adv-x="1187" 
d="M1004 0l-154 166q-61 -88 -150 -139q-90 -52 -239 -52q-193 0 -302 101q-108 100 -108 248q0 132 73 214q72 81 232 167q-85 100 -135 187q-51 88 -51 177q0 118 82 200q83 83 242 83q124 0 212 -68q87 -68 87 -186q0 -59 -28 -113q-26 -51 -73 -98q-46 -46 -104 -85
q-60 -41 -119 -73q10 -10 21 -22t24.5 -27t21.5 -24q68 -74 70 -76l281 -299q35 68 59 142q23 73 22 127q-1 56 -30 95t-94 51v4h350v-4q-59 -15 -98 -58q-38 -43 -69 -104q-25 -49 -56 -133q-28 -75 -64 -141l70 -76q76 -82 133 -127q58 -45 109 -53v-4h-215zM252 1114
q0 -80 57 -172q57 -91 146 -197q114 57 181 139q66 81 66 195t-65 182t-162 68q-113 0 -168 -60q-55 -59 -55 -155zM147 379q0 -141 101 -224t260 -83q105 0 186 28q82 28 133 88l-295 320q-15 16 -42.5 46.5t-40.5 44.5q-41 43 -78 87q-111 -55 -167 -131q-57 -76 -57 -176
z" />
    <glyph glyph-name="quotesingle" unicode="'" horiz-adv-x="382" 
d="M188 791l-65 540h137l-65 -540h-7z" />
    <glyph glyph-name="parenleft" unicode="(" horiz-adv-x="479" 
d="M82 635q0 151 36 280q36 130 93 236q57 107 132 195q69 82 153 159l4 -4q-134 -145 -220 -376q-85 -227 -85 -490q0 -264 85 -491q86 -229 220 -375l-4 -5q-80 74 -153 160q-75 88 -132 195t-93 235q-36 129 -36 281z" />
    <glyph glyph-name="parenright" unicode=")" horiz-adv-x="479" 
d="M397 635q0 -152 -36 -281q-36 -128 -93 -235t-132 -195q-77 -90 -152 -160l-4 5q134 146 220 375q85 227 85 491q0 263 -85 490q-86 231 -220 376l4 4q79 -73 152 -159q75 -88 132 -195q57 -106 93 -236q36 -129 36 -280z" />
    <glyph glyph-name="asterisk" unicode="*" horiz-adv-x="761" 
d="M135 754l238 235l-332 53l37 111l297 -152l-51 330h114l-51 -330l297 152l37 -111l-332 -53l238 -235l-95 -68l-151 301l-152 -301z" />
    <glyph glyph-name="plus" unicode="+" horiz-adv-x="839" 
d="M41 645h369v379h22v-379h367v-20h-367v-379h-22v379h-369v20z" />
    <glyph glyph-name="comma" unicode="," horiz-adv-x="307" 
d="M72 233h141l-209 -540h-4z" />
    <glyph glyph-name="hyphen" unicode="-" horiz-adv-x="491" 
d="M41 686h410v-102h-410v102z" />
    <glyph glyph-name="period" unicode="." horiz-adv-x="307" 
d="M154 205q47 0 80 -31q32 -30 32 -82t-32 -82t-80 -30q-50 0 -81 30q-32 30 -32 82t32 82q33 31 81 31z" />
    <glyph glyph-name="slash" unicode="/" horiz-adv-x="544" 
d="M25 0h-25l520 1331h25z" />
    <glyph glyph-name="zero" unicode="0" horiz-adv-x="1064" 
d="M532 1352q113 0 205 -50q91 -49 155 -141q62 -89 97 -217q35 -129 35 -278q0 -150 -35 -279q-35 -128 -97 -217q-63 -90 -155 -140t-205 -50q-112 0 -204 50t-155 140q-62 89 -97 217q-35 129 -35 279q0 149 35 278q35 128 97 217q64 92 155 141q92 50 204 50zM532 1331
q-94 0 -164 -48q-71 -48 -117 -136q-47 -89 -69 -211q-22 -120 -22 -270q0 -151 22 -271q22 -123 69 -210q46 -86 117 -136q70 -49 164 -49q95 0 165 49q71 50 117 136q46 87 69 210q22 120 22 271q0 150 -22 270q-22 122 -69 211q-46 88 -117 136t-165 48z" />
    <glyph glyph-name="one" unicode="1" horiz-adv-x="430" 
d="M-20 948l348 445v-1250q0 -82 29 -104q31 -24 73 -35v-4h-311v4q40 11 72 35q30 23 30 104v1020l-241 -219v4z" />
    <glyph glyph-name="two" unicode="2" horiz-adv-x="937" 
d="M74 4q174 154 352 329q168 165 295 337q-80 -83 -147 -104q-66 -21 -128 -21q-101 0 -180 32q-78 31 -129 84q-50 51 -78 123q-26 66 -26 144q0 98 35 179q34 78 95 133t141 83q82 29 173 29q103 0 181 -34q81 -35 132 -89q50 -53 78 -128q27 -72 27 -151
q0 -103 -47 -194t-137 -187q-86 -91 -226 -213q-136 -118 -307 -274h729v-82h-833v4zM133 983q0 -79 24 -152q25 -77 68 -131q45 -57 113 -92t154 -35q117 0 208 89t91 253q0 79 -24 152q-24 74 -70 130q-47 57 -113 91q-68 35 -154 35q-117 0 -207 -87t-90 -253z" />
    <glyph glyph-name="three" unicode="3" horiz-adv-x="847" 
d="M807 383q0 -91 -38 -167q-37 -74 -99 -127t-144 -81q-81 -28 -168 -28q-148 0 -254 53q-104 52 -104 153q0 29 7 53q8 28 22 54h4q69 -153 170 -216t213 -63q123 0 213 78t90 219q0 152 -112 258q-110 104 -290 125v11q149 24 246 95q96 70 96 195q0 64 -25 113
q-24 46 -67 83q-38 32 -96 51q-56 18 -113 18q-128 0 -221 -73q-92 -72 -98 -233h-4q1 190 101 294q99 104 276 104q146 0 245 -81t99 -216q0 -93 -74 -178q-75 -86 -197 -138q61 -12 120 -45q61 -34 104 -79q44 -45 71 -106q27 -60 27 -126z" />
    <glyph glyph-name="four" unicode="4" horiz-adv-x="933" 
d="M797 4v-4h-312v4q42 11 73 35q30 23 30 104v185h-608l714 1065v-983h260v-82h-260v-185q0 -81 30 -104q31 -24 73 -35zM61 410h527v784z" />
    <glyph glyph-name="five" unicode="5" horiz-adv-x="851" 
d="M795 379q0 -93 -37 -166q-39 -76 -96 -126q-61 -54 -139 -80q-79 -27 -161 -27q-140 0 -241 53t-101 153q0 26 8 53q9 32 21 54h4q69 -153 164 -216t203 -63q117 0 205 79t88 224q0 194 -151 306q-148 110 -433 190l133 518h549v-82h-547l-88 -346q311 -89 464 -208
q155 -120 155 -316z" />
    <glyph glyph-name="six" unicode="6" horiz-adv-x="950" 
d="M41 625q0 167 47 303q46 133 124 228q77 93 178 144q104 52 210 52q122 0 205 -40q84 -40 84 -112q0 -16 -5 -38q-3 -15 -16 -40h-4q-58 96 -138 142q-82 47 -171 47q-85 0 -159 -37t-130 -114q-55 -76 -88 -199t-33 -293q0 -41 1 -61q1 -11 2.5 -29.5t1.5 -26.5
q23 49 62 102q36 49 88 90q51 40 111 64t132 24q87 0 154 -29q68 -30 115 -81q46 -51 72 -122q25 -69 25 -153q0 -110 -36 -198q-36 -89 -94 -148q-59 -61 -134 -90q-77 -30 -156 -30q-115 0 -201 48t-140 134q-52 82 -80 205q-27 119 -27 258zM489 752q-92 0 -179 -43
q-89 -44 -158 -168q21 -244 118 -385q99 -144 258 -144q128 0 208 98q79 97 79 259q0 173 -85 277q-86 106 -241 106z" />
    <glyph glyph-name="seven" unicode="7" horiz-adv-x="854" 
d="M854 1327q-162 -312 -311 -655q-145 -334 -267 -672h-133v4l658 1245h-781v82h834v-4z" />
    <glyph glyph-name="eight" unicode="8" horiz-adv-x="950" 
d="M475 1352q171 0 277 -89q104 -88 104 -231q0 -122 -79 -204t-214 -103q167 -21 261 -120q96 -101 96 -247q0 -166 -121 -272t-324 -106q-202 0 -323 106t-121 272q0 147 95 247q94 99 261 120q-135 21 -214 103t-79 204q0 142 105 231q106 89 276 89zM475 1327
q-134 0 -200 -82q-66 -83 -66 -213t66 -213q66 -82 200 -82t200 82q66 83 66 213t-66 213q-66 82 -200 82zM475 713q-164 0 -245 -99q-80 -98 -80 -256q0 -157 80 -255q81 -99 245 -99t245 99t81 255q0 157 -81 256t-245 99z" />
    <glyph glyph-name="nine" unicode="9" horiz-adv-x="950" 
d="M909 707q0 -168 -47 -304q-46 -133 -124 -228q-77 -93 -178 -144q-102 -51 -210 -51q-124 0 -205 39q-84 40 -84 112q0 12 6 38q4 19 15 40h4q57 -95 138 -141q84 -48 171 -48q85 0 159 37t130 114q54 75 88 200q33 123 33 293q0 40 -1 60t-3 56q-21 -45 -63 -102
q-36 -49 -88 -90t-110 -64q-60 -24 -132 -24q-88 0 -155 29q-68 30 -115 81q-45 49 -71 122q-26 72 -26 153q0 109 36 198t94 148q59 61 134 90q79 31 156 31q117 0 202 -48q83 -47 139 -135q54 -85 81 -204q26 -114 26 -258zM135 963q0 -174 85 -278q85 -105 241 -105
q92 0 179 43q91 45 159 168q-21 243 -119 385q-98 143 -258 143q-129 0 -208 -97t-79 -259z" />
    <glyph glyph-name="colon" unicode=":" horiz-adv-x="307" 
d="M154 205q47 0 80 -31q32 -30 32 -82t-32 -82t-80 -30q-50 0 -81 30q-32 30 -32 82t32 82q33 31 81 31zM154 1044q48 0 80 -30t32 -82t-32 -82q-33 -31 -80 -31q-48 0 -81 31q-32 30 -32 82t32 82q31 30 81 30z" />
    <glyph glyph-name="semicolon" unicode=";" horiz-adv-x="307" 
d="M154 1044q48 0 80 -30t32 -82t-32 -82q-33 -31 -80 -31q-48 0 -81 31q-32 30 -32 82t32 82q31 30 81 30zM72 233h141l-209 -540h-4z" />
    <glyph glyph-name="less" unicode="&#x3c;" horiz-adv-x="839" 
d="M41 633v20l758 389v-24l-729 -375l729 -375v-24z" />
    <glyph glyph-name="equal" unicode="=" horiz-adv-x="839" 
d="M41 809h758v-21h-758v21zM41 481h758v-20h-758v20z" />
    <glyph glyph-name="greater" unicode="&#x3e;" horiz-adv-x="839" 
d="M799 633l-758 -389v24l729 375l-729 375v24l758 -389v-20z" />
    <glyph glyph-name="question" unicode="?" horiz-adv-x="731" 
d="M449 1305q-111 0 -218 -63q-108 -64 -170 -185h-4q-11 20 -19 43q-7 21 -7 43q0 95 88 152q89 57 223 57q152 0 255 -78t103 -211q0 -116 -65 -199q-67 -85 -142 -150q-25 -22 -73 -63t-70 -60q-65 -56 -65 -116q0 -15 7 -26q9 -15 21 -23l-4 -4q-40 29 -63 61
q-25 34 -25 72q0 68 66 131q79 75 142 131q73 64 142 146q66 78 66 174q0 75 -51 121q-52 47 -137 47zM324 205q47 0 80 -31q32 -30 32 -82t-32 -82t-80 -30q-50 0 -81 30q-32 30 -32 82t32 82q33 31 81 31z" />
    <glyph glyph-name="at" unicode="@" horiz-adv-x="1441" 
d="M1094 125q-88 0 -140 48q-53 48 -53 159v65q-12 -127 -92 -204q-79 -76 -182 -76q-88 0 -147 41q-58 40 -58 100q0 17 12 29q11 11 35 24l432 217v217q0 78 -39 126q-40 49 -110 49q-45 0 -87 -21q-44 -22 -75 -53q-33 -33 -51 -77q-19 -47 -15 -89q-24 -17 -52 -26
q-27 -9 -54 -9q-8 60 39 117q44 54 127 112q78 55 130 75q51 20 83 20q101 0 154 -58t53 -149v-428q0 -90 33 -119q36 -31 89 -31q93 0 162 108q70 110 70 300q0 123 -44 232q-42 105 -124 187q-79 79 -192 123q-112 44 -244 44q-142 0 -270 -51q-123 -49 -213 -139
t-139 -212q-50 -124 -50 -268q0 -145 46 -265q47 -122 130 -210q82 -87 207 -137q124 -50 274 -50q91 0 173 21q88 22 153 55l10 -18q-72 -37 -156 -58q-81 -20 -180 -20q-155 0 -282 51t-214 141t-135 216q-49 129 -49 274q0 147 53 276q53 128 143 218q91 92 219 144
q126 52 280 52q131 0 248 -44t199 -123q84 -81 131 -191q48 -112 48 -248q0 -219 -85 -343t-201 -124zM528 289q0 -33 33 -60q32 -26 90 -26q104 0 176 71q74 72 74 185v47l-340 -172q-13 -5 -23 -19q-10 -13 -10 -26z" />
    <glyph glyph-name="A" unicode="A" horiz-adv-x="1062" 
d="M1010 176q33 -86 84 -122q49 -34 108 -50v-4h-397v4q51 16 88 48q39 34 6 122l-131 338h-565l-105 -268q-47 -119 -12 -169t117 -71v-4h-363v4q74 27 131 74q55 45 105 168l389 997q-33 39 -73 57q-46 21 -85 27v4h193l24 62zM539 1108q-20 45 -29 63q-19 36 -29 50
l-245 -627h501z" />
    <glyph glyph-name="B" unicode="B" horiz-adv-x="1007" 
d="M31 1327v4h461q203 0 305 -75t102 -197q0 -139 -84 -230q-83 -91 -240 -118q192 -12 293 -96q99 -83 99 -214q0 -184 -130 -292q-132 -109 -370 -109h-436v4q40 11 72 35q30 23 30 104v1045q0 82 -30 104q-32 24 -72 35zM438 1311h-198v-590h225q154 0 243 71t89 212
q0 127 -84 217t-275 90zM459 700h-219v-680h245q177 0 278 82t101 244q0 74 -23 137q-24 66 -72 114q-50 50 -126 76q-78 27 -184 27z" />
    <glyph glyph-name="C" unicode="C" horiz-adv-x="1200" 
d="M670 1323q-106 0 -201 -43q-99 -45 -169 -121q-74 -80 -116 -191q-43 -113 -43 -253q0 -153 41 -274q40 -118 116 -200t179 -123q105 -42 230 -42q100 0 193 32q92 32 159 97q67 66 109 167t46 240h7q-5 -305 -152 -469q-147 -163 -410 -163q-142 0 -256 48
q-115 48 -194 135q-81 88 -124 209q-44 123 -44 267q0 162 57 294q56 130 151 225t215 144q123 50 249 50q135 0 225 -30t192 -87v-354h-4q-51 239 -168 341q-116 101 -288 101z" />
    <glyph glyph-name="D" unicode="D" horiz-adv-x="1261" 
d="M31 1327v4h440q191 0 332 -48q143 -49 233 -133q94 -88 139 -203q46 -117 46 -255q0 -143 -51 -274q-49 -127 -149 -219q-102 -94 -248 -146q-150 -53 -343 -53h-399v4q40 11 72 35q30 23 30 104v1045q0 82 -30 104q-32 24 -72 35zM446 1311h-206v-1291h194q165 0 295 49
q125 47 212 134q85 85 127 207t42 264q0 132 -40 248q-41 117 -121 202q-84 89 -207 137q-127 50 -296 50z" />
    <glyph glyph-name="E" unicode="E" horiz-adv-x="921" 
d="M494 680h-254v-660h346q122 0 195 48q71 47 137 176h4l-29 -244h-862v4q40 11 72 35q30 23 30 104v1045q0 82 -30 104q-32 24 -72 35v4h841l29 -244h-4q-67 132 -136 177q-71 47 -196 47h-325v-611h254q89 0 137 48q47 47 74 126h4v-368h-4q-27 80 -74 127t-137 47z" />
    <glyph glyph-name="F" unicode="F" horiz-adv-x="901" 
d="M240 184q0 -103 35 -134t128 -46v-4h-372v4q40 11 72 35q30 23 30 104v1045q0 82 -30 104q-32 24 -72 35v4h841l29 -244h-4q-67 132 -136 177q-71 47 -196 47h-325v-662h274q90 0 137 47t74 127h4v-368h-4q-27 80 -74 127t-137 47h-274v-445z" />
    <glyph glyph-name="G" unicode="G" horiz-adv-x="1347" 
d="M578 635v82h667v-717h-102v502q-22 -248 -157 -386q-133 -136 -357 -136q-135 0 -243 49q-109 49 -185 137t-118 209t-42 262q0 169 57 302q56 132 154 225q97 92 224 140q128 48 267 48q151 0 255 -27q103 -27 214 -90v-354l-4 -2q-60 244 -184 341t-340 97
q-114 0 -214 -41t-172 -119q-75 -81 -114 -193q-41 -117 -41 -264t38 -267q36 -114 108 -197q69 -80 167 -122q97 -42 214 -42q99 0 180 29q84 30 147 93q65 65 103 158q38 95 43 230v53h-565z" />
    <glyph glyph-name="H" unicode="H" horiz-adv-x="1314" 
d="M240 143q0 -82 29 -104q31 -24 73 -35v-4h-311v4q40 11 72 35q30 23 30 104v1045q0 82 -30 104q-32 24 -72 35v4h311v-4q-42 -11 -73 -35q-29 -22 -29 -104v-488h835v488q0 82 -29 104q-31 24 -73 35v4h311v-4q-42 -11 -73 -35q-29 -22 -29 -104v-1045q0 -82 29 -104
q31 -24 73 -35v-4h-311v4q42 11 73 35q29 22 29 104v537h-835v-537z" />
    <glyph glyph-name="I" unicode="I" horiz-adv-x="372" 
d="M240 143q0 -82 29 -104q31 -24 73 -35v-4h-311v4q40 11 72 35q30 23 30 104v1045q0 82 -30 104q-32 24 -72 35v4h311v-4q-42 -11 -73 -35q-29 -22 -29 -104v-1045z" />
    <glyph glyph-name="J" unicode="J" horiz-adv-x="372" 
d="M133 -12v1200q0 82 -30 104q-32 24 -72 35v4h311v-4q-42 -11 -73 -35q-29 -22 -29 -104v-1188q0 -74 -12 -123q-12 -50 -41 -85t-82 -62q-60 -31 -136 -58v4q101 45 132 114q32 70 32 198z" />
    <glyph glyph-name="K" unicode="K" horiz-adv-x="886" 
d="M240 184q0 -103 35 -134t128 -46v-4h-372v4q40 11 72 35q30 23 30 104v1045q0 82 -30 104q-32 24 -72 35v4h372v-4q-93 -15 -128 -46t-35 -134v-537l415 477q105 119 93 169t-84 71v4h364v-4q-87 -28 -166 -75q-78 -46 -182 -167l-225 -258l401 -643q58 -92 103 -132
q46 -40 98 -48v-4h-213l-461 743l-143 -163v-396z" />
    <glyph glyph-name="L" unicode="L" horiz-adv-x="860" 
d="M240 1147v-1127h284q123 0 196 48q69 46 136 176h4l-29 -244h-800v4q40 11 72 35q30 23 30 104v1045q0 82 -30 104q-32 24 -72 35v4h372v-4q-93 -15 -128 -46t-35 -134z" />
    <glyph glyph-name="M" unicode="M" horiz-adv-x="1441" 
d="M156 246q0 -122 46 -171q48 -51 117 -71v-4h-350v4q71 21 118 71q46 49 46 171v1005q-24 33 -54 51q-29 17 -69 25v4h213l498 -1194l498 1194h192v-4q-42 -11 -73 -35q-29 -22 -29 -104v-1045q0 -82 29 -104q31 -24 73 -35v-4h-295v4q39 11 62 34q24 24 24 105v1090
l-520 -1253l-496 1175q-10 24 -15 34l-15 30v-973z" />
    <glyph glyph-name="N" unicode="N" horiz-adv-x="1204" 
d="M156 246q0 -122 46 -171q48 -51 117 -71v-4h-350v4q71 21 118 71q46 49 46 171v938q-55 66 -97 97q-41 31 -87 46v4h209l901 -1192v946q0 122 -46 171q-47 50 -118 71v4h350v-4q-71 -21 -118 -71q-46 -49 -46 -171v-1146h-4l-882 1169q-11 15 -21 27q-12 14 -18 22v-911z
" />
    <glyph glyph-name="O" unicode="O" horiz-adv-x="1419" 
d="M1378 666q0 -148 -48 -274q-48 -125 -135 -217q-86 -90 -211 -143q-123 -52 -275 -52q-151 0 -274 52q-125 53 -211 143q-87 92 -135 217q-48 126 -48 274q0 147 48 273q48 125 135 217q86 90 211 143q126 53 274 53q149 0 275 -53q125 -53 211 -143q87 -92 135 -217
q48 -126 48 -273zM154 735q0 -154 43 -286q44 -136 122 -231t194 -152q115 -56 253 -56q110 0 203 44q90 43 157 122q66 78 103 185t37 235q0 152 -44 287q-42 130 -124 230q-78 96 -193 154q-111 56 -252 56q-109 0 -202 -44q-92 -44 -158 -122q-65 -77 -103 -186
q-36 -104 -36 -236z" />
    <glyph glyph-name="P" unicode="P" horiz-adv-x="1015" 
d="M240 184q0 -103 35 -134t128 -46v-4h-372v4q40 11 72 35q30 23 30 104v1045q0 82 -30 104q-32 24 -72 35v4h461q249 0 376 -103t127 -274q0 -214 -143 -338t-406 -124h-206v-308zM438 1311h-198v-799h225q199 0 313 96q115 97 115 291q0 82 -26 160q-25 74 -80 131
q-53 55 -141 88q-87 33 -208 33z" />
    <glyph glyph-name="Q" unicode="Q" horiz-adv-x="1419" 
d="M1081 -205h160v-102h-143q-55 0 -92 10q-41 11 -80 40q-43 32 -91 87q-16 18 -126 150q-151 0 -274 52q-125 53 -211 143q-87 92 -135 217q-48 126 -48 274q0 147 48 273q48 125 135 217q86 90 211 143q126 53 274 53q149 0 275 -53q125 -53 211 -143q87 -92 135 -217
q48 -126 48 -273q0 -148 -48 -274q-47 -124 -134 -217q-84 -89 -209 -143q-122 -52 -270 -52q70 -71 120 -108q49 -38 90 -54q42 -17 75 -20q36 -3 79 -3zM154 735q0 -154 43 -286q44 -136 122 -231t194 -152q115 -56 253 -56q110 0 203 44q90 43 157 122q66 78 103 185
t37 235q0 152 -44 287q-42 130 -124 230q-78 96 -193 154q-111 56 -252 56q-109 0 -202 -44q-92 -44 -158 -122q-65 -77 -103 -186q-36 -104 -36 -236z" />
    <glyph glyph-name="R" unicode="R" horiz-adv-x="929" 
d="M240 184q0 -103 35 -134t128 -46v-4h-372v4q40 11 72 35q30 23 30 104v1045q0 82 -30 104q-32 24 -72 35v4h461q206 0 312 -80q105 -79 105 -211q0 -174 -119 -277q-121 -104 -344 -104q34 -6 62 -24t57 -57l291 -394q61 -85 107 -130q44 -43 94 -50v-4h-205l-393 563
q-40 58 -73 77q-34 19 -85 19h-61v-475zM438 1311h-198v-631h225q156 0 246 81t90 243q0 128 -85 217q-85 90 -278 90z" />
    <glyph glyph-name="S" unicode="S" horiz-adv-x="804" 
d="M418 18q128 0 210 74q81 74 81 193q0 139 -106 219t-232 147q-127 67 -233 149q-105 81 -105 222q0 78 29 136q30 61 81 104q48 41 119 66q68 24 144 24q96 0 166 -21q78 -23 139 -53v-281h-4q-62 171 -148 244q-84 72 -201 72q-114 0 -192 -64q-76 -63 -76 -168
q0 -114 106 -185q105 -70 231 -138q124 -67 231 -155q106 -88 106 -232q0 -176 -105 -284q-104 -107 -288 -107q-101 0 -180 26q-83 27 -150 66v280h4q62 -171 160 -253q96 -81 213 -81z" />
    <glyph glyph-name="T" unicode="T" horiz-adv-x="1101" 
d="M0 1087l29 244h1044l29 -244h-4q-67 132 -136 177q-71 47 -196 47h-162v-1168q0 -81 30 -104q31 -24 73 -35v-4h-312v4q42 11 73 35q30 23 30 104v1168h-162q-125 0 -196 -47q-69 -45 -136 -177h-4z" />
    <glyph glyph-name="U" unicode="U" horiz-adv-x="1187" 
d="M1049 467v618q0 121 -47 171q-48 51 -117 71v4h350v-4q-71 -21 -118 -71q-46 -49 -46 -171v-618q0 -231 -128 -359t-347 -128q-218 0 -346 128q-127 127 -127 359v721q0 82 -30 104q-31 24 -73 35v4h312v-4q-42 -11 -73 -35q-30 -22 -30 -104v-721q0 -200 110 -310
t300 -110t300 110t110 310z" />
    <glyph glyph-name="V" unicode="V" horiz-adv-x="1062" 
d="M53 1155q-33 86 -84 122q-49 34 -108 50v4h397v-4q-51 -16 -88 -48q-39 -34 -6 -122l411 -1059l390 989q45 120 11 169q-35 50 -116 71v4h363v-4q-74 -27 -131 -74q-56 -45 -105 -168l-448 -1146z" />
    <glyph glyph-name="W" unicode="W" horiz-adv-x="1411" 
d="M53 1155q-33 86 -84 122q-49 34 -108 50v4h366v-4q-41 -11 -70 -44q-30 -35 7 -126l411 -1059l125 318l-288 739q-33 83 -78 121q-42 35 -96 51v4h368v-4q-50 -15 -83 -48q-34 -34 -1 -122l232 -608l211 538q45 120 11 169q-35 50 -116 71v4h344v-4q-72 -28 -120 -73
q-51 -48 -97 -169l-221 -567l158 -420l389 989q45 116 14 171q-30 54 -113 69v4h357v-4q-74 -27 -131 -74q-56 -45 -105 -168l-448 -1146l-174 444l-174 -444z" />
    <glyph glyph-name="X" unicode="X" horiz-adv-x="987" 
d="M168 246l276 393l-356 516q-55 82 -100 118q-44 35 -97 54v4h330v-4q-49 -15 -58 -51q-9 -37 46 -119l303 -440l262 370q82 117 64 168t-95 72v4h342v-4q-82 -28 -143 -76q-63 -49 -145 -166l-273 -387l361 -522q55 -82 100 -118t96 -54v-4h-329v4q49 15 58 51
q9 37 -46 119l-307 447l-267 -377q-82 -116 -63 -168q18 -51 94 -72v-4h-342v4q83 28 144 76q63 49 145 166z" />
    <glyph glyph-name="Y" unicode="Y" horiz-adv-x="843" 
d="M745 1087q64 120 34 169q-31 50 -107 71v4h350v-4q-77 -27 -133 -73q-59 -48 -121 -169l-289 -550v-392q0 -81 30 -104q31 -24 73 -35v-4h-312v4q42 11 73 35q30 23 30 104v383l-334 629q-45 84 -86 119t-92 53v4h348v-4q-50 -15 -72 -50q-22 -36 23 -120l309 -594z" />
    <glyph glyph-name="Z" unicode="Z" horiz-adv-x="972" 
d="M0 0v4l834 1307h-478q-124 0 -195 -47q-69 -45 -136 -177h-5l29 244h914v-4l-834 -1307h508q123 0 196 48q69 46 136 176h4l-29 -244h-944z" />
    <glyph glyph-name="bracketleft" unicode="[" horiz-adv-x="479" 
d="M133 -225v1720h326v-20h-219v-1680h219v-20h-326z" />
    <glyph glyph-name="backslash" unicode="\" horiz-adv-x="544" 
d="M520 0l-520 1331h25l520 -1331h-25z" />
    <glyph glyph-name="bracketright" unicode="]" horiz-adv-x="479" 
d="M346 -225h-326v20h220v1680h-220v20h326v-1720z" />
    <glyph glyph-name="asciicircum" unicode="^" horiz-adv-x="802" 
d="M389 1331h25l389 -758h-35l-367 717l-366 -717h-35z" />
    <glyph glyph-name="underscore" unicode="_" horiz-adv-x="901" 
d="M41 -287h819v-20h-819v20z" />
    <glyph glyph-name="grave" unicode="`" 
d="M571 1147l-274 369h154l124 -369h-4z" />
    <glyph glyph-name="a" unicode="a" horiz-adv-x="821" 
d="M209 926q103 71 164 94q63 24 102 24q115 0 174 -71q60 -72 60 -187v-610q0 -65 20 -86q21 -22 51 -22q22 0 42 13t42 44l4 -2q-22 -55 -57 -93q-37 -40 -88 -40q-47 0 -82 39q-35 40 -35 143v162q-15 -166 -113 -259q-100 -95 -229 -95q-109 0 -181 51q-73 52 -73 123
q0 18 16 36q14 15 44 31l536 268v277q0 97 -50 158q-49 59 -155 59q-47 0 -99 -25q-48 -23 -90 -62q-39 -36 -64 -86q-23 -45 -21 -93q-28 -17 -55 -27t-58 -10q-8 60 44 119q52 60 151 127zM117 184q0 -40 47 -76q46 -36 129 -36q129 0 221 93q92 94 92 243v59l-446 -225
q-19 -8 -31 -23t-12 -35z" />
    <glyph glyph-name="b" unicode="b" horiz-adv-x="1050" 
d="M106 -41h-4v1368h-204v4l307 99v-713q23 59 60 118q36 59 84 105q49 48 113 76q63 28 146 28q99 0 171 -36q75 -38 126 -102q51 -65 78 -154q27 -90 27 -195q0 -138 -47 -247q-46 -106 -122 -181q-77 -75 -171 -112q-95 -37 -195 -37q-106 0 -181 21q-67 19 -130 46z
M557 956q-93 0 -185 -50q-90 -49 -167 -197v-559q51 -57 125 -101q73 -43 176 -43q184 0 295 138q110 137 110 366q0 96 -24 178q-23 79 -71 141q-47 60 -111 94q-63 33 -148 33z" />
    <glyph glyph-name="c" unicode="c" horiz-adv-x="960" 
d="M518 1016q-76 0 -148 -32q-70 -31 -123 -89q-53 -57 -84 -141q-32 -85 -32 -187q0 -117 33 -209t87 -155t128 -96q73 -33 156 -33q80 0 151 25t125 79q52 52 87 136q33 80 38 198h4q-1 -256 -120 -394q-118 -138 -337 -138q-99 0 -182 37q-80 36 -143 105q-57 62 -93 162
q-34 93 -34 208q0 127 45 229q44 100 118 174q72 72 166 111q92 38 193 38q75 0 139 -20q72 -22 118 -56q51 -37 80 -88q30 -52 30 -116q0 -26 -9 -62q-8 -31 -24 -65h-4q-49 102 -100 193q-43 76 -81 116q-39 41 -81 55q-43 15 -103 15z" />
    <glyph glyph-name="d" unicode="d" horiz-adv-x="1060" 
d="M948 143q0 -81 30 -104q31 -24 73 -35v-4h-205v307q-22 -54 -61 -118q-36 -59 -84 -105q-50 -49 -112 -76q-63 -28 -147 -28q-99 0 -171 36q-75 38 -126 102q-50 63 -77 154q-27 90 -27 195q0 138 47 247q46 106 122 181q77 75 171 112q95 37 194 37q88 0 154 -15
t117 -36v334h-205v4l307 99v-1287zM494 68q93 0 185 50q90 49 167 197v559q-51 57 -125 101q-73 43 -176 43q-184 0 -295 -138t-111 -366q0 -92 25 -178q23 -79 71 -141q47 -60 111 -94q63 -33 148 -33z" />
    <glyph glyph-name="e" unicode="e" horiz-adv-x="929" 
d="M940 512q-21 -259 -123 -395q-102 -137 -313 -137q-108 0 -194 37q-83 36 -149 105q-60 63 -96 162q-34 93 -34 208q0 126 44 229t115 174q72 72 164 111q89 38 189 38q89 0 150 -20q68 -22 107 -53q41 -32 62 -73t21 -79h-693q-27 -51 -42 -114t-15 -136q0 -117 33 -209
q33 -91 87 -154q52 -61 127 -95q72 -33 155 -33q160 0 267 103q107 102 134 331h4zM510 1018q-93 0 -176 -47q-81 -46 -133 -131h557q-8 64 -68 121t-180 57z" />
    <glyph glyph-name="f" unicode="f" horiz-adv-x="491" 
d="M225 184q0 -102 36 -134q35 -31 128 -46v-4h-369v4q42 11 73 35q30 23 30 104v799h-205v4l205 66q1 99 39 179q39 82 96 132q62 55 136 82q78 29 159 29q37 0 81 -7q38 -6 71 -18v-94q-82 31 -133 44q-57 15 -119 15q-111 0 -169 -61q-59 -62 -59 -193v-96h428v-82h-428
v-758z" />
    <glyph glyph-name="g" unicode="g" horiz-adv-x="819" 
d="M422 1044q34 0 76 -5q35 -4 69 -15h293v-82h-184q38 -28 70 -84q30 -53 30 -119q0 -148 -103 -239q-104 -92 -276 -92q-60 0 -104 10q-53 12 -86 26q-44 -33 -69 -63q-27 -33 -27 -66q0 -48 41 -62q39 -13 122 -13h279q142 0 218 -55q75 -54 75 -142q0 -64 -48 -130
q-50 -68 -128 -120t-186 -87q-103 -34 -216 -34q-110 0 -189 43t-79 146q0 37 34 111q35 75 156 173q-62 6 -111 31q-46 24 -46 82q0 46 39 83q47 45 129 108q-77 39 -117 107q-41 70 -41 157q0 148 105 239q106 92 274 92zM395 1018q-111 0 -177 -74t-66 -209
q0 -55 16 -107q17 -56 49 -98q31 -41 85 -69q52 -27 124 -27q114 0 179 70t65 213q0 51 -17 107t-49 98q-31 41 -85 69q-53 27 -124 27zM82 -70q0 -104 82 -140t211 -36q184 0 288 65q103 64 103 158q0 72 -53 119t-150 47h-295h-37q-12 0 -34 2q-75 -68 -94 -114
q-21 -49 -21 -101z" />
    <glyph glyph-name="h" unicode="h" horiz-adv-x="987" 
d="M215 143q0 -81 30 -104q32 -24 72 -35v-4h-307v4q42 11 73 35q30 23 30 104v1184h-205v4l307 99v-752q67 186 156 276t219 90q140 0 212 -89q72 -88 72 -230v-582q0 -81 30 -104q31 -24 73 -35v-4h-307v4q40 11 72 35q30 23 30 104v572q0 105 -55 170t-160 65
q-102 0 -189 -62q-91 -65 -153 -218v-527z" />
    <glyph glyph-name="i" unicode="i" horiz-adv-x="337" 
d="M172 1403q38 0 66 -26q26 -25 26 -66q0 -42 -26 -67t-66 -25t-66 25t-26 67q0 41 26 66q28 26 66 26zM225 143q0 -81 30 -104q31 -24 73 -35v-4h-308v4q42 11 73 35q30 23 30 104v799h-205v4l307 98v-901z" />
    <glyph glyph-name="j" unicode="j" horiz-adv-x="327" 
d="M172 1403q38 0 66 -26q26 -25 26 -66q0 -42 -26 -67t-66 -25t-66 25t-26 67q0 41 26 66q28 26 66 26zM123 -12v954h-205v4l307 98v-1044q0 -76 -10 -123q-11 -50 -40 -85q-30 -36 -82 -63q-63 -33 -134 -57v4q101 45 132 114q32 70 32 198z" />
    <glyph glyph-name="k" unicode="k" horiz-adv-x="765" 
d="M215 143q0 -81 30 -104q32 -24 72 -35v-4h-307v4q42 11 73 35q30 23 30 104v1184h-205v4l307 99v-1039l340 389q103 118 91 168q-12 51 -83 72v4h365v-4q-85 -28 -166 -74q-76 -44 -182 -168l-125 -143l280 -451q56 -91 104 -132q47 -41 97 -48v-4h-213l-340 551
l-168 -191v-217z" />
    <glyph glyph-name="l" unicode="l" horiz-adv-x="327" 
d="M215 143q0 -81 30 -104q32 -24 72 -35v-4h-307v4q42 11 73 35q30 23 30 104v1184h-205v4l307 99v-1287z" />
    <glyph glyph-name="m" unicode="m" horiz-adv-x="1533" 
d="M225 143q0 -81 30 -104q31 -24 73 -35v-4h-308v4q42 11 73 35q30 23 30 104v799h-205v4l307 98v-366q66 182 144 274t213 92q117 0 179 -77t62 -201v-88q67 183 150 275q82 91 207 91q122 0 181 -77q60 -78 60 -201v-623q0 -81 30 -104q31 -24 73 -35v-4h-307v4
q40 11 72 35q30 23 30 104v602q0 92 -42 149q-41 56 -130 56t-174 -63q-87 -64 -150 -217v-527q0 -81 30 -104q31 -24 73 -35v-4h-308v4q42 11 73 35q30 23 30 104v602q0 91 -47 149q-46 56 -146 56q-82 0 -162 -63q-79 -63 -141 -217v-527z" />
    <glyph glyph-name="n" unicode="n" horiz-adv-x="997" 
d="M225 143q0 -81 30 -104q31 -24 73 -35v-4h-308v4q42 11 73 35q30 23 30 104v799h-205v4l307 98v-366q67 186 156 276t219 90q140 0 212 -89q73 -90 73 -230v-582q0 -82 29 -104q31 -24 73 -35v-4h-307v4q42 11 73 35q29 22 29 104v572q0 105 -55 170t-160 65
q-102 0 -189 -62q-91 -65 -153 -218v-527z" />
    <glyph glyph-name="o" unicode="o" horiz-adv-x="1089" 
d="M1059 512q0 -116 -37 -212q-38 -99 -104 -168q-68 -71 -163 -112q-93 -40 -210 -40t-210 40q-95 41 -163 112q-66 69 -104 168q-37 96 -37 212t37 212q38 99 104 168q68 71 163 112q93 40 210 40t210 -40q95 -41 163 -112q66 -69 104 -168q37 -96 37 -212zM145 567
q0 -113 30 -215q31 -105 86 -179q58 -78 139 -122q82 -45 186 -45q160 0 259 127t99 324q0 110 -31 215q-30 103 -87 179q-59 79 -138 122q-82 45 -184 45q-160 0 -259 -127q-100 -129 -100 -324z" />
    <glyph glyph-name="p" unicode="p" horiz-adv-x="1060" 
d="M113 -164v1106h-205v4l307 98v-327q23 59 60 118q36 59 84 105q49 48 113 76q63 28 146 28q99 0 171 -36q75 -38 126 -102q51 -65 78 -154q27 -90 27 -195q0 -138 -47 -247q-46 -106 -122 -181q-77 -75 -171 -112q-95 -37 -195 -37q-87 0 -153 15t-117 36v-154
q0 -103 36 -134q35 -31 128 -46v-4h-369v4q42 11 73 35q30 22 30 104zM567 956q-93 0 -185 -50q-90 -49 -167 -197v-559q51 -57 125 -101q73 -43 176 -43q184 0 295 138t111 366q0 92 -25 178q-23 79 -71 141q-47 60 -111 94q-63 33 -148 33z" />
    <glyph glyph-name="q" unicode="q" horiz-adv-x="1050" 
d="M846 -123v430q-22 -54 -61 -118q-36 -59 -84 -105q-50 -49 -112 -76q-63 -28 -147 -28q-99 0 -171 36q-75 38 -126 102q-50 63 -77 154q-27 90 -27 195q0 138 47 247q46 106 122 181q77 75 171 112q95 37 194 37q107 0 182 -21q67 -19 130 -46l57 88h4v-1229
q0 -82 30 -104q31 -24 73 -35v-4h-369v4q93 15 128 46q36 31 36 134zM494 68q93 0 185 50q90 49 167 197v559q-51 57 -125 101q-73 43 -176 43q-184 0 -295 -138t-111 -366q0 -92 25 -178q23 -79 71 -141q47 -60 111 -94q63 -33 148 -33z" />
    <glyph glyph-name="r" unicode="r" horiz-adv-x="624" 
d="M225 184q0 -102 36 -134q35 -31 128 -46v-4h-369v4q42 11 73 35q30 23 30 104v799h-205v4l307 98v-247q50 116 123 181q74 66 154 66q60 0 91 -28q32 -29 32 -74h-127q-86 0 -157 -27q-72 -27 -116 -131v-600z" />
    <glyph glyph-name="s" unicode="s" horiz-adv-x="641" 
d="M358 29q102 0 149 51q46 50 46 137q0 103 -82 161q-83 59 -179 109q-90 47 -179 115q-82 63 -82 176q0 123 87 195q86 71 214 71q84 0 143 -23q61 -24 111 -54v-277h-4q-28 156 -111 240t-186 84q-84 0 -140 -49q-57 -49 -57 -131q0 -89 82 -141q83 -53 179 -103
q93 -49 179 -119q82 -67 82 -186q0 -138 -84 -222q-83 -83 -231 -83q-81 0 -143 22q-65 23 -111 53v318h4q12 -91 44 -158q31 -65 75 -106q46 -43 94 -61q50 -19 100 -19z" />
    <glyph glyph-name="t" unicode="t" horiz-adv-x="581" 
d="M-61 946l266 242v-164h401v-82h-401v-643q0 -99 47 -163q46 -62 143 -62q95 0 159 68t64 255h5q0 -201 -65 -310q-64 -107 -185 -107q-135 0 -203 86t-68 223v653h-163v4z" />
    <glyph glyph-name="u" unicode="u" horiz-adv-x="946" 
d="M834 143q0 -82 29 -104q31 -24 73 -35v-4h-205v346q-66 -185 -146 -275q-81 -91 -210 -91q-131 0 -197 82q-65 81 -65 217v663h-205v4l307 98v-755q0 -95 47 -156q46 -59 146 -59q88 0 175 63q86 62 148 217v588h-205v4l308 98v-901z" />
    <glyph glyph-name="v" unicode="v" horiz-adv-x="817" 
d="M53 848q-33 83 -84 121q-48 35 -108 51v4h397v-4q-50 -15 -88 -49q-39 -35 -6 -121l289 -752l266 682q45 117 11 168q-35 51 -116 72v4h365v-4q-74 -28 -133 -74q-59 -47 -105 -168l-325 -839z" />
    <glyph glyph-name="w" unicode="w" horiz-adv-x="1157" 
d="M53 848q-33 83 -84 121q-48 35 -108 51v4h377v-4q-39 -10 -73 -49q-34 -38 -1 -121l289 -752l120 312l-167 438q-33 82 -72 121t-86 51v4h370v-4q-57 -16 -94 -48q-41 -35 -8 -122l117 -318l98 248q45 117 11 168q-35 51 -113 72v4h321v-4q-63 -24 -107 -74
q-44 -51 -89 -168l-109 -280l148 -400l266 682q45 117 11 169q-35 54 -109 71v4h358v-4q-74 -28 -133 -74q-59 -47 -105 -168l-325 -839l-168 438l-172 -438z" />
    <glyph glyph-name="x" unicode="x" horiz-adv-x="782" 
d="M160 246l178 254l-240 348q-56 80 -100 117t-96 55v4h370v-4q-58 -12 -78 -59q-20 -48 25 -111l193 -279l145 209q82 117 64 168t-95 72v4h342v-4q-79 -27 -142 -75q-60 -46 -146 -167l-158 -223l262 -379q56 -80 100 -117q43 -36 97 -55v-4h-371v4q59 12 79 59t-26 111
l-213 309l-168 -239q-82 -116 -63 -168q18 -51 94 -72v-4h-334v4q75 26 137 75q61 47 144 167z" />
    <glyph glyph-name="y" unicode="y" horiz-adv-x="817" 
d="M53 848q-33 83 -84 121q-48 35 -108 51v4h397v-4q-50 -15 -88 -49q-39 -35 -6 -121l289 -752l266 682q45 117 11 168q-35 51 -116 72v4h363v-4q-72 -27 -132 -74q-58 -46 -104 -168l-325 -839q-51 -133 -139 -200t-201 -67q-54 0 -103 11q-48 11 -84 28v101
q77 -30 130 -42q54 -12 94 -12q91 0 161 41t115 148l12 28z" />
    <glyph glyph-name="z" unicode="z" horiz-adv-x="776" 
d="M0 0v4l637 1000h-281q-122 0 -195 -48q-69 -46 -136 -176h-5l29 244h717v-4l-637 -1000h311q123 0 196 48q69 46 136 176h4l-28 -244h-748z" />
    <glyph glyph-name="braceleft" unicode="{" horiz-adv-x="479" 
d="M438 -205v-20h-35q-129 0 -187 54t-58 171v461q0 83 -33 124q-33 40 -102 40h-23v20h23q69 0 102 40q33 41 33 124v461q0 117 58 171q59 54 187 54h35v-20h-32q-70 0 -103 -45t-33 -140v-430q0 -108 -49 -161q-49 -54 -160 -64q110 -10 160 -65q49 -53 49 -160v-430
q0 -95 33 -140t103 -45h32z" />
    <glyph glyph-name="bar" unicode="|" horiz-adv-x="432" 
d="M227 1536v-1843h-22v1843h22z" />
    <glyph glyph-name="braceright" unicode="}" horiz-adv-x="479" 
d="M322 0q0 -117 -59 -171t-187 -54h-35v20h33q69 0 102 45t33 140v430q0 107 49 160q50 55 160 65q-111 10 -160 64q-49 53 -49 161v430q0 95 -33 140t-102 45h-33v20h35q128 0 187 -54t59 -171v-461q0 -85 32 -124q33 -40 103 -40h22v-20h-22q-70 0 -103 -40
q-32 -39 -32 -124v-461z" />
    <glyph glyph-name="asciitilde" unicode="~" horiz-adv-x="839" 
d="M612 532q75 0 120 48q44 47 44 157v11h23v-11q0 -114 -47 -170q-46 -55 -142 -55q-64 0 -111 35q-45 33 -85 78q-37 41 -82 77q-44 35 -105 35q-75 0 -119 -47q-45 -48 -45 -158v-10h-22v10q0 114 47 170t141 56q65 0 112 -35q45 -33 85 -78t82 -78q44 -35 104 -35z" />
    <glyph glyph-name="nbspace" unicode="&#xa0;" horiz-adv-x="409" 
 />
    <glyph glyph-name="exclamdown" unicode="&#xa1;" horiz-adv-x="307" 
d="M154 819q-48 0 -81 31q-32 30 -32 82t32 82q31 30 81 30q48 0 80 -30t32 -82t-32 -82q-33 -31 -80 -31zM150 606h8l69 -913h-147z" />
    <glyph glyph-name="cent" unicode="&#xa2;" horiz-adv-x="960" 
d="M518 1016h-6h-6v-940q10 -2 14 -2h15q80 0 151 25t125 79q52 52 87 136q33 80 38 198h4q-1 -249 -114 -387q-112 -138 -320 -145v-185h-23v185q-99 0 -182 37q-80 36 -143 105q-57 62 -93 162q-34 93 -34 208q0 113 38 209t99 166q62 71 144 116t171 57v189h23v-187
q16 2 23 2h24q75 0 139 -20q72 -22 118 -56q51 -37 80 -88q30 -52 30 -116q0 -26 -9 -62q-8 -31 -24 -65h-4q-49 102 -100 193q-43 76 -81 116q-39 41 -81 55q-43 15 -103 15zM131 567q0 -215 102 -343t250 -146v936q-70 -6 -136 -41q-65 -35 -113 -92q-47 -56 -75 -138
t-28 -176z" />
    <glyph glyph-name="sterling" unicode="&#xa3;" horiz-adv-x="804" 
d="M311 395q0 69 -42 132q-37 56 -93 128h-156v21h140q-47 64 -86 134t-39 159q0 86 35 158q35 71 92 121q58 50 132 77q75 27 152 27q133 0 225 -49q93 -49 93 -142q0 -28 -7 -52q-8 -28 -22 -54h-4q-66 145 -153 203q-89 59 -189 59q-107 0 -187 -72q-79 -72 -79 -205
q0 -117 58 -202q62 -90 118 -162h387v-21h-371q38 -50 60 -92q24 -47 24 -98q0 -86 -75 -165q-80 -84 -228 -218h729v-82h-833v4q126 111 226 212q93 94 93 179z" />
    <glyph glyph-name="currency" unicode="&#xa4;" horiz-adv-x="839" 
d="M420 911q58 0 105 -19q48 -20 85 -52l86 86l17 -17l-86 -84q33 -38 51 -85q18 -48 18 -105q0 -58 -18 -106q-18 -47 -51 -85l86 -84l-17 -16l-86 86q-37 -32 -85 -52q-49 -20 -105 -20q-57 0 -106 20q-48 20 -85 52l-86 -86l-16 16l86 86q-33 34 -51 83q-19 51 -19 106
q0 54 19 105q18 49 51 83l-86 86l16 17l86 -86q37 32 85 52q47 19 106 19zM420 891q-109 0 -182 -73q-72 -72 -72 -183t72 -183q73 -73 182 -73t182 73q72 72 72 183t-72 183q-73 73 -182 73z" />
    <glyph glyph-name="yen" unicode="&#xa5;" horiz-adv-x="794" 
d="M61 717h252l-233 438q-45 84 -86 119t-92 53v4h348v-4q-50 -15 -72 -50q-22 -36 23 -120l243 -471l211 401q64 120 34 169q-31 50 -107 71v4h350v-4q-77 -27 -133 -73q-59 -48 -121 -169l-193 -368h256v-21h-266l-20 -37v-311h245v-20h-245v-185q0 -82 29 -104
q31 -24 73 -35v-4h-311v4q40 11 72 35q30 23 30 104v185h-246v20h246v301l-24 47h-263v21z" />
    <glyph glyph-name="brokenbar" unicode="&#xa6;" horiz-adv-x="432" 
d="M227 1536v-717h-22v717h22zM227 410v-717h-22v717h22z" />
    <glyph glyph-name="section" unicode="&#xa7;" horiz-adv-x="804" 
d="M743 -18q0 -70 -27 -127q-28 -58 -76 -99q-49 -41 -113 -62q-68 -22 -136 -22q-97 0 -167 21q-76 23 -138 53v281h4q62 -171 148 -244q84 -72 200 -72q108 0 178 59t70 152q0 111 -102 180q-100 68 -225 131q-123 62 -224 138q-102 77 -102 200q0 81 39 141q39 61 110 93
q-57 45 -93 102t-36 135q0 68 28 127q28 58 76 99q49 42 112 62q68 22 137 22q96 0 166 -21q78 -23 139 -53v-281h-4q-62 171 -148 244q-84 72 -201 72q-108 0 -178 -59q-69 -58 -69 -152q0 -111 102 -180q103 -70 224 -131q126 -64 225 -138q102 -77 102 -200
q0 -81 -39 -141t-111 -93q59 -47 94 -102t35 -135zM88 657q0 -83 54 -142q53 -57 132 -103q73 -42 168 -88q86 -42 162 -97q50 21 77 57q28 37 28 83q0 82 -55 142q-53 57 -132 103q-73 42 -168 88q-83 40 -161 97q-50 -21 -77 -57q-28 -37 -28 -83z" />
    <glyph glyph-name="dieresis" unicode="&#xa8;" 
d="M346 1229q-45 0 -74 31q-28 29 -28 71q0 46 28 74q29 29 74 29t74 -29t29 -74q0 -40 -29 -71t-74 -31zM678 1229q-45 0 -74 31t-29 71q0 45 29 74t74 29t74 -29q28 -28 28 -74q0 -42 -28 -71q-29 -31 -74 -31z" />
    <glyph glyph-name="copyright" unicode="&#xa9;" horiz-adv-x="1495" 
d="M748 1352q144 0 274 -52q127 -51 218 -142t142 -218q52 -130 52 -274q0 -145 -52 -275q-51 -127 -142 -218t-218 -142q-128 -51 -274 -51q-148 0 -275 51t-218 142t-142 218q-52 130 -52 275q0 144 52 274q51 127 142 218t218 142q130 52 275 52zM748 1329
q-143 0 -266 -50q-121 -49 -210 -137q-87 -85 -137 -210q-49 -122 -49 -266q0 -145 49 -267q50 -125 137 -210q89 -88 210 -137q123 -50 266 -50q142 0 265 50q121 49 210 137q87 85 137 210q49 122 49 267q0 144 -49 266q-50 125 -137 210q-89 88 -210 137q-123 50 -265 50
zM760 1018q-102 0 -179 -89t-77 -237t77 -231q76 -82 199 -82q111 0 190 61q78 61 83 197h6q-1 -166 -83 -255q-81 -89 -222 -89q-154 0 -247 99t-93 259q0 89 31 160q32 72 83 122q53 51 118 78q66 27 136 27q75 0 123 -16q47 -16 105 -47v-195h-4q-27 129 -91 184
q-63 54 -155 54z" />
    <glyph glyph-name="ordfeminine" unicode="&#xaa;" horiz-adv-x="849" 
d="M276 1262q66 45 116 66q44 18 71 18q92 0 143 -51q49 -49 49 -130v-428q0 -44 16 -60q15 -15 36 -15q14 0 29 9q17 10 28 31l6 -4q-15 -39 -47 -64q-34 -26 -78 -26q-36 0 -63 27t-27 100v107q-12 -109 -82 -176q-69 -66 -158 -66q-80 0 -133 38t-53 89q0 15 10 26
q9 10 31 21l385 193v184q0 62 -35 102q-34 39 -110 39q-68 0 -125 -58q-57 -59 -56 -128q-19 -16 -42 -23q-26 -8 -44 -8q-8 50 29 95q40 49 104 92zM233 750q0 -23 28 -45q27 -21 79 -21q90 0 152 59q63 60 63 156v41l-291 -149q-12 -6 -22 -18q-9 -11 -9 -23zM102 348h646
v-20h-646v20zM102 20h646v-20h-646v20z" />
    <glyph glyph-name="guillemotleft" unicode="&#xab;" horiz-adv-x="827" 
d="M61 596l390 428h8l-266 -430l266 -430h-8l-390 428v4zM369 596l389 428h8l-266 -430l266 -430h-8l-389 428v4z" />
    <glyph glyph-name="logicalnot" unicode="&#xac;" horiz-adv-x="839" 
d="M41 645h758v-399h-23v379h-735v20z" />
    <glyph glyph-name="registered" unicode="&#xae;" horiz-adv-x="1083" 
d="M543 1352q103 0 191 -36q91 -37 153 -99t99 -153q36 -88 36 -192t-36 -192t-99 -153q-61 -63 -153 -100q-88 -36 -191 -36q-105 0 -193 36t-152 100q-65 65 -101 153t-36 192t36 192q37 90 101 153q65 64 152 99q88 36 193 36zM543 1331q-100 0 -185 -35
q-83 -34 -144 -95t-95 -145q-35 -87 -35 -184q0 -99 35 -184q34 -82 95 -145q62 -63 144 -97q83 -34 185 -34q99 0 182 34q82 34 144 97q63 65 96 145q34 83 34 184q0 100 -34 184q-33 82 -96 145q-61 61 -144 95q-85 35 -182 35zM463 690q0 -40 14 -51t49 -16v-5h-204v5
q14 4 26 13t12 40v393q0 31 -12 39q-13 8 -26 12v4h237q95 0 141 -30q48 -31 48 -82q0 -57 -45 -96t-125 -46q13 -1 27 -9t28 -23l110 -150q23 -32 41 -48q17 -16 35 -17v-5h-153l-148 213q-16 22 -28 29q-14 8 -27 8v-178zM539 1104h-76v-215h86q43 0 67 27q25 28 25 83
q0 44 -24 74q-25 31 -78 31z" />
    <glyph glyph-name="macron" unicode="&#xaf;" 
d="M727 1382v-102h-430v102h430z" />
    <glyph glyph-name="degree" unicode="&#xb0;" horiz-adv-x="614" 
d="M307 1352q119 0 198 -79t79 -198q0 -118 -79 -197t-198 -79q-118 0 -197 79t-79 197q0 119 79 198t197 79zM307 1333q-111 0 -183 -72q-73 -73 -73 -186q0 -112 73 -185t183 -73t183 73t73 185q0 113 -73 186q-72 72 -183 72z" />
    <glyph glyph-name="plusminus" unicode="&#xb1;" horiz-adv-x="839" 
d="M41 645h369v379h22v-379h367v-20h-367v-379h-22v379h-369v20zM41 20h758v-20h-758v20z" />
    <glyph glyph-name="acute" unicode="&#xb4;" 
d="M453 1147h-4l124 369h154z" />
    <glyph glyph-name="paragraph" unicode="&#xb6;" horiz-adv-x="989" 
d="M610 1331v-1638h-217v4q104 15 149 46q46 31 46 128v661h-21q-103 0 -197 24q-96 24 -168 74q-74 51 -117 128q-44 79 -44 182q0 190 129 291q128 100 385 100h55zM793 1331h176v-4q-81 -16 -118 -47q-36 -30 -36 -127v-1200q0 -76 11 -117q12 -46 34 -72t61 -42
q34 -14 89 -25v-4h-217v1638z" />
    <glyph glyph-name="periodcentered" unicode="&#xb7;" horiz-adv-x="307" 
d="M154 748q47 0 80 -31q32 -30 32 -82t-32 -82q-33 -31 -80 -31q-48 0 -81 31q-32 30 -32 82t32 82q33 31 81 31z" />
    <glyph glyph-name="cedilla" unicode="&#xb8;" 
d="M545 0q-22 -22 -30 -34q-9 -14 -9 -21q0 -15 20 -32q3 -3 46 -38q27 -22 46 -44q21 -24 21 -52q0 -39 -43 -73t-117 -34q-35 0 -63 17q-27 17 -27 45q0 13 4 25q4 11 13 26h6q29 -48 60 -67q35 -21 71 -21q15 0 27 9t12 22q0 23 -21 44q-24 24 -45 41q-27 22 -45 40
q-20 20 -20 38q0 28 24 49q40 35 66 60h4z" />
    <glyph glyph-name="ordmasculine" unicode="&#xba;" horiz-adv-x="849" 
d="M799 973q0 -159 -104 -266t-271 -107q-165 0 -269 107t-104 266t104 266t269 107q167 0 271 -107t104 -266zM166 1012q0 -80 19 -149q19 -68 58 -123q37 -52 92 -84q53 -31 122 -31q101 0 164 81t63 228q0 81 -20 148q-21 69 -59 123q-37 52 -92 84t-122 32
q-100 0 -163 -81q-62 -80 -62 -228zM102 348h646v-20h-646v20zM102 20h646v-20h-646v20z" />
    <glyph glyph-name="guillemotright" unicode="&#xbb;" horiz-adv-x="827" 
d="M459 596v-4l-389 -428h-9l267 430l-267 430h9zM766 596v-4l-389 -428h-8l266 430l-266 430h8z" />
    <glyph glyph-name="questiondown" unicode="&#xbf;" horiz-adv-x="731" 
d="M408 819q-48 0 -81 31q-32 30 -32 82t32 82q31 30 81 30q48 0 80 -30t32 -82t-32 -82q-33 -31 -80 -31zM283 -281q111 0 217 63q108 64 170 185h4q11 -20 19 -43q7 -21 7 -43q0 -95 -88 -152t-223 -57q-151 0 -255 78q-103 78 -103 211q0 116 65 199t143 150
q27 24 74.5 65t67.5 58q65 56 65 116q0 15 -7 26q-9 15 -21 23l4 4q40 -29 63 -61q25 -34 25 -72q0 -68 -66 -131q-79 -75 -142 -131q-73 -64 -142 -146q-66 -78 -66 -174q0 -75 51 -121q52 -47 138 -47z" />
    <glyph glyph-name="Agrave" unicode="&#xc0;" horiz-adv-x="1062" 
d="M1010 176q33 -86 84 -122q49 -34 108 -50v-4h-397v4q51 16 88 48q39 34 6 122l-131 338h-565l-105 -268q-47 -119 -12 -169t117 -71v-4h-363v4q74 27 131 74q55 45 105 168l389 997q-33 39 -73 57q-46 21 -85 27v4h193l24 62zM539 1108q-20 45 -29 63q-19 36 -29 50
l-245 -627h501zM748 1438v-4l-451 92v123z" />
    <glyph glyph-name="Aacute" unicode="&#xc1;" horiz-adv-x="1062" 
d="M1010 176q33 -86 84 -122q49 -34 108 -50v-4h-397v4q51 16 88 48q39 34 6 122l-131 338h-565l-105 -268q-47 -119 -12 -169t117 -71v-4h-363v4q74 27 131 74q55 45 105 168l389 997q-33 39 -73 57q-46 21 -85 27v4h193l24 62zM539 1108q-20 45 -29 63q-19 36 -29 50
l-245 -627h501zM299 1438l451 211v-123l-451 -92v4z" />
    <glyph glyph-name="Acircumflex" unicode="&#xc2;" horiz-adv-x="1062" 
d="M1010 176q33 -86 84 -122q49 -34 108 -50v-4h-397v4q51 16 88 48q39 34 6 122l-131 338h-565l-105 -268q-47 -119 -12 -169t117 -71v-4h-363v4q74 27 131 74q55 45 105 168l389 997q-33 39 -73 57q-46 21 -85 27v4h193l24 62zM539 1108q-20 45 -29 63q-19 36 -29 50
l-245 -627h501zM258 1434h-4l268 221h4l269 -221h-4l-267 102z" />
    <glyph glyph-name="Atilde" unicode="&#xc3;" horiz-adv-x="1062" 
d="M1010 176q33 -86 84 -122q49 -34 108 -50v-4h-397v4q51 16 88 48q39 34 6 122l-131 338h-565l-105 -268q-47 -119 -12 -169t117 -71v-4h-363v4q74 27 131 74q55 45 105 168l389 997q-33 39 -73 57q-46 21 -85 27v4h193l24 62zM539 1108q-20 45 -29 63q-19 36 -29 50
l-245 -627h501zM791 1634q-24 -93 -61 -135q-36 -41 -97 -41q-37 0 -75 16q-40 17 -68 34q-35 22 -63 35q-34 16 -62 16q-37 0 -61 -24t-42 -77h-4q24 94 60 135t98 41q38 0 74 -15q35 -15 68 -35q32 -20 64 -35t62 -15q36 0 60 24t42 76h5z" />
    <glyph glyph-name="Adieresis" unicode="&#xc4;" horiz-adv-x="1062" 
d="M1010 176q33 -86 84 -122q49 -34 108 -50v-4h-397v4q51 16 88 48q39 34 6 122l-131 338h-565l-105 -268q-47 -119 -12 -169t117 -71v-4h-363v4q74 27 131 74q55 45 105 168l389 997q-33 39 -73 57q-46 21 -85 27v4h193l24 62zM539 1108q-20 45 -29 63q-19 36 -29 50
l-245 -627h501zM358 1454q-44 0 -73 31t-29 71q0 45 29 74t73 29q45 0 74 -29t29 -74q0 -40 -29 -71t-74 -31zM690 1454q-45 0 -74 31q-28 29 -28 71q0 46 28 74q29 29 74 29t74 -29t29 -74q0 -40 -29 -71t-74 -31z" />
    <glyph glyph-name="Aring" unicode="&#xc5;" horiz-adv-x="1062" 
d="M1010 176q33 -86 84 -122q49 -34 108 -50v-4h-397v4q51 16 88 48q39 34 6 122l-131 338h-565l-105 -268q-47 -119 -12 -169t117 -71v-4h-363v4q74 27 131 74q55 45 105 168l389 997q-33 39 -73 57q-46 21 -85 27v4h193l24 62zM539 1108q-20 45 -29 63q-19 36 -29 50
l-245 -627h501zM524 1413q-105 0 -176 37q-72 38 -72 106q0 70 72 107q71 37 176 37t176 -37q72 -37 72 -107q0 -68 -72 -106q-71 -37 -176 -37zM524 1675q-62 0 -98 -29q-37 -30 -37 -90q0 -59 37 -89q36 -29 98 -29q63 0 99 29t36 89q0 61 -36 90t-99 29z" />
    <glyph glyph-name="AE" unicode="&#xc6;" horiz-adv-x="1691" 
d="M1264 680h-254v-660h346q122 0 195 48q71 47 137 176h4l-29 -244h-862v4q40 11 72 35q30 23 30 104v369h-497l-211 -272q-94 -118 -79 -167q15 -48 89 -69v-4h-365v4q88 28 161 74q74 46 169 168l733 942q0 82 -30 104q-32 24 -72 35v4h841l29 -244h-4q-67 132 -136 177
q-71 47 -196 47h-325v-611h254q89 0 137 48q47 47 74 126h4v-368h-4q-27 80 -74 127t-137 47zM469 594h434v557z" />
    <glyph glyph-name="Ccedilla" unicode="&#xc7;" horiz-adv-x="1200" 
d="M670 1323q-106 0 -201 -43q-99 -45 -169 -121q-74 -80 -116 -191q-43 -113 -43 -253q0 -153 41 -274q40 -118 116 -200t179 -123q105 -42 230 -42q100 0 193 32q92 32 159 97q67 66 109 167t46 240h7q-4 -301 -149 -465q-143 -162 -400 -167q-13 -19 -14 -20
q-5 -10 -5 -15q0 -14 21 -32q4 -3 46 -38q27 -22 46 -44q20 -23 20 -52q0 -39 -43 -73t-116 -34q-36 0 -64 17q-26 16 -26 45q0 13 4 25q5 15 12 26h6q28 -47 61 -67q34 -21 70 -21q16 0 28 9q11 8 11 22q0 24 -20 44q-24 24 -45 41q-32 26 -46 40q-20 20 -20 38q0 23 18 41
q10 10 50 48h-7q-142 0 -256 48q-115 48 -194 135q-81 88 -124 209q-44 123 -44 267q0 162 57 294q56 130 151 225t215 144q123 50 249 50q135 0 225 -30t192 -87v-354h-4q-51 239 -168 341q-116 101 -288 101z" />
    <glyph glyph-name="Egrave" unicode="&#xc8;" horiz-adv-x="921" 
d="M494 680h-254v-660h346q122 0 195 48q71 47 137 176h4l-29 -244h-862v4q40 11 72 35q30 23 30 104v1045q0 82 -30 104q-32 24 -72 35v4h841l29 -244h-4q-67 132 -136 177q-71 47 -196 47h-325v-611h254q89 0 137 48q47 47 74 126h4v-368h-4q-27 80 -74 127t-137 47z
M743 1438v-4l-450 92v123z" />
    <glyph glyph-name="Eacute" unicode="&#xc9;" horiz-adv-x="921" 
d="M494 680h-254v-660h346q122 0 195 48q71 47 137 176h4l-29 -244h-862v4q40 11 72 35q30 23 30 104v1045q0 82 -30 104q-32 24 -72 35v4h841l29 -244h-4q-67 132 -136 177q-71 47 -196 47h-325v-611h254q89 0 137 48q47 47 74 126h4v-368h-4q-27 80 -74 127t-137 47z
M293 1438l450 211v-123l-450 -92v4z" />
    <glyph glyph-name="Ecircumflex" unicode="&#xca;" horiz-adv-x="921" 
d="M494 680h-254v-660h346q122 0 195 48q71 47 137 176h4l-29 -244h-862v4q40 11 72 35q30 23 30 104v1045q0 82 -30 104q-32 24 -72 35v4h841l29 -244h-4q-67 132 -136 177q-71 47 -196 47h-325v-611h254q89 0 137 48q47 47 74 126h4v-368h-4q-27 80 -74 127t-137 47z
M252 1434h-4l268 221h4l268 -221h-4l-266 102z" />
    <glyph glyph-name="Edieresis" unicode="&#xcb;" horiz-adv-x="921" 
d="M494 680h-254v-660h346q122 0 195 48q71 47 137 176h4l-29 -244h-862v4q40 11 72 35q30 23 30 104v1045q0 82 -30 104q-32 24 -72 35v4h841l29 -244h-4q-67 132 -136 177q-71 47 -196 47h-325v-611h254q89 0 137 48q47 47 74 126h4v-368h-4q-27 80 -74 127t-137 47z
M352 1454q-44 0 -73 31t-29 71q0 45 29 74t73 29q45 0 74 -29t29 -74q0 -40 -29 -71t-74 -31zM684 1454q-45 0 -74 31q-28 29 -28 71q0 46 28 74q29 29 74 29t74 -29q28 -28 28 -74q0 -42 -28 -71q-29 -31 -74 -31z" />
    <glyph glyph-name="Igrave" unicode="&#xcc;" horiz-adv-x="372" 
d="M240 143q0 -82 29 -104q31 -24 73 -35v-4h-311v4q40 11 72 35q30 23 30 104v1045q0 82 -30 104q-32 24 -72 35v4h311v-4q-42 -11 -73 -35q-29 -22 -29 -104v-1045zM410 1438v-4l-451 92v123z" />
    <glyph glyph-name="Iacute" unicode="&#xcd;" horiz-adv-x="372" 
d="M240 143q0 -82 29 -104q31 -24 73 -35v-4h-311v4q40 11 72 35q30 23 30 104v1045q0 82 -30 104q-32 24 -72 35v4h311v-4q-42 -11 -73 -35q-29 -22 -29 -104v-1045zM-39 1438l451 211v-123l-451 -92v4z" />
    <glyph glyph-name="Icircumflex" unicode="&#xce;" horiz-adv-x="372" 
d="M240 143q0 -82 29 -104q31 -24 73 -35v-4h-311v4q40 11 72 35q30 23 30 104v1045q0 82 -30 104q-32 24 -72 35v4h311v-4q-42 -11 -73 -35q-29 -22 -29 -104v-1045zM-80 1434h-4l268 221h4l269 -221h-4l-267 102z" />
    <glyph glyph-name="Idieresis" unicode="&#xcf;" horiz-adv-x="372" 
d="M240 143q0 -82 29 -104q31 -24 73 -35v-4h-311v4q40 11 72 35q30 23 30 104v1045q0 82 -30 104q-32 24 -72 35v4h311v-4q-42 -11 -73 -35q-29 -22 -29 -104v-1045zM20 1454q-44 0 -73 31t-29 71q0 45 29 74t73 29q45 0 74 -29t29 -74q0 -40 -29 -71t-74 -31zM352 1454
q-44 0 -73 31t-29 71q0 45 29 74t73 29q45 0 74 -29t29 -74q0 -40 -29 -71t-74 -31z" />
    <glyph glyph-name="Eth" unicode="&#xd0;" horiz-adv-x="1261" 
d="M0 686h133v502q0 82 -30 104q-32 24 -72 35v4h440q191 0 332 -48q143 -49 233 -133q94 -88 139 -203q46 -117 46 -255q0 -143 -51 -274q-49 -127 -149 -219q-102 -94 -248 -146q-150 -53 -343 -53h-399v4q40 11 72 35q30 23 30 104v523h-133v20zM446 1311h-206v-625h354
v-20h-354v-646h194q165 0 295 49q125 47 212 134q85 85 127 207t42 264q0 132 -40 248q-41 117 -121 202q-84 89 -207 137q-127 50 -296 50z" />
    <glyph glyph-name="Ntilde" unicode="&#xd1;" horiz-adv-x="1204" 
d="M156 246q0 -122 46 -171q48 -51 117 -71v-4h-350v4q71 21 118 71q46 49 46 171v938q-55 66 -97 97q-41 31 -87 46v4h209l901 -1192v946q0 122 -46 171q-47 50 -118 71v4h350v-4q-71 -21 -118 -71q-46 -49 -46 -171v-1146h-4l-882 1169q-11 15 -21 27q-12 14 -18 22v-911z
M874 1634q-24 -94 -60 -135t-97 -41q-37 0 -75 16q-40 17 -68 34q-35 22 -63 35q-34 16 -62 16q-37 0 -61 -24t-42 -77h-4q24 94 60 135t98 41q38 0 74 -15q35 -15 68 -35q32 -20 64 -35t62 -15q36 0 60 24t42 76h4z" />
    <glyph glyph-name="Ograve" unicode="&#xd2;" horiz-adv-x="1419" 
d="M1378 666q0 -148 -48 -274q-48 -125 -135 -217q-86 -90 -211 -143q-123 -52 -275 -52q-151 0 -274 52q-125 53 -211 143q-87 92 -135 217q-48 126 -48 274q0 147 48 273q48 125 135 217q86 90 211 143q126 53 274 53q149 0 275 -53q125 -53 211 -143q87 -92 135 -217
q48 -126 48 -273zM154 735q0 -154 43 -286q44 -136 122 -231t194 -152q115 -56 253 -56q110 0 203 44q90 43 157 122q66 78 103 185t37 235q0 152 -44 287q-42 130 -124 230q-78 96 -193 154q-111 56 -252 56q-109 0 -202 -44q-92 -44 -158 -122q-65 -77 -103 -186
q-36 -104 -36 -236zM934 1438v-4l-451 92v123z" />
    <glyph glyph-name="Oacute" unicode="&#xd3;" horiz-adv-x="1419" 
d="M1378 666q0 -148 -48 -274q-48 -125 -135 -217q-86 -90 -211 -143q-123 -52 -275 -52q-151 0 -274 52q-125 53 -211 143q-87 92 -135 217q-48 126 -48 274q0 147 48 273q48 125 135 217q86 90 211 143q126 53 274 53q149 0 275 -53q125 -53 211 -143q87 -92 135 -217
q48 -126 48 -273zM154 735q0 -154 43 -286q44 -136 122 -231t194 -152q115 -56 253 -56q110 0 203 44q90 43 157 122q66 78 103 185t37 235q0 152 -44 287q-42 130 -124 230q-78 96 -193 154q-111 56 -252 56q-109 0 -202 -44q-92 -44 -158 -122q-65 -77 -103 -186
q-36 -104 -36 -236zM485 1438l451 211v-123l-451 -92v4z" />
    <glyph glyph-name="Ocircumflex" unicode="&#xd4;" horiz-adv-x="1419" 
d="M1378 666q0 -148 -48 -274q-48 -125 -135 -217q-86 -90 -211 -143q-123 -52 -275 -52q-151 0 -274 52q-125 53 -211 143q-87 92 -135 217q-48 126 -48 274q0 147 48 273q48 125 135 217q86 90 211 143q126 53 274 53q149 0 275 -53q125 -53 211 -143q87 -92 135 -217
q48 -126 48 -273zM154 735q0 -154 43 -286q44 -136 122 -231t194 -152q115 -56 253 -56q110 0 203 44q90 43 157 122q66 78 103 185t37 235q0 152 -44 287q-42 130 -124 230q-78 96 -193 154q-111 56 -252 56q-109 0 -202 -44q-92 -44 -158 -122q-65 -77 -103 -186
q-36 -104 -36 -236zM444 1434h-4l269 221h4l268 -221h-4l-266 102z" />
    <glyph glyph-name="Otilde" unicode="&#xd5;" horiz-adv-x="1419" 
d="M1378 666q0 -148 -48 -274q-48 -125 -135 -217q-86 -90 -211 -143q-123 -52 -275 -52q-151 0 -274 52q-125 53 -211 143q-87 92 -135 217q-48 126 -48 274q0 147 48 273q48 125 135 217q86 90 211 143q126 53 274 53q149 0 275 -53q125 -53 211 -143q87 -92 135 -217
q48 -126 48 -273zM154 735q0 -154 43 -286q44 -136 122 -231t194 -152q115 -56 253 -56q110 0 203 44q90 43 157 122q66 78 103 185t37 235q0 152 -44 287q-42 130 -124 230q-78 96 -193 154q-111 56 -252 56q-109 0 -202 -44q-92 -44 -158 -122q-65 -77 -103 -186
q-36 -104 -36 -236zM977 1634q-24 -93 -61 -135q-36 -41 -97 -41q-37 0 -75 16q-37 15 -67 34q-32 20 -64 35q-34 16 -62 16q-37 0 -61 -24q-22 -22 -41 -77h-5q24 93 61 135q36 41 97 41q39 0 75 -15q32 -13 67 -35q32 -20 64 -35t62 -15q37 0 61 24t42 76h4z" />
    <glyph glyph-name="Odieresis" unicode="&#xd6;" horiz-adv-x="1419" 
d="M1378 666q0 -148 -48 -274q-48 -125 -135 -217q-86 -90 -211 -143q-123 -52 -275 -52q-151 0 -274 52q-125 53 -211 143q-87 92 -135 217q-48 126 -48 274q0 147 48 273q48 125 135 217q86 90 211 143q126 53 274 53q149 0 275 -53q125 -53 211 -143q87 -92 135 -217
q48 -126 48 -273zM154 735q0 -154 43 -286q44 -136 122 -231t194 -152q115 -56 253 -56q110 0 203 44q90 43 157 122q66 78 103 185t37 235q0 152 -44 287q-42 130 -124 230q-78 96 -193 154q-111 56 -252 56q-109 0 -202 -44q-92 -44 -158 -122q-65 -77 -103 -186
q-36 -104 -36 -236zM545 1454q-45 0 -74 31t-29 71q0 45 29 74t74 29q44 0 73 -29t29 -74q0 -40 -29 -71t-73 -31zM877 1454q-45 0 -74 31t-29 71q0 45 29 74t74 29q44 0 73 -29t29 -74q0 -40 -29 -71t-73 -31z" />
    <glyph glyph-name="multiply" unicode="&#xd7;" horiz-adv-x="839" 
d="M422 621l-277 -277l-16 16l277 275l-277 274l16 17l277 -277l276 277l17 -17l-277 -274l277 -275l-17 -16z" />
    <glyph glyph-name="Oslash" unicode="&#xd8;" horiz-adv-x="1419" 
d="M41 0l178 180q-85 91 -132 217q-46 123 -46 269q0 147 48 273q48 125 135 217q86 90 211 143q126 53 274 53t268 -49t209 -138l162 166h30l-178 -180q85 -91 132 -217q46 -123 46 -268q0 -148 -48 -274q-48 -125 -135 -217q-86 -90 -211 -143q-123 -52 -275 -52
q-147 0 -267 49q-122 50 -209 137l-161 -166h-31zM154 735q0 -142 35 -262q36 -122 102 -217l823 838q-78 103 -198 167q-117 62 -263 62q-109 0 -202 -44q-92 -44 -158 -122q-65 -77 -103 -186q-36 -104 -36 -236zM1266 596q0 139 -36 262q-36 122 -102 217l-823 -837
q79 -104 197 -166t264 -62q110 0 203 44q90 43 157 122q66 78 103 185t37 235z" />
    <glyph glyph-name="Ugrave" unicode="&#xd9;" horiz-adv-x="1187" 
d="M1049 467v618q0 121 -47 171q-48 51 -117 71v4h350v-4q-71 -21 -118 -71q-46 -49 -46 -171v-618q0 -231 -128 -359t-347 -128q-218 0 -346 128q-127 127 -127 359v721q0 82 -30 104q-31 24 -73 35v4h312v-4q-42 -11 -73 -35q-30 -22 -30 -104v-721q0 -200 110 -310
t300 -110t300 110t110 310zM858 1438v-4l-450 92v123z" />
    <glyph glyph-name="Uacute" unicode="&#xda;" horiz-adv-x="1187" 
d="M1049 467v618q0 121 -47 171q-48 51 -117 71v4h350v-4q-71 -21 -118 -71q-46 -49 -46 -171v-618q0 -231 -128 -359t-347 -128q-218 0 -346 128q-127 127 -127 359v721q0 82 -30 104q-31 24 -73 35v4h312v-4q-42 -11 -73 -35q-30 -22 -30 -104v-721q0 -200 110 -310
t300 -110t300 110t110 310zM408 1438l450 211v-123l-450 -92v4z" />
    <glyph glyph-name="Ucircumflex" unicode="&#xdb;" horiz-adv-x="1187" 
d="M1049 467v618q0 121 -47 171q-48 51 -117 71v4h350v-4q-71 -21 -118 -71q-46 -49 -46 -171v-618q0 -231 -128 -359t-347 -128q-218 0 -346 128q-127 127 -127 359v721q0 82 -30 104q-31 24 -73 35v4h312v-4q-42 -11 -73 -35q-30 -22 -30 -104v-721q0 -200 110 -310
t300 -110t300 110t110 310zM367 1434h-5l269 221h4l268 -221h-4l-266 102z" />
    <glyph glyph-name="Udieresis" unicode="&#xdc;" horiz-adv-x="1187" 
d="M1049 467v618q0 121 -47 171q-48 51 -117 71v4h350v-4q-71 -21 -118 -71q-46 -49 -46 -171v-618q0 -231 -128 -359t-347 -128q-218 0 -346 128q-127 127 -127 359v721q0 82 -30 104q-31 24 -73 35v4h312v-4q-42 -11 -73 -35q-30 -22 -30 -104v-721q0 -200 110 -310
t300 -110t300 110t110 310zM467 1454q-45 0 -74 31q-28 29 -28 71q0 46 28 74q29 29 74 29t74 -29q28 -28 28 -74q0 -42 -28 -71q-29 -31 -74 -31zM799 1454q-45 0 -74 31t-29 71q0 45 29 74t74 29q44 0 73 -29t29 -74q0 -40 -29 -71t-73 -31z" />
    <glyph glyph-name="Yacute" unicode="&#xdd;" horiz-adv-x="843" 
d="M745 1087q64 120 34 169q-31 50 -107 71v4h350v-4q-77 -27 -133 -73q-59 -48 -121 -169l-289 -550v-392q0 -81 30 -104q31 -24 73 -35v-4h-312v4q42 11 73 35q30 23 30 104v383l-334 629q-45 84 -86 119t-92 53v4h348v-4q-50 -15 -72 -50q-22 -36 23 -120l309 -594z
M229 1417l451 211v-123l-451 -92v4z" />
    <glyph glyph-name="Thorn" unicode="&#xde;" horiz-adv-x="1036" 
d="M240 143q0 -82 29 -104q31 -24 73 -35v-4h-311v4q40 11 72 35q30 23 30 104v1045q0 82 -30 104q-32 24 -72 35v4h311v-4q-42 -11 -73 -35q-29 -22 -29 -104v-64l252 2q250 1 376 -102q127 -105 127 -274q0 -214 -143 -338q-145 -125 -406 -125h-206v-144zM240 1106v-799
h225q199 0 313 96q115 97 115 291q0 82 -26 160q-25 74 -80 131q-53 55 -141 88q-87 33 -208 33h-198z" />
    <glyph glyph-name="germandbls" unicode="&#xdf;" horiz-adv-x="1009" 
d="M543 764q0 -80 66 -133q76 -60 146 -104q78 -48 145 -108q67 -59 67 -149q0 -132 -84 -211q-83 -79 -219 -79q-82 0 -144 22t-110 53v318h4q12 -91 44 -158t74 -106q45 -42 95 -61t100 -19q87 0 134 44q46 43 46 120q0 79 -65 131q-74 59 -145 103q-73 45 -144 110
q-66 60 -66 151q0 76 37 128q34 48 81 98q43 46 81 99q37 52 37 130q0 114 -65 182t-175 68q-126 0 -192 -90t-66 -285v-834q0 -102 36 -134q35 -31 128 -46v-4h-369v4q42 11 73 35q30 23 30 104v799h-205v4l207 66q7 97 46 179q37 79 95 132q59 54 129 82q73 29 148 29
q116 0 194 -63t78 -177q0 -89 -43 -145q-45 -59 -93 -101q-55 -49 -93 -85q-43 -42 -43 -99z" />
    <glyph glyph-name="agrave" unicode="&#xe0;" horiz-adv-x="821" 
d="M209 926q103 71 164 94q63 24 102 24q115 0 174 -71q60 -72 60 -187v-610q0 -65 20 -86q21 -22 51 -22q22 0 42 13t42 44l4 -2q-22 -55 -57 -93q-37 -40 -88 -40q-47 0 -82 39q-35 40 -35 143v162q-15 -166 -113 -259q-100 -95 -229 -95q-109 0 -181 51q-73 52 -73 123
q0 18 16 36q14 15 44 31l536 268v277q0 97 -50 158q-49 59 -155 59q-47 0 -99 -25q-48 -23 -90 -62q-39 -36 -64 -86q-23 -45 -21 -93q-28 -17 -55 -27t-58 -10q-8 60 44 119q52 60 151 127zM117 184q0 -40 47 -76q46 -36 129 -36q129 0 221 93q92 94 92 243v59l-446 -225
q-19 -8 -31 -23t-12 -35zM479 1147l-274 369h153l125 -369h-4z" />
    <glyph glyph-name="aacute" unicode="&#xe1;" horiz-adv-x="821" 
d="M209 926q103 71 164 94q63 24 102 24q115 0 174 -71q60 -72 60 -187v-610q0 -65 20 -86q21 -22 51 -22q22 0 42 13t42 44l4 -2q-22 -55 -57 -93q-37 -40 -88 -40q-47 0 -82 39q-35 40 -35 143v162q-15 -166 -113 -259q-100 -95 -229 -95q-109 0 -181 51q-73 52 -73 123
q0 18 16 36q14 15 44 31l536 268v277q0 97 -50 158q-49 59 -155 59q-47 0 -99 -25q-48 -23 -90 -62q-39 -36 -64 -86q-23 -45 -21 -93q-28 -17 -55 -27t-58 -10q-8 60 44 119q52 60 151 127zM117 184q0 -40 47 -76q46 -36 129 -36q129 0 221 93q92 94 92 243v59l-446 -225
q-19 -8 -31 -23t-12 -35zM360 1147h-4l125 369h154z" />
    <glyph glyph-name="acircumflex" unicode="&#xe2;" horiz-adv-x="821" 
d="M209 926q103 71 164 94q63 24 102 24q115 0 174 -71q60 -72 60 -187v-610q0 -65 20 -86q21 -22 51 -22q22 0 42 13t42 44l4 -2q-22 -55 -57 -93q-37 -40 -88 -40q-47 0 -82 39q-35 40 -35 143v162q-15 -166 -113 -259q-100 -95 -229 -95q-109 0 -181 51q-73 52 -73 123
q0 18 16 36q14 15 44 31l536 268v277q0 97 -50 158q-49 59 -155 59q-47 0 -99 -25q-48 -23 -90 -62q-39 -36 -64 -86q-23 -45 -21 -93q-28 -17 -55 -27t-58 -10q-8 60 44 119q52 60 151 127zM117 184q0 -40 47 -76q46 -36 129 -36q129 0 221 93q92 94 92 243v59l-446 -225
q-19 -8 -31 -23t-12 -35zM154 1147h-5l269 369h4l268 -369h-4l-266 217z" />
    <glyph glyph-name="atilde" unicode="&#xe3;" horiz-adv-x="821" 
d="M209 926q103 71 164 94q63 24 102 24q115 0 174 -71q60 -72 60 -187v-610q0 -65 20 -86q21 -22 51 -22q22 0 42 13t42 44l4 -2q-22 -55 -57 -93q-37 -40 -88 -40q-47 0 -82 39q-35 40 -35 143v162q-15 -166 -113 -259q-100 -95 -229 -95q-109 0 -181 51q-73 52 -73 123
q0 18 16 36q14 15 44 31l536 268v277q0 97 -50 158q-49 59 -155 59q-47 0 -99 -25q-48 -23 -90 -62q-39 -36 -64 -86q-23 -45 -21 -93q-28 -17 -55 -27t-58 -10q-8 60 44 119q52 60 151 127zM117 184q0 -40 47 -76q46 -36 129 -36q129 0 221 93q92 94 92 243v59l-446 -225
q-19 -8 -31 -23t-12 -35zM686 1419q-24 -93 -60 -140q-36 -46 -98 -46q-40 0 -74 17q-44 22 -68 38q-21 14 -63 38q-30 17 -63 17q-37 0 -60 -23q-24 -24 -42 -77h-4q24 93 60 140t97 47q39 0 75 -18q44 -22 68 -38q21 -14 63 -38q30 -17 63 -17q37 0 60 23q24 24 42 77h4z
" />
    <glyph glyph-name="adieresis" unicode="&#xe4;" horiz-adv-x="821" 
d="M209 926q103 71 164 94q63 24 102 24q115 0 174 -71q60 -72 60 -187v-610q0 -65 20 -86q21 -22 51 -22q22 0 42 13t42 44l4 -2q-22 -55 -57 -93q-37 -40 -88 -40q-47 0 -82 39q-35 40 -35 143v162q-15 -166 -113 -259q-100 -95 -229 -95q-109 0 -181 51q-73 52 -73 123
q0 18 16 36q14 15 44 31l536 268v277q0 97 -50 158q-49 59 -155 59q-47 0 -99 -25q-48 -23 -90 -62q-39 -36 -64 -86q-23 -45 -21 -93q-28 -17 -55 -27t-58 -10q-8 60 44 119q52 60 151 127zM117 184q0 -40 47 -76q46 -36 129 -36q129 0 221 93q92 94 92 243v59l-446 -225
q-19 -8 -31 -23t-12 -35zM254 1229q-45 0 -74 31q-28 29 -28 71q0 46 28 74q29 29 74 29t74 -29q28 -28 28 -74q0 -42 -28 -71q-29 -31 -74 -31zM586 1229q-45 0 -74 31t-29 71q0 45 29 74t74 29q44 0 73 -29t29 -74q0 -40 -29 -71t-73 -31z" />
    <glyph glyph-name="aring" unicode="&#xe5;" horiz-adv-x="821" 
d="M209 926q103 71 164 94q63 24 102 24q115 0 174 -71q60 -72 60 -187v-610q0 -65 20 -86q21 -22 51 -22q22 0 42 13t42 44l4 -2q-22 -55 -57 -93q-37 -40 -88 -40q-47 0 -82 39q-35 40 -35 143v162q-15 -166 -113 -259q-100 -95 -229 -95q-109 0 -181 51q-73 52 -73 123
q0 18 16 36q14 15 44 31l536 268v277q0 97 -50 158q-49 59 -155 59q-47 0 -99 -25q-48 -23 -90 -62q-39 -36 -64 -86q-23 -45 -21 -93q-28 -17 -55 -27t-58 -10q-8 60 44 119q52 60 151 127zM117 184q0 -40 47 -76q46 -36 129 -36q129 0 221 93q92 94 92 243v59l-446 -225
q-19 -8 -31 -23t-12 -35zM420 1167q-96 0 -161 43q-66 44 -66 121t66 121q65 43 161 43t161 -43q66 -44 66 -121t-66 -121q-65 -43 -161 -43zM420 1470q-52 0 -83 -34q-32 -35 -32 -105q0 -69 32 -104t83 -35t83 35t32 104q0 70 -32 105q-31 34 -83 34z" />
    <glyph glyph-name="ae" unicode="&#xe6;" horiz-adv-x="1505" 
d="M1516 512q-21 -259 -123 -395q-102 -137 -314 -137q-191 0 -315 115q-125 116 -152 304q-1 -94 -30 -172q-28 -76 -77 -133q-47 -55 -111 -85q-61 -29 -130 -29q-109 0 -181 51q-73 52 -73 123q0 18 16 36q14 15 44 31l536 268v277q0 97 -50 158q-49 59 -155 59
q-47 0 -99 -25q-48 -23 -90 -62q-39 -36 -64 -86q-23 -45 -21 -93q-28 -17 -55 -27t-58 -10q-8 60 44 119q52 60 151 127q103 71 164 94q63 24 102 24q104 0 164 -60q61 -61 68 -159q74 105 184 162q111 57 227 57q90 0 151 -20q66 -21 106 -53q42 -33 63 -73q20 -39 20 -79
h-692q-27 -51 -42 -114t-15 -136q0 -120 32 -209q33 -91 87 -154q52 -61 127 -95q72 -33 155 -33q160 0 267 103q107 102 134 331h5zM1085 1018q-93 0 -176 -47q-81 -46 -133 -131h557q-8 65 -67 121q-60 57 -181 57zM117 184q0 -40 47 -76q46 -36 129 -36q129 0 221 93
q92 94 92 243v59l-446 -225q-19 -8 -31 -23t-12 -35z" />
    <glyph glyph-name="ccedilla" unicode="&#xe7;" horiz-adv-x="960" 
d="M518 1016q-76 0 -148 -32q-70 -31 -123 -89q-53 -57 -84 -141q-32 -85 -32 -187q0 -117 33 -209t87 -155t128 -96q73 -33 156 -33q80 0 151 25t125 79q52 52 87 136q33 80 38 198h4q-1 -251 -116 -390q-114 -138 -326 -142q-13 -19 -14 -20q-5 -10 -5 -15q0 -14 21 -32
q4 -3 46 -38q27 -22 46 -44q20 -23 20 -52q0 -39 -43 -73t-116 -34q-36 0 -64 17q-27 17 -27 45q0 10 5 25t12 26h6q29 -48 60 -67q35 -21 71 -21q16 0 28 9q11 8 11 22q0 24 -20 44q-19 19 -46 41t-45 40q-20 20 -20 38q0 23 18 41q10 10 50 48h-9q-99 0 -182 37
q-80 36 -143 105q-57 62 -93 162q-34 93 -34 208q0 127 45 229q44 100 118 174q72 72 166 111q92 38 193 38q75 0 139 -20q72 -22 118 -56q51 -37 80 -88q30 -52 30 -116q0 -26 -9 -62q-8 -31 -24 -65h-4q-49 102 -100 193q-43 76 -81 116q-39 41 -81 55q-43 15 -103 15z
" />
    <glyph glyph-name="egrave" unicode="&#xe8;" horiz-adv-x="929" 
d="M940 512q-21 -259 -123 -395q-102 -137 -313 -137q-108 0 -194 37q-83 36 -149 105q-60 63 -96 162q-34 93 -34 208q0 126 44 229t115 174q72 72 164 111q89 38 189 38q89 0 150 -20q68 -22 107 -53q41 -32 62 -73t21 -79h-693q-27 -51 -42 -114t-15 -136q0 -117 33 -209
q33 -91 87 -154q52 -61 127 -95q72 -33 155 -33q160 0 267 103q107 102 134 331h4zM510 1018q-93 0 -176 -47q-81 -46 -133 -131h557q-8 64 -68 121t-180 57zM592 1147l-275 369h154l125 -369h-4z" />
    <glyph glyph-name="eacute" unicode="&#xe9;" horiz-adv-x="929" 
d="M940 512q-21 -259 -123 -395q-102 -137 -313 -137q-108 0 -194 37q-83 36 -149 105q-60 63 -96 162q-34 93 -34 208q0 126 44 229t115 174q72 72 164 111q89 38 189 38q89 0 150 -20q68 -22 107 -53q41 -32 62 -73t21 -79h-693q-27 -51 -42 -114t-15 -136q0 -117 33 -209
q33 -91 87 -154q52 -61 127 -95q72 -33 155 -33q160 0 267 103q107 102 134 331h4zM510 1018q-93 0 -176 -47q-81 -46 -133 -131h557q-8 64 -68 121t-180 57zM473 1147h-4l125 369h154z" />
    <glyph glyph-name="ecircumflex" unicode="&#xea;" horiz-adv-x="929" 
d="M940 512q-21 -259 -123 -395q-102 -137 -313 -137q-108 0 -194 37q-83 36 -149 105q-60 63 -96 162q-34 93 -34 208q0 126 44 229t115 174q72 72 164 111q89 38 189 38q89 0 150 -20q68 -22 107 -53q41 -32 62 -73t21 -79h-693q-27 -51 -42 -114t-15 -136q0 -117 33 -209
q33 -91 87 -154q52 -61 127 -95q72 -33 155 -33q160 0 267 103q107 102 134 331h4zM510 1018q-93 0 -176 -47q-81 -46 -133 -131h557q-8 64 -68 121t-180 57zM266 1147h-4l268 369h5l268 -369h-4l-267 217z" />
    <glyph glyph-name="edieresis" unicode="&#xeb;" horiz-adv-x="929" 
d="M940 512q-21 -259 -123 -395q-102 -137 -313 -137q-108 0 -194 37q-83 36 -149 105q-60 63 -96 162q-34 93 -34 208q0 126 44 229t115 174q72 72 164 111q89 38 189 38q89 0 150 -20q68 -22 107 -53q41 -32 62 -73t21 -79h-693q-27 -51 -42 -114t-15 -136q0 -117 33 -209
q33 -91 87 -154q52 -61 127 -95q72 -33 155 -33q160 0 267 103q107 102 134 331h4zM510 1018q-93 0 -176 -47q-81 -46 -133 -131h557q-8 64 -68 121t-180 57zM367 1229q-45 0 -74 31t-29 71q0 45 29 74t74 29q44 0 73 -29t29 -74q0 -40 -29 -71t-73 -31zM698 1229
q-44 0 -73 31t-29 71q0 45 29 74t73 29q45 0 74 -29t29 -74q0 -40 -29 -71t-74 -31z" />
    <glyph glyph-name="igrave" unicode="&#xec;" horiz-adv-x="337" 
d="M225 143q0 -81 30 -104q31 -24 73 -35v-4h-308v4q42 11 73 35q30 23 30 104v799h-205v4l307 98v-901zM213 1147l-274 369h153l125 -369h-4z" />
    <glyph glyph-name="iacute" unicode="&#xed;" horiz-adv-x="337" 
d="M225 143q0 -81 30 -104q31 -24 73 -35v-4h-308v4q42 11 73 35q30 23 30 104v799h-205v4l307 98v-901zM135 1147h-4l125 369h154z" />
    <glyph glyph-name="icircumflex" unicode="&#xee;" horiz-adv-x="337" 
d="M225 143q0 -81 30 -104q31 -24 73 -35v-4h-308v4q42 11 73 35q30 23 30 104v799h-205v4l307 98v-901zM-92 1147h-4l268 369h4l268 -369h-4l-266 217z" />
    <glyph glyph-name="idieresis" unicode="&#xef;" horiz-adv-x="337" 
d="M225 143q0 -81 30 -104q31 -24 73 -35v-4h-308v4q42 11 73 35q30 23 30 104v799h-205v4l307 98v-901zM8 1229q-45 0 -74 31q-28 29 -28 71q0 46 28 74q29 29 74 29t74 -29t29 -74q0 -40 -29 -71t-74 -31zM340 1229q-45 0 -74 31q-28 29 -28 71q0 46 28 74q29 29 74 29
t74 -29q28 -28 28 -74q0 -42 -28 -71q-29 -31 -74 -31z" />
    <glyph glyph-name="eth" unicode="&#xf0;" horiz-adv-x="909" 
d="M889 625q0 -139 -27 -258q-27 -120 -81 -205q-55 -87 -139 -134q-86 -48 -202 -48q-79 0 -155 30q-75 29 -134 90q-60 61 -95 148q-36 88 -36 198q0 81 26 153q26 71 72 122q47 52 114 81t155 29q72 0 132 -24t111 -64q52 -41 88 -90q39 -53 62 -102q2 36 3 56t1 61
q0 169 -31 289q-32 122 -87 200l-246 -104v22l233 99q-55 69 -127 103q-71 34 -151 34q-89 0 -171 -47q-80 -46 -138 -142h-5q-11 21 -15 40q-5 22 -5 38q0 72 84 112q83 40 205 40q98 0 190 -42t168 -120l201 84v-23l-184 -77q82 -94 133 -235t51 -314zM115 369
q0 -162 79 -259q80 -98 207 -98q159 0 258 144q98 142 119 385q-69 124 -158 168q-87 43 -180 43q-154 0 -240 -106q-85 -104 -85 -277z" />
    <glyph glyph-name="ntilde" unicode="&#xf1;" horiz-adv-x="997" 
d="M225 143q0 -81 30 -104q31 -24 73 -35v-4h-308v4q42 11 73 35q30 23 30 104v799h-205v4l307 98v-366q67 186 156 276t219 90q140 0 212 -89q73 -90 73 -230v-582q0 -82 29 -104q31 -24 73 -35v-4h-307v4q42 11 73 35q29 22 29 104v572q0 105 -55 170t-160 65
q-102 0 -189 -62q-91 -65 -153 -218v-527zM770 1419q-24 -93 -60 -140q-36 -46 -98 -46q-40 0 -74 17q-44 22 -68 38q-21 14 -63 38q-30 17 -63 17q-37 0 -60 -23q-24 -24 -42 -77h-4q24 93 60 140t97 47q39 0 75 -18q44 -22 68 -38q21 -14 63 -38q30 -17 63 -17q37 0 60 23
q24 24 42 77h4z" />
    <glyph glyph-name="ograve" unicode="&#xf2;" horiz-adv-x="1089" 
d="M1059 512q0 -116 -37 -212q-38 -99 -104 -168q-68 -71 -163 -112q-93 -40 -210 -40t-210 40q-95 41 -163 112q-66 69 -104 168q-37 96 -37 212t37 212q38 99 104 168q68 71 163 112q93 40 210 40t210 -40q95 -41 163 -112q66 -69 104 -168q37 -96 37 -212zM145 567
q0 -113 30 -215q31 -105 86 -179q58 -78 139 -122q82 -45 186 -45q160 0 259 127t99 324q0 110 -31 215q-30 103 -87 179q-59 79 -138 122q-82 45 -184 45q-160 0 -259 -127q-100 -129 -100 -324zM604 1147l-274 369h153l125 -369h-4z" />
    <glyph glyph-name="oacute" unicode="&#xf3;" horiz-adv-x="1089" 
d="M1059 512q0 -116 -37 -212q-38 -99 -104 -168q-68 -71 -163 -112q-93 -40 -210 -40t-210 40q-95 41 -163 112q-66 69 -104 168q-37 96 -37 212t37 212q38 99 104 168q68 71 163 112q93 40 210 40t210 -40q95 -41 163 -112q66 -69 104 -168q37 -96 37 -212zM145 567
q0 -113 30 -215q31 -105 86 -179q58 -78 139 -122q82 -45 186 -45q160 0 259 127t99 324q0 110 -31 215q-30 103 -87 179q-59 79 -138 122q-82 45 -184 45q-160 0 -259 -127q-100 -129 -100 -324zM485 1147h-4l125 369h154z" />
    <glyph glyph-name="ocircumflex" unicode="&#xf4;" horiz-adv-x="1089" 
d="M1059 512q0 -116 -37 -212q-38 -99 -104 -168q-68 -71 -163 -112q-93 -40 -210 -40t-210 40q-95 41 -163 112q-66 69 -104 168q-37 96 -37 212t37 212q38 99 104 168q68 71 163 112q93 40 210 40t210 -40q95 -41 163 -112q66 -69 104 -168q37 -96 37 -212zM145 567
q0 -113 30 -215q31 -105 86 -179q58 -78 139 -122q82 -45 186 -45q160 0 259 127t99 324q0 110 -31 215q-30 103 -87 179q-59 79 -138 122q-82 45 -184 45q-160 0 -259 -127q-100 -129 -100 -324zM279 1147h-5l269 369h4l268 -369h-4l-266 217z" />
    <glyph glyph-name="otilde" unicode="&#xf5;" horiz-adv-x="1089" 
d="M1059 512q0 -116 -37 -212q-38 -99 -104 -168q-68 -71 -163 -112q-93 -40 -210 -40t-210 40q-95 41 -163 112q-66 69 -104 168q-37 96 -37 212t37 212q38 99 104 168q68 71 163 112q93 40 210 40t210 -40q95 -41 163 -112q66 -69 104 -168q37 -96 37 -212zM145 567
q0 -113 30 -215q31 -105 86 -179q58 -78 139 -122q82 -45 186 -45q160 0 259 127t99 324q0 110 -31 215q-30 103 -87 179q-59 79 -138 122q-82 45 -184 45q-160 0 -259 -127q-100 -129 -100 -324zM811 1419q-24 -93 -60 -140q-36 -46 -98 -46q-40 0 -74 17q-44 22 -68 38
q-15 10 -64 38q-30 17 -62 17q-37 0 -60 -23q-24 -24 -42 -77h-4q24 93 60 140t97 47q39 0 75 -18q44 -22 68 -38q21 -14 63 -38q30 -17 63 -17q37 0 60 23q24 24 42 77h4z" />
    <glyph glyph-name="odieresis" unicode="&#xf6;" horiz-adv-x="1089" 
d="M1059 512q0 -116 -37 -212q-38 -99 -104 -168q-68 -71 -163 -112q-93 -40 -210 -40t-210 40q-95 41 -163 112q-66 69 -104 168q-37 96 -37 212t37 212q38 99 104 168q68 71 163 112q93 40 210 40t210 -40q95 -41 163 -112q66 -69 104 -168q37 -96 37 -212zM145 567
q0 -113 30 -215q31 -105 86 -179q58 -78 139 -122q82 -45 186 -45q160 0 259 127t99 324q0 110 -31 215q-30 103 -87 179q-59 79 -138 122q-82 45 -184 45q-160 0 -259 -127q-100 -129 -100 -324zM379 1229q-45 0 -74 31t-29 71q0 45 29 74t74 29t74 -29q28 -28 28 -74
q0 -42 -28 -71q-29 -31 -74 -31zM711 1229q-45 0 -74 31t-29 71q0 45 29 74t74 29q44 0 73 -29t29 -74q0 -40 -29 -71t-73 -31z" />
    <glyph glyph-name="divide" unicode="&#xf7;" horiz-adv-x="839" 
d="M420 1044q50 0 81 -30t31 -82t-31 -82q-33 -31 -81 -31t-81 31q-32 30 -32 82t32 82q31 30 81 30zM41 645h758v-20h-758v20zM420 451q48 0 81 -31q31 -30 31 -82t-31 -82q-33 -31 -81 -31t-81 31q-32 30 -32 82t32 82q33 31 81 31z" />
    <glyph glyph-name="oslash" unicode="&#xf8;" horiz-adv-x="1089" 
d="M31 0l135 139q-62 68 -99 166q-36 96 -36 207q0 116 37 212q38 99 104 168q68 71 163 112q93 40 210 40q112 0 204 -37q90 -36 160 -106l119 123h31l-135 -139q62 -68 99 -166q36 -96 36 -207q0 -116 -37 -212q-38 -99 -104 -168q-68 -71 -163 -112q-93 -40 -210 -40
q-112 0 -204 37t-161 106l-119 -123h-30zM145 567q0 -99 24 -191t69 -165l602 620q-58 85 -143 136q-86 51 -193 51q-160 0 -259 -127q-100 -129 -100 -324zM944 457q0 103 -23 191q-24 92 -69 165l-602 -620q57 -86 141 -136q85 -51 195 -51q160 0 259 127t99 324z" />
    <glyph glyph-name="ugrave" unicode="&#xf9;" horiz-adv-x="946" 
d="M834 143q0 -82 29 -104q31 -24 73 -35v-4h-205v346q-66 -185 -146 -275q-81 -91 -210 -91q-131 0 -197 82q-65 81 -65 217v663h-205v4l307 98v-755q0 -95 47 -156q46 -59 146 -59q88 0 175 63q86 62 148 217v588h-205v4l308 98v-901zM532 1147l-274 369h154l125 -369h-5z
" />
    <glyph glyph-name="uacute" unicode="&#xfa;" horiz-adv-x="946" 
d="M834 143q0 -82 29 -104q31 -24 73 -35v-4h-205v346q-66 -185 -146 -275q-81 -91 -210 -91q-131 0 -197 82q-65 81 -65 217v663h-205v4l307 98v-755q0 -95 47 -156q46 -59 146 -59q88 0 175 63q86 62 148 217v588h-205v4l308 98v-901zM414 1147h-4l125 369h153z" />
    <glyph glyph-name="ucircumflex" unicode="&#xfb;" horiz-adv-x="946" 
d="M834 143q0 -82 29 -104q31 -24 73 -35v-4h-205v346q-66 -185 -146 -275q-81 -91 -210 -91q-131 0 -197 82q-65 81 -65 217v663h-205v4l307 98v-755q0 -95 47 -156q46 -59 146 -59q88 0 175 63q86 62 148 217v588h-205v4l308 98v-901zM207 1147h-4l268 369h4l268 -369h-4
l-266 217z" />
    <glyph glyph-name="udieresis" unicode="&#xfc;" horiz-adv-x="946" 
d="M834 143q0 -82 29 -104q31 -24 73 -35v-4h-205v346q-66 -185 -146 -275q-81 -91 -210 -91q-131 0 -197 82q-65 81 -65 217v663h-205v4l307 98v-755q0 -95 47 -156q46 -59 146 -59q88 0 175 63q86 62 148 217v588h-205v4l308 98v-901zM307 1229q-45 0 -74 31
q-28 29 -28 71q0 46 28 74q29 29 74 29t74 -29t29 -74q0 -40 -29 -71t-74 -31zM639 1229q-45 0 -74 31q-28 29 -28 71q0 46 28 74q29 29 74 29t74 -29q28 -28 28 -74q0 -42 -28 -71q-29 -31 -74 -31z" />
    <glyph glyph-name="yacute" unicode="&#xfd;" horiz-adv-x="817" 
d="M53 848q-33 83 -84 121q-48 35 -108 51v4h397v-4q-50 -15 -88 -49q-39 -35 -6 -121l289 -752l266 682q45 117 11 168q-35 51 -116 72v4h363v-4q-72 -27 -132 -74q-58 -46 -104 -168l-325 -839q-51 -133 -139 -200t-201 -67q-54 0 -103 11q-48 11 -84 28v101
q77 -30 130 -42q54 -12 94 -12q91 0 161 41t115 148l12 28zM379 1147h-4l125 369h153z" />
    <glyph glyph-name="thorn" unicode="&#xfe;" horiz-adv-x="1050" 
d="M205 -123q0 -103 36 -134q35 -31 128 -46v-4h-369v4q42 11 73 35q29 22 29 104v1491h-204v4l307 99v-713q23 59 60 118q36 59 84 105q49 48 113 76q63 28 146 28q99 0 171 -36q75 -38 126 -102q51 -65 78 -154q27 -90 27 -195q0 -138 -47 -247q-46 -106 -122 -181
q-77 -75 -171 -112q-95 -37 -195 -37q-87 0 -153 15t-117 36v-154zM557 956q-93 0 -185 -50q-90 -49 -167 -197v-559q51 -57 125 -101q73 -43 176 -43q184 0 295 138q110 137 110 366q0 96 -24 178q-23 79 -71 141q-47 60 -111 94q-63 33 -148 33z" />
    <glyph glyph-name="ydieresis" unicode="&#xff;" horiz-adv-x="817" 
d="M53 848q-33 83 -84 121q-48 35 -108 51v4h397v-4q-50 -15 -88 -49q-39 -35 -6 -121l289 -752l266 682q45 117 11 168q-35 51 -116 72v4h363v-4q-72 -27 -132 -74q-58 -46 -104 -168l-325 -839q-51 -133 -139 -200t-201 -67q-54 0 -103 11q-48 11 -84 28v101
q77 -30 130 -42q54 -12 94 -12q91 0 161 41t115 148l12 28zM272 1229q-44 0 -73 31t-29 71q0 45 29 74t73 29q45 0 74 -29t29 -74q0 -40 -29 -71t-74 -31zM604 1229q-45 0 -74 31q-28 29 -28 71q0 46 28 74q29 29 74 29t74 -29t29 -74q0 -40 -29 -71t-74 -31z" />
    <glyph glyph-name="Amacron" unicode="&#x100;" horiz-adv-x="1062" 
d="M1010 176q33 -86 84 -122q49 -34 108 -50v-4h-397v4q51 16 88 48q39 34 6 122l-131 338h-565l-105 -268q-47 -119 -12 -169t117 -71v-4h-363v4q74 27 131 74q55 45 105 168l389 997q-33 39 -73 57q-46 21 -85 27v4h193l24 62zM539 1108q-20 45 -29 63q-19 36 -29 50
l-245 -627h501zM739 1618v-102h-430v102h430z" />
    <glyph glyph-name="amacron" unicode="&#x101;" horiz-adv-x="821" 
d="M209 926q103 71 164 94q63 24 102 24q115 0 174 -71q60 -72 60 -187v-610q0 -65 20 -86q21 -22 51 -22q22 0 42 13t42 44l4 -2q-22 -55 -57 -93q-37 -40 -88 -40q-47 0 -82 39q-35 40 -35 143v162q-15 -166 -113 -259q-100 -95 -229 -95q-109 0 -181 51q-73 52 -73 123
q0 18 16 36q14 15 44 31l536 268v277q0 97 -50 158q-49 59 -155 59q-47 0 -99 -25q-48 -23 -90 -62q-39 -36 -64 -86q-23 -45 -21 -93q-28 -17 -55 -27t-58 -10q-8 60 44 119q52 60 151 127zM117 184q0 -40 47 -76q46 -36 129 -36q129 0 221 93q92 94 92 243v59l-446 -225
q-19 -8 -31 -23t-12 -35zM635 1382v-102h-430v102h430z" />
    <glyph glyph-name="Abreve" unicode="&#x102;" horiz-adv-x="1062" 
d="M1010 176q33 -86 84 -122q49 -34 108 -50v-4h-397v4q51 16 88 48q39 34 6 122l-131 338h-565l-105 -268q-47 -119 -12 -169t117 -71v-4h-363v4q74 27 131 74q55 45 105 168l389 997q-33 39 -73 57q-46 21 -85 27v4h193l24 62zM539 1108q-20 45 -29 63q-19 36 -29 50
l-245 -627h501zM524 1434q-105 0 -170 65t-65 180h4q4 -84 73 -118q70 -35 158 -35q89 0 159 35q69 34 73 118h4q0 -114 -66 -180q-65 -65 -170 -65z" />
    <glyph glyph-name="abreve" unicode="&#x103;" horiz-adv-x="821" 
d="M209 926q103 71 164 94q63 24 102 24q115 0 174 -71q60 -72 60 -187v-610q0 -65 20 -86q21 -22 51 -22q22 0 42 13t42 44l4 -2q-22 -55 -57 -93q-37 -40 -88 -40q-47 0 -82 39q-35 40 -35 143v162q-15 -166 -113 -259q-100 -95 -229 -95q-109 0 -181 51q-73 52 -73 123
q0 18 16 36q14 15 44 31l536 268v277q0 97 -50 158q-49 59 -155 59q-47 0 -99 -25q-48 -23 -90 -62q-39 -36 -64 -86q-23 -45 -21 -93q-28 -17 -55 -27t-58 -10q-8 60 44 119q52 60 151 127zM117 184q0 -40 47 -76q46 -36 129 -36q129 0 221 93q92 94 92 243v59l-446 -225
q-19 -8 -31 -23t-12 -35zM420 1188q-104 0 -170 77t-66 210h4q5 -101 73 -143q69 -42 159 -42t159 42q67 41 72 143h4q0 -135 -65 -210q-66 -77 -170 -77z" />
    <glyph glyph-name="Aogonek" unicode="&#x104;" horiz-adv-x="1062" 
d="M1010 176q33 -86 84 -122q49 -34 108 -50v-4h-397v4q51 16 88 48q39 34 6 122l-131 338h-565l-105 -268q-47 -119 -12 -169t117 -71v-4h-363v4q74 27 131 74q55 45 105 168l389 997q-33 39 -73 57q-46 21 -85 27v4h193l24 62zM539 1108q-20 45 -29 63q-19 36 -29 50
l-245 -627h501zM950 -152q0 -56 37 -80t76 -24q48 0 76 17q31 18 59 63l4 -2q-40 -75 -84 -113q-43 -37 -106 -37q-51 0 -92 32t-41 93q0 74 47 118q49 46 104 85h4q-47 -43 -66 -82q-18 -38 -18 -70z" />
    <glyph glyph-name="aogonek" unicode="&#x105;" horiz-adv-x="821" 
d="M653 -152q0 -56 37 -80q38 -24 76 -24q48 0 76 17q31 18 59 63l4 -2q-40 -75 -84 -113q-43 -37 -106 -37q-51 0 -92 32t-41 93q0 70 43 112q45 44 94 81q-44 1 -79 40q-34 37 -34 142v162q-15 -166 -113 -259q-100 -95 -229 -95q-109 0 -181 51q-73 52 -73 123
q0 18 16 36q14 15 44 31l536 268v277q0 97 -50 158q-49 59 -155 59q-47 0 -99 -25q-48 -23 -90 -62q-39 -36 -64 -86q-23 -45 -21 -93q-28 -17 -55 -27t-58 -10q-8 60 44 119q52 60 151 127q103 71 164 94q63 24 102 24q115 0 174 -71q60 -72 60 -187v-610q0 -65 20 -86
q21 -22 51 -22q22 0 42 13t42 44l4 -2q-22 -55 -56 -93q-36 -40 -85 -40q-43 -40 -58 -75q-16 -37 -16 -67zM117 184q0 -40 47 -76q46 -36 129 -36q129 0 221 93q92 94 92 243v59l-446 -225q-19 -8 -31 -23t-12 -35z" />
    <glyph glyph-name="Cacute" unicode="&#x106;" horiz-adv-x="1200" 
d="M670 1323q-106 0 -201 -43q-99 -45 -169 -121q-74 -80 -116 -191q-43 -113 -43 -253q0 -153 41 -274q40 -118 116 -200t179 -123q105 -42 230 -42q100 0 193 32q92 32 159 97q67 66 109 167t46 240h7q-5 -305 -152 -469q-147 -163 -410 -163q-142 0 -256 48
q-115 48 -194 135q-81 88 -124 209q-44 123 -44 267q0 162 57 294q56 130 151 225t215 144q123 50 249 50q135 0 225 -30t192 -87v-354h-4q-51 239 -168 341q-116 101 -288 101zM487 1438l451 211v-123l-451 -92v4z" />
    <glyph glyph-name="cacute" unicode="&#x107;" horiz-adv-x="960" 
d="M518 1016q-76 0 -148 -32q-70 -31 -123 -89q-53 -57 -84 -141q-32 -85 -32 -187q0 -117 33 -209t87 -155t128 -96q73 -33 156 -33q80 0 151 25t125 79q52 52 87 136q33 80 38 198h4q-1 -256 -120 -394q-118 -138 -337 -138q-99 0 -182 37q-80 36 -143 105q-57 62 -93 162
q-34 93 -34 208q0 127 45 229q44 100 118 174q72 72 166 111q92 38 193 38q75 0 139 -20q72 -22 118 -56q51 -37 80 -88q30 -52 30 -116q0 -26 -9 -62q-8 -31 -24 -65h-4q-49 102 -100 193q-43 76 -81 116q-39 41 -81 55q-43 15 -103 15zM494 1147h-5l125 369h154z" />
    <glyph glyph-name="Ccircumflex" unicode="&#x108;" horiz-adv-x="1200" 
d="M670 1323q-106 0 -201 -43q-99 -45 -169 -121q-74 -80 -116 -191q-43 -113 -43 -253q0 -153 41 -274q40 -118 116 -200t179 -123q105 -42 230 -42q100 0 193 32q92 32 159 97q67 66 109 167t46 240h7q-5 -305 -152 -469q-147 -163 -410 -163q-142 0 -256 48
q-115 48 -194 135q-81 88 -124 209q-44 123 -44 267q0 162 57 294q56 130 151 225t215 144q123 50 249 50q135 0 225 -30t192 -87v-354h-4q-51 239 -168 341q-116 101 -288 101zM446 1434h-4l269 221h4l268 -221h-4l-266 102z" />
    <glyph glyph-name="ccircumflex" unicode="&#x109;" horiz-adv-x="960" 
d="M518 1016q-76 0 -148 -32q-70 -31 -123 -89q-53 -57 -84 -141q-32 -85 -32 -187q0 -117 33 -209t87 -155t128 -96q73 -33 156 -33q80 0 151 25t125 79q52 52 87 136q33 80 38 198h4q-1 -256 -120 -394q-118 -138 -337 -138q-99 0 -182 37q-80 36 -143 105q-57 62 -93 162
q-34 93 -34 208q0 127 45 229q44 100 118 174q72 72 166 111q92 38 193 38q75 0 139 -20q72 -22 118 -56q51 -37 80 -88q30 -52 30 -116q0 -26 -9 -62q-8 -31 -24 -65h-4q-49 102 -100 193q-43 76 -81 116q-39 41 -81 55q-43 15 -103 15zM287 1147h-4l268 369h4l268 -369h-4
l-266 217z" />
    <glyph glyph-name="Cdotaccent" unicode="&#x10a;" horiz-adv-x="1200" 
d="M670 1323q-106 0 -201 -43q-99 -45 -169 -121q-74 -80 -116 -191q-43 -113 -43 -253q0 -153 41 -274q40 -118 116 -200t179 -123q105 -42 230 -42q100 0 193 32q92 32 159 97q67 66 109 167t46 240h7q-5 -305 -152 -469q-147 -163 -410 -163q-142 0 -256 48
q-115 48 -194 135q-81 88 -124 209q-44 123 -44 267q0 162 57 294q56 130 151 225t215 144q123 50 249 50q135 0 225 -30t192 -87v-354h-4q-51 239 -168 341q-116 101 -288 101zM713 1454q-45 0 -74 31t-29 71q0 45 29 74t74 29q44 0 73 -29t29 -74q0 -40 -29 -71t-73 -31z
" />
    <glyph glyph-name="cdotaccent" unicode="&#x10b;" horiz-adv-x="960" 
d="M518 1016q-76 0 -148 -32q-70 -31 -123 -89q-53 -57 -84 -141q-32 -85 -32 -187q0 -117 33 -209t87 -155t128 -96q73 -33 156 -33q80 0 151 25t125 79q52 52 87 136q33 80 38 198h4q-1 -256 -120 -394q-118 -138 -337 -138q-99 0 -182 37q-80 36 -143 105q-57 62 -93 162
q-34 93 -34 208q0 127 45 229q44 100 118 174q72 72 166 111q92 38 193 38q75 0 139 -20q72 -22 118 -56q51 -37 80 -88q30 -52 30 -116q0 -26 -9 -62q-8 -31 -24 -65h-4q-49 102 -100 193q-43 76 -81 116q-39 41 -81 55q-43 15 -103 15zM553 1229q-45 0 -74 31
q-28 29 -28 71q0 46 28 74q29 29 74 29t74 -29q28 -28 28 -74q0 -42 -28 -71q-29 -31 -74 -31z" />
    <glyph glyph-name="Ccaron" unicode="&#x10c;" horiz-adv-x="1200" 
d="M670 1323q-106 0 -201 -43q-99 -45 -169 -121q-74 -80 -116 -191q-43 -113 -43 -253q0 -153 41 -274q40 -118 116 -200t179 -123q105 -42 230 -42q100 0 193 32q92 32 159 97q67 66 109 167t46 240h7q-5 -305 -152 -469q-147 -163 -410 -163q-142 0 -256 48
q-115 48 -194 135q-81 88 -124 209q-44 123 -44 267q0 162 57 294q56 130 151 225t215 144q123 50 249 50q135 0 225 -30t192 -87v-354h-4q-51 239 -168 341q-116 101 -288 101zM446 1659l267 -103l266 103h4l-268 -221h-4l-269 221h4z" />
    <glyph glyph-name="ccaron" unicode="&#x10d;" horiz-adv-x="960" 
d="M518 1016q-76 0 -148 -32q-70 -31 -123 -89q-53 -57 -84 -141q-32 -85 -32 -187q0 -117 33 -209t87 -155t128 -96q73 -33 156 -33q80 0 151 25t125 79q52 52 87 136q33 80 38 198h4q-1 -256 -120 -394q-118 -138 -337 -138q-99 0 -182 37q-80 36 -143 105q-57 62 -93 162
q-34 93 -34 208q0 127 45 229q44 100 118 174q72 72 166 111q92 38 193 38q75 0 139 -20q72 -22 118 -56q51 -37 80 -88q30 -52 30 -116q0 -26 -9 -62q-8 -31 -24 -65h-4q-49 102 -100 193q-43 76 -81 116q-39 41 -81 55q-43 15 -103 15zM819 1516h4l-268 -369h-4l-268 369
h4l266 -218z" />
    <glyph glyph-name="Dcaron" unicode="&#x10e;" horiz-adv-x="1261" 
d="M31 1327v4h440q191 0 332 -48q143 -49 233 -133q94 -88 139 -203q46 -117 46 -255q0 -143 -51 -274q-49 -127 -149 -219q-102 -94 -248 -146q-150 -53 -343 -53h-399v4q40 11 72 35q30 23 30 104v1045q0 82 -30 104q-32 24 -72 35zM446 1311h-206v-1291h194q165 0 295 49
q125 47 212 134q85 85 127 207t42 264q0 132 -40 248q-41 117 -121 202q-84 89 -207 137q-127 50 -296 50zM330 1659l266 -103l266 103h4l-268 -221h-4l-268 221h4z" />
    <glyph glyph-name="dcaron" unicode="&#x10f;" horiz-adv-x="1255" 
d="M948 143q0 -81 30 -104q31 -24 73 -35v-4h-205v307q-22 -54 -61 -118q-36 -59 -84 -105q-50 -49 -112 -76q-63 -28 -147 -28q-99 0 -171 36q-75 38 -126 102q-50 63 -77 154q-27 90 -27 195q0 138 47 247q46 106 122 181q77 75 171 112q95 37 194 37q88 0 154 -15
t117 -36v334h-205v4l307 99v-1287zM494 68q93 0 185 50q90 49 167 197v559q-51 57 -125 101q-73 43 -176 43q-184 0 -295 -138t-111 -366q0 -92 25 -178q23 -79 71 -141q47 -60 111 -94q63 -33 148 -33zM1044 963h-4l62 368h133z" />
    <glyph glyph-name="Dcroat" unicode="&#x110;" horiz-adv-x="1261" 
d="M0 686h133v502q0 82 -30 104q-32 24 -72 35v4h440q191 0 332 -48q143 -49 233 -133q94 -88 139 -203q46 -117 46 -255q0 -143 -51 -274q-49 -127 -149 -219q-102 -94 -248 -146q-150 -53 -343 -53h-399v4q40 11 72 35q30 23 30 104v523h-133v20zM446 1311h-206v-625h354
v-20h-354v-646h194q165 0 295 49q125 47 212 134q85 85 127 207t42 264q0 132 -40 248q-41 117 -121 202q-84 89 -207 137q-127 50 -296 50z" />
    <glyph glyph-name="dcroat" unicode="&#x111;" horiz-adv-x="1060" 
d="M948 143q0 -81 30 -104q31 -24 73 -35v-4h-205v307q-22 -54 -61 -118q-36 -59 -84 -105q-50 -49 -112 -76q-63 -28 -147 -28q-99 0 -171 36q-75 38 -126 102q-50 63 -77 154q-27 90 -27 195q0 138 47 247q46 106 122 181q77 75 171 112q95 37 194 37q88 0 154 -15
t117 -36v174h-297v21h297v139h-205v4l307 99v-242h113v-21h-113v-1024zM494 68q93 0 185 50q90 49 167 197v559q-51 57 -125 101q-73 43 -176 43q-184 0 -295 -138t-111 -366q0 -92 25 -178q23 -79 71 -141q47 -60 111 -94q63 -33 148 -33z" />
    <glyph glyph-name="Emacron" unicode="&#x112;" horiz-adv-x="921" 
d="M494 680h-254v-660h346q122 0 195 48q71 47 137 176h4l-29 -244h-862v4q40 11 72 35q30 23 30 104v1045q0 82 -30 104q-32 24 -72 35v4h841l29 -244h-4q-67 132 -136 177q-71 47 -196 47h-325v-611h254q89 0 137 48q47 47 74 126h4v-368h-4q-27 80 -74 127t-137 47z
M733 1618v-102h-430v102h430z" />
    <glyph glyph-name="emacron" unicode="&#x113;" horiz-adv-x="929" 
d="M940 512q-21 -259 -123 -395q-102 -137 -313 -137q-108 0 -194 37q-83 36 -149 105q-60 63 -96 162q-34 93 -34 208q0 126 44 229t115 174q72 72 164 111q89 38 189 38q89 0 150 -20q68 -22 107 -53q41 -32 62 -73t21 -79h-693q-27 -51 -42 -114t-15 -136q0 -117 33 -209
q33 -91 87 -154q52 -61 127 -95q72 -33 155 -33q160 0 267 103q107 102 134 331h4zM510 1018q-93 0 -176 -47q-81 -46 -133 -131h557q-8 64 -68 121t-180 57zM748 1382v-102h-431v102h431z" />
    <glyph glyph-name="Ebreve" unicode="&#x114;" horiz-adv-x="921" 
d="M494 680h-254v-660h346q122 0 195 48q71 47 137 176h4l-29 -244h-862v4q40 11 72 35q30 23 30 104v1045q0 82 -30 104q-32 24 -72 35v4h841l29 -244h-4q-67 132 -136 177q-71 47 -196 47h-325v-611h254q89 0 137 48q47 47 74 126h4v-368h-4q-27 80 -74 127t-137 47z
M518 1434q-105 0 -170 65t-65 180h4q5 -84 72 -118q70 -35 159 -35t159 35q69 34 73 118h4q0 -114 -66 -180q-65 -65 -170 -65z" />
    <glyph glyph-name="ebreve" unicode="&#x115;" horiz-adv-x="929" 
d="M940 512q-21 -259 -123 -395q-102 -137 -313 -137q-108 0 -194 37q-83 36 -149 105q-60 63 -96 162q-34 93 -34 208q0 126 44 229t115 174q72 72 164 111q89 38 189 38q89 0 150 -20q68 -22 107 -53q41 -32 62 -73t21 -79h-693q-27 -51 -42 -114t-15 -136q0 -117 33 -209
q33 -91 87 -154q52 -61 127 -95q72 -33 155 -33q160 0 267 103q107 102 134 331h4zM510 1018q-93 0 -176 -47q-81 -46 -133 -131h557q-8 64 -68 121t-180 57zM532 1188q-104 0 -170 77q-65 75 -65 210h4q5 -101 73 -143q69 -42 158 -42q90 0 159 42q68 42 73 143h4
q0 -133 -66 -210t-170 -77z" />
    <glyph glyph-name="Edotaccent" unicode="&#x116;" horiz-adv-x="921" 
d="M494 680h-254v-660h346q122 0 195 48q71 47 137 176h4l-29 -244h-862v4q40 11 72 35q30 23 30 104v1045q0 82 -30 104q-32 24 -72 35v4h841l29 -244h-4q-67 132 -136 177q-71 47 -196 47h-325v-611h254q89 0 137 48q47 47 74 126h4v-368h-4q-27 80 -74 127t-137 47z
M518 1454q-45 0 -74 31q-28 29 -28 71q0 46 28 74q29 29 74 29t74 -29t29 -74q0 -40 -29 -71t-74 -31z" />
    <glyph glyph-name="edotaccent" unicode="&#x117;" horiz-adv-x="929" 
d="M940 512q-21 -259 -123 -395q-102 -137 -313 -137q-108 0 -194 37q-83 36 -149 105q-60 63 -96 162q-34 93 -34 208q0 126 44 229t115 174q72 72 164 111q89 38 189 38q89 0 150 -20q68 -22 107 -53q41 -32 62 -73t21 -79h-693q-27 -51 -42 -114t-15 -136q0 -117 33 -209
q33 -91 87 -154q52 -61 127 -95q72 -33 155 -33q160 0 267 103q107 102 134 331h4zM510 1018q-93 0 -176 -47q-81 -46 -133 -131h557q-8 64 -68 121t-180 57zM532 1229q-44 0 -73 31t-29 71q0 45 29 74t73 29q45 0 74 -29t29 -74q0 -40 -29 -71t-74 -31z" />
    <glyph glyph-name="Eogonek" unicode="&#x118;" horiz-adv-x="921" 
d="M494 680h-254v-660h346q122 0 195 48q71 47 137 176h4l-29 -244h-862v4q40 11 72 35q30 23 30 104v1045q0 82 -30 104q-32 24 -72 35v4h841l29 -244h-4q-67 132 -136 177q-71 47 -196 47h-325v-611h254q89 0 137 48q47 47 74 126h4v-368h-4q-27 80 -74 127t-137 47z
M621 -152q0 -57 36 -80q37 -24 76 -24q48 0 76 17q31 18 59 63l4 -2q-40 -75 -84 -113q-43 -37 -106 -37q-51 0 -92 32t-41 93q0 74 47 118q49 46 104 85h5q-49 -45 -67 -82q-17 -35 -17 -70z" />
    <glyph glyph-name="eogonek" unicode="&#x119;" horiz-adv-x="929" 
d="M940 512q-21 -259 -123 -395q-102 -137 -313 -137q-108 0 -194 37q-83 36 -149 105q-60 63 -96 162q-34 93 -34 208q0 126 44 229t115 174q72 72 164 111q89 38 189 38q89 0 150 -20q68 -22 107 -53q41 -32 62 -73t21 -79h-693q-27 -51 -42 -114t-15 -136q0 -117 33 -209
q33 -91 87 -154q52 -61 127 -95q72 -33 155 -33q160 0 267 103q107 102 134 331h4zM510 1018q-93 0 -176 -47q-81 -46 -133 -131h557q-8 64 -68 121t-180 57zM557 -152q0 -56 37 -80q38 -24 76 -24q47 0 75 17q32 19 60 63l4 -2q-40 -75 -84 -113q-43 -37 -107 -37
q-51 0 -92 32t-41 93q0 74 47 118q46 43 105 85h4q-49 -45 -67 -82q-17 -35 -17 -70z" />
    <glyph glyph-name="Ecaron" unicode="&#x11a;" horiz-adv-x="921" 
d="M494 680h-254v-660h346q122 0 195 48q71 47 137 176h4l-29 -244h-862v4q40 11 72 35q30 23 30 104v1045q0 82 -30 104q-32 24 -72 35v4h841l29 -244h-4q-67 132 -136 177q-71 47 -196 47h-325v-611h254q89 0 137 48q47 47 74 126h4v-368h-4q-27 80 -74 127t-137 47z
M252 1659l266 -103l266 103h4l-268 -221h-4l-268 221h4z" />
    <glyph glyph-name="ecaron" unicode="&#x11b;" horiz-adv-x="929" 
d="M940 512q-21 -259 -123 -395q-102 -137 -313 -137q-108 0 -194 37q-83 36 -149 105q-60 63 -96 162q-34 93 -34 208q0 126 44 229t115 174q72 72 164 111q89 38 189 38q89 0 150 -20q68 -22 107 -53q41 -32 62 -73t21 -79h-693q-27 -51 -42 -114t-15 -136q0 -117 33 -209
q33 -91 87 -154q52 -61 127 -95q72 -33 155 -33q160 0 267 103q107 102 134 331h4zM510 1018q-93 0 -176 -47q-81 -46 -133 -131h557q-8 64 -68 121t-180 57zM799 1516h4l-268 -369h-5l-268 369h4l266 -218z" />
    <glyph glyph-name="Gcircumflex" unicode="&#x11c;" horiz-adv-x="1347" 
d="M578 635v82h667v-717h-102v502q-22 -248 -157 -386q-133 -136 -357 -136q-135 0 -243 49q-109 49 -185 137t-118 209t-42 262q0 169 57 302q56 132 154 225q97 92 224 140q128 48 267 48q151 0 255 -27q103 -27 214 -90v-354l-4 -2q-60 244 -184 341t-340 97
q-114 0 -214 -41t-172 -119q-75 -81 -114 -193q-41 -117 -41 -264t38 -267q36 -114 108 -197q69 -80 167 -122q97 -42 214 -42q99 0 180 29q84 30 147 93q65 65 103 158q38 95 43 230v53h-565zM477 1434h-4l268 221h4l269 -221h-4l-267 102z" />
    <glyph glyph-name="gcircumflex" unicode="&#x11d;" horiz-adv-x="819" 
d="M422 1044q34 0 76 -5q35 -4 69 -15h293v-82h-184q38 -28 70 -84q30 -53 30 -119q0 -148 -103 -239q-104 -92 -276 -92q-60 0 -104 10q-53 12 -86 26q-44 -33 -69 -63q-27 -33 -27 -66q0 -48 41 -62q39 -13 122 -13h279q142 0 218 -55q75 -54 75 -142q0 -64 -48 -130
q-50 -68 -128 -120t-186 -87q-103 -34 -216 -34q-110 0 -189 43t-79 146q0 37 34 111q35 75 156 173q-62 6 -111 31q-46 24 -46 82q0 46 39 83q47 45 129 108q-77 39 -117 107q-41 70 -41 157q0 148 105 239q106 92 274 92zM395 1018q-111 0 -177 -74t-66 -209
q0 -55 16 -107q17 -56 49 -98q31 -41 85 -69q52 -27 124 -27q114 0 179 70t65 213q0 51 -17 107t-49 98q-31 41 -85 69q-53 27 -124 27zM82 -70q0 -104 82 -140t211 -36q184 0 288 65q103 64 103 158q0 72 -53 119t-150 47h-295h-37q-12 0 -34 2q-75 -68 -94 -114
q-21 -49 -21 -101zM166 1147h-4l268 369h4l268 -369h-4l-266 217z" />
    <glyph glyph-name="Gbreve" unicode="&#x11e;" horiz-adv-x="1347" 
d="M578 635v82h667v-717h-102v502q-22 -248 -157 -386q-133 -136 -357 -136q-135 0 -243 49q-109 49 -185 137t-118 209t-42 262q0 169 57 302q56 132 154 225q97 92 224 140q128 48 267 48q151 0 255 -27q103 -27 214 -90v-354l-4 -2q-60 244 -184 341t-340 97
q-114 0 -214 -41t-172 -119q-75 -81 -114 -193q-41 -117 -41 -264t38 -267q36 -114 108 -197q69 -80 167 -122q97 -42 214 -42q99 0 180 29q84 30 147 93q65 65 103 158q38 95 43 230v53h-565zM743 1434q-105 0 -170 65t-65 180h4q4 -84 73 -118q70 -35 158 -35q89 0 159 35
q69 34 73 118h4q0 -114 -66 -180q-65 -65 -170 -65z" />
    <glyph glyph-name="gbreve" unicode="&#x11f;" horiz-adv-x="819" 
d="M422 1044q34 0 76 -5q35 -4 69 -15h293v-82h-184q38 -28 70 -84q30 -53 30 -119q0 -148 -103 -239q-104 -92 -276 -92q-60 0 -104 10q-53 12 -86 26q-44 -33 -69 -63q-27 -33 -27 -66q0 -48 41 -62q39 -13 122 -13h279q142 0 218 -55q75 -54 75 -142q0 -64 -48 -130
q-50 -68 -128 -120t-186 -87q-103 -34 -216 -34q-110 0 -189 43t-79 146q0 37 34 111q35 75 156 173q-62 6 -111 31q-46 24 -46 82q0 46 39 83q47 45 129 108q-77 39 -117 107q-41 70 -41 157q0 148 105 239q106 92 274 92zM395 1018q-111 0 -177 -74t-66 -209
q0 -55 16 -107q17 -56 49 -98q31 -41 85 -69q52 -27 124 -27q114 0 179 70t65 213q0 51 -17 107t-49 98q-31 41 -85 69q-53 27 -124 27zM82 -70q0 -104 82 -140t211 -36q184 0 288 65q103 64 103 158q0 72 -53 119t-150 47h-295h-37q-12 0 -34 2q-75 -68 -94 -114
q-21 -49 -21 -101zM432 1188q-104 0 -170 77q-65 75 -65 210h4q5 -102 72 -143q69 -42 159 -42t159 42q68 42 73 143h4q0 -133 -66 -210t-170 -77z" />
    <glyph glyph-name="Gdotaccent" unicode="&#x120;" horiz-adv-x="1347" 
d="M578 635v82h667v-717h-102v502q-22 -248 -157 -386q-133 -136 -357 -136q-135 0 -243 49q-109 49 -185 137t-118 209t-42 262q0 169 57 302q56 132 154 225q97 92 224 140q128 48 267 48q151 0 255 -27q103 -27 214 -90v-354l-4 -2q-60 244 -184 341t-340 97
q-114 0 -214 -41t-172 -119q-75 -81 -114 -193q-41 -117 -41 -264t38 -267q36 -114 108 -197q69 -80 167 -122q97 -42 214 -42q99 0 180 29q84 30 147 93q65 65 103 158q38 95 43 230v53h-565zM743 1454q-44 0 -73 31t-29 71q0 45 29 74t73 29q45 0 74 -29t29 -74
q0 -40 -29 -71t-74 -31z" />
    <glyph glyph-name="gdotaccent" unicode="&#x121;" horiz-adv-x="819" 
d="M422 1044q34 0 76 -5q35 -4 69 -15h293v-82h-184q38 -28 70 -84q30 -53 30 -119q0 -148 -103 -239q-104 -92 -276 -92q-60 0 -104 10q-53 12 -86 26q-44 -33 -69 -63q-27 -33 -27 -66q0 -48 41 -62q39 -13 122 -13h279q142 0 218 -55q75 -54 75 -142q0 -64 -48 -130
q-50 -68 -128 -120t-186 -87q-103 -34 -216 -34q-110 0 -189 43t-79 146q0 37 34 111q35 75 156 173q-62 6 -111 31q-46 24 -46 82q0 46 39 83q47 45 129 108q-77 39 -117 107q-41 70 -41 157q0 148 105 239q106 92 274 92zM395 1018q-111 0 -177 -74t-66 -209
q0 -55 16 -107q17 -56 49 -98q31 -41 85 -69q52 -27 124 -27q114 0 179 70t65 213q0 51 -17 107t-49 98q-31 41 -85 69q-53 27 -124 27zM82 -70q0 -104 82 -140t211 -36q184 0 288 65q103 64 103 158q0 72 -53 119t-150 47h-295h-37q-12 0 -34 2q-75 -68 -94 -114
q-21 -49 -21 -101zM424 1229q-45 0 -74 31q-28 29 -28 71q0 46 28 74q29 29 74 29t74 -29q28 -28 28 -74q0 -42 -28 -71q-29 -31 -74 -31z" />
    <glyph glyph-name="Gcommaaccent" unicode="&#x122;" horiz-adv-x="1347" 
d="M578 635v82h667v-717h-102v502q-22 -248 -157 -386q-133 -136 -357 -136q-135 0 -243 49q-109 49 -185 137t-118 209t-42 262q0 169 57 302q56 132 154 225q97 92 224 140q128 48 267 48q151 0 255 -27q103 -27 214 -90v-354l-4 -2q-60 244 -184 341t-340 97
q-114 0 -214 -41t-172 -119q-75 -81 -114 -193q-41 -117 -41 -264t38 -267q36 -114 108 -197q69 -80 167 -122q97 -42 214 -42q99 0 180 29q84 30 147 93q65 65 103 158q38 95 43 230v53h-565zM455 -410h-4l112 287h144z" />
    <glyph glyph-name="gcommaaccent" unicode="&#x123;" horiz-adv-x="819" 
d="M422 1044q34 0 76 -5q35 -4 69 -15h293v-82h-184q38 -28 70 -84q30 -53 30 -119q0 -148 -103 -239q-104 -92 -276 -92q-60 0 -104 10q-53 12 -86 26q-44 -33 -69 -63q-27 -33 -27 -66q0 -48 41 -62q39 -13 122 -13h279q142 0 218 -55q75 -54 75 -142q0 -64 -48 -130
q-50 -68 -128 -120t-186 -87q-103 -34 -216 -34q-110 0 -189 43t-79 146q0 37 34 111q35 75 156 173q-62 6 -111 31q-46 24 -46 82q0 46 39 83q47 45 129 108q-77 39 -117 107q-41 70 -41 157q0 148 105 239q106 92 274 92zM395 1018q-111 0 -177 -74t-66 -209
q0 -55 16 -107q17 -56 49 -98q31 -41 85 -69q52 -27 124 -27q114 0 179 70t65 213q0 51 -17 107t-49 98q-31 41 -85 69q-53 27 -124 27zM82 -70q0 -104 82 -140t211 -36q184 0 288 65q103 64 103 158q0 72 -53 119t-150 47h-295h-37q-12 0 -34 2q-75 -68 -94 -114
q-21 -49 -21 -101zM612 1434h4l-112 -287h-144z" />
    <glyph glyph-name="Hcircumflex" unicode="&#x124;" horiz-adv-x="1314" 
d="M240 143q0 -82 29 -104q31 -24 73 -35v-4h-311v4q40 11 72 35q30 23 30 104v1045q0 82 -30 104q-32 24 -72 35v4h311v-4q-42 -11 -73 -35q-29 -22 -29 -104v-488h835v488q0 82 -29 104q-31 24 -73 35v4h311v-4q-42 -11 -73 -35q-29 -22 -29 -104v-1045q0 -82 29 -104
q31 -24 73 -35v-4h-311v4q42 11 73 35q29 22 29 104v537h-835v-537zM391 1434h-4l268 221h4l269 -221h-4l-267 102z" />
    <glyph glyph-name="hcircumflex" unicode="&#x125;" horiz-adv-x="987" 
d="M215 143q0 -81 30 -104q32 -24 72 -35v-4h-307v4q42 11 73 35q30 23 30 104v1184h-205v4l307 99v-752q67 186 156 276t219 90q140 0 212 -89q72 -88 72 -230v-582q0 -81 30 -104q31 -24 73 -35v-4h-307v4q40 11 72 35q30 23 30 104v572q0 105 -55 170t-160 65
q-102 0 -189 -62q-91 -65 -153 -218v-527zM227 1434h-4l269 221h4l268 -221h-4l-266 102z" />
    <glyph glyph-name="Hbar" unicode="&#x126;" horiz-adv-x="1314" 
d="M240 143q0 -82 29 -104q31 -24 73 -35v-4h-311v4q40 11 72 35q30 23 30 104v881h-133v20h133v144q0 82 -30 104q-32 24 -72 35v4h311v-4q-42 -11 -73 -35q-29 -22 -29 -104v-144h835v144q0 82 -29 104q-31 24 -73 35v4h311v-4q-42 -11 -73 -35q-29 -22 -29 -104v-144h133
v-20h-133v-881q0 -82 29 -104q31 -24 73 -35v-4h-311v4q42 11 73 35q29 22 29 104v537h-835v-537zM240 700h835v324h-835v-324z" />
    <glyph glyph-name="hbar" unicode="&#x127;" horiz-adv-x="987" 
d="M215 143q0 -81 30 -104q32 -24 72 -35v-4h-307v4q42 11 73 35q30 23 30 104v1024h-113v21h113v139h-205v4l307 99v-242h297v-21h-297v-489q67 186 156 276t219 90q140 0 212 -89q72 -88 72 -230v-582q0 -81 30 -104q31 -24 73 -35v-4h-307v4q40 11 72 35q30 23 30 104
v572q0 105 -55 170t-160 65q-102 0 -189 -62q-91 -65 -153 -218v-527z" />
    <glyph glyph-name="Itilde" unicode="&#x128;" horiz-adv-x="372" 
d="M240 143q0 -82 29 -104q31 -24 73 -35v-4h-311v4q40 11 72 35q30 23 30 104v1045q0 82 -30 104q-32 24 -72 35v4h311v-4q-42 -11 -73 -35q-29 -22 -29 -104v-1045zM453 1634q-24 -93 -61 -135q-36 -41 -97 -41q-37 0 -75 16q-37 15 -67 34q-32 20 -64 35q-34 16 -62 16
q-37 0 -61 -24t-42 -77h-4q24 93 61 135q36 41 97 41q39 0 75 -15q32 -13 67 -35q32 -20 64 -35q31 -15 62 -15q37 0 61 24t42 76h4z" />
    <glyph glyph-name="itilde" unicode="&#x129;" horiz-adv-x="337" 
d="M225 143q0 -81 30 -104q31 -24 73 -35v-4h-308v4q42 11 73 35q30 23 30 104v799h-205v4l307 98v-901zM440 1419q-24 -93 -60 -140q-36 -46 -97 -46q-41 0 -75 17q-44 22 -68 38q-21 14 -63 38q-30 17 -63 17q-37 0 -60 -23q-24 -24 -42 -77h-4q24 93 60 140t98 47
q38 0 74 -18q44 -22 68 -38q21 -14 63 -38q30 -17 63 -17q37 0 60 23q24 24 42 77h4z" />
    <glyph glyph-name="Imacron" unicode="&#x12a;" horiz-adv-x="372" 
d="M240 143q0 -82 29 -104q31 -24 73 -35v-4h-311v4q40 11 72 35q30 23 30 104v1045q0 82 -30 104q-32 24 -72 35v4h311v-4q-42 -11 -73 -35q-29 -22 -29 -104v-1045zM401 1618v-102h-430v102h430z" />
    <glyph glyph-name="imacron" unicode="&#x12b;" horiz-adv-x="337" 
d="M225 143q0 -81 30 -104q31 -24 73 -35v-4h-308v4q42 11 73 35q30 23 30 104v799h-205v4l307 98v-901zM389 1382v-102h-430v102h430z" />
    <glyph glyph-name="Ibreve" unicode="&#x12c;" horiz-adv-x="372" 
d="M240 143q0 -82 29 -104q31 -24 73 -35v-4h-311v4q40 11 72 35q30 23 30 104v1045q0 82 -30 104q-32 24 -72 35v4h311v-4q-42 -11 -73 -35q-29 -22 -29 -104v-1045zM186 1434q-105 0 -170 65t-65 180h4q4 -84 73 -118q70 -35 158 -35q89 0 159 35q69 34 73 118h4
q0 -114 -66 -180q-65 -65 -170 -65z" />
    <glyph glyph-name="ibreve" unicode="&#x12d;" horiz-adv-x="337" 
d="M225 143q0 -81 30 -104q31 -24 73 -35v-4h-308v4q42 11 73 35q30 23 30 104v799h-205v4l307 98v-901zM174 1188q-104 0 -170 77q-65 75 -65 210h4q5 -102 72 -143q69 -42 159 -42t159 42q68 42 73 143h4q0 -133 -66 -210t-170 -77z" />
    <glyph glyph-name="Iogonek" unicode="&#x12e;" horiz-adv-x="372" 
d="M240 143q0 -82 29 -104q31 -24 73 -35v-4h-311v4q40 11 72 35q30 23 30 104v1045q0 82 -30 104q-32 24 -72 35v4h311v-4q-42 -11 -73 -35q-29 -22 -29 -104v-1045zM104 -152q0 -56 37 -80t76 -24q48 0 76 17q31 18 59 63l4 -2q-40 -75 -84 -113q-43 -37 -106 -37
q-51 0 -92 32t-41 93q0 74 47 118q49 46 104 85h4q-47 -43 -66 -82q-18 -38 -18 -70z" />
    <glyph glyph-name="iogonek" unicode="&#x12f;" horiz-adv-x="337" 
d="M172 1403q38 0 66 -26q26 -25 26 -66q0 -42 -26 -67t-66 -25t-66 25t-26 67q0 41 26 66q28 26 66 26zM225 143q0 -81 30 -104q31 -24 73 -35v-4h-308v4q42 11 73 35q30 23 30 104v799h-205v4l307 98v-901zM96 -152q0 -56 37 -80t76 -24q48 0 76 17q31 18 59 63l4 -2
q-40 -75 -84 -113q-43 -37 -106 -37q-51 0 -92 32t-41 93q0 74 47 118q49 46 104 85h4q-47 -43 -66 -82q-18 -38 -18 -70z" />
    <glyph glyph-name="Idotaccent" unicode="&#x130;" horiz-adv-x="372" 
d="M240 143q0 -82 29 -104q31 -24 73 -35v-4h-311v4q40 11 72 35q30 23 30 104v1045q0 82 -30 104q-32 24 -72 35v4h311v-4q-42 -11 -73 -35q-29 -22 -29 -104v-1045zM186 1454q-44 0 -73 31t-29 71q0 45 29 74t73 29q45 0 74 -29t29 -74q0 -40 -29 -71t-74 -31z" />
    <glyph glyph-name="dotlessi" unicode="&#x131;" horiz-adv-x="337" 
d="M225 143q0 -81 30 -104q31 -24 73 -35v-4h-308v4q42 11 73 35q30 23 30 104v799h-205v4l307 98v-901z" />
    <glyph glyph-name="IJ" unicode="&#x132;" horiz-adv-x="745" 
d="M240 143q0 -82 29 -104q31 -24 73 -35v-4h-311v4q40 11 72 35q30 23 30 104v1045q0 82 -30 104q-32 24 -72 35v4h311v-4q-42 -11 -73 -35q-29 -22 -29 -104v-1045zM506 -12v1200q0 82 -30 104q-31 24 -73 35v4h312v-4q-42 -11 -73 -35q-30 -22 -30 -104v-1188
q0 -78 -11 -123q-12 -50 -41 -85t-82 -62q-60 -31 -136 -58v4q100 45 132 114q32 70 32 198z" />
    <glyph glyph-name="ij" unicode="&#x133;" horiz-adv-x="665" 
d="M172 1403q38 0 66 -26q26 -25 26 -66q0 -42 -26 -67t-66 -25t-66 25t-26 67q0 41 26 66q28 26 66 26zM225 143q0 -81 30 -104q31 -24 73 -35v-4h-308v4q42 11 73 35q30 23 30 104v799h-205v4l307 98v-901zM510 1403q37 0 65 -26q27 -25 27 -66t-27 -67q-26 -25 -65 -25
q-40 0 -66 25t-26 67q0 41 26 66q28 26 66 26zM461 -12v954h-205v4l307 98v-1044q0 -76 -10 -123q-11 -50 -40 -85q-30 -36 -82 -63q-63 -33 -134 -57v4q101 45 132 114q32 70 32 198z" />
    <glyph glyph-name="Jcircumflex" unicode="&#x134;" horiz-adv-x="372" 
d="M133 -12v1200q0 82 -30 104q-32 24 -72 35v4h311v-4q-42 -11 -73 -35q-29 -22 -29 -104v-1188q0 -74 -12 -123q-12 -50 -41 -85t-82 -62q-60 -31 -136 -58v4q101 45 132 114q32 70 32 198zM-80 1434h-4l268 221h4l269 -221h-4l-267 102z" />
    <glyph glyph-name="jcircumflex" unicode="&#x135;" horiz-adv-x="327" 
d="M123 -12v954h-205v4l307 98v-1044q0 -76 -10 -123q-11 -50 -40 -85q-30 -36 -82 -63q-63 -33 -134 -57v4q101 45 132 114q32 70 32 198zM-92 1147h-4l268 369h4l268 -369h-4l-266 217z" />
    <glyph glyph-name="Kcommaaccent" unicode="&#x136;" horiz-adv-x="886" 
d="M240 184q0 -103 35 -134t128 -46v-4h-372v4q40 11 72 35q30 23 30 104v1045q0 82 -30 104q-32 24 -72 35v4h372v-4q-93 -15 -128 -46t-35 -134v-537l415 477q105 119 93 169t-84 71v4h364v-4q-87 -28 -166 -75q-78 -46 -182 -167l-225 -258l401 -643q58 -92 103 -132
q46 -40 98 -48v-4h-213l-461 743l-143 -163v-396zM332 -410h-4l112 287h144z" />
    <glyph glyph-name="kcommaaccent" unicode="&#x137;" horiz-adv-x="765" 
d="M215 143q0 -81 30 -104q32 -24 72 -35v-4h-307v4q42 11 73 35q30 23 30 104v1184h-205v4l307 99v-1039l340 389q103 118 91 168q-12 51 -83 72v4h365v-4q-85 -28 -166 -74q-76 -44 -182 -168l-125 -143l280 -451q56 -91 104 -132q47 -41 97 -48v-4h-213l-340 551
l-168 -191v-217zM291 -410h-4l112 287h144z" />
    <glyph glyph-name="kgreenlandic" unicode="&#x138;" horiz-adv-x="776" 
d="M225 143q0 -81 30 -104q31 -24 73 -35v-4h-308v4q42 11 73 35q30 23 30 104v799h-205v4l307 98v-653l340 389q103 118 91 168q-12 51 -83 72v4h365v-4q-85 -28 -166 -74q-76 -44 -182 -168l-125 -143l280 -451q56 -91 104 -132q47 -41 97 -48v-4h-213l-340 551l-168 -191
v-217z" />
    <glyph glyph-name="Lacute" unicode="&#x139;" horiz-adv-x="860" 
d="M240 1147v-1127h284q123 0 196 48q69 46 136 176h4l-29 -244h-800v4q40 11 72 35q30 23 30 104v1045q0 82 -30 104q-32 24 -72 35v4h372v-4q-93 -15 -128 -46t-35 -134zM-39 1438l451 211v-123l-451 -92v4z" />
    <glyph glyph-name="lacute" unicode="&#x13a;" horiz-adv-x="327" 
d="M215 143q0 -81 30 -104q32 -24 72 -35v-4h-307v4q42 11 73 35q30 23 30 104v1184h-205v4l307 99v-1287zM-61 1438l450 211v-123l-450 -92v4z" />
    <glyph glyph-name="Lcommaaccent" unicode="&#x13b;" horiz-adv-x="860" 
d="M240 1147v-1127h284q123 0 196 48q69 46 136 176h4l-29 -244h-800v4q40 11 72 35q30 23 30 104v1045q0 82 -30 104q-32 24 -72 35v4h372v-4q-93 -15 -128 -46t-35 -134zM270 -410h-4l113 287h143z" />
    <glyph glyph-name="lcommaaccent" unicode="&#x13c;" horiz-adv-x="327" 
d="M215 143q0 -81 30 -104q32 -24 72 -35v-4h-307v4q42 11 73 35q30 23 30 104v1184h-205v4l307 99v-1287zM-16 -410h-4l112 287h144z" />
    <glyph glyph-name="Lcaron" unicode="&#x13d;" horiz-adv-x="860" 
d="M240 1147v-1127h284q123 0 196 48q69 46 136 176h4l-29 -244h-800v4q40 11 72 35q30 23 30 104v1045q0 82 -30 104q-32 24 -72 35v4h372v-4q-93 -15 -128 -46t-35 -134zM516 963h-4l61 368h134z" />
    <glyph glyph-name="lcaron" unicode="&#x13e;" horiz-adv-x="481" 
d="M215 143q0 -81 30 -104q32 -24 72 -35v-4h-307v4q42 11 73 35q30 23 30 104v1184h-205v4l307 99v-1287zM311 963h-4l62 368h133z" />
    <glyph glyph-name="Ldot" unicode="&#x13f;" horiz-adv-x="860" 
d="M240 1147v-1127h284q123 0 196 48q69 46 136 176h4l-29 -244h-800v4q40 11 72 35q30 23 30 104v1045q0 82 -30 104q-32 24 -72 35v4h372v-4q-93 -15 -128 -46t-35 -134zM616 559q-44 0 -73 31t-29 72q0 44 29 73t73 29q45 0 74 -29t29 -73q0 -41 -29 -72t-74 -31z" />
    <glyph glyph-name="ldot" unicode="&#x140;" horiz-adv-x="532" 
d="M215 143q0 -81 30 -104q32 -24 72 -35v-4h-307v4q42 11 73 35q30 23 30 104v1184h-205v4l307 99v-1287zM430 614q-45 0 -74 31q-28 29 -28 72q0 46 28 74t74 28t74 -28t28 -74q0 -43 -28 -72q-29 -31 -74 -31z" />
    <glyph glyph-name="Lslash" unicode="&#x141;" horiz-adv-x="860" 
d="M0 518l133 96v574q0 82 -30 104q-32 24 -72 35v4h372v-4q-93 -15 -128 -46t-35 -134v-467l231 168v-31l-231 -168v-629h284q123 0 196 48q69 46 136 176h4l-29 -244h-800v4q40 11 72 35q30 23 30 104v441l-133 -97v31z" />
    <glyph glyph-name="lslash" unicode="&#x142;" horiz-adv-x="327" 
d="M215 143q0 -81 30 -104q32 -24 72 -35v-4h-307v4q42 11 73 35q30 23 30 104v586l-113 -82v31l113 82v567h-205v4l307 99v-609l113 82v-31l-113 -81v-648z" />
    <glyph glyph-name="Nacute" unicode="&#x143;" horiz-adv-x="1204" 
d="M156 246q0 -122 46 -171q48 -51 117 -71v-4h-350v4q71 21 118 71q46 49 46 171v938q-55 66 -97 97q-41 31 -87 46v4h209l901 -1192v946q0 122 -46 171q-47 50 -118 71v4h350v-4q-71 -21 -118 -71q-46 -49 -46 -171v-1146h-4l-882 1169q-11 15 -21 27q-12 14 -18 22v-911z
M383 1438l451 211v-123l-451 -92v4z" />
    <glyph glyph-name="nacute" unicode="&#x144;" horiz-adv-x="997" 
d="M225 143q0 -81 30 -104q31 -24 73 -35v-4h-308v4q42 11 73 35q30 23 30 104v799h-205v4l307 98v-366q67 186 156 276t219 90q140 0 212 -89q73 -90 73 -230v-582q0 -82 29 -104q31 -24 73 -35v-4h-307v4q42 11 73 35q29 22 29 104v572q0 105 -55 170t-160 65
q-102 0 -189 -62q-91 -65 -153 -218v-527zM444 1147h-4l125 369h154z" />
    <glyph glyph-name="Ncommaaccent" unicode="&#x145;" horiz-adv-x="1204" 
d="M156 246q0 -122 46 -171q48 -51 117 -71v-4h-350v4q71 21 118 71q46 49 46 171v938q-55 66 -97 97q-41 31 -87 46v4h209l901 -1192v946q0 122 -46 171q-47 50 -118 71v4h350v-4q-71 -21 -118 -71q-46 -49 -46 -171v-1146h-4l-882 1169q-11 15 -21 27q-12 14 -18 22v-911z
M393 -410h-4l113 287h143z" />
    <glyph glyph-name="ncommaaccent" unicode="&#x146;" horiz-adv-x="997" 
d="M225 143q0 -81 30 -104q31 -24 73 -35v-4h-308v4q42 11 73 35q30 23 30 104v799h-205v4l307 98v-366q67 186 156 276t219 90q140 0 212 -89q73 -90 73 -230v-582q0 -82 29 -104q31 -24 73 -35v-4h-307v4q42 11 73 35q29 22 29 104v572q0 105 -55 170t-160 65
q-102 0 -189 -62q-91 -65 -153 -218v-527zM317 -410h-4l113 287h143z" />
    <glyph glyph-name="Ncaron" unicode="&#x147;" horiz-adv-x="1204" 
d="M156 246q0 -122 46 -171q48 -51 117 -71v-4h-350v4q71 21 118 71q46 49 46 171v938q-55 66 -97 97q-41 31 -87 46v4h209l901 -1192v946q0 122 -46 171q-47 50 -118 71v4h350v-4q-71 -21 -118 -71q-46 -49 -46 -171v-1146h-4l-882 1169q-11 15 -21 27q-12 14 -18 22v-911z
M342 1659l266 -103l266 103h5l-269 -221h-4l-268 221h4z" />
    <glyph glyph-name="ncaron" unicode="&#x148;" horiz-adv-x="997" 
d="M225 143q0 -81 30 -104q31 -24 73 -35v-4h-308v4q42 11 73 35q30 23 30 104v799h-205v4l307 98v-366q67 186 156 276t219 90q140 0 212 -89q73 -90 73 -230v-582q0 -82 29 -104q31 -24 73 -35v-4h-307v4q42 11 73 35q29 22 29 104v572q0 105 -55 170t-160 65
q-102 0 -189 -62q-91 -65 -153 -218v-527zM770 1516h4l-268 -369h-4l-269 369h5l266 -218z" />
    <glyph glyph-name="Eng" unicode="&#x14a;" horiz-adv-x="1204" 
d="M156 246q0 -122 46 -171q48 -51 117 -71v-4h-350v4q71 21 118 71q46 49 46 171v938q-55 66 -97 97q-41 31 -87 46v4h209l901 -1192v946q0 122 -46 171q-47 50 -118 71v4h350v-4q-71 -21 -118 -71q-46 -49 -46 -171v-1085q0 -78 -11 -123q-12 -50 -41 -85t-82 -62
q-60 -31 -136 -58v4q101 45 132 114q32 70 32 198v86l-780 1034q-11 15 -21 27q-12 14 -18 22v-911z" />
    <glyph glyph-name="eng" unicode="&#x14b;" horiz-adv-x="987" 
d="M225 143q0 -81 30 -104q31 -24 73 -35v-4h-308v4q42 11 73 35q30 23 30 104v799h-205v4l307 98v-366q67 186 156 276t219 90q140 0 212 -89q73 -90 73 -230v-725q0 -71 -11 -123q-11 -51 -39 -85q-30 -36 -82 -63q-61 -32 -135 -57v4q102 46 133 114t31 198v727
q0 105 -55 170t-160 65q-102 0 -189 -62q-91 -65 -153 -218v-527z" />
    <glyph glyph-name="Omacron" unicode="&#x14c;" horiz-adv-x="1419" 
d="M1378 666q0 -148 -48 -274q-48 -125 -135 -217q-86 -90 -211 -143q-123 -52 -275 -52q-151 0 -274 52q-125 53 -211 143q-87 92 -135 217q-48 126 -48 274q0 147 48 273q48 125 135 217q86 90 211 143q126 53 274 53q149 0 275 -53q125 -53 211 -143q87 -92 135 -217
q48 -126 48 -273zM154 735q0 -154 43 -286q44 -136 122 -231t194 -152q115 -56 253 -56q110 0 203 44q90 43 157 122q66 78 103 185t37 235q0 152 -44 287q-42 130 -124 230q-78 96 -193 154q-111 56 -252 56q-109 0 -202 -44q-92 -44 -158 -122q-65 -77 -103 -186
q-36 -104 -36 -236zM926 1618v-102h-430v102h430z" />
    <glyph glyph-name="omacron" unicode="&#x14d;" horiz-adv-x="1089" 
d="M1059 512q0 -116 -37 -212q-38 -99 -104 -168q-68 -71 -163 -112q-93 -40 -210 -40t-210 40q-95 41 -163 112q-66 69 -104 168q-37 96 -37 212t37 212q38 99 104 168q68 71 163 112q93 40 210 40t210 -40q95 -41 163 -112q66 -69 104 -168q37 -96 37 -212zM145 567
q0 -113 30 -215q31 -105 86 -179q58 -78 139 -122q82 -45 186 -45q160 0 259 127t99 324q0 110 -31 215q-30 103 -87 179q-59 79 -138 122q-82 45 -184 45q-160 0 -259 -127q-100 -129 -100 -324zM760 1382v-102h-430v102h430z" />
    <glyph glyph-name="Obreve" unicode="&#x14e;" horiz-adv-x="1419" 
d="M1378 666q0 -148 -48 -274q-48 -125 -135 -217q-86 -90 -211 -143q-123 -52 -275 -52q-151 0 -274 52q-125 53 -211 143q-87 92 -135 217q-48 126 -48 274q0 147 48 273q48 125 135 217q86 90 211 143q126 53 274 53q149 0 275 -53q125 -53 211 -143q87 -92 135 -217
q48 -126 48 -273zM154 735q0 -154 43 -286q44 -136 122 -231t194 -152q115 -56 253 -56q110 0 203 44q90 43 157 122q66 78 103 185t37 235q0 152 -44 287q-42 130 -124 230q-78 96 -193 154q-111 56 -252 56q-109 0 -202 -44q-92 -44 -158 -122q-65 -77 -103 -186
q-36 -104 -36 -236zM711 1434q-105 0 -170 65q-66 66 -66 180h4q4 -84 73 -118q70 -35 159 -35q88 0 158 35q69 34 73 118h4q0 -115 -65 -180t-170 -65z" />
    <glyph glyph-name="obreve" unicode="&#x14f;" horiz-adv-x="1089" 
d="M1059 512q0 -116 -37 -212q-38 -99 -104 -168q-68 -71 -163 -112q-93 -40 -210 -40t-210 40q-95 41 -163 112q-66 69 -104 168q-37 96 -37 212t37 212q38 99 104 168q68 71 163 112q93 40 210 40t210 -40q95 -41 163 -112q66 -69 104 -168q37 -96 37 -212zM145 567
q0 -113 30 -215q31 -105 86 -179q58 -78 139 -122q82 -45 186 -45q160 0 259 127t99 324q0 110 -31 215q-30 103 -87 179q-59 79 -138 122q-82 45 -184 45q-160 0 -259 -127q-100 -129 -100 -324zM545 1188q-104 0 -170 77t-66 210h4q5 -101 73 -143q69 -42 159 -42
q89 0 158 42q68 42 73 143h4q0 -135 -65 -210q-66 -77 -170 -77z" />
    <glyph glyph-name="Ohungarumlaut" unicode="&#x150;" horiz-adv-x="1419" 
d="M1378 666q0 -148 -48 -274q-48 -125 -135 -217q-86 -90 -211 -143q-123 -52 -275 -52q-151 0 -274 52q-125 53 -211 143q-87 92 -135 217q-48 126 -48 274q0 147 48 273q48 125 135 217q86 90 211 143q126 53 274 53q149 0 275 -53q125 -53 211 -143q87 -92 135 -217
q48 -126 48 -273zM154 735q0 -154 43 -286q44 -136 122 -231t194 -152q115 -56 253 -56q110 0 203 44q90 43 157 122q66 78 103 185t37 235q0 152 -44 287q-42 130 -124 230q-78 96 -193 154q-111 56 -252 56q-109 0 -202 -44q-92 -44 -158 -122q-65 -77 -103 -186
q-36 -104 -36 -236zM530 1434h-4l103 225h184zM854 1434h-4l102 225h185z" />
    <glyph glyph-name="ohungarumlaut" unicode="&#x151;" horiz-adv-x="1089" 
d="M1059 512q0 -116 -37 -212q-38 -99 -104 -168q-68 -71 -163 -112q-93 -40 -210 -40t-210 40q-95 41 -163 112q-66 69 -104 168q-37 96 -37 212t37 212q38 99 104 168q68 71 163 112q93 40 210 40t210 -40q95 -41 163 -112q66 -69 104 -168q37 -96 37 -212zM145 567
q0 -113 30 -215q31 -105 86 -179q58 -78 139 -122q82 -45 186 -45q160 0 259 127t99 324q0 110 -31 215q-30 103 -87 179q-59 79 -138 122q-82 45 -184 45q-160 0 -259 -127q-100 -129 -100 -324zM344 1147h-4l61 369h144zM709 1147h-4l61 369h143z" />
    <glyph glyph-name="OE" unicode="&#x152;" horiz-adv-x="1769" 
d="M41 639q0 145 50 274q49 127 150 220t247 145q150 53 343 53h889l29 -244h-4q-67 132 -136 177q-71 47 -196 47h-326v-611h254q90 0 138 48q46 46 73 126h4v-368h-4q-28 82 -73 127q-47 47 -138 47h-254v-660h347q122 0 195 48q69 46 136 176h4l-28 -244h-950
q-191 0 -332 48q-144 49 -234 133q-92 86 -138 203t-46 255zM981 20v1291h-154q-167 0 -295 -48q-122 -46 -211 -135q-85 -85 -127 -206q-42 -122 -42 -265q0 -134 39 -247q41 -119 121 -203q83 -87 207 -136q130 -51 296 -51h166z" />
    <glyph glyph-name="oe" unicode="&#x153;" horiz-adv-x="1853" 
d="M1864 512q-21 -259 -123 -395q-102 -137 -314 -137q-151 0 -261 73q-112 74 -165 199q-61 -123 -180 -198q-117 -74 -276 -74q-117 0 -210 40q-95 41 -163 112q-66 69 -104 168q-37 96 -37 212t37 212q38 99 104 168q68 71 163 112q93 40 210 40q168 0 288 -80
q122 -82 179 -214q66 140 191 217q124 77 263 77q90 0 151 -20q66 -21 106 -53q42 -33 63 -73q20 -39 20 -79h-692q-27 -51 -42 -114t-15 -136v-6q2 -16 2 -24v-25q7 -100 43 -186q34 -81 88 -138q52 -54 123 -84q68 -28 145 -28q160 0 267 103q108 104 135 331h4zM145 567
q0 -113 30 -215q31 -105 86 -179q58 -78 139 -122q82 -45 186 -45q160 0 259 127t99 324q0 110 -31 215q-30 103 -87 179q-59 79 -138 122q-82 45 -184 45q-160 0 -259 -127q-100 -129 -100 -324zM1434 1018q-94 0 -177 -47q-81 -46 -133 -131h557q-8 65 -67 121
q-60 57 -180 57z" />
    <glyph glyph-name="Racute" unicode="&#x154;" horiz-adv-x="929" 
d="M240 184q0 -103 35 -134t128 -46v-4h-372v4q40 11 72 35q30 23 30 104v1045q0 82 -30 104q-32 24 -72 35v4h461q206 0 312 -80q105 -79 105 -211q0 -174 -119 -277q-121 -104 -344 -104q34 -6 62 -24t57 -57l291 -394q61 -85 107 -130q44 -43 94 -50v-4h-205l-393 563
q-40 58 -73 77q-34 19 -85 19h-61v-475zM438 1311h-198v-631h225q156 0 246 81t90 243q0 128 -85 217q-85 90 -278 90zM238 1438l450 211v-123l-450 -92v4z" />
    <glyph glyph-name="racute" unicode="&#x155;" horiz-adv-x="624" 
d="M225 184q0 -102 36 -134q35 -31 128 -46v-4h-369v4q42 11 73 35q30 23 30 104v799h-205v4l307 98v-247q50 116 123 181q74 66 154 66q60 0 91 -28q32 -29 32 -74h-127q-86 0 -157 -27q-72 -27 -116 -131v-600zM236 1147h-5l125 369h154z" />
    <glyph glyph-name="Rcommaaccent" unicode="&#x156;" horiz-adv-x="929" 
d="M240 184q0 -103 35 -134t128 -46v-4h-372v4q40 11 72 35q30 23 30 104v1045q0 82 -30 104q-32 24 -72 35v4h461q206 0 312 -80q105 -79 105 -211q0 -174 -119 -277q-121 -104 -344 -104q34 -6 62 -24t57 -57l291 -394q61 -85 107 -130q44 -43 94 -50v-4h-205l-393 563
q-40 58 -73 77q-34 19 -85 19h-61v-475zM438 1311h-198v-631h225q156 0 246 81t90 243q0 128 -85 217q-85 90 -278 90zM315 -410h-4l113 287h143z" />
    <glyph glyph-name="rcommaaccent" unicode="&#x157;" horiz-adv-x="624" 
d="M225 184q0 -102 36 -134q35 -31 128 -46v-4h-369v4q42 11 73 35q30 23 30 104v799h-205v4l307 98v-247q50 116 123 181q74 66 154 66q60 0 91 -28q32 -29 32 -74h-127q-86 0 -157 -27q-72 -27 -116 -131v-600zM4 -410h-4l113 287h143z" />
    <glyph glyph-name="Rcaron" unicode="&#x158;" horiz-adv-x="929" 
d="M240 184q0 -103 35 -134t128 -46v-4h-372v4q40 11 72 35q30 23 30 104v1045q0 82 -30 104q-32 24 -72 35v4h461q206 0 312 -80q105 -79 105 -211q0 -174 -119 -277q-121 -104 -344 -104q34 -6 62 -24t57 -57l291 -394q61 -85 107 -130q44 -43 94 -50v-4h-205l-393 563
q-40 58 -73 77q-34 19 -85 19h-61v-475zM438 1311h-198v-631h225q156 0 246 81t90 243q0 128 -85 217q-85 90 -278 90zM197 1659l266 -103l266 103h4l-268 -221h-4l-268 221h4z" />
    <glyph glyph-name="rcaron" unicode="&#x159;" horiz-adv-x="624" 
d="M225 184q0 -102 36 -134q35 -31 128 -46v-4h-369v4q42 11 73 35q30 23 30 104v799h-205v4l307 98v-247q50 116 123 181q74 66 154 66q60 0 91 -28q32 -29 32 -74h-127q-86 0 -157 -27q-72 -27 -116 -131v-600zM561 1516h4l-268 -369h-4l-268 369h4l266 -218z" />
    <glyph glyph-name="Sacute" unicode="&#x15a;" horiz-adv-x="804" 
d="M418 18q128 0 210 74q81 74 81 193q0 139 -106 219t-232 147q-127 67 -233 149q-105 81 -105 222q0 78 29 136q30 61 81 104q48 41 119 66q68 24 144 24q96 0 166 -21q78 -23 139 -53v-281h-4q-62 171 -148 244q-84 72 -201 72q-114 0 -192 -64q-76 -63 -76 -168
q0 -114 106 -185q105 -70 231 -138q124 -67 231 -155q106 -88 106 -232q0 -176 -105 -284q-104 -107 -288 -107q-101 0 -180 26q-83 27 -150 66v280h4q62 -171 160 -253q96 -81 213 -81zM180 1438l451 211v-123l-451 -92v4z" />
    <glyph glyph-name="sacute" unicode="&#x15b;" horiz-adv-x="641" 
d="M358 29q102 0 149 51q46 50 46 137q0 103 -82 161q-83 59 -179 109q-90 47 -179 115q-82 63 -82 176q0 123 87 195q86 71 214 71q84 0 143 -23q61 -24 111 -54v-277h-4q-28 156 -111 240t-186 84q-84 0 -140 -49q-57 -49 -57 -131q0 -89 82 -141q83 -53 179 -103
q93 -49 179 -119q82 -67 82 -186q0 -138 -84 -222q-83 -83 -231 -83q-81 0 -143 22q-65 23 -111 53v318h4q12 -91 44 -158q31 -65 75 -106q46 -43 94 -61q50 -19 100 -19zM272 1147h-4l125 369h154z" />
    <glyph glyph-name="Scircumflex" unicode="&#x15c;" horiz-adv-x="804" 
d="M418 18q128 0 210 74q81 74 81 193q0 139 -106 219t-232 147q-127 67 -233 149q-105 81 -105 222q0 78 29 136q30 61 81 104q48 41 119 66q68 24 144 24q96 0 166 -21q78 -23 139 -53v-281h-4q-62 171 -148 244q-84 72 -201 72q-114 0 -192 -64q-76 -63 -76 -168
q0 -114 106 -185q105 -70 231 -138q124 -67 231 -155q106 -88 106 -232q0 -176 -105 -284q-104 -107 -288 -107q-101 0 -180 26q-83 27 -150 66v280h4q62 -171 160 -253q96 -81 213 -81zM139 1434h-4l268 221h5l268 -221h-4l-267 102z" />
    <glyph glyph-name="scircumflex" unicode="&#x15d;" horiz-adv-x="641" 
d="M358 29q102 0 149 51q46 50 46 137q0 103 -82 161q-83 59 -179 109q-90 47 -179 115q-82 63 -82 176q0 123 87 195q86 71 214 71q84 0 143 -23q61 -24 111 -54v-277h-4q-28 156 -111 240t-186 84q-84 0 -140 -49q-57 -49 -57 -131q0 -89 82 -141q83 -53 179 -103
q93 -49 179 -119q82 -67 82 -186q0 -138 -84 -222q-83 -83 -231 -83q-81 0 -143 22q-65 23 -111 53v318h4q12 -91 44 -158q31 -65 75 -106q46 -43 94 -61q50 -19 100 -19zM66 1147h-5l269 369h4l268 -369h-4l-266 217z" />
    <glyph glyph-name="Scedilla" unicode="&#x15e;" horiz-adv-x="804" 
d="M418 18q128 0 210 74q81 74 81 193q0 139 -106 219t-232 147q-127 67 -233 149q-105 81 -105 222q0 78 29 136q30 61 81 104q48 41 119 66q68 24 144 24q96 0 166 -21q78 -23 139 -53v-281h-4q-62 171 -148 244q-84 72 -201 72q-114 0 -192 -64q-76 -63 -76 -168
q0 -114 106 -185q105 -70 231 -138q124 -67 231 -155q106 -88 106 -232q0 -173 -101 -280q-101 -106 -280 -111q-10 -14 -13 -20q-5 -10 -5 -15q0 -15 20 -32q4 -3 46 -38q27 -22 46 -44q21 -24 21 -52q0 -39 -43 -73t-117 -34q-36 0 -64 17q-26 16 -26 45q0 13 4 25
q5 15 12 26h6q28 -47 61 -67q35 -21 70 -21q16 0 28 9q11 8 11 22q0 24 -20 44q-24 24 -45 41q-27 22 -45 40q-21 21 -21 38q0 22 19 41q29 29 49 48h-6q-101 0 -180 26q-83 27 -150 66v280h4q62 -171 160 -253q96 -81 213 -81z" />
    <glyph glyph-name="scedilla" unicode="&#x15f;" horiz-adv-x="641" 
d="M358 29q102 0 149 51q46 50 46 137q0 103 -82 161q-83 59 -179 109q-90 47 -179 115q-82 63 -82 176q0 123 87 195q86 71 214 71q84 0 143 -23q61 -24 111 -54v-277h-4q-28 156 -111 240t-186 84q-84 0 -140 -49q-57 -49 -57 -131q0 -89 82 -141q83 -53 179 -103
q93 -49 179 -119q82 -67 82 -186q0 -129 -72 -210t-202 -93q-9 -11 -15 -22q-6 -12 -6 -15q0 -14 21 -32q4 -3 46 -38q27 -22 46 -44q21 -24 21 -52q0 -39 -43 -73t-117 -34q-36 0 -64 17q-26 16 -26 45q0 13 4 25q5 15 12 26h6q28 -47 61 -67q34 -21 70 -21q16 0 28 9
q11 8 11 22q0 24 -20 44q-24 24 -45 41q-27 22 -45 40q-21 21 -21 38q0 22 19 41q40 40 51 50q-10 -2 -18 -2h-17q-81 0 -143 22q-65 23 -111 53v318h4q12 -91 44 -158q31 -65 75 -106q46 -43 94 -61q50 -19 100 -19z" />
    <glyph glyph-name="Scaron" unicode="&#x160;" horiz-adv-x="804" 
d="M418 18q128 0 210 74q81 74 81 193q0 139 -106 219t-232 147q-127 67 -233 149q-105 81 -105 222q0 78 29 136q30 61 81 104q48 41 119 66q68 24 144 24q96 0 166 -21q78 -23 139 -53v-281h-4q-62 171 -148 244q-84 72 -201 72q-114 0 -192 -64q-76 -63 -76 -168
q0 -114 106 -185q105 -70 231 -138q124 -67 231 -155q106 -88 106 -232q0 -176 -105 -284q-104 -107 -288 -107q-101 0 -180 26q-83 27 -150 66v280h4q62 -171 160 -253q96 -81 213 -81zM139 1659l266 -103l267 103h4l-268 -221h-5l-268 221h4z" />
    <glyph glyph-name="scaron" unicode="&#x161;" horiz-adv-x="641" 
d="M358 29q102 0 149 51q46 50 46 137q0 103 -82 161q-83 59 -179 109q-90 47 -179 115q-82 63 -82 176q0 123 87 195q86 71 214 71q84 0 143 -23q61 -24 111 -54v-277h-4q-28 156 -111 240t-186 84q-84 0 -140 -49q-57 -49 -57 -131q0 -89 82 -141q83 -53 179 -103
q93 -49 179 -119q82 -67 82 -186q0 -138 -84 -222q-83 -83 -231 -83q-81 0 -143 22q-65 23 -111 53v318h4q12 -91 44 -158q31 -65 75 -106q46 -43 94 -61q50 -19 100 -19zM598 1516h4l-268 -369h-4l-269 369h5l266 -218z" />
    <glyph glyph-name="Tcaron" unicode="&#x164;" horiz-adv-x="1101" 
d="M0 1087l29 244h1044l29 -244h-4q-67 132 -136 177q-71 47 -196 47h-162v-1168q0 -81 30 -104q31 -24 73 -35v-4h-312v4q42 11 73 35q30 23 30 104v1168h-162q-125 0 -196 -47q-69 -45 -136 -177h-4zM285 1659l266 -103l266 103h4l-268 -221h-4l-268 221h4z" />
    <glyph glyph-name="tcaron" unicode="&#x165;" horiz-adv-x="581" 
d="M-61 946l266 242v-164h401v-82h-401v-643q0 -99 47 -163q46 -62 143 -62q95 0 159 68t64 255h5q0 -201 -65 -310q-64 -107 -185 -107q-135 0 -203 86t-68 223v653h-163v4zM311 1126h-4l62 369h133z" />
    <glyph glyph-name="Tbar" unicode="&#x166;" horiz-adv-x="1101" 
d="M203 686h295v625h-162q-125 0 -196 -47q-69 -45 -136 -177h-4l29 244h1044l29 -244h-4q-67 132 -136 177q-71 47 -196 47h-162v-625h295v-20h-295v-523q0 -81 30 -104q31 -24 73 -35v-4h-312v4q42 11 73 35q30 23 30 104v523h-295v20z" />
    <glyph glyph-name="tbar" unicode="&#x167;" horiz-adv-x="581" 
d="M0 666h102v276h-163v4l266 242v-164h401v-82h-401v-276h307v-21h-307v-346q0 -99 47 -163q46 -62 143 -62q95 0 159 68t64 255h5q0 -201 -65 -310q-64 -107 -185 -107q-135 0 -203 86t-68 223v356h-102v21z" />
    <glyph glyph-name="Utilde" unicode="&#x168;" horiz-adv-x="1187" 
d="M1049 467v618q0 121 -47 171q-48 51 -117 71v4h350v-4q-71 -21 -118 -71q-46 -49 -46 -171v-618q0 -231 -128 -359t-347 -128q-218 0 -346 128q-127 127 -127 359v721q0 82 -30 104q-31 24 -73 35v4h312v-4q-42 -11 -73 -35q-30 -22 -30 -104v-721q0 -200 110 -310
t300 -110t300 110t110 310zM899 1634q-24 -94 -60 -135t-98 -41q-36 0 -74 16q-40 17 -68 34q-35 22 -63 35q-34 16 -63 16q-36 0 -60 -24t-42 -77h-4q24 94 60 135t97 41q39 0 75 -15q35 -15 68 -35q35 -22 63 -35q32 -15 63 -15q36 0 60 24t42 76h4z" />
    <glyph glyph-name="utilde" unicode="&#x169;" horiz-adv-x="946" 
d="M834 143q0 -82 29 -104q31 -24 73 -35v-4h-205v346q-66 -185 -146 -275q-81 -91 -210 -91q-131 0 -197 82q-65 81 -65 217v663h-205v4l307 98v-755q0 -95 47 -156q46 -59 146 -59q88 0 175 63q86 62 148 217v588h-205v4l308 98v-901zM739 1419q-24 -93 -60 -140
q-36 -46 -97 -46q-41 0 -75 17q-44 22 -68 38q-21 14 -63 38q-30 17 -63 17q-37 0 -60 -23q-24 -24 -42 -77h-4q24 93 60 140t98 47q38 0 74 -18q44 -22 68 -38q21 -14 63 -38q30 -17 63 -17q37 0 60 23q24 24 42 77h4z" />
    <glyph glyph-name="Umacron" unicode="&#x16a;" horiz-adv-x="1187" 
d="M1049 467v618q0 121 -47 171q-48 51 -117 71v4h350v-4q-71 -21 -118 -71q-46 -49 -46 -171v-618q0 -231 -128 -359t-347 -128q-218 0 -346 128q-127 127 -127 359v721q0 82 -30 104q-31 24 -73 35v4h312v-4q-42 -11 -73 -35q-30 -22 -30 -104v-721q0 -200 110 -310
t300 -110t300 110t110 310zM848 1618v-102h-430v102h430z" />
    <glyph glyph-name="umacron" unicode="&#x16b;" horiz-adv-x="946" 
d="M834 143q0 -82 29 -104q31 -24 73 -35v-4h-205v346q-66 -185 -146 -275q-81 -91 -210 -91q-131 0 -197 82q-65 81 -65 217v663h-205v4l307 98v-755q0 -95 47 -156q46 -59 146 -59q88 0 175 63q86 62 148 217v588h-205v4l308 98v-901zM688 1382v-102h-430v102h430z" />
    <glyph glyph-name="Ubreve" unicode="&#x16c;" horiz-adv-x="1187" 
d="M1049 467v618q0 121 -47 171q-48 51 -117 71v4h350v-4q-71 -21 -118 -71q-46 -49 -46 -171v-618q0 -231 -128 -359t-347 -128q-218 0 -346 128q-127 127 -127 359v721q0 82 -30 104q-31 24 -73 35v4h312v-4q-42 -11 -73 -35q-30 -22 -30 -104v-721q0 -200 110 -310
t300 -110t300 110t110 310zM633 1434q-105 0 -170 65q-66 66 -66 180h4q4 -84 73 -118q70 -35 159 -35t159 35q67 34 72 118h4q0 -115 -65 -180t-170 -65z" />
    <glyph glyph-name="ubreve" unicode="&#x16d;" horiz-adv-x="946" 
d="M834 143q0 -82 29 -104q31 -24 73 -35v-4h-205v346q-66 -185 -146 -275q-81 -91 -210 -91q-131 0 -197 82q-65 81 -65 217v663h-205v4l307 98v-755q0 -95 47 -156q46 -59 146 -59q88 0 175 63q86 62 148 217v588h-205v4l308 98v-901zM473 1188q-104 0 -170 77
q-65 75 -65 210h4q5 -102 72 -143q69 -42 159 -42t159 42q68 42 73 143h4q0 -133 -66 -210t-170 -77z" />
    <glyph glyph-name="Uring" unicode="&#x16e;" horiz-adv-x="1187" 
d="M1049 467v618q0 121 -47 171q-48 51 -117 71v4h350v-4q-71 -21 -118 -71q-46 -49 -46 -171v-618q0 -231 -128 -359t-347 -128q-218 0 -346 128q-127 127 -127 359v721q0 82 -30 104q-31 24 -73 35v4h312v-4q-42 -11 -73 -35q-30 -22 -30 -104v-721q0 -200 110 -310
t300 -110t300 110t110 310zM633 1413q-105 0 -176 37q-72 38 -72 106q0 70 72 107q71 37 176 37t176 -37q72 -37 72 -107q0 -68 -72 -106q-71 -37 -176 -37zM633 1675q-62 0 -98 -29q-37 -30 -37 -90q0 -59 37 -89q36 -29 98 -29t98 29q37 30 37 89q0 60 -37 90
q-36 29 -98 29z" />
    <glyph glyph-name="uring" unicode="&#x16f;" horiz-adv-x="946" 
d="M834 143q0 -82 29 -104q31 -24 73 -35v-4h-205v346q-66 -185 -146 -275q-81 -91 -210 -91q-131 0 -197 82q-65 81 -65 217v663h-205v4l307 98v-755q0 -95 47 -156q46 -59 146 -59q88 0 175 63q86 62 148 217v588h-205v4l308 98v-901zM473 1167q-96 0 -161 43
q-66 44 -66 121t66 121q65 43 161 43t161 -43q66 -44 66 -121t-66 -121q-65 -43 -161 -43zM473 1470q-52 0 -83 -34q-32 -35 -32 -105q0 -69 32 -104t83 -35t83 35t32 104q0 70 -32 105q-31 34 -83 34z" />
    <glyph glyph-name="Uhungarumlaut" unicode="&#x170;" horiz-adv-x="1187" 
d="M1049 467v618q0 121 -47 171q-48 51 -117 71v4h350v-4q-71 -21 -118 -71q-46 -49 -46 -171v-618q0 -231 -128 -359t-347 -128q-218 0 -346 128q-127 127 -127 359v721q0 82 -30 104q-31 24 -73 35v4h312v-4q-42 -11 -73 -35q-30 -22 -30 -104v-721q0 -200 110 -310
t300 -110t300 110t110 310zM453 1434h-4l102 225h184zM776 1434h-4l102 225h185z" />
    <glyph glyph-name="uhungarumlaut" unicode="&#x171;" horiz-adv-x="946" 
d="M834 143q0 -82 29 -104q31 -24 73 -35v-4h-205v346q-66 -185 -146 -275q-81 -91 -210 -91q-131 0 -197 82q-65 81 -65 217v663h-205v4l307 98v-755q0 -95 47 -156q46 -59 146 -59q88 0 175 63q86 62 148 217v588h-205v4l308 98v-901zM272 1147h-4l62 369h143zM637 1147
h-4l61 369h144z" />
    <glyph glyph-name="Uogonek" unicode="&#x172;" horiz-adv-x="1187" 
d="M1049 467v618q0 121 -47 171q-48 51 -117 71v4h350v-4q-71 -21 -118 -71q-46 -49 -46 -171v-618q0 -231 -128 -359t-347 -128q-218 0 -346 128q-127 127 -127 359v721q0 82 -30 104q-31 24 -73 35v4h312v-4q-42 -11 -73 -35q-30 -22 -30 -104v-721q0 -200 110 -310
t300 -110t300 110t110 310zM537 -156q0 -58 36 -78q39 -22 76 -22q48 0 76 17q31 18 59 63l4 -2q-40 -76 -83 -113t-107 -37q-50 0 -92 31q-41 30 -41 90q0 61 40 101q44 44 93 86h4q-36 -36 -51 -71q-14 -32 -14 -65z" />
    <glyph glyph-name="uogonek" unicode="&#x173;" horiz-adv-x="946" 
d="M834 143q0 -82 29 -104q31 -24 73 -35v-4h-205v346q-66 -185 -146 -275q-81 -91 -210 -91q-131 0 -197 82q-65 81 -65 217v663h-205v4l307 98v-755q0 -95 47 -156q46 -59 146 -59q88 0 175 63q86 62 148 217v588h-205v4l308 98v-901zM713 -152q0 -56 37 -80
q38 -24 75 -24q48 0 76 17q32 19 60 63l4 -2q-40 -75 -84 -113q-43 -37 -107 -37q-51 0 -92 32t-41 93q0 74 47 118q46 43 105 85h4q-49 -45 -67 -82q-17 -35 -17 -70z" />
    <glyph glyph-name="Wcircumflex" unicode="&#x174;" horiz-adv-x="1411" 
d="M53 1155q-33 86 -84 122q-49 34 -108 50v4h366v-4q-41 -11 -70 -44q-30 -35 7 -126l411 -1059l125 318l-288 739q-33 83 -78 121q-42 35 -96 51v4h368v-4q-50 -15 -83 -48q-34 -34 -1 -122l232 -608l211 538q45 120 11 169q-35 50 -116 71v4h344v-4q-72 -28 -120 -73
q-51 -48 -97 -169l-221 -567l158 -420l389 989q45 116 14 171q-30 54 -113 69v4h357v-4q-74 -27 -131 -74q-56 -45 -105 -168l-448 -1146l-174 444l-174 -444zM475 1434h-4l268 221h4l269 -221h-4l-267 102z" />
    <glyph glyph-name="wcircumflex" unicode="&#x175;" horiz-adv-x="1157" 
d="M53 848q-33 83 -84 121q-48 35 -108 51v4h377v-4q-39 -10 -73 -49q-34 -38 -1 -121l289 -752l120 312l-167 438q-33 82 -72 121t-86 51v4h370v-4q-57 -16 -94 -48q-41 -35 -8 -122l117 -318l98 248q45 117 11 168q-35 51 -113 72v4h321v-4q-63 -24 -107 -74
q-44 -51 -89 -168l-109 -280l148 -400l266 682q45 117 11 169q-35 54 -109 71v4h358v-4q-74 -28 -133 -74q-59 -47 -105 -168l-325 -839l-168 438l-172 -438zM358 1147h-4l269 369h4l268 -369h-4l-266 217z" />
    <glyph glyph-name="Ycircumflex" unicode="&#x176;" horiz-adv-x="843" 
d="M745 1087q64 120 34 169q-31 50 -107 71v4h350v-4q-77 -27 -133 -73q-59 -48 -121 -169l-289 -550v-392q0 -81 30 -104q31 -24 73 -35v-4h-312v4q42 11 73 35q30 23 30 104v383l-334 629q-45 84 -86 119t-92 53v4h348v-4q-50 -15 -72 -50q-22 -36 23 -120l309 -594z
M188 1413h-4l269 221h4l268 -221h-4l-266 103z" />
    <glyph glyph-name="ycircumflex" unicode="&#x177;" horiz-adv-x="817" 
d="M53 848q-33 83 -84 121q-48 35 -108 51v4h397v-4q-50 -15 -88 -49q-39 -35 -6 -121l289 -752l266 682q45 117 11 168q-35 51 -116 72v4h363v-4q-72 -27 -132 -74q-58 -46 -104 -168l-325 -839q-51 -133 -139 -200t-201 -67q-54 0 -103 11q-48 11 -84 28v101
q77 -30 130 -42q54 -12 94 -12q91 0 161 41t115 148l12 28zM172 1147h-4l268 369h4l269 -369h-4l-267 217z" />
    <glyph glyph-name="Ydieresis" unicode="&#x178;" horiz-adv-x="843" 
d="M745 1087q64 120 34 169q-31 50 -107 71v4h350v-4q-77 -27 -133 -73q-59 -48 -121 -169l-289 -550v-392q0 -81 30 -104q31 -24 73 -35v-4h-312v4q42 11 73 35q30 23 30 104v383l-334 629q-45 84 -86 119t-92 53v4h348v-4q-50 -15 -72 -50q-22 -36 23 -120l309 -594z
M289 1434q-46 0 -74 30q-29 31 -29 72q0 45 29 74q28 28 74 28q45 0 73 -28q29 -29 29 -74q0 -41 -29 -72q-29 -30 -73 -30zM621 1434q-45 0 -74 30q-29 31 -29 72q0 45 29 74q28 28 74 28q45 0 73 -28q29 -29 29 -74q0 -41 -29 -72q-28 -30 -73 -30z" />
    <glyph glyph-name="Zacute" unicode="&#x179;" horiz-adv-x="972" 
d="M0 0v4l834 1307h-478q-124 0 -195 -47q-69 -45 -136 -177h-5l29 244h914v-4l-834 -1307h508q123 0 196 48q69 46 136 176h4l-29 -244h-944zM262 1438l451 211v-123l-451 -92v4z" />
    <glyph glyph-name="zacute" unicode="&#x17a;" horiz-adv-x="776" 
d="M0 0v4l637 1000h-281q-122 0 -195 -48q-69 -46 -136 -176h-5l29 244h717v-4l-637 -1000h311q123 0 196 48q69 46 136 176h4l-28 -244h-748zM360 1147h-4l125 369h154z" />
    <glyph glyph-name="Zdotaccent" unicode="&#x17b;" horiz-adv-x="972" 
d="M0 0v4l834 1307h-478q-124 0 -195 -47q-69 -45 -136 -177h-5l29 244h914v-4l-834 -1307h508q123 0 196 48q69 46 136 176h4l-29 -244h-944zM487 1454q-44 0 -73 31t-29 71q0 45 29 74t73 29q45 0 74 -29t29 -74q0 -40 -29 -71t-74 -31z" />
    <glyph glyph-name="zdotaccent" unicode="&#x17c;" horiz-adv-x="776" 
d="M0 0v4l637 1000h-281q-122 0 -195 -48q-69 -46 -136 -176h-5l29 244h717v-4l-637 -1000h311q123 0 196 48q69 46 136 176h4l-28 -244h-748zM420 1229q-45 0 -74 31t-29 71q0 45 29 74t74 29t74 -29q28 -28 28 -74q0 -42 -28 -71q-29 -31 -74 -31z" />
    <glyph glyph-name="Zcaron" unicode="&#x17d;" horiz-adv-x="972" 
d="M0 0v4l834 1307h-478q-124 0 -195 -47q-69 -45 -136 -177h-5l29 244h914v-4l-834 -1307h508q123 0 196 48q69 46 136 176h4l-29 -244h-944zM221 1659l266 -103l267 103h4l-269 -221h-4l-268 221h4z" />
    <glyph glyph-name="zcaron" unicode="&#x17e;" horiz-adv-x="776" 
d="M0 0v4l637 1000h-281q-122 0 -195 -48q-69 -46 -136 -176h-5l29 244h717v-4l-637 -1000h311q123 0 196 48q69 46 136 176h4l-28 -244h-748zM686 1516h4l-268 -369h-4l-268 369h4l266 -218z" />
    <glyph glyph-name="Aringacute" unicode="&#x1fa;" horiz-adv-x="1062" 
d="M1010 176q33 -86 84 -122q49 -34 108 -50v-4h-397v4q51 16 88 48q39 34 6 122l-131 338h-565l-105 -268q-47 -119 -12 -169t117 -71v-4h-363v4q74 27 131 74q55 45 105 168l389 997q-33 39 -73 57q-46 21 -85 27v4h193l24 62zM539 1108q-20 45 -29 63q-19 36 -29 50
l-245 -627h501zM524 1413q-105 0 -176 37q-72 38 -72 106q0 70 72 107q71 37 176 37t176 -37q72 -37 72 -107q0 -68 -72 -106q-71 -37 -176 -37zM524 1675q-62 0 -98 -29q-37 -30 -37 -90q0 -59 37 -89q36 -29 98 -29q63 0 99 29t36 89q0 61 -36 90t-99 29zM299 1438
l451 211v-123l-451 -92v4z" />
    <glyph glyph-name="aringacute" unicode="&#x1fb;" horiz-adv-x="821" 
d="M209 926q103 71 164 94q63 24 102 24q115 0 174 -71q60 -72 60 -187v-610q0 -65 20 -86q21 -22 51 -22q22 0 42 13t42 44l4 -2q-22 -55 -57 -93q-37 -40 -88 -40q-47 0 -82 39q-35 40 -35 143v162q-15 -166 -113 -259q-100 -95 -229 -95q-109 0 -181 51q-73 52 -73 123
q0 18 16 36q14 15 44 31l536 268v277q0 97 -50 158q-49 59 -155 59q-47 0 -99 -25q-48 -23 -90 -62q-39 -36 -64 -86q-23 -45 -21 -93q-28 -17 -55 -27t-58 -10q-8 60 44 119q52 60 151 127zM117 184q0 -40 47 -76q46 -36 129 -36q129 0 221 93q92 94 92 243v59l-446 -225
q-19 -8 -31 -23t-12 -35zM420 1167q-96 0 -161 43q-66 44 -66 121t66 121q65 43 161 43t161 -43q66 -44 66 -121t-66 -121q-65 -43 -161 -43zM420 1470q-52 0 -83 -34q-32 -35 -32 -105q0 -69 32 -104t83 -35t83 35t32 104q0 70 -32 105q-31 34 -83 34zM360 1536h-4l125 369
h154z" />
    <glyph glyph-name="AEacute" unicode="&#x1fc;" horiz-adv-x="1691" 
d="M1264 680h-254v-660h346q122 0 195 48q71 47 137 176h4l-29 -244h-862v4q40 11 72 35q30 23 30 104v369h-497l-211 -272q-94 -118 -79 -167q15 -48 89 -69v-4h-365v4q88 28 161 74q74 46 169 168l733 942q0 82 -30 104q-32 24 -72 35v4h841l29 -244h-4q-67 132 -136 177
q-71 47 -196 47h-325v-611h254q89 0 137 48q47 47 74 126h4v-368h-4q-27 80 -74 127t-137 47zM469 594h434v557zM954 1438l451 211v-123l-451 -92v4z" />
    <glyph glyph-name="aeacute" unicode="&#x1fd;" horiz-adv-x="1505" 
d="M1516 512q-21 -259 -123 -395q-102 -137 -314 -137q-191 0 -315 115q-125 116 -152 304q-1 -94 -30 -172q-28 -76 -77 -133q-47 -55 -111 -85q-61 -29 -130 -29q-109 0 -181 51q-73 52 -73 123q0 18 16 36q14 15 44 31l536 268v277q0 97 -50 158q-49 59 -155 59
q-47 0 -99 -25q-48 -23 -90 -62q-39 -36 -64 -86q-23 -45 -21 -93q-28 -17 -55 -27t-58 -10q-8 60 44 119q52 60 151 127q103 71 164 94q63 24 102 24q104 0 164 -60q61 -61 68 -159q74 105 184 162q111 57 227 57q90 0 151 -20q66 -21 106 -53q42 -33 63 -73q20 -39 20 -79
h-692q-27 -51 -42 -114t-15 -136q0 -120 32 -209q33 -91 87 -154q52 -61 127 -95q72 -33 155 -33q160 0 267 103q107 102 134 331h5zM1085 1018q-93 0 -176 -47q-81 -46 -133 -131h557q-8 65 -67 121q-60 57 -181 57zM117 184q0 -40 47 -76q46 -36 129 -36q129 0 221 93
q92 94 92 243v59l-446 -225q-19 -8 -31 -23t-12 -35zM770 1147h-4l125 369h153z" />
    <glyph glyph-name="Oslashacute" unicode="&#x1fe;" horiz-adv-x="1419" 
d="M41 0l178 180q-85 91 -132 217q-46 123 -46 269q0 147 48 273q48 125 135 217q86 90 211 143q126 53 274 53t268 -49t209 -138l162 166h30l-178 -180q85 -91 132 -217q46 -123 46 -268q0 -148 -48 -274q-48 -125 -135 -217q-86 -90 -211 -143q-123 -52 -275 -52
q-147 0 -267 49q-122 50 -209 137l-161 -166h-31zM154 735q0 -142 35 -262q36 -122 102 -217l823 838q-78 103 -198 167q-117 62 -263 62q-109 0 -202 -44q-92 -44 -158 -122q-65 -77 -103 -186q-36 -104 -36 -236zM1266 596q0 139 -36 262q-36 122 -102 217l-823 -837
q79 -104 197 -166t264 -62q110 0 203 44q90 43 157 122q66 78 103 185t37 235zM485 1438l451 211v-123l-451 -92v4z" />
    <glyph glyph-name="oslashacute" unicode="&#x1ff;" horiz-adv-x="1089" 
d="M31 0l135 139q-62 68 -99 166q-36 96 -36 207q0 116 37 212q38 99 104 168q68 71 163 112q93 40 210 40q112 0 204 -37q90 -36 160 -106l119 123h31l-135 -139q62 -68 99 -166q36 -96 36 -207q0 -116 -37 -212q-38 -99 -104 -168q-68 -71 -163 -112q-93 -40 -210 -40
q-112 0 -204 37t-161 106l-119 -123h-30zM145 567q0 -99 24 -191t69 -165l602 620q-58 85 -143 136q-86 51 -193 51q-160 0 -259 -127q-100 -129 -100 -324zM944 457q0 103 -23 191q-24 92 -69 165l-602 -620q57 -86 141 -136q85 -51 195 -51q160 0 259 127t99 324z
M485 1147h-4l125 369h154z" />
    <glyph glyph-name="Scommaaccent" unicode="&#x218;" horiz-adv-x="804" 
d="M418 18q128 0 210 74q81 74 81 193q0 139 -106 219t-232 147q-127 67 -233 149q-105 81 -105 222q0 78 29 136q30 61 81 104q48 41 119 66q68 24 144 24q96 0 166 -21q78 -23 139 -53v-281h-4q-62 171 -148 244q-84 72 -201 72q-114 0 -192 -64q-76 -63 -76 -168
q0 -114 106 -185q105 -70 231 -138q124 -67 231 -155q106 -88 106 -232q0 -176 -105 -284q-104 -107 -288 -107q-101 0 -180 26q-83 27 -150 66v280h4q62 -171 160 -253q96 -81 213 -81zM170 -410h-4l113 287h143z" />
    <glyph glyph-name="scommaaccent" unicode="&#x219;" horiz-adv-x="641" 
d="M358 29q102 0 149 51q46 50 46 137q0 103 -82 161q-83 59 -179 109q-90 47 -179 115q-82 63 -82 176q0 123 87 195q86 71 214 71q84 0 143 -23q61 -24 111 -54v-277h-4q-28 156 -111 240t-186 84q-84 0 -140 -49q-57 -49 -57 -131q0 -89 82 -141q83 -53 179 -103
q93 -49 179 -119q82 -67 82 -186q0 -138 -84 -222q-83 -83 -231 -83q-81 0 -143 22q-65 23 -111 53v318h4q12 -91 44 -158q31 -65 75 -106q46 -43 94 -61q50 -19 100 -19zM121 -410h-4l112 287h144z" />
    <glyph glyph-name="Tcommaaccent" unicode="&#x21a;" horiz-adv-x="1101" 
d="M0 1087l29 244h1044l29 -244h-4q-67 132 -136 177q-71 47 -196 47h-162v-1168q0 -81 30 -104q31 -24 73 -35v-4h-312v4q42 11 73 35q30 23 30 104v1168h-162q-125 0 -196 -47q-69 -45 -136 -177h-4zM350 -410h-4l113 287h143z" />
    <glyph glyph-name="tcommaaccent" unicode="&#x21b;" horiz-adv-x="581" 
d="M-61 946l266 242v-164h401v-82h-401v-643q0 -99 47 -163q46 -62 143 -62q95 0 159 68t64 255h5q0 -201 -65 -310q-64 -107 -185 -107q-135 0 -203 86t-68 223v653h-163v4zM193 -410h-5l113 287h143z" />
    <glyph glyph-name="dotlessj" unicode="&#x237;" horiz-adv-x="327" 
d="M123 -12v954h-205v4l307 98v-1044q0 -76 -10 -123q-11 -50 -40 -85q-30 -36 -82 -63q-63 -33 -134 -57v4q101 45 132 114q32 70 32 198z" />
    <glyph glyph-name="circumflex" unicode="&#x2c6;" 
d="M246 1147h-4l268 369h4l268 -369h-4l-266 217z" />
    <glyph glyph-name="caron" unicode="&#x2c7;" 
d="M778 1516h4l-268 -369h-4l-268 369h4l266 -218z" />
    <glyph glyph-name="breve" unicode="&#x2d8;" 
d="M512 1188q-104 0 -170 77t-66 210h5q5 -102 72 -143q69 -42 159 -42t159 42q67 41 72 143h5q0 -133 -66 -210t-170 -77z" />
    <glyph glyph-name="dotaccent" unicode="&#x2d9;" 
d="M512 1229q-45 0 -74 31q-28 29 -28 71q0 46 28 74q29 29 74 29t74 -29q28 -28 28 -74q0 -42 -28 -71q-29 -31 -74 -31z" />
    <glyph glyph-name="ring" unicode="&#x2da;" 
d="M512 1167q-96 0 -161 43q-66 44 -66 121t66 121q65 43 161 43t161 -43q66 -44 66 -121t-66 -121q-65 -43 -161 -43zM512 1470q-52 0 -83 -34q-32 -35 -32 -105q0 -69 32 -104t83 -35t83 35t32 104q0 70 -32 105q-31 34 -83 34z" />
    <glyph glyph-name="ogonek" unicode="&#x2db;" 
d="M481 -152q0 -56 37 -80q38 -24 76 -24q48 0 76 17q31 18 59 63l4 -2q-40 -75 -84 -113q-43 -37 -106 -37q-51 0 -92 32t-41 93q0 74 47 118q49 46 104 85h4q-47 -43 -66 -82q-18 -38 -18 -70z" />
    <glyph glyph-name="tilde" unicode="&#x2dc;" 
d="M778 1419q-24 -93 -60 -140q-36 -46 -97 -46q-41 0 -75 17q-44 22 -68 38q-21 14 -63 38q-30 17 -63 17q-37 0 -60 -23q-24 -24 -42 -77h-4q24 93 60 140t97 47q39 0 75 -18q44 -22 68 -38q21 -14 63 -38q30 -17 63 -17q37 0 60 23q24 24 42 77h4z" />
    <glyph glyph-name="hungarumlaut" unicode="&#x2dd;" 
d="M311 1147h-4l62 369h143zM676 1147h-4l61 369h144z" />
    <glyph glyph-name="Wgrave" unicode="&#x1e80;" horiz-adv-x="1411" 
d="M53 1155q-33 86 -84 122q-49 34 -108 50v4h366v-4q-41 -11 -70 -44q-30 -35 7 -126l411 -1059l125 318l-288 739q-33 83 -78 121q-42 35 -96 51v4h368v-4q-50 -15 -83 -48q-34 -34 -1 -122l232 -608l211 538q45 120 11 169q-35 50 -116 71v4h344v-4q-72 -28 -120 -73
q-51 -48 -97 -169l-221 -567l158 -420l389 989q45 116 14 171q-30 54 -113 69v4h357v-4q-74 -27 -131 -74q-56 -45 -105 -168l-448 -1146l-174 444l-174 -444zM967 1438v-4l-451 92v123z" />
    <glyph glyph-name="wgrave" unicode="&#x1e81;" horiz-adv-x="1157" 
d="M53 848q-33 83 -84 121q-48 35 -108 51v4h377v-4q-39 -10 -73 -49q-34 -38 -1 -121l289 -752l120 312l-167 438q-33 82 -72 121t-86 51v4h370v-4q-57 -16 -94 -48q-41 -35 -8 -122l117 -318l98 248q45 117 11 168q-35 51 -113 72v4h321v-4q-63 -24 -107 -74
q-44 -51 -89 -168l-109 -280l148 -400l266 682q45 117 11 169q-35 54 -109 71v4h358v-4q-74 -28 -133 -74q-59 -47 -105 -168l-325 -839l-168 438l-172 -438zM684 1147l-274 369h153l125 -369h-4z" />
    <glyph glyph-name="Wacute" unicode="&#x1e82;" horiz-adv-x="1411" 
d="M53 1155q-33 86 -84 122q-49 34 -108 50v4h366v-4q-41 -11 -70 -44q-30 -35 7 -126l411 -1059l125 318l-288 739q-33 83 -78 121q-42 35 -96 51v4h368v-4q-50 -15 -83 -48q-34 -34 -1 -122l232 -608l211 538q45 120 11 169q-35 50 -116 71v4h344v-4q-72 -28 -120 -73
q-51 -48 -97 -169l-221 -567l158 -420l389 989q45 116 14 171q-30 54 -113 69v4h357v-4q-74 -27 -131 -74q-56 -45 -105 -168l-448 -1146l-174 444l-174 -444zM516 1438l451 211v-123l-451 -92v4z" />
    <glyph glyph-name="wacute" unicode="&#x1e83;" horiz-adv-x="1157" 
d="M53 848q-33 83 -84 121q-48 35 -108 51v4h377v-4q-39 -10 -73 -49q-34 -38 -1 -121l289 -752l120 312l-167 438q-33 82 -72 121t-86 51v4h370v-4q-57 -16 -94 -48q-41 -35 -8 -122l117 -318l98 248q45 117 11 168q-35 51 -113 72v4h321v-4q-63 -24 -107 -74
q-44 -51 -89 -168l-109 -280l148 -400l266 682q45 117 11 169q-35 54 -109 71v4h358v-4q-74 -28 -133 -74q-59 -47 -105 -168l-325 -839l-168 438l-172 -438zM565 1147h-4l125 369h154z" />
    <glyph glyph-name="Wdieresis" unicode="&#x1e84;" horiz-adv-x="1411" 
d="M53 1155q-33 86 -84 122q-49 34 -108 50v4h366v-4q-41 -11 -70 -44q-30 -35 7 -126l411 -1059l125 318l-288 739q-33 83 -78 121q-42 35 -96 51v4h368v-4q-50 -15 -83 -48q-34 -34 -1 -122l232 -608l211 538q45 120 11 169q-35 50 -116 71v4h344v-4q-72 -28 -120 -73
q-51 -48 -97 -169l-221 -567l158 -420l389 989q45 116 14 171q-30 54 -113 69v4h357v-4q-74 -27 -131 -74q-56 -45 -105 -168l-448 -1146l-174 444l-174 -444zM575 1454q-44 0 -73 31t-29 71q0 45 29 74t73 29q45 0 74 -29t29 -74q0 -40 -29 -71t-74 -31zM907 1454
q-44 0 -73 31t-29 71q0 45 29 74t73 29q45 0 74 -29t29 -74q0 -40 -29 -71t-74 -31z" />
    <glyph glyph-name="wdieresis" unicode="&#x1e85;" horiz-adv-x="1157" 
d="M53 848q-33 83 -84 121q-48 35 -108 51v4h377v-4q-39 -10 -73 -49q-34 -38 -1 -121l289 -752l120 312l-167 438q-33 82 -72 121t-86 51v4h370v-4q-57 -16 -94 -48q-41 -35 -8 -122l117 -318l98 248q45 117 11 168q-35 51 -113 72v4h321v-4q-63 -24 -107 -74
q-44 -51 -89 -168l-109 -280l148 -400l266 682q45 117 11 169q-35 54 -109 71v4h358v-4q-74 -28 -133 -74q-59 -47 -105 -168l-325 -839l-168 438l-172 -438zM459 1229q-45 0 -74 31t-29 71q0 45 29 74t74 29q44 0 73 -29t29 -74q0 -40 -29 -71t-73 -31zM791 1229
q-45 0 -74 31t-29 71q0 45 29 74t74 29q44 0 73 -29t29 -74q0 -40 -29 -71t-73 -31z" />
    <glyph glyph-name="Ygrave" unicode="&#x1ef2;" horiz-adv-x="843" 
d="M745 1087q64 120 34 169q-31 50 -107 71v4h350v-4q-77 -27 -133 -73q-59 -48 -121 -169l-289 -550v-392q0 -81 30 -104q31 -24 73 -35v-4h-312v4q42 11 73 35q30 23 30 104v383l-334 629q-45 84 -86 119t-92 53v4h348v-4q-50 -15 -72 -50q-22 -36 23 -120l309 -594z
M678 1417v-4l-451 92v123z" />
    <glyph glyph-name="ygrave" unicode="&#x1ef3;" horiz-adv-x="817" 
d="M53 848q-33 83 -84 121q-48 35 -108 51v4h397v-4q-50 -15 -88 -49q-39 -35 -6 -121l289 -752l266 682q45 117 11 168q-35 51 -116 72v4h363v-4q-72 -27 -132 -74q-58 -46 -104 -168l-325 -839q-51 -133 -139 -200t-201 -67q-54 0 -103 11q-48 11 -84 28v101
q77 -30 130 -42q54 -12 94 -12q91 0 161 41t115 148l12 28zM498 1147l-275 369h154l125 -369h-4z" />
    <glyph glyph-name="endash" unicode="&#x2013;" horiz-adv-x="901" 
d="M41 645h819v-20h-819v20z" />
    <glyph glyph-name="emdash" unicode="&#x2014;" horiz-adv-x="1720" 
d="M41 645h1638v-20h-1638v20z" />
    <glyph glyph-name="quoteleft" unicode="&#x2018;" horiz-adv-x="348" 
d="M152 791h-132l220 540h4z" />
    <glyph glyph-name="quoteright" unicode="&#x2019;" horiz-adv-x="348" 
d="M197 1331h131l-219 -540h-5z" />
    <glyph glyph-name="quotesinglbase" unicode="&#x201a;" horiz-adv-x="348" 
d="M113 233h131l-219 -540h-5z" />
    <glyph glyph-name="quotedblleft" unicode="&#x201c;" horiz-adv-x="614" 
d="M152 791h-132l220 540h4zM418 791h-131l219 540h4z" />
    <glyph glyph-name="quotedblright" unicode="&#x201d;" horiz-adv-x="614" 
d="M197 1331h131l-219 -540h-5zM463 1331h131l-219 -540h-4z" />
    <glyph glyph-name="quotedblbase" unicode="&#x201e;" horiz-adv-x="614" 
d="M113 233h131l-219 -540h-5zM379 233h131l-219 -540h-4z" />
    <glyph glyph-name="dagger" unicode="&#x2020;" horiz-adv-x="757" 
d="M436 655l-53 -962h-8l-53 962l53 334l-334 -53v115l334 -54l-53 334h114l-53 -334l334 54v-115l-334 53z" />
    <glyph glyph-name="daggerdbl" unicode="&#x2021;" horiz-adv-x="757" 
d="M41 88l334 -53l-53 334v286l53 334l-334 -53v115l334 -54l-53 334h114l-53 -334l334 54v-115l-334 53l53 -334v-286l-53 -334l334 53v-115l-334 54l53 -334h-114l53 334l-334 -54v115z" />
    <glyph glyph-name="bullet" unicode="&#x2022;" 
d="M512 1044q181 0 295 -115q115 -117 115 -294t-115 -294q-114 -116 -295 -116t-295 116q-115 117 -115 294t115 294q114 115 295 115z" />
    <glyph glyph-name="triangularbullet" unicode="&#x2023;" 
d="M307 1106l615 -471l-615 -471v942z" />
    <glyph glyph-name="ellipsis" unicode="&#x2026;" horiz-adv-x="851" 
d="M139 176q45 0 71 -26q28 -28 28 -72t-28 -72q-26 -26 -71 -26q-44 0 -70 26q-28 28 -28 72t28 72q26 26 70 26zM426 176q45 0 71 -26q27 -27 27 -72t-27 -72q-26 -26 -71 -26t-71 26q-27 27 -27 72t27 72q26 26 71 26zM713 176q44 0 70 -26q28 -28 28 -72t-28 -72
q-26 -26 -70 -26q-45 0 -71 26q-28 28 -28 72t28 72q26 26 71 26z" />
    <glyph glyph-name="guilsinglleft" unicode="&#x2039;" horiz-adv-x="520" 
d="M61 596l390 428h8l-266 -430l266 -430h-8l-390 428v4z" />
    <glyph glyph-name="guilsinglright" unicode="&#x203a;" horiz-adv-x="520" 
d="M459 596v-4l-389 -428h-9l267 430l-267 430h9z" />
    <glyph glyph-name="Euro" unicode="&#x20ac;" horiz-adv-x="989" 
d="M666 471h-371q30 -211 125 -339t235 -128q90 0 168 61q76 59 142 201h4q10 -22 15 -44q5 -23 5 -42q0 -86 -97 -143q-98 -57 -237 -57q-171 0 -302 134t-171 357h-182v21h178q-8 44 -11 85q-3 44 -3 89q0 46 3 89q3 41 11 85h-178v20h182q41 225 171 358q131 134 302 134
q138 0 237 -58q97 -57 97 -143q0 -19 -5 -42q-5 -22 -15 -44h-4q-67 143 -142 202q-77 60 -168 60q-141 0 -235 -127q-95 -128 -125 -340h371v-20h-373q-3 -27 -7 -85q-3 -43 -3 -89t3 -89q4 -58 7 -85h373v-21z" />
    <glyph glyph-name="servicemark" unicode="&#x2120;" horiz-adv-x="1304" 
d="M240 635q58 0 92 34q35 35 35 91q0 72 -54 114q-51 40 -116 75q-69 38 -117 79q-53 45 -53 129q0 85 60 134q61 50 146 50q55 0 91 -11q45 -14 75 -27v-152h-4q-33 88 -79 125t-109 37q-51 0 -83 -29t-32 -80q0 -61 53 -97q50 -34 117 -71q65 -36 117 -83q53 -48 53 -134
q0 -96 -58 -155q-58 -60 -161 -60q-54 0 -97 14q-50 16 -81 35v152h4q33 -89 85 -129q53 -41 116 -41zM553 750q0 -65 25 -93q24 -27 63 -39v-4h-199v4q40 12 64 39t24 93v546q-12 14 -24 20q-11 6 -31 11v4h160l239 -579l242 579h158v-4q-24 -8 -39 -19q-16 -12 -16 -57
v-557q0 -45 16 -57q19 -14 39 -19v-4h-205v4q19 5 34 19q13 12 13 57v584l-280 -674l-267 629q-2 3 -4.5 9t-3.5 8l-8 16v-516z" />
    <glyph glyph-name="trademark" unicode="&#x2122;" horiz-adv-x="1474" 
d="M0 1192l16 139h611l14 -139h-4q-35 70 -73 94q-39 25 -105 25h-86v-617q0 -45 16 -57q19 -14 39 -19v-4h-213v4q20 5 39 19q16 12 16 57v617h-88q-66 0 -105 -25q-38 -24 -73 -94h-4zM723 750q0 -65 25 -93q23 -26 63 -38v-5h-199v5q42 13 64 38q24 27 24 93v546
q-12 14 -24 20q-11 6 -31 11v4h160l239 -579l242 579h158v-4q-24 -8 -39 -19q-16 -12 -16 -57v-557q0 -45 16 -57q19 -14 39 -19v-4h-205v4q19 5 34 19q13 12 13 57v584l-280 -674l-267 629q-2 3 -4.5 9t-3.5 8t-2.5 5.5t-3 6t-2.5 4.5v-516z" />
    <glyph glyph-name="minus" unicode="&#x2212;" horiz-adv-x="839" 
d="M41 645h758v-20h-758v20z" />
    <glyph glyph-name="infinity" unicode="&#x221e;" horiz-adv-x="1224" 
d="M932 881q107 0 180 -71q72 -70 72 -175t-72 -175q-73 -71 -180 -71q-122 0 -194 70q-70 68 -126 155q-56 -84 -127 -155q-70 -70 -192 -70q-107 0 -180 71q-72 70 -72 175t72 175q73 71 180 71q122 0 192 -70q69 -69 127 -156q58 90 126 156q72 70 194 70zM928 860
q-114 0 -180 -69q-63 -66 -123 -156q60 -90 123 -156q66 -69 180 -69q102 0 167 64q66 64 66 161t-66 161q-65 64 -167 64zM63 635q0 -96 67 -161q65 -64 167 -64q114 0 180 69q61 64 121 156q-57 89 -122 156q-66 69 -179 69q-102 0 -167 -64q-67 -65 -67 -161z" />
    <glyph glyph-name="approxequal" unicode="&#x2248;" horiz-adv-x="839" 
d="M612 696q76 0 120 47t44 158v10h23v-10q0 -114 -47 -170q-46 -55 -142 -55q-64 0 -111 35q-48 35 -85 77q-40 45 -82 78q-44 35 -105 35q-75 0 -119 -47q-45 -48 -45 -158v-10h-22v10q0 114 47 170t141 56q65 0 112 -35q45 -33 85 -78t82 -78q44 -35 104 -35zM612 369
q76 0 120 47t44 157v11h23v-11q0 -114 -47 -170q-46 -55 -142 -55q-64 0 -111 35q-45 33 -85 78t-82 78q-43 34 -105 34q-75 0 -119 -47q-45 -48 -45 -157v-11h-22v11q0 114 47 170q46 55 141 55q65 0 112 -35q45 -33 85 -78t82 -78q43 -34 104 -34z" />
    <glyph glyph-name="notequal" unicode="&#x2260;" horiz-adv-x="839" 
d="M41 481h248l272 307h-520v21h537l190 215h31l-191 -215h191v-21h-207l-273 -307h480v-20h-496l-190 -215h-31l190 215h-231v20z" />
    <glyph glyph-name="lessequal" unicode="&#x2264;" horiz-adv-x="839" 
d="M41 633v20l758 389v-24l-729 -375l729 -375v-24zM41 20h758v-20h-758v20z" />
    <glyph glyph-name="greaterequal" unicode="&#x2265;" horiz-adv-x="839" 
d="M799 653v-20l-758 -389v24l729 375l-729 375v24zM41 20h758v-20h-758v20z" />
    <glyph glyph-name="fisheye" unicode="&#x25c9;" horiz-adv-x="1712" 
d="M856 1290q142 0 262 -49q122 -49 208 -136q86 -86 136 -208q49 -120 49 -262t-49 -262q-50 -122 -136 -208q-86 -87 -208 -136q-120 -49 -262 -49t-262 49q-122 50 -208 136q-86 87 -136 208q-49 120 -49 262t49 262q50 122 136 208q86 87 208 136q120 49 262 49z
M856 1268q-136 0 -253 -47q-115 -47 -200 -131q-85 -85 -131 -201q-47 -118 -47 -254t47 -254q46 -116 131 -201t200 -131q117 -47 253 -47t253 47q116 47 200 131q85 85 131 201q47 118 47 254t-47 254q-46 116 -131 201q-84 84 -200 131q-117 47 -253 47zM856 1044
q181 0 295 -115q115 -117 115 -294t-115 -294q-114 -116 -295 -116t-295 116q-115 117 -115 294t115 294q114 115 295 115z" />
    <glyph glyph-name="bullseye" unicode="&#x25ce;" horiz-adv-x="1712" 
d="M856 1290q142 0 262 -49q122 -49 208 -136q86 -86 136 -208q49 -120 49 -262t-49 -262q-50 -122 -136 -208q-86 -87 -208 -136q-120 -49 -262 -49t-262 49q-122 50 -208 136q-86 87 -136 208q-49 120 -49 262t49 262q50 122 136 208q86 87 208 136q120 49 262 49z
M856 1268q-136 0 -253 -47q-115 -47 -200 -131q-85 -85 -131 -201q-47 -118 -47 -254t47 -254q46 -116 131 -201t200 -131q117 -47 253 -47t253 47q116 47 200 131q85 85 131 201q47 118 47 254t-47 254q-46 116 -131 201q-84 84 -200 131q-117 47 -253 47zM856 1044
q181 0 295 -115q115 -117 115 -294t-115 -294q-114 -116 -295 -116t-295 116q-115 117 -115 294t115 294q114 115 295 115zM856 1022q-169 0 -277 -111t-108 -276q0 -166 108 -277q107 -110 277 -110q171 0 278 110t107 277q0 166 -107 276q-108 111 -278 111z" />
    <glyph glyph-name="openbullet" unicode="&#x25e6;" 
d="M512 1044q181 0 295 -115q115 -117 115 -294t-115 -294q-114 -116 -295 -116t-295 116q-115 117 -115 294t115 294q114 115 295 115zM512 1022q-170 0 -278 -111q-107 -110 -107 -276q0 -167 107 -277t278 -110t278 110t107 277q0 166 -107 276q-108 111 -278 111z" />
    <glyph glyph-name="commaaccent" unicode="&#xf6c3;" 
d="M311 -410h-4l113 287h143z" />
    <glyph glyph-name="uniF8FF" unicode="&#xf8ff;" horiz-adv-x="1447" 
d="M109 326q162 -46 300 -52q142 -6 281 27q-138 88 -263 214q-119 120 -218 251l16 12q85 -118 205 -248q109 -118 254 -215q-76 168 -127 345q-53 186 -80 389l21 2q24 -194 74 -380q50 -184 122 -354q8 237 45 471q39 242 88 459l23 -6q-56 -229 -94 -469
q-35 -220 -51 -463q60 70 123 168q62 96 109 185q56 106 91 190q48 113 72 186l18 -6q-29 -87 -74 -189q-46 -103 -94 -192q-48 -90 -111 -182q-60 -89 -126 -162q149 39 300 124q148 83 318 216l15 -14q-159 -127 -320 -214q-155 -84 -311 -124q111 -68 256 -102
q151 -36 299 -46l-2 -20q-148 7 -288 47q-141 40 -243 98q15 -15 25 -41q9 -24 14 -59q11 -79 -1 -115q-12 -38 -44 -39q-32 -4 -55 29q-22 33 -33 111q-6 49 3 83q9 33 28 46q-145 -31 -284 -25q-142 6 -288 45zM702 293h-2h2z" />
    <glyph glyph-name="glyph1" horiz-adv-x="0" 
 />
    <glyph glyph-name="CR" 
 />
    <glyph glyph-name="word_joiner" horiz-adv-x="409" 
 />
    <glyph glyph-name="em_space" horiz-adv-x="2048" 
 />
    <glyph glyph-name="en_space" 
 />
    <glyph glyph-name="threeperem_space" horiz-adv-x="681" 
 />
    <glyph glyph-name="fourperem_space" horiz-adv-x="512" 
 />
    <glyph glyph-name="thin_space" horiz-adv-x="256" 
 />
    <glyph glyph-name="hair_space" horiz-adv-x="204" 
 />
    <glyph glyph-name="figure_space" 
 />
    <glyph glyph-name="at.cap" horiz-adv-x="1443" 
d="M1094 279q-88 0 -140 48q-53 48 -53 158v66q-12 -128 -92 -205q-79 -76 -182 -76q-88 0 -147 41q-58 40 -58 101q0 16 12 28q14 14 35 25l432 217v217q0 78 -39 126t-110 48q-47 0 -87 -20q-42 -21 -75 -54t-51 -76q-19 -47 -15 -89q-24 -17 -52 -26q-27 -9 -54 -9
q-7 59 39 116t127 113q78 55 130 75q48 19 83 19q102 0 154 -57q53 -58 53 -150v-428q0 -89 33 -118q36 -31 89 -31q94 0 162 107q70 110 70 300q0 124 -44 233q-42 104 -124 186q-79 79 -192 123q-112 44 -244 44q-144 0 -270 -50q-123 -49 -213 -139t-139 -212
q-50 -124 -50 -268q0 -146 46 -266q47 -122 130 -210q82 -87 207 -137q122 -49 274 -49q94 0 173 20q84 21 153 56l10 -19q-68 -35 -156 -57q-81 -20 -180 -20q-155 0 -282 51t-214 141t-135 216q-49 129 -49 274q0 147 53 276q53 128 143 218t219 143t280 53q131 0 248 -44
t199 -123q83 -80 131 -192t48 -248q0 -219 -85 -343q-84 -123 -201 -123zM528 442q0 -32 33 -59t90 -27q103 0 176 72q74 72 74 184v47l-340 -172q-14 -5 -23 -18q-10 -13 -10 -27z" />
    <glyph glyph-name="T_h" horiz-adv-x="1884" 
d="M0 1087l29 244h776l307 99v-752q68 186 156 276t219 90q140 0 212 -89q73 -90 73 -230v-582q0 -82 29 -104q31 -24 73 -35v-4h-307v4q40 11 72 35q30 23 30 104v572q0 105 -55 170t-160 65q-102 0 -189 -62q-91 -65 -153 -218v-527q0 -81 30 -104q32 -24 72 -35v-4h-307
v4q42 11 73 35q30 23 30 104v1168h-406v-1168q0 -81 30 -104q31 -24 73 -35v-4h-312v4q42 11 73 35q30 23 30 104v1168h-162q-125 0 -196 -47q-69 -45 -136 -177h-4z" />
    <glyph glyph-name="w_w_w" horiz-adv-x="2177" 
d="M53 848q-33 83 -84 121q-48 35 -108 51v4h377v-4q-39 -10 -73 -49q-34 -38 -1 -121l289 -752l120 312l-167 438q-33 82 -72 121t-86 51v4h338v-4q-40 -11 -71 -49q-32 -39 1 -121l277 -752l120 312l-168 438q-33 83 -71 121q-39 39 -86 51v4h338v-4q-40 -11 -71 -49
q-32 -39 1 -121l277 -752l120 312l-168 438q-33 83 -71 121q-39 39 -86 51v4h338v-4q-40 -11 -71 -49q-32 -39 1 -121l277 -752l120 312l-168 438q-33 83 -71 121q-39 39 -86 51v4h338v-4q-40 -11 -71 -49q-32 -39 1 -121l117 -320l98 250q45 117 11 168q-35 51 -113 72v4
h321v-4q-63 -24 -107 -74q-44 -51 -89 -168l-109 -280l147 -400l-26 -69l293 751q45 117 11 169q-35 53 -110 71v4h359v-4q-74 -28 -133 -74q-59 -47 -105 -168l-325 -839l-168 438l-172 -438l-168 438l-172 -438l-168 438l-172 -438l-168 438l-172 -438z" />
    <glyph glyph-name="fi.cap" horiz-adv-x="1273" 
d="M240 184q0 -103 35 -134t128 -46v-4h-372v4q40 11 72 35q30 23 30 104v1045q0 82 -30 104q-32 24 -72 35v4h841l29 -244h-4q-67 132 -136 177q-71 47 -196 47h-325v-662h274q90 0 137 47t74 127h4v-368h-4q-27 80 -74 127t-137 47h-274v-445zM1141 143q0 -82 29 -104
q31 -24 73 -35v-4h-311v4q42 11 73 35q29 22 29 104v1045q0 82 -29 104q-31 24 -73 35v4h311v-4q-42 -11 -73 -35q-29 -22 -29 -104v-1045z" />
    <glyph glyph-name="fl.cap" horiz-adv-x="1761" 
d="M240 184q0 -103 35 -134t128 -46v-4h-372v4q40 11 72 35q30 23 30 104v1045q0 82 -30 104q-32 24 -72 35v4h841l29 -244h-4q-67 132 -136 177q-71 47 -196 47h-325v-662h274q90 0 137 47t74 127h4v-368h-4q-27 80 -74 127t-137 47h-274v-445zM1141 1147v-1127h284
q123 0 196 48q69 46 136 176h4l-28 -244h-801v4q42 11 73 35q29 22 29 104v1045q0 82 -29 104q-31 24 -73 35v4h373v-4q-93 -15 -128 -46q-36 -31 -36 -134z" />
    <glyph glyph-name="f_f.cap" horiz-adv-x="1802" 
d="M240 184q0 -103 35 -134t128 -46v-4h-372v4q40 11 72 35q30 23 30 104v1045q0 82 -30 104q-32 24 -72 35v4h841l29 -244h-4q-67 132 -136 177q-71 47 -196 47h-325v-662h274q90 0 137 47t74 127h4v-368h-4q-27 80 -74 127t-137 47h-274v-445zM1141 184q0 -102 36 -134
q35 -31 128 -46v-4h-373v4q42 11 73 35q29 22 29 104v1045q0 82 -29 104q-31 24 -73 35v4h842l28 -244h-4q-67 132 -136 177q-71 47 -196 47h-325v-662h274q90 0 137 47t74 127h4v-368h-4q-27 80 -74 127t-137 47h-274v-445z" />
    <glyph glyph-name="f_f_i.cap" horiz-adv-x="2174" 
d="M240 184q0 -103 35 -134t128 -46v-4h-372v4q40 11 72 35q30 23 30 104v1045q0 82 -30 104q-32 24 -72 35v4h841l29 -244h-4q-67 132 -136 177q-71 47 -196 47h-325v-662h274q90 0 137 47t74 127h4v-368h-4q-27 80 -74 127t-137 47h-274v-445zM1141 184q0 -102 36 -134
q35 -31 128 -46v-4h-373v4q42 11 73 35q29 22 29 104v1045q0 82 -29 104q-31 24 -73 35v4h842l28 -244h-4q-67 132 -136 177q-71 47 -196 47h-325v-662h274q90 0 137 47t74 127h4v-368h-4q-27 80 -74 127t-137 47h-274v-445zM2042 143q0 -81 30 -104q32 -24 72 -35v-4h-311
v4q42 11 73 35q29 22 29 104v1045q0 82 -29 104q-31 24 -73 35v4h311v-4q-40 -11 -72 -35q-30 -22 -30 -104v-1045z" />
    <glyph glyph-name="f_f_l.cap" horiz-adv-x="2662" 
d="M240 184q0 -103 35 -134t128 -46v-4h-372v4q40 11 72 35q30 23 30 104v1045q0 82 -30 104q-32 24 -72 35v4h841l29 -244h-4q-67 132 -136 177q-71 47 -196 47h-325v-662h274q90 0 137 47t74 127h4v-368h-4q-27 80 -74 127t-137 47h-274v-445zM1141 184q0 -102 36 -134
q35 -31 128 -46v-4h-373v4q42 11 73 35q29 22 29 104v1045q0 82 -29 104q-31 24 -73 35v4h842l28 -244h-4q-67 132 -136 177q-71 47 -196 47h-325v-662h274q90 0 137 47t74 127h4v-368h-4q-27 80 -74 127t-137 47h-274v-445zM2042 1147v-1127h285q122 0 195 48
q69 46 136 176h4l-28 -244h-801v4q42 11 73 35q29 22 29 104v1045q0 82 -29 104q-31 24 -73 35v4h373v-4q-93 -15 -128 -46q-36 -31 -36 -134z" />
    <glyph glyph-name="w_w_w.cap" horiz-adv-x="2455" 
d="M53 1155q-33 86 -84 122q-49 34 -108 50v4h366v-4q-41 -11 -70 -44q-30 -35 7 -126l411 -1059l125 316l-288 741q-33 83 -78 124t-96 48v4h348v-4q-43 -11 -70 -44q-28 -35 6 -126l402 -1059l125 318l-289 739q-33 83 -75 124q-42 40 -89 48v4h338v-4q-43 -11 -70 -44
q-28 -35 6 -126l402 -1059l125 318l-289 739q-33 83 -75 124q-42 40 -89 48v4h338v-4q-43 -11 -70 -44q-28 -34 7 -126l401 -1059l125 318l-289 739q-33 84 -73 121q-38 36 -91 51v4h359v-4q-50 -15 -83 -48q-34 -34 -1 -122l231 -608l211 538q45 120 11 169q-35 51 -115 71
v4h344v-4q-72 -28 -120 -73q-51 -48 -97 -169l-222 -567l158 -420l389 989q45 117 15 171t-113 69v4h356v-4q-74 -27 -131 -74q-54 -44 -104 -168l-449 -1146l-174 444l-174 -444l-174 444l-174 -444l-174 444l-174 -444l-174 444l-174 -444z" />
    <glyph glyph-name="zeroslash" horiz-adv-x="1064" 
d="M532 1352q113 0 205 -50q91 -49 155 -141q62 -89 97 -217q35 -129 35 -278q0 -150 -35 -279q-35 -128 -97 -217q-63 -90 -155 -140t-205 -50q-112 0 -204 50t-155 140q-62 89 -97 217q-35 129 -35 279q0 149 35 278q35 128 97 217q64 92 155 141q92 50 204 50zM532 1331
q-94 0 -164 -48q-71 -48 -117 -136q-47 -89 -69 -211q-22 -120 -22 -270q0 -122 15 -227q14 -100 46 -187l613 854q-45 106 -121 165q-77 60 -181 60zM905 666q0 122 -15 227q-14 98 -46 186l-613 -852q46 -108 121 -167q76 -60 180 -60q95 0 165 49q71 50 117 136
q46 87 69 210q22 120 22 271z" />
    <glyph glyph-name="rublesign" horiz-adv-x="1015" 
d="M240 184q0 -103 35 -134t128 -46v-4h-372v4q40 11 72 35q30 23 30 104v185h-133v20h133v348h-133v21h133v471q0 82 -30 104q-32 24 -72 35v4h542q190 0 285 -76q96 -77 96 -198q0 -165 -111 -263q-112 -98 -315 -98h-288v-348h426v-20h-426v-144zM520 1311h-280v-594h307
q142 0 223 71q82 72 82 213q0 127 -78 219q-78 91 -254 91z" />
    <glyph glyph-name="zeroslash.OP" horiz-adv-x="1064" 
d="M532 1188q112 0 205 -44q91 -43 155 -124q61 -77 97 -192q35 -113 35 -244q0 -132 -35 -245q-36 -115 -97 -192q-63 -79 -155 -123q-93 -44 -205 -44q-111 0 -204 44q-92 44 -155 123q-61 77 -97 192q-35 113 -35 245q0 131 35 244q36 115 97 192q64 81 155 124
q93 44 204 44zM532 1163q-94 0 -164 -42t-117 -119q-47 -76 -69 -183q-22 -104 -22 -235q0 -119 19 -218q19 -100 59 -178l577 813q-44 75 -117 119q-71 43 -166 43zM905 584q0 121 -19 219q-19 97 -59 176l-577 -813q44 -75 117 -119q71 -43 165 -43q95 0 165 43
q71 44 117 119q47 77 69 183t22 235z" />
    <glyph glyph-name="zero.OP" horiz-adv-x="1064" 
d="M532 1188q112 0 205 -44q91 -43 155 -124q61 -77 97 -192q35 -113 35 -244q0 -132 -35 -245q-36 -115 -97 -192q-63 -79 -155 -123q-93 -44 -205 -44q-111 0 -204 44q-92 44 -155 123q-61 77 -97 192q-35 113 -35 245q0 131 35 244q36 115 97 192q64 81 155 124
q93 44 204 44zM532 1163q-94 0 -164 -42t-117 -119q-47 -76 -69 -183q-22 -104 -22 -235q0 -129 22 -235t69 -183q46 -75 117 -119q70 -43 164 -43q95 0 165 43q71 44 117 119q47 77 69 183t22 235q0 131 -22 235q-23 107 -69 183q-47 77 -117 119q-71 42 -165 42z" />
    <glyph glyph-name="one.OP" horiz-adv-x="430" 
d="M266 184q0 -102 36 -134q35 -31 128 -46v-4h-430v4q93 15 128 46q36 32 36 134v799q0 103 -36 134q-35 31 -128 46v4h430v-4q-93 -15 -128 -46q-36 -31 -36 -134v-799z" />
    <glyph glyph-name="two.OP" horiz-adv-x="927" 
d="M72 4q146 124 302 246t273 233q-51 -39 -106 -54t-107 -15q-94 0 -166 30q-71 30 -120 80q-48 50 -72 115q-25 69 -25 135q0 100 34 175q36 79 91 130q60 55 135 81q81 28 166 28q99 0 178 -32q76 -31 130 -83q51 -50 79 -119q27 -68 27 -139q0 -99 -53 -185
q-50 -82 -149 -168q-93 -81 -227 -174q-119 -82 -288 -206h733v-82h-835v4zM160 834q0 -74 21 -145q21 -70 64 -124t103 -86q62 -33 141 -33q118 0 203 85q86 86 86 243q0 77 -22 144q-22 68 -67 122q-44 53 -107 86t-146 33q-110 0 -193 -83t-83 -242z" />
    <glyph glyph-name="three.OP" horiz-adv-x="827" 
d="M807 219q0 -91 -38 -167q-37 -74 -99 -127t-144 -81q-81 -28 -168 -28q-148 0 -254 53q-104 52 -104 154q0 28 7 52q8 28 22 54h4q69 -153 170 -216t213 -63q123 0 213 78t90 219q0 153 -112 259q-109 103 -290 124v11q149 24 246 95q96 70 96 195q0 64 -25 113
q-24 46 -67 83q-38 32 -96 51q-56 18 -113 18q-128 0 -221 -73q-92 -72 -98 -232h-4q1 189 101 293q99 104 276 104q146 0 245 -81t99 -216q0 -93 -74 -178q-75 -86 -197 -138q61 -12 120 -45q63 -35 104 -78q43 -44 71 -107q27 -60 27 -126z" />
    <glyph glyph-name="four.OP" horiz-adv-x="933" 
d="M694 -164h-106v328h-608l714 1065v-983h260v-82h-260v-328zM61 246h527v784z" />
    <glyph glyph-name="five.OP" horiz-adv-x="811" 
d="M774 215q0 -93 -37 -166q-39 -76 -96 -126q-62 -54 -138 -80q-79 -27 -161 -27q-141 0 -242 53q-100 52 -100 154q0 28 7 52q8 28 22 54h4q69 -153 164 -216t202 -63q117 0 205 79t88 225q0 194 -150 305q-148 110 -433 190l133 518h549v-82h-547l-88 -346
q311 -89 464 -208q154 -120 154 -316z" />
    <glyph glyph-name="six.OP" horiz-adv-x="960" 
d="M41 625q0 167 47 303q46 133 124 228q77 93 178 144q104 52 210 52q122 0 205 -40q84 -40 84 -112q0 -16 -5 -38q-3 -15 -16 -40h-4q-58 96 -138 142q-82 47 -171 47q-85 0 -159 -37t-130 -114q-55 -76 -88 -199t-33 -293q0 -41 1 -61q1 -11 2.5 -29.5t1.5 -26.5
q23 49 62 102q36 49 88 90q51 40 111 64t132 24q87 0 154 -29q68 -30 115 -81q46 -51 72 -122q25 -69 25 -153q0 -110 -36 -198q-36 -89 -94 -148q-59 -61 -134 -90q-77 -30 -156 -30q-115 0 -201 48t-140 134q-52 82 -80 205q-27 119 -27 258zM489 752q-92 0 -179 -43
q-89 -44 -158 -168q21 -244 118 -385q99 -144 258 -144q128 0 208 98q79 97 79 259q0 173 -85 277q-86 106 -241 106z" />
    <glyph glyph-name="seven.OP" horiz-adv-x="854" 
d="M854 1163q-162 -312 -311 -655q-145 -334 -267 -672h-133v4l658 1245h-781v82h834v-4z" />
    <glyph glyph-name="eight.OP" horiz-adv-x="950" 
d="M475 1352q171 0 277 -89q104 -88 104 -231q0 -122 -79 -204t-214 -103q167 -21 261 -120q96 -101 96 -247q0 -166 -121 -272t-324 -106q-202 0 -323 106t-121 272q0 147 95 247q94 99 261 120q-135 21 -214 103t-79 204q0 142 105 231q106 89 276 89zM475 1327
q-134 0 -200 -82q-66 -83 -66 -213t66 -213q66 -82 200 -82t200 82q66 83 66 213t-66 213q-66 82 -200 82zM475 713q-164 0 -245 -99q-80 -98 -80 -256q0 -157 80 -255q81 -99 245 -99t245 99t81 255q0 157 -81 256t-245 99z" />
    <glyph glyph-name="nine.OP" horiz-adv-x="960" 
d="M920 543q0 -164 -48 -303q-47 -137 -123 -229q-76 -93 -179 -144q-102 -51 -210 -51q-121 0 -204 40q-84 41 -84 111q0 16 5 38q4 19 15 40h4q57 -95 138 -141q82 -47 172 -47q84 0 158 37q75 38 130 113q54 75 88 200q33 123 33 293q0 40 -1 60t-3 56q-23 -49 -62 -102
q-35 -47 -89 -90q-52 -41 -110 -64q-60 -24 -132 -24q-86 0 -155 30q-70 30 -115 80q-45 49 -71 122q-26 72 -26 153q0 111 36 199q35 87 94 147q59 61 134 90q79 31 156 31q117 0 202 -48q84 -47 139 -134q54 -85 81 -205q27 -119 27 -258zM145 799q0 -174 85 -278
q85 -105 241 -105q92 0 179 43q91 45 159 168q-21 243 -119 385q-98 143 -258 143q-129 0 -208 -97t-79 -259z" />
    <glyph glyph-name="numbersign.OP" horiz-adv-x="1064" 
d="M154 860h213l143 471h25l-144 -471h402l143 471h25l-144 -471h207v-20h-213l-106 -348h206v-21h-213l-143 -471h-25l144 471h-402l-143 -471h-25l144 471h-207v21h213l106 348h-206v20zM279 492h401l106 348h-401z" />
    <glyph glyph-name="Euro.OP" horiz-adv-x="989" 
d="M666 471h-371q30 -211 125 -339t235 -128q90 0 168 61q76 59 142 201h4q10 -22 15 -44q5 -23 5 -42q0 -86 -97 -143q-98 -57 -237 -57q-171 0 -302 134t-171 357h-182v21h178q-8 44 -11 85q-3 44 -3 89q0 46 3 89q3 41 11 85h-178v20h182q41 225 171 358q131 134 302 134
q138 0 237 -58q97 -57 97 -143q0 -19 -5 -42q-5 -22 -15 -44h-4q-67 143 -142 202q-77 60 -168 60q-141 0 -235 -127q-95 -128 -125 -340h371v-20h-373q-3 -27 -7 -85q-3 -43 -3 -89t3 -89q4 -58 7 -85h373v-21z" />
    <glyph glyph-name="dollar.OP" horiz-adv-x="804" 
d="M301 1536v-197q31 8 51 10q27 3 54 3q26 0 39 -1q26 -2 38 -3v188h23v-190q50 -7 106 -27q44 -16 99 -41v-281h-4q-38 105 -92 180q-49 68 -109 101v-563q102 -60 181 -142q77 -80 77 -202q0 -140 -68 -240q-67 -99 -190 -133v-203h-23v197q-27 -6 -54 -9t-58 -3
q-24 0 -36 1t-34 3v-189h-22v191q-71 11 -127 32q-53 20 -111 54v280h4q44 -114 105 -192q59 -76 129 -109v651q-101 57 -174 132q-72 74 -72 188q0 117 70 199t176 112v203h22zM358 1313q-18 0 -28 -1q-5 0 -14.5 -1t-14.5 -2v-482q72 -39 90 -49q50 -26 92 -51v561
q-33 14 -60 19q-31 6 -65 6zM90 1081q0 -80 54 -137q53 -56 135 -104v465q-88 -22 -138 -79q-51 -58 -51 -145zM418 18q10 0 34 2q6 1 16 3t15 2v563q-48 29 -91 51q-18 9 -50 26.5t-41 22.5v-647q29 -13 56 -17q40 -6 61 -6zM709 285q0 100 -60 169t-143 121v-546
q92 23 147 90q56 68 56 166z" />
    <glyph glyph-name="cent.OP" horiz-adv-x="980" 
d="M528 1016h-6h-6v-940q10 -2 14 -2h15q80 0 151 25t125 79q52 52 87 136q33 80 38 198h4q-1 -250 -113 -387t-321 -145v-185h-22v185q-100 0 -183 37q-80 36 -143 105q-57 62 -93 162q-34 93 -34 208q0 113 38 209t99 166t145 116q83 45 171 57v189h22v-187q16 2 24 2h23
q75 0 139 -20q72 -22 118 -56q51 -37 80 -88q30 -52 30 -116q0 -30 -8 -62q-7 -27 -25 -65h-4q-55 115 -99 193q-43 76 -81 116q-39 40 -82 55q-44 15 -103 15zM141 567q0 -214 103 -343q102 -128 250 -146v936q-71 -6 -137 -41q-63 -34 -112 -92t-76 -138q-28 -82 -28 -176
z" />
    <glyph glyph-name="rublesign.OP" horiz-adv-x="1015" 
d="M240 184q0 -103 35 -134t128 -46v-4h-372v4q40 11 72 35q30 23 30 104v185h-133v20h133v348h-133v21h133v471q0 82 -30 104q-32 24 -72 35v4h542q190 0 285 -76q96 -77 96 -198q0 -165 -111 -263q-112 -98 -315 -98h-288v-348h426v-20h-426v-144zM520 1311h-280v-594h307
q142 0 223 71q82 72 82 213q0 127 -78 219q-78 91 -254 91z" />
    <glyph glyph-name="sterling.OP" horiz-adv-x="804" 
d="M311 395q0 69 -42 132q-37 56 -93 128h-156v21h140q-47 64 -86 134t-39 159q0 86 35 158q35 71 92 121q58 50 132 77q75 27 152 27q133 0 225 -49q93 -49 93 -142q0 -28 -7 -52q-8 -28 -22 -54h-4q-66 145 -153 203q-89 59 -189 59q-107 0 -187 -72q-79 -72 -79 -205
q0 -117 58 -202q62 -90 118 -162h387v-21h-371q38 -50 60 -92q24 -47 24 -98q0 -86 -75 -165q-80 -84 -228 -218h729v-82h-833v4q126 111 226 212q93 94 93 179z" />
    <glyph glyph-name="yen.OP" horiz-adv-x="794" 
d="M61 717h252l-233 438q-45 84 -86 119t-92 53v4h348v-4q-50 -15 -72 -50q-22 -36 23 -120l243 -471l211 401q64 120 34 169q-31 50 -107 71v4h350v-4q-77 -27 -133 -73q-59 -48 -121 -169l-193 -368h256v-21h-266l-20 -37v-311h245v-20h-245v-185q0 -82 29 -104
q31 -24 73 -35v-4h-311v4q40 11 72 35q30 23 30 104v185h-246v20h246v301l-24 47h-263v21z" />
    <glyph glyph-name="exclamdown.cap" horiz-adv-x="307" 
d="M154 1126q-48 0 -81 31q-32 30 -32 82t32 82q33 31 81 31q47 0 80 -31q32 -30 32 -82t-32 -82q-33 -31 -80 -31zM150 913h8l69 -913h-147z" />
    <glyph glyph-name="questiondown.cap" horiz-adv-x="731" 
d="M408 1126q-48 0 -81 31q-32 30 -32 82t32 82q33 31 81 31q47 0 80 -31q32 -30 32 -82t-32 -82q-33 -31 -80 -31zM283 27q112 0 217 62q108 64 170 185h4q11 -20 19 -43q7 -21 7 -43q0 -95 -88 -152q-87 -56 -223 -56q-153 0 -255 77q-103 78 -103 211q0 116 65 199
t143 150q27 24 74.5 65t67.5 58q65 56 65 116q0 16 -7 27q-8 13 -21 22l4 4q40 -29 63 -61q25 -34 25 -72q0 -68 -66 -131q-79 -75 -142 -131q-76 -67 -142 -145t-66 -174q0 -75 51 -122q50 -46 138 -46z" />
    <glyph glyph-name="endash.cap" horiz-adv-x="901" 
d="M41 686h819v-20h-819v20z" />
    <glyph glyph-name="emdash.cap" horiz-adv-x="1720" 
d="M41 686h1638v-20h-1638v20z" />
    <glyph glyph-name="periodcentered.cap" horiz-adv-x="307" 
d="M154 788q48 0 80 -30t32 -82t-32 -82q-33 -31 -80 -31q-48 0 -81 31q-32 30 -32 82t32 82q31 30 81 30z" />
    <glyph glyph-name="hyphen.cap" horiz-adv-x="491" 
d="M41 727h410v-102h-410v102z" />
    <glyph glyph-name="guilsinglleft.cap" horiz-adv-x="520" 
d="M61 637l390 428h8l-266 -430l266 -430h-8l-390 428v4z" />
    <glyph glyph-name="guilsinglright.cap" horiz-adv-x="520" 
d="M459 637v-4l-389 -428h-9l267 430l-267 430h9z" />
    <glyph glyph-name="guillemotleft.cap" horiz-adv-x="827" 
d="M61 637l390 428h8l-266 -430l266 -430h-8l-390 428v4zM369 637l389 428h8l-266 -430l266 -430h-8l-389 428v4z" />
    <glyph glyph-name="guillemotright.cap" horiz-adv-x="827" 
d="M459 637v-4l-389 -428h-9l267 430l-267 430h9zM766 637v-4l-389 -428h-8l266 430l-266 430h8z" />
    <glyph glyph-name="parenleft.cap" horiz-adv-x="479" 
d="M82 676q0 151 36 280q36 130 93 236q56 104 132 194q73 86 153 160l4 -4q-134 -145 -220 -376q-85 -227 -85 -490q0 -264 85 -491q86 -229 220 -375l-4 -5q-80 74 -153 160q-75 89 -132 195q-57 107 -93 235q-36 129 -36 281z" />
    <glyph glyph-name="parenright.cap" horiz-adv-x="479" 
d="M397 676q0 -152 -36 -281q-36 -128 -93 -235q-57 -106 -132 -195q-77 -90 -152 -160l-4 5q134 146 220 375q85 227 85 491q0 263 -85 490q-86 231 -220 376l4 4q75 -70 152 -160q76 -90 132 -194q57 -106 93 -236q36 -129 36 -280z" />
    <glyph glyph-name="bracketleft.cap" horiz-adv-x="479" 
d="M133 -184v1720h326v-20h-219v-1680h219v-20h-326z" />
    <glyph glyph-name="bracketright.cap" horiz-adv-x="479" 
d="M346 -184h-326v20h220v1680h-220v20h326v-1720z" />
    <glyph glyph-name="braceleft.cap" horiz-adv-x="479" 
d="M438 -164v-20h-35q-129 0 -187 54t-58 171v461q0 84 -33 124t-102 40h-23v20h23q69 0 102 40t33 124v461q0 117 58 171q59 54 187 54h35v-20h-32q-69 0 -103 -46q-33 -45 -33 -139v-430q0 -108 -49 -161q-49 -54 -160 -64q110 -10 160 -65q49 -53 49 -160v-431
q0 -94 33 -139t103 -45h32z" />
    <glyph glyph-name="braceright.cap" horiz-adv-x="479" 
d="M322 41q0 -117 -59 -171t-187 -54h-35v20h33q69 0 102 45t33 139v431q0 107 49 160q50 55 160 65q-111 10 -160 64q-49 53 -49 161v430q0 94 -33 139q-34 46 -102 46h-33v20h35q128 0 187 -54t59 -171v-461q0 -85 32 -124q33 -40 103 -40h22v-20h-22q-70 0 -103 -40
q-32 -39 -32 -124v-461z" />
    <glyph glyph-name="numero_sign" horiz-adv-x="2074" 
d="M156 246q0 -122 46 -171q48 -51 117 -71v-4h-350v4q71 21 118 71q46 49 46 171v938q-55 66 -97 97q-41 31 -87 46v4h209l901 -1192v946q0 122 -46 171q-47 50 -118 71v4h350v-4q-71 -21 -118 -71q-46 -49 -46 -171v-1146h-4l-882 1169q-11 15 -21 27q-12 14 -18 22v-911z
M2023 973q0 -160 -103 -266q-104 -107 -271 -107q-166 0 -270 107q-103 106 -103 266t103 266q104 107 270 107q167 0 271 -107q103 -106 103 -266zM1391 1012q0 -80 19 -149q20 -71 57 -123q36 -51 93 -84q53 -31 121 -31q101 0 164 81q64 82 64 228q0 77 -21 148
q-21 72 -58 123q-37 52 -92 84t-122 32q-100 0 -163 -81q-62 -80 -62 -228zM1327 348h645v-20h-645v20zM1327 20h645v-20h-645v20z" />
    <glyph glyph-name="sound_recording_copyright" horiz-adv-x="1495" 
d="M748 1352q144 0 274 -52q127 -51 218 -142t142 -218q52 -130 52 -274q0 -145 -52 -275q-51 -127 -142 -218t-218 -142q-128 -51 -274 -51q-148 0 -275 51t-218 142t-142 218q-52 130 -52 275q0 144 52 274q51 127 142 218t218 142q130 52 275 52zM748 1329
q-143 0 -266 -50q-121 -49 -210 -137q-87 -85 -137 -210q-49 -122 -49 -266q0 -145 49 -267q50 -125 137 -210q89 -88 210 -137q123 -50 266 -50q142 0 265 50q121 49 210 137q87 85 137 210q49 122 49 267q0 144 -49 266q-50 125 -137 210q-89 88 -210 137q-123 50 -265 50
zM649 406q0 -55 20 -72q21 -18 68 -25v-4h-250v4q20 5 39 19q17 12 17 57v559q0 44 -17 56q-18 13 -39 20v4h297q147 0 218 -56q73 -58 73 -147q0 -115 -82 -182q-83 -68 -233 -68h-111v-165zM735 1004h-86v-412h101q102 0 161 49q60 49 60 150q0 87 -57 150t-179 63z" />
    <glyph glyph-name="idotaccent" horiz-adv-x="337" 
d="M225 143q0 -81 30 -104q31 -24 73 -35v-4h-308v4q42 11 73 35q30 23 30 104v799h-205v4l307 98v-901zM174 1229q-45 0 -74 31q-28 29 -28 71q0 46 28 74q29 29 74 29t74 -29q28 -28 28 -74q0 -42 -28 -71q-29 -31 -74 -31z" />
    <glyph glyph-name="acute.cap" 
d="M287 1438l450 211v-123l-450 -92v4z" />
    <glyph glyph-name="grave.cap" 
d="M737 1438v-4l-450 92v123z" />
    <glyph glyph-name="circumflex.cap" 
d="M246 1434h-4l268 221h4l268 -221h-4l-266 102z" />
    <glyph glyph-name="caron.cap" 
d="M246 1659l266 -103l266 103h4l-268 -221h-4l-268 221h4z" />
    <glyph glyph-name="caronSlovak" 
d="M516 963h-4l61 368h134z" />
    <glyph glyph-name="dieresis.cap" 
d="M346 1454q-45 0 -74 31q-28 29 -28 71q0 46 28 74q29 29 74 29t74 -29t29 -74q0 -40 -29 -71t-74 -31zM678 1454q-45 0 -74 31t-29 71q0 45 29 74t74 29t74 -29q28 -28 28 -74q0 -42 -28 -71q-29 -31 -74 -31z" />
    <glyph glyph-name="dotaccent.cap" 
d="M512 1454q-45 0 -74 31q-28 29 -28 71q0 46 28 74q29 29 74 29t74 -29q28 -28 28 -74q0 -42 -28 -71q-29 -31 -74 -31z" />
    <glyph glyph-name="tilde.cap" 
d="M778 1634q-24 -94 -60 -135t-97 -41q-37 0 -75 16q-40 17 -68 34q-35 22 -63 35q-34 16 -63 16q-36 0 -60 -24t-42 -77h-4q24 94 60 135t97 41q39 0 75 -15q35 -15 68 -35q35 -22 63 -35q31 -15 63 -15q36 0 60 24t42 76h4z" />
    <glyph glyph-name="macron.cap" 
d="M727 1618v-102h-430v102h430z" />
    <glyph glyph-name="breve.cap" 
d="M512 1434q-105 0 -170 65q-66 66 -66 180h5q5 -84 72 -118q70 -35 159 -35t159 35q67 34 72 118h5q0 -114 -66 -180q-65 -65 -170 -65z" />
    <glyph glyph-name="ring.cap" 
d="M512 1413q-105 0 -176 37q-72 38 -72 106q0 70 72 107q71 37 176 37t176 -37q72 -37 72 -107q0 -68 -72 -106q-71 -37 -176 -37zM512 1675q-62 0 -98 -29q-37 -30 -37 -90q0 -59 37 -89q36 -29 98 -29t98 29q37 30 37 89q0 60 -37 90q-36 29 -98 29z" />
    <glyph glyph-name="hungarumlaut.cap" 
d="M332 1434h-4l102 225h184zM655 1434h-4l103 225h184z" />
    <glyph glyph-name="commaaccent.alt" 
d="M692 1434h4l-112 -287h-144z" />
    <glyph glyph-name="diameter_sign" horiz-adv-x="1048" 
d="M524 1014q81 0 147 -27q65 -27 117 -74l101 101l14 -15l-100 -100q47 -51 74 -118q26 -64 26 -146q0 -164 -107 -271q-108 -108 -272 -108q-80 0 -146 27q-69 28 -118 73l-100 -100l-15 14l101 101q-47 52 -74 117q-27 66 -27 147q0 163 108 271t271 108zM524 993
q-154 0 -255 -101t-101 -257q0 -73 25 -139t67 -111l514 514q-48 46 -110 70q-63 24 -140 24zM881 635q0 73 -25 139q-25 65 -68 111l-514 -514q47 -46 111 -70q66 -25 139 -25q153 0 255 102t102 257z" />
    <glyph glyph-name="plus.cap" horiz-adv-x="839" 
d="M41 686h369v379h22v-379h367v-20h-367v-379h-22v379h-369v20z" />
    <glyph glyph-name="minus.cap" horiz-adv-x="839" 
d="M41 686h758v-20h-758v20z" />
    <glyph glyph-name="plusminus.cap" horiz-adv-x="839" 
d="M41 686h369v379h22v-379h367v-20h-367v-379h-22v379h-369v20zM41 61h758v-20h-758v20z" />
    <glyph glyph-name="multiply.cap" horiz-adv-x="839" 
d="M422 662l-277 -277l-16 16l277 275l-277 274l16 17l277 -277l276 277l17 -17l-277 -274l277 -275l-17 -16z" />
    <glyph glyph-name="divide.cap" horiz-adv-x="839" 
d="M420 1085q50 0 81 -30t31 -82t-31 -82q-33 -31 -81 -31t-81 31q-32 30 -32 82t32 82q31 30 81 30zM41 686h758v-20h-758v20zM420 492q48 0 81 -31q31 -30 31 -82t-31 -82q-33 -31 -81 -31t-81 31q-32 30 -32 82t32 82q33 31 81 31z" />
    <glyph glyph-name="equal.cap" horiz-adv-x="839" 
d="M41 850h758v-21h-758v21zM41 522h758v-20h-758v20z" />
    <glyph glyph-name="notequal.cap" horiz-adv-x="839" 
d="M41 522h248l272 307h-520v21h537l190 215h31l-191 -215h191v-21h-207l-273 -307h480v-20h-496l-190 -215h-31l190 215h-231v20z" />
    <glyph glyph-name="asciitilde.cap" horiz-adv-x="839" 
d="M612 573q75 0 120 48q44 47 44 157v10h23v-10q0 -114 -47 -170q-46 -55 -142 -55q-64 0 -111 35q-45 33 -85 78q-37 41 -82 77q-44 35 -105 35q-75 0 -119 -47q-45 -48 -45 -158v-10h-22v10q0 114 47 170t141 56q65 0 112 -35q45 -33 85 -78t82 -78q44 -35 104 -35z" />
    <glyph glyph-name="approxequal.cap" horiz-adv-x="839" 
d="M612 737q76 0 120 47t44 158v10h23v-10q0 -114 -47 -170q-46 -55 -142 -55q-64 0 -111 35q-48 35 -85 77q-40 45 -82 78q-44 35 -105 35q-75 0 -119 -47q-45 -48 -45 -158v-10h-22v10q0 114 47 170t141 56q65 0 112 -35q45 -33 85 -78t82 -78q44 -35 104 -35zM612 410
q76 0 120 47t44 157v11h23v-11q0 -114 -47 -170q-46 -55 -142 -55q-64 0 -111 35q-45 33 -85 78t-82 78q-43 34 -105 34q-75 0 -119 -47q-45 -48 -45 -157v-11h-22v11q0 114 47 170q46 55 141 55q65 0 112 -35q45 -33 85 -78t82 -78q43 -34 104 -34z" />
    <glyph glyph-name="less.cap" horiz-adv-x="839" 
d="M41 674v20l758 389v-24l-729 -375l729 -375v-24z" />
    <glyph glyph-name="greater.cap" horiz-adv-x="839" 
d="M799 674l-758 -389v24l729 375l-729 375v24l758 -389v-20z" />
    <glyph glyph-name="lessequal.cap" horiz-adv-x="839" 
d="M41 674v20l758 389v-24l-729 -375l729 -375v-24zM41 61h758v-20h-758v20z" />
    <glyph glyph-name="greaterequal.cap" horiz-adv-x="839" 
d="M799 694v-20l-758 -389v24l729 375l-729 375v24zM41 61h758v-20h-758v20z" />
    <glyph glyph-name="logicalnot.cap" horiz-adv-x="839" 
d="M41 686h758v-399h-23v379h-735v20z" />
    <glyph glyph-name="currency.cap" horiz-adv-x="839" 
d="M420 952q58 0 105 -19q48 -20 85 -52l86 86l17 -17l-86 -84q33 -38 51 -85q18 -48 18 -105q0 -58 -18 -106q-18 -47 -51 -85l86 -84l-17 -16l-86 86q-37 -32 -85 -52q-49 -20 -105 -20q-57 0 -106 20q-48 20 -85 52l-86 -86l-16 16l86 86q-33 34 -51 83q-19 51 -19 106
q0 54 19 105q18 49 51 83l-86 86l16 17l86 -86q37 32 85 52q47 19 106 19zM420 932q-109 0 -182 -73q-72 -72 -72 -183t72 -183q73 -73 182 -73t182 73q72 72 72 183t-72 183q-73 73 -182 73z" />
    <glyph glyph-name="infinity.cap" horiz-adv-x="1224" 
d="M932 922q107 0 180 -71q72 -71 72 -175t-72 -175q-73 -71 -180 -71q-122 0 -194 70q-70 68 -126 155q-56 -84 -127 -155q-70 -70 -192 -70q-107 0 -180 71q-72 71 -72 175t72 175q73 71 180 71q122 0 192 -70q69 -69 127 -156q58 90 126 156q72 70 194 70zM928 901
q-113 0 -180 -70q-65 -68 -123 -155q60 -90 123 -156q66 -69 180 -69q102 0 167 64q66 65 66 161t-66 161q-65 64 -167 64zM63 676q0 -96 67 -161q65 -64 167 -64q114 0 180 69q61 64 121 156q-55 85 -122 155t-179 70q-102 0 -167 -64q-67 -65 -67 -161z" />
    <glyph glyph-name="diameter_sign.cap" horiz-adv-x="1048" 
d="M524 1055q81 0 147 -27q65 -27 117 -74l101 101l14 -15l-100 -100q47 -51 74 -118q26 -64 26 -146q0 -165 -107 -272t-272 -107q-80 0 -146 27q-69 28 -118 73l-100 -100l-15 14l101 101q-47 52 -74 117q-27 66 -27 147q0 163 108 271t271 108zM524 1034
q-154 0 -255 -101t-101 -257q0 -73 25 -139t67 -111l514 514q-48 46 -110 70q-63 24 -140 24zM881 676q0 73 -25 139q-25 65 -68 111l-514 -514q47 -46 111 -70q66 -25 139 -25q153 0 255 102t102 257z" />
    <glyph glyph-name="Bob" horiz-adv-x="1783" 
d="M1573 1284q37 -6 46 -32q9 -25 3 -62q-6 -38 -21 -84q-18 -57 -28 -98q-20 -96 -28 -185q-8 -90 -27 -147q0 -25 1 -33q1 -4 1.5 -13.5t0.5 -14.5q1 -5 1.5 -17.5t0.5 -19.5q1 -15 1 -64q0 -152 -48 -229q-49 -78 -108 -140l365 -51l-379 37l-29 -33l289 -61l-295 55
l-19 -22l259 -115l-271 100v2q-2 -1 -4 -4t-4 -5q-6 -6 -10 -9l139 -168l-149 158l-25 -17l115 -157l-123 151q-84 -57 -156 -57h-72l-33 -25q-34 -24 -89 -24t-96 30l-40 31l-54 3q-54 3 -126 42l-282 -207l270 215l-29 19l-284 -164l274 172q-10 6 -14 10q-2 2 -4.5 4
t-5.5 4.5t-5 3.5l-276 -165l268 174q-10 8 -14 12q-9 9 -13 14l-378 -161l368 172l-6 8l-27 28l-391 -34l381 49q-49 60 -94 140q-46 82 -45 187q0 99 8 169q7 65 23 118q-5 14 -12 22q-7 9 -15 27q-9 22 -16 53q-13 58 -17 93q-6 19 -24 71t-28 82q-29 87 -30 144
q-1 51 17 83q18 31 59 31q32 0 105 -50q75 -52 144 -109q58 -48 129 -110l56 -50l37 -2q10 0 38.5 -1.5t45.5 -2.5q16 -1 46.5 -2.5t45.5 -1.5l60 -2q19 0 62 4q48 5 99 9l93 9l41 4l42 36q43 37 98 76q54 39 116 71q60 32 96 26zM1317 178q-19 -2 -29 -1q-12 1 -28 9
q32 5 49 12q21 9 39 23q-8 -1 -21 -2.5t-18 -1.5q-18 -1 -33 0q15 6 27 15q4 3 11 9t11 9q-19 -4 -47 -4t-41 4q29 7 46 17q23 13 42 20q-29 -1 -48 -3q-13 -1 -40 -1q7 3 17 9q8 5 16 13q-54 -5 -95 13q-44 19 -72 40q-29 21 -46 42l-17 20l3 -22q3 -20 20 -54
q-23 18 -39 54q-16 35 -16 100q0 52 34 142q28 73 76 179q35 76 76 153l35 64q-6 -10 -39 -68t-50 -89q-49 -87 -85 -172q18 80 48 155q28 69 44 166q-35 -123 -75 -225q-45 -113 -64 -150q2 6 8.5 32.5t10.5 38.5q2 6 6.5 21t8 29t7.5 27l-21 -33q3 11 5 35q1 12 -1 37
q-4 -24 -12 -45q-6 -16 -21 -37q0 16 1 26q1 12 8 31q-11 -16 -15 -29l-8 -28q1 10 2 30.5t1 30.5q1 30 -5 62q-1 -13 -7 -46q-3 -18 -13 -47q0 13 -2 41l-5 41q0 -1 -7 -40q-2 -12 -11 -52q-5 -21 -14 -51q-6 -19 -15 -37q-2 18 -8 28q-6 8 -4 25q-8 -16 -9 -25
q-2 -16 -3 -26q-3 9 -13 34q-6 14 -4 40q-14 -31 -17 -43q-6 -21 -7 -43q-6 16 -9 25l-8 28q-8 -19 -16 -42q-7 -20 -8 -40q-2 2 -17 24q-9 12 -14 34q-4 -28 -6 -50q-1 -20 0 -34q-5 13 -13 24q-1 2 -7.5 10.5t-10.5 14.5q11 -36 14 -70q3 -37 -1 -59q-10 65 -13 91
q-8 67 -22 131q-17 81 -34 143q-21 77 -46 130q29 -91 51 -188q23 -102 33 -176q-30 80 -47 119q-3 8 -23.5 55.5t-31.5 72.5q-10 24 -29.5 68t-25.5 59q-12 28 -52 113q49 -126 98 -239q56 -129 90 -240q-43 56 -105 121q-69 72 -124 117q94 -101 135 -143q54 -56 83 -99
q30 -45 42 -91q12 -47 12 -116q0 -38 -11 -63q-12 -28 -24 -35q2 10 4 21.5t3.5 19.5t1.5 13l2 17q-33 -26 -87 -52q-52 -25 -145 -27q13 -15 28 -21q13 -5 30 -16q-5 -8 -29 -7t-39 3q2 -5 13 -19q10 -13 28 -24q-15 0 -39 8q-23 8 -41 24q16 -26 36 -43t38 -22
q-8 -5 -33 3q-26 8 -45 19q14 -22 42 -40q24 -16 50 -23q-5 -8 -23 -8q-19 0 -30 8q0 -105 69 -171q70 -67 177 -67q65 0 109 30t44 50q0 12 -21 24q-5 3 -21 11t-25 14q-26 16 -42 35q-17 20 -11 53l2 2q1 -3 3 -6.5t4.5 -8.5l4.5 -9q7 -14 18 -14q12 -1 30 -10t24 -15
l1 -1q1 -2 2.5 -4.5t2.5 -4.5q6 -10 12 -11q7 -1 20 -3q8 -1 21 -1q16 1 18 17q1 14 17 16q28 5 51 19q26 16 31 34q2 -2 4 -2h2q-1 -26 -23 -46q-24 -22 -44 -36q-21 -15 -43 -28q-19 -12 -19 -23q0 -23 47 -61q46 -37 115 -37q45 0 90 16q47 17 86 45q37 27 65 71
q27 42 27 91zM592 485q-33 0 -54 24q-22 25 -22 56q0 22 7 37q8 17 22 27q-49 -7 -51 -30l-2 -21l2 -17q1 -14 11 -37q8 -19 30 -38q20 -18 57 -19q65 -2 88 10l25 12l-7 33q-6 35 -26 66q0 -8 1 -11t1 -12q0 -31 -25 -56q-24 -24 -57 -24zM1169 463q-35 0 -57 23t-22 57
q0 11 3 23q3 13 9 20q-43 -24 -51 -66l-9 -41l32 -20q32 -21 95 -21q31 0 53 16q22 15 33 34q15 24 18 35l5 16l-10 18q-11 18 -37 33q7 -7 12 -21q4 -11 4 -26q0 -34 -22 -57t-56 -23zM651 578q0 4 -3 7t-9 3q-1 0 -6 -3q-4 -3 -4 -7q0 -5 4 -9t6 -4q6 0 9 4q3 5 3 9z
M1221 565q0 4 -4 8q-5 5 -11 5q-4 0 -7 -5t-3 -8t3 -7q3 -5 7 -5q6 0 11 5q4 4 4 7zM629 209q0 -6 -4 -9q-5 -3 -9 -3t-7 3t-3 9q0 7 3 8q4 2 7 2t9 -2q4 -1 4 -8zM674 160q0 -6 -3 -10q-3 -5 -7 -5q-7 0 -10 5q-3 4 -3 10q0 4 3 6q4 2 10 2q3 0 7 -2q3 -2 3 -6zM1149 66
q0 -24 -20 -44t-44 -20q-27 0 -49 20q-20 19 -20 44q0 28 20 48q21 21 49 21q25 0 44 -21q20 -22 20 -48zM616 117q0 -5 -3 -6q-4 -2 -7 -2t-7 2q-3 1 -3 6q0 4 3 7t7 3t7 -3t3 -7zM651 66q0 -4 -3 -9q-3 -4 -9 -4q-2 0 -6 4t-4 9q0 2 4 5q5 3 6 3q6 0 9 -3t3 -5zM727 47
q0 -4 -4 -7q-5 -3 -8 -3q-1 0 -6 3q-4 3 -4 7t4 8t6 4q4 0 8 -4t4 -8z" />
    </font>
</defs>
</svg>
